<?xml version="1.0" encoding="utf-8" standalone="no"?>
<svg xmlns:dc="http://purl.org/dc/elements/1.1/" xmlns:cc="http://creativecommons.org/ns#" xmlns:rdf="http://www.w3.org/1999/02/22-rdf-syntax-ns#" xmlns:svg="http://www.w3.org/2000/svg" xmlns="http://www.w3.org/2000/svg" xmlns:sodipodi="http://sodipodi.sourceforge.net/DTD/sodipodi-0.dtd" xmlns:inkscape="http://www.inkscape.org/namespaces/inkscape" height="1" version="1.1" width="1" id="svg2" inkscape:version="0.91 r13725" sodipodi:docname="AsyMetricFill.svg">
  <metadata id="metadata8">
    <rdf:RDF>
      <cc:Work rdf:about="">
        <dc:format>image/svg+xml</dc:format>
        <dc:type rdf:resource="http://purl.org/dc/dcmitype/StillImage" />
        <dc:title></dc:title>
      </cc:Work>
    </rdf:RDF>
  </metadata>
  <defs id="defs6">
    <pattern width="1" height="1" id="AsyMetricFill" patternContentUnits="objectBoundingBox">
      <path style="fill:#000000" d="m 0.31393882,0.70895183 c -0.002819,-0.001675 -0.017826,-0.004641 -0.0333438,-0.006593 C 0.247579,0.69820539 0.18523467,0.67200568 0.15757696,0.65066155 0.14692187,0.64243885 0.1269595,0.61494815 0.11321565,0.5895712 0.08646639,0.54018064 0.0189746,0.38370377 0.0189746,0.37107784 c 0,-0.0107481 0.97290889,-0.0104236 0.97730072,3.2574e-4 0.001783,0.004364 -0.002966,0.0244428 -0.0105435,0.0446195 -0.007581,0.0201766 -0.0196475,0.0523987 -0.0268124,0.0716046 -0.0276636,0.0741534 -0.052455,0.12635937 -0.0688036,0.14488728 -0.0257759,0.0292124 -0.0602905,0.0537826 -0.0888446,0.0632475 -0.024078,0.007981 -0.47551859,0.020199 -0.48733226,0.0131891 z m 0.0993267,-0.041963 C 0.37292663,0.64095158 0.32741981,0.60060573 0.27803016,0.54709075 0.2401219,0.50601634 0.23714737,0.50212715 0.18913881,0.43087561 0.16077991,0.38878676 0.15731971,0.38592627 0.13751311,0.38819603 l -0.0212295,0.002433 0.009056,0.0248073 c 0.0179226,0.0490962 0.0712636,0.14445504 0.10372287,0.18542764 0.018364,0.0231803 0.0492057,0.0520881 0.0692525,0.0649098 0.0327116,0.0209218 0.0415012,0.0231204 0.0925712,0.0231545 l 0.0564279,3.881e-5 -0.0340486,-0.0219772 z m 0.18024819,0.0191816 c 0,-0.001768 -0.0190442,-0.0172341 -0.042321,-0.034368 C 0.51463971,0.62489563 0.43701748,0.55504463 0.4293597,0.54216706 0.4279477,0.53979506 0.4140983,0.52225696 0.3985808,0.50319416 0.383063,0.48413136 0.3581989,0.45013266 0.343327,0.42764156 l -0.0270398,-0.0408928 -0.0676473,0 -0.0676473,0 0.0228698,0.0356994 c 0.0648438,0.10122056 0.19657252,0.2247035 0.27166571,0.25466066 0.0251858,0.0100475 0.11798572,0.0171748 0.11798572,0.009062 z m 0.22184806,-0.0158875 0.0166034,-0.0105605 -0.0127823,-0.007808 c -0.007028,-0.004295 -0.0289407,-0.0171004 -0.0486907,-0.0284573 -0.0392973,-0.0225973 -0.1695491,-0.1227653 -0.18251251,-0.14035805 -0.004455,-0.006045 -0.009769,-0.0109908 -0.0118114,-0.0109908 -0.00204,0 -0.0228912,-0.0193047 -0.0463316,-0.0428993 l -0.0426189,-0.0428992 -0.0737871,0.00216 -0.0737872,0.00216 0.0250322,0.0367849 c 0.0238613,0.0350641 0.11726502,0.14557316 0.12304033,0.14557316 0.001509,0 0.0115046,0.009089 0.0222101,0.020198 0.02133,0.0221336 0.0716835,0.0589051 0.11180128,0.0816444 0.022338,0.0126618 0.0354193,0.0139881 0.10134002,0.0102761 0.0460504,-0.002593 0.0821927,-0.008398 0.0922941,-0.0148226 z m -0.54502634,0.003583 c 0,-0.004268 -0.002331,-0.00776 -0.005183,-0.00776 -0.009014,0 -0.0528176,-0.0501867 -0.0803632,-0.0920749 -0.0273567,-0.0416013 -0.0535794,-0.0967157 -0.0734142,-0.15430226 -0.0112307,-0.0326055 -0.01167371,-0.0329796 -0.03905553,-0.0329796 -0.01523277,0 -0.0276666,0.002619 -0.02763055,0.00582 9.227e-5,0.008345 0.04974312,0.1220842 0.07649191,0.17523237 0.0248774,0.0494302 0.0525113,0.0752218 0.10111149,0.0943709 0.0159922,0.006301 0.030266,0.0132559 0.0317202,0.0154552 0.004624,0.006996 0.016323,0.0043 0.016323,-0.003761 z m 0.62219965,-0.082823 c 0.0163383,-0.0241719 0.0290354,-0.049146 0.0282142,-0.0554981 -8.2827e-4,-0.006393 -0.0243931,-0.0260989 -0.0527903,-0.0441403 -0.0282142,-0.0179251 -0.0764547,-0.0488056 -0.10720142,-0.0686234 l -0.0559032,-0.0360324 -0.0948596,0 -0.0948596,0 0.0186464,0.0191414 c 0.0621,0.0637489 0.21373381,0.18531251 0.26671364,0.213822 0.0464644,0.0250035 0.0582409,0.0213353 0.0920403,-0.0286692 z m 0.0659133,-0.14803478 0.0203148,-0.0562594 -0.11439496,4.8116e-4 -0.11439487,4.8118e-4 0.0205194,0.0145656 c 0.0112854,0.008011 0.0320611,0.0219887 0.0461683,0.0310613 0.0141067,0.009073 0.0429622,0.0282468 0.0641227,0.0426093 0.0211604,0.0143625 0.0427209,0.025485 0.0479122,0.0247167 0.005995,-8.8636e-4 0.0168574,-0.0219428 0.0297532,-0.0576563 z" id="path4538" inkscape:connector-curvature="0" />
    </pattern>
  </defs>
  <sodipodi:namedview pagecolor="#ffffff" bordercolor="#666666" borderopacity="1" objecttolerance="10" gridtolerance="10" guidetolerance="10" inkscape:pageopacity="0" inkscape:pageshadow="2" inkscape:window-width="1680" inkscape:window-height="988" id="namedview4" showgrid="false" inkscape:zoom="256" inkscape:cx="0.5" inkscape:cy="0.5" inkscape:window-x="-8" inkscape:window-y="-8" inkscape:window-maximized="1" inkscape:current-layer="svg2" />
  <path style="fill:#000000" d="m 0.31393882,0.70895183 c -0.002819,-0.001675 -0.017826,-0.004641 -0.0333438,-0.006593 C 0.247579,0.69820539 0.18523467,0.67200568 0.15757696,0.65066155 0.14692187,0.64243885 0.1269595,0.61494815 0.11321565,0.5895712 0.08646639,0.54018064 0.0189746,0.38370377 0.0189746,0.37107784 c 0,-0.0107481 0.97290889,-0.0104236 0.97730072,3.2574e-4 0.001783,0.004364 -0.002966,0.0244428 -0.0105435,0.0446195 -0.007581,0.0201766 -0.0196475,0.0523987 -0.0268124,0.0716046 -0.0276636,0.0741534 -0.052455,0.12635937 -0.0688036,0.14488728 -0.0257759,0.0292124 -0.0602905,0.0537826 -0.0888446,0.0632475 -0.024078,0.007981 -0.47551859,0.020199 -0.48733226,0.0131891 z m 0.0993267,-0.041963 C 0.37292663,0.64095158 0.32741981,0.60060573 0.27803016,0.54709075 0.2401219,0.50601634 0.23714737,0.50212715 0.18913881,0.43087561 0.16077991,0.38878676 0.15731971,0.38592627 0.13751311,0.38819603 l -0.0212295,0.002433 0.009056,0.0248073 c 0.0179226,0.0490962 0.0712636,0.14445504 0.10372287,0.18542764 0.018364,0.0231803 0.0492057,0.0520881 0.0692525,0.0649098 0.0327116,0.0209218 0.0415012,0.0231204 0.0925712,0.0231545 l 0.0564279,3.881e-5 -0.0340486,-0.0219772 z m 0.18024819,0.0191816 c 0,-0.001768 -0.0190442,-0.0172341 -0.042321,-0.034368 C 0.51463971,0.62489563 0.43701748,0.55504463 0.4293597,0.54216706 0.4279477,0.53979506 0.4140983,0.52225696 0.3985808,0.50319416 0.383063,0.48413136 0.3581989,0.45013266 0.343327,0.42764156 l -0.0270398,-0.0408928 -0.0676473,0 -0.0676473,0 0.0228698,0.0356994 c 0.0648438,0.10122056 0.19657252,0.2247035 0.27166571,0.25466066 0.0251858,0.0100475 0.11798572,0.0171748 0.11798572,0.009062 z m 0.22184806,-0.0158875 0.0166034,-0.0105605 -0.0127823,-0.007808 c -0.007028,-0.004295 -0.0289407,-0.0171004 -0.0486907,-0.0284573 -0.0392973,-0.0225973 -0.1695491,-0.1227653 -0.18251251,-0.14035805 -0.004455,-0.006045 -0.009769,-0.0109908 -0.0118114,-0.0109908 -0.00204,0 -0.0228912,-0.0193047 -0.0463316,-0.0428993 l -0.0426189,-0.0428992 -0.0737871,0.00216 -0.0737872,0.00216 0.0250322,0.0367849 c 0.0238613,0.0350641 0.11726502,0.14557316 0.12304033,0.14557316 0.001509,0 0.0115046,0.009089 0.0222101,0.020198 0.02133,0.0221336 0.0716835,0.0589051 0.11180128,0.0816444 0.022338,0.0126618 0.0354193,0.0139881 0.10134002,0.0102761 0.0460504,-0.002593 0.0821927,-0.008398 0.0922941,-0.0148226 z m -0.54502634,0.003583 c 0,-0.004268 -0.002331,-0.00776 -0.005183,-0.00776 -0.009014,0 -0.0528176,-0.0501867 -0.0803632,-0.0920749 -0.0273567,-0.0416013 -0.0535794,-0.0967157 -0.0734142,-0.15430226 -0.0112307,-0.0326055 -0.01167371,-0.0329796 -0.03905553,-0.0329796 -0.01523277,0 -0.0276666,0.002619 -0.02763055,0.00582 9.227e-5,0.008345 0.04974312,0.1220842 0.07649191,0.17523237 0.0248774,0.0494302 0.0525113,0.0752218 0.10111149,0.0943709 0.0159922,0.006301 0.030266,0.0132559 0.0317202,0.0154552 0.004624,0.006996 0.016323,0.0043 0.016323,-0.003761 z m 0.62219965,-0.082823 c 0.0163383,-0.0241719 0.0290354,-0.049146 0.0282142,-0.0554981 -8.2827e-4,-0.006393 -0.0243931,-0.0260989 -0.0527903,-0.0441403 -0.0282142,-0.0179251 -0.0764547,-0.0488056 -0.10720142,-0.0686234 l -0.0559032,-0.0360324 -0.0948596,0 -0.0948596,0 0.0186464,0.0191414 c 0.0621,0.0637489 0.21373381,0.18531251 0.26671364,0.213822 0.0464644,0.0250035 0.0582409,0.0213353 0.0920403,-0.0286692 z m 0.0659133,-0.14803478 0.0203148,-0.0562594 -0.11439496,4.8116e-4 -0.11439487,4.8118e-4 0.0205194,0.0145656 c 0.0112854,0.008011 0.0320611,0.0219887 0.0461683,0.0310613 0.0141067,0.009073 0.0429622,0.0282468 0.0641227,0.0426093 0.0211604,0.0143625 0.0427209,0.025485 0.0479122,0.0247167 0.005995,-8.8636e-4 0.0168574,-0.0219428 0.0297532,-0.0576563 z" id="path4538" inkscape:connector-curvature="0" />
</svg>