<?xml version="1.0" encoding="utf-8" standalone="no"?>
<svg xmlns:dc="http://purl.org/dc/elements/1.1/" xmlns:cc="http://creativecommons.org/ns#" xmlns:rdf="http://www.w3.org/1999/02/22-rdf-syntax-ns#" xmlns:svg="http://www.w3.org/2000/svg" xmlns="http://www.w3.org/2000/svg" xmlns:sodipodi="http://sodipodi.sourceforge.net/DTD/sodipodi-0.dtd" xmlns:inkscape="http://www.inkscape.org/namespaces/inkscape" height="1" version="1.1" width="1" id="svg2" inkscape:version="0.91 r13725" sodipodi:docname="Symmetric.svg">
  <metadata id="metadata8">
    <rdf:RDF>
      <cc:Work rdf:about="">
        <dc:format>image/svg+xml</dc:format>
        <dc:type rdf:resource="http://purl.org/dc/dcmitype/StillImage" />
        <dc:title></dc:title>
      </cc:Work>
    </rdf:RDF>
  </metadata>
  <defs id="defs6">
    <pattern width="1" height="1" id="SymmetricForm" patternContentUnits="objectBoundingBox">
      <path style="fill:#000000" d="M 0.40350683,0.69208904 C 0.355439,0.67127784 0.30560273,0.65214398 0.26486292,0.62108984 0.16620589,0.5498518 0.08963285,0.45764338 0.03323279,0.35860806 c 0.02180617,-0.0120744 0.06420358,-0.004649 0.09346022,-0.008113 0.23138902,-0.00327 0.46284123,-0.002634 0.69425017,-0.001777 0.0421827,0.00193 0.0861702,-0.001413 0.12666622,0.0104395 0.0233032,0.0230956 -0.0243866,0.0499349 -0.0327116,0.0736754 -0.0425237,0.067039 -0.0981066,0.12776439 -0.16192595,0.18075176 -0.0472071,0.0344887 -0.10298099,0.0588703 -0.15871478,0.0812481 -0.0590697,0.00656 -0.11940422,0.005245 -0.17857665,1.0278e-4 -0.004263,-8.948e-5 -0.008126,-0.0019 -0.0121736,-0.002847 z m 0.19921452,-0.0371655 c 0.0271488,-0.0256278 0.0596626,-0.0237665 0.0907711,-0.0470393 0.0208644,-0.0289174 0.0568094,-0.0304221 0.0849463,-0.0528796 0.0446433,-0.0430656 0.10093075,-0.1226927 0.13353473,-0.17295248 -0.2039925,-0.002717 -0.40382068,0.004463 -0.5889071,0.004728 -0.0788324,-0.00884 -0.15908274,-0.005396 -0.23336757,-0.007915 0.03099876,0.0367776 0.05741575,0.0765192 0.09123033,0.11141199 0.0396042,0.0494842 0.0391772,0.0491751 0.0396042,0.0494842 0.0190451,0.022613 0.1024096,0.0798891 0.13279185,0.0896181 0.030589,0.009482 0.0370601,0.0273682 0.0726933,0.030063 0.0575082,0.0116834 0.12024118,0.0103224 0.17670283,-0.004519 z M 0.48594528,0.61342698 c 0.007153,-0.0269867 0.0436043,0.004623 0.007256,0.007681 -0.004808,4.6644e-4 -0.007762,-0.004131 -0.007256,-0.007681 z m 0.0873564,0.005142 c 0.00234,-0.0411601 0.0411786,0.009421 0,0 z M 0.33755611,0.60244606 c 0.009926,-0.0217509 0.0209551,0.0112456 0.001068,0.005281 z m 0.0708686,-0.00631 c 0.00234,-0.0411602 0.0411786,0.009421 0,0 z m 0.21328799,-0.001543 c -0.0118648,-0.0328502 0.0409274,0.009167 0.002804,0.002773 z M 0.3055863,0.57737446 c -0.022306,-0.0259925 0.0429652,-0.0238246 0.0200251,0.002923 -0.005102,0.007386 -0.0158111,0.002159 -0.0200251,-0.002923 z m 0.1778351,0.005335 c -0.0117067,-0.0247631 0.0345401,-0.0182568 0.0154442,0.002903 -0.004776,0.004009 -0.0118639,6.0158e-4 -0.0154442,-0.002903 z M 0.37053146,0.56194387 c 0.0126619,-0.0330584 0.0380915,0.0141108 0.002853,0.007058 l -0.00208,-0.002825 z m 0.28449566,-0.00424 c -0.0128458,-0.0317187 0.0417334,-0.0212923 0.0128509,0.003298 -0.004378,0.002557 -0.0105029,4.7104e-4 -0.0128509,-0.003298 z m -0.2391545,-0.007599 c -0.013017,-0.022227 0.0310883,-0.030931 0.0200773,-0.00211 -6.5133e-4,0.0114071 -0.0155856,0.0121544 -0.0200773,0.00211 z m 0.17471874,0.002695 c -0.0117067,-0.0247631 0.0345399,-0.0182568 0.0154442,0.002903 -0.004776,0.004009 -0.0118637,6.0158e-4 -0.0154442,-0.002903 z m 0.13969708,-0.0153611 c -0.0255769,-0.0303909 0.0414425,-0.0280486 0.0126149,3.2699e-4 -0.003453,0.002842 -0.009462,0.003007 -0.0126149,-3.2699e-4 z m -0.4241276,-0.0178045 c 0.0270462,-0.0298135 0.0268424,0.0315141 0,0 z m 0.22924746,-0.003178 c 0.007465,-0.0329397 0.0294575,0.0210316 0.002422,0.007921 l -0.00177,-0.003566 z m -0.0741946,-0.007477 c 0.008724,-0.0317726 0.0440629,0.0148928 0.007564,0.010331 -0.004622,-0.001751 -0.007628,-0.006022 -0.007564,-0.010331 z m 0.11084799,-0.0118671 c -0.0126472,-0.0329675 0.0519669,-0.008037 0.0163147,0.007278 -0.006786,0.002136 -0.0132598,-0.002426 -0.0163147,-0.007278 z m -0.29598236,-0.006309 c 0.001016,-0.0356176 0.0484647,0.0116634 0.005486,0.004916 z m 0.0630225,-9.8372e-4 c 0.006865,-0.0221733 0.0372123,-0.0101473 0.0116991,0.004498 -0.005118,0.004121 -0.0154665,0.003599 -0.0116991,-0.004498 z m 0.3398255,-0.002344 c -0.016896,-0.034613 0.0432206,-0.007527 0.0101678,0.007603 -0.005707,0.003277 -0.009028,-0.004839 -0.0101678,-0.007603 z m -0.29190819,-0.004666 c 0.0110138,-0.0227245 0.0413896,0.0116157 0.007564,0.006887 -0.003594,-8.8667e-4 -0.007522,-0.003304 -0.007564,-0.006887 z m 0.3792167,0 c 0.0204207,-0.0287265 0.0204082,0.0281118 0,0 z m -0.2967783,-0.0112148 c 0.008724,-0.0317727 0.0440628,0.0148928 0.007564,0.010331 -0.004622,-0.001751 -0.007628,-0.006022 -0.007564,-0.010331 z m -0.21288336,-0.022827 c 0.007767,-0.0350409 0.0409897,0.0173104 0.005645,0.0107495 -0.004876,-0.001582 -0.00687,-0.006677 -0.005645,-0.0107495 z m 0.17716009,0.006626 c -0.0227039,-0.0295806 0.0441436,-0.010685 0.0102547,0.004889 -0.004083,-1.7158e-4 -0.007545,-0.002472 -0.0102547,-0.004889 z m 0.0853095,-0.009625 c -0.0239992,-0.0110616 -0.0116575,-0.0302552 0.0116576,-0.016953 0.0263144,9.8989e-4 0.0421532,0.0431251 0.004986,0.0267675 -0.005925,-0.002767 -0.0114072,-0.006179 -0.0166436,-0.009815 z m 0.17299754,0.003393 c 0.008724,-0.0317727 0.0440628,0.0148928 0.007564,0.010331 -0.004622,-0.001751 -0.007628,-0.006022 -0.007564,-0.010331 z m 0.0780606,-0.004114 c -0.0118647,-0.0328502 0.0409273,0.009167 0.002804,0.002773 z m -0.17228746,-0.006255 c -0.00504,-0.0294728 0.0480558,-0.0163941 0.0185645,0.004432 -0.006267,0.004162 -0.0153155,0.001139 -0.0185645,-0.004432 z M 0.22626424,0.42299118 c 0.002946,-0.021863 0.032592,0.009057 0.004523,0.00528 z m 0.14426722,0 c 0.0131617,-0.0245754 0.0236643,0.0208189 6.5115e-4,0.002903 z M 0.14794774,0.40429781 c 0.008724,-0.0317726 0.0440628,0.0148928 0.007564,0.010331 -0.004622,-0.001751 -0.007628,-0.006022 -0.007564,-0.010331 z m 0.18960836,0.003739 c 0.011014,-0.0227246 0.0413896,0.0116157 0.007564,0.006887 -0.003594,-8.8668e-4 -0.007522,-0.003304 -0.007564,-0.006887 z m 0.46354437,-0.001402 c 0.0123295,-0.0312498 0.0391441,0.0121643 0.004978,0.008179 -0.003847,-9.7402e-4 -0.00653,-0.004834 -0.004978,-0.008179 z m -0.24096064,-0.00958 c 0.009376,-0.0244761 0.0350591,0.0170442 0.004455,0.009455 -0.003351,-0.002179 -0.004473,-0.006027 -0.004455,-0.009455 z" id="path4349" inkscape:connector-curvature="0" sodipodi:nodetypes="ccccccccccccccccccccccccccccccccccccccccccccccccccccccccccccccccccccccccccccccccccccccccccccccccccccccccccccccccccccccccccc" />
    </pattern>
  </defs>
  <sodipodi:namedview pagecolor="#ffffff" bordercolor="#666666" borderopacity="1" objecttolerance="10" gridtolerance="10" guidetolerance="10" inkscape:pageopacity="0" inkscape:pageshadow="2" inkscape:window-width="1680" inkscape:window-height="988" id="namedview4" showgrid="false" inkscape:zoom="256" inkscape:cx="0.25585938" inkscape:cy="0.50195312" inkscape:window-x="-8" inkscape:window-y="-8" inkscape:window-maximized="1" inkscape:current-layer="svg2" />
  <path style="fill:#000000" d="M 0.40350683,0.69208904 C 0.355439,0.67127784 0.30560273,0.65214398 0.26486292,0.62108984 0.16620589,0.5498518 0.08963285,0.45764338 0.03323279,0.35860806 c 0.02180617,-0.0120744 0.06420358,-0.004649 0.09346022,-0.008113 0.23138902,-0.00327 0.46284123,-0.002634 0.69425017,-0.001777 0.0421827,0.00193 0.0861702,-0.001413 0.12666622,0.0104395 0.0233032,0.0230956 -0.0243866,0.0499349 -0.0327116,0.0736754 -0.0425237,0.067039 -0.0981066,0.12776439 -0.16192595,0.18075176 -0.0472071,0.0344887 -0.10298099,0.0588703 -0.15871478,0.0812481 -0.0590697,0.00656 -0.11940422,0.005245 -0.17857665,1.0278e-4 -0.004263,-8.948e-5 -0.008126,-0.0019 -0.0121736,-0.002847 z m 0.19921452,-0.0371655 c 0.0271488,-0.0256278 0.0596626,-0.0237665 0.0907711,-0.0470393 0.0208644,-0.0289174 0.0568094,-0.0304221 0.0849463,-0.0528796 0.0446433,-0.0430656 0.10093075,-0.1226927 0.13353473,-0.17295248 -0.2039925,-0.002717 -0.40382068,0.004463 -0.5889071,0.004728 -0.0788324,-0.00884 -0.15908274,-0.005396 -0.23336757,-0.007915 0.03099876,0.0367776 0.05741575,0.0765192 0.09123033,0.11141199 0.0396042,0.0494842 0.0391772,0.0491751 0.0396042,0.0494842 0.0190451,0.022613 0.1024096,0.0798891 0.13279185,0.0896181 0.030589,0.009482 0.0370601,0.0273682 0.0726933,0.030063 0.0575082,0.0116834 0.12024118,0.0103224 0.17670283,-0.004519 z M 0.48594528,0.61342698 c 0.007153,-0.0269867 0.0436043,0.004623 0.007256,0.007681 -0.004808,4.6644e-4 -0.007762,-0.004131 -0.007256,-0.007681 z m 0.0873564,0.005142 c 0.00234,-0.0411601 0.0411786,0.009421 0,0 z M 0.33755611,0.60244606 c 0.009926,-0.0217509 0.0209551,0.0112456 0.001068,0.005281 z m 0.0708686,-0.00631 c 0.00234,-0.0411602 0.0411786,0.009421 0,0 z m 0.21328799,-0.001543 c -0.0118648,-0.0328502 0.0409274,0.009167 0.002804,0.002773 z M 0.3055863,0.57737446 c -0.022306,-0.0259925 0.0429652,-0.0238246 0.0200251,0.002923 -0.005102,0.007386 -0.0158111,0.002159 -0.0200251,-0.002923 z m 0.1778351,0.005335 c -0.0117067,-0.0247631 0.0345401,-0.0182568 0.0154442,0.002903 -0.004776,0.004009 -0.0118639,6.0158e-4 -0.0154442,-0.002903 z M 0.37053146,0.56194387 c 0.0126619,-0.0330584 0.0380915,0.0141108 0.002853,0.007058 l -0.00208,-0.002825 z m 0.28449566,-0.00424 c -0.0128458,-0.0317187 0.0417334,-0.0212923 0.0128509,0.003298 -0.004378,0.002557 -0.0105029,4.7104e-4 -0.0128509,-0.003298 z m -0.2391545,-0.007599 c -0.013017,-0.022227 0.0310883,-0.030931 0.0200773,-0.00211 -6.5133e-4,0.0114071 -0.0155856,0.0121544 -0.0200773,0.00211 z m 0.17471874,0.002695 c -0.0117067,-0.0247631 0.0345399,-0.0182568 0.0154442,0.002903 -0.004776,0.004009 -0.0118637,6.0158e-4 -0.0154442,-0.002903 z m 0.13969708,-0.0153611 c -0.0255769,-0.0303909 0.0414425,-0.0280486 0.0126149,3.2699e-4 -0.003453,0.002842 -0.009462,0.003007 -0.0126149,-3.2699e-4 z m -0.4241276,-0.0178045 c 0.0270462,-0.0298135 0.0268424,0.0315141 0,0 z m 0.22924746,-0.003178 c 0.007465,-0.0329397 0.0294575,0.0210316 0.002422,0.007921 l -0.00177,-0.003566 z m -0.0741946,-0.007477 c 0.008724,-0.0317726 0.0440629,0.0148928 0.007564,0.010331 -0.004622,-0.001751 -0.007628,-0.006022 -0.007564,-0.010331 z m 0.11084799,-0.0118671 c -0.0126472,-0.0329675 0.0519669,-0.008037 0.0163147,0.007278 -0.006786,0.002136 -0.0132598,-0.002426 -0.0163147,-0.007278 z m -0.29598236,-0.006309 c 0.001016,-0.0356176 0.0484647,0.0116634 0.005486,0.004916 z m 0.0630225,-9.8372e-4 c 0.006865,-0.0221733 0.0372123,-0.0101473 0.0116991,0.004498 -0.005118,0.004121 -0.0154665,0.003599 -0.0116991,-0.004498 z m 0.3398255,-0.002344 c -0.016896,-0.034613 0.0432206,-0.007527 0.0101678,0.007603 -0.005707,0.003277 -0.009028,-0.004839 -0.0101678,-0.007603 z m -0.29190819,-0.004666 c 0.0110138,-0.0227245 0.0413896,0.0116157 0.007564,0.006887 -0.003594,-8.8667e-4 -0.007522,-0.003304 -0.007564,-0.006887 z m 0.3792167,0 c 0.0204207,-0.0287265 0.0204082,0.0281118 0,0 z m -0.2967783,-0.0112148 c 0.008724,-0.0317727 0.0440628,0.0148928 0.007564,0.010331 -0.004622,-0.001751 -0.007628,-0.006022 -0.007564,-0.010331 z m -0.21288336,-0.022827 c 0.007767,-0.0350409 0.0409897,0.0173104 0.005645,0.0107495 -0.004876,-0.001582 -0.00687,-0.006677 -0.005645,-0.0107495 z m 0.17716009,0.006626 c -0.0227039,-0.0295806 0.0441436,-0.010685 0.0102547,0.004889 -0.004083,-1.7158e-4 -0.007545,-0.002472 -0.0102547,-0.004889 z m 0.0853095,-0.009625 c -0.0239992,-0.0110616 -0.0116575,-0.0302552 0.0116576,-0.016953 0.0263144,9.8989e-4 0.0421532,0.0431251 0.004986,0.0267675 -0.005925,-0.002767 -0.0114072,-0.006179 -0.0166436,-0.009815 z m 0.17299754,0.003393 c 0.008724,-0.0317727 0.0440628,0.0148928 0.007564,0.010331 -0.004622,-0.001751 -0.007628,-0.006022 -0.007564,-0.010331 z m 0.0780606,-0.004114 c -0.0118647,-0.0328502 0.0409273,0.009167 0.002804,0.002773 z m -0.17228746,-0.006255 c -0.00504,-0.0294728 0.0480558,-0.0163941 0.0185645,0.004432 -0.006267,0.004162 -0.0153155,0.001139 -0.0185645,-0.004432 z M 0.22626424,0.42299118 c 0.002946,-0.021863 0.032592,0.009057 0.004523,0.00528 z m 0.14426722,0 c 0.0131617,-0.0245754 0.0236643,0.0208189 6.5115e-4,0.002903 z M 0.14794774,0.40429781 c 0.008724,-0.0317726 0.0440628,0.0148928 0.007564,0.010331 -0.004622,-0.001751 -0.007628,-0.006022 -0.007564,-0.010331 z m 0.18960836,0.003739 c 0.011014,-0.0227246 0.0413896,0.0116157 0.007564,0.006887 -0.003594,-8.8668e-4 -0.007522,-0.003304 -0.007564,-0.006887 z m 0.46354437,-0.001402 c 0.0123295,-0.0312498 0.0391441,0.0121643 0.004978,0.008179 -0.003847,-9.7402e-4 -0.00653,-0.004834 -0.004978,-0.008179 z m -0.24096064,-0.00958 c 0.009376,-0.0244761 0.0350591,0.0170442 0.004455,0.009455 -0.003351,-0.002179 -0.004473,-0.006027 -0.004455,-0.009455 z" id="path4349" inkscape:connector-curvature="0" sodipodi:nodetypes="ccccccccccccccccccccccccccccccccccccccccccccccccccccccccccccccccccccccccccccccccccccccccccccccccccccccccccccccccccccccccccc" />
</svg>