<?xml version="1.0" encoding="utf-8" standalone="no"?>
<svg xmlns:dc="http://purl.org/dc/elements/1.1/" xmlns:cc="http://creativecommons.org/ns#" xmlns:rdf="http://www.w3.org/1999/02/22-rdf-syntax-ns#" xmlns:svg="http://www.w3.org/2000/svg" xmlns="http://www.w3.org/2000/svg" xmlns:sodipodi="http://sodipodi.sourceforge.net/DTD/sodipodi-0.dtd" xmlns:inkscape="http://www.inkscape.org/namespaces/inkscape" height="1" version="1.1" width="1" id="svg2" inkscape:version="0.91 r13725" sodipodi:docname="冲刷面.svg">
  <metadata id="metadata8">
    <rdf:RDF>
      <cc:Work rdf:about="">
        <dc:format>image/svg+xml</dc:format>
        <dc:type rdf:resource="http://purl.org/dc/dcmitype/StillImage" />
        <dc:title />
      </cc:Work>
    </rdf:RDF>
  </metadata>
  <defs id="defs6">
    <pattern width="1" height="1" id="冲刷面" patternContentUnits="objectBoundingBox">
      <path style="fill:#000000" d="M 0.253047,0.58811473 C 0.2315511,0.57690883 0.2160467,0.55727263 0.1965695,0.51658643 0.1704487,0.46202213 0.160603,0.44777363 0.1407775,0.43584573 0.1239771,0.42573783 0.09949229,0.42554613 0.08346768,0.43539753 c -0.01488118,0.009148 -0.03016332,0.0297189 -0.03538349,0.0476291 -0.0031959,0.0109659 -0.0056087,0.0150032 -0.0093982,0.0157273 -0.0045522,8.6887e-4 -0.0049305,9.476e-5 -0.003536,-0.007233 0.0051153,-0.0268744 0.02011572,-0.0509742 0.04024786,-0.0646642 0.02730084,-0.0185644 0.06095905,-0.0146811 0.08624687,0.009951 0.0119214,0.0116125 0.0234446,0.0307994 0.0416202,0.0693006 0.0240656,0.0509782 0.041722,0.070507 0.0662245,0.0732476 0.0162823,0.00182 0.0342083,-0.00614 0.0502519,-0.0223185 0.006115,-0.006166 0.02152,-0.0269722 0.0342344,-0.0462368 0.0322762,-0.0489034 0.0486024,-0.0645075 0.0755539,-0.0722128 0.0221307,-0.006327 0.0540816,0.00668 0.0804206,0.0327397 0.007148,0.007072 0.0203785,0.0213916 0.0294005,0.0318205 0.0386379,0.0446636 0.0567694,0.0573147 0.0847485,0.0591325 0.0391107,0.002541 0.0622067,-0.0120165 0.12221134,-0.0770308 0.0567649,-0.0615041 0.081278,-0.0768716 0.12251736,-0.0768073 0.0188855,2.893e-5 0.0268659,0.0014 0.0385569,0.006617 0.0276959,0.0123627 0.0548367,0.0403444 0.0679068,0.0700119 0.004751,0.0107872 0.004758,0.0109983 4.1402e-4,0.013966 -0.003812,0.002602 -0.005191,0.001342 -0.0101,-0.009249 -0.01279,-0.0275746 -0.0372739,-0.052162 -0.0627563,-0.0630211 -0.0124842,-0.00532 -0.0183906,-0.006087 -0.0385569,-0.005006 -0.0375371,0.002011 -0.05832,0.0153774 -0.10773342,0.0692887 -0.0356655,0.0389113 -0.0473331,0.0502736 -0.063383,0.0617238 -0.0243373,0.0173625 -0.0383834,0.0224495 -0.0624952,0.0226328 -0.0345404,2.6204e-4 -0.0537494,-0.0121161 -0.0994495,-0.0640853 -0.0303769,-0.034544 -0.0456168,-0.0479905 -0.0630761,-0.0556535 -0.0369354,-0.0162112 -0.0638361,-0.001071 -0.10268686,0.0577941 -0.0398884,0.0604374 -0.0580966,0.0763725 -0.0886071,0.0775457 -0.009471,3.6456e-4 -0.0200263,-9.186e-4 -0.0238147,-0.002893 z m 0.0225642,-0.0239362 c -0.0138244,-0.008704 -0.0193148,-0.0334193 -0.0116331,-0.0523694 0.003778,-0.009321 0.0157112,-0.0183697 0.024224,-0.0183697 0.008513,0 0.0204457,0.009049 0.0242238,0.0183697 0.007786,0.0192079 0.002406,0.0437551 -0.0114254,0.0521281 -0.009635,0.005833 -0.0164063,0.005897 -0.0253893,2.4105e-4 z m 0.31894664,-0.0181482 c -0.0242323,-0.004608 -0.031059,-0.0480541 -0.01028,-0.0654228 0.007727,-0.006459 0.0238405,-0.006459 0.0315675,0 0.0207875,0.0173757 0.0141813,0.0599947 -0.0101136,0.0652442 -0.003119,6.7306e-4 -0.008147,7.5429e-4 -0.0111741,1.7755e-4 z m 0.059234,-0.009264 c -0.007888,-0.006135 -0.0140388,-0.0206817 -0.0140388,-0.0331998 0,-0.0201497 0.0137178,-0.0390392 0.0283511,-0.0390392 0.0146333,0 0.0283507,0.0188895 0.0283507,0.0390392 0,0.0201498 -0.0137178,0.0390392 -0.0283507,0.0390392 -0.003741,0 -0.0101826,-0.002628 -0.0143119,-0.005839 z M 0.21902588,0.50240054 c -0.0190965,-0.0107001 -0.0234406,-0.0454945 -0.00812,-0.065039 0.006019,-0.007677 0.008752,-0.009024 0.0183265,-0.009024 0.009551,0 0.0123127,0.001352 0.018257,0.008935 0.0125482,0.0160079 0.0127552,0.0410867 4.691e-4,0.056761 -0.007148,0.009118 -0.0206311,0.0130176 -0.0289317,0.008367 z m 0.0977976,-0.0177434 c -0.0268594,-0.0102502 -0.0267679,-0.0596369 1.277e-4,-0.0691107 0.0209778,-0.007389 0.0403369,0.0174986 0.0345193,0.0443772 -0.002192,0.0101312 -0.0134597,0.0248352 -0.01903,0.0248352 -0.001674,0 -0.004402,5.3959e-4 -0.006063,0.001195 -0.001662,6.5807e-4 -0.005961,7.439e-5 -0.009554,-0.001299 z m 0.2290751,-0.00868 c -0.0268595,-0.0102502 -0.026768,-0.0596369 1.277e-4,-0.0691107 0.0209778,-0.007389 0.0403369,0.0174985 0.0345193,0.0443772 -0.002192,0.0101312 -0.0134597,0.0248352 -0.01903,0.0248352 -0.001674,0 -0.004402,5.3959e-4 -0.006063,0.001195 -0.001662,6.5806e-4 -0.005961,7.436e-5 -0.009554,-0.001299 z m 0.17340318,6.1305e-4 c -0.0242324,-0.004607 -0.0310592,-0.0480541 -0.01028,-0.0654228 0.007727,-0.006459 0.0238403,-0.006459 0.0315677,0 0.0207877,0.0173757 0.0141812,0.0599947 -0.0101137,0.0652442 -0.003117,6.7307e-4 -0.008147,7.5429e-4 -0.0111741,1.7757e-4 z m -0.0940207,-0.003506 c -0.0268594,-0.0102502 -0.026768,-0.0596369 1.2769e-4,-0.0691107 0.0209778,-0.007389 0.0403369,0.0174985 0.0345193,0.0443772 -0.002191,0.0101312 -0.0134597,0.0248352 -0.0190301,0.0248352 -0.001672,0 -0.004402,5.396e-4 -0.006063,0.001195 -0.00166,6.5807e-4 -0.005961,7.439e-5 -0.009554,-0.001299 z" id="path4197" inkscape:connector-curvature="0" />
    </pattern>
  </defs>
  <sodipodi:namedview pagecolor="#ffffff" bordercolor="#666666" borderopacity="1" objecttolerance="10" gridtolerance="10" guidetolerance="10" inkscape:pageopacity="0" inkscape:pageshadow="2" inkscape:window-width="1680" inkscape:window-height="988" id="namedview4" showgrid="false" inkscape:zoom="256" inkscape:cx="0.5" inkscape:cy="0.5" inkscape:window-x="-8" inkscape:window-y="-8" inkscape:window-maximized="1" inkscape:current-layer="svg2" />
  <path style="fill:#000000" d="M 0.253047,0.58811473 C 0.2315511,0.57690883 0.2160467,0.55727263 0.1965695,0.51658643 0.1704487,0.46202213 0.160603,0.44777363 0.1407775,0.43584573 0.1239771,0.42573783 0.09949229,0.42554613 0.08346768,0.43539753 c -0.01488118,0.009148 -0.03016332,0.0297189 -0.03538349,0.0476291 -0.0031959,0.0109659 -0.0056087,0.0150032 -0.0093982,0.0157273 -0.0045522,8.6887e-4 -0.0049305,9.476e-5 -0.003536,-0.007233 0.0051153,-0.0268744 0.02011572,-0.0509742 0.04024786,-0.0646642 0.02730084,-0.0185644 0.06095905,-0.0146811 0.08624687,0.009951 0.0119214,0.0116125 0.0234446,0.0307994 0.0416202,0.0693006 0.0240656,0.0509782 0.041722,0.070507 0.0662245,0.0732476 0.0162823,0.00182 0.0342083,-0.00614 0.0502519,-0.0223185 0.006115,-0.006166 0.02152,-0.0269722 0.0342344,-0.0462368 0.0322762,-0.0489034 0.0486024,-0.0645075 0.0755539,-0.0722128 0.0221307,-0.006327 0.0540816,0.00668 0.0804206,0.0327397 0.007148,0.007072 0.0203785,0.0213916 0.0294005,0.0318205 0.0386379,0.0446636 0.0567694,0.0573147 0.0847485,0.0591325 0.0391107,0.002541 0.0622067,-0.0120165 0.12221134,-0.0770308 0.0567649,-0.0615041 0.081278,-0.0768716 0.12251736,-0.0768073 0.0188855,2.893e-5 0.0268659,0.0014 0.0385569,0.006617 0.0276959,0.0123627 0.0548367,0.0403444 0.0679068,0.0700119 0.004751,0.0107872 0.004758,0.0109983 4.1402e-4,0.013966 -0.003812,0.002602 -0.005191,0.001342 -0.0101,-0.009249 -0.01279,-0.0275746 -0.0372739,-0.052162 -0.0627563,-0.0630211 -0.0124842,-0.00532 -0.0183906,-0.006087 -0.0385569,-0.005006 -0.0375371,0.002011 -0.05832,0.0153774 -0.10773342,0.0692887 -0.0356655,0.0389113 -0.0473331,0.0502736 -0.063383,0.0617238 -0.0243373,0.0173625 -0.0383834,0.0224495 -0.0624952,0.0226328 -0.0345404,2.6204e-4 -0.0537494,-0.0121161 -0.0994495,-0.0640853 -0.0303769,-0.034544 -0.0456168,-0.0479905 -0.0630761,-0.0556535 -0.0369354,-0.0162112 -0.0638361,-0.001071 -0.10268686,0.0577941 -0.0398884,0.0604374 -0.0580966,0.0763725 -0.0886071,0.0775457 -0.009471,3.6456e-4 -0.0200263,-9.186e-4 -0.0238147,-0.002893 z m 0.0225642,-0.0239362 c -0.0138244,-0.008704 -0.0193148,-0.0334193 -0.0116331,-0.0523694 0.003778,-0.009321 0.0157112,-0.0183697 0.024224,-0.0183697 0.008513,0 0.0204457,0.009049 0.0242238,0.0183697 0.007786,0.0192079 0.002406,0.0437551 -0.0114254,0.0521281 -0.009635,0.005833 -0.0164063,0.005897 -0.0253893,2.4105e-4 z m 0.31894664,-0.0181482 c -0.0242323,-0.004608 -0.031059,-0.0480541 -0.01028,-0.0654228 0.007727,-0.006459 0.0238405,-0.006459 0.0315675,0 0.0207875,0.0173757 0.0141813,0.0599947 -0.0101136,0.0652442 -0.003119,6.7306e-4 -0.008147,7.5429e-4 -0.0111741,1.7755e-4 z m 0.059234,-0.009264 c -0.007888,-0.006135 -0.0140388,-0.0206817 -0.0140388,-0.0331998 0,-0.0201497 0.0137178,-0.0390392 0.0283511,-0.0390392 0.0146333,0 0.0283507,0.0188895 0.0283507,0.0390392 0,0.0201498 -0.0137178,0.0390392 -0.0283507,0.0390392 -0.003741,0 -0.0101826,-0.002628 -0.0143119,-0.005839 z M 0.21902588,0.50240054 c -0.0190965,-0.0107001 -0.0234406,-0.0454945 -0.00812,-0.065039 0.006019,-0.007677 0.008752,-0.009024 0.0183265,-0.009024 0.009551,0 0.0123127,0.001352 0.018257,0.008935 0.0125482,0.0160079 0.0127552,0.0410867 4.691e-4,0.056761 -0.007148,0.009118 -0.0206311,0.0130176 -0.0289317,0.008367 z m 0.0977976,-0.0177434 c -0.0268594,-0.0102502 -0.0267679,-0.0596369 1.277e-4,-0.0691107 0.0209778,-0.007389 0.0403369,0.0174986 0.0345193,0.0443772 -0.002192,0.0101312 -0.0134597,0.0248352 -0.01903,0.0248352 -0.001674,0 -0.004402,5.3959e-4 -0.006063,0.001195 -0.001662,6.5807e-4 -0.005961,7.439e-5 -0.009554,-0.001299 z m 0.2290751,-0.00868 c -0.0268595,-0.0102502 -0.026768,-0.0596369 1.277e-4,-0.0691107 0.0209778,-0.007389 0.0403369,0.0174985 0.0345193,0.0443772 -0.002192,0.0101312 -0.0134597,0.0248352 -0.01903,0.0248352 -0.001674,0 -0.004402,5.3959e-4 -0.006063,0.001195 -0.001662,6.5806e-4 -0.005961,7.436e-5 -0.009554,-0.001299 z m 0.17340318,6.1305e-4 c -0.0242324,-0.004607 -0.0310592,-0.0480541 -0.01028,-0.0654228 0.007727,-0.006459 0.0238403,-0.006459 0.0315677,0 0.0207877,0.0173757 0.0141812,0.0599947 -0.0101137,0.0652442 -0.003117,6.7307e-4 -0.008147,7.5429e-4 -0.0111741,1.7757e-4 z m -0.0940207,-0.003506 c -0.0268594,-0.0102502 -0.026768,-0.0596369 1.2769e-4,-0.0691107 0.0209778,-0.007389 0.0403369,0.0174985 0.0345193,0.0443772 -0.002191,0.0101312 -0.0134597,0.0248352 -0.0190301,0.0248352 -0.001672,0 -0.004402,5.396e-4 -0.006063,0.001195 -0.00166,6.5807e-4 -0.005961,7.439e-5 -0.009554,-0.001299 z" id="path4197" inkscape:connector-curvature="0" />
</svg>