<?xml version="1.0" encoding="utf-8" standalone="no"?>
<svg xmlns:dc="http://purl.org/dc/elements/1.1/" xmlns:cc="http://creativecommons.org/ns#" xmlns:rdf="http://www.w3.org/1999/02/22-rdf-syntax-ns#" xmlns:svg="http://www.w3.org/2000/svg" xmlns="http://www.w3.org/2000/svg" xmlns:sodipodi="http://sodipodi.sourceforge.net/DTD/sodipodi-0.dtd" xmlns:inkscape="http://www.inkscape.org/namespaces/inkscape" height="1" version="1.1" width="1" id="svg2" inkscape:version="0.91 r13725" sodipodi:docname="季节性层理.svg">
  <metadata id="metadata8">
    <rdf:RDF>
      <cc:Work rdf:about="">
        <dc:format>image/svg+xml</dc:format>
        <dc:type rdf:resource="http://purl.org/dc/dcmitype/StillImage" />
      </cc:Work>
    </rdf:RDF>
  </metadata>
  <defs id="defs6">
    <pattern width="1" height="1" id="季节性层理" patternContentUnits="objectBoundingBox">
      <path style="fill:#000000" d="m 0.06257372,0.89498658 0,-0.0246856 0.43738834,0.00181 0.43738838,0.00181 0,0.021065 0,0.0210649 -0.43738838,0.00181 -0.43738834,0.00181 0,-0.0246856 z m 0,-0.13686786 0,-0.0211198 0.43968539,0 0.43968541,0 -0.002297,0.0193095 -0.002297,0.0193095 -0.43738836,0.00181 -0.43738836,0.00181 0,-0.0211198 z m 0,-0.16511918 0,-0.0667608 0.43738834,0.00181 0.43738838,0.00181 0.002086,0.0649506 0.002086,0.0649504 -0.43947557,0 -0.43947569,0 0,-0.0667607 z m 0,-0.14037886 0,-0.0246856 0.43738834,0.00181 0.43738838,0.00181 0,0.021065 0,0.021065 -0.43738838,0.00181 -0.43738834,0.00181 0,-0.0246856 z m 0,-0.13692266 0,-0.021065 0.4392032,0 0.43920326,0 0,0.021065 0,0.021065 -0.43920326,0 -0.4392032,0 0,-0.021065 z m 0,-0.1614987 0,-0.07032643 0.43738834,0.0018105 0.43738838,0.0018105 0,0.06670595 0,0.0667061 -0.43738838,0.00181 -0.43738834,0.00181 0,-0.0703265 z" id="path4782" inkscape:connector-curvature="0" />
    </pattern>
  </defs>
  <sodipodi:namedview pagecolor="#ffffff" bordercolor="#666666" borderopacity="1" objecttolerance="10" gridtolerance="10" guidetolerance="10" inkscape:pageopacity="0" inkscape:pageshadow="2" inkscape:window-width="1680" inkscape:window-height="988" id="namedview4" showgrid="false" inkscape:zoom="181.01934" inkscape:cx="2.110165" inkscape:cy="-0.37023757" inkscape:window-x="-8" inkscape:window-y="-8" inkscape:window-maximized="1" inkscape:current-layer="svg2" />
  <path style="fill:#000000" d="m 0.06257372,0.89498658 0,-0.0246856 0.43738834,0.00181 0.43738838,0.00181 0,0.021065 0,0.0210649 -0.43738838,0.00181 -0.43738834,0.00181 0,-0.0246856 z m 0,-0.13686786 0,-0.0211198 0.43968539,0 0.43968541,0 -0.002297,0.0193095 -0.002297,0.0193095 -0.43738836,0.00181 -0.43738836,0.00181 0,-0.0211198 z m 0,-0.16511918 0,-0.0667608 0.43738834,0.00181 0.43738838,0.00181 0.002086,0.0649506 0.002086,0.0649504 -0.43947557,0 -0.43947569,0 0,-0.0667607 z m 0,-0.14037886 0,-0.0246856 0.43738834,0.00181 0.43738838,0.00181 0,0.021065 0,0.021065 -0.43738838,0.00181 -0.43738834,0.00181 0,-0.0246856 z m 0,-0.13692266 0,-0.021065 0.4392032,0 0.43920326,0 0,0.021065 0,0.021065 -0.43920326,0 -0.4392032,0 0,-0.021065 z m 0,-0.1614987 0,-0.07032643 0.43738834,0.0018105 0.43738838,0.0018105 0,0.06670595 0,0.0667061 -0.43738838,0.00181 -0.43738834,0.00181 0,-0.0703265 z" id="path4782" inkscape:connector-curvature="0" />
</svg>