<?xml version="1.0" encoding="utf-8" standalone="no"?>
<svg xmlns:dc="http://purl.org/dc/elements/1.1/" xmlns:cc="http://creativecommons.org/ns#" xmlns:rdf="http://www.w3.org/1999/02/22-rdf-syntax-ns#" xmlns:svg="http://www.w3.org/2000/svg" xmlns="http://www.w3.org/2000/svg" xmlns:sodipodi="http://sodipodi.sourceforge.net/DTD/sodipodi-0.dtd" xmlns:inkscape="http://www.inkscape.org/namespaces/inkscape" height="1" version="1.1" width="1" id="svg2" inkscape:version="0.91 r13725" sodipodi:docname="干裂.svg">
  <metadata id="metadata8">
    <rdf:RDF>
      <cc:Work rdf:about="">
        <dc:format>image/svg+xml</dc:format>
        <dc:type rdf:resource="http://purl.org/dc/dcmitype/StillImage" />
        <dc:title />
      </cc:Work>
    </rdf:RDF>
  </metadata>
  <defs id="defs6">
    <pattern width="1" height="1" id="干裂" patternContentUnits="objectBoundingBox">
      <path style="fill:#000000" d="M 0.67345465,0.73662849 C 0.63305781,0.62651734 0.59329997,0.51617345 0.55326175,0.40593176 c -0.0474532,-0.001717 -0.10484831,-0.00938 -0.14647999,0.00146 -0.030681,0.10131966 -0.0594055,0.20324293 -0.0921288,0.30393573 -0.0330089,0.0177498 -0.0303027,-0.0508437 -0.0478117,-0.0692662 -0.0315524,-0.0767419 -0.0628491,-0.1535884 -0.0942684,-0.23038477 -0.0568846,-4.5467e-4 -0.11376927,-9.0933e-4 -0.1706539,-0.001364 -0.002107628,-0.041723 0.06055225,-0.0116204 0.08679344,-0.0209097 0.04462531,-3.6082e-4 0.10279365,-0.0110272 0.11119576,0.0475107 0.0338008,0.0844596 0.0691805,0.16832113 0.1034067,0.25264134 0.0229994,-0.0537258 0.0345761,-0.11156741 0.0531191,-0.16694288 0.009772,-0.0325003 0.0194968,-0.065016 0.0288133,-0.0976503 -0.0355478,0.0519349 -0.0756529,-0.056651 -0.0165475,-0.0491889 0.0160437,0.005858 0.0219963,0.0516457 0.0280485,0.0135563 0.0479605,-0.0148932 0.098952,-1.6426e-4 0.14767735,-0.005835 0.042421,0.0231388 0.0394422,0.0831934 0.0615739,0.12204534 0.0256749,0.0700711 0.0505793,0.14042677 0.0770316,0.21021119 0.0486213,-0.10176378 0.0879773,-0.2076622 0.1369263,-0.30927664 0.0604728,-0.004742 0.12128713,0.00397 0.18157591,0.004559 0.015041,0.0365588 -0.050836,0.0100053 -0.0725054,0.0156247 -0.0395797,0.005826 -0.10438435,-0.0263783 -0.11652442,0.0319046 -0.0415777,0.0944189 -0.0789245,0.19072095 -0.12386078,0.28364329 -0.004061,0.007413 -0.0166289,0.002547 -0.0151881,-0.005578 z m 0.0139593,-0.11490433 c -0.0589438,-0.0170585 0.0195216,-0.0980047 0.0298922,-0.0373197 0.003231,0.0178462 -0.009023,0.0414615 -0.0298922,0.0373197 z M 0.30529481,0.60034486 c -0.0508198,-0.017128 0.0142789,-0.10174519 0.0311775,-0.0395741 0.00417,0.0181422 -0.008417,0.0471434 -0.0311775,0.0395741 z m 0.34359377,-0.0385029 c -0.05233,-0.0121161 0.007061,-0.10040783 0.0285131,-0.0437646 0.006249,0.0184712 -0.00466,0.0486982 -0.0285131,0.0437646 z M 0.26676951,0.54046256 c -0.0508203,-0.0171283 0.0142793,-0.10174557 0.0311773,-0.0395736 0.00417,0.0181421 -0.008418,0.047141 -0.0311773,0.0395736 z m 0.43529463,-0.00501 c -0.0448455,-0.027101 0.0283819,-0.0980877 0.0377427,-0.034019 0.003478,0.019985 -0.0156405,0.0507373 -0.0377427,0.034019 z M 0.32319765,0.51568636 c -0.044087,-0.0220914 0.0195136,-0.0973015 0.0349791,-0.040455 0.006876,0.0197501 -0.0103302,0.0557857 -0.0349791,0.040455 z M 0.6694013,0.46238026 c -0.0557556,-0.0453427 0.0589618,-0.0921011 0.0362003,-0.0166808 -0.003914,0.0145506 -0.0222804,0.0301987 -0.0362003,0.0166808 z m -0.0590381,-0.002077 c -0.05233,-0.012116 0.007061,-0.10040779 0.0285131,-0.0437647 0.006249,0.0184712 -0.00466,0.0486983 -0.0285131,0.0437647 z m 0.12774198,0 c -0.0523301,-0.012116 0.007061,-0.10040781 0.0285131,-0.0437647 0.006249,0.0184712 -0.00466,0.0486983 -0.0285131,0.0437647 z M 0.29288702,0.44447546 c -0.0446681,-0.0182438 0.0104779,-0.1016995 0.0317896,-0.0465306 0.008121,0.0198124 -0.005345,0.0560159 -0.0317896,0.0465306 z m -0.064643,-0.005552 c -0.0508203,-0.0171276 0.0142793,-0.10174586 0.031177,-0.0395742 0.004088,0.0181535 -0.008324,0.047156 -0.031177,0.0395742 z" id="path4162" inkscape:connector-curvature="0" />
    </pattern>
  </defs>
  <sodipodi:namedview pagecolor="#ffffff" bordercolor="#666666" borderopacity="1" objecttolerance="10" gridtolerance="10" guidetolerance="10" inkscape:pageopacity="0" inkscape:pageshadow="2" inkscape:window-width="1680" inkscape:window-height="1028" id="namedview4" showgrid="false" inkscape:zoom="256" inkscape:cx="0.5" inkscape:cy="0.5" inkscape:window-x="1672" inkscape:window-y="-8" inkscape:window-maximized="1" inkscape:current-layer="svg2" />
  <path style="fill:#000000" d="M 0.67345465,0.73662849 C 0.63305781,0.62651734 0.59329997,0.51617345 0.55326175,0.40593176 c -0.0474532,-0.001717 -0.10484831,-0.00938 -0.14647999,0.00146 -0.030681,0.10131966 -0.0594055,0.20324293 -0.0921288,0.30393573 -0.0330089,0.0177498 -0.0303027,-0.0508437 -0.0478117,-0.0692662 -0.0315524,-0.0767419 -0.0628491,-0.1535884 -0.0942684,-0.23038477 -0.0568846,-4.5467e-4 -0.11376927,-9.0933e-4 -0.1706539,-0.001364 -0.002107628,-0.041723 0.06055225,-0.0116204 0.08679344,-0.0209097 0.04462531,-3.6082e-4 0.10279365,-0.0110272 0.11119576,0.0475107 0.0338008,0.0844596 0.0691805,0.16832113 0.1034067,0.25264134 0.0229994,-0.0537258 0.0345761,-0.11156741 0.0531191,-0.16694288 0.009772,-0.0325003 0.0194968,-0.065016 0.0288133,-0.0976503 -0.0355478,0.0519349 -0.0756529,-0.056651 -0.0165475,-0.0491889 0.0160437,0.005858 0.0219963,0.0516457 0.0280485,0.0135563 0.0479605,-0.0148932 0.098952,-1.6426e-4 0.14767735,-0.005835 0.042421,0.0231388 0.0394422,0.0831934 0.0615739,0.12204534 0.0256749,0.0700711 0.0505793,0.14042677 0.0770316,0.21021119 0.0486213,-0.10176378 0.0879773,-0.2076622 0.1369263,-0.30927664 0.0604728,-0.004742 0.12128713,0.00397 0.18157591,0.004559 0.015041,0.0365588 -0.050836,0.0100053 -0.0725054,0.0156247 -0.0395797,0.005826 -0.10438435,-0.0263783 -0.11652442,0.0319046 -0.0415777,0.0944189 -0.0789245,0.19072095 -0.12386078,0.28364329 -0.004061,0.007413 -0.0166289,0.002547 -0.0151881,-0.005578 z m 0.0139593,-0.11490433 c -0.0589438,-0.0170585 0.0195216,-0.0980047 0.0298922,-0.0373197 0.003231,0.0178462 -0.009023,0.0414615 -0.0298922,0.0373197 z M 0.30529481,0.60034486 c -0.0508198,-0.017128 0.0142789,-0.10174519 0.0311775,-0.0395741 0.00417,0.0181422 -0.008417,0.0471434 -0.0311775,0.0395741 z m 0.34359377,-0.0385029 c -0.05233,-0.0121161 0.007061,-0.10040783 0.0285131,-0.0437646 0.006249,0.0184712 -0.00466,0.0486982 -0.0285131,0.0437646 z M 0.26676951,0.54046256 c -0.0508203,-0.0171283 0.0142793,-0.10174557 0.0311773,-0.0395736 0.00417,0.0181421 -0.008418,0.047141 -0.0311773,0.0395736 z m 0.43529463,-0.00501 c -0.0448455,-0.027101 0.0283819,-0.0980877 0.0377427,-0.034019 0.003478,0.019985 -0.0156405,0.0507373 -0.0377427,0.034019 z M 0.32319765,0.51568636 c -0.044087,-0.0220914 0.0195136,-0.0973015 0.0349791,-0.040455 0.006876,0.0197501 -0.0103302,0.0557857 -0.0349791,0.040455 z M 0.6694013,0.46238026 c -0.0557556,-0.0453427 0.0589618,-0.0921011 0.0362003,-0.0166808 -0.003914,0.0145506 -0.0222804,0.0301987 -0.0362003,0.0166808 z m -0.0590381,-0.002077 c -0.05233,-0.012116 0.007061,-0.10040779 0.0285131,-0.0437647 0.006249,0.0184712 -0.00466,0.0486983 -0.0285131,0.0437647 z m 0.12774198,0 c -0.0523301,-0.012116 0.007061,-0.10040781 0.0285131,-0.0437647 0.006249,0.0184712 -0.00466,0.0486983 -0.0285131,0.0437647 z M 0.29288702,0.44447546 c -0.0446681,-0.0182438 0.0104779,-0.1016995 0.0317896,-0.0465306 0.008121,0.0198124 -0.005345,0.0560159 -0.0317896,0.0465306 z m -0.064643,-0.005552 c -0.0508203,-0.0171276 0.0142793,-0.10174586 0.031177,-0.0395742 0.004088,0.0181535 -0.008324,0.047156 -0.031177,0.0395742 z" id="path4162" inkscape:connector-curvature="0" />
</svg>