<?xml version="1.0" encoding="utf-8" standalone="no"?>
<svg xmlns:dc="http://purl.org/dc/elements/1.1/" xmlns:cc="http://creativecommons.org/ns#" xmlns:rdf="http://www.w3.org/1999/02/22-rdf-syntax-ns#" xmlns:svg="http://www.w3.org/2000/svg" xmlns="http://www.w3.org/2000/svg" xmlns:sodipodi="http://sodipodi.sourceforge.net/DTD/sodipodi-0.dtd" xmlns:inkscape="http://www.inkscape.org/namespaces/inkscape" height="1" version="1.1" width="1" id="svg2" inkscape:version="0.91 r13725" sodipodi:docname="波状层理.svg">
  <metadata id="metadata8">
    <rdf:RDF>
      <cc:Work rdf:about="">
        <dc:format>image/svg+xml</dc:format>
        <dc:type rdf:resource="http://purl.org/dc/dcmitype/StillImage" />
        <dc:title></dc:title>
      </cc:Work>
    </rdf:RDF>
  </metadata>
  <defs id="defs6">
    <pattern width="1" height="1" id="波状层理" patternContentUnits="objectBoundingBox">
      <path style="fill:#000000" d="M 0.02593,0.75780922 C 0.00828119,0.72950002 0.0197633,0.70856452 0.0978921,0.62656735 c 0.090749,-0.0952398 0.10282814,-0.0962425 0.26615385,-0.0220925 0.11248046,0.0510668 0.21510235,0.0556409 0.27953071,0.0124602 0.0916632,-0.0614339 0.24765639,-0.0198097 0.29904485,0.0797952 0.0258615,0.0501265 0.006354,0.0679906 -0.0248239,0.0227326 C 0.85267491,0.62492795 0.72823653,0.60256418 0.63696941,0.66899315 0.54863261,0.73328955 0.50532246,0.72638445 0.29778261,0.61491895 0.22792481,0.57739945 0.16394644,0.59835215 0.10754351,0.67722265 0.052349,0.75440295 0.03468267,0.77184755 0.02592987,0.75780895 Z M 0.46567495,0.56680441 C 0.44677607,0.5570897 0.38220601,0.50974356 0.32218586,0.46159242 0.19660632,0.36084555 0.17352758,0.3619697 0.09850947,0.47248824 c -0.04654944,0.0685764 -0.08104664,0.0920546 -0.08104664,0.0551569 0,-0.0525058 0.13261373,-0.18918771 0.18366369,-0.18929818 0.0196214,-4.132e-5 0.082415,0.0376188 0.13954159,0.0836916 0.0571266,0.0460734 0.13083218,0.0886702 0.16378936,0.0946607 0.0521749,0.009483 0.0679122,0.002312 0.12171773,-0.0554623 0.0775047,-0.0832228 0.15256243,-0.0996233 0.2323212,-0.0507639 0.0588474,0.0360495 0.1091791,0.10312694 0.0947491,0.12627315 -0.004271,0.00685 -0.0262202,-0.008639 -0.0487832,-0.0344103 -0.0640157,-0.0731178 -0.18064042,-0.0691657 -0.25535803,0.008653 -0.0611206,0.0636581 -0.12836804,0.0841209 -0.18342954,0.0558151 z M 0.46630912,0.41150207 C 0.44068272,0.39613436 0.38102562,0.34436653 0.33373852,0.29646243 0.23261885,0.19402312 0.19387918,0.19412683 0.09059744,0.29710805 c -0.06471331,0.0645272 -0.0904566352,0.0685432 -0.05982077,0.009331 0.02130988,-0.0411868 0.08240034,-0.0948755 0.14110892,-0.12401257 0.0480754,-0.0238596 0.11959178,-0.004959 0.15442361,0.0408128 0.0614596,0.0807617 0.17381271,0.15137629 0.21876677,0.13749589 0.0106174,-0.003279 0.0465836,-0.0380671 0.0799271,-0.0773086 0.0333435,-0.0392415 0.0805274,-0.0765289 0.10485261,-0.0828608 0.0706756,-0.018397 0.22701665,0.0779553 0.22701665,0.13990937 0,0.00905 -0.0275066,-0.005903 -0.0611258,-0.0332275 -0.11080676,-0.0900611 -0.14046031,-0.0877759 -0.23700766,0.0182638 -0.10025835,0.11011523 -0.130016,0.1234124 -0.19242908,0.0859857 z" id="path4196" inkscape:connector-curvature="0" />
    </pattern>
  </defs>
  <sodipodi:namedview pagecolor="#ffffff" bordercolor="#666666" borderopacity="1" objecttolerance="10" gridtolerance="10" guidetolerance="10" inkscape:pageopacity="0" inkscape:pageshadow="2" inkscape:window-width="1680" inkscape:window-height="988" id="namedview4" showgrid="false" inkscape:zoom="181.01934" inkscape:cx="3.2394278" inkscape:cy="-0.89081806" inkscape:window-x="-8" inkscape:window-y="-8" inkscape:window-maximized="1" inkscape:current-layer="svg2" />
  <path style="fill:#000000" d="M 0.02593,0.75780922 C 0.00828119,0.72950002 0.0197633,0.70856452 0.0978921,0.62656735 c 0.090749,-0.0952398 0.10282814,-0.0962425 0.26615385,-0.0220925 0.11248046,0.0510668 0.21510235,0.0556409 0.27953071,0.0124602 0.0916632,-0.0614339 0.24765639,-0.0198097 0.29904485,0.0797952 0.0258615,0.0501265 0.006354,0.0679906 -0.0248239,0.0227326 C 0.85267491,0.62492795 0.72823653,0.60256418 0.63696941,0.66899315 0.54863261,0.73328955 0.50532246,0.72638445 0.29778261,0.61491895 0.22792481,0.57739945 0.16394644,0.59835215 0.10754351,0.67722265 0.052349,0.75440295 0.03468267,0.77184755 0.02592987,0.75780895 Z M 0.46567495,0.56680441 C 0.44677607,0.5570897 0.38220601,0.50974356 0.32218586,0.46159242 0.19660632,0.36084555 0.17352758,0.3619697 0.09850947,0.47248824 c -0.04654944,0.0685764 -0.08104664,0.0920546 -0.08104664,0.0551569 0,-0.0525058 0.13261373,-0.18918771 0.18366369,-0.18929818 0.0196214,-4.132e-5 0.082415,0.0376188 0.13954159,0.0836916 0.0571266,0.0460734 0.13083218,0.0886702 0.16378936,0.0946607 0.0521749,0.009483 0.0679122,0.002312 0.12171773,-0.0554623 0.0775047,-0.0832228 0.15256243,-0.0996233 0.2323212,-0.0507639 0.0588474,0.0360495 0.1091791,0.10312694 0.0947491,0.12627315 -0.004271,0.00685 -0.0262202,-0.008639 -0.0487832,-0.0344103 -0.0640157,-0.0731178 -0.18064042,-0.0691657 -0.25535803,0.008653 -0.0611206,0.0636581 -0.12836804,0.0841209 -0.18342954,0.0558151 z M 0.46630912,0.41150207 C 0.44068272,0.39613436 0.38102562,0.34436653 0.33373852,0.29646243 0.23261885,0.19402312 0.19387918,0.19412683 0.09059744,0.29710805 c -0.06471331,0.0645272 -0.0904566352,0.0685432 -0.05982077,0.009331 0.02130988,-0.0411868 0.08240034,-0.0948755 0.14110892,-0.12401257 0.0480754,-0.0238596 0.11959178,-0.004959 0.15442361,0.0408128 0.0614596,0.0807617 0.17381271,0.15137629 0.21876677,0.13749589 0.0106174,-0.003279 0.0465836,-0.0380671 0.0799271,-0.0773086 0.0333435,-0.0392415 0.0805274,-0.0765289 0.10485261,-0.0828608 0.0706756,-0.018397 0.22701665,0.0779553 0.22701665,0.13990937 0,0.00905 -0.0275066,-0.005903 -0.0611258,-0.0332275 -0.11080676,-0.0900611 -0.14046031,-0.0877759 -0.23700766,0.0182638 -0.10025835,0.11011523 -0.130016,0.1234124 -0.19242908,0.0859857 z" id="path4196" inkscape:connector-curvature="0" />
</svg>