<?xml version="1.0" encoding="utf-8" standalone="no"?>
<svg xmlns:dc="http://purl.org/dc/elements/1.1/" xmlns:cc="http://creativecommons.org/ns#" xmlns:rdf="http://www.w3.org/1999/02/22-rdf-syntax-ns#" xmlns:svg="http://www.w3.org/2000/svg" xmlns="http://www.w3.org/2000/svg" xmlns:sodipodi="http://sodipodi.sourceforge.net/DTD/sodipodi-0.dtd" xmlns:inkscape="http://www.inkscape.org/namespaces/inkscape" height="1" version="1.1" width="1" id="svg2" inkscape:version="0.91 r13725" sodipodi:docname="波痕.svg">
  <metadata id="metadata8">
    <rdf:RDF>
      <cc:Work rdf:about="">
        <dc:format>image/svg+xml</dc:format>
        <dc:type rdf:resource="http://purl.org/dc/dcmitype/StillImage" />
        <dc:title></dc:title>
      </cc:Work>
    </rdf:RDF>
  </metadata>
  <defs id="defs6">
    <pattern width="1" height="1" id="波痕" patternContentUnits="objectBoundingBox">
      <path style="fill:#000000" d="M 0.18024014,0.62154981 C 0.13331674,0.61830975 0.08572664,0.62115641 0.03958462,0.60776038 0.01549322,0.56318731 0.03422396,0.50571062 0.02954084,0.45553339 0.03490704,0.41094691 0.01669307,0.31135867 0.07444219,0.32919682 c 0.03621412,0.0168626 0.07115475,0.0401911 0.11037875,0.0440682 0.0454538,0.0125416 0.0884215,-0.0164685 0.11864622,-0.0582722 0.0179464,-0.0222809 0.0363441,-0.0572096 0.0527022,-0.0149689 0.0280913,0.0386236 0.0632036,0.07173 0.10473875,0.0801194 0.0381975,0.0139235 0.0714607,0.0233974 0.1030407,-0.005793 0.0380476,-0.008489 0.0466872,-0.0698412 0.083114,-0.0767928 0.0329343,0.005484 0.0450456,0.0516911 0.0797468,0.0597896 0.0387614,0.0238325 0.0843959,0.0100349 0.12313986,-0.007181 0.0339382,0.001141 0.064636,-0.0565348 0.0961466,-0.0328057 0.0207821,0.0440999 0.0133957,0.098492 0.0157834,0.14769883 -1.4922e-4,0.0488144 -5.906e-4,0.0980785 -0.008556,0.14602298 -0.037088,0.0164767 -0.0772462,0.005695 -0.11566578,0.0105412 -0.2191206,0.004335 -0.43830219,0.005156 -0.65741796,-7.452e-5 z M 0.71313,0.57716531 c 0.0511202,0.00978 0.1946758,-0.004127 0.20624113,-0.0342571 0.005554,-0.046079 0.004356,-0.0932977 0.002004,-0.13975355 -0.0122544,-0.0568084 -0.0569613,0.0135869 -0.0854525,0.0109763 -0.0523865,0.0194814 -0.10746984,5.0806e-4 -0.15404811,-0.0319669 -0.0406846,-0.0346413 -0.0649211,0.0307358 -0.10013988,0.043725 -0.0374514,0.0205706 -0.0811515,0.026227 -0.12064431,0.0126976 -0.0438537,-0.0140056 -0.082668,-0.0510948 -0.12368431,-0.0686711 -0.0425267,0.0152809 -0.0715175,0.0695687 -0.11858279,0.0709011 -0.0460949,0.006715 -0.0861317,-0.0292274 -0.1297767,-0.0405728 -0.03720836,0.0123172 -0.02410793,0.0760025 -0.01547006,0.13581841 0.16371849,0.0619118 0.44344528,0.0259096 0.63955498,0.0411029 z" id="path4423" inkscape:connector-curvature="0" sodipodi:nodetypes="ccccccccccccccccccccccccccccc" />
    </pattern>
  </defs>
  <sodipodi:namedview pagecolor="#ffffff" bordercolor="#666666" borderopacity="1" objecttolerance="10" gridtolerance="10" guidetolerance="10" inkscape:pageopacity="0" inkscape:pageshadow="2" inkscape:window-width="1680" inkscape:window-height="988" id="namedview4" showgrid="false" inkscape:zoom="127.8926" inkscape:cx="0.8005793" inkscape:cy="-0.027846237" inkscape:window-x="-8" inkscape:window-y="-8" inkscape:window-maximized="1" inkscape:current-layer="svg2" />
  <path style="fill:#000000" d="M 0.18024014,0.62154981 C 0.13331674,0.61830975 0.08572664,0.62115641 0.03958462,0.60776038 0.01549322,0.56318731 0.03422396,0.50571062 0.02954084,0.45553339 0.03490704,0.41094691 0.01669307,0.31135867 0.07444219,0.32919682 c 0.03621412,0.0168626 0.07115475,0.0401911 0.11037875,0.0440682 0.0454538,0.0125416 0.0884215,-0.0164685 0.11864622,-0.0582722 0.0179464,-0.0222809 0.0363441,-0.0572096 0.0527022,-0.0149689 0.0280913,0.0386236 0.0632036,0.07173 0.10473875,0.0801194 0.0381975,0.0139235 0.0714607,0.0233974 0.1030407,-0.005793 0.0380476,-0.008489 0.0466872,-0.0698412 0.083114,-0.0767928 0.0329343,0.005484 0.0450456,0.0516911 0.0797468,0.0597896 0.0387614,0.0238325 0.0843959,0.0100349 0.12313986,-0.007181 0.0339382,0.001141 0.064636,-0.0565348 0.0961466,-0.0328057 0.0207821,0.0440999 0.0133957,0.098492 0.0157834,0.14769883 -1.4922e-4,0.0488144 -5.906e-4,0.0980785 -0.008556,0.14602298 -0.037088,0.0164767 -0.0772462,0.005695 -0.11566578,0.0105412 -0.2191206,0.004335 -0.43830219,0.005156 -0.65741796,-7.452e-5 z M 0.71313,0.57716531 c 0.0511202,0.00978 0.1946758,-0.004127 0.20624113,-0.0342571 0.005554,-0.046079 0.004356,-0.0932977 0.002004,-0.13975355 -0.0122544,-0.0568084 -0.0569613,0.0135869 -0.0854525,0.0109763 -0.0523865,0.0194814 -0.10746984,5.0806e-4 -0.15404811,-0.0319669 -0.0406846,-0.0346413 -0.0649211,0.0307358 -0.10013988,0.043725 -0.0374514,0.0205706 -0.0811515,0.026227 -0.12064431,0.0126976 -0.0438537,-0.0140056 -0.082668,-0.0510948 -0.12368431,-0.0686711 -0.0425267,0.0152809 -0.0715175,0.0695687 -0.11858279,0.0709011 -0.0460949,0.006715 -0.0861317,-0.0292274 -0.1297767,-0.0405728 -0.03720836,0.0123172 -0.02410793,0.0760025 -0.01547006,0.13581841 0.16371849,0.0619118 0.44344528,0.0259096 0.63955498,0.0411029 z" id="path4423" inkscape:connector-curvature="0" sodipodi:nodetypes="ccccccccccccccccccccccccccccc" />
</svg>