<?xml version="1.0" encoding="utf-8" standalone="no"?>
<svg xmlns:dc="http://purl.org/dc/elements/1.1/" xmlns:cc="http://creativecommons.org/ns#" xmlns:rdf="http://www.w3.org/1999/02/22-rdf-syntax-ns#" xmlns:svg="http://www.w3.org/2000/svg" xmlns="http://www.w3.org/2000/svg" xmlns:sodipodi="http://sodipodi.sourceforge.net/DTD/sodipodi-0.dtd" xmlns:inkscape="http://www.inkscape.org/namespaces/inkscape" height="1" version="1.1" width="1" id="svg2" inkscape:version="0.91 r13725" sodipodi:docname="泥质团块.svg">
  <metadata id="metadata8">
    <rdf:RDF>
      <cc:Work rdf:about="">
        <dc:format>image/svg+xml</dc:format>
        <dc:type rdf:resource="http://purl.org/dc/dcmitype/StillImage" />
        <dc:title></dc:title>
      </cc:Work>
    </rdf:RDF>
  </metadata>
  <defs id="defs6">
    <pattern width="1" height="1" id="泥质团块" patternContentUnits="objectBoundingBox">
      <path style="fill:#000000" d="m 0.70536278,0.73381389 c -0.0846495,-0.0160697 -0.16500812,-0.0514134 -0.25401554,-0.0482485 -0.0569084,5.6987e-4 -0.11488473,-9.5493e-4 -0.16944206,0.0145554 -0.0552882,0.009422 -0.11387588,0.007835 -0.16970686,0.001681 -0.0593797,-0.006981 -0.0985653,-0.0528721 -0.1016955,-0.0994831 -0.0109602,-0.0675941 0.006845,-0.13667073 0.0452691,-0.1969134 0.0526993,-0.0956014 0.11732884,-0.15072211 0.2244511,-0.19553567 0.043254,-0.0187753 0.0901229,-0.0291575 0.13923088,-0.026536 0.0753032,-7.8253e-4 0.15337053,-0.003744 0.22402871,0.0214377 0.0869122,0.0228447 0.17079618,0.0587384 0.23381732,0.1135603 0.0398979,0.0298815 0.0724409,0.0665882 0.0879985,0.10919347 0.0216654,0.0519226 0.0216043,0.10834756 0.0160646,0.16240624 -0.007823,0.0451759 -0.0290359,0.0959822 -0.080064,0.11978208 -0.0615627,0.0230277 -0.12900916,0.028779 -0.19593625,0.0241005 z M 0.92669834,0.60584029 C 0.95235116,0.5581569 0.94520697,0.50335979 0.93189719,0.45394218 0.91566458,0.41015184 0.88010199,0.37387847 0.84922246,0.33647785 0.79804667,0.30449813 0.74303306,0.27588434 0.68268712,0.25705096 0.63042691,0.23367318 0.57017206,0.23289683 0.51367071,0.22090385 0.24229792,0.18463595 0.00262765,0.4921446 0.07132875,0.63220837 c 0.0207088,0.0373985 0.0753888,0.0277099 0.11560155,0.0273137 0.12624066,-0.003708 0.25332558,-0.014598 0.37918301,-3.9092e-4 0.11947029,0.0374519 0.31858585,0.0487047 0.36058503,-0.0532909 z M 0.3662689,0.57199515 c 0.004739,-0.038666 0.0625013,-0.032785 0.0971669,-0.0313443 0.0334061,0.003696 0.11279119,-0.0179169 0.1115937,0.0230153 -0.0441745,0.0281137 -0.10957643,0.007147 -0.16248624,0.0131773 -0.0155526,-4.9763e-4 -0.0311606,-0.001693 -0.0462744,-0.004848 z M 0.16213702,0.45808769 c -0.007114,-0.0429787 0.0635318,-0.026353 0.0950209,-0.0261564 0.027796,0.001292 0.10668668,-0.0175201 0.0934316,0.0210171 -0.0671796,0.0177883 -0.12750812,0.003477 -0.1884525,0.005139 z m 0.43131476,-0.005974 c 0.0186032,-0.0381273 0.0777352,-0.0149138 0.11504533,-0.0235847 l 0.0834321,-0.001686 -0.010629,0.0353397 c -0.0613782,-0.00248 -0.12486742,0.005954 -0.18471353,-0.006646 -0.001694,-6.7445e-4 -0.002086,-0.002284 -0.003135,-0.003423 z M 0.36522888,0.3253247 c -0.0210684,-0.0464222 0.0710193,-0.0261343 0.10323648,-0.0324984 0.0275217,-0.006282 0.10760757,-0.002781 0.0820859,0.02911 -0.0663098,0.0134426 -0.12565182,0.002297 -0.18532238,0.003388 z" id="path4447" inkscape:connector-curvature="0" sodipodi:nodetypes="cccccccccccccccccccccccccccccccccccccccccc" />
    </pattern>
  </defs>
  <sodipodi:namedview pagecolor="#ffffff" bordercolor="#666666" borderopacity="1" objecttolerance="10" gridtolerance="10" guidetolerance="10" inkscape:pageopacity="0" inkscape:pageshadow="2" inkscape:window-width="1680" inkscape:window-height="988" id="namedview4" showgrid="false" inkscape:zoom="256" inkscape:cx="0.75195312" inkscape:cy="0.38671875" inkscape:window-x="-8" inkscape:window-y="-8" inkscape:window-maximized="1" inkscape:current-layer="svg2" />
  <path style="fill:#000000" d="m 0.70536278,0.73381389 c -0.0846495,-0.0160697 -0.16500812,-0.0514134 -0.25401554,-0.0482485 -0.0569084,5.6987e-4 -0.11488473,-9.5493e-4 -0.16944206,0.0145554 -0.0552882,0.009422 -0.11387588,0.007835 -0.16970686,0.001681 -0.0593797,-0.006981 -0.0985653,-0.0528721 -0.1016955,-0.0994831 -0.0109602,-0.0675941 0.006845,-0.13667073 0.0452691,-0.1969134 0.0526993,-0.0956014 0.11732884,-0.15072211 0.2244511,-0.19553567 0.043254,-0.0187753 0.0901229,-0.0291575 0.13923088,-0.026536 0.0753032,-7.8253e-4 0.15337053,-0.003744 0.22402871,0.0214377 0.0869122,0.0228447 0.17079618,0.0587384 0.23381732,0.1135603 0.0398979,0.0298815 0.0724409,0.0665882 0.0879985,0.10919347 0.0216654,0.0519226 0.0216043,0.10834756 0.0160646,0.16240624 -0.007823,0.0451759 -0.0290359,0.0959822 -0.080064,0.11978208 -0.0615627,0.0230277 -0.12900916,0.028779 -0.19593625,0.0241005 z M 0.92669834,0.60584029 C 0.95235116,0.5581569 0.94520697,0.50335979 0.93189719,0.45394218 0.91566458,0.41015184 0.88010199,0.37387847 0.84922246,0.33647785 0.79804667,0.30449813 0.74303306,0.27588434 0.68268712,0.25705096 0.63042691,0.23367318 0.57017206,0.23289683 0.51367071,0.22090385 0.24229792,0.18463595 0.00262765,0.4921446 0.07132875,0.63220837 c 0.0207088,0.0373985 0.0753888,0.0277099 0.11560155,0.0273137 0.12624066,-0.003708 0.25332558,-0.014598 0.37918301,-3.9092e-4 0.11947029,0.0374519 0.31858585,0.0487047 0.36058503,-0.0532909 z M 0.3662689,0.57199515 c 0.004739,-0.038666 0.0625013,-0.032785 0.0971669,-0.0313443 0.0334061,0.003696 0.11279119,-0.0179169 0.1115937,0.0230153 -0.0441745,0.0281137 -0.10957643,0.007147 -0.16248624,0.0131773 -0.0155526,-4.9763e-4 -0.0311606,-0.001693 -0.0462744,-0.004848 z M 0.16213702,0.45808769 c -0.007114,-0.0429787 0.0635318,-0.026353 0.0950209,-0.0261564 0.027796,0.001292 0.10668668,-0.0175201 0.0934316,0.0210171 -0.0671796,0.0177883 -0.12750812,0.003477 -0.1884525,0.005139 z m 0.43131476,-0.005974 c 0.0186032,-0.0381273 0.0777352,-0.0149138 0.11504533,-0.0235847 l 0.0834321,-0.001686 -0.010629,0.0353397 c -0.0613782,-0.00248 -0.12486742,0.005954 -0.18471353,-0.006646 -0.001694,-6.7445e-4 -0.002086,-0.002284 -0.003135,-0.003423 z M 0.36522888,0.3253247 c -0.0210684,-0.0464222 0.0710193,-0.0261343 0.10323648,-0.0324984 0.0275217,-0.006282 0.10760757,-0.002781 0.0820859,0.02911 -0.0663098,0.0134426 -0.12565182,0.002297 -0.18532238,0.003388 z" id="path4447" inkscape:connector-curvature="0" sodipodi:nodetypes="cccccccccccccccccccccccccccccccccccccccccc" />
</svg>