<?xml version="1.0" encoding="utf-8" standalone="no"?>
<svg xmlns:dc="http://purl.org/dc/elements/1.1/" xmlns:cc="http://creativecommons.org/ns#" xmlns:rdf="http://www.w3.org/1999/02/22-rdf-syntax-ns#" xmlns:svg="http://www.w3.org/2000/svg" xmlns="http://www.w3.org/2000/svg" xmlns:sodipodi="http://sodipodi.sourceforge.net/DTD/sodipodi-0.dtd" xmlns:inkscape="http://www.inkscape.org/namespaces/inkscape" height="1" version="1.1" width="1" id="svg2" inkscape:version="0.91 r13725" sodipodi:docname="泥质条带.svg">
  <metadata id="metadata8">
    <rdf:RDF>
      <cc:Work rdf:about="">
        <dc:format>image/svg+xml</dc:format>
        <dc:type rdf:resource="http://purl.org/dc/dcmitype/StillImage" />
        <dc:title></dc:title>
      </cc:Work>
    </rdf:RDF>
  </metadata>
  <defs id="defs6">
    <pattern width="1" height="1" id="泥质条带" patternContentUnits="objectBoundingBox">
      <path style="fill:#000000" d="m 0.05211695,0.78950014 c -6.799e-4,-0.003392 -9.041e-4,-0.006463 -4.981e-4,-0.006824 4.059e-4,-3.6026e-4 0.1959615,-0.0711004 0.4345698,-0.15719757 0.23860836,-0.0860972 0.43455964,-0.15731499 0.4354473,-0.1582618 8.8912e-4,-9.5098e-4 -0.0120975,-0.005824 -0.028856,-0.0108399 -0.4331853,-0.12963449 -0.836527,-0.25291887 -0.8369408,-0.25581645 -2.715e-4,-0.001907 1.82e-4,-0.004784 0.00102,-0.006391 0.0011,-0.002119 0.123704,0.0339405 0.445274,0.13095566 0.4427626,0.13357815 0.4437611,0.13389329 0.4443704,0.14026693 5.405e-4,0.005652 -4.906e-4,0.006833 -0.00896,0.0102512 -0.005262,0.002125 -0.20389564,0.0740957 -0.44140948,0.15993472 -0.2375138,0.0858391 -0.4343046,0.15697515 -0.4373132,0.15808015 -0.00478,0.001757 -0.00563,0.001231 -0.00671,-0.004155 z m 0.060571,-0.15909032 c -0.00169,-0.004657 -0.00169,-0.007794 0,-0.0124516 l 0.00227,-0.006226 0.095608,0 0.095608,0 0.00227,0.006226 c 0.00169,0.004657 0.00169,0.007794 0,0.0124516 l -0.00227,0.006226 -0.095608,0 -0.095608,0 -0.00227,-0.006226 z m 0.2666683,-0.0697292 c -0.00169,-0.004657 -0.00169,-0.007794 0,-0.0124516 l 0.00227,-0.006226 0.095608,0 0.095608,0 0.00227,0.006226 c 0.00169,0.004657 0.00169,0.007794 0,0.0124516 l -0.00227,0.006226 -0.095608,0 -0.095608,0 -0.00227,-0.006226 z m -0.222887,-0.0597679 c -0.00169,-0.004657 -0.00169,-0.007794 0,-0.0124516 l 0.00227,-0.006226 0.095608,0 0.095608,0 0.00227,0.006226 c 0.00169,0.004657 0.00169,0.007794 0,0.0124516 l -0.00227,0.006226 -0.095608,0 -0.095608,0 -0.00227,-0.006226 z m 0.2208968,-0.0772002 c -0.00169,-0.004657 -0.00169,-0.007794 0,-0.0124517 l 0.00227,-0.006226 0.095608,0 0.095608,0 0.00227,0.006226 c 0.00169,0.004657 0.00169,0.007794 0,0.0124517 l -0.00227,0.006226 -0.095608,0 -0.095608,0 -0.00227,-0.006226 z m -0.2908735,-0.0307027 c -0.00432,-0.005975 -0.00418,-0.0135925 3.462e-4,-0.018718 0.00328,-0.003711 0.012865,-0.004121 0.096209,-0.004121 0.087153,0 0.092763,2.6707e-4 0.095864,0.004554 0.00432,0.005975 0.00418,0.0135925 -3.462e-4,0.018718 -0.00328,0.00371 -0.012865,0.004121 -0.096209,0.004121 -0.087153,0 -0.092763,-2.6707e-4 -0.095864,-0.004554 z" id="path4353" inkscape:connector-curvature="0" />
    </pattern>
  </defs>
  <sodipodi:namedview pagecolor="#ffffff" bordercolor="#666666" borderopacity="1" objecttolerance="10" gridtolerance="10" guidetolerance="10" inkscape:pageopacity="0" inkscape:pageshadow="2" inkscape:window-width="1680" inkscape:window-height="988" id="namedview4" showgrid="false" inkscape:zoom="256" inkscape:cx="0.5" inkscape:cy="0.5" inkscape:window-x="-8" inkscape:window-y="-8" inkscape:window-maximized="1" inkscape:current-layer="svg2" />
  <path style="fill:#000000" d="m 0.05211695,0.78950014 c -6.799e-4,-0.003392 -9.041e-4,-0.006463 -4.981e-4,-0.006824 4.059e-4,-3.6026e-4 0.1959615,-0.0711004 0.4345698,-0.15719757 0.23860836,-0.0860972 0.43455964,-0.15731499 0.4354473,-0.1582618 8.8912e-4,-9.5098e-4 -0.0120975,-0.005824 -0.028856,-0.0108399 -0.4331853,-0.12963449 -0.836527,-0.25291887 -0.8369408,-0.25581645 -2.715e-4,-0.001907 1.82e-4,-0.004784 0.00102,-0.006391 0.0011,-0.002119 0.123704,0.0339405 0.445274,0.13095566 0.4427626,0.13357815 0.4437611,0.13389329 0.4443704,0.14026693 5.405e-4,0.005652 -4.906e-4,0.006833 -0.00896,0.0102512 -0.005262,0.002125 -0.20389564,0.0740957 -0.44140948,0.15993472 -0.2375138,0.0858391 -0.4343046,0.15697515 -0.4373132,0.15808015 -0.00478,0.001757 -0.00563,0.001231 -0.00671,-0.004155 z m 0.060571,-0.15909032 c -0.00169,-0.004657 -0.00169,-0.007794 0,-0.0124516 l 0.00227,-0.006226 0.095608,0 0.095608,0 0.00227,0.006226 c 0.00169,0.004657 0.00169,0.007794 0,0.0124516 l -0.00227,0.006226 -0.095608,0 -0.095608,0 -0.00227,-0.006226 z m 0.2666683,-0.0697292 c -0.00169,-0.004657 -0.00169,-0.007794 0,-0.0124516 l 0.00227,-0.006226 0.095608,0 0.095608,0 0.00227,0.006226 c 0.00169,0.004657 0.00169,0.007794 0,0.0124516 l -0.00227,0.006226 -0.095608,0 -0.095608,0 -0.00227,-0.006226 z m -0.222887,-0.0597679 c -0.00169,-0.004657 -0.00169,-0.007794 0,-0.0124516 l 0.00227,-0.006226 0.095608,0 0.095608,0 0.00227,0.006226 c 0.00169,0.004657 0.00169,0.007794 0,0.0124516 l -0.00227,0.006226 -0.095608,0 -0.095608,0 -0.00227,-0.006226 z m 0.2208968,-0.0772002 c -0.00169,-0.004657 -0.00169,-0.007794 0,-0.0124517 l 0.00227,-0.006226 0.095608,0 0.095608,0 0.00227,0.006226 c 0.00169,0.004657 0.00169,0.007794 0,0.0124517 l -0.00227,0.006226 -0.095608,0 -0.095608,0 -0.00227,-0.006226 z m -0.2908735,-0.0307027 c -0.00432,-0.005975 -0.00418,-0.0135925 3.462e-4,-0.018718 0.00328,-0.003711 0.012865,-0.004121 0.096209,-0.004121 0.087153,0 0.092763,2.6707e-4 0.095864,0.004554 0.00432,0.005975 0.00418,0.0135925 -3.462e-4,0.018718 -0.00328,0.00371 -0.012865,0.004121 -0.096209,0.004121 -0.087153,0 -0.092763,-2.6707e-4 -0.095864,-0.004554 z" id="path4353" inkscape:connector-curvature="0" />
</svg>