<?xml version="1.0" encoding="utf-8" standalone="no"?>
<svg xmlns:dc="http://purl.org/dc/elements/1.1/" xmlns:cc="http://creativecommons.org/ns#" xmlns:rdf="http://www.w3.org/1999/02/22-rdf-syntax-ns#" xmlns:svg="http://www.w3.org/2000/svg" xmlns="http://www.w3.org/2000/svg" xmlns:sodipodi="http://sodipodi.sourceforge.net/DTD/sodipodi-0.dtd" xmlns:inkscape="http://www.inkscape.org/namespaces/inkscape" height="1" version="1.1" width="1" id="svg2" inkscape:version="0.91 r13725" sodipodi:docname="砂质条带.svg">
  <metadata id="metadata8">
    <rdf:RDF>
      <cc:Work rdf:about="">
        <dc:format>image/svg+xml</dc:format>
        <dc:type rdf:resource="http://purl.org/dc/dcmitype/StillImage" />
        <dc:title></dc:title>
      </cc:Work>
    </rdf:RDF>
  </metadata>
  <defs id="defs6">
    <pattern width="1" height="1" id="砂质条带" patternContentUnits="objectBoundingBox">
      <path style="fill:#000000" d="M 0.03414224,0.73970504 C 0.10931494,0.70995481 0.18877371,0.69280986 0.26597195,0.66905825 0.49823874,0.60282459 0.73072278,0.53735453 0.96292318,0.47088778 0.90934675,0.45114918 0.85209549,0.44384075 0.79714449,0.42855491 0.54381821,0.36837781 0.29034433,0.30882294 0.03707861,0.24839075 c 0.04873706,-0.0115274 0.09531629,0.0190216 0.1435588,0.0233528 0.26947381,0.063294 0.53882438,0.12711228 0.80806599,0.19138668 -0.033179,0.0355605 -0.0893746,0.0288397 -0.13142718,0.0490845 -0.27339095,0.0782131 -0.54691494,0.15596509 -0.82075359,0.23259758 -7.9233e-4,-0.001702 -0.0015935,-0.003407 -0.0023804,-0.005107 z M 0.0757773,0.61290149 C 0.00679276,0.59017443 0.0924933,0.49571 0.12685799,0.55636243 0.14916239,0.5873188 0.10796024,0.62852466 0.0757773,0.61290149 Z m 0.18345964,0 c -0.0689851,-0.0227268 0.0167158,-0.11719174 0.0510807,-0.0565391 0.0223963,0.0307729 -0.0190533,0.0722985 -0.0510807,0.0565391 z m 0.17869439,-0.0187067 c -0.0689851,-0.0227269 0.016716,-0.11719177 0.0510808,-0.056539 0.0223045,0.0309565 -0.0188979,0.0721618 -0.0510808,0.056539 z m 0.17869436,-0.0724887 c -0.068985,-0.0227268 0.0167158,-0.11719173 0.0510807,-0.0565392 0.0223964,0.0307731 -0.0190531,0.0722988 -0.0510807,0.0565392 z m -0.43839692,-0.007015 c -0.068985,-0.0227267 0.0167157,-0.11719165 0.0510806,-0.0565392 0.0223963,0.0307729 -0.019053,0.0722992 -0.0510806,0.0565392 z m 0.16678154,-0.0280601 c -0.0689851,-0.0227268 0.0167159,-0.11719174 0.0510807,-0.0565391 0.0223964,0.0307729 -0.0190534,0.0722985 -0.0510807,0.0565391 z m 0.11674687,-0.009353 c -0.068985,-0.0227269 0.0167158,-0.11719169 0.0510806,-0.056539 0.0223045,0.0309564 -0.0188976,0.0721621 -0.0510806,0.056539 z M 0.0635651,0.40754113 C 0.00205429,0.37519234 0.09563076,0.2961061 0.12285539,0.35686044 0.14188909,0.39201543 0.0949085,0.42771122 0.0635651,0.40754113 Z m 0.18614141,-0.002752 c -0.068985,-0.0227268 0.0167159,-0.11719175 0.0510806,-0.056539 0.0223964,0.030773 -0.0190532,0.0722986 -0.0510806,0.056539 z" id="path4296" inkscape:connector-curvature="0" />
    </pattern>
  </defs>
  <sodipodi:namedview pagecolor="#ffffff" bordercolor="#666666" borderopacity="1" objecttolerance="10" gridtolerance="10" guidetolerance="10" inkscape:pageopacity="0" inkscape:pageshadow="2" inkscape:window-width="1680" inkscape:window-height="988" id="namedview4" showgrid="false" inkscape:zoom="256" inkscape:cx="0.5" inkscape:cy="0.5" inkscape:window-x="-8" inkscape:window-y="-8" inkscape:window-maximized="1" inkscape:current-layer="svg2" />
  <path style="fill:#000000" d="M 0.03414224,0.73970504 C 0.10931494,0.70995481 0.18877371,0.69280986 0.26597195,0.66905825 0.49823874,0.60282459 0.73072278,0.53735453 0.96292318,0.47088778 0.90934675,0.45114918 0.85209549,0.44384075 0.79714449,0.42855491 0.54381821,0.36837781 0.29034433,0.30882294 0.03707861,0.24839075 c 0.04873706,-0.0115274 0.09531629,0.0190216 0.1435588,0.0233528 0.26947381,0.063294 0.53882438,0.12711228 0.80806599,0.19138668 -0.033179,0.0355605 -0.0893746,0.0288397 -0.13142718,0.0490845 -0.27339095,0.0782131 -0.54691494,0.15596509 -0.82075359,0.23259758 -7.9233e-4,-0.001702 -0.0015935,-0.003407 -0.0023804,-0.005107 z M 0.0757773,0.61290149 C 0.00679276,0.59017443 0.0924933,0.49571 0.12685799,0.55636243 0.14916239,0.5873188 0.10796024,0.62852466 0.0757773,0.61290149 Z m 0.18345964,0 c -0.0689851,-0.0227268 0.0167158,-0.11719174 0.0510807,-0.0565391 0.0223963,0.0307729 -0.0190533,0.0722985 -0.0510807,0.0565391 z m 0.17869439,-0.0187067 c -0.0689851,-0.0227269 0.016716,-0.11719177 0.0510808,-0.056539 0.0223045,0.0309565 -0.0188979,0.0721618 -0.0510808,0.056539 z m 0.17869436,-0.0724887 c -0.068985,-0.0227268 0.0167158,-0.11719173 0.0510807,-0.0565392 0.0223964,0.0307731 -0.0190531,0.0722988 -0.0510807,0.0565392 z m -0.43839692,-0.007015 c -0.068985,-0.0227267 0.0167157,-0.11719165 0.0510806,-0.0565392 0.0223963,0.0307729 -0.019053,0.0722992 -0.0510806,0.0565392 z m 0.16678154,-0.0280601 c -0.0689851,-0.0227268 0.0167159,-0.11719174 0.0510807,-0.0565391 0.0223964,0.0307729 -0.0190534,0.0722985 -0.0510807,0.0565391 z m 0.11674687,-0.009353 c -0.068985,-0.0227269 0.0167158,-0.11719169 0.0510806,-0.056539 0.0223045,0.0309564 -0.0188976,0.0721621 -0.0510806,0.056539 z M 0.0635651,0.40754113 C 0.00205429,0.37519234 0.09563076,0.2961061 0.12285539,0.35686044 0.14188909,0.39201543 0.0949085,0.42771122 0.0635651,0.40754113 Z m 0.18614141,-0.002752 c -0.068985,-0.0227268 0.0167159,-0.11719175 0.0510806,-0.056539 0.0223964,0.030773 -0.0190532,0.0722986 -0.0510806,0.056539 z" id="path4296" inkscape:connector-curvature="0" />
</svg>