<?xml version="1.0" encoding="utf-8" standalone="no"?>
<svg xmlns:dc="http://purl.org/dc/elements/1.1/" xmlns:cc="http://creativecommons.org/ns#" xmlns:rdf="http://www.w3.org/1999/02/22-rdf-syntax-ns#" xmlns:svg="http://www.w3.org/2000/svg" xmlns="http://www.w3.org/2000/svg" xmlns:sodipodi="http://sodipodi.sourceforge.net/DTD/sodipodi-0.dtd" xmlns:inkscape="http://www.inkscape.org/namespaces/inkscape" height="1" version="1.1" width="1" id="svg2" inkscape:version="0.91 r13725" sodipodi:docname="缝合线.svg">
  <metadata id="metadata8">
    <rdf:RDF>
      <cc:Work rdf:about="">
        <dc:format>image/svg+xml</dc:format>
        <dc:type rdf:resource="http://purl.org/dc/dcmitype/StillImage" />
        <dc:title></dc:title>
      </cc:Work>
    </rdf:RDF>
  </metadata>
  <defs id="defs6">
    <pattern width="1" height="1" id="缝合线" patternContentUnits="objectBoundingBox">
      <path style="fill:#000000" d="M 0.099457,0.69824868 C 0.0959496,0.64643688 0.0590318,0.62369558 0.0376923,0.65364478 0.0278762,0.55924878 0.10630112,0.55166083 0.1191839,0.63247568 c 0.0364496,0.0247794 0.05122,-0.12383065 0.0928858,-0.0609143 0.0437891,0.0441469 0.0556723,-0.0538836 0.0754672,-0.10265112 0.030265,-0.0807266 0.0616418,-0.16062861 0.0912841,-0.24175676 0.042318,-0.0389631 0.0384594,0.0957945 0.0266274,0.140028 0.007387,0.0559701 -5.4291e-4,0.13221047 0.0174168,0.17458601 0.0238939,-0.0160514 0.0473706,-0.0246743 0.0637843,0.0188086 0.0200147,-0.008912 0.0428552,-0.0618276 0.0585458,-0.005701 0.0391992,0.0166955 0.036775,-0.0992139 0.0574226,-0.13943582 0.0236689,-0.0679221 0.0345918,-0.15303423 0.0692134,-0.2059227 0.0385267,0.0139086 0.009335,0.12786953 0.0107109,0.18088918 0.008398,0.04651 -0.001255,0.17864991 0.0425305,0.14702979 0.0257247,-0.0603203 0.0612682,0.0578268 0.0834092,-0.0103886 0.0279655,-0.08191 0.0654449,0.0134811 0.0889279,0.0489852 0.0250191,0.0116319 0.0317143,0.10278388 -0.001398,0.0762819 -0.0202467,-0.050027 -0.0743808,-0.10393009 -0.0874377,-0.014548 -0.0231945,0.0620466 -0.0619592,-0.0871524 -0.0830127,0.002094 -0.0270033,0.0572335 -0.0619415,0.003806 -0.0624999,-0.0585264 -0.0142912,-0.0427828 -0.002474,-0.12734817 -0.0266627,-0.14524026 -0.0273748,0.0368937 -0.0285543,0.11725561 -0.0455999,0.17116105 -0.005304,0.0717818 -0.0417486,0.0747491 -0.0692198,0.0475016 -0.0294795,0.0136376 -0.0531435,-0.0115952 -0.0718723,-0.0482974 -0.0194233,0.0289521 -0.0503363,0.12218131 -0.0694854,0.0349983 -0.001042,-0.0607754 -0.005634,-0.11788123 -0.008514,-0.17753441 -0.004845,-0.0292236 0.002052,-0.12818571 -0.0218983,-0.0641102 -0.0141988,0.0459963 -0.0354803,0.0824295 -0.0473185,0.13154433 -0.0158272,0.0538069 -0.03737,0.11411976 -0.0717562,0.12610899 -0.0302787,-0.0176917 -0.0695779,-0.0374916 -0.0769951,0.0387566 -0.0153861,0.0225873 -0.037634,0.0153888 -0.0542826,0.002025 z" id="path4274" inkscape:connector-curvature="0" />
    </pattern>
  </defs>
  <sodipodi:namedview pagecolor="#ffffff" bordercolor="#666666" borderopacity="1" objecttolerance="10" gridtolerance="10" guidetolerance="10" inkscape:pageopacity="0" inkscape:pageshadow="2" inkscape:window-width="1680" inkscape:window-height="988" id="namedview4" showgrid="false" inkscape:zoom="256" inkscape:cx="0.5" inkscape:cy="0.5" inkscape:window-x="-8" inkscape:window-y="-8" inkscape:window-maximized="1" inkscape:current-layer="svg2" />
  <path style="fill:#000000" d="M 0.099457,0.69824868 C 0.0959496,0.64643688 0.0590318,0.62369558 0.0376923,0.65364478 0.0278762,0.55924878 0.10630112,0.55166083 0.1191839,0.63247568 c 0.0364496,0.0247794 0.05122,-0.12383065 0.0928858,-0.0609143 0.0437891,0.0441469 0.0556723,-0.0538836 0.0754672,-0.10265112 0.030265,-0.0807266 0.0616418,-0.16062861 0.0912841,-0.24175676 0.042318,-0.0389631 0.0384594,0.0957945 0.0266274,0.140028 0.007387,0.0559701 -5.4291e-4,0.13221047 0.0174168,0.17458601 0.0238939,-0.0160514 0.0473706,-0.0246743 0.0637843,0.0188086 0.0200147,-0.008912 0.0428552,-0.0618276 0.0585458,-0.005701 0.0391992,0.0166955 0.036775,-0.0992139 0.0574226,-0.13943582 0.0236689,-0.0679221 0.0345918,-0.15303423 0.0692134,-0.2059227 0.0385267,0.0139086 0.009335,0.12786953 0.0107109,0.18088918 0.008398,0.04651 -0.001255,0.17864991 0.0425305,0.14702979 0.0257247,-0.0603203 0.0612682,0.0578268 0.0834092,-0.0103886 0.0279655,-0.08191 0.0654449,0.0134811 0.0889279,0.0489852 0.0250191,0.0116319 0.0317143,0.10278388 -0.001398,0.0762819 -0.0202467,-0.050027 -0.0743808,-0.10393009 -0.0874377,-0.014548 -0.0231945,0.0620466 -0.0619592,-0.0871524 -0.0830127,0.002094 -0.0270033,0.0572335 -0.0619415,0.003806 -0.0624999,-0.0585264 -0.0142912,-0.0427828 -0.002474,-0.12734817 -0.0266627,-0.14524026 -0.0273748,0.0368937 -0.0285543,0.11725561 -0.0455999,0.17116105 -0.005304,0.0717818 -0.0417486,0.0747491 -0.0692198,0.0475016 -0.0294795,0.0136376 -0.0531435,-0.0115952 -0.0718723,-0.0482974 -0.0194233,0.0289521 -0.0503363,0.12218131 -0.0694854,0.0349983 -0.001042,-0.0607754 -0.005634,-0.11788123 -0.008514,-0.17753441 -0.004845,-0.0292236 0.002052,-0.12818571 -0.0218983,-0.0641102 -0.0141988,0.0459963 -0.0354803,0.0824295 -0.0473185,0.13154433 -0.0158272,0.0538069 -0.03737,0.11411976 -0.0717562,0.12610899 -0.0302787,-0.0176917 -0.0695779,-0.0374916 -0.0769951,0.0387566 -0.0153861,0.0225873 -0.037634,0.0153888 -0.0542826,0.002025 z" id="path4274" inkscape:connector-curvature="0" />
</svg>