<?xml version="1.0" encoding="utf-8" standalone="no"?>
<svg xmlns:dc="http://purl.org/dc/elements/1.1/" xmlns:cc="http://creativecommons.org/ns#" xmlns:rdf="http://www.w3.org/1999/02/22-rdf-syntax-ns#" xmlns:svg="http://www.w3.org/2000/svg" xmlns="http://www.w3.org/2000/svg" xmlns:sodipodi="http://sodipodi.sourceforge.net/DTD/sodipodi-0.dtd" xmlns:inkscape="http://www.inkscape.org/namespaces/inkscape" height="1" version="1.1" width="1" id="svg2" inkscape:version="0.91 r13725" sodipodi:docname="虫孔.svg">
  <metadata id="metadata8">
    <rdf:RDF>
      <cc:Work rdf:about="">
        <dc:format>image/svg+xml</dc:format>
        <dc:type rdf:resource="http://purl.org/dc/dcmitype/StillImage" />
        <dc:title></dc:title>
      </cc:Work>
    </rdf:RDF>
  </metadata>
  <defs id="defs6">
    <pattern width="1" height="1" id="虫孔" patternContentUnits="objectBoundingBox">
      <path style="fill:#000000" d="m 0.42986849,0.92758391 c -0.0497956,-0.0103427 -0.0782719,-0.0495762 -0.0729536,-0.0872122 -0.0039,-0.0453729 0.007623,-0.0936615 -0.015529,-0.13664588 -0.0330838,-0.036473 -0.0514604,-0.0806024 -0.0446442,-0.12497107 0.003101,-0.0345389 0.0239106,-0.065754 0.0388523,-0.0977346 0.0121614,-0.0488243 -0.0413416,-0.0865609 -0.0520395,-0.13240023 -0.0200487,-0.0353721 -0.0310418,-0.0728582 -0.0241158,-0.11176383 0.003395,-0.0353605 0.0373357,-0.0637003 0.0677593,-0.088626 0.0370378,-0.0204183 0.0800796,-0.0357528 0.12428437,-0.0438752 0.0485453,-1.1028e-4 0.10826302,-0.01222175 0.14700265,0.015882 0.0337771,0.0214577 0.0715379,0.0485986 0.0663333,0.0852761 -0.002553,0.0392198 0.0152541,0.0762995 0.0362621,0.11142806 0.0136173,0.0427823 0.0242414,0.0924616 -0.006769,0.13250278 -0.0305127,0.0312667 -0.0232049,0.073271 -0.0477771,0.10605119 -0.0190696,0.0377236 0.0174454,0.0713662 0.0201799,0.10793314 0.004547,0.04146 0.006518,0.0852367 -0.0112868,0.12494106 -0.024016,0.0444486 -0.032872,0.10042926 -0.092498,0.12711067 -0.0395386,0.0184374 -0.088832,0.018809 -0.13306078,0.0121045 z m 0.0718555,-0.0585078 c -0.0360467,-0.0177446 -0.0169013,-0.0897733 0.0292242,-0.0549144 0.0442234,0.0280796 0.0592321,-0.0320987 0.0398987,-0.053559 -0.0185039,-0.0139616 -0.0608764,-0.0353158 -0.0182693,-0.0503999 0.0575632,-0.0103365 0.0177875,-0.0570539 0.0187608,-0.086742 0.0104688,-0.0390421 -0.0622416,-0.0297916 -0.0653523,-0.0596767 0.0364987,-0.011465 0.0757298,-0.0262759 0.0837768,-0.0613694 0.007151,-0.0169318 0.0537315,-0.0659057 -0.002365,-0.0526935 -0.0295398,0.004474 -0.092667,0.0504806 -0.0947753,0.003104 0.0151006,-0.0382234 0.0805603,-0.0391551 0.12299649,-0.0308784 0.0323344,4.412e-5 0.0119987,-0.0446883 0.0117914,-0.062646 -0.0370395,-0.0313085 -0.0684242,0.0645871 -0.10111988,0.0126848 -0.0116793,-0.02175 0.0507771,-0.066703 -0.0127588,-0.0631195 -0.0485274,6.8874e-4 -0.0973282,0.005035 -0.14371886,0.0162182 -0.0357252,0.0275942 0.0334987,0.0575201 0.0395792,0.0870893 0.0174574,0.0339847 0.0137061,0.0715121 0.0465318,0.0987927 0.01469,0.0261143 -0.0147859,0.0524149 -0.0388409,0.0247068 -0.0319256,-0.00175 -0.0693094,0.0359756 -0.0468408,0.0552248 0.0263933,0.009778 0.0738558,0.0173567 0.0446883,0.0471961 -0.009828,0.0237076 0.0246499,0.0511813 0.0236618,0.0794082 0.002,0.0348769 0.0902136,0.0174365 0.078624,0.0571903 -0.0388231,0.009949 -0.10028307,0.0107538 -0.0818564,0.0552248 0.001237,0.0222135 0.0340221,0.0573002 0.0663644,0.0391569 z M 0.47664514,0.69755167 c -0.031863,-0.0254483 0.0167355,-0.078227 0.0442401,-0.0368886 0.006678,0.0175995 -0.0166614,0.0496714 -0.0442401,0.0368886 z M 0.41739164,0.38051404 c -0.0286117,-0.049158 0.0927556,-0.0205827 0.0321977,0.008033 -0.0117708,0.003749 -0.024133,-0.001847 -0.0321977,-0.008033 z m 0.0346412,-0.12088258 c 0.0403245,-0.0196601 0.1171131,-0.001165 0.13119323,-0.0463605 0.001693,-0.0461472 -0.0752669,-0.0494331 -0.12000968,-0.0506163 -0.0477339,0.003348 -0.10771608,0.0222894 -0.1205199,0.0604024 -0.003925,0.0339143 0.0518854,0.0429226 0.0864358,0.0432499 0.008237,-5.9976e-4 0.0163817,-0.002739 0.0229006,-0.006676 z" id="path4356" inkscape:connector-curvature="0" />
    </pattern>
  </defs>
  <sodipodi:namedview pagecolor="#ffffff" bordercolor="#666666" borderopacity="1" objecttolerance="10" gridtolerance="10" guidetolerance="10" inkscape:pageopacity="0" inkscape:pageshadow="2" inkscape:window-width="1680" inkscape:window-height="988" id="namedview4" showgrid="false" inkscape:zoom="256" inkscape:cx="1.1073178" inkscape:cy="0.088443916" inkscape:window-x="-8" inkscape:window-y="-8" inkscape:window-maximized="1" inkscape:current-layer="svg2" />
  <path style="fill:#000000" d="m 0.42986849,0.92758391 c -0.0497956,-0.0103427 -0.0782719,-0.0495762 -0.0729536,-0.0872122 -0.0039,-0.0453729 0.007623,-0.0936615 -0.015529,-0.13664588 -0.0330838,-0.036473 -0.0514604,-0.0806024 -0.0446442,-0.12497107 0.003101,-0.0345389 0.0239106,-0.065754 0.0388523,-0.0977346 0.0121614,-0.0488243 -0.0413416,-0.0865609 -0.0520395,-0.13240023 -0.0200487,-0.0353721 -0.0310418,-0.0728582 -0.0241158,-0.11176383 0.003395,-0.0353605 0.0373357,-0.0637003 0.0677593,-0.088626 0.0370378,-0.0204183 0.0800796,-0.0357528 0.12428437,-0.0438752 0.0485453,-1.1028e-4 0.10826302,-0.01222175 0.14700265,0.015882 0.0337771,0.0214577 0.0715379,0.0485986 0.0663333,0.0852761 -0.002553,0.0392198 0.0152541,0.0762995 0.0362621,0.11142806 0.0136173,0.0427823 0.0242414,0.0924616 -0.006769,0.13250278 -0.0305127,0.0312667 -0.0232049,0.073271 -0.0477771,0.10605119 -0.0190696,0.0377236 0.0174454,0.0713662 0.0201799,0.10793314 0.004547,0.04146 0.006518,0.0852367 -0.0112868,0.12494106 -0.024016,0.0444486 -0.032872,0.10042926 -0.092498,0.12711067 -0.0395386,0.0184374 -0.088832,0.018809 -0.13306078,0.0121045 z m 0.0718555,-0.0585078 c -0.0360467,-0.0177446 -0.0169013,-0.0897733 0.0292242,-0.0549144 0.0442234,0.0280796 0.0592321,-0.0320987 0.0398987,-0.053559 -0.0185039,-0.0139616 -0.0608764,-0.0353158 -0.0182693,-0.0503999 0.0575632,-0.0103365 0.0177875,-0.0570539 0.0187608,-0.086742 0.0104688,-0.0390421 -0.0622416,-0.0297916 -0.0653523,-0.0596767 0.0364987,-0.011465 0.0757298,-0.0262759 0.0837768,-0.0613694 0.007151,-0.0169318 0.0537315,-0.0659057 -0.002365,-0.0526935 -0.0295398,0.004474 -0.092667,0.0504806 -0.0947753,0.003104 0.0151006,-0.0382234 0.0805603,-0.0391551 0.12299649,-0.0308784 0.0323344,4.412e-5 0.0119987,-0.0446883 0.0117914,-0.062646 -0.0370395,-0.0313085 -0.0684242,0.0645871 -0.10111988,0.0126848 -0.0116793,-0.02175 0.0507771,-0.066703 -0.0127588,-0.0631195 -0.0485274,6.8874e-4 -0.0973282,0.005035 -0.14371886,0.0162182 -0.0357252,0.0275942 0.0334987,0.0575201 0.0395792,0.0870893 0.0174574,0.0339847 0.0137061,0.0715121 0.0465318,0.0987927 0.01469,0.0261143 -0.0147859,0.0524149 -0.0388409,0.0247068 -0.0319256,-0.00175 -0.0693094,0.0359756 -0.0468408,0.0552248 0.0263933,0.009778 0.0738558,0.0173567 0.0446883,0.0471961 -0.009828,0.0237076 0.0246499,0.0511813 0.0236618,0.0794082 0.002,0.0348769 0.0902136,0.0174365 0.078624,0.0571903 -0.0388231,0.009949 -0.10028307,0.0107538 -0.0818564,0.0552248 0.001237,0.0222135 0.0340221,0.0573002 0.0663644,0.0391569 z M 0.47664514,0.69755167 c -0.031863,-0.0254483 0.0167355,-0.078227 0.0442401,-0.0368886 0.006678,0.0175995 -0.0166614,0.0496714 -0.0442401,0.0368886 z M 0.41739164,0.38051404 c -0.0286117,-0.049158 0.0927556,-0.0205827 0.0321977,0.008033 -0.0117708,0.003749 -0.024133,-0.001847 -0.0321977,-0.008033 z m 0.0346412,-0.12088258 c 0.0403245,-0.0196601 0.1171131,-0.001165 0.13119323,-0.0463605 0.001693,-0.0461472 -0.0752669,-0.0494331 -0.12000968,-0.0506163 -0.0477339,0.003348 -0.10771608,0.0222894 -0.1205199,0.0604024 -0.003925,0.0339143 0.0518854,0.0429226 0.0864358,0.0432499 0.008237,-5.9976e-4 0.0163817,-0.002739 0.0229006,-0.006676 z" id="path4356" inkscape:connector-curvature="0" />
</svg>