<?xml version="1.0" encoding="utf-8" standalone="no"?>
<svg xmlns:dc="http://purl.org/dc/elements/1.1/" xmlns:cc="http://creativecommons.org/ns#" xmlns:rdf="http://www.w3.org/1999/02/22-rdf-syntax-ns#" xmlns:svg="http://www.w3.org/2000/svg" xmlns="http://www.w3.org/2000/svg" xmlns:sodipodi="http://sodipodi.sourceforge.net/DTD/sodipodi-0.dtd" xmlns:inkscape="http://www.inkscape.org/namespaces/inkscape" height="1" version="1.1" width="1" id="svg2" inkscape:version="0.91 r13725" sodipodi:docname="虫迹.svg">
  <metadata id="metadata8">
    <rdf:RDF>
      <cc:Work rdf:about="">
        <dc:format>image/svg+xml</dc:format>
        <dc:type rdf:resource="http://purl.org/dc/dcmitype/StillImage" />
        <dc:title></dc:title>
      </cc:Work>
    </rdf:RDF>
  </metadata>
  <defs id="defs6">
    <pattern width="1" height="1" id="虫迹" patternContentUnits="objectBoundingBox">
      <path style="fill:#000000" d="m 0.38706519,0.87228364 c 0.00941,-0.0484441 -0.0571211,-0.0604164 -0.028153,-0.10037974 0.0169381,-0.0327097 0.090818,-0.0467898 0.0596044,0.0198615 -0.0260122,0.0349977 2.1136e-4,0.0357327 0.019508,0.0310084 0.034249,0.0364375 -0.0195218,0.0827834 -0.0423593,0.0596849 l -0.004608,-0.004355 -0.003992,-0.00582 0,0 z m 0.20304346,-0.001027 c -0.0397247,-0.0277354 0.0162948,-0.10137873 0.0302052,-0.0363621 0.0190055,0.0336955 -0.0144491,0.071498 -0.0302052,0.0363613 z m 0.0147155,-0.0899902 c -0.0389564,-0.0267825 0.007854,-0.0913647 0.0326532,-0.0588426 0.0420119,0.0127119 0.0261339,0.11607811 -0.0142116,0.0729971 -0.006481,-0.00344 -0.012728,-0.008111 -0.0184416,-0.0141545 z m -0.2811267,-0.0420031 c -0.0308035,-0.0513069 0.0390814,-0.0683184 0.0570823,-0.0921785 0.0461481,-1.7455e-4 0.0117924,0.0936495 -0.0194044,0.0879564 -0.011974,0.006922 -0.0252538,0.009772 -0.0376779,0.004222 z m 0.3412665,-0.0296253 c -0.0277384,0.002725 -0.0839453,-0.0586693 -0.0408568,-0.0935123 0.0265624,0.017131 0.0728447,0.0368865 0.0786562,0.0793184 -0.008647,0.015395 -0.0265164,0.0338133 -0.0377994,0.0141938 z M 0.27983429,0.64258273 c -0.00677,-0.0674764 0.0502405,-0.0437573 0.0727275,-0.0716093 0.0231825,-0.055001 0.0492067,0.0266488 0.0203047,0.0524215 -0.0280017,0.0200305 -0.0632146,0.0500299 -0.0930322,0.0191877 z M 0.6884918,0.62643038 c -0.0281923,0.003217 -0.0787559,-0.0636401 -0.0460457,-0.0919006 0.0268866,0.0133933 0.0927885,0.0352047 0.0747483,0.0941506 -0.008744,0.007374 -0.0205268,0.007003 -0.0287023,-0.00225 z M 0.24223369,0.55147495 c -0.0275929,-0.051767 0.0405162,-0.0365291 0.0539893,-0.067705 0.0163421,-0.0299568 0.0746731,-0.059254 0.0592706,0.0102316 -0.0212795,0.0568934 -0.0690129,0.0756877 -0.10715756,0.0621315 -0.002033,-0.001552 -0.004066,-0.003106 -0.006102,-0.004658 z m 0.48057089,-0.0304642 c -0.0239847,-0.0113167 -0.0822304,-0.0320218 -0.0625764,-0.0882852 0.0342932,-0.003394 0.0870499,0.0265373 0.10382307,0.077318 -0.004977,0.0272697 -0.0294437,0.0187201 -0.0412468,0.0109673 z m -0.52039989,-0.064654 c -0.0411806,-0.0275599 0.0177292,-0.0835667 0.0404406,-0.0599497 0.0275803,-0.003566 0.069604,-0.0957585 0.0864025,-0.0301168 -0.0119186,0.0664219 -0.063285,0.0869575 -0.10109696,0.0925592 -0.008605,3.5542e-4 -0.0172297,-4.5849e-4 -0.0257461,-0.002492 z m 0.52839959,-0.0471225 c -0.0212221,-0.015178 -0.0728359,-0.0513396 -0.044675,-0.0959923 0.0381718,0.0184048 0.0752711,0.0576553 0.11295334,0.0660794 0.0147378,0.0561297 -0.0445337,0.0737231 -0.0620403,0.0346612 -0.002081,-0.001582 -0.004158,-0.003167 -0.006238,-0.004748 z M 0.14020623,0.33205049 c -0.008287,-0.06713 0.0481244,-0.0437509 0.0722286,-0.0589651 0.0233305,-0.0191051 0.0689689,-0.11184044 0.0829328,-0.0327483 -0.0200663,0.0624802 -0.0634232,0.10013429 -0.10530598,0.11073773 -0.0172559,0.002843 -0.0357225,-0.001795 -0.0498554,-0.0190244 z m 0.64258499,-0.0154641 c -0.0282029,-0.0212582 -0.0691061,-0.0304711 -0.0787955,-0.0865945 -3.5166e-4,-0.0694151 0.0502241,4.3006e-4 0.0694266,0.012754 0.0234966,-0.005832 0.0902054,0.0417927 0.0508017,0.0772017 -0.0133493,0.006761 -0.0285056,0.005008 -0.0414326,-0.003362 z M 0.11388018,0.23866769 c -0.0390231,-0.033462 0.0182576,-0.0667708 0.0390455,-0.0545675 0.0365905,-0.0156418 0.0633215,-0.0616426 0.0914095,-0.0996769 0.0360156,0.005865 0.003961,0.0970229 -0.0191422,0.10975798 -0.0319311,0.0350575 -0.0723538,0.0635348 -0.11131311,0.0444864 z m 0.71440923,-0.0187066 c -0.0372328,-0.0273419 -0.0843323,-0.0372363 -0.11160124,-0.0893889 -0.012321,-0.061086 0.0290082,-0.0534464 0.0446676,-0.0172117 0.0298192,0.0295495 0.0646047,0.0409422 0.0984285,0.0520384 0.0248264,0.0305835 -0.0107795,0.090239 -0.0314947,0.0545626 z" id="path4334" inkscape:connector-curvature="0" />
    </pattern>
  </defs>
  <sodipodi:namedview pagecolor="#ffffff" bordercolor="#666666" borderopacity="1" objecttolerance="10" gridtolerance="10" guidetolerance="10" inkscape:pageopacity="0" inkscape:pageshadow="2" inkscape:window-width="1680" inkscape:window-height="988" id="namedview4" showgrid="false" inkscape:zoom="256" inkscape:cx="0.11608033" inkscape:cy="1.133045" inkscape:window-x="-8" inkscape:window-y="-8" inkscape:window-maximized="1" inkscape:current-layer="svg2" />
  <path style="fill:#000000" d="m 0.38706519,0.87228364 c 0.00941,-0.0484441 -0.0571211,-0.0604164 -0.028153,-0.10037974 0.0169381,-0.0327097 0.090818,-0.0467898 0.0596044,0.0198615 -0.0260122,0.0349977 2.1136e-4,0.0357327 0.019508,0.0310084 0.034249,0.0364375 -0.0195218,0.0827834 -0.0423593,0.0596849 l -0.004608,-0.004355 -0.003992,-0.00582 0,0 z m 0.20304346,-0.001027 c -0.0397247,-0.0277354 0.0162948,-0.10137873 0.0302052,-0.0363621 0.0190055,0.0336955 -0.0144491,0.071498 -0.0302052,0.0363613 z m 0.0147155,-0.0899902 c -0.0389564,-0.0267825 0.007854,-0.0913647 0.0326532,-0.0588426 0.0420119,0.0127119 0.0261339,0.11607811 -0.0142116,0.0729971 -0.006481,-0.00344 -0.012728,-0.008111 -0.0184416,-0.0141545 z m -0.2811267,-0.0420031 c -0.0308035,-0.0513069 0.0390814,-0.0683184 0.0570823,-0.0921785 0.0461481,-1.7455e-4 0.0117924,0.0936495 -0.0194044,0.0879564 -0.011974,0.006922 -0.0252538,0.009772 -0.0376779,0.004222 z m 0.3412665,-0.0296253 c -0.0277384,0.002725 -0.0839453,-0.0586693 -0.0408568,-0.0935123 0.0265624,0.017131 0.0728447,0.0368865 0.0786562,0.0793184 -0.008647,0.015395 -0.0265164,0.0338133 -0.0377994,0.0141938 z M 0.27983429,0.64258273 c -0.00677,-0.0674764 0.0502405,-0.0437573 0.0727275,-0.0716093 0.0231825,-0.055001 0.0492067,0.0266488 0.0203047,0.0524215 -0.0280017,0.0200305 -0.0632146,0.0500299 -0.0930322,0.0191877 z M 0.6884918,0.62643038 c -0.0281923,0.003217 -0.0787559,-0.0636401 -0.0460457,-0.0919006 0.0268866,0.0133933 0.0927885,0.0352047 0.0747483,0.0941506 -0.008744,0.007374 -0.0205268,0.007003 -0.0287023,-0.00225 z M 0.24223369,0.55147495 c -0.0275929,-0.051767 0.0405162,-0.0365291 0.0539893,-0.067705 0.0163421,-0.0299568 0.0746731,-0.059254 0.0592706,0.0102316 -0.0212795,0.0568934 -0.0690129,0.0756877 -0.10715756,0.0621315 -0.002033,-0.001552 -0.004066,-0.003106 -0.006102,-0.004658 z m 0.48057089,-0.0304642 c -0.0239847,-0.0113167 -0.0822304,-0.0320218 -0.0625764,-0.0882852 0.0342932,-0.003394 0.0870499,0.0265373 0.10382307,0.077318 -0.004977,0.0272697 -0.0294437,0.0187201 -0.0412468,0.0109673 z m -0.52039989,-0.064654 c -0.0411806,-0.0275599 0.0177292,-0.0835667 0.0404406,-0.0599497 0.0275803,-0.003566 0.069604,-0.0957585 0.0864025,-0.0301168 -0.0119186,0.0664219 -0.063285,0.0869575 -0.10109696,0.0925592 -0.008605,3.5542e-4 -0.0172297,-4.5849e-4 -0.0257461,-0.002492 z m 0.52839959,-0.0471225 c -0.0212221,-0.015178 -0.0728359,-0.0513396 -0.044675,-0.0959923 0.0381718,0.0184048 0.0752711,0.0576553 0.11295334,0.0660794 0.0147378,0.0561297 -0.0445337,0.0737231 -0.0620403,0.0346612 -0.002081,-0.001582 -0.004158,-0.003167 -0.006238,-0.004748 z M 0.14020623,0.33205049 c -0.008287,-0.06713 0.0481244,-0.0437509 0.0722286,-0.0589651 0.0233305,-0.0191051 0.0689689,-0.11184044 0.0829328,-0.0327483 -0.0200663,0.0624802 -0.0634232,0.10013429 -0.10530598,0.11073773 -0.0172559,0.002843 -0.0357225,-0.001795 -0.0498554,-0.0190244 z m 0.64258499,-0.0154641 c -0.0282029,-0.0212582 -0.0691061,-0.0304711 -0.0787955,-0.0865945 -3.5166e-4,-0.0694151 0.0502241,4.3006e-4 0.0694266,0.012754 0.0234966,-0.005832 0.0902054,0.0417927 0.0508017,0.0772017 -0.0133493,0.006761 -0.0285056,0.005008 -0.0414326,-0.003362 z M 0.11388018,0.23866769 c -0.0390231,-0.033462 0.0182576,-0.0667708 0.0390455,-0.0545675 0.0365905,-0.0156418 0.0633215,-0.0616426 0.0914095,-0.0996769 0.0360156,0.005865 0.003961,0.0970229 -0.0191422,0.10975798 -0.0319311,0.0350575 -0.0723538,0.0635348 -0.11131311,0.0444864 z m 0.71440923,-0.0187066 c -0.0372328,-0.0273419 -0.0843323,-0.0372363 -0.11160124,-0.0893889 -0.012321,-0.061086 0.0290082,-0.0534464 0.0446676,-0.0172117 0.0298192,0.0295495 0.0646047,0.0409422 0.0984285,0.0520384 0.0248264,0.0305835 -0.0107795,0.090239 -0.0314947,0.0545626 z" id="path4334" inkscape:connector-curvature="0" />
</svg>