<?xml version="1.0" encoding="utf-8" standalone="no"?>
<svg xmlns:dc="http://purl.org/dc/elements/1.1/" xmlns:cc="http://creativecommons.org/ns#" xmlns:rdf="http://www.w3.org/1999/02/22-rdf-syntax-ns#" xmlns:svg="http://www.w3.org/2000/svg" xmlns="http://www.w3.org/2000/svg" xmlns:sodipodi="http://sodipodi.sourceforge.net/DTD/sodipodi-0.dtd" xmlns:inkscape="http://www.inkscape.org/namespaces/inkscape" height="1" version="1.1" width="1" id="svg2" inkscape:version="0.91 r13725" sodipodi:docname="原地堆积生态.svg">
  <metadata id="metadata8">
    <rdf:RDF>
      <cc:Work rdf:about="">
        <dc:format>image/svg+xml</dc:format>
        <dc:type rdf:resource="http://purl.org/dc/dcmitype/StillImage" />
        <dc:title></dc:title>
      </cc:Work>
    </rdf:RDF>
  </metadata>
  <defs id="defs6">
    <pattern width="1" height="1" id="原地堆积生态" patternContentUnits="objectBoundingBox">
      <path style="fill:#000000" d="M 0.60274586,0.71981414 C 0.52770756,0.63691044 0.46573838,0.56980368 0.46503662,0.57068798 0.46433639,0.57157152 0.40624812,0.63583648 0.33595499,0.71349715 L 0.20814922,0.85469849 0.17934542,0.83075879 C 0.16350342,0.81759199 0.15038882,0.80556229 0.15020222,0.80402609 0.15001574,0.80249009 0.20857002,0.73640119 0.28032354,0.65716217 0.35207694,0.57792327 0.41004757,0.51102818 0.40914705,0.50850649 0.40824676,0.50598549 0.34568935,0.43572299 0.27013131,0.35236912 L 0.13275294,0.20081663 0.16082654,0.17641223 c 0.0154403,-0.0134223 0.029586,-0.0244772 0.0314347,-0.0245663 0.001851,-8.98e-5 0.0635366,0.0663709 0.13708427,0.14768927 0.0735476,0.0813184 0.13538396,0.14785152 0.13741404,0.14785152 0.002031,0 0.0678228,-0.0709679 0.14620608,-0.1577064 C 0.73677442,0.15267423 0.75662925,0.1327656 0.7642309,0.13800503 c 0.004813,0.003316 0.0185876,0.0147484 0.0306111,0.0254025 l 0.0218608,0.0193716 -0.0517037,0.0571034 C 0.7365621,0.27128933 0.669757,0.34514094 0.61654327,0.40399713 l -0.0967522,0.10701135 0.0146559,0.0153487 c 0.008061,0.008442 0.0715795,0.0782608 0.14115296,0.1551535 l 0.12649714,0.13980488 -0.0281315,0.0244539 c -0.0154724,0.0134497 -0.0296289,0.024527 -0.031459,0.0246162 -0.00183,8.98e-5 -0.0647224,-0.067668 -0.13976071,-0.15057169 z" id="path4198" inkscape:connector-curvature="0" />
    </pattern>
  </defs>
  <sodipodi:namedview pagecolor="#ffffff" bordercolor="#666666" borderopacity="1" objecttolerance="10" gridtolerance="10" guidetolerance="10" inkscape:pageopacity="0" inkscape:pageshadow="2" inkscape:window-width="1600" inkscape:window-height="838" id="namedview4" showgrid="false" inkscape:zoom="146.70933" inkscape:cx="1.1601171" inkscape:cy="-0.56438127" inkscape:window-x="-8" inkscape:window-y="-8" inkscape:window-maximized="1" inkscape:current-layer="svg2" />
  <path style="fill:#000000" d="M 0.60274586,0.71981414 C 0.52770756,0.63691044 0.46573838,0.56980368 0.46503662,0.57068798 0.46433639,0.57157152 0.40624812,0.63583648 0.33595499,0.71349715 L 0.20814922,0.85469849 0.17934542,0.83075879 C 0.16350342,0.81759199 0.15038882,0.80556229 0.15020222,0.80402609 0.15001574,0.80249009 0.20857002,0.73640119 0.28032354,0.65716217 0.35207694,0.57792327 0.41004757,0.51102818 0.40914705,0.50850649 0.40824676,0.50598549 0.34568935,0.43572299 0.27013131,0.35236912 L 0.13275294,0.20081663 0.16082654,0.17641223 c 0.0154403,-0.0134223 0.029586,-0.0244772 0.0314347,-0.0245663 0.001851,-8.98e-5 0.0635366,0.0663709 0.13708427,0.14768927 0.0735476,0.0813184 0.13538396,0.14785152 0.13741404,0.14785152 0.002031,0 0.0678228,-0.0709679 0.14620608,-0.1577064 C 0.73677442,0.15267423 0.75662925,0.1327656 0.7642309,0.13800503 c 0.004813,0.003316 0.0185876,0.0147484 0.0306111,0.0254025 l 0.0218608,0.0193716 -0.0517037,0.0571034 C 0.7365621,0.27128933 0.669757,0.34514094 0.61654327,0.40399713 l -0.0967522,0.10701135 0.0146559,0.0153487 c 0.008061,0.008442 0.0715795,0.0782608 0.14115296,0.1551535 l 0.12649714,0.13980488 -0.0281315,0.0244539 c -0.0154724,0.0134497 -0.0296289,0.024527 -0.031459,0.0246162 -0.00183,8.98e-5 -0.0647224,-0.067668 -0.13976071,-0.15057169 z" id="path4198" inkscape:connector-curvature="0" />
</svg>