<?xml version="1.0" encoding="utf-8" standalone="no"?>
<svg xmlns:dc="http://purl.org/dc/elements/1.1/" xmlns:cc="http://creativecommons.org/ns#" xmlns:rdf="http://www.w3.org/1999/02/22-rdf-syntax-ns#" xmlns:svg="http://www.w3.org/2000/svg" xmlns="http://www.w3.org/2000/svg" xmlns:sodipodi="http://sodipodi.sourceforge.net/DTD/sodipodi-0.dtd" xmlns:inkscape="http://www.inkscape.org/namespaces/inkscape" height="1" version="1.1" width="1" id="svg2" inkscape:version="0.91 r13725" sodipodi:docname="古杯动物.svg">
  <metadata id="metadata8">
    <rdf:RDF>
      <cc:Work rdf:about="">
        <dc:format>image/svg+xml</dc:format>
        <dc:type rdf:resource="http://purl.org/dc/dcmitype/StillImage" />
        <dc:title></dc:title>
      </cc:Work>
    </rdf:RDF>
  </metadata>
  <defs id="defs6">
    <pattern width="1" height="1" id="古杯动物" patternContentUnits="objectBoundingBox">
      <path style="fill:#000000" d="m 0.28910725,0.89141822 c 0,-0.0107077 0.0281994,-0.0279559 0.0626653,-0.0383285 0.0577995,-0.0173956 0.061482,-0.0251033 0.0474245,-0.0992738 -0.008383,-0.0442274 -0.0433549,-0.1659088 -0.0777165,-0.27040254 -0.0343617,-0.10449374 -0.0674882,-0.22080897 -0.0736145,-0.25847821 -0.0106128,-0.0652522 -0.006475,-0.0699669 0.0875404,-0.0997441 0.0542735,-0.0171895 0.12954292,-0.03125465 0.16726547,-0.03125465 0.0754386,0 0.23091884,0.0458471 0.25348133,0.07474558 0.0141618,0.0181383 -0.0440653,0.24030104 -0.13434914,0.51260255 -0.0491684,0.14829501 -0.0414053,0.1716315 0.0573214,0.17231542 0.0231011,1.5332e-4 0.042002,0.0131148 0.042002,0.0287889 0,0.0232212 -0.040002,0.0284986 -0.21601008,0.0284986 -0.13148413,0 -0.21601007,-0.00762 -0.21601007,-0.0194692 z m 0.29401371,-0.0191203 c -0.0297014,-0.00945 -0.0540025,-0.0196514 -0.0540025,-0.02267 0,-0.003019 0.0113331,-0.035354 0.0251846,-0.0718575 0.0468226,-0.1233946 0.14282321,-0.42631301 0.14282321,-0.45066191 0,-0.0175639 -0.0525577,-0.0241838 -0.19200895,-0.0241838 -0.13775825,0 -0.19192853,0.006709 -0.19172429,0.0237484 1.4439e-4,0.0130616 0.0327224,0.13489193 0.0723689,0.27073373 0.0673073,0.23061597 0.0693705,0.24855916 0.0311299,0.27073378 -0.0345311,0.0200235 -0.0204713,0.0235601 0.0896384,0.0225441 0.10261605,-9.4185e-4 0.11902418,-0.004887 0.0765906,-0.0183861 z m 0.067195,-0.61735868 c 0.0847535,-0.0346932 0.0883841,-0.0541106 0.0174688,-0.0934293 -0.0975655,-0.0540944 -0.37867741,-0.025223 -0.37867741,0.0388929 0,0.0747216 0.22785413,0.10912407 0.36120867,0.054536 z" id="path4266" inkscape:connector-curvature="0" />
    </pattern>
  </defs>
  <sodipodi:namedview pagecolor="#ffffff" bordercolor="#666666" borderopacity="1" objecttolerance="10" gridtolerance="10" guidetolerance="10" inkscape:pageopacity="0" inkscape:pageshadow="2" inkscape:window-width="1600" inkscape:window-height="838" id="namedview4" showgrid="false" inkscape:zoom="240.39659" inkscape:cx="1.8686281" inkscape:cy="0.34368292" inkscape:window-x="-8" inkscape:window-y="-8" inkscape:window-maximized="1" inkscape:current-layer="svg2" />
  <path style="fill:#000000" d="m 0.28910725,0.89141822 c 0,-0.0107077 0.0281994,-0.0279559 0.0626653,-0.0383285 0.0577995,-0.0173956 0.061482,-0.0251033 0.0474245,-0.0992738 -0.008383,-0.0442274 -0.0433549,-0.1659088 -0.0777165,-0.27040254 -0.0343617,-0.10449374 -0.0674882,-0.22080897 -0.0736145,-0.25847821 -0.0106128,-0.0652522 -0.006475,-0.0699669 0.0875404,-0.0997441 0.0542735,-0.0171895 0.12954292,-0.03125465 0.16726547,-0.03125465 0.0754386,0 0.23091884,0.0458471 0.25348133,0.07474558 0.0141618,0.0181383 -0.0440653,0.24030104 -0.13434914,0.51260255 -0.0491684,0.14829501 -0.0414053,0.1716315 0.0573214,0.17231542 0.0231011,1.5332e-4 0.042002,0.0131148 0.042002,0.0287889 0,0.0232212 -0.040002,0.0284986 -0.21601008,0.0284986 -0.13148413,0 -0.21601007,-0.00762 -0.21601007,-0.0194692 z m 0.29401371,-0.0191203 c -0.0297014,-0.00945 -0.0540025,-0.0196514 -0.0540025,-0.02267 0,-0.003019 0.0113331,-0.035354 0.0251846,-0.0718575 0.0468226,-0.1233946 0.14282321,-0.42631301 0.14282321,-0.45066191 0,-0.0175639 -0.0525577,-0.0241838 -0.19200895,-0.0241838 -0.13775825,0 -0.19192853,0.006709 -0.19172429,0.0237484 1.4439e-4,0.0130616 0.0327224,0.13489193 0.0723689,0.27073373 0.0673073,0.23061597 0.0693705,0.24855916 0.0311299,0.27073378 -0.0345311,0.0200235 -0.0204713,0.0235601 0.0896384,0.0225441 0.10261605,-9.4185e-4 0.11902418,-0.004887 0.0765906,-0.0183861 z m 0.067195,-0.61735868 c 0.0847535,-0.0346932 0.0883841,-0.0541106 0.0174688,-0.0934293 -0.0975655,-0.0540944 -0.37867741,-0.025223 -0.37867741,0.0388929 0,0.0747216 0.22785413,0.10912407 0.36120867,0.054536 z" id="path4266" inkscape:connector-curvature="0" />
</svg>