<?xml version="1.0" encoding="utf-8" standalone="no"?>
<svg xmlns:dc="http://purl.org/dc/elements/1.1/" xmlns:cc="http://creativecommons.org/ns#" xmlns:rdf="http://www.w3.org/1999/02/22-rdf-syntax-ns#" xmlns:svg="http://www.w3.org/2000/svg" xmlns="http://www.w3.org/2000/svg" xmlns:sodipodi="http://sodipodi.sourceforge.net/DTD/sodipodi-0.dtd" xmlns:inkscape="http://www.inkscape.org/namespaces/inkscape" height="1" version="1.1" width="1" id="svg2" inkscape:version="0.91 r13725" sodipodi:docname="古植物化石.svg">
  <metadata id="metadata8">
    <rdf:RDF>
      <cc:Work rdf:about="">
        <dc:format>image/svg+xml</dc:format>
        <dc:type rdf:resource="http://purl.org/dc/dcmitype/StillImage" />
        <dc:title></dc:title>
      </cc:Work>
    </rdf:RDF>
  </metadata>
  <defs id="defs6">
    <pattern width="1" height="1" id="古植物化石" patternContentUnits="objectBoundingBox">
      <path style="fill:#000000" d="m 0.61073747,0.91247339 c -0.0339148,-0.0557476 -0.0672992,-0.17201703 -0.0897444,-0.31255618 -0.006216,-0.0389217 -0.0127731,-0.0473359 -0.0290689,-0.0373024 -0.0846441,0.0521162 -0.13807195,0.0122736 -0.13807195,-0.10296387 0,-0.14842752 0.10005581,-0.31356404 0.20753142,-0.34251898 0.0547994,-0.0147634 0.0790492,0.007927 0.0919057,0.0859966 0.0175243,0.10641363 -0.007028,0.1929276 -0.0713123,0.25128079 -0.030613,0.0277885 -0.0555943,0.0593212 -0.0555138,0.0700727 5.9733e-4,0.0797791 0.0570988,0.28809106 0.0949953,0.35022855 0.0100415,0.0164647 0.0161604,0.0389679 0.0135981,0.0500074 -0.002902,0.0125002 -0.0120751,0.007881 -0.0243192,-0.0122444 z M 0.47210055,0.53700413 c 0.039328,-0.0344396 0.0458519,-0.0627906 0.0732948,-0.3185164 l 0.008357,-0.0778704 -0.0475945,0.0402059 c -0.12326102,0.10412548 -0.17498824,0.30248275 -0.0981062,0.37620435 0.018957,0.0181777 0.0212407,0.0174637 0.0640488,-0.0200235 z M 0.61963269,0.35571057 c 0.0326763,-0.0907443 0.0173372,-0.20972492 -0.0270381,-0.20972492 -0.0135516,0 -0.0539587,0.20436106 -0.0539587,0.27289888 0,0.0426524 0.0596397,-0.003864 0.0809968,-0.063174 z" id="path27414" inkscape:connector-curvature="0" />
    </pattern>
  </defs>
  <sodipodi:namedview pagecolor="#ffffff" bordercolor="#666666" borderopacity="1" objecttolerance="10" gridtolerance="10" guidetolerance="10" inkscape:pageopacity="0" inkscape:pageshadow="2" inkscape:window-width="1600" inkscape:window-height="838" id="namedview4" showgrid="false" inkscape:zoom="139.68698" inkscape:cx="-0.44480363" inkscape:cy="-0.51286663" inkscape:window-x="-8" inkscape:window-y="-8" inkscape:window-maximized="1" inkscape:current-layer="svg2" />
  <path style="fill:#000000" d="m 0.61073747,0.91247339 c -0.0339148,-0.0557476 -0.0672992,-0.17201703 -0.0897444,-0.31255618 -0.006216,-0.0389217 -0.0127731,-0.0473359 -0.0290689,-0.0373024 -0.0846441,0.0521162 -0.13807195,0.0122736 -0.13807195,-0.10296387 0,-0.14842752 0.10005581,-0.31356404 0.20753142,-0.34251898 0.0547994,-0.0147634 0.0790492,0.007927 0.0919057,0.0859966 0.0175243,0.10641363 -0.007028,0.1929276 -0.0713123,0.25128079 -0.030613,0.0277885 -0.0555943,0.0593212 -0.0555138,0.0700727 5.9733e-4,0.0797791 0.0570988,0.28809106 0.0949953,0.35022855 0.0100415,0.0164647 0.0161604,0.0389679 0.0135981,0.0500074 -0.002902,0.0125002 -0.0120751,0.007881 -0.0243192,-0.0122444 z M 0.47210055,0.53700413 c 0.039328,-0.0344396 0.0458519,-0.0627906 0.0732948,-0.3185164 l 0.008357,-0.0778704 -0.0475945,0.0402059 c -0.12326102,0.10412548 -0.17498824,0.30248275 -0.0981062,0.37620435 0.018957,0.0181777 0.0212407,0.0174637 0.0640488,-0.0200235 z M 0.61963269,0.35571057 c 0.0326763,-0.0907443 0.0173372,-0.20972492 -0.0270381,-0.20972492 -0.0135516,0 -0.0539587,0.20436106 -0.0539587,0.27289888 0,0.0426524 0.0596397,-0.003864 0.0809968,-0.063174 z" id="path27414" inkscape:connector-curvature="0" />
</svg>