<?xml version="1.0" encoding="utf-8" standalone="no"?>
<svg xmlns:dc="http://purl.org/dc/elements/1.1/" xmlns:cc="http://creativecommons.org/ns#" xmlns:rdf="http://www.w3.org/1999/02/22-rdf-syntax-ns#" xmlns:svg="http://www.w3.org/2000/svg" xmlns="http://www.w3.org/2000/svg" xmlns:sodipodi="http://sodipodi.sourceforge.net/DTD/sodipodi-0.dtd" xmlns:inkscape="http://www.inkscape.org/namespaces/inkscape" height="1" version="1.1" width="1" id="svg2" inkscape:version="0.91 r13725" sodipodi:docname="恐龙.svg">
  <metadata id="metadata8">
    <rdf:RDF>
      <cc:Work rdf:about="">
        <dc:format>image/svg+xml</dc:format>
        <dc:type rdf:resource="http://purl.org/dc/dcmitype/StillImage" />
        <dc:title></dc:title>
      </cc:Work>
    </rdf:RDF>
  </metadata>
  <defs id="defs6">
    <pattern width="1" height="1" id="恐龙" patternContentUnits="objectBoundingBox">
      <path style="fill:#000000" d="m 0.57178506,0.85004039 c 0,-0.005551 -0.002835,-0.006783 -0.0105021,-0.004554 -0.005776,0.001676 -0.0137265,9.6224e-4 -0.0176665,-0.001591 -0.006055,-0.003922 -0.003762,-0.007937 0.0148274,-0.0259474 0.0194422,-0.0188365 0.0219924,-0.0235419 0.0219924,-0.0405781 0,-0.0105988 -0.004974,-0.0347982 -0.0110521,-0.053776 -0.008624,-0.0269248 -0.0165576,-0.0408092 -0.0361109,-0.0631995 l -0.0250584,-0.0286945 -0.002854,0.039135 c -0.002303,0.0315778 -0.005451,0.0439685 -0.0163026,0.0641645 -0.009476,0.0176359 -0.0141152,0.0335205 -0.0157068,0.0537742 -0.00258,0.0328106 -0.006944,0.0386824 -0.0351926,0.0473147 -0.0275091,0.008406 -0.0353559,0.008172 -0.0323239,-9.7142e-4 0.001929,-0.005818 -0.001014,-0.007509 -0.013113,-0.007509 -0.0266171,0 -0.0188856,-0.014832 0.0125161,-0.0240075 0.0262954,-0.007684 0.0345497,-0.0182061 0.0410988,-0.0523899 0.00937,-0.0489108 0.009907,-0.0808417 0.002194,-0.1304117 l -0.007521,-0.0483384 -0.0157232,-0.005055 c -0.008648,-0.002781 -0.02059,-0.005089 -0.0265382,-0.00513 -0.005948,-4.537e-5 -0.021228,-0.005687 -0.0339555,-0.0125433 -0.0288843,-0.0155599 -0.0324523,-0.0155534 -0.0298748,4.536e-5 0.002541,0.0153819 4.169e-4,0.015728 -0.009509,0.001549 -0.007417,-0.0105988 -0.007339,-0.0113857 0.002342,-0.0234648 0.010826,-0.0135106 0.0178566,-0.0557377 0.013005,-0.0781103 -0.002267,-0.0104504 -0.005308,-0.0126065 -0.0177924,-0.0126065 -0.0203436,0 -0.0190031,-0.00706 0.002773,-0.0146088 0.009808,-0.0034 0.0225498,-0.0116405 0.0283153,-0.0183128 0.0126198,-0.0146039 0.0144154,-0.0149404 0.0144154,-0.002694 0,0.005191 -0.00499,0.0132211 -0.0110899,0.0178454 -0.0102475,0.00777 -0.0108866,0.010386 -0.008402,0.0343654 0.00148,0.0142755 0.003202,0.0371781 0.003831,0.050894 l 0.001139,0.0249378 0.0299702,0.0111021 c 0.0164837,0.006108 0.0411636,0.0112159 0.0548444,0.0113543 0.0229881,2.3239e-4 0.0248709,-6.0008e-4 0.0248319,-0.0110105 -2.514e-5,-0.006195 -0.004889,-0.0233132 -0.010815,-0.038041 -0.007293,-0.0181291 -0.010772,-0.0355099 -0.010772,-0.0538133 0,-0.0148692 -0.00146,-0.0271069 -0.003245,-0.0271945 -0.006771,-3.3055e-4 -0.0172533,-0.0128574 -0.0204179,-0.0243951 -0.0027,-0.009841 -0.002034,-0.0114144 0.003697,-0.008741 0.003844,0.001793 0.009822,0.004589 0.0132867,0.006215 0.00512,0.002402 0.005607,1.7007e-4 0.002607,-0.0119399 -0.00203,-0.008193 -0.002143,-0.0224731 -2.5007e-4,-0.0317379 l 0.003438,-0.0168448 4.4451e-4,0.0159432 c 2.5007e-4,0.008769 0.00255,0.0222847 0.005124,0.0300354 0.002575,0.00775 0.004712,0.0309868 0.004747,0.051636 6.613e-5,0.0376626 0.0114934,0.0920269 0.0236445,0.11249442 0.003224,0.005429 0.00586,0.0170842 0.00586,0.0258969 0,0.0222672 0.0177956,0.0452758 0.0403308,0.0521447 0.0265344,0.008088 0.0385127,0.0182757 0.0352927,0.0300159 -0.00173,0.006317 0.003361,0.0225212 0.0144671,0.0460259 0.009427,0.0199524 0.0192939,0.0482146 0.0219255,0.0628045 0.005298,0.0293742 0.006236,0.0494047 0.002086,0.0446038 -0.003586,-0.004148 -0.0362349,0.0152977 -0.0362349,0.0215794 0,0.006395 0.007382,0.006327 0.010815,-1.0337e-4 0.004174,-0.007814 0.0151408,-0.005874 0.0151408,0.00268 0,0.006229 0.001702,0.006632 0.00899,0.002117 0.004944,-0.003059 0.0119782,-0.00424 0.0156317,-0.00262 0.005671,0.002519 0.006379,-0.001998 0.004836,-0.0309012 -0.00132,-0.024685 -0.006281,-0.0460479 -0.0183291,-0.0789028 C 0.5868064,0.69519594 0.5768139,0.66163791 0.5736902,0.64540154 0.5691952,0.62204014 0.5641552,0.6113349 0.5495307,0.59409127 0.5375175,0.57992733 0.5272782,0.57230142 0.5202712,0.57230142 c -0.008384,0 -0.009626,-0.001334 -0.005587,-0.006008 0.002854,-0.003305 0.005192,-0.008953 0.005192,-0.0125581 0,-0.003604 0.006106,-0.016105 0.0135696,-0.0277826 0.0108954,-0.0170452 0.0130807,-0.018764 0.0110885,-0.008717 l -0.002483,0.0125137 0.007297,-0.0119047 c 0.004014,-0.006547 0.0173691,-0.0245932 0.0296797,-0.0401015 0.0150214,-0.0189232 0.0258465,-0.0388808 0.0329143,-0.0606809 0.0104745,-0.0323123 0.0105473,-0.0323978 0.0136495,-0.0162144 0.001716,0.008948 0.004532,0.0162691 0.00626,0.0162691 0.001729,0 0.009708,-0.005604 0.0177318,-0.0124562 0.008025,-0.006851 0.0153301,-0.0116 0.0162345,-0.0105518 0.004912,0.005683 -0.0132334,0.0393526 -0.0252771,0.0469002 -0.0167115,0.0104725 -0.0438349,0.0366503 -0.0411705,0.0397333 0.001056,0.001221 0.0138891,-0.001664 0.0285197,-0.006415 0.0214762,-0.006974 0.0371737,-0.008093 0.0814997,-0.005822 l 0.0548998,0.002816 0.0389335,-0.0249491 0.0389335,-0.0249491 -0.0216298,0.003729 c -0.0263898,0.004549 -0.0346392,0.004548 -0.0539428,-1.815e-5 -0.0234102,-0.005533 -0.0211626,-0.008023 0.00724,-0.008023 0.049695,0 0.12898742,-0.0502084 0.15006527,-0.0950223 0.0161193,-0.0342718 0.0124601,-0.0590504 -0.0130836,-0.0886103 -0.0102707,-0.011885 -0.0204763,-0.0216081 -0.02268,-0.0216081 -0.002205,0 0.002412,0.007428 0.0102553,0.0165039 0.0194762,0.0225375 0.0255663,0.0490117 0.0159351,0.0692703 -0.0101484,0.0213471 -0.029024,0.0443784 -0.0363696,0.0443784 -0.003387,0 -0.0105517,0.005405 -0.0159159,0.0120144 -0.009059,0.0111569 -0.0159785,0.0137433 -0.0566437,0.0211587 -0.0304382,0.005553 -0.0741798,0.004503 -0.0787636,-0.001886 -0.002468,-0.003442 -0.0101385,-0.006258 -0.0170449,-0.006258 -0.0105307,0 -0.0129812,-0.002456 -0.0151896,-0.0152349 -0.00302,-0.0174776 -0.02294,-0.0330135 -0.0307464,-0.0239802 -0.003252,0.003763 -0.006637,7.7121e-4 -0.0115383,-0.0101959 -0.007496,-0.0167762 -0.0258727,-0.0256076 -0.033916,-0.0163 -0.006995,0.008093 -0.0104789,0.007001 -0.0129826,-0.004077 -0.00121,-0.005344 -0.009709,-0.0134247 -0.01889,-0.0179555 -0.0149317,-0.00737 -0.0179113,-0.00745 -0.0282245,-7.7121e-4 -0.010977,0.007108 -0.011656,0.006888 -0.0141418,-0.00457 -0.0022,-0.0101389 -0.005271,-0.0120392 -0.019472,-0.0120392 -0.009272,0 -0.0176329,0.002681 -0.0185768,0.005955 -9.4357e-4,0.003277 -0.0100404,0.006452 -0.0202144,0.007057 -0.0121672,7.2361e-4 -0.0219859,0.004893 -0.0286868,0.0121765 -0.007215,0.007845 -0.0132545,0.0101843 -0.0206995,0.008023 -0.006937,-0.002015 -0.0173917,0.00118 -0.03075,0.009399 -0.0111306,0.006851 -0.0257132,0.0124523 -0.0324043,0.0124523 -0.006691,0 -0.0169239,0.004329 -0.0227393,0.009625 -0.005816,0.005294 -0.0172715,0.0104979 -0.0254576,0.0115687 -0.014336,0.001872 -0.0149317,0.002791 -0.0161881,0.0250175 -7.2246e-4,0.0126902 -0.004124,0.0257821 -0.007569,0.0290917 -0.00528,0.005073 -0.006265,0.003082 -0.006265,-0.0126522 0,-0.0194819 7.4995e-4,-0.01915 -0.0205481,-0.009074 -0.003054,0.001446 -0.005406,-0.001092 -0.005406,-0.005824 0,-0.0063 -0.002312,-0.007532 -0.009307,-0.004965 -0.007429,0.002729 -0.008738,0.001787 -0.006489,-0.004669 0.001549,-0.004448 0.004009,-0.0114902 0.005462,-0.0156521 0.001903,-0.005448 6.9437e-4,-0.0067 -0.004326,-0.004469 -0.008604,0.003821 -0.008658,0.001368 -4.8614e-4,-0.0212743 0.003568,-0.009883 0.006489,-0.0223793 0.006489,-0.027767 0,-0.0128117 -0.0335029,-0.0513959 -0.0483786,-0.055716 -0.0102982,-0.00299 -0.0117624,-0.001821 -0.0129785,0.0103638 -8.7526e-4,0.008841 -0.004345,0.0143887 -0.009714,0.0155695 -0.007815,0.001718 -0.007883,0.001298 -0.001083,-0.006571 0.009001,-0.0104177 0.009305,-0.0146752 7.7773e-4,-0.0108877 -0.003568,0.001584 -0.006488,0.001262 -0.006485,-7.1632e-4 1.93e-6,-0.001978 -0.0141115,-0.003923 -0.0313632,-0.004323 -0.0172515,-3.9753e-4 -0.0386943,-0.001413 -0.0476506,-0.002253 -0.0108282,-0.001016 -0.0186947,0.001262 -0.0234792,0.006801 -0.00671,0.007764 -0.006632,0.008531 0.001139,0.011353 0.004587,0.001664 0.0166639,0.00738 0.0268394,0.012698 0.010177,0.00532 0.0249644,0.009673 0.0328643,0.009673 0.008154,0 0.0186755,0.004329 0.0243388,0.0100122 0.005486,0.005507 0.0116237,0.0100122 0.0136397,0.0100122 0.002016,0 0.003664,0.002253 0.003664,0.005006 0,0.002753 -0.003016,0.005006 -0.006702,0.005006 -0.003687,0 -0.0123438,0.003375 -0.0192365,0.007499 -0.006895,0.004126 -0.0271886,0.0100228 -0.0451011,0.0131046 -0.0179126,0.003083 -0.0345559,0.008376 -0.0369852,0.0117635 -0.007237,0.0100914 0.009031,0.0225005 0.0362066,0.0276187 0.0198483,0.003739 0.0289719,0.008997 0.0476707,0.027484 0.0205412,0.0203073 0.0243898,0.0223042 0.0344517,0.0178774 0.00623,-0.002741 0.0113281,-0.007293 0.0113281,-0.0101125 0,-0.002822 0.001946,-0.00513 0.004326,-0.00513 0.006634,0 0.005147,0.0106773 -0.002926,0.0209991 -0.0122402,0.015652 -6.2512e-4,0.0215071 0.0132109,0.006662 0.0141207,-0.0151442 0.0175379,-0.016024 0.0114976,-0.002961 -0.005621,0.0121556 -0.005814,0.0338234 -3.3343e-4,0.0377412 0.002278,0.001629 0.007072,-0.003597 0.0106541,-0.0116132 0.003582,-0.008016 0.009633,-0.0159594 0.013445,-0.0176527 0.006818,-0.003028 0.006633,0.001553 -0.001014,0.0251364 -0.003753,0.0115818 0.00831,0.0124993 0.0185127,0.001411 l 0.0104944,-0.0114092 0,0.0132922 c 0,0.0178561 0.0161773,0.0228533 0.0329106,0.0101674 0.0119053,-0.009029 0.0120342,-0.009015 0.008135,8.2618e-4 -0.002178,0.005498 -0.004031,0.0205081 -0.004118,0.0333536 -8.696e-5,0.0128457 -0.001591,0.0250187 -0.003346,0.027051 -0.001755,0.002031 -0.001992,0.0123595 -5.2795e-4,0.0229488 0.001764,0.0127725 0.001014,0.0192532 -0.002219,0.0192532 -0.002693,0 -0.004879,-0.007854 -0.004879,-0.0175205 0,-0.0223306 -0.0114949,-0.023937 -0.0179502,-0.002509 -0.002487,0.008258 -0.00616,0.0138404 -0.008161,0.0124091 -0.002002,-0.001433 -0.005646,0.001386 -0.008099,0.006265 -0.006663,0.0132437 -0.005627,8.27e-5 0.001558,-0.0198263 0.003454,-0.00957 0.0113618,-0.0212505 0.0175687,-0.0259568 0.014065,-0.0106641 0.0129897,-0.0279275 -0.002265,-0.0363594 -0.005971,-0.003301 -0.0214229,-0.00656 -0.0343352,-0.007241 -0.0147976,-7.8218e-4 -0.0260988,-0.004274 -0.030568,-0.009445 -0.003901,-0.004512 -0.0103489,-0.009652 -0.0143307,-0.011421 -0.003981,-0.001768 -0.00724,-0.005538 -0.00724,-0.008378 0,-0.00284 -0.002712,-0.005163 -0.006027,-0.005163 -0.003314,0 -0.007146,-0.003378 -0.008516,-0.007509 -0.001374,-0.00413 -0.004725,-0.007509 -0.007454,-0.007509 -0.002732,0 -0.0165296,-0.0123896 -0.0306639,-0.0275324 -0.0141343,-0.0151426 -0.0289946,-0.0277557 -0.0330228,-0.028029 -0.0250011,-0.001696 -0.0328361,-0.004041 -0.0430869,-0.0128953 -0.008325,-0.007193 -0.0117442,-0.0150423 -0.0124994,-0.0286878 -8.7526e-4,-0.0159012 -7.654e-5,-0.0178621 0.005225,-0.0127699 0.005032,0.004833 0.006265,0.00442 0.006265,-0.002105 0,-0.004466 0.001946,-0.008121 0.004326,-0.008121 0.00238,0 0.004356,0.002816 0.004393,0.006258 4.169e-5,0.004172 0.001464,0.003753 0.004259,-0.001251 0.002794,-0.005006 0.004216,-0.005422 0.004259,-0.001251 3.348e-5,0.003442 0.002221,0.006258 0.004856,0.006258 0.002634,0 0.003779,-0.003038 0.00255,-0.006754 -0.001772,-0.005347 0.001461,-0.005972 0.0155195,-0.002997 0.0181298,0.003836 0.0377061,-0.00123 0.0377061,-0.00976 0,-0.005344 -0.0296631,-0.0179139 -0.0330438,-0.0140021 -0.001194,0.00139 0.003774,0.004038 0.0110563,0.00589 0.0192696,0.004898 0.0212992,0.0132033 0.002876,0.0117674 -0.008522,-6.6487e-4 -0.0154944,-0.002737 -0.0154944,-0.004606 0,-0.001868 -0.004381,-0.004788 -0.009734,-0.006486 -0.00767,-0.002433 -0.008448,-0.004043 -0.003671,-0.007604 0.004612,-0.003438 0.001808,-0.00703 -0.0117232,-0.015018 -0.0195254,-0.0115281 -0.0267823,-0.0130549 -0.0267823,-0.005637 0,0.002674 0.005848,0.006618 0.0129981,0.00876 0.007149,0.002142 0.0129897,0.005586 0.0129785,0.007653 -1.2182e-4,0.0223228 9.726e-5,0.021876 -0.006097,0.0124287 -0.003191,-0.004866 -0.008482,-0.007682 -0.0117582,-0.006255 -0.006298,0.00274 -0.01677195,-0.01787 -0.01677195,-0.0330062 0,-0.009982 0.02328569,-0.034172 0.03385799,-0.0351744 0.0166946,-0.001583 0.0237559,-1.1374e-4 0.0398332,0.008272 0.0159566,0.008326 0.0186567,0.008362 0.0462497,6.1438e-4 0.0161172,-0.004525 0.0331973,-0.008218 0.0379558,-0.00821 0.009751,1.813e-5 0.0522259,0.0448607 0.055537,0.058629 0.001181,0.004928 0.003427,0.0219109 0.004983,0.0377422 0.002236,0.0227602 0.004404,0.0287837 0.0103577,0.0287837 0.006622,0 0.0287508,-0.0113335 0.0480865,-0.0246286 0.003568,-0.002455 0.0327689,-0.0138243 0.0648889,-0.0252658 0.03212,-0.0114406 0.0728263,-0.0264998 0.0904582,-0.0334607 0.0180342,-0.007119 0.036958,-0.0115203 0.0432594,-0.0100629 0.0342383,0.007931 0.0711458,0.0189332 0.0782321,0.0233219 0.004456,0.002759 0.012058,0.005019 0.0168899,0.005019 0.004832,0 0.0151801,0.006444 0.0229957,0.0143241 0.007816,0.007878 0.0210233,0.0183626 0.0293507,0.0232996 0.008327,0.004937 0.0219541,0.0151684 0.0302817,0.0227376 0.0246355,0.0223914 0.0833851,0.0320487 0.10743122,0.0176595 0.006508,-0.003895 0.0188106,-0.008596 0.0273413,-0.0104462 0.0108514,-0.002356 0.0224352,-0.0114798 0.0385676,-0.0303841 0.0194405,-0.022779 0.0230573,-0.0299027 0.0230573,-0.0454122 0,-0.0153948 -0.003052,-0.0215313 -0.0187253,-0.0376243 -0.0102982,-0.0105767 -0.0223682,-0.019229 -0.0268209,-0.019229 -0.005212,0 -0.008094,-0.003567 -0.008094,-0.0100122 0,-0.0117949 0.008204,-0.0126562 0.0314205,-0.003301 0.0469315,0.0189133 0.0738102,0.0930567 0.0521834,0.14394715 -0.007799,0.0183519 -0.0590766,0.0796117 -0.0666392,0.0796117 -0.002526,0 -0.0133651,0.006986 -0.0240876,0.0155226 -0.0107224,0.008536 -0.0363699,0.0246724 -0.056993,0.0358555 -0.0348659,0.0189068 -0.04023,0.0203562 -0.0764536,0.0206573 -0.0214262,1.7605e-4 -0.0487982,-4.7564e-4 -0.0608266,-0.001447 -0.0233951,-0.001894 -0.0427916,0.006448 -0.0624861,0.0268689 -0.005948,0.006169 -0.0200542,0.0154837 -0.0313469,0.0207033 -0.0112917,0.005219 -0.0205393,0.0121295 -0.0205481,0.0153559 -8.33e-6,0.003228 0.008729,0.0145181 0.0194196,0.0250922 0.0160746,0.0158995 0.0206026,0.0244077 0.0261821,0.0491967 0.003766,0.0167229 0.0115145,0.0357312 0.017533,0.0430001 0.008888,0.0107348 0.011195,0.0195468 0.0131018,0.0500588 0.002214,0.0353988 0.005999,0.0544324 0.0154442,0.0776474 0.006076,0.0149371 -0.006314,0.0419238 -0.0193489,0.0421392 -0.005291,9.305e-5 -0.0134016,0.003467 -0.0180197,0.007509 -0.0108536,0.0095 -0.0197212,0.009385 -0.0197212,-2.539e-4 z m -0.11582937,-0.031298 c 0.00419,-0.004024 0.00729,-0.0186381 0.008662,-0.0408233 0.001542,-0.0249126 0.004693,-0.0383171 0.0112973,-0.0480326 0.0069,-0.0101495 0.008115,-0.0157346 0.004929,-0.0226253 -0.005425,-0.0117308 0.001739,-0.034834 0.0108029,-0.034834 0.004692,0 0.006597,-0.005213 0.006597,-0.0180561 0,-0.0135251 -0.001538,-0.017373 -0.006131,-0.0153333 -0.006478,0.002876 -0.0111726,-0.006282 -0.0111726,-0.021789 0,-0.0124144 -0.007542,-0.0171942 -0.0153303,-0.009716 -0.004673,0.004489 -0.006221,0.017199 -0.005996,0.0492383 1.6672e-4,0.0237536 0.001814,0.0476624 0.003659,0.0531305 0.002291,0.006784 -5.554e-4,0.0194995 -0.008952,0.040047 -0.006769,0.0165577 -0.0123088,0.0362999 -0.0123116,0.0438711 -3.05e-6,0.0120222 -0.001683,0.0137661 -0.0132656,0.0137661 -0.0165033,0 -0.0333592,0.00952 -0.0260773,0.0147268 0.008152,0.005831 0.046151,0.003284 0.0532884,-0.00357 z m 0.0484279,-0.29465756 c 0.0128537,-0.0384222 0.0255245,-0.10105489 0.0273347,-0.13511671 0.001851,-0.0348494 0.003197,-0.040361 0.009389,-0.0384875 0.004864,0.001471 0.009554,-0.003234 0.0143499,-0.0143903 l 0.007123,-0.0165773 1.3894e-4,0.015018 c 7.64e-5,0.008259 -0.002719,0.0193903 -0.006214,0.0247347 -0.003493,0.005344 -0.006352,0.0191402 -0.006352,0.0306575 0,0.0115177 -0.002921,0.0305172 -0.006489,0.0422225 -0.003568,0.0117047 -0.006447,0.023815 -0.006399,0.0269102 1.2519e-4,0.007769 0.0321196,-0.0509598 0.0378411,-0.0694602 l 0.004644,-0.015018 3.473e-4,0.0162691 c 4.041e-4,0.0190383 0.006557,0.0207692 0.0178089,0.005006 l 0.00804,-0.0112642 -0.002618,0.0125137 c -0.001441,0.006883 -0.008152,0.0199142 -0.0149166,0.0289579 -0.006766,0.009043 -0.0122976,0.0186174 -0.0122976,0.0212749 0,0.008783 -0.008644,0.005014 -0.009007,-0.003929 -1.9449e-4,-0.004818 -0.005204,0.00363 -0.011132,0.0187721 -0.0107897,0.0275656 -0.0310437,0.0563494 -0.0464881,0.0660696 -0.007032,0.004426 -0.007773,0.003821 -0.005101,-0.004164 z M 0.17991725,0.35994901 c -0.004832,-0.003916 -0.0154846,-0.008062 -0.0236736,-0.00921 -0.009057,-0.001271 -0.004135,-0.002405 0.0125609,-0.00289 0.0198116,-5.7852e-4 0.0308761,-0.003624 0.0397591,-0.010944 0.0146977,-0.0121112 0.0198516,-0.0276096 0.0125609,-0.037775 -0.006466,-0.009016 -0.003487,-0.0135025 0.006131,-0.009232 0.008889,0.003949 0.008936,0.0116092 2.2227e-4,0.0367976 -0.004347,0.0125712 -0.0124013,0.0236674 -0.0218768,0.0301365 -0.0178243,0.01217 -0.0149518,0.0118209 -0.0256878,0.003119 z" id="path4200" inkscape:connector-curvature="0" />
    </pattern>
  </defs>
  <sodipodi:namedview pagecolor="#ffffff" bordercolor="#666666" borderopacity="1" objecttolerance="10" gridtolerance="10" guidetolerance="10" inkscape:pageopacity="0" inkscape:pageshadow="2" inkscape:window-width="1680" inkscape:window-height="988" id="namedview4" showgrid="false" inkscape:zoom="256" inkscape:cx="1.1992188" inkscape:cy="-0.095044987" inkscape:window-x="-8" inkscape:window-y="-8" inkscape:window-maximized="1" inkscape:current-layer="svg2" />
  <path style="fill:#000000" d="m 0.57178506,0.85004039 c 0,-0.005551 -0.002835,-0.006783 -0.0105021,-0.004554 -0.005776,0.001676 -0.0137265,9.6224e-4 -0.0176665,-0.001591 -0.006055,-0.003922 -0.003762,-0.007937 0.0148274,-0.0259474 0.0194422,-0.0188365 0.0219924,-0.0235419 0.0219924,-0.0405781 0,-0.0105988 -0.004974,-0.0347982 -0.0110521,-0.053776 -0.008624,-0.0269248 -0.0165576,-0.0408092 -0.0361109,-0.0631995 l -0.0250584,-0.0286945 -0.002854,0.039135 c -0.002303,0.0315778 -0.005451,0.0439685 -0.0163026,0.0641645 -0.009476,0.0176359 -0.0141152,0.0335205 -0.0157068,0.0537742 -0.00258,0.0328106 -0.006944,0.0386824 -0.0351926,0.0473147 -0.0275091,0.008406 -0.0353559,0.008172 -0.0323239,-9.7142e-4 0.001929,-0.005818 -0.001014,-0.007509 -0.013113,-0.007509 -0.0266171,0 -0.0188856,-0.014832 0.0125161,-0.0240075 0.0262954,-0.007684 0.0345497,-0.0182061 0.0410988,-0.0523899 0.00937,-0.0489108 0.009907,-0.0808417 0.002194,-0.1304117 l -0.007521,-0.0483384 -0.0157232,-0.005055 c -0.008648,-0.002781 -0.02059,-0.005089 -0.0265382,-0.00513 -0.005948,-4.537e-5 -0.021228,-0.005687 -0.0339555,-0.0125433 -0.0288843,-0.0155599 -0.0324523,-0.0155534 -0.0298748,4.536e-5 0.002541,0.0153819 4.169e-4,0.015728 -0.009509,0.001549 -0.007417,-0.0105988 -0.007339,-0.0113857 0.002342,-0.0234648 0.010826,-0.0135106 0.0178566,-0.0557377 0.013005,-0.0781103 -0.002267,-0.0104504 -0.005308,-0.0126065 -0.0177924,-0.0126065 -0.0203436,0 -0.0190031,-0.00706 0.002773,-0.0146088 0.009808,-0.0034 0.0225498,-0.0116405 0.0283153,-0.0183128 0.0126198,-0.0146039 0.0144154,-0.0149404 0.0144154,-0.002694 0,0.005191 -0.00499,0.0132211 -0.0110899,0.0178454 -0.0102475,0.00777 -0.0108866,0.010386 -0.008402,0.0343654 0.00148,0.0142755 0.003202,0.0371781 0.003831,0.050894 l 0.001139,0.0249378 0.0299702,0.0111021 c 0.0164837,0.006108 0.0411636,0.0112159 0.0548444,0.0113543 0.0229881,2.3239e-4 0.0248709,-6.0008e-4 0.0248319,-0.0110105 -2.514e-5,-0.006195 -0.004889,-0.0233132 -0.010815,-0.038041 -0.007293,-0.0181291 -0.010772,-0.0355099 -0.010772,-0.0538133 0,-0.0148692 -0.00146,-0.0271069 -0.003245,-0.0271945 -0.006771,-3.3055e-4 -0.0172533,-0.0128574 -0.0204179,-0.0243951 -0.0027,-0.009841 -0.002034,-0.0114144 0.003697,-0.008741 0.003844,0.001793 0.009822,0.004589 0.0132867,0.006215 0.00512,0.002402 0.005607,1.7007e-4 0.002607,-0.0119399 -0.00203,-0.008193 -0.002143,-0.0224731 -2.5007e-4,-0.0317379 l 0.003438,-0.0168448 4.4451e-4,0.0159432 c 2.5007e-4,0.008769 0.00255,0.0222847 0.005124,0.0300354 0.002575,0.00775 0.004712,0.0309868 0.004747,0.051636 6.613e-5,0.0376626 0.0114934,0.0920269 0.0236445,0.11249442 0.003224,0.005429 0.00586,0.0170842 0.00586,0.0258969 0,0.0222672 0.0177956,0.0452758 0.0403308,0.0521447 0.0265344,0.008088 0.0385127,0.0182757 0.0352927,0.0300159 -0.00173,0.006317 0.003361,0.0225212 0.0144671,0.0460259 0.009427,0.0199524 0.0192939,0.0482146 0.0219255,0.0628045 0.005298,0.0293742 0.006236,0.0494047 0.002086,0.0446038 -0.003586,-0.004148 -0.0362349,0.0152977 -0.0362349,0.0215794 0,0.006395 0.007382,0.006327 0.010815,-1.0337e-4 0.004174,-0.007814 0.0151408,-0.005874 0.0151408,0.00268 0,0.006229 0.001702,0.006632 0.00899,0.002117 0.004944,-0.003059 0.0119782,-0.00424 0.0156317,-0.00262 0.005671,0.002519 0.006379,-0.001998 0.004836,-0.0309012 -0.00132,-0.024685 -0.006281,-0.0460479 -0.0183291,-0.0789028 C 0.5868064,0.69519594 0.5768139,0.66163791 0.5736902,0.64540154 0.5691952,0.62204014 0.5641552,0.6113349 0.5495307,0.59409127 0.5375175,0.57992733 0.5272782,0.57230142 0.5202712,0.57230142 c -0.008384,0 -0.009626,-0.001334 -0.005587,-0.006008 0.002854,-0.003305 0.005192,-0.008953 0.005192,-0.0125581 0,-0.003604 0.006106,-0.016105 0.0135696,-0.0277826 0.0108954,-0.0170452 0.0130807,-0.018764 0.0110885,-0.008717 l -0.002483,0.0125137 0.007297,-0.0119047 c 0.004014,-0.006547 0.0173691,-0.0245932 0.0296797,-0.0401015 0.0150214,-0.0189232 0.0258465,-0.0388808 0.0329143,-0.0606809 0.0104745,-0.0323123 0.0105473,-0.0323978 0.0136495,-0.0162144 0.001716,0.008948 0.004532,0.0162691 0.00626,0.0162691 0.001729,0 0.009708,-0.005604 0.0177318,-0.0124562 0.008025,-0.006851 0.0153301,-0.0116 0.0162345,-0.0105518 0.004912,0.005683 -0.0132334,0.0393526 -0.0252771,0.0469002 -0.0167115,0.0104725 -0.0438349,0.0366503 -0.0411705,0.0397333 0.001056,0.001221 0.0138891,-0.001664 0.0285197,-0.006415 0.0214762,-0.006974 0.0371737,-0.008093 0.0814997,-0.005822 l 0.0548998,0.002816 0.0389335,-0.0249491 0.0389335,-0.0249491 -0.0216298,0.003729 c -0.0263898,0.004549 -0.0346392,0.004548 -0.0539428,-1.815e-5 -0.0234102,-0.005533 -0.0211626,-0.008023 0.00724,-0.008023 0.049695,0 0.12898742,-0.0502084 0.15006527,-0.0950223 0.0161193,-0.0342718 0.0124601,-0.0590504 -0.0130836,-0.0886103 -0.0102707,-0.011885 -0.0204763,-0.0216081 -0.02268,-0.0216081 -0.002205,0 0.002412,0.007428 0.0102553,0.0165039 0.0194762,0.0225375 0.0255663,0.0490117 0.0159351,0.0692703 -0.0101484,0.0213471 -0.029024,0.0443784 -0.0363696,0.0443784 -0.003387,0 -0.0105517,0.005405 -0.0159159,0.0120144 -0.009059,0.0111569 -0.0159785,0.0137433 -0.0566437,0.0211587 -0.0304382,0.005553 -0.0741798,0.004503 -0.0787636,-0.001886 -0.002468,-0.003442 -0.0101385,-0.006258 -0.0170449,-0.006258 -0.0105307,0 -0.0129812,-0.002456 -0.0151896,-0.0152349 -0.00302,-0.0174776 -0.02294,-0.0330135 -0.0307464,-0.0239802 -0.003252,0.003763 -0.006637,7.7121e-4 -0.0115383,-0.0101959 -0.007496,-0.0167762 -0.0258727,-0.0256076 -0.033916,-0.0163 -0.006995,0.008093 -0.0104789,0.007001 -0.0129826,-0.004077 -0.00121,-0.005344 -0.009709,-0.0134247 -0.01889,-0.0179555 -0.0149317,-0.00737 -0.0179113,-0.00745 -0.0282245,-7.7121e-4 -0.010977,0.007108 -0.011656,0.006888 -0.0141418,-0.00457 -0.0022,-0.0101389 -0.005271,-0.0120392 -0.019472,-0.0120392 -0.009272,0 -0.0176329,0.002681 -0.0185768,0.005955 -9.4357e-4,0.003277 -0.0100404,0.006452 -0.0202144,0.007057 -0.0121672,7.2361e-4 -0.0219859,0.004893 -0.0286868,0.0121765 -0.007215,0.007845 -0.0132545,0.0101843 -0.0206995,0.008023 -0.006937,-0.002015 -0.0173917,0.00118 -0.03075,0.009399 -0.0111306,0.006851 -0.0257132,0.0124523 -0.0324043,0.0124523 -0.006691,0 -0.0169239,0.004329 -0.0227393,0.009625 -0.005816,0.005294 -0.0172715,0.0104979 -0.0254576,0.0115687 -0.014336,0.001872 -0.0149317,0.002791 -0.0161881,0.0250175 -7.2246e-4,0.0126902 -0.004124,0.0257821 -0.007569,0.0290917 -0.00528,0.005073 -0.006265,0.003082 -0.006265,-0.0126522 0,-0.0194819 7.4995e-4,-0.01915 -0.0205481,-0.009074 -0.003054,0.001446 -0.005406,-0.001092 -0.005406,-0.005824 0,-0.0063 -0.002312,-0.007532 -0.009307,-0.004965 -0.007429,0.002729 -0.008738,0.001787 -0.006489,-0.004669 0.001549,-0.004448 0.004009,-0.0114902 0.005462,-0.0156521 0.001903,-0.005448 6.9437e-4,-0.0067 -0.004326,-0.004469 -0.008604,0.003821 -0.008658,0.001368 -4.8614e-4,-0.0212743 0.003568,-0.009883 0.006489,-0.0223793 0.006489,-0.027767 0,-0.0128117 -0.0335029,-0.0513959 -0.0483786,-0.055716 -0.0102982,-0.00299 -0.0117624,-0.001821 -0.0129785,0.0103638 -8.7526e-4,0.008841 -0.004345,0.0143887 -0.009714,0.0155695 -0.007815,0.001718 -0.007883,0.001298 -0.001083,-0.006571 0.009001,-0.0104177 0.009305,-0.0146752 7.7773e-4,-0.0108877 -0.003568,0.001584 -0.006488,0.001262 -0.006485,-7.1632e-4 1.93e-6,-0.001978 -0.0141115,-0.003923 -0.0313632,-0.004323 -0.0172515,-3.9753e-4 -0.0386943,-0.001413 -0.0476506,-0.002253 -0.0108282,-0.001016 -0.0186947,0.001262 -0.0234792,0.006801 -0.00671,0.007764 -0.006632,0.008531 0.001139,0.011353 0.004587,0.001664 0.0166639,0.00738 0.0268394,0.012698 0.010177,0.00532 0.0249644,0.009673 0.0328643,0.009673 0.008154,0 0.0186755,0.004329 0.0243388,0.0100122 0.005486,0.005507 0.0116237,0.0100122 0.0136397,0.0100122 0.002016,0 0.003664,0.002253 0.003664,0.005006 0,0.002753 -0.003016,0.005006 -0.006702,0.005006 -0.003687,0 -0.0123438,0.003375 -0.0192365,0.007499 -0.006895,0.004126 -0.0271886,0.0100228 -0.0451011,0.0131046 -0.0179126,0.003083 -0.0345559,0.008376 -0.0369852,0.0117635 -0.007237,0.0100914 0.009031,0.0225005 0.0362066,0.0276187 0.0198483,0.003739 0.0289719,0.008997 0.0476707,0.027484 0.0205412,0.0203073 0.0243898,0.0223042 0.0344517,0.0178774 0.00623,-0.002741 0.0113281,-0.007293 0.0113281,-0.0101125 0,-0.002822 0.001946,-0.00513 0.004326,-0.00513 0.006634,0 0.005147,0.0106773 -0.002926,0.0209991 -0.0122402,0.015652 -6.2512e-4,0.0215071 0.0132109,0.006662 0.0141207,-0.0151442 0.0175379,-0.016024 0.0114976,-0.002961 -0.005621,0.0121556 -0.005814,0.0338234 -3.3343e-4,0.0377412 0.002278,0.001629 0.007072,-0.003597 0.0106541,-0.0116132 0.003582,-0.008016 0.009633,-0.0159594 0.013445,-0.0176527 0.006818,-0.003028 0.006633,0.001553 -0.001014,0.0251364 -0.003753,0.0115818 0.00831,0.0124993 0.0185127,0.001411 l 0.0104944,-0.0114092 0,0.0132922 c 0,0.0178561 0.0161773,0.0228533 0.0329106,0.0101674 0.0119053,-0.009029 0.0120342,-0.009015 0.008135,8.2618e-4 -0.002178,0.005498 -0.004031,0.0205081 -0.004118,0.0333536 -8.696e-5,0.0128457 -0.001591,0.0250187 -0.003346,0.027051 -0.001755,0.002031 -0.001992,0.0123595 -5.2795e-4,0.0229488 0.001764,0.0127725 0.001014,0.0192532 -0.002219,0.0192532 -0.002693,0 -0.004879,-0.007854 -0.004879,-0.0175205 0,-0.0223306 -0.0114949,-0.023937 -0.0179502,-0.002509 -0.002487,0.008258 -0.00616,0.0138404 -0.008161,0.0124091 -0.002002,-0.001433 -0.005646,0.001386 -0.008099,0.006265 -0.006663,0.0132437 -0.005627,8.27e-5 0.001558,-0.0198263 0.003454,-0.00957 0.0113618,-0.0212505 0.0175687,-0.0259568 0.014065,-0.0106641 0.0129897,-0.0279275 -0.002265,-0.0363594 -0.005971,-0.003301 -0.0214229,-0.00656 -0.0343352,-0.007241 -0.0147976,-7.8218e-4 -0.0260988,-0.004274 -0.030568,-0.009445 -0.003901,-0.004512 -0.0103489,-0.009652 -0.0143307,-0.011421 -0.003981,-0.001768 -0.00724,-0.005538 -0.00724,-0.008378 0,-0.00284 -0.002712,-0.005163 -0.006027,-0.005163 -0.003314,0 -0.007146,-0.003378 -0.008516,-0.007509 -0.001374,-0.00413 -0.004725,-0.007509 -0.007454,-0.007509 -0.002732,0 -0.0165296,-0.0123896 -0.0306639,-0.0275324 -0.0141343,-0.0151426 -0.0289946,-0.0277557 -0.0330228,-0.028029 -0.0250011,-0.001696 -0.0328361,-0.004041 -0.0430869,-0.0128953 -0.008325,-0.007193 -0.0117442,-0.0150423 -0.0124994,-0.0286878 -8.7526e-4,-0.0159012 -7.654e-5,-0.0178621 0.005225,-0.0127699 0.005032,0.004833 0.006265,0.00442 0.006265,-0.002105 0,-0.004466 0.001946,-0.008121 0.004326,-0.008121 0.00238,0 0.004356,0.002816 0.004393,0.006258 4.169e-5,0.004172 0.001464,0.003753 0.004259,-0.001251 0.002794,-0.005006 0.004216,-0.005422 0.004259,-0.001251 3.348e-5,0.003442 0.002221,0.006258 0.004856,0.006258 0.002634,0 0.003779,-0.003038 0.00255,-0.006754 -0.001772,-0.005347 0.001461,-0.005972 0.0155195,-0.002997 0.0181298,0.003836 0.0377061,-0.00123 0.0377061,-0.00976 0,-0.005344 -0.0296631,-0.0179139 -0.0330438,-0.0140021 -0.001194,0.00139 0.003774,0.004038 0.0110563,0.00589 0.0192696,0.004898 0.0212992,0.0132033 0.002876,0.0117674 -0.008522,-6.6487e-4 -0.0154944,-0.002737 -0.0154944,-0.004606 0,-0.001868 -0.004381,-0.004788 -0.009734,-0.006486 -0.00767,-0.002433 -0.008448,-0.004043 -0.003671,-0.007604 0.004612,-0.003438 0.001808,-0.00703 -0.0117232,-0.015018 -0.0195254,-0.0115281 -0.0267823,-0.0130549 -0.0267823,-0.005637 0,0.002674 0.005848,0.006618 0.0129981,0.00876 0.007149,0.002142 0.0129897,0.005586 0.0129785,0.007653 -1.2182e-4,0.0223228 9.726e-5,0.021876 -0.006097,0.0124287 -0.003191,-0.004866 -0.008482,-0.007682 -0.0117582,-0.006255 -0.006298,0.00274 -0.01677195,-0.01787 -0.01677195,-0.0330062 0,-0.009982 0.02328569,-0.034172 0.03385799,-0.0351744 0.0166946,-0.001583 0.0237559,-1.1374e-4 0.0398332,0.008272 0.0159566,0.008326 0.0186567,0.008362 0.0462497,6.1438e-4 0.0161172,-0.004525 0.0331973,-0.008218 0.0379558,-0.00821 0.009751,1.813e-5 0.0522259,0.0448607 0.055537,0.058629 0.001181,0.004928 0.003427,0.0219109 0.004983,0.0377422 0.002236,0.0227602 0.004404,0.0287837 0.0103577,0.0287837 0.006622,0 0.0287508,-0.0113335 0.0480865,-0.0246286 0.003568,-0.002455 0.0327689,-0.0138243 0.0648889,-0.0252658 0.03212,-0.0114406 0.0728263,-0.0264998 0.0904582,-0.0334607 0.0180342,-0.007119 0.036958,-0.0115203 0.0432594,-0.0100629 0.0342383,0.007931 0.0711458,0.0189332 0.0782321,0.0233219 0.004456,0.002759 0.012058,0.005019 0.0168899,0.005019 0.004832,0 0.0151801,0.006444 0.0229957,0.0143241 0.007816,0.007878 0.0210233,0.0183626 0.0293507,0.0232996 0.008327,0.004937 0.0219541,0.0151684 0.0302817,0.0227376 0.0246355,0.0223914 0.0833851,0.0320487 0.10743122,0.0176595 0.006508,-0.003895 0.0188106,-0.008596 0.0273413,-0.0104462 0.0108514,-0.002356 0.0224352,-0.0114798 0.0385676,-0.0303841 0.0194405,-0.022779 0.0230573,-0.0299027 0.0230573,-0.0454122 0,-0.0153948 -0.003052,-0.0215313 -0.0187253,-0.0376243 -0.0102982,-0.0105767 -0.0223682,-0.019229 -0.0268209,-0.019229 -0.005212,0 -0.008094,-0.003567 -0.008094,-0.0100122 0,-0.0117949 0.008204,-0.0126562 0.0314205,-0.003301 0.0469315,0.0189133 0.0738102,0.0930567 0.0521834,0.14394715 -0.007799,0.0183519 -0.0590766,0.0796117 -0.0666392,0.0796117 -0.002526,0 -0.0133651,0.006986 -0.0240876,0.0155226 -0.0107224,0.008536 -0.0363699,0.0246724 -0.056993,0.0358555 -0.0348659,0.0189068 -0.04023,0.0203562 -0.0764536,0.0206573 -0.0214262,1.7605e-4 -0.0487982,-4.7564e-4 -0.0608266,-0.001447 -0.0233951,-0.001894 -0.0427916,0.006448 -0.0624861,0.0268689 -0.005948,0.006169 -0.0200542,0.0154837 -0.0313469,0.0207033 -0.0112917,0.005219 -0.0205393,0.0121295 -0.0205481,0.0153559 -8.33e-6,0.003228 0.008729,0.0145181 0.0194196,0.0250922 0.0160746,0.0158995 0.0206026,0.0244077 0.0261821,0.0491967 0.003766,0.0167229 0.0115145,0.0357312 0.017533,0.0430001 0.008888,0.0107348 0.011195,0.0195468 0.0131018,0.0500588 0.002214,0.0353988 0.005999,0.0544324 0.0154442,0.0776474 0.006076,0.0149371 -0.006314,0.0419238 -0.0193489,0.0421392 -0.005291,9.305e-5 -0.0134016,0.003467 -0.0180197,0.007509 -0.0108536,0.0095 -0.0197212,0.009385 -0.0197212,-2.539e-4 z m -0.11582937,-0.031298 c 0.00419,-0.004024 0.00729,-0.0186381 0.008662,-0.0408233 0.001542,-0.0249126 0.004693,-0.0383171 0.0112973,-0.0480326 0.0069,-0.0101495 0.008115,-0.0157346 0.004929,-0.0226253 -0.005425,-0.0117308 0.001739,-0.034834 0.0108029,-0.034834 0.004692,0 0.006597,-0.005213 0.006597,-0.0180561 0,-0.0135251 -0.001538,-0.017373 -0.006131,-0.0153333 -0.006478,0.002876 -0.0111726,-0.006282 -0.0111726,-0.021789 0,-0.0124144 -0.007542,-0.0171942 -0.0153303,-0.009716 -0.004673,0.004489 -0.006221,0.017199 -0.005996,0.0492383 1.6672e-4,0.0237536 0.001814,0.0476624 0.003659,0.0531305 0.002291,0.006784 -5.554e-4,0.0194995 -0.008952,0.040047 -0.006769,0.0165577 -0.0123088,0.0362999 -0.0123116,0.0438711 -3.05e-6,0.0120222 -0.001683,0.0137661 -0.0132656,0.0137661 -0.0165033,0 -0.0333592,0.00952 -0.0260773,0.0147268 0.008152,0.005831 0.046151,0.003284 0.0532884,-0.00357 z m 0.0484279,-0.29465756 c 0.0128537,-0.0384222 0.0255245,-0.10105489 0.0273347,-0.13511671 0.001851,-0.0348494 0.003197,-0.040361 0.009389,-0.0384875 0.004864,0.001471 0.009554,-0.003234 0.0143499,-0.0143903 l 0.007123,-0.0165773 1.3894e-4,0.015018 c 7.64e-5,0.008259 -0.002719,0.0193903 -0.006214,0.0247347 -0.003493,0.005344 -0.006352,0.0191402 -0.006352,0.0306575 0,0.0115177 -0.002921,0.0305172 -0.006489,0.0422225 -0.003568,0.0117047 -0.006447,0.023815 -0.006399,0.0269102 1.2519e-4,0.007769 0.0321196,-0.0509598 0.0378411,-0.0694602 l 0.004644,-0.015018 3.473e-4,0.0162691 c 4.041e-4,0.0190383 0.006557,0.0207692 0.0178089,0.005006 l 0.00804,-0.0112642 -0.002618,0.0125137 c -0.001441,0.006883 -0.008152,0.0199142 -0.0149166,0.0289579 -0.006766,0.009043 -0.0122976,0.0186174 -0.0122976,0.0212749 0,0.008783 -0.008644,0.005014 -0.009007,-0.003929 -1.9449e-4,-0.004818 -0.005204,0.00363 -0.011132,0.0187721 -0.0107897,0.0275656 -0.0310437,0.0563494 -0.0464881,0.0660696 -0.007032,0.004426 -0.007773,0.003821 -0.005101,-0.004164 z M 0.17991725,0.35994901 c -0.004832,-0.003916 -0.0154846,-0.008062 -0.0236736,-0.00921 -0.009057,-0.001271 -0.004135,-0.002405 0.0125609,-0.00289 0.0198116,-5.7852e-4 0.0308761,-0.003624 0.0397591,-0.010944 0.0146977,-0.0121112 0.0198516,-0.0276096 0.0125609,-0.037775 -0.006466,-0.009016 -0.003487,-0.0135025 0.006131,-0.009232 0.008889,0.003949 0.008936,0.0116092 2.2227e-4,0.0367976 -0.004347,0.0125712 -0.0124013,0.0236674 -0.0218768,0.0301365 -0.0178243,0.01217 -0.0149518,0.0118209 -0.0256878,0.003119 z" id="path4200" inkscape:connector-curvature="0" />
</svg>