<?xml version="1.0" encoding="utf-8" standalone="no"?>
<svg xmlns:dc="http://purl.org/dc/elements/1.1/" xmlns:cc="http://creativecommons.org/ns#" xmlns:rdf="http://www.w3.org/1999/02/22-rdf-syntax-ns#" xmlns:svg="http://www.w3.org/2000/svg" xmlns="http://www.w3.org/2000/svg" xmlns:sodipodi="http://sodipodi.sourceforge.net/DTD/sodipodi-0.dtd" xmlns:inkscape="http://www.inkscape.org/namespaces/inkscape" height="1" version="1.1" width="1" id="svg2" inkscape:version="0.91 r13725" sodipodi:docname="掘足类.svg">
  <metadata id="metadata8">
    <rdf:RDF>
      <cc:Work rdf:about="">
        <dc:format>image/svg+xml</dc:format>
        <dc:type rdf:resource="http://purl.org/dc/dcmitype/StillImage" />
        <dc:title></dc:title>
      </cc:Work>
    </rdf:RDF>
  </metadata>
  <defs id="defs6">
    <pattern width="1" height="1" id="掘足类" patternContentUnits="objectBoundingBox">
    <g transform="matrix(0.02066226,0,0,0.02901792,-6.3474963,-14.805166)" id="g7936">
    <path sodipodi:nodetypes="sssssccscccccc" inkscape:connector-curvature="0" d="m 323.72121,535.41735 c 2.50486,1.32529 4.12281,2.7486 3.61376,3.17902 -0.50903,0.4304 -2.95227,-0.29506 -5.45714,-1.62037 -2.50486,-1.32531 -4.12277,-2.74861 -3.61374,-3.17902 0.50904,-0.43041 2.95227,0.29506 5.45712,1.62037 z m 3.55713,3.14332 c 4.28041,-1.3566 10.41508,-9.67137 10.41508,-9.67137 1.82664,-2.79932 2.71362,-3.18246 3.22854,-5.2708 0.36753,-1.49049 0.54552,-3.8496 0.74041,-8.57573 -0.35847,0.75421 -1.4709,3.07523 -2.77255,5.24452 l -3.13587,4.04707 -5.81375,4.79759 c -4.46004,2.6159 -8.30004,4.02148 -11.21207,4.41122 -0.55897,0.17548 0.92664,0.30643 0.10468,0.1439" style="opacity:0.9906977;fill:none;fill-opacity:1;stroke:#000000;stroke-width:0.29564402;stroke-miterlimit:4;stroke-dasharray:none;stroke-opacity:1" id="path6506" />
  </g>
    </pattern>
  </defs>
  <sodipodi:namedview pagecolor="#ffffff" bordercolor="#666666" borderopacity="1" objecttolerance="10" gridtolerance="10" guidetolerance="10" inkscape:pageopacity="0" inkscape:pageshadow="2" inkscape:window-width="1600" inkscape:window-height="838" id="namedview4" showgrid="false" inkscape:zoom="256" inkscape:cx="0.5" inkscape:cy="0.5" inkscape:window-x="-8" inkscape:window-y="-8" inkscape:window-maximized="1" inkscape:current-layer="g7936" />
  <g transform="matrix(0.02066226,0,0,0.02901792,-6.3474963,-14.805166)" id="g7936">
    <path sodipodi:nodetypes="sssssccscccccc" inkscape:connector-curvature="0" d="m 323.72121,535.41735 c 2.50486,1.32529 4.12281,2.7486 3.61376,3.17902 -0.50903,0.4304 -2.95227,-0.29506 -5.45714,-1.62037 -2.50486,-1.32531 -4.12277,-2.74861 -3.61374,-3.17902 0.50904,-0.43041 2.95227,0.29506 5.45712,1.62037 z m 3.55713,3.14332 c 4.28041,-1.3566 10.41508,-9.67137 10.41508,-9.67137 1.82664,-2.79932 2.71362,-3.18246 3.22854,-5.2708 0.36753,-1.49049 0.54552,-3.8496 0.74041,-8.57573 -0.35847,0.75421 -1.4709,3.07523 -2.77255,5.24452 l -3.13587,4.04707 -5.81375,4.79759 c -4.46004,2.6159 -8.30004,4.02148 -11.21207,4.41122 -0.55897,0.17548 0.92664,0.30643 0.10468,0.1439" style="opacity:0.9906977;fill:none;fill-opacity:1;stroke:#000000;stroke-width:0.29564402;stroke-miterlimit:4;stroke-dasharray:none;stroke-opacity:1" id="path6506" />
  </g>
</svg>