<?xml version="1.0" encoding="utf-8" standalone="no"?>
<svg xmlns:dc="http://purl.org/dc/elements/1.1/" xmlns:cc="http://creativecommons.org/ns#" xmlns:rdf="http://www.w3.org/1999/02/22-rdf-syntax-ns#" xmlns:svg="http://www.w3.org/2000/svg" xmlns="http://www.w3.org/2000/svg" xmlns:sodipodi="http://sodipodi.sourceforge.net/DTD/sodipodi-0.dtd" xmlns:inkscape="http://www.inkscape.org/namespaces/inkscape" height="1" version="1.1" width="1" id="svg2" inkscape:version="0.91 r13725" sodipodi:docname="昆虫.svg">
  <metadata id="metadata8">
    <rdf:RDF>
      <cc:Work rdf:about="">
        <dc:format>image/svg+xml</dc:format>
        <dc:type rdf:resource="http://purl.org/dc/dcmitype/StillImage" />
        <dc:title></dc:title>
      </cc:Work>
    </rdf:RDF>
  </metadata>
  <defs id="defs6">
    <pattern width="1" height="1" id="昆虫" patternContentUnits="objectBoundingBox">
      <path style="fill:#000000" d="M 0.48894577,0.69903984 C 0.48609877,0.55422727 0.48533777,0.55149374 0.45113777,0.5631585 0.39310487,0.5829518 0.26073038,0.5765485 0.21206906,0.5515937 0.15972976,0.5247528 0.14276766,0.4543295 0.18053026,0.42065052 c 0.0129807,-0.011577 0.0659749,-0.0251779 0.11776496,-0.0302244 0.0838462,-0.008171 0.11636835,-0.0243374 0.0824662,-0.0409954 -0.0264877,-0.0130148 -0.10224707,-0.11483516 -0.0929092,-0.12486978 0.005553,-0.005967 0.0522412,0.0354373 0.10375286,0.092009 0.0515116,0.0565718 0.0979712,0.10285784 0.10324342,0.10285784 0.005273,0 0.0528226,-0.0414489 0.10566756,-0.0921087 0.11582747,-0.11103779 0.15318273,-0.12205411 0.0570896,-0.0168359 l -0.0688823,0.0754232 0.0575208,0 c 0.0704976,0 0.17732682,0.0439459 0.18946572,0.0779397 0.0123378,0.0345515 -0.0155656,0.0851675 -0.0542184,0.098351 -0.0176636,0.006025 -0.0861023,0.008504 -0.15208591,0.005512 l -0.11997019,-0.005443 -0.008792,0.14227962 -0.008792,0.14227973 z M 0.42365269,0.5385163 c 0.0278703,-0.008331 0.0389921,-0.0232318 0.0389921,-0.0522406 0,-0.033869 -0.0118063,-0.0441689 -0.0713442,-0.0622394 -0.13592079,-0.041254 -0.26873612,0.0495148 -0.15210307,0.10395024 0.0552559,0.0257894 0.12087451,0.0295352 0.18445517,0.0105298 z M 0.76895473,0.5210732 C 0.80318733,0.4909135 0.80397003,0.4866588 0.78008843,0.4605466 0.72335553,0.3985142 0.50869912,0.4180887 0.52054946,0.484214 0.53286056,0.5529103 0.70399563,0.5783039 0.76895473,0.5210732 Z" id="path14406" inkscape:connector-curvature="0" sodipodi:nodetypes="sssscscsssscsscccccssssssssss" />
    </pattern>
  </defs>
  <sodipodi:namedview pagecolor="#ffffff" bordercolor="#666666" borderopacity="1" objecttolerance="10" gridtolerance="10" guidetolerance="10" inkscape:pageopacity="0" inkscape:pageshadow="2" inkscape:window-width="1600" inkscape:window-height="838" id="namedview4" showgrid="false" inkscape:zoom="144.00816" inkscape:cx="3.1314997" inkscape:cy="-0.50902615" inkscape:window-x="-8" inkscape:window-y="-8" inkscape:window-maximized="1" inkscape:current-layer="svg2" />
  <path style="fill:#000000" d="M 0.48894577,0.69903984 C 0.48609877,0.55422727 0.48533777,0.55149374 0.45113777,0.5631585 0.39310487,0.5829518 0.26073038,0.5765485 0.21206906,0.5515937 0.15972976,0.5247528 0.14276766,0.4543295 0.18053026,0.42065052 c 0.0129807,-0.011577 0.0659749,-0.0251779 0.11776496,-0.0302244 0.0838462,-0.008171 0.11636835,-0.0243374 0.0824662,-0.0409954 -0.0264877,-0.0130148 -0.10224707,-0.11483516 -0.0929092,-0.12486978 0.005553,-0.005967 0.0522412,0.0354373 0.10375286,0.092009 0.0515116,0.0565718 0.0979712,0.10285784 0.10324342,0.10285784 0.005273,0 0.0528226,-0.0414489 0.10566756,-0.0921087 0.11582747,-0.11103779 0.15318273,-0.12205411 0.0570896,-0.0168359 l -0.0688823,0.0754232 0.0575208,0 c 0.0704976,0 0.17732682,0.0439459 0.18946572,0.0779397 0.0123378,0.0345515 -0.0155656,0.0851675 -0.0542184,0.098351 -0.0176636,0.006025 -0.0861023,0.008504 -0.15208591,0.005512 l -0.11997019,-0.005443 -0.008792,0.14227962 -0.008792,0.14227973 z M 0.42365269,0.5385163 c 0.0278703,-0.008331 0.0389921,-0.0232318 0.0389921,-0.0522406 0,-0.033869 -0.0118063,-0.0441689 -0.0713442,-0.0622394 -0.13592079,-0.041254 -0.26873612,0.0495148 -0.15210307,0.10395024 0.0552559,0.0257894 0.12087451,0.0295352 0.18445517,0.0105298 z M 0.76895473,0.5210732 C 0.80318733,0.4909135 0.80397003,0.4866588 0.78008843,0.4605466 0.72335553,0.3985142 0.50869912,0.4180887 0.52054946,0.484214 0.53286056,0.5529103 0.70399563,0.5783039 0.76895473,0.5210732 Z" id="path14406" inkscape:connector-curvature="0" sodipodi:nodetypes="sssscscsssscsscccccssssssssss" />
</svg>