<?xml version="1.0" encoding="utf-8" standalone="no"?>
<svg xmlns:dc="http://purl.org/dc/elements/1.1/" xmlns:cc="http://creativecommons.org/ns#" xmlns:rdf="http://www.w3.org/1999/02/22-rdf-syntax-ns#" xmlns:svg="http://www.w3.org/2000/svg" xmlns="http://www.w3.org/2000/svg" xmlns:sodipodi="http://sodipodi.sourceforge.net/DTD/sodipodi-0.dtd" xmlns:inkscape="http://www.inkscape.org/namespaces/inkscape" height="1" version="1.1" width="1" id="svg2" inkscape:version="0.91 r13725" sodipodi:docname="植物碎片.svg">
  <metadata id="metadata8">
    <rdf:RDF>
      <cc:Work rdf:about="">
        <dc:format>image/svg+xml</dc:format>
        <dc:type rdf:resource="http://purl.org/dc/dcmitype/StillImage" />
        <dc:title></dc:title>
      </cc:Work>
    </rdf:RDF>
  </metadata>
  <defs id="defs6">
    <pattern width="1" height="1" id="植物碎片" patternContentUnits="objectBoundingBox">
      <path style="fill:#000000" d="M 0.60058165,0.87980936 C 0.53990098,0.8232969 0.46949463,0.73744911 0.44412317,0.68903653 0.41875172,0.64062395 0.36734814,0.57905599 0.32989329,0.55221882 0.29057137,0.52404412 0.25490773,0.45852646 0.2454996,0.39717905 0.23158737,0.3064636 0.24253519,0.28100814 0.32040402,0.22302667 0.46287516,0.116941 0.70988638,0.10684381 0.74940251,0.20549051 c 0.0265216,0.0662064 -0.0410805,0.1424573 -0.12629774,0.1424573 -0.22323924,0 -0.17774671,0.3739258 0.0680701,0.55950448 0.0241656,0.0182435 0.0384912,0.0426058 0.031836,0.0541387 -0.006659,0.0115329 -0.0617485,-0.0252689 -0.12242914,-0.0817816 z M 0.5490289,0.29298582 c 0.0600587,-0.0523984 0.10919761,-0.10107811 0.10919761,-0.10817686 0,-0.0253472 -0.11378913,-0.0122774 -0.21309142,0.0244754 -0.16013014,0.0592662 -0.20352797,0.19955082 -0.089754,0.29013112 0.0302893,0.0241144 0.0430301,0.0157309 0.0613399,-0.0403616 0.0127106,-0.0389388 0.0722492,-0.11366953 0.1323079,-0.16606798 z m 0.13753653,-0.044646 c -0.0108135,-0.006775 -0.0304527,0.005438 -0.0436421,0.0271404 -0.01906,0.0313624 -0.0150261,0.0338902 0.0196614,0.0123189 0.0240029,-0.0149277 0.0347941,-0.0326838 0.0239807,-0.039459 z" id="path30264" inkscape:connector-curvature="0" />
    </pattern>
  </defs>
  <sodipodi:namedview pagecolor="#ffffff" bordercolor="#666666" borderopacity="1" objecttolerance="10" gridtolerance="10" guidetolerance="10" inkscape:pageopacity="0" inkscape:pageshadow="2" inkscape:window-width="1600" inkscape:window-height="838" id="namedview4" showgrid="false" inkscape:zoom="128" inkscape:cx="3.1367187" inkscape:cy="0.89742431" inkscape:window-x="-8" inkscape:window-y="-8" inkscape:window-maximized="1" inkscape:current-layer="svg2" />
  <path style="fill:#000000" d="M 0.60058165,0.87980936 C 0.53990098,0.8232969 0.46949463,0.73744911 0.44412317,0.68903653 0.41875172,0.64062395 0.36734814,0.57905599 0.32989329,0.55221882 0.29057137,0.52404412 0.25490773,0.45852646 0.2454996,0.39717905 0.23158737,0.3064636 0.24253519,0.28100814 0.32040402,0.22302667 0.46287516,0.116941 0.70988638,0.10684381 0.74940251,0.20549051 c 0.0265216,0.0662064 -0.0410805,0.1424573 -0.12629774,0.1424573 -0.22323924,0 -0.17774671,0.3739258 0.0680701,0.55950448 0.0241656,0.0182435 0.0384912,0.0426058 0.031836,0.0541387 -0.006659,0.0115329 -0.0617485,-0.0252689 -0.12242914,-0.0817816 z M 0.5490289,0.29298582 c 0.0600587,-0.0523984 0.10919761,-0.10107811 0.10919761,-0.10817686 0,-0.0253472 -0.11378913,-0.0122774 -0.21309142,0.0244754 -0.16013014,0.0592662 -0.20352797,0.19955082 -0.089754,0.29013112 0.0302893,0.0241144 0.0430301,0.0157309 0.0613399,-0.0403616 0.0127106,-0.0389388 0.0722492,-0.11366953 0.1323079,-0.16606798 z m 0.13753653,-0.044646 c -0.0108135,-0.006775 -0.0304527,0.005438 -0.0436421,0.0271404 -0.01906,0.0313624 -0.0150261,0.0338902 0.0196614,0.0123189 0.0240029,-0.0149277 0.0347941,-0.0326838 0.0239807,-0.039459 z" id="path30264" inkscape:connector-curvature="0" />
</svg>