<?xml version="1.0" encoding="utf-8" standalone="no"?>
<svg xmlns:dc="http://purl.org/dc/elements/1.1/" xmlns:cc="http://creativecommons.org/ns#" xmlns:rdf="http://www.w3.org/1999/02/22-rdf-syntax-ns#" xmlns:svg="http://www.w3.org/2000/svg" xmlns="http://www.w3.org/2000/svg" xmlns:sodipodi="http://sodipodi.sourceforge.net/DTD/sodipodi-0.dtd" xmlns:inkscape="http://www.inkscape.org/namespaces/inkscape" height="1" version="1.1" width="1" id="svg6111" inkscape:version="0.91 r13725" sodipodi:docname="模板珊瑚.svg">
  <metadata id="metadata6117">
    <rdf:RDF>
      <cc:Work rdf:about="">
        <dc:format>image/svg+xml</dc:format>
        <dc:type rdf:resource="http://purl.org/dc/dcmitype/StillImage" />
        <dc:title></dc:title>
      </cc:Work>
    </rdf:RDF>
  </metadata>
  <defs id="defs6115">
    <pattern y="0" x="0" height="6" width="6" patternUnits="userSpaceOnUse" id="EMFhbasepattern" />
    <pattern width="1" height="1" id="模板珊瑚" patternContentUnits="objectBoundingBox">
      <path inkscape:connector-curvature="0" id="path6664" d="m 0.22260559,0.60150929 0,-0.28361609 0.0672299,-0.0544695 c 0.0379247,-0.030052 0.0861921,-0.0544696 0.10687817,-0.0544696 0.0206861,0 0.0689533,-0.0281737 0.10515431,-0.0619825 0.0913644,-0.08452164 0.18617644,-0.08264338 0.24823298,0.001879 0.0413728,0.0601042 0.0465444,0.0976695 0.0430961,0.35687003 l -0.005172,0.29112991 -0.008619,-0.24417309 C 0.77595813,0.4193202 0.76216791,0.3085028 0.75010107,0.3085028 c -0.0293054,0 -0.0430961,0.0826433 -0.051716,0.31366847 l -0.006898,0.2009753 -0.005172,-0.23478171 C 0.68287027,0.38175473 0.6776961,0.35733719 0.6414949,0.36485027 0.608742,0.37048461 0.6001221,0.40992884 0.5897789,0.60902336 L 0.5759882,0.84756412 0.5725432,0.62780609 C 0.5690982,0.50759907 0.5587525,0.40992885 0.548409,0.40992885 c -0.0499919,0 -0.0741259,0.0751309 -0.0775736,0.26107753 L 0.4673904,0.87198172 0.4535995,0.67288472 C 0.44325678,0.51699049 0.4329135,0.4719119 0.40705605,0.4719119 c -0.0275815,0 -0.0379248,0.0469569 -0.0482675,0.21224246 L 0.3467216,0.89827757 0.34155,0.68227606 C 0.3381017,0.52450358 0.32775953,0.45688573 0.30362534,0.43434644 c -0.0310291,-0.0281741 -0.0344767,-0.001879 -0.0344767,0.21036416 0,0.1427488 -0.0103433,0.24041906 -0.0241338,0.24041906 -0.0137909,0 -0.0224102,-0.11081817 -0.0224102,-0.28361934 z M 0.48635331,0.38363201 c 0.0396487,-0.0469568 0.0396487,-0.0525909 0.003448,-0.0976692 -0.0465437,-0.0544695 -0.14480284,-0.0394435 -0.18445129,0.030052 -0.0189622,0.0319299 -0.0137906,0.0507127 0.0206861,0.0788868 0.0637822,0.0525916 0.11204974,0.0488351 0.16031706,-0.0112697 z M 0.73975786,0.25966722 c 0.006898,-0.0131479 0.001718,-0.0469566 -0.0120674,-0.0751305 -0.0310296,-0.0657391 -0.13963002,-0.0676174 -0.19306959,-0.001879 -0.0396487,0.0469565 -0.0379247,0.0507132 0.0344771,0.0995478 0.0741257,0.0488349 0.13445851,0.0413218 0.17065945,-0.0225391 z" style="fill:#000000;fill-opacity:1;fill-rule:nonzero;stroke:none" />
    </pattern>
  </defs>
  <sodipodi:namedview pagecolor="#ffffff" bordercolor="#666666" borderopacity="1" objecttolerance="10" gridtolerance="10" guidetolerance="10" inkscape:pageopacity="0" inkscape:pageshadow="2" inkscape:window-width="1600" inkscape:window-height="838" id="namedview6113" showgrid="false" inkscape:zoom="128" inkscape:cx="2.6511517" inkscape:cy="-0.67809857" inkscape:window-x="-8" inkscape:window-y="-8" inkscape:window-maximized="1" inkscape:current-layer="svg6111" />
  <path inkscape:connector-curvature="0" id="path6664" d="m 0.22260559,0.60150929 0,-0.28361609 0.0672299,-0.0544695 c 0.0379247,-0.030052 0.0861921,-0.0544696 0.10687817,-0.0544696 0.0206861,0 0.0689533,-0.0281737 0.10515431,-0.0619825 0.0913644,-0.08452164 0.18617644,-0.08264338 0.24823298,0.001879 0.0413728,0.0601042 0.0465444,0.0976695 0.0430961,0.35687003 l -0.005172,0.29112991 -0.008619,-0.24417309 C 0.77595813,0.4193202 0.76216791,0.3085028 0.75010107,0.3085028 c -0.0293054,0 -0.0430961,0.0826433 -0.051716,0.31366847 l -0.006898,0.2009753 -0.005172,-0.23478171 C 0.68287027,0.38175473 0.6776961,0.35733719 0.6414949,0.36485027 0.608742,0.37048461 0.6001221,0.40992884 0.5897789,0.60902336 L 0.5759882,0.84756412 0.5725432,0.62780609 C 0.5690982,0.50759907 0.5587525,0.40992885 0.548409,0.40992885 c -0.0499919,0 -0.0741259,0.0751309 -0.0775736,0.26107753 L 0.4673904,0.87198172 0.4535995,0.67288472 C 0.44325678,0.51699049 0.4329135,0.4719119 0.40705605,0.4719119 c -0.0275815,0 -0.0379248,0.0469569 -0.0482675,0.21224246 L 0.3467216,0.89827757 0.34155,0.68227606 C 0.3381017,0.52450358 0.32775953,0.45688573 0.30362534,0.43434644 c -0.0310291,-0.0281741 -0.0344767,-0.001879 -0.0344767,0.21036416 0,0.1427488 -0.0103433,0.24041906 -0.0241338,0.24041906 -0.0137909,0 -0.0224102,-0.11081817 -0.0224102,-0.28361934 z M 0.48635331,0.38363201 c 0.0396487,-0.0469568 0.0396487,-0.0525909 0.003448,-0.0976692 -0.0465437,-0.0544695 -0.14480284,-0.0394435 -0.18445129,0.030052 -0.0189622,0.0319299 -0.0137906,0.0507127 0.0206861,0.0788868 0.0637822,0.0525916 0.11204974,0.0488351 0.16031706,-0.0112697 z M 0.73975786,0.25966722 c 0.006898,-0.0131479 0.001718,-0.0469566 -0.0120674,-0.0751305 -0.0310296,-0.0657391 -0.13963002,-0.0676174 -0.19306959,-0.001879 -0.0396487,0.0469565 -0.0379247,0.0507132 0.0344771,0.0995478 0.0741257,0.0488349 0.13445851,0.0413218 0.17065945,-0.0225391 z" style="fill:#000000;fill-opacity:1;fill-rule:nonzero;stroke:none" />
</svg>