<?xml version="1.0" encoding="utf-8" standalone="no"?>
<svg xmlns:dc="http://purl.org/dc/elements/1.1/" xmlns:cc="http://creativecommons.org/ns#" xmlns:rdf="http://www.w3.org/1999/02/22-rdf-syntax-ns#" xmlns:svg="http://www.w3.org/2000/svg" xmlns="http://www.w3.org/2000/svg" xmlns:sodipodi="http://sodipodi.sourceforge.net/DTD/sodipodi-0.dtd" xmlns:inkscape="http://www.inkscape.org/namespaces/inkscape" height="100" version="1.1" width="100" id="svg2" inkscape:version="0.91 r13725" sodipodi:docname="浮游沉降生态.svg">
  <defs id="defs6">
    <pattern width="1" height="1" id="浮游沉降生态" patternContentUnits="objectBoundingBox">
    <g id="g5470" transform="matrix(0,1,-1,0,0.97832945,-0.3497955)">
    <path style="fill:#000000" d="m 1.0227903,0.61441168 -0.00171,0.25454227 -0.0422782,0 -0.0422782,0 0.004101,-0.18796966 c 0.002255,-0.10338336 0.001763,-0.18796966 -0.001096,-0.18796966 -0.002857,0 -0.0278019,0.0210472 -0.0554343,0.0467716 l -0.0502407,0.0467716 -0.0173987,-0.0136951 -0.0173986,-0.0136951 0.0345277,-0.0323111 0.0345276,-0.032311 -0.0578928,-0.003376 c -0.0318409,-0.001857 -0.0919442,-0.003376 -0.13356255,-0.003376 l -0.0756699,0 0.001972,-0.0195802 0.001972,-0.0195802 0.13297608,0.001898 0.13297609,0.001899 -0.0195811,-0.0201727 c -0.0107692,-0.0110956 -0.028426,-0.0270739 -0.0392366,-0.0355085 -0.0108105,-0.008434 -0.0196556,-0.0181504 -0.0196556,-0.0215903 0,-0.005308 0.0260989,-0.0231199 0.0338759,-0.0231199 0.001401,0 0.0262863,0.021734 0.0553011,0.0482977 0.0290149,0.0265638 0.055138,0.049081 0.0580513,0.0500381 0.002914,9.5788e-4 0.005297,-0.0771675 0.005297,-0.17361084 l 0,-0.17535125 0.0413089,0 0.0413089,0 -0.00152,0.12922905 c -8.363e-4,0.0710761 -0.0023,0.24377322 -0.00324,0.38377145 z" id="path4897" inkscape:connector-curvature="0" />
  </g>
    </pattern>
  </defs>
  <sodipodi:namedview pagecolor="#ffffff" bordercolor="#666666" borderopacity="1" objecttolerance="10" gridtolerance="10" guidetolerance="10" inkscape:pageopacity="0" inkscape:pageshadow="2" inkscape:window-width="1600" inkscape:window-height="838" id="namedview4" showgrid="false" inkscape:zoom="256" inkscape:cx="0.5" inkscape:cy="0.5" inkscape:window-x="-8" inkscape:window-y="-8" inkscape:window-maximized="1" inkscape:current-layer="g5470" />
  <g id="g5470" transform="matrix(0,1,-1,0,0.97832945,-0.3497955)">
    <path style="fill:#000000" d="m 1.0227903,0.61441168 -0.00171,0.25454227 -0.0422782,0 -0.0422782,0 0.004101,-0.18796966 c 0.002255,-0.10338336 0.001763,-0.18796966 -0.001096,-0.18796966 -0.002857,0 -0.0278019,0.0210472 -0.0554343,0.0467716 l -0.0502407,0.0467716 -0.0173987,-0.0136951 -0.0173986,-0.0136951 0.0345277,-0.0323111 0.0345276,-0.032311 -0.0578928,-0.003376 c -0.0318409,-0.001857 -0.0919442,-0.003376 -0.13356255,-0.003376 l -0.0756699,0 0.001972,-0.0195802 0.001972,-0.0195802 0.13297608,0.001898 0.13297609,0.001899 -0.0195811,-0.0201727 c -0.0107692,-0.0110956 -0.028426,-0.0270739 -0.0392366,-0.0355085 -0.0108105,-0.008434 -0.0196556,-0.0181504 -0.0196556,-0.0215903 0,-0.005308 0.0260989,-0.0231199 0.0338759,-0.0231199 0.001401,0 0.0262863,0.021734 0.0553011,0.0482977 0.0290149,0.0265638 0.055138,0.049081 0.0580513,0.0500381 0.002914,9.5788e-4 0.005297,-0.0771675 0.005297,-0.17361084 l 0,-0.17535125 0.0413089,0 0.0413089,0 -0.00152,0.12922905 c -8.363e-4,0.0710761 -0.0023,0.24377322 -0.00324,0.38377145 z" id="path4897" inkscape:connector-curvature="0" />
  </g>
</svg>