<?xml version="1.0" encoding="utf-8" standalone="no"?>
<svg xmlns:dc="http://purl.org/dc/elements/1.1/" xmlns:cc="http://creativecommons.org/ns#" xmlns:rdf="http://www.w3.org/1999/02/22-rdf-syntax-ns#" xmlns:svg="http://www.w3.org/2000/svg" xmlns="http://www.w3.org/2000/svg" xmlns:sodipodi="http://sodipodi.sourceforge.net/DTD/sodipodi-0.dtd" xmlns:inkscape="http://www.inkscape.org/namespaces/inkscape" height="1" version="1.1" width="1" id="svg2" inkscape:version="0.91 r13725" sodipodi:docname="海百合.svg">
  <metadata id="metadata8">
    <rdf:RDF>
      <cc:Work rdf:about="">
        <dc:format>image/svg+xml</dc:format>
        <dc:type rdf:resource="http://purl.org/dc/dcmitype/StillImage" />
        <dc:title></dc:title>
      </cc:Work>
    </rdf:RDF>
  </metadata>
  <defs id="defs6">
    <pattern width="1" height="1" id="海百合" patternContentUnits="objectBoundingBox">
      <path style="fill:#000000" d="m 0.44701734,0.94306864 c -0.018013,-0.0138634 -0.0327512,-0.0410733 -0.0327512,-0.0604662 0,-0.0194078 -0.0369675,-0.0470454 -0.0822252,-0.0614727 -0.0528078,-0.0168343 -0.0877986,-0.0459268 -0.0978038,-0.0813167 -0.008569,-0.0303075 -0.0188927,-0.0645567 -0.0229432,-0.0761094 -0.004048,-0.0115527 0.003287,-0.0960176 0.0163071,-0.18769968 C 0.25269134,0.29931868 0.34001961,0.14889614 0.44185514,0.10695145 0.60661697,0.03908822 0.75858779,0.21117074 0.78590258,0.49653 c 0.0187822,0.19622032 -0.009946,0.26964027 -0.12533864,0.32032717 -0.0449394,0.0197397 -0.0935383,0.0618841 -0.10799773,0.093654 -0.0287057,0.063071 -0.055259,0.0712616 -0.10554902,0.0325576 z M 0.66169447,0.77849125 c 0.0290351,-0.0119592 0.0527911,-0.0355897 0.0527911,-0.0525124 0,-0.0238252 -0.0395285,-0.0307681 -0.17517014,-0.0307681 -0.0963437,0 -0.19459737,-0.005737 -0.21834145,-0.0127498 -0.0310755,-0.009178 -0.0431713,-1.6807e-4 -0.0431713,0.0321842 0,0.0269663 0.0245553,0.0525301 0.0614086,0.0639306 0.0846731,0.0261936 0.25879493,0.026148 0.32248321,-8.407e-5 z M 0.39901115,0.44857932 c 0.0107347,-0.11254188 0.0325896,-0.21674469 0.0485677,-0.23156164 0.0391312,-0.0362876 0.005023,-0.0591274 -0.0427396,-0.02862 -0.0591399,0.0377744 -0.12066202,0.18910954 -0.1355862,0.33352257 -0.0129713,0.12552013 -0.0108501,0.13128064 0.0483375,0.13128064 0.0587717,0 0.0628918,-0.0103543 0.0814206,-0.20462157 z m 0.17901107,0.0397167 c 0,-0.0906978 -0.0145029,-0.19692313 -0.0322286,-0.23605655 l -0.0322286,-0.0711516 -0.034772,0.062766 c -0.0191248,0.0345215 -0.0353262,0.14074679 -0.0360033,0.23605664 -0.001216,0.17109256 -3.6527e-4,0.17329043 0.0670008,0.17329043 0.0669863,0 0.0682316,-0.003009 0.0682316,-0.16490487 z M 0.73492728,0.4886965 C 0.7251988,0.37945607 0.70032538,0.29409106 0.66089151,0.23460204 c -0.0326614,-0.0492723 -0.0638351,-0.0861608 -0.0692748,-0.0819744 -0.00544,0.004184 0.001158,0.073631 0.0146573,0.15432111 0.0135011,0.0806901 0.0249496,0.19160739 0.0254405,0.24648273 7.861e-4,0.0877739 0.007927,0.0997734 0.0593782,0.0997734 0.056054,0 0.0578763,-0.006838 0.0438345,-0.16450839 z" id="path16608" inkscape:connector-curvature="0" />
    </pattern>
  </defs>
  <sodipodi:namedview pagecolor="#ffffff" bordercolor="#666666" borderopacity="1" objecttolerance="10" gridtolerance="10" guidetolerance="10" inkscape:pageopacity="0" inkscape:pageshadow="2" inkscape:window-width="1600" inkscape:window-height="838" id="namedview4" showgrid="false" inkscape:zoom="128" inkscape:cx="2.46101" inkscape:cy="-0.71406355" inkscape:window-x="-8" inkscape:window-y="-8" inkscape:window-maximized="1" inkscape:current-layer="svg2" />
  <path style="fill:#000000" d="m 0.44701734,0.94306864 c -0.018013,-0.0138634 -0.0327512,-0.0410733 -0.0327512,-0.0604662 0,-0.0194078 -0.0369675,-0.0470454 -0.0822252,-0.0614727 -0.0528078,-0.0168343 -0.0877986,-0.0459268 -0.0978038,-0.0813167 -0.008569,-0.0303075 -0.0188927,-0.0645567 -0.0229432,-0.0761094 -0.004048,-0.0115527 0.003287,-0.0960176 0.0163071,-0.18769968 C 0.25269134,0.29931868 0.34001961,0.14889614 0.44185514,0.10695145 0.60661697,0.03908822 0.75858779,0.21117074 0.78590258,0.49653 c 0.0187822,0.19622032 -0.009946,0.26964027 -0.12533864,0.32032717 -0.0449394,0.0197397 -0.0935383,0.0618841 -0.10799773,0.093654 -0.0287057,0.063071 -0.055259,0.0712616 -0.10554902,0.0325576 z M 0.66169447,0.77849125 c 0.0290351,-0.0119592 0.0527911,-0.0355897 0.0527911,-0.0525124 0,-0.0238252 -0.0395285,-0.0307681 -0.17517014,-0.0307681 -0.0963437,0 -0.19459737,-0.005737 -0.21834145,-0.0127498 -0.0310755,-0.009178 -0.0431713,-1.6807e-4 -0.0431713,0.0321842 0,0.0269663 0.0245553,0.0525301 0.0614086,0.0639306 0.0846731,0.0261936 0.25879493,0.026148 0.32248321,-8.407e-5 z M 0.39901115,0.44857932 c 0.0107347,-0.11254188 0.0325896,-0.21674469 0.0485677,-0.23156164 0.0391312,-0.0362876 0.005023,-0.0591274 -0.0427396,-0.02862 -0.0591399,0.0377744 -0.12066202,0.18910954 -0.1355862,0.33352257 -0.0129713,0.12552013 -0.0108501,0.13128064 0.0483375,0.13128064 0.0587717,0 0.0628918,-0.0103543 0.0814206,-0.20462157 z m 0.17901107,0.0397167 c 0,-0.0906978 -0.0145029,-0.19692313 -0.0322286,-0.23605655 l -0.0322286,-0.0711516 -0.034772,0.062766 c -0.0191248,0.0345215 -0.0353262,0.14074679 -0.0360033,0.23605664 -0.001216,0.17109256 -3.6527e-4,0.17329043 0.0670008,0.17329043 0.0669863,0 0.0682316,-0.003009 0.0682316,-0.16490487 z M 0.73492728,0.4886965 C 0.7251988,0.37945607 0.70032538,0.29409106 0.66089151,0.23460204 c -0.0326614,-0.0492723 -0.0638351,-0.0861608 -0.0692748,-0.0819744 -0.00544,0.004184 0.001158,0.073631 0.0146573,0.15432111 0.0135011,0.0806901 0.0249496,0.19160739 0.0254405,0.24648273 7.861e-4,0.0877739 0.007927,0.0997734 0.0593782,0.0997734 0.056054,0 0.0578763,-0.006838 0.0438345,-0.16450839 z" id="path16608" inkscape:connector-curvature="0" />
</svg>