<?xml version="1.0" encoding="utf-8" standalone="no"?>
<svg xmlns:dc="http://purl.org/dc/elements/1.1/" xmlns:cc="http://creativecommons.org/ns#" xmlns:rdf="http://www.w3.org/1999/02/22-rdf-syntax-ns#" xmlns:svg="http://www.w3.org/2000/svg" xmlns="http://www.w3.org/2000/svg" xmlns:sodipodi="http://sodipodi.sourceforge.net/DTD/sodipodi-0.dtd" xmlns:inkscape="http://www.inkscape.org/namespaces/inkscape" height="1" version="1.1" width="1" id="svg2" inkscape:version="0.91 r13725" sodipodi:docname="海蕾.svg">
  <metadata id="metadata8">
    <rdf:RDF>
      <cc:Work rdf:about="">
        <dc:format>image/svg+xml</dc:format>
        <dc:type rdf:resource="http://purl.org/dc/dcmitype/StillImage" />
        <dc:title></dc:title>
      </cc:Work>
    </rdf:RDF>
  </metadata>
  <defs id="defs6">
    <pattern width="1" height="1" id="海蕾" patternContentUnits="objectBoundingBox">
      <path style="fill:#000000" d="M 0.32423537,0.74875224 C 0.16973791,0.69291859 0.14916793,0.67955181 0.14289995,0.63091908 c -0.009728,-0.0754852 0.13436847,-0.3188681 0.22483793,-0.37975475 0.10108037,-0.0680278 0.15214198,-0.0767518 0.24436404,-0.0417499 0.14244159,0.0540628 0.26978206,0.25640527 0.26978206,0.42868112 0,0.0532447 -0.0119124,0.0627102 -0.13360335,0.10615923 -0.20687855,0.0738651 -0.23137978,0.0741249 -0.42404526,0.004497 z m 0.14424686,-0.0398317 c -0.003728,-0.0193425 -0.006391,-0.1229788 -0.005916,-0.23030275 l 8.6813e-4,-0.19513448 -0.0521711,0.0548752 c -0.0654199,0.0688107 -0.15673001,0.24413626 -0.15673001,0.30093834 0,0.0306053 0.0249132,0.0533651 0.0871326,0.0796021 0.1006544,0.0424445 0.13638903,0.0396329 0.1268204,-0.009979 z m 0.22778586,0.0182582 c 0.0853955,-0.0301345 0.0855447,-0.0303884 0.0662859,-0.11284132 -0.0202887,-0.086863 -0.15027812,-0.32155588 -0.17810743,-0.32157005 -0.008932,-4.59e-6 -0.0162399,0.0773522 -0.0162399,0.17190419 0,0.0945516 -0.008673,0.19909167 -0.0192733,0.23231094 -0.0229238,0.0718421 0.0101229,0.0786154 0.14733427,0.0301962 z M 0.84525823,0.59476931 C 0.82323906,0.49574517 0.74630983,0.35706037 0.69136132,0.31733085 l -0.0468134,-0.0338473 0.0463137,0.0836292 c 0.10186008,0.18392997 0.12131659,0.22575783 0.12131659,0.26080972 0,0.0200959 0.010929,0.0365379 0.024288,0.0365379 0.0153309,0 0.0185736,-0.025701 0.008791,-0.0696908 z M 0.26360359,0.50375152 C 0.28838182,0.44480766 0.41589278,0.2838876 0.42004873,0.26661562 0.42783054,0.23427198 0.28703512,0.39768774 0.22751259,0.51053117 0.15242117,0.65289011 0.154742,0.6458759 0.18272356,0.6458759 c 0.0116249,0 0.0480208,-0.063956 0.08088,-0.14212438 z m 0.27883733,-0.017454 c 0.008021,-0.11209813 -0.0186174,-0.15827427 -0.032323,-0.11519411 -0.0264605,0.083172 -0.0264605,0.23760416 0,0.23760416 0.013467,0 0.0271295,-0.0498401 0.032323,-0.12241005 z" id="path15873" inkscape:connector-curvature="0" sodipodi:nodetypes="ssssssscscsssccsscssssscsssssssssssss" />
    </pattern>
  </defs>
  <sodipodi:namedview pagecolor="#ffffff" bordercolor="#666666" borderopacity="1" objecttolerance="10" gridtolerance="10" guidetolerance="10" inkscape:pageopacity="0" inkscape:pageshadow="2" inkscape:window-width="1600" inkscape:window-height="838" id="namedview4" showgrid="false" inkscape:zoom="131.31059" inkscape:cx="0.093577156" inkscape:cy="0.44709086" inkscape:window-x="-8" inkscape:window-y="-8" inkscape:window-maximized="1" inkscape:current-layer="svg2" />
  <path style="fill:#000000" d="M 0.32423537,0.74875224 C 0.16973791,0.69291859 0.14916793,0.67955181 0.14289995,0.63091908 c -0.009728,-0.0754852 0.13436847,-0.3188681 0.22483793,-0.37975475 0.10108037,-0.0680278 0.15214198,-0.0767518 0.24436404,-0.0417499 0.14244159,0.0540628 0.26978206,0.25640527 0.26978206,0.42868112 0,0.0532447 -0.0119124,0.0627102 -0.13360335,0.10615923 -0.20687855,0.0738651 -0.23137978,0.0741249 -0.42404526,0.004497 z m 0.14424686,-0.0398317 c -0.003728,-0.0193425 -0.006391,-0.1229788 -0.005916,-0.23030275 l 8.6813e-4,-0.19513448 -0.0521711,0.0548752 c -0.0654199,0.0688107 -0.15673001,0.24413626 -0.15673001,0.30093834 0,0.0306053 0.0249132,0.0533651 0.0871326,0.0796021 0.1006544,0.0424445 0.13638903,0.0396329 0.1268204,-0.009979 z m 0.22778586,0.0182582 c 0.0853955,-0.0301345 0.0855447,-0.0303884 0.0662859,-0.11284132 -0.0202887,-0.086863 -0.15027812,-0.32155588 -0.17810743,-0.32157005 -0.008932,-4.59e-6 -0.0162399,0.0773522 -0.0162399,0.17190419 0,0.0945516 -0.008673,0.19909167 -0.0192733,0.23231094 -0.0229238,0.0718421 0.0101229,0.0786154 0.14733427,0.0301962 z M 0.84525823,0.59476931 C 0.82323906,0.49574517 0.74630983,0.35706037 0.69136132,0.31733085 l -0.0468134,-0.0338473 0.0463137,0.0836292 c 0.10186008,0.18392997 0.12131659,0.22575783 0.12131659,0.26080972 0,0.0200959 0.010929,0.0365379 0.024288,0.0365379 0.0153309,0 0.0185736,-0.025701 0.008791,-0.0696908 z M 0.26360359,0.50375152 C 0.28838182,0.44480766 0.41589278,0.2838876 0.42004873,0.26661562 0.42783054,0.23427198 0.28703512,0.39768774 0.22751259,0.51053117 0.15242117,0.65289011 0.154742,0.6458759 0.18272356,0.6458759 c 0.0116249,0 0.0480208,-0.063956 0.08088,-0.14212438 z m 0.27883733,-0.017454 c 0.008021,-0.11209813 -0.0186174,-0.15827427 -0.032323,-0.11519411 -0.0264605,0.083172 -0.0264605,0.23760416 0,0.23760416 0.013467,0 0.0271295,-0.0498401 0.032323,-0.12241005 z" id="path15873" inkscape:connector-curvature="0" sodipodi:nodetypes="ssssssscscsssccsscssssscsssssssssssss" />
</svg>