<?xml version="1.0" encoding="utf-8" standalone="no"?>
<svg xmlns:dc="http://purl.org/dc/elements/1.1/" xmlns:cc="http://creativecommons.org/ns#" xmlns:rdf="http://www.w3.org/1999/02/22-rdf-syntax-ns#" xmlns:svg="http://www.w3.org/2000/svg" xmlns="http://www.w3.org/2000/svg" xmlns:sodipodi="http://sodipodi.sourceforge.net/DTD/sodipodi-0.dtd" xmlns:inkscape="http://www.inkscape.org/namespaces/inkscape" height="1" version="1.1" width="1" id="svg2" inkscape:version="0.91 r13725" sodipodi:docname="牙形石.svg">
  <metadata id="metadata8">
    <rdf:RDF>
      <cc:Work rdf:about="">
        <dc:format>image/svg+xml</dc:format>
        <dc:type rdf:resource="http://purl.org/dc/dcmitype/StillImage" />
        <dc:title></dc:title>
      </cc:Work>
    </rdf:RDF>
  </metadata>
  <defs id="defs6">
    <pattern width="1" height="1" id="牙形石" patternContentUnits="objectBoundingBox">
      <path style="fill:#000000" d="m 0.21147799,0.88980851 c 0,-0.0181084 0.009721,-0.0392787 0.0216028,-0.0470452 0.0118818,-0.007766 0.0216028,-0.0424351 0.0216028,-0.0770409 0,-0.13776549 0.191064,-0.46384871 0.35506681,-0.60598237 0.15831755,-0.1372064 0.20665419,-0.10222629 0.11107339,0.0803811 -0.0624833,0.11937478 -0.11703064,0.33027494 -0.1057115,0.40871967 0.004469,0.0309753 0.0429738,0.0940622 0.0855656,0.14019397 0.0425917,0.0461314 0.0708889,0.0950858 0.0628828,0.1087865 -0.009246,0.0158223 -0.11261283,0.0249108 -0.28331988,0.0249108 -0.21960629,0 -0.26876329,-0.006023 -0.26876329,-0.032924 z m 0.4447767,-0.083078 C 0.62549079,0.76806251 0.59429039,0.71101481 0.58692049,0.67995826 0.56912169,0.60495556 0.61538099,0.36329672 0.66869429,0.25277112 0.69216169,0.20411992 0.70607109,0.15871822 0.69960399,0.15187836 0.68540683,0.13686248 0.50204011,0.33091304 0.42321296,0.4443726 0.34382063,0.55864521 0.29789019,0.68474315 0.29789019,0.78843357 l 0,0.0886023 0.20714932,0 0.20714955,0 -0.0559344,-0.070305 z" id="path28839" inkscape:connector-curvature="0" />
    </pattern>
  </defs>
  <sodipodi:namedview pagecolor="#ffffff" bordercolor="#666666" borderopacity="1" objecttolerance="10" gridtolerance="10" guidetolerance="10" inkscape:pageopacity="0" inkscape:pageshadow="2" inkscape:window-width="1600" inkscape:window-height="838" id="namedview4" showgrid="false" inkscape:zoom="90.509668" inkscape:cx="4.8502038" inkscape:cy="0.65246043" inkscape:window-x="-8" inkscape:window-y="-8" inkscape:window-maximized="1" inkscape:current-layer="svg2" />
  <path style="fill:#000000" d="m 0.21147799,0.88980851 c 0,-0.0181084 0.009721,-0.0392787 0.0216028,-0.0470452 0.0118818,-0.007766 0.0216028,-0.0424351 0.0216028,-0.0770409 0,-0.13776549 0.191064,-0.46384871 0.35506681,-0.60598237 0.15831755,-0.1372064 0.20665419,-0.10222629 0.11107339,0.0803811 -0.0624833,0.11937478 -0.11703064,0.33027494 -0.1057115,0.40871967 0.004469,0.0309753 0.0429738,0.0940622 0.0855656,0.14019397 0.0425917,0.0461314 0.0708889,0.0950858 0.0628828,0.1087865 -0.009246,0.0158223 -0.11261283,0.0249108 -0.28331988,0.0249108 -0.21960629,0 -0.26876329,-0.006023 -0.26876329,-0.032924 z m 0.4447767,-0.083078 C 0.62549079,0.76806251 0.59429039,0.71101481 0.58692049,0.67995826 0.56912169,0.60495556 0.61538099,0.36329672 0.66869429,0.25277112 0.69216169,0.20411992 0.70607109,0.15871822 0.69960399,0.15187836 0.68540683,0.13686248 0.50204011,0.33091304 0.42321296,0.4443726 0.34382063,0.55864521 0.29789019,0.68474315 0.29789019,0.78843357 l 0,0.0886023 0.20714932,0 0.20714955,0 -0.0559344,-0.070305 z" id="path28839" inkscape:connector-curvature="0" />
</svg>