<?xml version="1.0" encoding="utf-8" standalone="no"?>
<svg xmlns:dc="http://purl.org/dc/elements/1.1/" xmlns:cc="http://creativecommons.org/ns#" xmlns:rdf="http://www.w3.org/1999/02/22-rdf-syntax-ns#" xmlns:svg="http://www.w3.org/2000/svg" xmlns="http://www.w3.org/2000/svg" xmlns:sodipodi="http://sodipodi.sourceforge.net/DTD/sodipodi-0.dtd" xmlns:inkscape="http://www.inkscape.org/namespaces/inkscape" height="1" version="1.1" width="1" id="svg2" inkscape:version="0.91 r13725" sodipodi:docname="生长生态.svg">
  <metadata id="metadata8">
    <rdf:RDF>
      <cc:Work rdf:about="">
        <dc:format>image/svg+xml</dc:format>
        <dc:type rdf:resource="http://purl.org/dc/dcmitype/StillImage" />
        <dc:title />
      </cc:Work>
    </rdf:RDF>
  </metadata>
  <defs id="defs6">
    <pattern width="1" height="1" id="生长生态" patternContentUnits="objectBoundingBox">
      <path style="fill:#000000" d="m 0.13709111,0.67819614 c -0.0015,-0.00182 -0.00273,-0.017421 -0.00273,-0.034677 l 0,-0.031374 0.1618692,0 0.1618693,0 0,-0.1758605 c 0,-0.096723 0.00106,-0.1758604 0.00236,-0.1758604 0.00378,0 0.1533684,0.1443206 0.1532752,0.1478755 -4.63e-5,0.00177 -0.00788,0.013962 -0.017416,0.027095 l -0.017332,0.02388 -0.02933,-0.027595 c -0.016132,-0.015177 -0.030423,-0.027595 -0.031759,-0.027595 -0.00134,0 -0.00243,0.046789 -0.00243,0.1039763 l 0,0.1039764 0.1731386,0.00129 0.1731387,0.00129 0.00121,0.033438 0.00121,0.033438 -0.3621733,0 c -0.1991954,0 -0.3634028,-0.00149 -0.3649053,-0.0033 z" id="path4997" inkscape:connector-curvature="0" />
    </pattern>
  </defs>
  <path style="fill:#000000" d="m 0.13709111,0.67819614 c -0.0015,-0.00182 -0.00273,-0.017421 -0.00273,-0.034677 l 0,-0.031374 0.1618692,0 0.1618693,0 0,-0.1758605 c 0,-0.096723 0.00106,-0.1758604 0.00236,-0.1758604 0.00378,0 0.1533684,0.1443206 0.1532752,0.1478755 -4.63e-5,0.00177 -0.00788,0.013962 -0.017416,0.027095 l -0.017332,0.02388 -0.02933,-0.027595 c -0.016132,-0.015177 -0.030423,-0.027595 -0.031759,-0.027595 -0.00134,0 -0.00243,0.046789 -0.00243,0.1039763 l 0,0.1039764 0.1731386,0.00129 0.1731387,0.00129 0.00121,0.033438 0.00121,0.033438 -0.3621733,0 c -0.1991954,0 -0.3634028,-0.00149 -0.3649053,-0.0033 z" id="path4997" inkscape:connector-curvature="0" />
</svg>