<?xml version="1.0" encoding="utf-8" standalone="no"?>
<svg xmlns:dc="http://purl.org/dc/elements/1.1/" xmlns:cc="http://creativecommons.org/ns#" xmlns:rdf="http://www.w3.org/1999/02/22-rdf-syntax-ns#" xmlns:svg="http://www.w3.org/2000/svg" xmlns="http://www.w3.org/2000/svg" xmlns:sodipodi="http://sodipodi.sourceforge.net/DTD/sodipodi-0.dtd" xmlns:inkscape="http://www.inkscape.org/namespaces/inkscape" height="1" version="1.1" width="1" id="svg2" inkscape:version="0.91 r13725" sodipodi:docname="直壳鹦鹉螺.svg">
  <metadata id="metadata8">
    <rdf:RDF>
      <cc:Work rdf:about="">
        <dc:format>image/svg+xml</dc:format>
        <dc:type rdf:resource="http://purl.org/dc/dcmitype/StillImage" />
        <dc:title></dc:title>
      </cc:Work>
    </rdf:RDF>
  </metadata>
  <defs id="defs6">
    <pattern width="1" height="1" id="直壳鹦鹉螺" patternContentUnits="objectBoundingBox">
      <path sodipodi:nodetypes="cssssssscssccccccccsccsccccssccssccccccscscsccscssscc" inkscape:connector-curvature="0" id="path9394" d="m 0.38090489,0.85738507 c -0.00825,-0.0320723 -0.143325,-0.53102227 -0.1706154,-0.63024987 -0.012095,-0.043976 -0.019875,-0.079957 -0.01729,-0.079957 0.00259,0 0.052397,0.038097 0.1106916,0.08466 0.058295,0.046563 0.1150194,0.08466 0.126054,0.08466 0.012616,0 0.020063,-0.024442 0.020063,-0.065847 0,-0.036216 0.00696,-0.065847 0.01547,-0.065847 0.00983,0 0.014815,0.1286713 0.013675,0.3527518 -9.861e-4,0.19401346 -0.00522,0.33581967 -0.0094,0.31512483 -0.010989,-0.0543688 -0.034951,-0.0846603 -0.06697,-0.0846603 -0.023718,0 -0.025944,0.008573 -0.014656,0.0564402 0.012517,0.053079 0.00601,0.0835753 -0.007022,0.0329243 z m 0.08137,-0.18817927 c 0.00439,-0.062753 -4.594e-4,-0.071384 -0.066446,-0.1184153 -0.039148,-0.027901 -0.074141,-0.047126 -0.077762,-0.042723 -0.016554,0.020132 0.046693,0.2021004 0.076291,0.21949529 0.048425,0.0284605 0.062705,0.0161893 0.067917,-0.058357 z m -0.012467,-0.2191725 c 0,-0.083199 -0.00416,-0.094193 -0.042543,-0.1123136 -0.023398,-0.011048 -0.071909,-0.041229 -0.1078019,-0.06707 l -0.065259,-0.046983 0.00914,0.060526 c 0.014526,0.096232 0.056437,0.1700866 0.1222448,0.2154173 0.03356,0.023117 0.066239,0.04217 0.07262,0.042341 0.00638,1.663e-4 0.011602,-0.041193 0.0115991,-0.0919177 z m 0.066587,0.08282 c 2.69e-4,-0.1966003 -0.004583,-0.38430135 -0.001253,-0.34549865 0.0307638,0.0358507 0.030092,0.1252375 0.040936,0.1252375 0.023419,0 0.15124303,-0.0981099 0.19926027,-0.15183875 0.0375393,-0.042005 0.0437211,-0.025723 0.0195667,0.051538 -0.008382,0.026812 -0.018086,0.067577 -0.0215636,0.090588 -0.003477,0.023011 -0.0349076,0.1471592 -0.0698444,0.2758839 -0.0349368,0.1287248 -0.0635215,0.24463322 -0.0635215,0.25757439 0,0.0129408 -0.006514,0.0284252 -0.0144758,0.0344093 -0.00888,0.006672 -0.0093,-0.0110895 -0.00108,-0.0459235 0.0111216,-0.0471605 0.008984,-0.0567542 -0.012597,-0.0565152 -0.039852,4.491e-4 -0.060846,0.0233384 -0.068736,0.0749657 -0.00395,0.0258685 -0.00697,-0.11382109 -0.006692,-0.31042069 z m 0.078172,0.19534 c 0.0271223,-0.0150283 0.0443477,-0.0485221 0.060472,-0.1175839 0.0124006,-0.053113 0.0207642,-0.099201 0.0185856,-0.1024169 -0.002178,-0.00322 -0.0358337,0.013716 -0.0747891,0.037627 -0.064099,0.039344 -0.070868,0.049878 -0.071253,0.1108888 -3.698e-4,0.058259 0.00875,0.0924995 0.024631,0.0924995 0.00244,0 0.021495,-0.009456 0.0423535,-0.0210145 z m 0.0710171,-0.263439 c 0.031717,-0.028517 0.0505889,-0.068129 0.0634,-0.1330719 0.0100325,-0.050858 0.0156932,-0.095566 0.0125801,-0.099352 -0.003113,-0.00379 -0.0353069,0.0177 -0.0715414,0.047747 -0.0362345,0.030047 -0.0832025,0.059917 -0.1043731,0.066379 -0.033411,0.010198 -0.038492,0.022241 -0.038492,0.091234 0,0.043717 0.0042,0.084589 0.00933,0.090827 0.01285,0.015627 0.0748757,-0.015008 0.1290964,-0.0637631 z" style="fill:#000000" />
    </pattern>
  </defs>
  <sodipodi:namedview pagecolor="#ffffff" bordercolor="#666666" borderopacity="1" objecttolerance="10" gridtolerance="10" guidetolerance="10" inkscape:pageopacity="0" inkscape:pageshadow="2" inkscape:window-width="1600" inkscape:window-height="838" id="namedview4" showgrid="false" inkscape:zoom="256" inkscape:cx="0.5" inkscape:cy="0.5" inkscape:window-x="-8" inkscape:window-y="-8" inkscape:window-maximized="1" inkscape:current-layer="svg2" />
  <g id="g9519">
    <path sodipodi:nodetypes="cssssssscssccccccccsccsccccssccssccccccscscsccscssscc" inkscape:connector-curvature="0" id="path9394" d="m 0.38090489,0.85738507 c -0.00825,-0.0320723 -0.143325,-0.53102227 -0.1706154,-0.63024987 -0.012095,-0.043976 -0.019875,-0.079957 -0.01729,-0.079957 0.00259,0 0.052397,0.038097 0.1106916,0.08466 0.058295,0.046563 0.1150194,0.08466 0.126054,0.08466 0.012616,0 0.020063,-0.024442 0.020063,-0.065847 0,-0.036216 0.00696,-0.065847 0.01547,-0.065847 0.00983,0 0.014815,0.1286713 0.013675,0.3527518 -9.861e-4,0.19401346 -0.00522,0.33581967 -0.0094,0.31512483 -0.010989,-0.0543688 -0.034951,-0.0846603 -0.06697,-0.0846603 -0.023718,0 -0.025944,0.008573 -0.014656,0.0564402 0.012517,0.053079 0.00601,0.0835753 -0.007022,0.0329243 z m 0.08137,-0.18817927 c 0.00439,-0.062753 -4.594e-4,-0.071384 -0.066446,-0.1184153 -0.039148,-0.027901 -0.074141,-0.047126 -0.077762,-0.042723 -0.016554,0.020132 0.046693,0.2021004 0.076291,0.21949529 0.048425,0.0284605 0.062705,0.0161893 0.067917,-0.058357 z m -0.012467,-0.2191725 c 0,-0.083199 -0.00416,-0.094193 -0.042543,-0.1123136 -0.023398,-0.011048 -0.071909,-0.041229 -0.1078019,-0.06707 l -0.065259,-0.046983 0.00914,0.060526 c 0.014526,0.096232 0.056437,0.1700866 0.1222448,0.2154173 0.03356,0.023117 0.066239,0.04217 0.07262,0.042341 0.00638,1.663e-4 0.011602,-0.041193 0.0115991,-0.0919177 z m 0.066587,0.08282 c 2.69e-4,-0.1966003 -0.004583,-0.38430135 -0.001253,-0.34549865 0.0307638,0.0358507 0.030092,0.1252375 0.040936,0.1252375 0.023419,0 0.15124303,-0.0981099 0.19926027,-0.15183875 0.0375393,-0.042005 0.0437211,-0.025723 0.0195667,0.051538 -0.008382,0.026812 -0.018086,0.067577 -0.0215636,0.090588 -0.003477,0.023011 -0.0349076,0.1471592 -0.0698444,0.2758839 -0.0349368,0.1287248 -0.0635215,0.24463322 -0.0635215,0.25757439 0,0.0129408 -0.006514,0.0284252 -0.0144758,0.0344093 -0.00888,0.006672 -0.0093,-0.0110895 -0.00108,-0.0459235 0.0111216,-0.0471605 0.008984,-0.0567542 -0.012597,-0.0565152 -0.039852,4.491e-4 -0.060846,0.0233384 -0.068736,0.0749657 -0.00395,0.0258685 -0.00697,-0.11382109 -0.006692,-0.31042069 z m 0.078172,0.19534 c 0.0271223,-0.0150283 0.0443477,-0.0485221 0.060472,-0.1175839 0.0124006,-0.053113 0.0207642,-0.099201 0.0185856,-0.1024169 -0.002178,-0.00322 -0.0358337,0.013716 -0.0747891,0.037627 -0.064099,0.039344 -0.070868,0.049878 -0.071253,0.1108888 -3.698e-4,0.058259 0.00875,0.0924995 0.024631,0.0924995 0.00244,0 0.021495,-0.009456 0.0423535,-0.0210145 z m 0.0710171,-0.263439 c 0.031717,-0.028517 0.0505889,-0.068129 0.0634,-0.1330719 0.0100325,-0.050858 0.0156932,-0.095566 0.0125801,-0.099352 -0.003113,-0.00379 -0.0353069,0.0177 -0.0715414,0.047747 -0.0362345,0.030047 -0.0832025,0.059917 -0.1043731,0.066379 -0.033411,0.010198 -0.038492,0.022241 -0.038492,0.091234 0,0.043717 0.0042,0.084589 0.00933,0.090827 0.01285,0.015627 0.0748757,-0.015008 0.1290964,-0.0637631 z" style="fill:#000000" />
  </g>
</svg>