<?xml version="1.0" encoding="utf-8" standalone="no"?>
<svg xmlns:dc="http://purl.org/dc/elements/1.1/" xmlns:cc="http://creativecommons.org/ns#" xmlns:rdf="http://www.w3.org/1999/02/22-rdf-syntax-ns#" xmlns:svg="http://www.w3.org/2000/svg" xmlns="http://www.w3.org/2000/svg" xmlns:sodipodi="http://sodipodi.sourceforge.net/DTD/sodipodi-0.dtd" xmlns:inkscape="http://www.inkscape.org/namespaces/inkscape" height="1" version="1.1" width="1" id="svg2" inkscape:version="0.91 r13725" sodipodi:docname="红藻.svg">
  <metadata id="metadata8">
    <rdf:RDF>
      <cc:Work rdf:about="">
        <dc:format>image/svg+xml</dc:format>
        <dc:type rdf:resource="http://purl.org/dc/dcmitype/StillImage" />
        <dc:title></dc:title>
      </cc:Work>
    </rdf:RDF>
  </metadata>
  <defs id="defs6">
    <pattern width="1" height="1" id="红藻" patternContentUnits="objectBoundingBox">
      <path style="fill:#000000" d="m 0.41687568,0.58256272 c -0.009656,-0.0367363 -0.0217391,-0.0725016 -0.0320499,-0.1068891 -0.0326992,-0.0604601 -0.058481,-0.12589574 -0.0864095,-0.18601934 -0.0547933,-0.0981621 -0.0562766,-0.1029315 -0.0427399,-0.13743092 0.0381578,-0.09724871 0.17243628,0.0371881 0.21165109,0.21190055 0.0221413,0.12399907 0.0641294,-0.11503021 0.10823605,-0.17237904 0.0390168,-0.0555409 0.0746625,-0.0526858 0.10062125,-0.0486345 0.0632654,0.15322234 -0.0851111,0.26878711 -0.1379646,0.43277804 -0.006128,0.0270197 -0.0155876,0.14835426 -0.0210214,0.21234079 4.7948e-4,0.0305465 -0.011498,0.0131339 -0.017247,0.0431384 -0.0362815,-0.12963733 0.0308288,-0.33757031 0.0564241,-0.38222819 0.006696,-0.0116822 0.0354686,-0.0571635 0.0639398,-0.10106902 0.0729511,-0.11249842 0.0602712,-0.1488556 0.0449807,-0.16971137 -0.12641661,-0.006245 -0.0787195,0.13850992 -0.13734076,0.21785596 -0.0184549,0.053322 -0.0381204,0.0969492 -0.0437012,0.0969492 -0.0106116,0 -0.0351173,-0.0826368 -0.0351173,-0.11842079 0,-0.0447683 -0.0698615,-0.17382226 -0.10716718,-0.19796817 -0.0782953,-0.050676 -0.0946192,-0.0254418 -0.0426737,0.0659667 0.0176668,0.031088 0.0449606,0.0879353 0.0606527,0.12632717 0.0787709,0.12545403 0.0700535,0.28689117 0.1005608,0.41182818 -0.0502224,0.11049055 -0.0271847,-0.12356538 -0.043634,-0.19833455 z" id="path23126" inkscape:connector-curvature="0" sodipodi:nodetypes="cccscccccccsccssssccc" />
    </pattern>
  </defs>
  <sodipodi:namedview pagecolor="#ffffff" bordercolor="#666666" borderopacity="1" objecttolerance="10" gridtolerance="10" guidetolerance="10" inkscape:pageopacity="0" inkscape:pageshadow="2" inkscape:window-width="1600" inkscape:window-height="838" id="namedview4" showgrid="false" inkscape:zoom="256" inkscape:cx="0.5" inkscape:cy="0.5" inkscape:window-x="-8" inkscape:window-y="-8" inkscape:window-maximized="1" inkscape:current-layer="svg2" />
  <path style="fill:#000000" d="m 0.41687568,0.58256272 c -0.009656,-0.0367363 -0.0217391,-0.0725016 -0.0320499,-0.1068891 -0.0326992,-0.0604601 -0.058481,-0.12589574 -0.0864095,-0.18601934 -0.0547933,-0.0981621 -0.0562766,-0.1029315 -0.0427399,-0.13743092 0.0381578,-0.09724871 0.17243628,0.0371881 0.21165109,0.21190055 0.0221413,0.12399907 0.0641294,-0.11503021 0.10823605,-0.17237904 0.0390168,-0.0555409 0.0746625,-0.0526858 0.10062125,-0.0486345 0.0632654,0.15322234 -0.0851111,0.26878711 -0.1379646,0.43277804 -0.006128,0.0270197 -0.0155876,0.14835426 -0.0210214,0.21234079 4.7948e-4,0.0305465 -0.011498,0.0131339 -0.017247,0.0431384 -0.0362815,-0.12963733 0.0308288,-0.33757031 0.0564241,-0.38222819 0.006696,-0.0116822 0.0354686,-0.0571635 0.0639398,-0.10106902 0.0729511,-0.11249842 0.0602712,-0.1488556 0.0449807,-0.16971137 -0.12641661,-0.006245 -0.0787195,0.13850992 -0.13734076,0.21785596 -0.0184549,0.053322 -0.0381204,0.0969492 -0.0437012,0.0969492 -0.0106116,0 -0.0351173,-0.0826368 -0.0351173,-0.11842079 0,-0.0447683 -0.0698615,-0.17382226 -0.10716718,-0.19796817 -0.0782953,-0.050676 -0.0946192,-0.0254418 -0.0426737,0.0659667 0.0176668,0.031088 0.0449606,0.0879353 0.0606527,0.12632717 0.0787709,0.12545403 0.0700535,0.28689117 0.1005608,0.41182818 -0.0502224,0.11049055 -0.0271847,-0.12356538 -0.043634,-0.19833455 z" id="path23126" inkscape:connector-curvature="0" sodipodi:nodetypes="cccscccccccsccssssccc" />
</svg>