<?xml version="1.0" encoding="utf-8" standalone="no"?>
<svg xmlns:dc="http://purl.org/dc/elements/1.1/" xmlns:cc="http://creativecommons.org/ns#" xmlns:rdf="http://www.w3.org/1999/02/22-rdf-syntax-ns#" xmlns:svg="http://www.w3.org/2000/svg" xmlns="http://www.w3.org/2000/svg" xmlns:sodipodi="http://sodipodi.sourceforge.net/DTD/sodipodi-0.dtd" xmlns:inkscape="http://www.inkscape.org/namespaces/inkscape" height="1" version="1.1" width="1" id="svg2" inkscape:version="0.91 r13725" sodipodi:docname="腹足类.svg">
  <metadata id="metadata8">
    <rdf:RDF>
      <cc:Work rdf:about="">
        <dc:format>image/svg+xml</dc:format>
        <dc:type rdf:resource="http://purl.org/dc/dcmitype/StillImage" />
        <dc:title></dc:title>
      </cc:Work>
    </rdf:RDF>
  </metadata>
  <defs id="defs6">
    <pattern width="1" height="1" id="腹足类" patternContentUnits="objectBoundingBox">
      <path style="fill:#000000" d="m 0.30399845,0.89336044 c -0.0128687,-0.00947 -0.0233974,-0.038525 -0.0233974,-0.0645676 0,-0.026042 -0.0138773,-0.0473494 -0.0308381,-0.0473494 -0.0169609,0 -0.0502293,-0.0344508 -0.07393,-0.0765578 -0.0371396,-0.0659826 -0.03288,-0.092082 0.0308381,-0.18894339 0.0406615,-0.0618123 0.07393,-0.12148758 0.07393,-0.13261231 0,-0.0111246 0.0226169,-0.0568492 0.0502599,-0.1016105 0.0276426,-0.0447612 0.0554421,-0.10462864 0.0617763,-0.13303839 0.021006,-0.0942144 0.14260575,-0.0701806 0.28503358,0.056336 0.12223251,0.10857741 0.13177893,0.12810492 0.10998612,0.22498341 -0.0131254,0.0583474 -0.0407163,0.12933048 -0.0613133,0.15774023 -0.0205973,0.0284098 -0.0332904,0.0958294 -0.0282071,0.14982155 0.005085,0.0539922 -0.009751,0.11500857 -0.0329642,0.13559193 -0.0426707,0.0378368 -0.31640582,0.053151 -0.36117352,0.0202064 z m 0.29847672,-0.0513524 c 0.0641943,-0.0427518 0.0844318,-0.11453435 0.0412493,-0.14631248 -0.0177421,-0.0130565 -0.1938627,0.0492331 -0.28849332,0.10203255 -0.00721,0.004025 -0.003758,0.0252489 0.007673,0.047169 0.0273587,0.0524666 0.15883272,0.0508811 0.23957132,-0.002888 z M 0.49185165,0.67788189 c 0.15356481,-0.0576525 0.24499683,-0.16310317 0.24499683,-0.28256141 0,-0.0840257 -0.0371846,-0.1004107 -0.10048818,-0.0442789 -0.0213899,0.0189668 -0.10208571,0.0498324 -0.17932348,0.0685912 -0.15298011,0.0371542 -0.2466277,0.11862074 -0.2466277,0.21454882 0,0.11172743 0.0709138,0.12273854 0.28144253,0.0437004 z m 0.0344211,-0.33549811 c 0.11429033,-0.0657887 0.0684217,-0.0658455 -0.0781176,-1.0283e-4 -0.0632004,0.0283558 -0.0912203,0.0513416 -0.0622662,0.051079 0.0289542,-2.6732e-4 0.0921269,-0.0232051 0.14038383,-0.0509833 z M 0.50722585,0.16337922 c 0.0111058,-0.0132234 0.004141,-0.0313425 -0.0154766,-0.0402648 -0.0196176,-0.008922 -0.0356684,0.001898 -0.0356684,0.0240422 0,0.0453659 0.0210593,0.0520456 0.051145,0.0162225 z" id="path5382" inkscape:connector-curvature="0" />
    </pattern>
  </defs>
  <sodipodi:namedview pagecolor="#ffffff" bordercolor="#666666" borderopacity="1" objecttolerance="10" gridtolerance="10" guidetolerance="10" inkscape:pageopacity="0" inkscape:pageshadow="2" inkscape:window-width="1600" inkscape:window-height="838" id="namedview4" showgrid="false" inkscape:zoom="256" inkscape:cx="0.74843227" inkscape:cy="0.082214151" inkscape:window-x="-8" inkscape:window-y="-8" inkscape:window-maximized="1" inkscape:current-layer="svg2" />
  <path style="fill:#000000" d="m 0.30399845,0.89336044 c -0.0128687,-0.00947 -0.0233974,-0.038525 -0.0233974,-0.0645676 0,-0.026042 -0.0138773,-0.0473494 -0.0308381,-0.0473494 -0.0169609,0 -0.0502293,-0.0344508 -0.07393,-0.0765578 -0.0371396,-0.0659826 -0.03288,-0.092082 0.0308381,-0.18894339 0.0406615,-0.0618123 0.07393,-0.12148758 0.07393,-0.13261231 0,-0.0111246 0.0226169,-0.0568492 0.0502599,-0.1016105 0.0276426,-0.0447612 0.0554421,-0.10462864 0.0617763,-0.13303839 0.021006,-0.0942144 0.14260575,-0.0701806 0.28503358,0.056336 0.12223251,0.10857741 0.13177893,0.12810492 0.10998612,0.22498341 -0.0131254,0.0583474 -0.0407163,0.12933048 -0.0613133,0.15774023 -0.0205973,0.0284098 -0.0332904,0.0958294 -0.0282071,0.14982155 0.005085,0.0539922 -0.009751,0.11500857 -0.0329642,0.13559193 -0.0426707,0.0378368 -0.31640582,0.053151 -0.36117352,0.0202064 z m 0.29847672,-0.0513524 c 0.0641943,-0.0427518 0.0844318,-0.11453435 0.0412493,-0.14631248 -0.0177421,-0.0130565 -0.1938627,0.0492331 -0.28849332,0.10203255 -0.00721,0.004025 -0.003758,0.0252489 0.007673,0.047169 0.0273587,0.0524666 0.15883272,0.0508811 0.23957132,-0.002888 z M 0.49185165,0.67788189 c 0.15356481,-0.0576525 0.24499683,-0.16310317 0.24499683,-0.28256141 0,-0.0840257 -0.0371846,-0.1004107 -0.10048818,-0.0442789 -0.0213899,0.0189668 -0.10208571,0.0498324 -0.17932348,0.0685912 -0.15298011,0.0371542 -0.2466277,0.11862074 -0.2466277,0.21454882 0,0.11172743 0.0709138,0.12273854 0.28144253,0.0437004 z m 0.0344211,-0.33549811 c 0.11429033,-0.0657887 0.0684217,-0.0658455 -0.0781176,-1.0283e-4 -0.0632004,0.0283558 -0.0912203,0.0513416 -0.0622662,0.051079 0.0289542,-2.6732e-4 0.0921269,-0.0232051 0.14038383,-0.0509833 z M 0.50722585,0.16337922 c 0.0111058,-0.0132234 0.004141,-0.0313425 -0.0154766,-0.0402648 -0.0196176,-0.008922 -0.0356684,0.001898 -0.0356684,0.0240422 0,0.0453659 0.0210593,0.0520456 0.051145,0.0162225 z" id="path5382" inkscape:connector-curvature="0" />
</svg>