<?xml version="1.0" encoding="utf-8" standalone="no"?>
<svg xmlns:dc="http://purl.org/dc/elements/1.1/" xmlns:cc="http://creativecommons.org/ns#" xmlns:rdf="http://www.w3.org/1999/02/22-rdf-syntax-ns#" xmlns:svg="http://www.w3.org/2000/svg" xmlns="http://www.w3.org/2000/svg" xmlns:sodipodi="http://sodipodi.sourceforge.net/DTD/sodipodi-0.dtd" xmlns:inkscape="http://www.inkscape.org/namespaces/inkscape" height="1" version="1.1" width="1" id="svg2" inkscape:version="0.91 r13725" sodipodi:docname="蓝藻.svg">
  <metadata id="metadata8">
    <rdf:RDF>
      <cc:Work rdf:about="">
        <dc:format>image/svg+xml</dc:format>
        <dc:type rdf:resource="http://purl.org/dc/dcmitype/StillImage" />
        <dc:title></dc:title>
      </cc:Work>
    </rdf:RDF>
  </metadata>
  <defs id="defs6">
    <pattern width="1" height="1" id="蓝藻" patternContentUnits="objectBoundingBox">
      <path style="fill:#000000" d="m 0.29368029,0.94829291 c -0.0225595,-0.0118682 -0.0435947,-0.0476394 -0.0587765,-0.0999515 -0.016116,-0.0555311 -0.0164352,-0.0948706 -9.5309e-4,-0.11742395 0.0120677,-0.0175791 0.02457,-0.017588 0.0444258,-3.046e-5 L 0.2925488,0.7434189 0.29244633,0.7201607 C 0.29220211,0.6649866 0.31864083,0.6426928 0.34983873,0.6717659 l 0.0168717,0.0157228 -0.004992,-0.0262655 c -0.003611,-0.0189992 -0.003266,-0.0322279 0.001248,-0.047818 0.009027,-0.0311748 0.0286951,-0.0348892 0.0581882,-0.0109894 l 0.0111041,0.008999 -0.006188,-0.021607 c -0.008961,-0.0312917 -0.007958,-0.0690892 0.002226,-0.0838694 0.0104128,-0.0151123 0.0254123,-0.0157051 0.049163,-0.001942 l 0.017091,0.009904 -0.005189,-0.0179605 c -0.0129286,-0.0447349 -0.009808,-0.0929788 0.006777,-0.10473106 0.0104003,-0.007368 0.0283343,-0.003529 0.0438564,0.009389 l 0.0111973,0.00932 -0.00704,-0.0243415 c -0.0169682,-0.0586544 -0.0121003,-0.10339923 0.0120138,-0.11035716 0.00733,-0.002119 0.0198441,-4.1948e-4 0.027807,0.003769 l 0.0144778,0.007616 -0.004817,-0.0165969 c -0.008514,-0.0293381 -0.006768,-0.0569735 0.004435,-0.0701417 0.0120693,-0.0141881 0.0258745,-0.0146741 0.0476649,-0.001679 l 0.0154772,0.00923 -0.0123887,-0.0364379 c -0.0407279,-0.11980015 0.0341879,-0.14567818 0.10687154,-0.0369169 0.0384867,0.05759 0.0547034,0.11053963 0.0451925,0.14755452 -0.004255,0.0165529 -0.007545,0.0201653 -0.0222583,0.0244353 -0.0126753,0.003679 -0.0217352,0.002347 -0.0340816,-0.005018 -0.009249,-0.005516 -0.0173794,-0.009865 -0.0180677,-0.009665 -6.8939e-4,2.0007e-4 0.003035,0.0145499 0.008275,0.0318888 0.0228136,0.0754947 -0.004143,0.11505973 -0.0549348,0.0806337 l -0.0155265,-0.0105241 0.008031,0.0333005 c 0.0169077,0.0700776 -0.00955,0.10884432 -0.0523671,0.0767371 l -0.0146159,-0.0109598 0.009783,0.0337098 c 0.0107201,0.0369385 0.0121475,0.0752708 0.003298,0.0885896 -0.009813,0.0147691 -0.0312271,0.0162598 -0.0510407,0.003554 l -0.0187029,-0.0119935 0.007143,0.0305044 c 0.0167481,0.0715153 -0.012585,0.10599323 -0.0586576,0.0689485 l -0.0194006,-0.0155992 0.005573,0.0192035 c 0.009595,0.033062 0.0114349,0.0545819 0.006354,0.0743531 -0.009492,0.0369413 -0.0456949,0.0312024 -0.0780479,-0.0123716 l -0.0169866,-0.0228781 0.007656,0.0339324 c 0.0182656,0.0809565 -0.005997,0.13235496 -0.0472489,0.10009225 l -0.0164223,-0.0128436 2.3543e-4,0.0232392 c 2.946e-4,0.0290329 -0.009778,0.0565016 -0.0220098,0.0600221 -0.005121,0.001478 -0.0155545,-6.0365e-4 -0.0231829,-0.004617 z m 0.0221764,-0.0286044 c 0.009298,-0.0101153 0.007173,-0.0522476 -0.004707,-0.0933156 -0.0113478,-0.0392204 -0.0197729,-0.0551079 -0.0390663,-0.0736432 -0.0289601,-0.0278229 -0.041325,0.0227978 -0.02191,0.0896965 0.0189306,0.0652295 0.046709,0.0979045 0.0656837,0.0772623 z m 0.0713111,-0.0650784 c 0.0171074,-0.041019 -0.0184376,-0.15070907 -0.0552631,-0.1705407 -0.0215171,-0.0115873 -0.0287445,0.041044 -0.0130941,0.0953533 0.0122416,0.0424798 0.0252235,0.06695 0.04232,0.0797701 0.0177447,0.0133063 0.0186427,0.0131481 0.0260378,-0.004582 z m 0.0864069,-0.0909202 c 0.005095,-0.0320806 -0.0211902,-0.0993578 -0.0509846,-0.13049673 -0.0415844,-0.0434605 -0.0591709,-0.012475 -0.0337444,0.0594534 0.0131542,0.0372136 0.0326438,0.0673865 0.0537449,0.0832098 0.0182307,0.0136705 0.027456,0.0100482 0.0309836,-0.0121678 z m 0.0662477,-0.0770355 c 0.001644,-0.003001 0.00274,-0.0158282 0.002437,-0.0285036 -0.001891,-0.0790955 -0.0925132,-0.18128598 -0.10426064,-0.11757058 -0.004591,0.0248984 0.0156349,0.0854219 0.0391553,0.11716537 0.0259532,0.0350286 0.0525909,0.0473161 0.0626693,0.0289083 z m 0.0655851,-0.10090805 c 0.006504,-0.0358435 -0.0164786,-0.10188096 -0.049162,-0.1412621 -0.046373,-0.0558756 -0.0721426,-0.0316197 -0.0494563,0.0465511 0.0113154,0.0389897 0.0313917,0.0733931 0.0560559,0.0960571 0.0254195,0.0233585 0.038153,0.0229558 0.0425626,-0.001346 z m 0.053607,-0.12167448 c 0.003886,-0.024501 -0.0116129,-0.0757573 -0.0338489,-0.11194083 -0.0168175,-0.0273653 -0.0503635,-0.0584873 -0.0600223,-0.0556841 -0.003014,8.746e-4 -0.008066,0.0105222 -0.0112274,0.0214399 -0.005609,0.0193716 -0.005413,0.0208571 0.008148,0.0617438 0.0299754,0.0903776 0.0879944,0.14091082 0.0969516,0.0844412 z m 0.0658936,-0.0932288 c 0.006833,-0.0373525 -0.0348157,-0.11724963 -0.075486,-0.14481658 -0.0371331,-0.0251679 -0.0532434,-0.005016 -0.0376453,0.0470891 0.0143608,0.0479706 0.0477568,0.0940062 0.0813615,0.11215373 0.0186766,0.010086 0.0280658,0.005822 0.0317697,-0.0144264 z m 0.0596395,-0.10676191 c 0.002746,-0.014884 0.001509,-0.0223051 -0.008769,-0.0526182 -0.0235624,-0.0694894 -0.0764818,-0.12689301 -0.10843466,-0.1176198 -0.024674,0.007161 -0.0124884,0.0703404 0.0242872,0.12592172 0.0219117,0.0331167 0.0406016,0.0514526 0.0616086,0.0604429 0.0188118,0.00805 0.027691,0.003476 0.0313075,-0.0161269 z" id="path4169" inkscape:connector-curvature="0" />
    </pattern>
  </defs>
  <sodipodi:namedview pagecolor="#ffffff" bordercolor="#666666" borderopacity="1" objecttolerance="10" gridtolerance="10" guidetolerance="10" inkscape:pageopacity="0" inkscape:pageshadow="2" inkscape:window-width="1680" inkscape:window-height="988" id="namedview4" showgrid="false" inkscape:zoom="256" inkscape:cx="0.5" inkscape:cy="0.5" inkscape:window-x="-8" inkscape:window-y="-8" inkscape:window-maximized="1" inkscape:current-layer="svg2" />
  <path style="fill:#000000" d="m 0.29368029,0.94829291 c -0.0225595,-0.0118682 -0.0435947,-0.0476394 -0.0587765,-0.0999515 -0.016116,-0.0555311 -0.0164352,-0.0948706 -9.5309e-4,-0.11742395 0.0120677,-0.0175791 0.02457,-0.017588 0.0444258,-3.046e-5 L 0.2925488,0.7434189 0.29244633,0.7201607 C 0.29220211,0.6649866 0.31864083,0.6426928 0.34983873,0.6717659 l 0.0168717,0.0157228 -0.004992,-0.0262655 c -0.003611,-0.0189992 -0.003266,-0.0322279 0.001248,-0.047818 0.009027,-0.0311748 0.0286951,-0.0348892 0.0581882,-0.0109894 l 0.0111041,0.008999 -0.006188,-0.021607 c -0.008961,-0.0312917 -0.007958,-0.0690892 0.002226,-0.0838694 0.0104128,-0.0151123 0.0254123,-0.0157051 0.049163,-0.001942 l 0.017091,0.009904 -0.005189,-0.0179605 c -0.0129286,-0.0447349 -0.009808,-0.0929788 0.006777,-0.10473106 0.0104003,-0.007368 0.0283343,-0.003529 0.0438564,0.009389 l 0.0111973,0.00932 -0.00704,-0.0243415 c -0.0169682,-0.0586544 -0.0121003,-0.10339923 0.0120138,-0.11035716 0.00733,-0.002119 0.0198441,-4.1948e-4 0.027807,0.003769 l 0.0144778,0.007616 -0.004817,-0.0165969 c -0.008514,-0.0293381 -0.006768,-0.0569735 0.004435,-0.0701417 0.0120693,-0.0141881 0.0258745,-0.0146741 0.0476649,-0.001679 l 0.0154772,0.00923 -0.0123887,-0.0364379 c -0.0407279,-0.11980015 0.0341879,-0.14567818 0.10687154,-0.0369169 0.0384867,0.05759 0.0547034,0.11053963 0.0451925,0.14755452 -0.004255,0.0165529 -0.007545,0.0201653 -0.0222583,0.0244353 -0.0126753,0.003679 -0.0217352,0.002347 -0.0340816,-0.005018 -0.009249,-0.005516 -0.0173794,-0.009865 -0.0180677,-0.009665 -6.8939e-4,2.0007e-4 0.003035,0.0145499 0.008275,0.0318888 0.0228136,0.0754947 -0.004143,0.11505973 -0.0549348,0.0806337 l -0.0155265,-0.0105241 0.008031,0.0333005 c 0.0169077,0.0700776 -0.00955,0.10884432 -0.0523671,0.0767371 l -0.0146159,-0.0109598 0.009783,0.0337098 c 0.0107201,0.0369385 0.0121475,0.0752708 0.003298,0.0885896 -0.009813,0.0147691 -0.0312271,0.0162598 -0.0510407,0.003554 l -0.0187029,-0.0119935 0.007143,0.0305044 c 0.0167481,0.0715153 -0.012585,0.10599323 -0.0586576,0.0689485 l -0.0194006,-0.0155992 0.005573,0.0192035 c 0.009595,0.033062 0.0114349,0.0545819 0.006354,0.0743531 -0.009492,0.0369413 -0.0456949,0.0312024 -0.0780479,-0.0123716 l -0.0169866,-0.0228781 0.007656,0.0339324 c 0.0182656,0.0809565 -0.005997,0.13235496 -0.0472489,0.10009225 l -0.0164223,-0.0128436 2.3543e-4,0.0232392 c 2.946e-4,0.0290329 -0.009778,0.0565016 -0.0220098,0.0600221 -0.005121,0.001478 -0.0155545,-6.0365e-4 -0.0231829,-0.004617 z m 0.0221764,-0.0286044 c 0.009298,-0.0101153 0.007173,-0.0522476 -0.004707,-0.0933156 -0.0113478,-0.0392204 -0.0197729,-0.0551079 -0.0390663,-0.0736432 -0.0289601,-0.0278229 -0.041325,0.0227978 -0.02191,0.0896965 0.0189306,0.0652295 0.046709,0.0979045 0.0656837,0.0772623 z m 0.0713111,-0.0650784 c 0.0171074,-0.041019 -0.0184376,-0.15070907 -0.0552631,-0.1705407 -0.0215171,-0.0115873 -0.0287445,0.041044 -0.0130941,0.0953533 0.0122416,0.0424798 0.0252235,0.06695 0.04232,0.0797701 0.0177447,0.0133063 0.0186427,0.0131481 0.0260378,-0.004582 z m 0.0864069,-0.0909202 c 0.005095,-0.0320806 -0.0211902,-0.0993578 -0.0509846,-0.13049673 -0.0415844,-0.0434605 -0.0591709,-0.012475 -0.0337444,0.0594534 0.0131542,0.0372136 0.0326438,0.0673865 0.0537449,0.0832098 0.0182307,0.0136705 0.027456,0.0100482 0.0309836,-0.0121678 z m 0.0662477,-0.0770355 c 0.001644,-0.003001 0.00274,-0.0158282 0.002437,-0.0285036 -0.001891,-0.0790955 -0.0925132,-0.18128598 -0.10426064,-0.11757058 -0.004591,0.0248984 0.0156349,0.0854219 0.0391553,0.11716537 0.0259532,0.0350286 0.0525909,0.0473161 0.0626693,0.0289083 z m 0.0655851,-0.10090805 c 0.006504,-0.0358435 -0.0164786,-0.10188096 -0.049162,-0.1412621 -0.046373,-0.0558756 -0.0721426,-0.0316197 -0.0494563,0.0465511 0.0113154,0.0389897 0.0313917,0.0733931 0.0560559,0.0960571 0.0254195,0.0233585 0.038153,0.0229558 0.0425626,-0.001346 z m 0.053607,-0.12167448 c 0.003886,-0.024501 -0.0116129,-0.0757573 -0.0338489,-0.11194083 -0.0168175,-0.0273653 -0.0503635,-0.0584873 -0.0600223,-0.0556841 -0.003014,8.746e-4 -0.008066,0.0105222 -0.0112274,0.0214399 -0.005609,0.0193716 -0.005413,0.0208571 0.008148,0.0617438 0.0299754,0.0903776 0.0879944,0.14091082 0.0969516,0.0844412 z m 0.0658936,-0.0932288 c 0.006833,-0.0373525 -0.0348157,-0.11724963 -0.075486,-0.14481658 -0.0371331,-0.0251679 -0.0532434,-0.005016 -0.0376453,0.0470891 0.0143608,0.0479706 0.0477568,0.0940062 0.0813615,0.11215373 0.0186766,0.010086 0.0280658,0.005822 0.0317697,-0.0144264 z m 0.0596395,-0.10676191 c 0.002746,-0.014884 0.001509,-0.0223051 -0.008769,-0.0526182 -0.0235624,-0.0694894 -0.0764818,-0.12689301 -0.10843466,-0.1176198 -0.024674,0.007161 -0.0124884,0.0703404 0.0242872,0.12592172 0.0219117,0.0331167 0.0406016,0.0514526 0.0616086,0.0604429 0.0188118,0.00805 0.027691,0.003476 0.0313075,-0.0161269 z" id="path4169" inkscape:connector-curvature="0" />
</svg>