<?xml version="1.0" encoding="utf-8" standalone="no"?>
<svg xmlns:dc="http://purl.org/dc/elements/1.1/" xmlns:cc="http://creativecommons.org/ns#" xmlns:rdf="http://www.w3.org/1999/02/22-rdf-syntax-ns#" xmlns:svg="http://www.w3.org/2000/svg" xmlns="http://www.w3.org/2000/svg" xmlns:sodipodi="http://sodipodi.sourceforge.net/DTD/sodipodi-0.dtd" xmlns:inkscape="http://www.inkscape.org/namespaces/inkscape" height="1" version="1.1" width="1" id="svg2" inkscape:version="0.91 r13725" sodipodi:docname="软舌螺.svg">
  <metadata id="metadata8">
    <rdf:RDF>
      <cc:Work rdf:about="">
        <dc:format>image/svg+xml</dc:format>
        <dc:type rdf:resource="http://purl.org/dc/dcmitype/StillImage" />
        <dc:title></dc:title>
      </cc:Work>
    </rdf:RDF>
  </metadata>
  <defs id="defs6">
    <pattern width="1" height="1" id="软舌螺" patternContentUnits="objectBoundingBox">
      <path style="fill:#000000" d="M 0.60838166,0.91989501 C 0.5342238,0.89128607 0.42057841,0.7598598 0.38841548,0.66551299 0.34437945,0.53633752 0.35533574,0.35378541 0.41391768,0.24059643 0.47019666,0.13185706 0.48367699,0.1199603 0.55104659,0.11957642 c 0.0548147,-3.1093e-4 0.11411382,0.0505724 0.11411382,0.0979216 0,0.0164722 -0.0281138,0.0736245 -0.0624749,0.12700493 -0.0528065,0.0820356 -0.0625262,0.11504877 -0.0628062,0.21332457 -2.7961e-4,0.0982913 0.0107977,0.13686056 0.0716435,0.24943964 0.0395862,0.0732436 0.0656748,0.13263811 0.057975,0.13198735 -0.0077,-6.5068e-4 -0.0352022,-0.009362 -0.061116,-0.0193593 z M 0.54418525,0.73981638 C 0.49762422,0.60720247 0.50946269,0.41862929 0.56934484,0.33905659 l 0.0382591,-0.0508394 -0.0744796,-0.0366939 -0.0744796,-0.0366939 -0.0326619,0.0661444 c -0.08122,0.16448081 -0.0541019,0.37646561 0.063348,0.49519636 0.0382482,0.0386654 0.0747146,0.0704481 0.0810366,0.0706279 0.006322,1.8869e-4 -0.00546,-0.0479617 -0.0261821,-0.10698159 z m 0.0823252,-0.52655704 c 0,-0.0395088 -0.0660221,-0.0842403 -0.0970243,-0.0657366 -0.0327041,0.0195193 -0.0206625,0.0585675 0.0245557,0.0796277 0.0624997,0.0291089 0.0724686,0.0271983 0.0724686,-0.013891 z" id="path9533" inkscape:connector-curvature="0" />
    </pattern>
  </defs>
  <sodipodi:namedview pagecolor="#ffffff" bordercolor="#666666" borderopacity="1" objecttolerance="10" gridtolerance="10" guidetolerance="10" inkscape:pageopacity="0" inkscape:pageshadow="2" inkscape:window-width="1600" inkscape:window-height="838" id="namedview4" showgrid="false" inkscape:zoom="128" inkscape:cx="3.1367187" inkscape:cy="-0.4540218" inkscape:window-x="-8" inkscape:window-y="-8" inkscape:window-maximized="1" inkscape:current-layer="svg2" />
  <path style="fill:#000000" d="M 0.60838166,0.91989501 C 0.5342238,0.89128607 0.42057841,0.7598598 0.38841548,0.66551299 0.34437945,0.53633752 0.35533574,0.35378541 0.41391768,0.24059643 0.47019666,0.13185706 0.48367699,0.1199603 0.55104659,0.11957642 c 0.0548147,-3.1093e-4 0.11411382,0.0505724 0.11411382,0.0979216 0,0.0164722 -0.0281138,0.0736245 -0.0624749,0.12700493 -0.0528065,0.0820356 -0.0625262,0.11504877 -0.0628062,0.21332457 -2.7961e-4,0.0982913 0.0107977,0.13686056 0.0716435,0.24943964 0.0395862,0.0732436 0.0656748,0.13263811 0.057975,0.13198735 -0.0077,-6.5068e-4 -0.0352022,-0.009362 -0.061116,-0.0193593 z M 0.54418525,0.73981638 C 0.49762422,0.60720247 0.50946269,0.41862929 0.56934484,0.33905659 l 0.0382591,-0.0508394 -0.0744796,-0.0366939 -0.0744796,-0.0366939 -0.0326619,0.0661444 c -0.08122,0.16448081 -0.0541019,0.37646561 0.063348,0.49519636 0.0382482,0.0386654 0.0747146,0.0704481 0.0810366,0.0706279 0.006322,1.8869e-4 -0.00546,-0.0479617 -0.0261821,-0.10698159 z m 0.0823252,-0.52655704 c 0,-0.0395088 -0.0660221,-0.0842403 -0.0970243,-0.0657366 -0.0327041,0.0195193 -0.0206625,0.0585675 0.0245557,0.0796277 0.0624997,0.0291089 0.0724686,0.0271983 0.0724686,-0.013891 z" id="path9533" inkscape:connector-curvature="0" />
</svg>