<?xml version="1.0" encoding="utf-8" standalone="no"?>
<svg xmlns:dc="http://purl.org/dc/elements/1.1/" xmlns:cc="http://creativecommons.org/ns#" xmlns:rdf="http://www.w3.org/1999/02/22-rdf-syntax-ns#" xmlns:svg="http://www.w3.org/2000/svg" xmlns="http://www.w3.org/2000/svg" xmlns:sodipodi="http://sodipodi.sourceforge.net/DTD/sodipodi-0.dtd" xmlns:inkscape="http://www.inkscape.org/namespaces/inkscape" height="1" version="1.1" width="1" id="svg2" inkscape:version="0.91 r13725" sodipodi:docname="遗迹化石.svg">
  <metadata id="metadata8">
    <rdf:RDF>
      <cc:Work rdf:about="">
        <dc:format>image/svg+xml</dc:format>
        <dc:type rdf:resource="http://purl.org/dc/dcmitype/StillImage" />
        <dc:title></dc:title>
      </cc:Work>
    </rdf:RDF>
  </metadata>
  <defs id="defs6">
    <pattern width="1" height="1" id="遗迹化石" patternContentUnits="objectBoundingBox">
      <path style="fill:#000000" d="m 0.20552317,0.85228635 c -0.0322333,-0.078735 0.0323871,-0.27706073 0.17432632,-0.53502521 0.0913184,-0.1659649 0.19908328,-0.24949761 0.19908328,-0.154317 0,0.0562867 0.11488965,0.0820054 0.19171587,0.0429163 0.095145,-0.0484098 0.1159479,0.006759 0.050712,0.13448891 C 0.78870934,0.40427955 0.7210167,0.54484456 0.67093291,0.65271603 0.5766419,0.85580075 0.49604705,0.91925655 0.3305635,0.92070285 0.26195125,0.92130835 0.22564508,0.90143735 0.20552314,0.85228645 Z M 0.4721118,0.82549965 c 0.14852364,-0.0596615 0.14449311,-0.1401213 -0.006134,-0.1224686 -0.0687119,0.00805 -0.12721159,-9.054e-4 -0.14935222,-0.022867 -0.0610909,-0.0606 -0.10328885,0.048701 -0.0476863,0.1235157 0.0569273,0.076598 0.0647217,0.077435 0.2031731,0.021819 z M 0.58976732,0.61886989 c 0.10644866,-0.0495397 0.10196885,-0.14821308 -0.005943,-0.13091244 -0.0449821,0.007211 -0.0948887,1.0472e-4 -0.11090341,-0.0157729 -0.0809004,-0.0802506 -0.18266721,0.048067 -0.10692929,0.13482692 0.0499685,0.0572407 0.1184607,0.0608694 0.22377608,0.0118561 z M 0.70894752,0.39016285 C 0.83014194,0.3158626 0.81710194,0.28388601 0.66560895,0.28388601 c -0.074417,0 -0.13057819,-0.0142029 -0.13133268,-0.0332117 -8.6655e-4,-0.0218499 -0.0143497,-0.0195783 -0.0394122,0.006642 -0.052835,0.055275 -0.00543,0.18598488 0.0674516,0.18598488 0.0329752,0 0.0989594,-0.0239124 0.14663146,-0.0531386 z" id="path31664" inkscape:connector-curvature="0" />
    </pattern>
  </defs>
  <sodipodi:namedview pagecolor="#ffffff" bordercolor="#666666" borderopacity="1" objecttolerance="10" gridtolerance="10" guidetolerance="10" inkscape:pageopacity="0" inkscape:pageshadow="2" inkscape:window-width="1600" inkscape:window-height="838" id="namedview4" showgrid="false" inkscape:zoom="153.088" inkscape:cx="1.1015625" inkscape:cy="-0.46875" inkscape:window-x="-8" inkscape:window-y="-8" inkscape:window-maximized="1" inkscape:current-layer="svg2" />
  <path style="fill:#000000" d="m 0.20552317,0.85228635 c -0.0322333,-0.078735 0.0323871,-0.27706073 0.17432632,-0.53502521 0.0913184,-0.1659649 0.19908328,-0.24949761 0.19908328,-0.154317 0,0.0562867 0.11488965,0.0820054 0.19171587,0.0429163 0.095145,-0.0484098 0.1159479,0.006759 0.050712,0.13448891 C 0.78870934,0.40427955 0.7210167,0.54484456 0.67093291,0.65271603 0.5766419,0.85580075 0.49604705,0.91925655 0.3305635,0.92070285 0.26195125,0.92130835 0.22564508,0.90143735 0.20552314,0.85228645 Z M 0.4721118,0.82549965 c 0.14852364,-0.0596615 0.14449311,-0.1401213 -0.006134,-0.1224686 -0.0687119,0.00805 -0.12721159,-9.054e-4 -0.14935222,-0.022867 -0.0610909,-0.0606 -0.10328885,0.048701 -0.0476863,0.1235157 0.0569273,0.076598 0.0647217,0.077435 0.2031731,0.021819 z M 0.58976732,0.61886989 c 0.10644866,-0.0495397 0.10196885,-0.14821308 -0.005943,-0.13091244 -0.0449821,0.007211 -0.0948887,1.0472e-4 -0.11090341,-0.0157729 -0.0809004,-0.0802506 -0.18266721,0.048067 -0.10692929,0.13482692 0.0499685,0.0572407 0.1184607,0.0608694 0.22377608,0.0118561 z M 0.70894752,0.39016285 C 0.83014194,0.3158626 0.81710194,0.28388601 0.66560895,0.28388601 c -0.074417,0 -0.13057819,-0.0142029 -0.13133268,-0.0332117 -8.6655e-4,-0.0218499 -0.0143497,-0.0195783 -0.0394122,0.006642 -0.052835,0.055275 -0.00543,0.18598488 0.0674516,0.18598488 0.0329752,0 0.0989594,-0.0239124 0.14663146,-0.0531386 z" id="path31664" inkscape:connector-curvature="0" />
</svg>