<?xml version="1.0" encoding="utf-8" standalone="no"?>
<svg xmlns:dc="http://purl.org/dc/elements/1.1/" xmlns:cc="http://creativecommons.org/ns#" xmlns:rdf="http://www.w3.org/1999/02/22-rdf-syntax-ns#" xmlns:svg="http://www.w3.org/2000/svg" xmlns="http://www.w3.org/2000/svg" xmlns:sodipodi="http://sodipodi.sourceforge.net/DTD/sodipodi-0.dtd" xmlns:inkscape="http://www.inkscape.org/namespaces/inkscape" height="1" version="1.1" width="1" id="svg2" inkscape:version="0.91 r13725" sodipodi:docname="方解石脉.svg">
  <metadata id="metadata8">
    <rdf:RDF>
      <cc:Work rdf:about="">
        <dc:format>image/svg+xml</dc:format>
        <dc:type rdf:resource="http://purl.org/dc/dcmitype/StillImage" />
        <dc:title />
      </cc:Work>
    </rdf:RDF>
  </metadata>
  <defs id="defs6">
    <inkscape:path-effect effect="skeletal" id="path-effect4197" is_visible="true" pattern="m -0.015625,4.9765625 c 0,-2.76 2.24,-5 5,-5 2.76,0 5,2.24 5,5 0,2.76 -2.24,5 -5,5 -2.76,0 -5,-2.24 -5,-5 z" copytype="single_stretched" prop_scale="1" scale_y_rel="false" spacing="0" normal_offset="0" tang_offset="0" prop_units="false" vertical_pattern="false" fuse_tolerance="0" />
    <inkscape:path-effect effect="spiro" id="path-effect4195" is_visible="true" />
    <inkscape:path-effect effect="skeletal" id="path-effect4190" is_visible="true" pattern="M 0,5 C 0,2.24 2.24,0 5,0 7.76,0 10,2.24 10,5 10,7.76 7.76,10 5,10 2.24,10 0,7.76 0,5 Z" copytype="single_stretched" prop_scale="1" scale_y_rel="false" spacing="0" normal_offset="0" tang_offset="0" prop_units="false" vertical_pattern="false" fuse_tolerance="0" />
    <inkscape:path-effect effect="spiro" id="path-effect4188" is_visible="true" />
    <pattern y="0" x="0" height="6" width="6" patternUnits="userSpaceOnUse" id="EMFhbasepattern" />
    <pattern width="1" height="1" id="方解石脉" patternContentUnits="objectBoundingBox">
      <path inkscape:connector-curvature="0" id="path4142" d="M 0.64673663,0.64038713 C 0.4844669,0.46878899 0.47584387,0.46013728 0.47088016,0.46734695 c -0.002874,0.004038 -0.0553961,0.0758496 -0.11654085,0.15919688 -0.11079218,0.15025791 -0.11157614,0.15141143 -0.11941489,0.14506663 -0.004181,-0.003463 -0.007056,-0.008363 -0.006272,-0.0109602 0.001306,-0.004326 0.33707927,-0.46346025 0.35040582,-0.47932243 0.00601,-0.006921 0.006795,-0.006921 0.0154171,-8.6598e-4 l 0.008884,0.006634 -0.0193366,0.0262442 c -0.0104522,0.01442 -0.0190752,0.0268213 -0.0190752,0.0276867 0,8.66e-4 0.0749942,0.0810404 0.16697319,0.17794299 0.16618581,0.17563626 0.16696976,0.17650145 0.16148238,0.18573027 -0.002875,0.0049 -0.006794,0.008651 -0.008362,0.008075 -0.001567,-5.7607e-4 -0.0198592,-0.0187461 -0.0407634,-0.0403762 l -0.0378852,-0.0389344 -0.0313564,0.0320128 -0.0313565,0.0323011 -0.0222108,-0.0193229 c -0.0133264,-0.0115367 0.004704,0.009806 0.0446829,0.0530663 l 0.0668903,0.0723888 -0.006528,0.008651 c -0.003658,0.004617 -0.007056,0.008651 -0.007839,0.008651 -5.2624e-4,-2.8818e-4 -0.0781303,-0.0813291 -0.17193838,-0.18082808 z m 0.11366721,0.008651 0.0141104,-0.0147086 -0.0164622,-0.0141317 c -0.009146,-0.007788 -0.0175075,-0.01442 -0.0188139,-0.01442 -0.001306,0 -0.008362,0.00721 -0.0159395,0.0155738 l -0.013849,0.0155738 0.0141104,0.0132662 c 0.007578,0.00721 0.0159395,0.0132662 0.0182912,0.0132662 0.002353,0 0.0109748,-0.006344 0.0185526,-0.01442 z M 0.6888066,0.62481334 c 0.005748,-0.006634 0.0193366,-0.0207649 0.0303112,-0.0314358 l 0.0203816,-0.0193229 0.014633,0.0126897 c 0.0081,0.00721 0.0216884,0.0190346 0.0303113,0.0262446 L 0.8001221,0.62654337 0.7878409,0.61298896 C 0.7810469,0.60549046 0.7363641,0.5581936 0.6885454,0.50772345 0.6407268,0.45725329 0.5897726,0.40361078 0.57540081,0.38803701 l -0.0261304,-0.0276863 -0.0295274,0.0403761 -0.029266,0.0406645 0.0363213,0.0377804 c 0.019859,0.0207649 0.0373665,0.0380693 0.038673,0.0380693 0.001306,0 0.0156781,-0.0135544 0.0316177,-0.0302824 l 0.029266,-0.0305705 0.0337082,0.0297051 0.0337083,0.0294171 -0.0216882,0.0242255 c -0.01202,0.0135544 -0.0261304,0.0279741 -0.0316178,0.0323 l -0.00993,0.007787 -0.0143717,-0.0124014 c -0.0081,-0.006921 0.00183,0.005768 0.0219494,0.0282633 0.019859,0.0224954 0.0373664,0.0409531 0.0384117,0.0409531 0.001046,0 0.006533,-0.005479 0.0122812,-0.0118249 z M 0.646998,0.53252561 0.6605858,0.51695225 0.6467368,0.50397433 c -0.007578,-0.00721 -0.0154171,-0.0132662 -0.0175075,-0.0132662 -0.00183,0 -0.0101908,0.006634 -0.0185526,0.01442 l -0.0151557,0.0144197 0.0167235,0.01442 c 0.009146,0.007788 0.0175073,0.0141317 0.0188139,0.0141317 0.001046,0 0.008362,-0.006921 0.0159394,-0.0155738 z M 0.12779043,0.67528397 c -0.004441,-0.005479 -0.005224,-0.009229 -0.002874,-0.0126897 0.0122813,-0.0173042 0.34779208,-0.47499572 0.35145039,-0.47932174 0.004181,-0.004903 0.005748,-0.004615 0.0117586,0.001441 0.003919,0.003749 0.007056,0.008075 0.007056,0.009518 0,0.003462 -0.35458613,0.48624351 -0.35824436,0.48768551 -0.001567,5.7605e-4 -0.005749,-0.002309 -0.009146,-0.006634 z m 0.14685183,-0.0735427 -0.0305725,-0.0421057 0.0282208,-0.0458556 0.0282205,-0.0461444 0.009668,0.0124014 c 0.005226,0.006921 0.0193366,0.0256679 0.0310948,0.0421065 l 0.0219494,0.0297053 -0.0282205,0.0461433 c -0.0154171,0.0253795 -0.0284821,0.0461446 -0.0287434,0.0461446 -5.2586e-4,0 -0.014633,-0.0190345 -0.0316174,-0.0423952 z m 0.0603608,-0.0478738 c 0,-0.001441 -0.007317,-0.0126897 -0.0162008,-0.0253795 l -0.0162008,-0.0227835 -0.0151551,0.0250905 c -0.008362,0.0135544 -0.0151557,0.0259562 -0.0151557,0.0271099 0,0.001441 0.007317,0.0126883 0.0162006,0.0253783 l 0.0162008,0.0227837 0.0151557,-0.0250908 c 0.008362,-0.0135544 0.0151557,-0.0259553 0.0151557,-0.0271087 z M 0.3903988,0.44196791 c -0.0162006,-0.0224954 -0.0290044,-0.0421065 -0.0287431,-0.04326 0.001046,-0.00375 0.0535669,-0.0888278 0.0551348,-0.0888278 5.2586e-4,0 0.0146328,0.0181695 0.0310947,0.0406649 l 0.0300489,0.0409528 -0.00627,0.0103823 c -0.0282209,0.0484513 -0.0480796,0.080752 -0.0499088,0.080752 -0.001046,2.8869e-4 -0.0151557,-0.0181689 -0.0313565,-0.0406644 z m 0.0454666,-0.0204767 c 0.007839,-0.0126897 0.0141103,-0.0250905 0.0141103,-0.0279746 0,-0.002597 -0.007578,-0.0141317 -0.0167235,-0.0256679 L 0.4165289,0.34708405 0.4013734,0.37275163 c -0.0101909,0.0175925 -0.013849,0.0271099 -0.0117586,0.0302821 0.0107135,0.0155734 0.03005,0.0412413 0.0310952,0.0412413 5.2586e-4,0 0.007317,-0.0100941 0.0151555,-0.0227837 z" style="fill:#000000;fill-opacity:1;fill-rule:nonzero;stroke:none" />
    </pattern>
  </defs>
  <sodipodi:namedview pagecolor="#ffffff" bordercolor="#666666" borderopacity="1" objecttolerance="10" gridtolerance="10" guidetolerance="10" inkscape:pageopacity="0" inkscape:pageshadow="2" inkscape:window-width="1680" inkscape:window-height="988" id="namedview4" showgrid="false" inkscape:zoom="128" inkscape:cx="0.082420463" inkscape:cy="0.34327849" inkscape:window-x="-8" inkscape:window-y="-8" inkscape:window-maximized="1" inkscape:current-layer="svg2" />
  <path inkscape:connector-curvature="0" id="path4142" d="M 0.64673663,0.64038713 C 0.4844669,0.46878899 0.47584387,0.46013728 0.47088016,0.46734695 c -0.002874,0.004038 -0.0553961,0.0758496 -0.11654085,0.15919688 -0.11079218,0.15025791 -0.11157614,0.15141143 -0.11941489,0.14506663 -0.004181,-0.003463 -0.007056,-0.008363 -0.006272,-0.0109602 0.001306,-0.004326 0.33707927,-0.46346025 0.35040582,-0.47932243 0.00601,-0.006921 0.006795,-0.006921 0.0154171,-8.6598e-4 l 0.008884,0.006634 -0.0193366,0.0262442 c -0.0104522,0.01442 -0.0190752,0.0268213 -0.0190752,0.0276867 0,8.66e-4 0.0749942,0.0810404 0.16697319,0.17794299 0.16618581,0.17563626 0.16696976,0.17650145 0.16148238,0.18573027 -0.002875,0.0049 -0.006794,0.008651 -0.008362,0.008075 -0.001567,-5.7607e-4 -0.0198592,-0.0187461 -0.0407634,-0.0403762 l -0.0378852,-0.0389344 -0.0313564,0.0320128 -0.0313565,0.0323011 -0.0222108,-0.0193229 c -0.0133264,-0.0115367 0.004704,0.009806 0.0446829,0.0530663 l 0.0668903,0.0723888 -0.006528,0.008651 c -0.003658,0.004617 -0.007056,0.008651 -0.007839,0.008651 -5.2624e-4,-2.8818e-4 -0.0781303,-0.0813291 -0.17193838,-0.18082808 z m 0.11366721,0.008651 0.0141104,-0.0147086 -0.0164622,-0.0141317 c -0.009146,-0.007788 -0.0175075,-0.01442 -0.0188139,-0.01442 -0.001306,0 -0.008362,0.00721 -0.0159395,0.0155738 l -0.013849,0.0155738 0.0141104,0.0132662 c 0.007578,0.00721 0.0159395,0.0132662 0.0182912,0.0132662 0.002353,0 0.0109748,-0.006344 0.0185526,-0.01442 z M 0.6888066,0.62481334 c 0.005748,-0.006634 0.0193366,-0.0207649 0.0303112,-0.0314358 l 0.0203816,-0.0193229 0.014633,0.0126897 c 0.0081,0.00721 0.0216884,0.0190346 0.0303113,0.0262446 L 0.8001221,0.62654337 0.7878409,0.61298896 C 0.7810469,0.60549046 0.7363641,0.5581936 0.6885454,0.50772345 0.6407268,0.45725329 0.5897726,0.40361078 0.57540081,0.38803701 l -0.0261304,-0.0276863 -0.0295274,0.0403761 -0.029266,0.0406645 0.0363213,0.0377804 c 0.019859,0.0207649 0.0373665,0.0380693 0.038673,0.0380693 0.001306,0 0.0156781,-0.0135544 0.0316177,-0.0302824 l 0.029266,-0.0305705 0.0337082,0.0297051 0.0337083,0.0294171 -0.0216882,0.0242255 c -0.01202,0.0135544 -0.0261304,0.0279741 -0.0316178,0.0323 l -0.00993,0.007787 -0.0143717,-0.0124014 c -0.0081,-0.006921 0.00183,0.005768 0.0219494,0.0282633 0.019859,0.0224954 0.0373664,0.0409531 0.0384117,0.0409531 0.001046,0 0.006533,-0.005479 0.0122812,-0.0118249 z M 0.646998,0.53252561 0.6605858,0.51695225 0.6467368,0.50397433 c -0.007578,-0.00721 -0.0154171,-0.0132662 -0.0175075,-0.0132662 -0.00183,0 -0.0101908,0.006634 -0.0185526,0.01442 l -0.0151557,0.0144197 0.0167235,0.01442 c 0.009146,0.007788 0.0175073,0.0141317 0.0188139,0.0141317 0.001046,0 0.008362,-0.006921 0.0159394,-0.0155738 z M 0.12779043,0.67528397 c -0.004441,-0.005479 -0.005224,-0.009229 -0.002874,-0.0126897 0.0122813,-0.0173042 0.34779208,-0.47499572 0.35145039,-0.47932174 0.004181,-0.004903 0.005748,-0.004615 0.0117586,0.001441 0.003919,0.003749 0.007056,0.008075 0.007056,0.009518 0,0.003462 -0.35458613,0.48624351 -0.35824436,0.48768551 -0.001567,5.7605e-4 -0.005749,-0.002309 -0.009146,-0.006634 z m 0.14685183,-0.0735427 -0.0305725,-0.0421057 0.0282208,-0.0458556 0.0282205,-0.0461444 0.009668,0.0124014 c 0.005226,0.006921 0.0193366,0.0256679 0.0310948,0.0421065 l 0.0219494,0.0297053 -0.0282205,0.0461433 c -0.0154171,0.0253795 -0.0284821,0.0461446 -0.0287434,0.0461446 -5.2586e-4,0 -0.014633,-0.0190345 -0.0316174,-0.0423952 z m 0.0603608,-0.0478738 c 0,-0.001441 -0.007317,-0.0126897 -0.0162008,-0.0253795 l -0.0162008,-0.0227835 -0.0151551,0.0250905 c -0.008362,0.0135544 -0.0151557,0.0259562 -0.0151557,0.0271099 0,0.001441 0.007317,0.0126883 0.0162006,0.0253783 l 0.0162008,0.0227837 0.0151557,-0.0250908 c 0.008362,-0.0135544 0.0151557,-0.0259553 0.0151557,-0.0271087 z M 0.3903988,0.44196791 c -0.0162006,-0.0224954 -0.0290044,-0.0421065 -0.0287431,-0.04326 0.001046,-0.00375 0.0535669,-0.0888278 0.0551348,-0.0888278 5.2586e-4,0 0.0146328,0.0181695 0.0310947,0.0406649 l 0.0300489,0.0409528 -0.00627,0.0103823 c -0.0282209,0.0484513 -0.0480796,0.080752 -0.0499088,0.080752 -0.001046,2.8869e-4 -0.0151557,-0.0181689 -0.0313565,-0.0406644 z m 0.0454666,-0.0204767 c 0.007839,-0.0126897 0.0141103,-0.0250905 0.0141103,-0.0279746 0,-0.002597 -0.007578,-0.0141317 -0.0167235,-0.0256679 L 0.4165289,0.34708405 0.4013734,0.37275163 c -0.0101909,0.0175925 -0.013849,0.0271099 -0.0117586,0.0302821 0.0107135,0.0155734 0.03005,0.0412413 0.0310952,0.0412413 5.2586e-4,0 0.007317,-0.0100941 0.0151555,-0.0227837 z" style="fill:#000000;fill-opacity:1;fill-rule:nonzero;stroke:none" />
</svg>