<?xml version="1.0" encoding="utf-8" standalone="no"?>
<svg xmlns:dc="http://purl.org/dc/elements/1.1/" xmlns:cc="http://creativecommons.org/ns#" xmlns:rdf="http://www.w3.org/1999/02/22-rdf-syntax-ns#" xmlns:svg="http://www.w3.org/2000/svg" xmlns="http://www.w3.org/2000/svg" xmlns:sodipodi="http://sodipodi.sourceforge.net/DTD/sodipodi-0.dtd" xmlns:inkscape="http://www.inkscape.org/namespaces/inkscape" height="1" version="1.1" width="1" id="svg2" inkscape:version="0.91 r13725" sodipodi:docname="沥青脉.svg">
  <metadata id="metadata8">
    <rdf:RDF>
      <cc:Work rdf:about="">
        <dc:format>image/svg+xml</dc:format>
        <dc:type rdf:resource="http://purl.org/dc/dcmitype/StillImage" />
        <dc:title />
      </cc:Work>
    </rdf:RDF>
  </metadata>
  <defs id="defs6">
    <inkscape:path-effect effect="skeletal" id="path-effect4197" is_visible="true" pattern="m -0.015625,4.9765625 c 0,-2.76 2.24,-5 5,-5 2.76,0 5,2.24 5,5 0,2.76 -2.24,5 -5,5 -2.76,0 -5,-2.24 -5,-5 z" copytype="single_stretched" prop_scale="1" scale_y_rel="false" spacing="0" normal_offset="0" tang_offset="0" prop_units="false" vertical_pattern="false" fuse_tolerance="0" />
    <inkscape:path-effect effect="spiro" id="path-effect4195" is_visible="true" />
    <inkscape:path-effect effect="skeletal" id="path-effect4190" is_visible="true" pattern="M 0,5 C 0,2.24 2.24,0 5,0 7.76,0 10,2.24 10,5 10,7.76 7.76,10 5,10 2.24,10 0,7.76 0,5 Z" copytype="single_stretched" prop_scale="1" scale_y_rel="false" spacing="0" normal_offset="0" tang_offset="0" prop_units="false" vertical_pattern="false" fuse_tolerance="0" />
    <inkscape:path-effect effect="spiro" id="path-effect4188" is_visible="true" />
    <pattern width="1" height="1" id="沥青脉" patternContentUnits="objectBoundingBox">
      <path style="fill:#000000" d="M 0.61907615,0.64760415 0.4390925,0.44257604 0.32695025,0.63155119 C 0.26527193,0.7354876 0.21194547,0.82052636 0.20844699,0.82052636 c -0.0194862,0 -0.00704,-0.0295247 0.0597537,-0.14171197 l 0.0740039,-0.12430393 -0.0390493,-0.0485984 -0.0390494,-0.0485985 -0.076105,0.12830534 c -0.0518451,0.0874045 -0.0786859,0.12478554 -0.0842014,0.11726415 -0.0054344,-0.007408 -0.0054767,-0.0156337 -1.4122e-4,-0.0249987 0.0178989,-0.0314115 0.32184888,-0.54393974 0.32819928,-0.55341706 0.004323,-0.006451 0.009937,-0.006085 0.0151237,9.8989e-4 0.005718,0.007799 -0.0185691,0.0562539 -0.0791933,0.15799005 -0.0480931,0.0807072 -0.0874421,0.14871322 -0.0874421,0.15112446 0,0.002411 0.0212074,-0.003151 0.0471271,-0.0123605 0.02592,-0.00921 0.0495498,-0.0134403 0.052511,-0.009402 0.002961,0.004038 0.001564,0.0281721 -0.003109,0.0536302 -0.006638,0.0361794 -0.006432,0.0425471 9.4405e-4,0.0291582 C 0.4465878,0.37077407 0.53825891,0.22833742 0.544419,0.23673822 c 0.004771,0.006507 0.003088,0.0195422 -0.004586,0.0355144 -0.0119772,0.0249284 -0.0101124,0.0275213 0.15379455,0.21385434 0.0912553,0.10374094 0.17369169,0.19686255 0.18319203,0.20693688 0.0114127,0.012102 0.0145866,0.0218754 0.009354,0.0288051 -0.005188,0.00687 -0.0364449,-0.0221394 -0.0906059,-0.0840888 l -0.0826865,-0.094577 -0.0305508,0.0481385 c -0.0360154,0.0567492 -0.0395914,0.0473862 0.0608193,0.15923873 0.059229,0.0659781 0.0814514,0.10270449 0.0618509,0.1022195 -0.003267,-8.614e-5 -0.0869321,-0.0924097 -0.18592312,-0.20517517 z m -0.0102004,-0.0757948 c -0.006823,-0.0179943 -0.0104305,-0.0370765 -0.008016,-0.0424045 0.002415,-0.005328 0.0239425,-0.006935 0.0478396,-0.003572 0.0238971,0.003363 0.0434493,0.003416 0.0434493,1.1742e-4 0,-0.0033 -0.0397391,-0.0511717 -0.088309,-0.10638224 l -0.088309,-0.10038282 -0.0304594,0.0481714 c -0.0167526,0.0264942 -0.030264,0.0506014 -0.0300248,0.0535714 5.0558e-4,0.006281 0.16392076,0.19617996 0.16898623,0.19617996 0.00187,0 0,0 -0.0151571,-0.0452974 z" id="path4189" inkscape:connector-curvature="0" sodipodi:nodetypes="ccssscccsscsssssssssssssscsscccccssscscscc" />
    </pattern>
  </defs>
  <sodipodi:namedview pagecolor="#ffffff" bordercolor="#666666" borderopacity="1" objecttolerance="10" gridtolerance="10" guidetolerance="10" inkscape:pageopacity="0" inkscape:pageshadow="2" inkscape:window-width="1680" inkscape:window-height="988" id="namedview4" showgrid="false" inkscape:zoom="256" inkscape:cx="0.5" inkscape:cy="0.5" inkscape:window-x="-8" inkscape:window-y="-8" inkscape:window-maximized="1" inkscape:current-layer="svg2" />
  <path style="fill:#000000" d="M 0.61907615,0.64760415 0.4390925,0.44257604 0.32695025,0.63155119 C 0.26527193,0.7354876 0.21194547,0.82052636 0.20844699,0.82052636 c -0.0194862,0 -0.00704,-0.0295247 0.0597537,-0.14171197 l 0.0740039,-0.12430393 -0.0390493,-0.0485984 -0.0390494,-0.0485985 -0.076105,0.12830534 c -0.0518451,0.0874045 -0.0786859,0.12478554 -0.0842014,0.11726415 -0.0054344,-0.007408 -0.0054767,-0.0156337 -1.4122e-4,-0.0249987 0.0178989,-0.0314115 0.32184888,-0.54393974 0.32819928,-0.55341706 0.004323,-0.006451 0.009937,-0.006085 0.0151237,9.8989e-4 0.005718,0.007799 -0.0185691,0.0562539 -0.0791933,0.15799005 -0.0480931,0.0807072 -0.0874421,0.14871322 -0.0874421,0.15112446 0,0.002411 0.0212074,-0.003151 0.0471271,-0.0123605 0.02592,-0.00921 0.0495498,-0.0134403 0.052511,-0.009402 0.002961,0.004038 0.001564,0.0281721 -0.003109,0.0536302 -0.006638,0.0361794 -0.006432,0.0425471 9.4405e-4,0.0291582 C 0.4465878,0.37077407 0.53825891,0.22833742 0.544419,0.23673822 c 0.004771,0.006507 0.003088,0.0195422 -0.004586,0.0355144 -0.0119772,0.0249284 -0.0101124,0.0275213 0.15379455,0.21385434 0.0912553,0.10374094 0.17369169,0.19686255 0.18319203,0.20693688 0.0114127,0.012102 0.0145866,0.0218754 0.009354,0.0288051 -0.005188,0.00687 -0.0364449,-0.0221394 -0.0906059,-0.0840888 l -0.0826865,-0.094577 -0.0305508,0.0481385 c -0.0360154,0.0567492 -0.0395914,0.0473862 0.0608193,0.15923873 0.059229,0.0659781 0.0814514,0.10270449 0.0618509,0.1022195 -0.003267,-8.614e-5 -0.0869321,-0.0924097 -0.18592312,-0.20517517 z m -0.0102004,-0.0757948 c -0.006823,-0.0179943 -0.0104305,-0.0370765 -0.008016,-0.0424045 0.002415,-0.005328 0.0239425,-0.006935 0.0478396,-0.003572 0.0238971,0.003363 0.0434493,0.003416 0.0434493,1.1742e-4 0,-0.0033 -0.0397391,-0.0511717 -0.088309,-0.10638224 l -0.088309,-0.10038282 -0.0304594,0.0481714 c -0.0167526,0.0264942 -0.030264,0.0506014 -0.0300248,0.0535714 5.0558e-4,0.006281 0.16392076,0.19617996 0.16898623,0.19617996 0.00187,0 0,0 -0.0151571,-0.0452974 z" id="path4189" inkscape:connector-curvature="0" sodipodi:nodetypes="ccssscccsscsssssssssssssscsscccccssscscscc" />
</svg>