<?xml version="1.0" encoding="utf-8" standalone="no"?>
<svg xmlns:dc="http://purl.org/dc/elements/1.1/" xmlns:cc="http://creativecommons.org/ns#" xmlns:rdf="http://www.w3.org/1999/02/22-rdf-syntax-ns#" xmlns:svg="http://www.w3.org/2000/svg" xmlns="http://www.w3.org/2000/svg" xmlns:sodipodi="http://sodipodi.sourceforge.net/DTD/sodipodi-0.dtd" xmlns:inkscape="http://www.inkscape.org/namespaces/inkscape" height="1" version="1.1" width="1" id="svg2" inkscape:version="0.91 r13725" sodipodi:docname="白云岩脉.svg">
  <metadata id="metadata8">
    <rdf:RDF>
      <cc:Work rdf:about="">
        <dc:format>image/svg+xml</dc:format>
        <dc:type rdf:resource="http://purl.org/dc/dcmitype/StillImage" />
        <dc:title />
      </cc:Work>
    </rdf:RDF>
  </metadata>
  <defs id="defs6">
    <inkscape:path-effect effect="skeletal" id="path-effect4197" is_visible="true" pattern="m -0.015625,4.9765625 c 0,-2.76 2.24,-5 5,-5 2.76,0 5,2.24 5,5 0,2.76 -2.24,5 -5,5 -2.76,0 -5,-2.24 -5,-5 z" copytype="single_stretched" prop_scale="1" scale_y_rel="false" spacing="0" normal_offset="0" tang_offset="0" prop_units="false" vertical_pattern="false" fuse_tolerance="0" />
    <inkscape:path-effect effect="spiro" id="path-effect4195" is_visible="true" />
    <inkscape:path-effect effect="skeletal" id="path-effect4190" is_visible="true" pattern="M 0,5 C 0,2.24 2.24,0 5,0 7.76,0 10,2.24 10,5 10,7.76 7.76,10 5,10 2.24,10 0,7.76 0,5 Z" copytype="single_stretched" prop_scale="1" scale_y_rel="false" spacing="0" normal_offset="0" tang_offset="0" prop_units="false" vertical_pattern="false" fuse_tolerance="0" />
    <inkscape:path-effect effect="spiro" id="path-effect4188" is_visible="true" />
    <pattern y="0" x="0" height="6" width="6" patternUnits="userSpaceOnUse" id="EMFhbasepattern" />
    <pattern width="1" height="1" id="白云岩脉" patternContentUnits="objectBoundingBox">
      <path style="fill:#000000" d="M 0.64064382,0.67346217 C 0.51781629,0.57276694 0.41588088,0.49027736 0.4141207,0.49015191 0.4123617,0.49002579 0.3572395,0.55555871 0.29162967,0.63577896 0.22601977,0.71599926 0.16940936,0.78163401 0.16582878,0.78163401 c -0.003581,0 -0.009416,-0.00343 -0.0129674,-0.007622 -0.005389,-0.006362 -0.00267,-0.0123927 0.0164374,-0.0364638 l 0.0228944,-0.0288416 -0.0066,-0.088016 c -0.003631,-0.0484088 -0.007267,-0.0930895 -0.008082,-0.0992904 -0.001176,-0.008939 -0.0157769,0.006323 -0.0704955,0.0736881 -0.06851366,0.0843471 -0.06909816,0.0849024 -0.08068408,0.0766578 -0.0064191,-0.004568 -0.01117123,-0.009663 -0.01056093,-0.0113224 6.1026e-4,-0.001659 0.10150016,-0.12537732 0.22419998,-0.27492801 0.19995088,-0.24370759 0.224033,-0.2712642 0.23217701,-0.26567589 0.00771,0.00529 0.00955,0.0172277 0.0121472,0.0787781 0.001682,0.0398987 0.00463,0.0883049 0.006547,0.10756928 l 0.003487,0.0350262 0.0509174,-0.0617038 0.0509175,-0.061704 0.0103901,0.010179 0.0103901,0.010179 -0.017379,0.0215283 c -0.009559,0.0118406 -0.0250105,0.0308052 -0.0343377,0.0421436 L 0.54826876,0.3224308 0.7671695,0.50528183 c 0.12039551,0.10056801 0.22377078,0.18677633 0.2297229,0.191574 l 0.010822,0.008723 -0.010843,0.010789 -0.0108426,0.010789 -0.058464,-0.0489069 -0.058464,-0.0489069 -0.003024,0.0924911 c -0.002802,0.0856606 -0.002312,0.0932708 0.006585,0.10304837 0.009229,0.0101424 0.009247,0.0109724 4.532e-4,0.0211091 C 0.864024,0.8564758 0.8625249,0.8553636 0.64064204,0.67346173 Z M 0.81303396,0.58380349 C 0.7986926,0.57043115 0.78060532,0.55499999 0.7728406,0.54951201 l -0.0141179,-0.009978 -5.538e-5,0.0745274 c -3.127e-5,0.04099 -0.00144,0.0827339 -0.003137,0.0927642 -0.002993,0.0177381 -0.001974,0.0191598 0.0372771,0.0519899 l 0.0403559,0.0337532 0.00297,-0.0922258 0.002977,-0.0922258 -0.026075,-0.0243133 z m -0.0850581,0.043174 c 3.132e-5,-0.0408017 0.001427,-0.0823013 0.003101,-0.0922214 0.002948,-0.0174654 0.001782,-0.019097 -0.0368678,-0.0515339 -0.0219525,-0.0184236 -0.0404723,-0.0329398 -0.0411553,-0.0322584 -6.8199e-4,6.8104e-4 -0.001907,0.0438725 -0.002719,0.0959799 l -0.001476,0.0947409 0.0356797,0.0295228 c 0.0196236,0.0162376 0.0374121,0.02962 0.0395301,0.0297389 0.002118,1.1711e-4 0.003877,-0.0331671 0.003909,-0.0739688 z m -0.47290426,0.006926 c 0.0170112,-0.0203952 0.0296,-0.0383849 0.0279742,-0.0399772 -0.001624,-0.001592 -0.006089,-0.0440639 -0.00992,-0.0943814 -0.003832,-0.0503174 -0.007783,-0.0922884 -0.008784,-0.0932686 -0.001642,-0.001612 -0.0483674,0.0535295 -0.0561978,0.0663229 -0.001786,0.002919 1.019e-5,0.0470531 0.003989,0.098075 0.00398,0.0510218 0.007306,0.0944645 0.007386,0.0965392 3.0033e-4,0.00765 0.005282,0.002978 0.0355503,-0.03331 z m 0.34006828,-0.23276281 -0.0289371,-0.0259149 -0.003401,0.0234002 c -0.00187,0.01287 -0.003604,0.0563937 -0.003851,0.0967191 l -4.5051e-4,0.0733191 0.0295198,0.023452 0.0295197,0.0234518 0.003267,-0.0942561 0.003267,-0.0942562 -0.0289365,-0.0259149 z m -0.2526441,0.12576254 c 0.0301339,-0.0369832 0.0312392,-0.0393542 0.0287223,-0.0616112 -0.00144,-0.0127312 -0.005011,-0.0558461 -0.007934,-0.0958106 -0.002925,-0.0399646 -0.006115,-0.0734446 -0.007091,-0.0744002 -9.7335e-4,-9.5594e-4 -0.0154134,0.0150031 -0.0320845,0.0354635 l -0.0303111,0.0372009 0.006258,0.0824646 c 0.003441,0.0453556 0.0064,0.0898202 0.006574,0.0988105 1.7326e-4,0.00899 0.001261,0.0163458 0.002423,0.0163458 0.001158,0 0.0162094,-0.0173085 0.0334464,-0.0384635 z m 0.18966154,-0.1388259 c 3.726e-4,-0.0214381 -0.001057,-0.0388716 -0.003175,-0.038741 -0.00567,3.5136e-4 -0.091126,0.10771626 -0.091126,0.11449099 0,0.003177 0.0196372,0.0217242 0.0436376,0.0412155 l 0.0436378,0.0354385 0.003175,-0.0567127 c 0.001746,-0.031192 0.00348,-0.074253 0.003851,-0.0956912 z m -0.0948692,0.0230468 0.0292783,-0.0360497 -0.00766,-0.0965401 c -0.004214,-0.053097 -0.00844,-0.0973041 -0.009392,-0.098238 -9.5115e-4,-9.333e-4 -0.0157589,0.0157294 -0.0329012,0.0370295 l -0.0311682,0.0387275 0.006663,0.0855013 c 0.003666,0.0470256 0.006795,0.0921779 0.006954,0.10033821 1.6576e-4,0.008495 0.00214,0.0127947 0.004619,0.010059 0.002383,-0.002628 0.0175039,-0.0210004 0.033607,-0.0408277 z" id="path4207" inkscape:connector-curvature="0" />
    </pattern>
  </defs>
  <sodipodi:namedview pagecolor="#ffffff" bordercolor="#666666" borderopacity="1" objecttolerance="10" gridtolerance="10" guidetolerance="10" inkscape:pageopacity="0" inkscape:pageshadow="2" inkscape:window-width="1680" inkscape:window-height="1028" id="namedview4" showgrid="false" inkscape:zoom="256" inkscape:cx="0.5" inkscape:cy="0.5" inkscape:window-x="1672" inkscape:window-y="-8" inkscape:window-maximized="1" inkscape:current-layer="svg2" />
  <path style="fill:#000000" d="M 0.64064382,0.67346217 C 0.51781629,0.57276694 0.41588088,0.49027736 0.4141207,0.49015191 0.4123617,0.49002579 0.3572395,0.55555871 0.29162967,0.63577896 0.22601977,0.71599926 0.16940936,0.78163401 0.16582878,0.78163401 c -0.003581,0 -0.009416,-0.00343 -0.0129674,-0.007622 -0.005389,-0.006362 -0.00267,-0.0123927 0.0164374,-0.0364638 l 0.0228944,-0.0288416 -0.0066,-0.088016 c -0.003631,-0.0484088 -0.007267,-0.0930895 -0.008082,-0.0992904 -0.001176,-0.008939 -0.0157769,0.006323 -0.0704955,0.0736881 -0.06851366,0.0843471 -0.06909816,0.0849024 -0.08068408,0.0766578 -0.0064191,-0.004568 -0.01117123,-0.009663 -0.01056093,-0.0113224 6.1026e-4,-0.001659 0.10150016,-0.12537732 0.22419998,-0.27492801 0.19995088,-0.24370759 0.224033,-0.2712642 0.23217701,-0.26567589 0.00771,0.00529 0.00955,0.0172277 0.0121472,0.0787781 0.001682,0.0398987 0.00463,0.0883049 0.006547,0.10756928 l 0.003487,0.0350262 0.0509174,-0.0617038 0.0509175,-0.061704 0.0103901,0.010179 0.0103901,0.010179 -0.017379,0.0215283 c -0.009559,0.0118406 -0.0250105,0.0308052 -0.0343377,0.0421436 L 0.54826876,0.3224308 0.7671695,0.50528183 c 0.12039551,0.10056801 0.22377078,0.18677633 0.2297229,0.191574 l 0.010822,0.008723 -0.010843,0.010789 -0.0108426,0.010789 -0.058464,-0.0489069 -0.058464,-0.0489069 -0.003024,0.0924911 c -0.002802,0.0856606 -0.002312,0.0932708 0.006585,0.10304837 0.009229,0.0101424 0.009247,0.0109724 4.532e-4,0.0211091 C 0.864024,0.8564758 0.8625249,0.8553636 0.64064204,0.67346173 Z M 0.81303396,0.58380349 C 0.7986926,0.57043115 0.78060532,0.55499999 0.7728406,0.54951201 l -0.0141179,-0.009978 -5.538e-5,0.0745274 c -3.127e-5,0.04099 -0.00144,0.0827339 -0.003137,0.0927642 -0.002993,0.0177381 -0.001974,0.0191598 0.0372771,0.0519899 l 0.0403559,0.0337532 0.00297,-0.0922258 0.002977,-0.0922258 -0.026075,-0.0243133 z m -0.0850581,0.043174 c 3.132e-5,-0.0408017 0.001427,-0.0823013 0.003101,-0.0922214 0.002948,-0.0174654 0.001782,-0.019097 -0.0368678,-0.0515339 -0.0219525,-0.0184236 -0.0404723,-0.0329398 -0.0411553,-0.0322584 -6.8199e-4,6.8104e-4 -0.001907,0.0438725 -0.002719,0.0959799 l -0.001476,0.0947409 0.0356797,0.0295228 c 0.0196236,0.0162376 0.0374121,0.02962 0.0395301,0.0297389 0.002118,1.1711e-4 0.003877,-0.0331671 0.003909,-0.0739688 z m -0.47290426,0.006926 c 0.0170112,-0.0203952 0.0296,-0.0383849 0.0279742,-0.0399772 -0.001624,-0.001592 -0.006089,-0.0440639 -0.00992,-0.0943814 -0.003832,-0.0503174 -0.007783,-0.0922884 -0.008784,-0.0932686 -0.001642,-0.001612 -0.0483674,0.0535295 -0.0561978,0.0663229 -0.001786,0.002919 1.019e-5,0.0470531 0.003989,0.098075 0.00398,0.0510218 0.007306,0.0944645 0.007386,0.0965392 3.0033e-4,0.00765 0.005282,0.002978 0.0355503,-0.03331 z m 0.34006828,-0.23276281 -0.0289371,-0.0259149 -0.003401,0.0234002 c -0.00187,0.01287 -0.003604,0.0563937 -0.003851,0.0967191 l -4.5051e-4,0.0733191 0.0295198,0.023452 0.0295197,0.0234518 0.003267,-0.0942561 0.003267,-0.0942562 -0.0289365,-0.0259149 z m -0.2526441,0.12576254 c 0.0301339,-0.0369832 0.0312392,-0.0393542 0.0287223,-0.0616112 -0.00144,-0.0127312 -0.005011,-0.0558461 -0.007934,-0.0958106 -0.002925,-0.0399646 -0.006115,-0.0734446 -0.007091,-0.0744002 -9.7335e-4,-9.5594e-4 -0.0154134,0.0150031 -0.0320845,0.0354635 l -0.0303111,0.0372009 0.006258,0.0824646 c 0.003441,0.0453556 0.0064,0.0898202 0.006574,0.0988105 1.7326e-4,0.00899 0.001261,0.0163458 0.002423,0.0163458 0.001158,0 0.0162094,-0.0173085 0.0334464,-0.0384635 z m 0.18966154,-0.1388259 c 3.726e-4,-0.0214381 -0.001057,-0.0388716 -0.003175,-0.038741 -0.00567,3.5136e-4 -0.091126,0.10771626 -0.091126,0.11449099 0,0.003177 0.0196372,0.0217242 0.0436376,0.0412155 l 0.0436378,0.0354385 0.003175,-0.0567127 c 0.001746,-0.031192 0.00348,-0.074253 0.003851,-0.0956912 z m -0.0948692,0.0230468 0.0292783,-0.0360497 -0.00766,-0.0965401 c -0.004214,-0.053097 -0.00844,-0.0973041 -0.009392,-0.098238 -9.5115e-4,-9.333e-4 -0.0157589,0.0157294 -0.0329012,0.0370295 l -0.0311682,0.0387275 0.006663,0.0855013 c 0.003666,0.0470256 0.006795,0.0921779 0.006954,0.10033821 1.6576e-4,0.008495 0.00214,0.0127947 0.004619,0.010059 0.002383,-0.002628 0.0175039,-0.0210004 0.033607,-0.0408277 z" id="path4207" inkscape:connector-curvature="0" />
</svg>