<?xml version="1.0" encoding="utf-8" standalone="no"?>
<svg xmlns:dc="http://purl.org/dc/elements/1.1/" xmlns:cc="http://creativecommons.org/ns#" xmlns:rdf="http://www.w3.org/1999/02/22-rdf-syntax-ns#" xmlns:svg="http://www.w3.org/2000/svg" xmlns="http://www.w3.org/2000/svg" xmlns:sodipodi="http://sodipodi.sourceforge.net/DTD/sodipodi-0.dtd" xmlns:inkscape="http://www.inkscape.org/namespaces/inkscape" height="1" version="1.1" width="1" id="svg2" inkscape:version="0.91 r13725" sodipodi:docname="石膏脉.svg">
  <metadata id="metadata8">
    <rdf:RDF>
      <cc:Work rdf:about="">
        <dc:format>image/svg+xml</dc:format>
        <dc:type rdf:resource="http://purl.org/dc/dcmitype/StillImage" />
        <dc:title />
      </cc:Work>
    </rdf:RDF>
  </metadata>
  <defs id="defs6">
    <inkscape:path-effect effect="skeletal" id="path-effect4197" is_visible="true" pattern="m -0.015625,4.9765625 c 0,-2.76 2.24,-5 5,-5 2.76,0 5,2.24 5,5 0,2.76 -2.24,5 -5,5 -2.76,0 -5,-2.24 -5,-5 z" copytype="single_stretched" prop_scale="1" scale_y_rel="false" spacing="0" normal_offset="0" tang_offset="0" prop_units="false" vertical_pattern="false" fuse_tolerance="0" />
    <inkscape:path-effect effect="spiro" id="path-effect4195" is_visible="true" />
    <inkscape:path-effect effect="skeletal" id="path-effect4190" is_visible="true" pattern="M 0,5 C 0,2.24 2.24,0 5,0 7.76,0 10,2.24 10,5 10,7.76 7.76,10 5,10 2.24,10 0,7.76 0,5 Z" copytype="single_stretched" prop_scale="1" scale_y_rel="false" spacing="0" normal_offset="0" tang_offset="0" prop_units="false" vertical_pattern="false" fuse_tolerance="0" />
    <inkscape:path-effect effect="spiro" id="path-effect4188" is_visible="true" />
    <pattern y="0" x="0" height="6" width="6" patternUnits="userSpaceOnUse" id="EMFhbasepattern" />
    <pattern width="1" height="1" id="石膏脉" patternContentUnits="objectBoundingBox">
      <path style="fill:#000000" d="M 0.66707464,0.68001349 0.45108116,0.46342722 0.31581998,0.66564311 c -0.074394,0.11121876 -0.13801054,0.20221596 -0.14137088,0.20221596 -0.008203,0 -0.0186382,-0.015695 -0.0150587,-0.022647 0.001572,-0.003059 -0.0194083,-0.029618 -0.0466289,-0.0590205 -0.0411346,-0.0444323 -0.050418,-0.0520063 -0.0549758,-0.044853 -0.004754,0.007458 -0.006987,0.007116 -0.0167341,-0.002559 L 0.0298019,0.72761397 0.24080324,0.41199682 c 0.11605068,-0.17358951 0.21266283,-0.31781024 0.2146937,-0.3204907 0.002032,-0.0026818 0.0154999,0.0095357 0.0299313,0.02714642 0.0473518,0.0577844 0.0879514,0.0989626 0.0945672,0.0959147 0.003575,-0.001645 0.0103029,0.00205 0.0149503,0.008215 0.008062,0.0106953 0.007831,0.0121854 -0.005039,0.0324417 -0.0131431,0.0206869 -0.0132543,0.0214946 -0.004326,0.0314884 0.005039,0.005641 0.0993256,0.10213777 0.20952439,0.21443693 0.11019871,0.11229917 0.20351296,0.20766641 0.20736497,0.21192744 0.00606,0.006701 0.00586,0.00927 -0.0015,0.0190271 -0.00468,0.006204 -0.0122268,0.0101107 -0.0167786,0.008682 -0.005564,-0.001746 -0.0184148,0.0109978 -0.0392189,0.0388934 -0.054512,0.0730939 -0.0561627,0.0758797 -0.0501309,0.0846049 0.004148,0.006 0.003384,0.0108843 -0.003148,0.0201192 -0.008542,0.0120778 -0.0107169,0.0100989 -0.22461903,-0.20439027 z m 0.2455705,0.0917485 0.0435319,-0.0579632 -0.0235883,-0.0256382 c -0.0129737,-0.0141012 -0.025218,-0.0256382 -0.0272096,-0.0256382 -0.001991,0 -0.0199334,0.0217804 -0.0398702,0.0484007 -0.057066,0.0761962 -0.0543957,0.0664582 -0.0263094,0.0959443 0.0133768,0.0140429 0.0255796,0.0249312 0.0271176,0.0241955 0.001537,-7.3366e-4 0.0223856,-0.027421 0.0463283,-0.0593009 z m -0.70912276,0.006943 0.0192762,-0.0299864 -0.0461534,-0.0516884 c -0.0253841,-0.0284285 -0.0483522,-0.0516704 -0.0510401,-0.0516485 -0.002689,2.337e-5 -0.0135609,0.0135336 -0.0241628,0.0300259 l -0.0192754,0.0299864 0.0461534,0.0516884 c 0.0253848,0.0284286 0.0483522,0.0516706 0.05104,0.0516487 0.002689,-2.345e-5 0.0135609,-0.0135333 0.0241628,-0.030026 z m 0.63330518,-0.0812231 0.0452416,-0.0589083 -0.0138538,-0.0173597 c -0.007619,-0.009547 -0.0164933,-0.0173598 -0.0197195,-0.0173598 -0.006466,0 -0.090043,0.10852269 -0.090043,0.11691823 0,0.004582 0.0275369,0.0356176 0.031602,0.0356176 8.4305e-4,0 0.0218898,-0.0265087 0.0467726,-0.0589082 z M 0.26956821,0.67922583 c 3.0251e-4,-0.005836 -0.0906324,-0.10470539 -0.096303,-0.10470539 -0.002727,0 -0.0106915,0.009018 -0.0176949,0.0200395 l -0.0127315,0.0200398 0.0495279,0.0534984 0.0495279,0.0534985 0.0137379,-0.0192704 c 0.007557,-0.0105994 0.0138275,-0.020994 0.0139361,-0.0231003 z m 0.54582685,-0.0913833 c 0.007171,-0.0123768 0.006727,-0.0139503 -0.008299,-0.0293338 -0.029668,-0.0303753 -0.0279561,-0.0308745 -0.0668177,0.0194786 -0.0196963,0.0255204 -0.0399935,0.0531316 -0.0451052,0.0613582 l -0.009294,0.0149575 0.0228477,0.0222981 0.0228477,0.0222977 0.0381208,-0.048989 c 0.0209664,-0.0269439 0.041531,-0.0548742 0.0456991,-0.0620673 z m -0.50474318,0.0312525 0.017628,-0.0258265 -0.0493228,-0.0545941 -0.0493228,-0.0545942 -0.0142612,0.0202864 c -0.0270778,0.0385176 -0.0280173,0.0348909 0.0233327,0.090092 0.0258185,0.0277546 0.0486013,0.0504629 0.0506299,0.0504629 0.002028,0 0.0116204,-0.0116217 0.0213154,-0.0258266 z m 0.39919245,-0.0514163 0.045176,-0.0596425 -0.0200853,-0.0224922 c -0.0110469,-0.0123707 -0.0221581,-0.0224922 -0.0246914,-0.0224922 -0.002534,0 -0.0248164,0.0269661 -0.0495179,0.0599248 l -0.0449121,0.0599247 0.0212294,0.0220348 c 0.011676,0.0121193 0.0226684,0.0221137 0.0244272,0.02221 0.00176,9.734e-5 0.0235273,-0.0266641 0.0483741,-0.0594675 z M 0.38215148,0.50924183 c 1.954e-5,-0.005563 -0.0911772,-0.10490288 -0.0959847,-0.10455476 -0.004861,3.4767e-4 -0.0359472,0.0457018 -0.0359472,0.0524364 0,0.002495 0.0214233,0.0275666 0.0476079,0.0557146 l 0.0476076,0.0511783 0.0183519,-0.0255484 c 0.0100932,-0.0140518 0.0183577,-0.0272035 0.0183651,-0.0292261 z m 0.2594033,-0.0121313 0.0453026,-0.0598096 -0.0257161,-0.0276512 -0.0257158,-0.0276512 -0.0459973,0.0612405 c -0.0252986,0.0336822 -0.0458918,0.0631395 -0.0457629,0.0654605 2.701e-4,0.004919 0.044605,0.0482207 0.0493688,0.0482207 0.001769,0 0.0236041,-0.0269143 0.0485206,-0.0598096 z m -0.0393858,-0.12287144 0.009566,-0.0154783 -0.0273739,-0.0280755 c -0.024826,-0.0254625 -0.0278348,-0.0270869 -0.0323262,-0.0174523 -0.002723,0.005843 -0.0119592,0.0201622 -0.0205233,0.0318203 -0.008565,0.0116582 -0.0260698,0.0369003 -0.0389016,0.0560936 l -0.0233302,0.0348967 0.0236365,0.0251874 0.0236368,0.0251874 0.0380246,-0.0483507 c 0.0209136,-0.0265928 0.0423295,-0.0553158 0.047591,-0.0638288 z m -0.20433464,-0.00922 c -0.026089,-0.0297179 -0.0485629,-0.0541383 -0.0499421,-0.0542676 -0.00138,-1.2715e-4 -0.0118039,0.0140541 -0.0231654,0.0315187 l -0.0206577,0.0317537 0.0492435,0.0531915 0.0492434,0.0531914 0.0213563,-0.0306775 0.0213563,-0.0306775 -0.0474343,-0.0540324 z M 0.4994361,0.33317719 c 1.958e-5,-0.005081 -0.0920906,-0.10484227 -0.0965893,-0.10461416 -0.003722,1.8498e-4 -0.0353427,0.0484697 -0.0353427,0.0539642 0,0.001722 0.0214233,0.0261601 0.0476076,0.0543082 l 0.0476076,0.0511783 0.0183519,-0.0255484 c 0.0100932,-0.0140514 0.0183577,-0.0272309 0.0183651,-0.0292876 z m 0.0490191,-0.0705003 0.009636,-0.0155726 -0.0490528,-0.0535494 -0.0490528,-0.0535492 -0.012956,0.0192544 c -0.007126,0.01059 -0.0159219,0.023532 -0.0195469,0.0287599 -0.0058,0.008365 -6.1436e-4,0.0160288 0.0431784,0.0638372 l 0.0497695,0.0543316 0.009193,-0.0139695 c 0.005057,-0.007683 0.0135303,-0.0209773 0.0188303,-0.0295424 z" id="path4357" inkscape:connector-curvature="0" />
    </pattern>
  </defs>
  <sodipodi:namedview pagecolor="#ffffff" bordercolor="#666666" borderopacity="1" objecttolerance="10" gridtolerance="10" guidetolerance="10" inkscape:pageopacity="0" inkscape:pageshadow="2" inkscape:window-width="1680" inkscape:window-height="988" id="namedview4" showgrid="false" inkscape:zoom="256" inkscape:cx="0.5" inkscape:cy="0.5" inkscape:window-x="-8" inkscape:window-y="-8" inkscape:window-maximized="1" inkscape:current-layer="svg2" />
  <path style="fill:#000000" d="M 0.66707464,0.68001349 0.45108116,0.46342722 0.31581998,0.66564311 c -0.074394,0.11121876 -0.13801054,0.20221596 -0.14137088,0.20221596 -0.008203,0 -0.0186382,-0.015695 -0.0150587,-0.022647 0.001572,-0.003059 -0.0194083,-0.029618 -0.0466289,-0.0590205 -0.0411346,-0.0444323 -0.050418,-0.0520063 -0.0549758,-0.044853 -0.004754,0.007458 -0.006987,0.007116 -0.0167341,-0.002559 L 0.0298019,0.72761397 0.24080324,0.41199682 c 0.11605068,-0.17358951 0.21266283,-0.31781024 0.2146937,-0.3204907 0.002032,-0.0026818 0.0154999,0.0095357 0.0299313,0.02714642 0.0473518,0.0577844 0.0879514,0.0989626 0.0945672,0.0959147 0.003575,-0.001645 0.0103029,0.00205 0.0149503,0.008215 0.008062,0.0106953 0.007831,0.0121854 -0.005039,0.0324417 -0.0131431,0.0206869 -0.0132543,0.0214946 -0.004326,0.0314884 0.005039,0.005641 0.0993256,0.10213777 0.20952439,0.21443693 0.11019871,0.11229917 0.20351296,0.20766641 0.20736497,0.21192744 0.00606,0.006701 0.00586,0.00927 -0.0015,0.0190271 -0.00468,0.006204 -0.0122268,0.0101107 -0.0167786,0.008682 -0.005564,-0.001746 -0.0184148,0.0109978 -0.0392189,0.0388934 -0.054512,0.0730939 -0.0561627,0.0758797 -0.0501309,0.0846049 0.004148,0.006 0.003384,0.0108843 -0.003148,0.0201192 -0.008542,0.0120778 -0.0107169,0.0100989 -0.22461903,-0.20439027 z m 0.2455705,0.0917485 0.0435319,-0.0579632 -0.0235883,-0.0256382 c -0.0129737,-0.0141012 -0.025218,-0.0256382 -0.0272096,-0.0256382 -0.001991,0 -0.0199334,0.0217804 -0.0398702,0.0484007 -0.057066,0.0761962 -0.0543957,0.0664582 -0.0263094,0.0959443 0.0133768,0.0140429 0.0255796,0.0249312 0.0271176,0.0241955 0.001537,-7.3366e-4 0.0223856,-0.027421 0.0463283,-0.0593009 z m -0.70912276,0.006943 0.0192762,-0.0299864 -0.0461534,-0.0516884 c -0.0253841,-0.0284285 -0.0483522,-0.0516704 -0.0510401,-0.0516485 -0.002689,2.337e-5 -0.0135609,0.0135336 -0.0241628,0.0300259 l -0.0192754,0.0299864 0.0461534,0.0516884 c 0.0253848,0.0284286 0.0483522,0.0516706 0.05104,0.0516487 0.002689,-2.345e-5 0.0135609,-0.0135333 0.0241628,-0.030026 z m 0.63330518,-0.0812231 0.0452416,-0.0589083 -0.0138538,-0.0173597 c -0.007619,-0.009547 -0.0164933,-0.0173598 -0.0197195,-0.0173598 -0.006466,0 -0.090043,0.10852269 -0.090043,0.11691823 0,0.004582 0.0275369,0.0356176 0.031602,0.0356176 8.4305e-4,0 0.0218898,-0.0265087 0.0467726,-0.0589082 z M 0.26956821,0.67922583 c 3.0251e-4,-0.005836 -0.0906324,-0.10470539 -0.096303,-0.10470539 -0.002727,0 -0.0106915,0.009018 -0.0176949,0.0200395 l -0.0127315,0.0200398 0.0495279,0.0534984 0.0495279,0.0534985 0.0137379,-0.0192704 c 0.007557,-0.0105994 0.0138275,-0.020994 0.0139361,-0.0231003 z m 0.54582685,-0.0913833 c 0.007171,-0.0123768 0.006727,-0.0139503 -0.008299,-0.0293338 -0.029668,-0.0303753 -0.0279561,-0.0308745 -0.0668177,0.0194786 -0.0196963,0.0255204 -0.0399935,0.0531316 -0.0451052,0.0613582 l -0.009294,0.0149575 0.0228477,0.0222981 0.0228477,0.0222977 0.0381208,-0.048989 c 0.0209664,-0.0269439 0.041531,-0.0548742 0.0456991,-0.0620673 z m -0.50474318,0.0312525 0.017628,-0.0258265 -0.0493228,-0.0545941 -0.0493228,-0.0545942 -0.0142612,0.0202864 c -0.0270778,0.0385176 -0.0280173,0.0348909 0.0233327,0.090092 0.0258185,0.0277546 0.0486013,0.0504629 0.0506299,0.0504629 0.002028,0 0.0116204,-0.0116217 0.0213154,-0.0258266 z m 0.39919245,-0.0514163 0.045176,-0.0596425 -0.0200853,-0.0224922 c -0.0110469,-0.0123707 -0.0221581,-0.0224922 -0.0246914,-0.0224922 -0.002534,0 -0.0248164,0.0269661 -0.0495179,0.0599248 l -0.0449121,0.0599247 0.0212294,0.0220348 c 0.011676,0.0121193 0.0226684,0.0221137 0.0244272,0.02221 0.00176,9.734e-5 0.0235273,-0.0266641 0.0483741,-0.0594675 z M 0.38215148,0.50924183 c 1.954e-5,-0.005563 -0.0911772,-0.10490288 -0.0959847,-0.10455476 -0.004861,3.4767e-4 -0.0359472,0.0457018 -0.0359472,0.0524364 0,0.002495 0.0214233,0.0275666 0.0476079,0.0557146 l 0.0476076,0.0511783 0.0183519,-0.0255484 c 0.0100932,-0.0140518 0.0183577,-0.0272035 0.0183651,-0.0292261 z m 0.2594033,-0.0121313 0.0453026,-0.0598096 -0.0257161,-0.0276512 -0.0257158,-0.0276512 -0.0459973,0.0612405 c -0.0252986,0.0336822 -0.0458918,0.0631395 -0.0457629,0.0654605 2.701e-4,0.004919 0.044605,0.0482207 0.0493688,0.0482207 0.001769,0 0.0236041,-0.0269143 0.0485206,-0.0598096 z m -0.0393858,-0.12287144 0.009566,-0.0154783 -0.0273739,-0.0280755 c -0.024826,-0.0254625 -0.0278348,-0.0270869 -0.0323262,-0.0174523 -0.002723,0.005843 -0.0119592,0.0201622 -0.0205233,0.0318203 -0.008565,0.0116582 -0.0260698,0.0369003 -0.0389016,0.0560936 l -0.0233302,0.0348967 0.0236365,0.0251874 0.0236368,0.0251874 0.0380246,-0.0483507 c 0.0209136,-0.0265928 0.0423295,-0.0553158 0.047591,-0.0638288 z m -0.20433464,-0.00922 c -0.026089,-0.0297179 -0.0485629,-0.0541383 -0.0499421,-0.0542676 -0.00138,-1.2715e-4 -0.0118039,0.0140541 -0.0231654,0.0315187 l -0.0206577,0.0317537 0.0492435,0.0531915 0.0492434,0.0531914 0.0213563,-0.0306775 0.0213563,-0.0306775 -0.0474343,-0.0540324 z M 0.4994361,0.33317719 c 1.958e-5,-0.005081 -0.0920906,-0.10484227 -0.0965893,-0.10461416 -0.003722,1.8498e-4 -0.0353427,0.0484697 -0.0353427,0.0539642 0,0.001722 0.0214233,0.0261601 0.0476076,0.0543082 l 0.0476076,0.0511783 0.0183519,-0.0255484 c 0.0100932,-0.0140514 0.0183577,-0.0272309 0.0183651,-0.0292876 z m 0.0490191,-0.0705003 0.009636,-0.0155726 -0.0490528,-0.0535494 -0.0490528,-0.0535492 -0.012956,0.0192544 c -0.007126,0.01059 -0.0159219,0.023532 -0.0195469,0.0287599 -0.0058,0.008365 -6.1436e-4,0.0160288 0.0431784,0.0638372 l 0.0497695,0.0543316 0.009193,-0.0139695 c 0.005057,-0.007683 0.0135303,-0.0209773 0.0188303,-0.0295424 z" id="path4357" inkscape:connector-curvature="0" />
</svg>