<?xml version="1.0" encoding="utf-8" standalone="no"?>
<svg xmlns:dc="http://purl.org/dc/elements/1.1/" xmlns:cc="http://creativecommons.org/ns#" xmlns:rdf="http://www.w3.org/1999/02/22-rdf-syntax-ns#" xmlns:svg="http://www.w3.org/2000/svg" xmlns="http://www.w3.org/2000/svg" xmlns:sodipodi="http://sodipodi.sourceforge.net/DTD/sodipodi-0.dtd" xmlns:inkscape="http://www.inkscape.org/namespaces/inkscape" height="1" version="1.1" width="1" id="svg2" inkscape:version="0.91 r13725" sodipodi:docname="剑龙.svg">
  <metadata id="metadata8">
    <rdf:RDF>
      <cc:Work rdf:about="">
        <dc:format>image/svg+xml</dc:format>
        <dc:type rdf:resource="http://purl.org/dc/dcmitype/StillImage" />
        <dc:title></dc:title>
      </cc:Work>
    </rdf:RDF>
  </metadata>
  <defs id="defs6">
    <pattern width="1" height="1" id="剑龙" patternContentUnits="objectBoundingBox">
      <path style="fill:#000000" d="m 0.33001301,0.84406838 c -0.0114903,-0.007777 -0.0261696,-0.0141394 -0.0326208,-0.0141394 -0.006451,0 -0.020719,-0.005678 -0.0317064,-0.012618 l -0.0199777,-0.012618 0.01055,-0.00754 c 0.005803,-0.004147 0.0146185,-0.0112037 0.0195908,-0.0156809 0.008774,-0.0079 0.008595,-0.008007 -0.006066,-0.00364 -0.0198803,0.005922 -0.0118202,-0.001086 0.0107054,-0.00931 0.009682,-0.003535 0.0250307,-0.0114674 0.0341077,-0.0176288 0.0259859,-0.0176387 0.0192466,-0.004482 -0.007508,0.0146575 -0.0258894,0.0185203 -0.0326603,0.0262224 -0.0235587,0.0267983 0.003169,2.0072e-4 -0.002162,0.002999 -0.0118429,0.006218 l -0.0176038,0.005854 0.0140845,0.008011 c 0.0180148,0.0102467 0.026479,0.0107091 0.0190331,0.001039 -0.004458,-0.005792 -0.002691,-0.008348 0.0104637,-0.0151078 0.008707,-0.004475 0.0158321,-0.009847 0.0158321,-0.0119377 0,-0.004602 0.0307661,-0.0189631 0.0363373,-0.0169615 0.002176,7.8257e-4 -0.00923,0.008784 -0.0253457,0.0177822 -0.016116,0.008998 -0.0301166,0.0177816 -0.0311126,0.0195184 -9.9743e-4,0.001737 0.0119375,0.0119601 0.0287411,0.0227192 0.028594,0.0183081 0.0406234,0.0290234 0.0323485,0.028814 -0.001958,-4.892e-5 -0.0129618,-0.006453 -0.0244522,-0.0142296 z m -0.0385214,0.001362 c -0.006051,-0.001199 -0.0129827,-0.003783 -0.0154035,-0.005735 -0.002422,-0.001957 -0.0217591,-0.009546 -0.042975,-0.0168663 -0.0212159,-0.00732 -0.0376019,-0.0143566 -0.0364138,-0.0156369 0.001902,-0.002049 0.11172263,0.0357094 0.1164306,0.0400301 0.002143,0.00197 -0.006137,0.001283 -0.021638,-0.001789 z m -0.12652796,-0.044107 c -0.0152388,-0.006602 -0.0117278,-0.009509 0.004403,-0.003644 0.007867,0.00286 0.0151284,0.005951 0.0161369,0.006868 0.003581,0.003255 -0.0107884,9.9945e-4 -0.0205381,-0.003224 z m -0.0328379,-0.0161065 c -0.0304451,-0.0171177 -0.0405227,-0.0258431 -0.0576707,-0.0499302 -0.0101283,-0.0142271 -0.0208206,-0.0302353 -0.0237605,-0.0355737 -0.006578,-0.0119452 -0.007256,-0.0543613 -0.001141,-0.0716846 0.004231,-0.012001 0.005006,-0.0123113 0.0124882,-0.005014 0.007411,0.007228 0.008494,0.007162 0.0152917,-9.3438e-4 0.00921,-0.0109686 0.009201,-0.0111398 -0.001986,-0.0376038 l -0.009301,-0.0220032 0.011501,-0.0252734 c 0.006326,-0.0139002 0.011501,-0.0285715 0.011501,-0.0326026 0,-0.005424 0.002575,-0.006465 0.009902,-0.004004 0.0245129,0.00823 0.030542,0.0123521 0.0375903,0.0257007 0.004138,0.007833 0.009996,0.0142558 0.0130208,0.0142723 0.007124,3.729e-5 0.006947,-0.003193 -0.001665,-0.0304318 -0.008193,-0.0259145 -0.00398,-0.0502104 0.012998,-0.0749604 0.008299,-0.0120975 0.0113576,-0.0134171 0.0249189,-0.0107509 0.0192758,0.003789 0.0352633,0.0145756 0.0352633,0.023791 0,0.0111246 0.0115015,0.008139 0.0195323,-0.005071 0.006975,-0.0114737 0.006856,-0.0129223 -0.002394,-0.0290508 -0.009164,-0.0159813 -0.009411,-0.0187281 -0.004212,-0.0469261 0.003039,-0.0164733 0.004194,-0.032268 0.00257,-0.0350995 -0.001624,-0.002831 -8.2113e-4,-0.004562 0.001786,-0.003845 0.002974,8.1932e-4 0.005438,-0.0128038 0.006622,-0.0366518 0.001039,-0.0208752 0.00386,-0.0435483 0.006271,-0.0503843 0.004352,-0.0123341 0.004551,-0.0123827 0.0261325,-0.006349 0.0119612,0.003344 0.0260239,0.008941 0.0312504,0.012439 0.009151,0.006124 0.0268641,0.0392667 0.0268641,0.0502651 0,0.008515 0.008645,0.0119424 0.0152411,0.006042 0.005064,-0.004528 0.004273,-0.009609 -0.004845,-0.0310707 -0.0135705,-0.0319466 -0.0173232,-0.0554718 -0.0106812,-0.0669613 0.004736,-0.008192 0.004922,-0.0081 0.00257,0.001266 -0.001396,0.005555 6.8196e-4,0.020496 0.004621,0.0332022 0.008776,0.0283173 0.0166059,0.0388414 0.0131678,0.0176995 -0.002051,-0.0126219 9.1392e-4,-0.0194836 0.0194729,-0.0450601 0.0120419,-0.0165939 0.0219336,-0.03259 0.0219818,-0.0355466 9.422e-5,-0.005808 -0.0137839,-0.0110566 -0.0295061,-0.0111604 -0.006525,-4.19e-5 -0.0121365,0.004827 -0.0168281,0.0146057 -0.003874,0.008069 -0.008076,0.0135524 -0.009344,0.0121862 -0.001266,-0.001366 0.001355,-0.009258 0.005826,-0.0175364 0.00799,-0.014792 0.008569,-0.015004 0.0334972,-0.0122522 0.0215671,0.002381 0.0266757,0.001389 0.0341077,-0.00662 0.0129215,-0.0139264 0.0203766,-0.0116681 0.0354479,0.0107378 0.012227,0.0181781 0.0133446,0.0227213 0.0113757,0.0462459 -0.003846,0.0459715 -0.004881,0.0496925 -0.0154809,0.0557323 -0.0148194,0.008444 -0.0152374,0.00764 -0.00431,-0.008287 0.006599,-0.00962 0.0103249,-0.0230392 0.0115237,-0.0415027 0.001485,-0.0228341 6.741e-5,-0.02999 -0.008675,-0.0438548 -0.0134838,-0.0213852 -0.0238124,-0.0235534 -0.0309929,-0.006506 -0.003053,0.007247 -0.0134712,0.0225371 -0.0231537,0.0339789 -0.0295766,0.0349519 -0.0292899,0.033529 -0.0219396,0.10885961 0.001549,0.0159065 5.3814e-4,0.0201584 -0.00481,0.0201584 -0.003725,0 -0.005918,-0.001601 -0.004867,-0.003557 0.001053,-0.001957 5.6134e-4,-0.007554 -0.001086,-0.012439 -0.002765,-0.008193 -0.003549,-0.008285 -0.0101375,-0.001186 -0.003929,0.004233 -0.008767,0.007763 -0.0107555,0.007845 -0.00199,8.172e-5 -0.007269,0.005555 -0.0117343,0.0121609 -0.006545,0.009683 -0.007226,0.0144819 -0.003512,0.0247527 0.009413,0.0260213 0.007664,0.0361205 -0.0104637,0.0604146 -0.009634,0.0129105 -0.0199911,0.0251805 -0.0230168,0.0272668 -0.003025,0.002086 -0.005501,0.006889 -0.005501,0.0106722 0,0.0105646 -0.0105305,0.008185 -0.0219985,-0.004972 -0.009725,-0.0111568 -0.0108065,-0.0113863 -0.0184621,-0.003919 -0.00787,0.007677 -0.007775,0.008333 0.00296,0.0204109 0.006101,0.006864 0.0110937,0.0163089 0.0110937,0.0209893 0,0.0175909 -0.0147739,0.0409267 -0.0382894,0.0604797 -0.0235619,0.0195911 -0.0245013,0.0199255 -0.0306895,0.0109244 -0.00379,-0.005515 -0.005415,-0.01463 -0.003999,-0.0224453 0.002162,-0.011923 0.001568,-0.0126871 -0.006328,-0.008134 -0.004793,0.002765 -0.008713,0.006854 -0.008713,0.009088 0,0.002234 -0.004951,0.005401 -0.0110023,0.007038 -0.008017,0.002169 -0.0110023,0.006152 -0.0110023,0.0146797 0,0.013912 -0.0262819,0.0421965 -0.0469469,0.0505246 -0.014503,0.005845 -0.0265547,0.0250958 -0.0189019,0.0301933 0.006426,0.00428 0.005064,0.0383743 -0.002292,0.0573489 -0.005803,0.0149684 -0.005777,0.0184036 2.4457e-4,0.0309404 0.003786,0.007892 0.0202277,0.0234877 0.0373347,0.0354143 0.0168124,0.0117215 0.030568,0.0222757 0.030568,0.0234537 0,0.003098 -9.4639e-4,0.002789 -0.0141337,-0.004626 z M 0.06041996,0.6313203 c -0.00231,-0.006484 -0.003187,-0.006545 -0.00675,-4.7102e-4 -0.005877,0.0100159 -0.005171,0.0443866 0.001234,0.0600336 0.005111,0.0124869 0.005553,0.0112306 0.006818,-0.0193792 7.4691e-4,-0.0180022 1.6701e-4,-0.0360852 -0.001299,-0.0401839 z m 0.0178065,0.0545642 c 0.003465,-0.0199083 0.001304,-0.0372968 -0.004908,-0.0394974 -0.002978,-0.001054 -0.004927,0.008895 -0.005271,0.0269017 -5.8918e-4,0.0308485 0.005657,0.038577 0.0101793,0.0125958 z m 0.0592309,-0.12909822 c 0,-0.0154459 -0.002872,-0.0232436 -0.0127684,-0.0346607 -0.0181322,-0.0209199 -0.0270339,-0.0189924 -0.0395838,0.008571 -0.0120781,0.0265271 -0.0106372,0.0477217 0.004421,0.0649946 l 0.009144,0.0104908 0.0193941,-0.0147331 c 0.0176785,-0.01343 0.0193941,-0.016496 0.0193941,-0.0346627 z m -0.0478114,0.0162147 c -3.2859e-4,-0.004352 -0.001879,-0.0118225 -0.003447,-0.016601 -0.002199,-0.006707 -0.00161,-0.007461 0.002575,-0.003307 0.002983,0.00296 0.004532,0.0104307 0.003447,0.0166012 -0.001086,0.006171 -0.002245,0.007658 -0.002575,0.003307 z m -5.9845e-4,-0.0368676 c 0,-0.002454 0.001958,-0.005767 0.004352,-0.007361 0.002496,-0.001662 0.003233,2.4192e-4 0.00173,0.004463 -0.002927,0.008217 -0.00608,0.009721 -0.00608,0.002898 z m 0.13113948,0.005249 c 0.0168458,-0.0136311 0.0233485,-0.02514 0.0259469,-0.0459198 0.001948,-0.0155689 -0.007431,-0.0295192 -0.0160056,-0.023808 -0.006801,0.00453 -0.0286836,0.0407357 -0.0351659,0.0581849 -0.006376,0.0171625 -0.003452,0.0323032 0.005179,0.0268093 0.003043,-0.001936 0.0120637,-0.008807 0.0200463,-0.0152664 z m -0.0453748,-0.0328021 c -0.001461,-0.009783 -0.003591,-0.023123 -0.004734,-0.0296448 -0.001605,-0.009143 -0.001058,-0.0102287 0.002385,-0.004743 0.002459,0.003913 0.004495,0.0139256 0.004532,0.02225 3.628e-5,0.008324 0.001559,0.0161289 0.003382,0.0173431 0.001823,0.001214 0.00309,-0.0141344 0.002816,-0.034108 l -5.0103e-4,-0.0363159 0.002686,0.0304588 c 0.001568,0.017778 0.004958,0.0312659 0.008146,0.0323975 0.003874,0.001377 0.004851,-0.002651 0.003359,-0.0138578 -0.001591,-0.0119447 -0.001285,-0.0130009 0.001253,-0.004332 l 0.003354,0.0114645 0.007589,-0.0124835 c 0.004175,-0.006866 0.007589,-0.0178946 0.007589,-0.0245082 0,-0.0142119 -0.0141045,-0.0309974 -0.0260457,-0.0309974 -0.004643,0 -0.0111039,-0.001102 -0.0143573,-0.002447 -0.003674,-0.001521 -0.009888,0.005391 -0.0164102,0.0182597 -0.008305,0.0163846 -0.0100137,0.025309 -0.008189,0.0427607 0.002459,0.0235066 0.009338,0.0362893 0.01953,0.0362893 0.004774,0 0.005631,-0.004227 0.003609,-0.0177869 z m 0.0293553,-0.0391311 c 0,-0.006522 9.9743e-4,-0.00919 0.002222,-0.005929 0.00122,0.003261 0.00122,0.008597 0,0.0118578 -0.00122,0.003261 -0.002222,5.9401e-4 -0.002222,-0.005929 z m -0.009149,-0.00751 c 2.0914e-4,-0.005526 0.001253,-0.006649 0.002658,-0.002866 0.001271,0.003424 0.001113,0.007515 -3.4539e-4,0.009091 -0.001461,0.001575 -0.002505,-0.001225 -0.00231,-0.006225 z m 0.10250037,-0.0348626 c 0.0109225,-0.0154789 0.0202106,-0.0309533 0.0206406,-0.034388 0.002218,-0.0177261 -0.001489,-0.0296418 -0.0131256,-0.0421833 -0.0108561,-0.0117005 -0.0163689,-0.0138646 -0.0353167,-0.0138646 -0.0204212,0 -0.022867,0.001175 -0.0270348,0.0129898 -0.0107689,0.0305261 -0.002881,0.0644247 0.0215295,0.0925457 0.006228,0.007174 0.0118016,0.0130437 0.0123857,0.0130437 5.8453e-4,0 0.009999,-0.0126643 0.0209213,-0.0281432 z m -0.0128088,-0.0243473 c -0.001596,-0.002783 -0.001958,-0.006076 -8.0258e-4,-0.007319 0.001155,-0.001243 0.003271,0.001034 0.004704,0.005059 0.002974,0.008358 4.3877e-4,0.009828 -0.003902,0.002261 z m -0.0342933,-0.002846 c -0.001614,-0.00174 -0.002932,-0.005368 -0.002932,-0.008063 0,-0.002972 0.002051,-0.002692 0.005207,7.1148e-4 0.002862,0.003087 0.004185,0.006716 0.002932,0.008063 -0.001253,0.001348 -0.003595,0.001028 -0.005208,-7.1149e-4 z m 0.0784085,-0.096383 c -0.004426,-0.0257502 -0.0182389,-0.0458694 -0.0388884,-0.0566427 -0.0270793,-0.0141281 -0.0324288,-0.0129268 -0.0354582,0.007964 -0.007438,0.0512926 -0.003345,0.072203 0.0142052,0.072601 0.006493,1.4711e-4 0.0187376,0.002963 0.0272097,0.006258 0.0138326,0.00538 0.0164431,0.004995 0.0255994,-0.003764 0.008405,-0.008041 0.009693,-0.0126808 0.007332,-0.0264164 z M 0.22782571,0.78829756 c 0.002501,-0.001884 0.004777,-0.008764 0.005058,-0.0152858 0.001155,-0.0268356 0.005552,-0.0346651 0.0280846,-0.0499955 0.0230163,-0.0156595 0.0252292,-0.0146947 0.006641,0.002895 -0.0284391,0.0269114 -0.0400115,0.0565863 -0.0220672,0.0565863 0.0128315,0 0.005858,0.007149 -0.00797,0.008171 -0.007862,5.8092e-4 -0.0122474,-4.8671e-4 -0.009746,-0.002371 z m 0.0202185,-0.0473021 c 0.005474,-0.007523 0.005319,-0.007691 -0.001661,-0.00179 -0.004236,0.00358 -0.007702,0.007316 -0.007702,0.008301 0,0.003904 0.003614,0.001392 0.009363,-0.00651 z m -0.0608741,0.0190777 c 0.001471,-0.007927 0.00392,-0.0205324 0.005444,-0.0280107 0.002115,-0.0103864 0.001661,-0.0119172 -0.001921,-0.006482 -0.002579,0.003913 -0.00472,0.005097 -0.004757,0.002631 -8.944e-5,-0.005868 0.0223836,-0.0310901 0.0277005,-0.0310901 0.002445,0 0.002361,0.002407 -2.0352e-4,0.005929 -0.006431,0.008824 -0.0210285,0.0525135 -0.0196901,0.0589319 6.402e-4,0.003064 -0.001178,0.007131 -0.004041,0.009038 -0.003762,0.002507 -0.004463,-5.2336e-4 -0.002528,-0.010947 z m 0.0273053,0.003452 c 0.004379,-0.005218 0.0100127,-0.009486 0.0125146,-0.009486 0.002501,0 2.9686e-4,0.004269 -0.004899,0.009486 -0.005196,0.005218 -0.0108278,0.009486 -0.0125142,0.009486 -0.001684,0 5.1959e-4,-0.004269 0.004899,-0.009486 z m -0.0530933,-0.004088 c 0.001986,-0.003553 0.001823,-0.007821 -3.5847e-4,-0.009486 -0.009761,-0.00745 -0.0197448,-0.0312151 -0.0199536,-0.0474971 -2.9315e-4,-0.0229073 0.0144,-0.053782 0.0326533,-0.0686131 0.007889,-0.00641 0.0410799,-0.025914 0.0737569,-0.0433422 0.0727676,-0.0388102 0.0902353,-0.0524887 0.12732674,-0.0997057 0.008197,-0.0104348 0.0116183,-0.013178 0.007603,-0.006096 -0.009214,0.01625 -0.009238,0.0161043 0.002603,0.0156063 0.0261895,-0.001102 0.0605562,-0.0268048 0.0741188,-0.0554347 0.004551,-0.009606 0.0104284,-0.0189003 0.0130616,-0.0206543 0.012234,-0.008149 -0.0153218,0.0367236 -0.0320163,0.0521366 -0.0230729,0.0213014 -0.008361,0.016602 0.0168049,-0.005368 0.020353,-0.0177686 0.0237521,-0.0189524 0.0237521,-0.008273 0,0.005673 0.002941,0.006829 0.0121027,0.004762 0.0103232,-0.002329 0.0137634,-1.1637e-4 0.0233969,0.0150385 0.009778,0.0153826 0.0206036,0.0451709 0.024384,0.0670962 0.001417,0.008216 0.0102427,0.0145356 0.0204342,0.0146316 0.004236,3.732e-5 0.007702,0.00191 0.007702,0.004158 0,0.002248 -0.005446,0.003147 -0.0121026,0.002 -0.00946,-0.00163 -0.0106612,-9.8379e-4 -0.005501,0.002957 0.003631,0.002773 0.0115525,0.005365 0.0176038,0.005761 l 0.0110024,7.1932e-4 -0.0110024,0.00218 c -0.0146751,0.002908 -0.0220049,0.009944 -0.0220049,0.0211235 0,0.005062 -0.006188,0.0230332 -0.0137518,0.0399351 -0.007563,0.0169019 -0.0127277,0.0318344 -0.011476,0.0331834 0.003824,0.004121 0.0440223,0.007108 0.0563602,0.004187 0.009709,-0.002298 0.0127686,-0.007179 0.0186757,-0.0297947 0.003885,-0.0148755 0.008027,-0.0409199 0.009203,-0.0578768 0.001176,-0.0169568 0.005906,-0.0386574 0.0105116,-0.0482235 0.0120807,-0.0250939 0.009539,-0.0930519 -0.005288,-0.14140142 -0.005983,-0.0195097 -0.01006,-0.0363538 -0.00906,-0.0374314 0.003265,-0.003518 0.0199652,0.0202592 0.0291877,0.0415562 0.008845,0.0204248 0.0114487,0.0295751 0.0121224,0.0426003 2.6139e-4,0.005062 0.001718,0.005274 0.006546,9.5487e-4 0.007042,-0.006299 0.0108468,-0.001942 0.009013,0.0103218 -0.001845,0.0123351 0.003473,0.0100554 0.0132576,-0.005683 0.004772,-0.007676 0.009386,-0.0131911 0.0102538,-0.0122558 8.6799e-4,9.3438e-4 -0.001779,0.007222 -0.005881,0.01397 -0.005855,0.00963 -0.006167,0.0123006 -0.001452,0.0124136 0.00353,8.368e-5 0.002378,0.002363 -0.002795,0.005523 -0.011242,0.006871 -0.0152516,0.0133717 -0.015336,0.0248644 -6.023e-5,0.00823 0.001219,0.007859 0.012276,-0.003557 0.0136974,-0.0141433 0.0207396,-0.0164934 0.0168717,-0.00563 -0.004499,0.0126358 0.001156,0.007552 0.008404,-0.007556 0.003871,-0.008069 0.008246,-0.0133692 0.009722,-0.0117788 0.001475,0.001591 3.3981e-4,0.005417 -0.002525,0.008504 -0.006876,0.007411 -0.00668,0.014578 2.9314e-4,0.0107109 0.003026,-0.001677 -9.5242e-4,0.002998 -0.008842,0.0103922 -0.0176688,0.0165604 -0.0184571,0.028052 -0.002161,0.0314956 0.009101,0.001924 0.0152459,-5.8615e-4 0.0247757,-0.0101192 l 0.012673,-0.0126766 -0.005665,0.0118578 c -0.003116,0.006522 -0.0105111,0.0201731 -0.0164339,0.030336 -0.00892,0.0153059 -0.0108787,0.0250769 -0.0114089,0.056918 l -6.402e-4,0.0384399 0.0121028,0.001499 c 0.007565,9.392e-4 0.0121026,-7.5124e-4 0.0121026,-0.004506 0,-0.004672 0.001172,-0.004742 0.005281,-3.1401e-4 0.00591,0.00637 0.0140518,0.007801 0.010652,0.001874 -0.001204,-0.002101 -6.1423e-4,-0.0113528 0.001312,-0.0205604 0.003889,-0.0185829 -0.002011,-0.0320607 -0.0128455,-0.0293443 -0.003631,9.1089e-4 0.00132,-0.002363 0.0110024,-0.007275 0.0179462,-0.009103 0.0336043,-0.0280693 0.0425867,-0.0515831 0.003948,-0.0103359 0.005397,-0.0113546 0.006839,-0.004812 0.001006,0.004565 0.005484,0.008301 0.00995,0.008301 0.004466,0 0.0112586,0.001298 0.0150957,0.002885 0.004623,0.001913 0.01372,-0.004487 0.0269707,-0.0189728 0.0109967,-0.0120219 0.0233678,-0.0218499 0.0274909,-0.0218402 0.004785,1.246e-5 0.002324,0.003418 -0.006806,0.009417 -0.007867,0.00517 -0.014303,0.0114876 -0.014303,0.0140407 0,0.00796 -0.0319438,0.0286562 -0.0559423,0.0362441 -0.0140313,0.004436 -0.0269616,0.0124089 -0.0333067,0.0205363 -0.00916,0.011732 -0.0100508,0.0164272 -0.007625,0.0401742 0.003173,0.0310708 6.9262e-4,0.0330769 -0.0376467,0.0304614 l -0.0217132,-0.001481 1.163e-4,-0.0355738 c 6.264e-5,-0.0195655 0.001679,-0.039077 0.003588,-0.0433588 0.003013,-0.006754 4.5931e-4,-0.007653 -0.0192961,-0.006793 -0.0165179,7.1931e-4 -0.0239619,0.00329 -0.0271143,0.009361 -0.005548,0.0106853 -0.006831,0.0540346 -0.002023,0.0683466 0.003465,0.0103119 0.002689,0.0109006 -0.0132029,0.01003 -0.0289,-0.001583 -0.0297785,-0.001089 -0.0216892,0.0122174 0.003965,0.006522 0.006668,0.0120211 0.006007,0.0122207 -6.6108e-4,2.0074e-4 -0.005163,0.001143 -0.0100036,0.002096 -0.004841,9.5246e-4 -0.0157335,0.003307 -0.0242053,0.005231 -0.0157907,0.003586 -0.0521289,0.00281 -0.0582132,-0.001243 -0.006524,-0.004345 -0.003318,-0.0215103 0.007852,-0.0420534 0.0116203,-0.0213702 0.0148328,-0.0521552 0.008622,-0.082629 -0.002663,-0.0130665 -0.004654,-0.0145745 -0.0192485,-0.0145745 -0.009571,0 -0.0296246,-0.006893 -0.048673,-0.0167321 -0.0178172,-0.009203 -0.0331812,-0.0158845 -0.034142,-0.0148488 -9.6031e-4,0.001036 -0.001851,0.0164916 -0.001976,0.0343466 l -2.315e-4,0.0324637 -0.0276755,0.0273313 c -0.0295246,0.0291578 -0.036135,0.0426462 -0.026165,0.0533914 0.008504,0.009165 0.007991,0.0105293 -0.005893,0.0156437 -0.0113743,0.00419 -0.0630963,0.00353 -0.0745302,-9.5246e-4 -0.009224,-0.003615 0.002477,-0.035546 0.0203887,-0.0556347 0.0151246,-0.0169644 0.0168773,-0.0178018 0.0189937,-0.009078 0.002385,0.009835 -0.003271,0.0172478 -0.020334,0.0266383 -0.005199,0.002862 -0.008852,0.008799 -0.008139,0.013229 7.098e-4,0.004421 -7.7474e-4,0.008037 -0.003298,0.008037 -0.002528,0 -0.004593,0.002135 -0.004593,0.004743 0,0.009112 0.0183888,0.004905 0.0207297,-0.004743 0.002927,-0.0120546 0.003906,-0.0119366 0.0196817,0.002371 0.013159,0.0119335 0.0300043,0.0159279 0.0300043,0.007115 0,-0.002609 -0.001981,-0.004743 -0.004403,-0.004743 -0.006968,0 -0.005223,-0.006856 0.006469,-0.0254255 0.006636,-0.010539 0.008779,-0.0173462 0.005501,-0.0174768 -0.002951,-1.19e-4 5.7526e-4,-0.003146 0.007834,-0.006729 0.0152968,-0.007549 0.008345,-0.009569 -0.00878,-0.002551 -0.006355,0.002604 -0.0103277,0.006873 -0.008829,0.009486 0.001498,0.002614 7.4691e-4,0.004752 -0.001675,0.004752 -0.002422,0 -0.005651,-0.00218 -0.007178,-0.004842 -0.00302,-0.005267 0.0233346,-0.0188734 0.0365567,-0.0188734 0.0154123,0 0.0261612,-0.0192224 0.0285124,-0.050989 0.002491,-0.0336792 -5.9845e-4,-0.0362416 -0.021002,-0.0174187 -0.0118471,0.0109281 -0.0121862,0.0119455 -0.003298,0.009907 0.0108158,-0.002481 0.0131103,0.002549 0.004403,0.009649 -0.007014,0.005718 -0.0253058,0.006849 -0.0253058,0.001565 0,-0.002206 0.009925,-0.0136257 0.0220546,-0.0253797 0.0258806,-0.0250782 0.0218185,-0.0292987 -0.0154531,-0.0160559 -0.0341513,0.0121339 -0.0431518,0.0202377 -0.0367646,0.0331007 0.005253,0.0105787 -0.001415,0.0431584 -0.0100062,0.0488801 -0.003261,0.002175 -0.003224,1.3534e-4 1.2109e-4,-0.006604 0.006169,-0.0124238 0.006267,-0.0373194 1.6223e-4,-0.0413858 -0.002575,-0.001714 -0.008249,3.6635e-4 -0.0126135,0.004624 -0.004365,0.004257 -0.0350531,0.0224557 -0.0681969,0.040442 -0.0883804,0.0479616 -0.11255471,0.0708534 -0.11255471,0.10658371 0,0.0182804 0.0116916,0.0453767 0.0195796,0.0453767 0.008961,0 0.008681,0.006703 -6.2165e-4,0.0148347 -0.006211,0.00543 -0.006847,0.005438 -0.003837,5.129e-5 z m 0.17411932,-0.0881241 c 0,-0.001151 -0.001981,-0.00341 -0.004403,-0.005023 -0.002422,-0.001612 -0.004403,-6.6992e-4 -0.004403,0.002091 0,0.002763 0.001981,0.005023 0.004403,0.005023 0.002422,0 0.004403,-9.4222e-4 0.004403,-0.002091 z m 0.28938549,-0.0346679 c -0.001143,-0.007174 -0.003591,-0.0168663 -0.00544,-0.0215383 -0.002327,-0.005877 -0.001581,-0.008069 0.002417,-0.007115 0.003179,7.5907e-4 0.006499,-0.002889 0.007378,-0.008107 0.001314,-0.007797 7.8403e-4,-0.00822 -0.002972,-0.002371 -0.006126,0.009537 -0.00591,0.003297 4.0143e-4,-0.0116346 0.002809,-0.006645 0.00677,-0.012081 0.008802,-0.012081 0.002032,0 0.003695,-0.001884 0.003695,-0.00419 0,-0.005466 -0.0187936,-0.0107421 -0.0225367,-0.006327 -0.001587,0.001871 -0.003764,0.0209236 -0.004839,0.0423385 -0.001639,0.0326658 -8.3274e-4,0.0392612 0.005009,0.0409525 0.00383,0.00111 0.007683,0.002263 0.008563,0.002567 8.7958e-4,3.0355e-4 6.6479e-4,-0.00532 -4.7784e-4,-0.0124934 z m 0.0710095,-0.0835623 c 0.006164,-0.008005 -0.004719,-0.0197337 -0.014541,-0.0156715 -0.0102855,0.004254 -0.017323,-0.008564 -0.011329,-0.0206347 0.005115,-0.0103006 0.002073,-0.0201396 -0.003591,-0.0116176 -0.001684,0.002533 -0.006348,0.007375 -0.0103647,0.0107591 -0.006679,0.005627 -0.007095,0.00368 -0.004871,-0.0227566 0.001864,-0.0221443 0.001107,-0.0285793 -0.003227,-0.0274975 -0.003453,8.6088e-4 -0.007733,-0.007043 -0.010978,-0.020278 -0.006379,-0.0260168 -0.0179969,-0.0492181 -0.0128898,-0.0257416 0.009313,0.0428136 0.0106487,0.0771001 0.004464,0.11464552 -0.003002,0.018221 -0.002451,0.0199481 0.006971,0.0218842 0.0235631,0.004841 0.0555079,0.003205 0.0603566,-0.003092 z m 0.0922746,0.002263 c 0.004163,-0.002842 0.004496,-0.00506 0.0011,-0.007322 -0.005582,-0.003718 -0.0136728,4.7102e-4 -0.0136728,0.007082 0,0.005515 0.004716,0.005605 0.0125725,2.4061e-4 z m -0.26484217,-0.036536 c -0.001412,-0.009373 -0.007637,-0.0242068 -0.0138343,-0.032964 l -0.0112682,-0.0159221 -0.0263505,0.0169173 c -0.0270974,0.017397 -0.032715,0.0234519 -0.0178775,0.0192703 0.006287,-0.001772 0.007799,-4.9719e-4 0.005863,0.004942 -0.00263,0.00739 0.006048,0.007111 0.0318749,-0.001026 0.004841,-0.001525 0.00187,7.5907e-4 -0.006602,0.005077 l -0.0154034,0.007851 0.0132026,0.006235 c 0.007262,0.003429 0.0198984,0.006331 0.0280819,0.006449 0.0146456,2.0986e-4 0.0148388,-5.362e-5 0.012313,-0.0168281 z m -0.0693687,-0.0254445 c 0.0156192,-0.008588 0.0255656,-0.0220573 0.0203994,-0.027625 -0.002626,-0.002828 -0.0417067,0.0282804 -0.041901,0.0333519 -2.0352e-4,0.005309 0.002964,0.004465 0.0215012,-0.005727 z m -0.34202802,0.1790896 c -0.002904,-0.00313 -0.005218,-0.009 -0.005142,-0.0130437 1.1927e-4,-0.006149 0.001109,-0.00598 0.006046,0.001036 0.005381,0.007643 0.008324,0.005117 0.0331349,-0.028459 0.0201001,-0.0272 0.0254162,-0.0372517 0.0203061,-0.038392 -0.003809,-8.5064e-4 -0.005732,-0.003621 -0.004277,-0.006159 0.003238,-0.005647 0.0150653,0.003932 0.0150653,0.0122012 0,0.003139 -0.005148,0.0108818 -0.0114407,0.0172062 -0.006293,0.006324 -0.0183674,0.0227045 -0.0268339,0.0364005 -0.0164004,0.0265313 -0.018604,0.0281074 -0.0268599,0.0192098 z m 0.4641557,-0.002214 c -0.001613,-0.00174 -0.002934,-0.005368 -0.002934,-0.008063 0,-0.002972 0.00205,-0.002692 0.005208,7.1148e-4 0.002864,0.003087 0.004185,0.006716 0.002934,0.008063 -0.001251,0.001348 -0.003594,0.001028 -0.005208,-7.1148e-4 z M 0.34430335,0.61423566 c 0,-0.001238 0.006436,-0.005635 0.014303,-0.009772 l 0.014303,-0.007522 -0.0110023,0.009666 c -0.0105931,0.009307 -0.0176038,0.0123446 -0.0176038,0.007628 z m 0.23985285,-0.007237 c 0.004381,-0.005218 0.008956,-0.009486 0.0101662,-0.009486 0.00121,0 -0.001383,0.004269 -0.005765,0.009486 -0.004381,0.005218 -0.008956,0.009486 -0.0101662,0.009486 -0.00121,0 0.001383,-0.004269 0.005765,-0.009486 z m 0.13202911,0 c 0.001496,-0.002609 0.0047,-0.004743 0.007121,-0.004743 0.002421,0 0.003177,0.002135 0.00168,0.004743 -0.001496,0.002609 -0.0047,0.004743 -0.007121,0.004743 -0.002421,0 -0.003177,-0.002135 -0.00168,-0.004743 z m -0.3470105,-0.013303 c -0.007302,-0.001617 -0.006894,-0.003199 0.003976,-0.0154253 0.00666,-0.007493 0.0140549,-0.0123275 0.016432,-0.0107442 0.002375,0.001583 -4.0142e-4,0.005701 -0.006175,0.00915 -0.005773,0.003449 -0.007891,0.006346 -0.004706,0.006439 0.003187,9.35e-5 0.009791,-0.00214 0.0146802,-0.004959 0.0151682,-0.008749 0.0137505,-0.001316 -0.001577,0.008275 -0.00797,0.004987 -0.0181522,0.008256 -0.0226271,0.007265 z m -0.090886,-0.0575645 c 0,-0.002454 0.001652,-0.005562 0.00367,-0.006906 0.002018,-0.001345 0.00367,6.645e-4 0.00367,0.004463 0,0.003798 -0.001652,0.006906 -0.00367,0.006906 -0.002018,0 -0.00367,-0.00201 -0.00367,-0.004463 z m 0.50558854,-0.0324453 c -0.001451,-0.009426 -8.0489e-4,-0.0138505 0.001638,-0.0112191 0.002217,0.002389 0.003295,0.009394 0.002394,0.0155642 -0.001385,0.009494 -0.002006,0.008826 -0.004031,-0.004345 z m 0.0142748,-0.0169721 c -0.005746,-0.0175425 -0.009211,-0.0332284 -0.007699,-0.0348579 0.001512,-0.00163 0.002749,-4.7363e-4 0.002749,0.002572 0,0.003044 0.002653,0.005533 0.005895,0.005533 0.003242,0 0.008303,0.005695 0.0112456,0.0126562 0.00476,0.0112609 0.004596,0.0119813 -0.001494,0.006534 -0.008255,-0.007384 -0.009363,7.714e-5 -0.002165,0.0145724 0.002574,0.005183 0.004057,0.0129022 0.003298,0.0171544 -7.599e-4,0.004252 -0.006083,-0.006621 -0.0118292,-0.0241639 z m 0.0742676,0.017135 c 0,-0.002036 0.009976,-0.008807 0.0221674,-0.0150461 0.0121922,-0.006239 0.0233801,-0.0134569 0.0248618,-0.0160409 0.004129,-0.007202 -0.0215253,9.0547e-4 -0.0305258,0.009648 -0.007142,0.006936 -0.007701,0.006575 -0.007701,-0.004964 0,-0.008878 0.001814,-0.0116937 0.006333,-0.009825 0.008044,0.003327 0.0552807,-0.007052 0.0552807,-0.0121465 0,-0.004471 -0.0224865,-0.009888 -0.0390586,-0.00941 -0.009895,2.8523e-4 -0.0103314,8.4763e-4 -0.003043,0.003925 0.0059,0.002489 0.0069,0.004664 0.003261,0.007087 -0.005779,0.00385 -0.0249416,-0.001104 -0.0209431,-0.005414 0.001373,-0.001478 7.757e-5,-0.00583 -0.002881,-0.00967 -0.004588,-0.005955 -0.003447,-0.00658 0.00774,-0.004245 0.007214,0.001505 0.0234144,0.004103 0.036,0.005773 0.0125861,0.001669 0.025206,0.006051 0.0280448,0.009737 0.003475,0.004514 0.003614,0.006703 4.1826e-4,0.006703 -0.002607,0 -0.012259,0.005536 -0.0214432,0.0123024 -0.0229161,0.0168825 -0.0585083,0.036097 -0.0585083,0.0315858 z m -0.58526168,-0.0095 c 3.869e-5,-0.004737 0.001475,-0.006264 0.003354,-0.003557 0.001809,0.002609 0.005077,0.006344 0.007267,0.008301 0.00219,0.001957 6.8196e-4,0.003557 -0.003354,0.003557 -0.004078,0 -0.007305,-0.003686 -0.007268,-0.008301 z m 0.10115496,0.002072 c 0,-8.163e-4 0.006436,-0.007753 0.014303,-0.0154153 l 0.014303,-0.0139311 -0.0129261,0.0154153 c -0.0120489,0.0143691 -0.0156804,0.0175956 -0.0156804,0.0139311 z m 0.46130193,-0.0183241 c -0.001814,-0.0102012 -6.5877e-4,-0.0125646 0.005873,-0.0120345 0.005629,4.5793e-4 0.008109,0.004362 0.008062,0.0126944 -4.834e-5,0.0086 -0.001151,0.0101891 -0.003869,0.005569 -0.00321,-0.005459 -0.004115,-0.005459 -0.005806,0 -0.001104,0.003556 -0.00302,7.5365e-4 -0.004263,-0.006229 z m -0.2528091,-0.010865 c -0.001363,-0.003827 -0.001456,-0.009697 -2.1098e-4,-0.0130437 0.001247,-0.003347 0.002424,-0.00146 0.002616,0.004191 1.9045e-4,0.005652 0.002823,0.0113536 0.005849,0.0126693 0.004309,0.001874 0.004279,0.002473 -1.3781e-4,0.002767 -0.003102,2.0528e-4 -0.006754,-0.002757 -0.008117,-0.006584 z m 0.20907819,-0.0164097 c -2.8567e-4,-0.001497 -3.2488e-4,-0.004198 -8.471e-5,-0.006004 2.3899e-4,-0.001806 -0.004047,-0.007143 -0.009527,-0.0118578 -0.005481,-0.004714 -0.0134572,-0.0165759 -0.0177263,-0.0263586 -0.004269,-0.009783 -0.0105602,-0.0177869 -0.0139801,-0.0177869 -0.003468,0 -0.008612,-0.00861 -0.0116298,-0.0194663 -0.002976,-0.0107067 -0.008502,-0.0206244 -0.0122792,-0.0220399 -0.009768,-0.00366 -0.0310732,-0.0256516 -0.0310732,-0.0320742 0,-0.0048 -0.0123569,-0.015879 -0.0796005,-0.0713683 -0.0168278,-0.0138863 -0.0196,-0.0145539 -0.0643504,-0.0154938 -0.0266011,-5.5475e-4 -0.0493201,-0.003268 -0.0526908,-0.006282 -0.003592,-0.003212 -0.0141357,-0.00422 -0.026769,-0.002559 -0.0136832,0.0018 -0.0176442,0.001337 -0.0115302,-0.001348 0.008774,-0.003853 0.009005,-0.0054 0.00398,-0.0267229 -0.005801,-0.0246245 -0.001345,-0.0563326 0.008489,-0.0603996 0.003002,-0.001241 0.0137564,0.001747 0.0238984,0.00664 l 0.0184397,0.008897 0.008632,-0.0152575 c 0.004747,-0.008391 0.008639,-0.0167147 0.008648,-0.0184949 4.834e-5,-0.009572 0.018755,-0.007967 0.0348585,0.002988 0.0282569,0.0192251 0.0328946,0.0303339 0.0296948,0.0711306 -0.002281,0.0290775 -0.001591,0.0353752 0.004131,0.0377419 0.003778,0.001562 0.007596,0.00284 0.008484,0.00284 8.8887e-4,0 0.005121,-0.0119858 0.009406,-0.0266349 0.008801,-0.0300907 0.015384,-0.0353439 0.0283921,-0.0226566 0.008494,0.008285 0.009239,0.008314 0.0132824,5.2859e-4 0.003915,-0.00754 0.00596,-0.007006 0.0237785,0.006207 0.0107222,0.007951 0.0215052,0.0185038 0.023962,0.0234514 0.008111,0.0163332 0.005155,0.0451482 -0.006535,0.0637144 -0.006051,0.00961 -0.0110025,0.018446 -0.0110025,0.0196346 0,0.005895 0.0128117,0.001003 0.0200996,-0.007677 0.005561,-0.006623 0.011812,-0.009106 0.019127,-0.007599 0.005976,0.001233 0.0155403,-0.001063 0.0212535,-0.005097 0.0256048,-0.0180813 0.0240621,0.0281292 -0.001817,0.0544343 l -0.0154036,0.0156585 0.0124784,0.0201945 c 0.014625,0.0236686 0.0278818,0.0252501 0.0278818,0.003327 0,-0.0165565 -0.008206,-0.0232007 -0.0154559,-0.0125146 -0.002925,0.004312 -0.006893,0.007839 -0.008816,0.007839 -0.001924,0 8.71e-5,-0.004269 0.004468,-0.009486 0.0100448,-0.0119622 0.0182127,-0.0120682 0.0240505,-3.114e-4 0.007704,0.0155137 0.005587,0.0341115 -0.004197,0.0368689 -0.004814,0.001355 -0.007648,0.004393 -0.006297,0.006748 0.00135,0.002355 0.004128,0.003167 0.006172,0.001806 0.002045,-0.001361 0.002782,0.003921 0.00164,0.0117385 -0.001651,0.0112905 -7.0191e-4,0.0136448 0.004613,0.0114465 0.009493,-0.003926 0.0137074,-0.021135 0.006398,-0.0261268 -0.003522,-0.002405 -0.003936,-0.004108 -0.00101,-0.004151 0.002729,-4.197e-5 0.00742,0.003118 0.0104227,0.007018 0.004402,0.005717 0.004045,0.00942 -0.001844,0.0191065 -0.007524,0.0123754 -0.005677,0.0238844 0.002915,0.0181616 0.003117,-0.002078 0.003843,-4.1344e-4 0.002035,0.004666 -0.001546,0.004341 -8.2902e-4,0.007893 0.001591,0.007893 0.007416,0 0.0101893,-0.0149066 0.003666,-0.0197062 -0.004717,-0.00347 -0.0041,-0.004165 0.00266,-0.002991 0.006684,0.001162 0.008471,0.004569 0.007426,0.0141619 -0.001214,0.0111406 3.4728e-4,0.0128546 0.0132029,0.0145075 0.008018,0.001031 0.003192,0.001866 -0.0107267,0.001856 -0.0139179,-8.29e-6 -0.02554,-0.001243 -0.0258267,-0.002737 z M 0.76412082,0.3174098 c 0.0100566,-0.0128807 0.0163032,-0.0424315 0.008969,-0.0424315 -0.005962,0 -0.0417792,0.029641 -0.0459387,0.0380175 -0.003704,0.00746 -0.0033,0.008676 0.002135,0.006428 0.003687,-0.001525 0.006703,-0.004165 0.006703,-0.005867 0,-0.001701 0.004456,-0.006086 0.009902,-0.009741 0.009064,-0.006083 0.009391,-0.005979 0.003862,0.00123 -0.005119,0.006676 -0.005119,0.007906 0,0.008067 0.003322,1.0459e-4 5.9381e-4,0.003374 -0.006063,0.007266 -0.0120369,0.007038 -0.0146305,0.0119541 -0.009324,0.0176738 0.004231,0.00456 0.0169843,-0.004289 0.0297535,-0.0206438 z m -0.0248482,-0.0266774 c 0.006424,-0.006507 0.007124,-0.0110111 0.001711,-0.0110111 -0.00723,0 -0.0270755,0.0197458 -0.024449,0.0243259 0.002513,0.004383 0.00904,5.5999e-4 0.0227379,-0.0133151 z m -0.0280552,-0.0218866 c 0.0146329,-0.0211426 0.0123716,-0.0469192 -0.005898,-0.0672344 -0.008287,-0.009214 -0.0176238,-0.0167533 -0.0207494,-0.0167533 -0.008039,0 -0.0258782,0.032239 -0.0295261,0.0533606 -0.002391,0.013844 -0.001669,0.0177869 0.003258,0.0177869 0.003482,0 0.007627,0.003642 0.009212,0.008094 0.00248,0.006965 0.004434,0.006138 0.0140087,-0.005929 0.008142,-0.0102616 0.009266,-0.0108773 0.004191,-0.002295 -0.011192,0.0189228 -0.008013,0.0219274 0.007351,0.006947 0.0114806,-0.0111947 0.0123453,-0.0115417 0.004401,-0.001766 -0.005437,0.00669 -0.009886,0.0148506 -0.009886,0.0181347 0,0.009866 0.0138444,0.003809 0.0236389,-0.0103432 z m -0.0431603,-0.0284601 c 0.001653,-0.004678 0.004114,-0.00731 0.005469,-0.00585 0.001356,0.00146 2.84e-6,0.005288 -0.003005,0.008505 -0.004346,0.00465 -0.004852,0.004104 -0.002464,-0.002655 z m -0.0137807,-0.0227226 c 0.007246,-0.0217162 0.007371,-0.0248393 0.001266,-0.0314202 -0.006106,-0.006581 -0.00743,-0.005952 -0.0133197,0.006327 -0.007987,0.0166509 -0.0105576,0.0353175 -0.005959,0.0432781 0.005985,0.0103621 0.009761,0.006551 0.0180138,-0.0181841 z m -0.0543743,-0.005036 c 0.002841,-0.00572 0.00541,-0.0216304 0.005711,-0.0353567 4.7413e-4,-0.0216586 -0.001199,-0.0269368 -0.0126558,-0.0399383 -0.007262,-0.00824 -0.0187311,-0.0180931 -0.0254876,-0.0218957 l -0.0122848,-0.006915 -0.0134196,0.0318974 c -0.007381,0.0175437 -0.0144824,0.042994 -0.0157811,0.0565562 l -0.002361,0.0246587 0.0355573,6.9582e-4 c 0.0324363,6.3317e-4 0.0360105,-2.1575e-4 0.0407216,-0.009704 z m -0.0352033,-0.0305351 c 2.1098e-4,-0.005526 0.001255,-0.006649 0.002659,-0.002866 0.001272,0.003424 0.001115,0.007515 -3.4728e-4,0.009091 -0.001462,0.001575 -0.002503,-0.001225 -0.002312,-0.006226 z m -0.051319,0.0260804 c 0.001152,-0.00124 0.0032,-0.00902 0.004551,-0.0172852 0.001352,-0.008265 0.0044,-0.0205368 0.006776,-0.0272707 0.003798,-0.0107648 0.002974,-0.0127944 -0.006818,-0.0168069 -0.0289013,-0.0118427 -0.0320324,-0.0113382 -0.0347047,0.005593 -0.001378,0.00872 -0.001652,0.0201236 -6.1237e-4,0.0253412 0.001039,0.005218 0.002041,0.012002 0.002227,0.0150764 8.0258e-4,0.0132889 0.0206198,0.0239342 0.0285826,0.015352 z m -0.13373436,0.2351887 c 0,-0.002609 0.001921,-0.007945 0.004268,-0.0118578 0.002347,-0.003913 0.004268,-0.00498 0.004268,-0.002371 0,0.002609 -0.001921,0.007945 -0.004268,0.0118578 -0.002347,0.003913 -0.004268,0.00498 -0.004268,0.002371 z m 0.20479325,-0.0294402 c -0.002388,-0.00676 -0.001883,-0.007305 0.002464,-0.002655 0.003008,0.003218 0.00436,0.007045 0.003005,0.008505 -0.001356,0.00146 -0.003816,-0.001172 -0.005469,-0.00585 z m 0.15375103,0.003353 c -0.001496,-0.002609 -7.3949e-4,-0.004743 0.00168,-0.004743 0.002421,0 0.005625,0.002135 0.007121,0.004743 0.001496,0.002609 7.3948e-4,0.004743 -0.00168,0.004743 -0.002421,0 -0.005625,-0.002135 -0.007121,-0.004743 z M 0.52474263,0.40599599 c 0,-9.8379e-4 0.003466,-0.00472 0.007702,-0.008301 0.00698,-0.0059 0.007136,-0.005732 0.001662,0.00179 -0.005749,0.007901 -0.009363,0.0104137 -0.009363,0.00651 z M 0.3795106,0.39355722 c 0,-0.002609 0.002097,-0.004743 0.004661,-0.004743 0.002565,0 0.003438,0.002135 0.001939,0.004743 -0.001494,0.002609 -0.003595,0.004743 -0.004661,0.004743 -0.001067,0 -0.001939,-0.002135 -0.001939,-0.004743 z m 0.3432757,-2.8e-4 c 0,-0.002763 0.001981,-0.003704 0.004401,-0.002091 0.002421,0.001612 0.004401,0.003873 0.004401,0.005023 0,0.001151 -0.001981,0.002091 -0.004401,0.002091 -0.002421,0 -0.004401,-0.002261 -0.004401,-0.005023 z M 0.34870383,0.37960754 c 0,-0.002454 0.001958,-0.005767 0.004352,-0.007361 0.002496,-0.001661 0.003234,2.4193e-4 0.00173,0.004463 -0.002927,0.008217 -0.00608,0.009721 -0.00608,0.002898 z m 0.3102684,-2.7999e-4 c -0.001496,-0.002609 -7.3948e-4,-0.004743 0.00168,-0.004743 0.002421,0 0.005625,0.002135 0.007121,0.004743 0.001496,0.002609 7.3949e-4,0.004743 -0.00168,0.004743 -0.002421,0 -0.005625,-0.002135 -0.007121,-0.004743 z M 0.3814501,0.36938595 c -0.001638,-0.002859 6.1237e-4,-0.008729 0.005001,-0.0130437 0.006448,-0.006338 0.006991,-0.006412 0.002825,-3.7943e-4 -0.003943,0.005708 -0.003939,0.008778 2.204e-5,0.0130438 0.003786,0.004082 0.003827,0.005579 1.5449e-4,0.005579 -0.00276,0 -0.006363,-0.002339 -0.008003,-0.005198 z m 0.0670091,-0.0121933 c -0.004208,-0.004533 -0.003619,-0.0110673 9.9742e-4,-0.0110673 0.002162,0 0.00507,0.003201 0.006463,0.007115 0.002575,0.00723 -0.002115,0.009714 -0.007459,0.003953 z m 0.22839987,-0.0191633 c -0.002388,-0.00676 -0.001883,-0.007305 0.002464,-0.002655 0.003008,0.003218 0.00436,0.007045 0.003005,0.008505 -0.001356,0.00146 -0.003816,-0.001172 -0.005469,-0.00585 z M 0.49031245,0.31941905 c 7.8402e-4,-0.004254 0.006374,-0.0110929 0.0124254,-0.0151989 l 0.0110024,-0.007465 -0.009942,0.0119934 c -0.005468,0.006596 -0.008604,0.0134358 -0.006968,0.0151989 0.001638,0.001764 5.1959e-4,0.003206 -0.002482,0.003206 -0.003002,0 -0.004817,-0.00348 -0.004036,-0.007734 z m -0.0447871,-0.006328 c 0,-0.005126 0.004458,-0.0116466 0.009902,-0.014491 0.008936,-0.004667 0.009151,-0.004516 0.002199,0.001541 -0.009035,0.007876 -0.009943,0.0157607 -0.002199,0.0191274 0.003285,0.001429 0.002398,0.002543 -0.002199,0.002766 -0.00484,2.3538e-4 -0.007702,-0.003089 -0.007702,-0.008945 z m -0.0638141,-0.007712 c 0.007262,-0.006571 0.0211245,-0.0161226 0.0308069,-0.0212253 0.009682,-0.005103 0.0139259,-0.006587 0.009431,-0.003297 -0.004495,0.003289 -0.0167539,0.0129176 -0.0272422,0.0213959 -0.02241,0.0181163 -0.0321495,0.0204594 -0.0129957,0.003127 z m 0.17560884,-0.0267239 c 6.1052e-4,-0.003326 0.008384,-0.00671 0.0172737,-0.00752 0.0132654,-0.001209 0.0161012,6.735e-5 0.0158161,0.007115 -1.9978e-4,0.004979 -0.001281,0.006095 -0.002567,0.002658 -0.002663,-0.007113 -0.0262204,-0.007968 -0.0293958,-0.001068 -0.00123,0.002674 -0.001738,0.002141 -0.001128,-0.001186 z m -0.16834797,-0.009012 c -3.6223e-4,-0.006848 -0.001642,-0.0196544 -0.002844,-0.0284591 l -0.002185,-0.0160083 0.004635,0.0159198 c 0.002547,0.008756 0.003827,0.0215623 0.002844,0.028459 l -0.001791,0.0125393 -6.5876e-4,-0.0124508 z m 0.009551,-0.0278661 c 0,-0.0169568 7.9794e-4,-0.0238936 0.001777,-0.0154153 9.7422e-4,0.008478 9.7422e-4,0.0223521 0,0.0308306 -9.7423e-4,0.008479 -0.001777,0.001541 -0.001777,-0.0154153 z m 0.0297455,0.00672 c 2.1099e-4,-0.005526 0.001253,-0.006649 0.002658,-0.002866 0.001271,0.003424 0.001113,0.007515 -3.4729e-4,0.009091 -0.001461,0.001575 -0.002501,-0.001225 -0.00231,-0.006226 z m 0.004802,-0.0185774 c -7.038e-5,-0.005218 0.001573,-0.0137552 0.003651,-0.0189725 0.004819,-0.0120865 0.004819,3.8467e-4 0,0.016601 -0.002835,0.009532 -0.003549,0.009998 -0.003651,0.002371 z m -0.0176572,-0.0213441 c 0,-0.006522 9.9742e-4,-0.00919 0.002218,-0.005929 0.00122,0.003261 0.00122,0.008597 0,0.0118578 -0.00122,0.003261 -0.002218,5.9401e-4 -0.002218,-0.005929 z" id="path4269" inkscape:connector-curvature="0" />
    </pattern>
  </defs>
  <sodipodi:namedview pagecolor="#ffffff" bordercolor="#666666" borderopacity="1" objecttolerance="10" gridtolerance="10" guidetolerance="10" inkscape:pageopacity="0" inkscape:pageshadow="2" inkscape:window-width="1680" inkscape:window-height="988" id="namedview4" showgrid="false" inkscape:zoom="256" inkscape:cx="0.5" inkscape:cy="0.5" inkscape:window-x="-8" inkscape:window-y="-8" inkscape:window-maximized="1" inkscape:current-layer="svg2" />
  <path style="fill:#000000" d="m 0.33001301,0.84406838 c -0.0114903,-0.007777 -0.0261696,-0.0141394 -0.0326208,-0.0141394 -0.006451,0 -0.020719,-0.005678 -0.0317064,-0.012618 l -0.0199777,-0.012618 0.01055,-0.00754 c 0.005803,-0.004147 0.0146185,-0.0112037 0.0195908,-0.0156809 0.008774,-0.0079 0.008595,-0.008007 -0.006066,-0.00364 -0.0198803,0.005922 -0.0118202,-0.001086 0.0107054,-0.00931 0.009682,-0.003535 0.0250307,-0.0114674 0.0341077,-0.0176288 0.0259859,-0.0176387 0.0192466,-0.004482 -0.007508,0.0146575 -0.0258894,0.0185203 -0.0326603,0.0262224 -0.0235587,0.0267983 0.003169,2.0072e-4 -0.002162,0.002999 -0.0118429,0.006218 l -0.0176038,0.005854 0.0140845,0.008011 c 0.0180148,0.0102467 0.026479,0.0107091 0.0190331,0.001039 -0.004458,-0.005792 -0.002691,-0.008348 0.0104637,-0.0151078 0.008707,-0.004475 0.0158321,-0.009847 0.0158321,-0.0119377 0,-0.004602 0.0307661,-0.0189631 0.0363373,-0.0169615 0.002176,7.8257e-4 -0.00923,0.008784 -0.0253457,0.0177822 -0.016116,0.008998 -0.0301166,0.0177816 -0.0311126,0.0195184 -9.9743e-4,0.001737 0.0119375,0.0119601 0.0287411,0.0227192 0.028594,0.0183081 0.0406234,0.0290234 0.0323485,0.028814 -0.001958,-4.892e-5 -0.0129618,-0.006453 -0.0244522,-0.0142296 z m -0.0385214,0.001362 c -0.006051,-0.001199 -0.0129827,-0.003783 -0.0154035,-0.005735 -0.002422,-0.001957 -0.0217591,-0.009546 -0.042975,-0.0168663 -0.0212159,-0.00732 -0.0376019,-0.0143566 -0.0364138,-0.0156369 0.001902,-0.002049 0.11172263,0.0357094 0.1164306,0.0400301 0.002143,0.00197 -0.006137,0.001283 -0.021638,-0.001789 z m -0.12652796,-0.044107 c -0.0152388,-0.006602 -0.0117278,-0.009509 0.004403,-0.003644 0.007867,0.00286 0.0151284,0.005951 0.0161369,0.006868 0.003581,0.003255 -0.0107884,9.9945e-4 -0.0205381,-0.003224 z m -0.0328379,-0.0161065 c -0.0304451,-0.0171177 -0.0405227,-0.0258431 -0.0576707,-0.0499302 -0.0101283,-0.0142271 -0.0208206,-0.0302353 -0.0237605,-0.0355737 -0.006578,-0.0119452 -0.007256,-0.0543613 -0.001141,-0.0716846 0.004231,-0.012001 0.005006,-0.0123113 0.0124882,-0.005014 0.007411,0.007228 0.008494,0.007162 0.0152917,-9.3438e-4 0.00921,-0.0109686 0.009201,-0.0111398 -0.001986,-0.0376038 l -0.009301,-0.0220032 0.011501,-0.0252734 c 0.006326,-0.0139002 0.011501,-0.0285715 0.011501,-0.0326026 0,-0.005424 0.002575,-0.006465 0.009902,-0.004004 0.0245129,0.00823 0.030542,0.0123521 0.0375903,0.0257007 0.004138,0.007833 0.009996,0.0142558 0.0130208,0.0142723 0.007124,3.729e-5 0.006947,-0.003193 -0.001665,-0.0304318 -0.008193,-0.0259145 -0.00398,-0.0502104 0.012998,-0.0749604 0.008299,-0.0120975 0.0113576,-0.0134171 0.0249189,-0.0107509 0.0192758,0.003789 0.0352633,0.0145756 0.0352633,0.023791 0,0.0111246 0.0115015,0.008139 0.0195323,-0.005071 0.006975,-0.0114737 0.006856,-0.0129223 -0.002394,-0.0290508 -0.009164,-0.0159813 -0.009411,-0.0187281 -0.004212,-0.0469261 0.003039,-0.0164733 0.004194,-0.032268 0.00257,-0.0350995 -0.001624,-0.002831 -8.2113e-4,-0.004562 0.001786,-0.003845 0.002974,8.1932e-4 0.005438,-0.0128038 0.006622,-0.0366518 0.001039,-0.0208752 0.00386,-0.0435483 0.006271,-0.0503843 0.004352,-0.0123341 0.004551,-0.0123827 0.0261325,-0.006349 0.0119612,0.003344 0.0260239,0.008941 0.0312504,0.012439 0.009151,0.006124 0.0268641,0.0392667 0.0268641,0.0502651 0,0.008515 0.008645,0.0119424 0.0152411,0.006042 0.005064,-0.004528 0.004273,-0.009609 -0.004845,-0.0310707 -0.0135705,-0.0319466 -0.0173232,-0.0554718 -0.0106812,-0.0669613 0.004736,-0.008192 0.004922,-0.0081 0.00257,0.001266 -0.001396,0.005555 6.8196e-4,0.020496 0.004621,0.0332022 0.008776,0.0283173 0.0166059,0.0388414 0.0131678,0.0176995 -0.002051,-0.0126219 9.1392e-4,-0.0194836 0.0194729,-0.0450601 0.0120419,-0.0165939 0.0219336,-0.03259 0.0219818,-0.0355466 9.422e-5,-0.005808 -0.0137839,-0.0110566 -0.0295061,-0.0111604 -0.006525,-4.19e-5 -0.0121365,0.004827 -0.0168281,0.0146057 -0.003874,0.008069 -0.008076,0.0135524 -0.009344,0.0121862 -0.001266,-0.001366 0.001355,-0.009258 0.005826,-0.0175364 0.00799,-0.014792 0.008569,-0.015004 0.0334972,-0.0122522 0.0215671,0.002381 0.0266757,0.001389 0.0341077,-0.00662 0.0129215,-0.0139264 0.0203766,-0.0116681 0.0354479,0.0107378 0.012227,0.0181781 0.0133446,0.0227213 0.0113757,0.0462459 -0.003846,0.0459715 -0.004881,0.0496925 -0.0154809,0.0557323 -0.0148194,0.008444 -0.0152374,0.00764 -0.00431,-0.008287 0.006599,-0.00962 0.0103249,-0.0230392 0.0115237,-0.0415027 0.001485,-0.0228341 6.741e-5,-0.02999 -0.008675,-0.0438548 -0.0134838,-0.0213852 -0.0238124,-0.0235534 -0.0309929,-0.006506 -0.003053,0.007247 -0.0134712,0.0225371 -0.0231537,0.0339789 -0.0295766,0.0349519 -0.0292899,0.033529 -0.0219396,0.10885961 0.001549,0.0159065 5.3814e-4,0.0201584 -0.00481,0.0201584 -0.003725,0 -0.005918,-0.001601 -0.004867,-0.003557 0.001053,-0.001957 5.6134e-4,-0.007554 -0.001086,-0.012439 -0.002765,-0.008193 -0.003549,-0.008285 -0.0101375,-0.001186 -0.003929,0.004233 -0.008767,0.007763 -0.0107555,0.007845 -0.00199,8.172e-5 -0.007269,0.005555 -0.0117343,0.0121609 -0.006545,0.009683 -0.007226,0.0144819 -0.003512,0.0247527 0.009413,0.0260213 0.007664,0.0361205 -0.0104637,0.0604146 -0.009634,0.0129105 -0.0199911,0.0251805 -0.0230168,0.0272668 -0.003025,0.002086 -0.005501,0.006889 -0.005501,0.0106722 0,0.0105646 -0.0105305,0.008185 -0.0219985,-0.004972 -0.009725,-0.0111568 -0.0108065,-0.0113863 -0.0184621,-0.003919 -0.00787,0.007677 -0.007775,0.008333 0.00296,0.0204109 0.006101,0.006864 0.0110937,0.0163089 0.0110937,0.0209893 0,0.0175909 -0.0147739,0.0409267 -0.0382894,0.0604797 -0.0235619,0.0195911 -0.0245013,0.0199255 -0.0306895,0.0109244 -0.00379,-0.005515 -0.005415,-0.01463 -0.003999,-0.0224453 0.002162,-0.011923 0.001568,-0.0126871 -0.006328,-0.008134 -0.004793,0.002765 -0.008713,0.006854 -0.008713,0.009088 0,0.002234 -0.004951,0.005401 -0.0110023,0.007038 -0.008017,0.002169 -0.0110023,0.006152 -0.0110023,0.0146797 0,0.013912 -0.0262819,0.0421965 -0.0469469,0.0505246 -0.014503,0.005845 -0.0265547,0.0250958 -0.0189019,0.0301933 0.006426,0.00428 0.005064,0.0383743 -0.002292,0.0573489 -0.005803,0.0149684 -0.005777,0.0184036 2.4457e-4,0.0309404 0.003786,0.007892 0.0202277,0.0234877 0.0373347,0.0354143 0.0168124,0.0117215 0.030568,0.0222757 0.030568,0.0234537 0,0.003098 -9.4639e-4,0.002789 -0.0141337,-0.004626 z M 0.06041996,0.6313203 c -0.00231,-0.006484 -0.003187,-0.006545 -0.00675,-4.7102e-4 -0.005877,0.0100159 -0.005171,0.0443866 0.001234,0.0600336 0.005111,0.0124869 0.005553,0.0112306 0.006818,-0.0193792 7.4691e-4,-0.0180022 1.6701e-4,-0.0360852 -0.001299,-0.0401839 z m 0.0178065,0.0545642 c 0.003465,-0.0199083 0.001304,-0.0372968 -0.004908,-0.0394974 -0.002978,-0.001054 -0.004927,0.008895 -0.005271,0.0269017 -5.8918e-4,0.0308485 0.005657,0.038577 0.0101793,0.0125958 z m 0.0592309,-0.12909822 c 0,-0.0154459 -0.002872,-0.0232436 -0.0127684,-0.0346607 -0.0181322,-0.0209199 -0.0270339,-0.0189924 -0.0395838,0.008571 -0.0120781,0.0265271 -0.0106372,0.0477217 0.004421,0.0649946 l 0.009144,0.0104908 0.0193941,-0.0147331 c 0.0176785,-0.01343 0.0193941,-0.016496 0.0193941,-0.0346627 z m -0.0478114,0.0162147 c -3.2859e-4,-0.004352 -0.001879,-0.0118225 -0.003447,-0.016601 -0.002199,-0.006707 -0.00161,-0.007461 0.002575,-0.003307 0.002983,0.00296 0.004532,0.0104307 0.003447,0.0166012 -0.001086,0.006171 -0.002245,0.007658 -0.002575,0.003307 z m -5.9845e-4,-0.0368676 c 0,-0.002454 0.001958,-0.005767 0.004352,-0.007361 0.002496,-0.001662 0.003233,2.4192e-4 0.00173,0.004463 -0.002927,0.008217 -0.00608,0.009721 -0.00608,0.002898 z m 0.13113948,0.005249 c 0.0168458,-0.0136311 0.0233485,-0.02514 0.0259469,-0.0459198 0.001948,-0.0155689 -0.007431,-0.0295192 -0.0160056,-0.023808 -0.006801,0.00453 -0.0286836,0.0407357 -0.0351659,0.0581849 -0.006376,0.0171625 -0.003452,0.0323032 0.005179,0.0268093 0.003043,-0.001936 0.0120637,-0.008807 0.0200463,-0.0152664 z m -0.0453748,-0.0328021 c -0.001461,-0.009783 -0.003591,-0.023123 -0.004734,-0.0296448 -0.001605,-0.009143 -0.001058,-0.0102287 0.002385,-0.004743 0.002459,0.003913 0.004495,0.0139256 0.004532,0.02225 3.628e-5,0.008324 0.001559,0.0161289 0.003382,0.0173431 0.001823,0.001214 0.00309,-0.0141344 0.002816,-0.034108 l -5.0103e-4,-0.0363159 0.002686,0.0304588 c 0.001568,0.017778 0.004958,0.0312659 0.008146,0.0323975 0.003874,0.001377 0.004851,-0.002651 0.003359,-0.0138578 -0.001591,-0.0119447 -0.001285,-0.0130009 0.001253,-0.004332 l 0.003354,0.0114645 0.007589,-0.0124835 c 0.004175,-0.006866 0.007589,-0.0178946 0.007589,-0.0245082 0,-0.0142119 -0.0141045,-0.0309974 -0.0260457,-0.0309974 -0.004643,0 -0.0111039,-0.001102 -0.0143573,-0.002447 -0.003674,-0.001521 -0.009888,0.005391 -0.0164102,0.0182597 -0.008305,0.0163846 -0.0100137,0.025309 -0.008189,0.0427607 0.002459,0.0235066 0.009338,0.0362893 0.01953,0.0362893 0.004774,0 0.005631,-0.004227 0.003609,-0.0177869 z m 0.0293553,-0.0391311 c 0,-0.006522 9.9743e-4,-0.00919 0.002222,-0.005929 0.00122,0.003261 0.00122,0.008597 0,0.0118578 -0.00122,0.003261 -0.002222,5.9401e-4 -0.002222,-0.005929 z m -0.009149,-0.00751 c 2.0914e-4,-0.005526 0.001253,-0.006649 0.002658,-0.002866 0.001271,0.003424 0.001113,0.007515 -3.4539e-4,0.009091 -0.001461,0.001575 -0.002505,-0.001225 -0.00231,-0.006225 z m 0.10250037,-0.0348626 c 0.0109225,-0.0154789 0.0202106,-0.0309533 0.0206406,-0.034388 0.002218,-0.0177261 -0.001489,-0.0296418 -0.0131256,-0.0421833 -0.0108561,-0.0117005 -0.0163689,-0.0138646 -0.0353167,-0.0138646 -0.0204212,0 -0.022867,0.001175 -0.0270348,0.0129898 -0.0107689,0.0305261 -0.002881,0.0644247 0.0215295,0.0925457 0.006228,0.007174 0.0118016,0.0130437 0.0123857,0.0130437 5.8453e-4,0 0.009999,-0.0126643 0.0209213,-0.0281432 z m -0.0128088,-0.0243473 c -0.001596,-0.002783 -0.001958,-0.006076 -8.0258e-4,-0.007319 0.001155,-0.001243 0.003271,0.001034 0.004704,0.005059 0.002974,0.008358 4.3877e-4,0.009828 -0.003902,0.002261 z m -0.0342933,-0.002846 c -0.001614,-0.00174 -0.002932,-0.005368 -0.002932,-0.008063 0,-0.002972 0.002051,-0.002692 0.005207,7.1148e-4 0.002862,0.003087 0.004185,0.006716 0.002932,0.008063 -0.001253,0.001348 -0.003595,0.001028 -0.005208,-7.1149e-4 z m 0.0784085,-0.096383 c -0.004426,-0.0257502 -0.0182389,-0.0458694 -0.0388884,-0.0566427 -0.0270793,-0.0141281 -0.0324288,-0.0129268 -0.0354582,0.007964 -0.007438,0.0512926 -0.003345,0.072203 0.0142052,0.072601 0.006493,1.4711e-4 0.0187376,0.002963 0.0272097,0.006258 0.0138326,0.00538 0.0164431,0.004995 0.0255994,-0.003764 0.008405,-0.008041 0.009693,-0.0126808 0.007332,-0.0264164 z M 0.22782571,0.78829756 c 0.002501,-0.001884 0.004777,-0.008764 0.005058,-0.0152858 0.001155,-0.0268356 0.005552,-0.0346651 0.0280846,-0.0499955 0.0230163,-0.0156595 0.0252292,-0.0146947 0.006641,0.002895 -0.0284391,0.0269114 -0.0400115,0.0565863 -0.0220672,0.0565863 0.0128315,0 0.005858,0.007149 -0.00797,0.008171 -0.007862,5.8092e-4 -0.0122474,-4.8671e-4 -0.009746,-0.002371 z m 0.0202185,-0.0473021 c 0.005474,-0.007523 0.005319,-0.007691 -0.001661,-0.00179 -0.004236,0.00358 -0.007702,0.007316 -0.007702,0.008301 0,0.003904 0.003614,0.001392 0.009363,-0.00651 z m -0.0608741,0.0190777 c 0.001471,-0.007927 0.00392,-0.0205324 0.005444,-0.0280107 0.002115,-0.0103864 0.001661,-0.0119172 -0.001921,-0.006482 -0.002579,0.003913 -0.00472,0.005097 -0.004757,0.002631 -8.944e-5,-0.005868 0.0223836,-0.0310901 0.0277005,-0.0310901 0.002445,0 0.002361,0.002407 -2.0352e-4,0.005929 -0.006431,0.008824 -0.0210285,0.0525135 -0.0196901,0.0589319 6.402e-4,0.003064 -0.001178,0.007131 -0.004041,0.009038 -0.003762,0.002507 -0.004463,-5.2336e-4 -0.002528,-0.010947 z m 0.0273053,0.003452 c 0.004379,-0.005218 0.0100127,-0.009486 0.0125146,-0.009486 0.002501,0 2.9686e-4,0.004269 -0.004899,0.009486 -0.005196,0.005218 -0.0108278,0.009486 -0.0125142,0.009486 -0.001684,0 5.1959e-4,-0.004269 0.004899,-0.009486 z m -0.0530933,-0.004088 c 0.001986,-0.003553 0.001823,-0.007821 -3.5847e-4,-0.009486 -0.009761,-0.00745 -0.0197448,-0.0312151 -0.0199536,-0.0474971 -2.9315e-4,-0.0229073 0.0144,-0.053782 0.0326533,-0.0686131 0.007889,-0.00641 0.0410799,-0.025914 0.0737569,-0.0433422 0.0727676,-0.0388102 0.0902353,-0.0524887 0.12732674,-0.0997057 0.008197,-0.0104348 0.0116183,-0.013178 0.007603,-0.006096 -0.009214,0.01625 -0.009238,0.0161043 0.002603,0.0156063 0.0261895,-0.001102 0.0605562,-0.0268048 0.0741188,-0.0554347 0.004551,-0.009606 0.0104284,-0.0189003 0.0130616,-0.0206543 0.012234,-0.008149 -0.0153218,0.0367236 -0.0320163,0.0521366 -0.0230729,0.0213014 -0.008361,0.016602 0.0168049,-0.005368 0.020353,-0.0177686 0.0237521,-0.0189524 0.0237521,-0.008273 0,0.005673 0.002941,0.006829 0.0121027,0.004762 0.0103232,-0.002329 0.0137634,-1.1637e-4 0.0233969,0.0150385 0.009778,0.0153826 0.0206036,0.0451709 0.024384,0.0670962 0.001417,0.008216 0.0102427,0.0145356 0.0204342,0.0146316 0.004236,3.732e-5 0.007702,0.00191 0.007702,0.004158 0,0.002248 -0.005446,0.003147 -0.0121026,0.002 -0.00946,-0.00163 -0.0106612,-9.8379e-4 -0.005501,0.002957 0.003631,0.002773 0.0115525,0.005365 0.0176038,0.005761 l 0.0110024,7.1932e-4 -0.0110024,0.00218 c -0.0146751,0.002908 -0.0220049,0.009944 -0.0220049,0.0211235 0,0.005062 -0.006188,0.0230332 -0.0137518,0.0399351 -0.007563,0.0169019 -0.0127277,0.0318344 -0.011476,0.0331834 0.003824,0.004121 0.0440223,0.007108 0.0563602,0.004187 0.009709,-0.002298 0.0127686,-0.007179 0.0186757,-0.0297947 0.003885,-0.0148755 0.008027,-0.0409199 0.009203,-0.0578768 0.001176,-0.0169568 0.005906,-0.0386574 0.0105116,-0.0482235 0.0120807,-0.0250939 0.009539,-0.0930519 -0.005288,-0.14140142 -0.005983,-0.0195097 -0.01006,-0.0363538 -0.00906,-0.0374314 0.003265,-0.003518 0.0199652,0.0202592 0.0291877,0.0415562 0.008845,0.0204248 0.0114487,0.0295751 0.0121224,0.0426003 2.6139e-4,0.005062 0.001718,0.005274 0.006546,9.5487e-4 0.007042,-0.006299 0.0108468,-0.001942 0.009013,0.0103218 -0.001845,0.0123351 0.003473,0.0100554 0.0132576,-0.005683 0.004772,-0.007676 0.009386,-0.0131911 0.0102538,-0.0122558 8.6799e-4,9.3438e-4 -0.001779,0.007222 -0.005881,0.01397 -0.005855,0.00963 -0.006167,0.0123006 -0.001452,0.0124136 0.00353,8.368e-5 0.002378,0.002363 -0.002795,0.005523 -0.011242,0.006871 -0.0152516,0.0133717 -0.015336,0.0248644 -6.023e-5,0.00823 0.001219,0.007859 0.012276,-0.003557 0.0136974,-0.0141433 0.0207396,-0.0164934 0.0168717,-0.00563 -0.004499,0.0126358 0.001156,0.007552 0.008404,-0.007556 0.003871,-0.008069 0.008246,-0.0133692 0.009722,-0.0117788 0.001475,0.001591 3.3981e-4,0.005417 -0.002525,0.008504 -0.006876,0.007411 -0.00668,0.014578 2.9314e-4,0.0107109 0.003026,-0.001677 -9.5242e-4,0.002998 -0.008842,0.0103922 -0.0176688,0.0165604 -0.0184571,0.028052 -0.002161,0.0314956 0.009101,0.001924 0.0152459,-5.8615e-4 0.0247757,-0.0101192 l 0.012673,-0.0126766 -0.005665,0.0118578 c -0.003116,0.006522 -0.0105111,0.0201731 -0.0164339,0.030336 -0.00892,0.0153059 -0.0108787,0.0250769 -0.0114089,0.056918 l -6.402e-4,0.0384399 0.0121028,0.001499 c 0.007565,9.392e-4 0.0121026,-7.5124e-4 0.0121026,-0.004506 0,-0.004672 0.001172,-0.004742 0.005281,-3.1401e-4 0.00591,0.00637 0.0140518,0.007801 0.010652,0.001874 -0.001204,-0.002101 -6.1423e-4,-0.0113528 0.001312,-0.0205604 0.003889,-0.0185829 -0.002011,-0.0320607 -0.0128455,-0.0293443 -0.003631,9.1089e-4 0.00132,-0.002363 0.0110024,-0.007275 0.0179462,-0.009103 0.0336043,-0.0280693 0.0425867,-0.0515831 0.003948,-0.0103359 0.005397,-0.0113546 0.006839,-0.004812 0.001006,0.004565 0.005484,0.008301 0.00995,0.008301 0.004466,0 0.0112586,0.001298 0.0150957,0.002885 0.004623,0.001913 0.01372,-0.004487 0.0269707,-0.0189728 0.0109967,-0.0120219 0.0233678,-0.0218499 0.0274909,-0.0218402 0.004785,1.246e-5 0.002324,0.003418 -0.006806,0.009417 -0.007867,0.00517 -0.014303,0.0114876 -0.014303,0.0140407 0,0.00796 -0.0319438,0.0286562 -0.0559423,0.0362441 -0.0140313,0.004436 -0.0269616,0.0124089 -0.0333067,0.0205363 -0.00916,0.011732 -0.0100508,0.0164272 -0.007625,0.0401742 0.003173,0.0310708 6.9262e-4,0.0330769 -0.0376467,0.0304614 l -0.0217132,-0.001481 1.163e-4,-0.0355738 c 6.264e-5,-0.0195655 0.001679,-0.039077 0.003588,-0.0433588 0.003013,-0.006754 4.5931e-4,-0.007653 -0.0192961,-0.006793 -0.0165179,7.1931e-4 -0.0239619,0.00329 -0.0271143,0.009361 -0.005548,0.0106853 -0.006831,0.0540346 -0.002023,0.0683466 0.003465,0.0103119 0.002689,0.0109006 -0.0132029,0.01003 -0.0289,-0.001583 -0.0297785,-0.001089 -0.0216892,0.0122174 0.003965,0.006522 0.006668,0.0120211 0.006007,0.0122207 -6.6108e-4,2.0074e-4 -0.005163,0.001143 -0.0100036,0.002096 -0.004841,9.5246e-4 -0.0157335,0.003307 -0.0242053,0.005231 -0.0157907,0.003586 -0.0521289,0.00281 -0.0582132,-0.001243 -0.006524,-0.004345 -0.003318,-0.0215103 0.007852,-0.0420534 0.0116203,-0.0213702 0.0148328,-0.0521552 0.008622,-0.082629 -0.002663,-0.0130665 -0.004654,-0.0145745 -0.0192485,-0.0145745 -0.009571,0 -0.0296246,-0.006893 -0.048673,-0.0167321 -0.0178172,-0.009203 -0.0331812,-0.0158845 -0.034142,-0.0148488 -9.6031e-4,0.001036 -0.001851,0.0164916 -0.001976,0.0343466 l -2.315e-4,0.0324637 -0.0276755,0.0273313 c -0.0295246,0.0291578 -0.036135,0.0426462 -0.026165,0.0533914 0.008504,0.009165 0.007991,0.0105293 -0.005893,0.0156437 -0.0113743,0.00419 -0.0630963,0.00353 -0.0745302,-9.5246e-4 -0.009224,-0.003615 0.002477,-0.035546 0.0203887,-0.0556347 0.0151246,-0.0169644 0.0168773,-0.0178018 0.0189937,-0.009078 0.002385,0.009835 -0.003271,0.0172478 -0.020334,0.0266383 -0.005199,0.002862 -0.008852,0.008799 -0.008139,0.013229 7.098e-4,0.004421 -7.7474e-4,0.008037 -0.003298,0.008037 -0.002528,0 -0.004593,0.002135 -0.004593,0.004743 0,0.009112 0.0183888,0.004905 0.0207297,-0.004743 0.002927,-0.0120546 0.003906,-0.0119366 0.0196817,0.002371 0.013159,0.0119335 0.0300043,0.0159279 0.0300043,0.007115 0,-0.002609 -0.001981,-0.004743 -0.004403,-0.004743 -0.006968,0 -0.005223,-0.006856 0.006469,-0.0254255 0.006636,-0.010539 0.008779,-0.0173462 0.005501,-0.0174768 -0.002951,-1.19e-4 5.7526e-4,-0.003146 0.007834,-0.006729 0.0152968,-0.007549 0.008345,-0.009569 -0.00878,-0.002551 -0.006355,0.002604 -0.0103277,0.006873 -0.008829,0.009486 0.001498,0.002614 7.4691e-4,0.004752 -0.001675,0.004752 -0.002422,0 -0.005651,-0.00218 -0.007178,-0.004842 -0.00302,-0.005267 0.0233346,-0.0188734 0.0365567,-0.0188734 0.0154123,0 0.0261612,-0.0192224 0.0285124,-0.050989 0.002491,-0.0336792 -5.9845e-4,-0.0362416 -0.021002,-0.0174187 -0.0118471,0.0109281 -0.0121862,0.0119455 -0.003298,0.009907 0.0108158,-0.002481 0.0131103,0.002549 0.004403,0.009649 -0.007014,0.005718 -0.0253058,0.006849 -0.0253058,0.001565 0,-0.002206 0.009925,-0.0136257 0.0220546,-0.0253797 0.0258806,-0.0250782 0.0218185,-0.0292987 -0.0154531,-0.0160559 -0.0341513,0.0121339 -0.0431518,0.0202377 -0.0367646,0.0331007 0.005253,0.0105787 -0.001415,0.0431584 -0.0100062,0.0488801 -0.003261,0.002175 -0.003224,1.3534e-4 1.2109e-4,-0.006604 0.006169,-0.0124238 0.006267,-0.0373194 1.6223e-4,-0.0413858 -0.002575,-0.001714 -0.008249,3.6635e-4 -0.0126135,0.004624 -0.004365,0.004257 -0.0350531,0.0224557 -0.0681969,0.040442 -0.0883804,0.0479616 -0.11255471,0.0708534 -0.11255471,0.10658371 0,0.0182804 0.0116916,0.0453767 0.0195796,0.0453767 0.008961,0 0.008681,0.006703 -6.2165e-4,0.0148347 -0.006211,0.00543 -0.006847,0.005438 -0.003837,5.129e-5 z m 0.17411932,-0.0881241 c 0,-0.001151 -0.001981,-0.00341 -0.004403,-0.005023 -0.002422,-0.001612 -0.004403,-6.6992e-4 -0.004403,0.002091 0,0.002763 0.001981,0.005023 0.004403,0.005023 0.002422,0 0.004403,-9.4222e-4 0.004403,-0.002091 z m 0.28938549,-0.0346679 c -0.001143,-0.007174 -0.003591,-0.0168663 -0.00544,-0.0215383 -0.002327,-0.005877 -0.001581,-0.008069 0.002417,-0.007115 0.003179,7.5907e-4 0.006499,-0.002889 0.007378,-0.008107 0.001314,-0.007797 7.8403e-4,-0.00822 -0.002972,-0.002371 -0.006126,0.009537 -0.00591,0.003297 4.0143e-4,-0.0116346 0.002809,-0.006645 0.00677,-0.012081 0.008802,-0.012081 0.002032,0 0.003695,-0.001884 0.003695,-0.00419 0,-0.005466 -0.0187936,-0.0107421 -0.0225367,-0.006327 -0.001587,0.001871 -0.003764,0.0209236 -0.004839,0.0423385 -0.001639,0.0326658 -8.3274e-4,0.0392612 0.005009,0.0409525 0.00383,0.00111 0.007683,0.002263 0.008563,0.002567 8.7958e-4,3.0355e-4 6.6479e-4,-0.00532 -4.7784e-4,-0.0124934 z m 0.0710095,-0.0835623 c 0.006164,-0.008005 -0.004719,-0.0197337 -0.014541,-0.0156715 -0.0102855,0.004254 -0.017323,-0.008564 -0.011329,-0.0206347 0.005115,-0.0103006 0.002073,-0.0201396 -0.003591,-0.0116176 -0.001684,0.002533 -0.006348,0.007375 -0.0103647,0.0107591 -0.006679,0.005627 -0.007095,0.00368 -0.004871,-0.0227566 0.001864,-0.0221443 0.001107,-0.0285793 -0.003227,-0.0274975 -0.003453,8.6088e-4 -0.007733,-0.007043 -0.010978,-0.020278 -0.006379,-0.0260168 -0.0179969,-0.0492181 -0.0128898,-0.0257416 0.009313,0.0428136 0.0106487,0.0771001 0.004464,0.11464552 -0.003002,0.018221 -0.002451,0.0199481 0.006971,0.0218842 0.0235631,0.004841 0.0555079,0.003205 0.0603566,-0.003092 z m 0.0922746,0.002263 c 0.004163,-0.002842 0.004496,-0.00506 0.0011,-0.007322 -0.005582,-0.003718 -0.0136728,4.7102e-4 -0.0136728,0.007082 0,0.005515 0.004716,0.005605 0.0125725,2.4061e-4 z m -0.26484217,-0.036536 c -0.001412,-0.009373 -0.007637,-0.0242068 -0.0138343,-0.032964 l -0.0112682,-0.0159221 -0.0263505,0.0169173 c -0.0270974,0.017397 -0.032715,0.0234519 -0.0178775,0.0192703 0.006287,-0.001772 0.007799,-4.9719e-4 0.005863,0.004942 -0.00263,0.00739 0.006048,0.007111 0.0318749,-0.001026 0.004841,-0.001525 0.00187,7.5907e-4 -0.006602,0.005077 l -0.0154034,0.007851 0.0132026,0.006235 c 0.007262,0.003429 0.0198984,0.006331 0.0280819,0.006449 0.0146456,2.0986e-4 0.0148388,-5.362e-5 0.012313,-0.0168281 z m -0.0693687,-0.0254445 c 0.0156192,-0.008588 0.0255656,-0.0220573 0.0203994,-0.027625 -0.002626,-0.002828 -0.0417067,0.0282804 -0.041901,0.0333519 -2.0352e-4,0.005309 0.002964,0.004465 0.0215012,-0.005727 z m -0.34202802,0.1790896 c -0.002904,-0.00313 -0.005218,-0.009 -0.005142,-0.0130437 1.1927e-4,-0.006149 0.001109,-0.00598 0.006046,0.001036 0.005381,0.007643 0.008324,0.005117 0.0331349,-0.028459 0.0201001,-0.0272 0.0254162,-0.0372517 0.0203061,-0.038392 -0.003809,-8.5064e-4 -0.005732,-0.003621 -0.004277,-0.006159 0.003238,-0.005647 0.0150653,0.003932 0.0150653,0.0122012 0,0.003139 -0.005148,0.0108818 -0.0114407,0.0172062 -0.006293,0.006324 -0.0183674,0.0227045 -0.0268339,0.0364005 -0.0164004,0.0265313 -0.018604,0.0281074 -0.0268599,0.0192098 z m 0.4641557,-0.002214 c -0.001613,-0.00174 -0.002934,-0.005368 -0.002934,-0.008063 0,-0.002972 0.00205,-0.002692 0.005208,7.1148e-4 0.002864,0.003087 0.004185,0.006716 0.002934,0.008063 -0.001251,0.001348 -0.003594,0.001028 -0.005208,-7.1148e-4 z M 0.34430335,0.61423566 c 0,-0.001238 0.006436,-0.005635 0.014303,-0.009772 l 0.014303,-0.007522 -0.0110023,0.009666 c -0.0105931,0.009307 -0.0176038,0.0123446 -0.0176038,0.007628 z m 0.23985285,-0.007237 c 0.004381,-0.005218 0.008956,-0.009486 0.0101662,-0.009486 0.00121,0 -0.001383,0.004269 -0.005765,0.009486 -0.004381,0.005218 -0.008956,0.009486 -0.0101662,0.009486 -0.00121,0 0.001383,-0.004269 0.005765,-0.009486 z m 0.13202911,0 c 0.001496,-0.002609 0.0047,-0.004743 0.007121,-0.004743 0.002421,0 0.003177,0.002135 0.00168,0.004743 -0.001496,0.002609 -0.0047,0.004743 -0.007121,0.004743 -0.002421,0 -0.003177,-0.002135 -0.00168,-0.004743 z m -0.3470105,-0.013303 c -0.007302,-0.001617 -0.006894,-0.003199 0.003976,-0.0154253 0.00666,-0.007493 0.0140549,-0.0123275 0.016432,-0.0107442 0.002375,0.001583 -4.0142e-4,0.005701 -0.006175,0.00915 -0.005773,0.003449 -0.007891,0.006346 -0.004706,0.006439 0.003187,9.35e-5 0.009791,-0.00214 0.0146802,-0.004959 0.0151682,-0.008749 0.0137505,-0.001316 -0.001577,0.008275 -0.00797,0.004987 -0.0181522,0.008256 -0.0226271,0.007265 z m -0.090886,-0.0575645 c 0,-0.002454 0.001652,-0.005562 0.00367,-0.006906 0.002018,-0.001345 0.00367,6.645e-4 0.00367,0.004463 0,0.003798 -0.001652,0.006906 -0.00367,0.006906 -0.002018,0 -0.00367,-0.00201 -0.00367,-0.004463 z m 0.50558854,-0.0324453 c -0.001451,-0.009426 -8.0489e-4,-0.0138505 0.001638,-0.0112191 0.002217,0.002389 0.003295,0.009394 0.002394,0.0155642 -0.001385,0.009494 -0.002006,0.008826 -0.004031,-0.004345 z m 0.0142748,-0.0169721 c -0.005746,-0.0175425 -0.009211,-0.0332284 -0.007699,-0.0348579 0.001512,-0.00163 0.002749,-4.7363e-4 0.002749,0.002572 0,0.003044 0.002653,0.005533 0.005895,0.005533 0.003242,0 0.008303,0.005695 0.0112456,0.0126562 0.00476,0.0112609 0.004596,0.0119813 -0.001494,0.006534 -0.008255,-0.007384 -0.009363,7.714e-5 -0.002165,0.0145724 0.002574,0.005183 0.004057,0.0129022 0.003298,0.0171544 -7.599e-4,0.004252 -0.006083,-0.006621 -0.0118292,-0.0241639 z m 0.0742676,0.017135 c 0,-0.002036 0.009976,-0.008807 0.0221674,-0.0150461 0.0121922,-0.006239 0.0233801,-0.0134569 0.0248618,-0.0160409 0.004129,-0.007202 -0.0215253,9.0547e-4 -0.0305258,0.009648 -0.007142,0.006936 -0.007701,0.006575 -0.007701,-0.004964 0,-0.008878 0.001814,-0.0116937 0.006333,-0.009825 0.008044,0.003327 0.0552807,-0.007052 0.0552807,-0.0121465 0,-0.004471 -0.0224865,-0.009888 -0.0390586,-0.00941 -0.009895,2.8523e-4 -0.0103314,8.4763e-4 -0.003043,0.003925 0.0059,0.002489 0.0069,0.004664 0.003261,0.007087 -0.005779,0.00385 -0.0249416,-0.001104 -0.0209431,-0.005414 0.001373,-0.001478 7.757e-5,-0.00583 -0.002881,-0.00967 -0.004588,-0.005955 -0.003447,-0.00658 0.00774,-0.004245 0.007214,0.001505 0.0234144,0.004103 0.036,0.005773 0.0125861,0.001669 0.025206,0.006051 0.0280448,0.009737 0.003475,0.004514 0.003614,0.006703 4.1826e-4,0.006703 -0.002607,0 -0.012259,0.005536 -0.0214432,0.0123024 -0.0229161,0.0168825 -0.0585083,0.036097 -0.0585083,0.0315858 z m -0.58526168,-0.0095 c 3.869e-5,-0.004737 0.001475,-0.006264 0.003354,-0.003557 0.001809,0.002609 0.005077,0.006344 0.007267,0.008301 0.00219,0.001957 6.8196e-4,0.003557 -0.003354,0.003557 -0.004078,0 -0.007305,-0.003686 -0.007268,-0.008301 z m 0.10115496,0.002072 c 0,-8.163e-4 0.006436,-0.007753 0.014303,-0.0154153 l 0.014303,-0.0139311 -0.0129261,0.0154153 c -0.0120489,0.0143691 -0.0156804,0.0175956 -0.0156804,0.0139311 z m 0.46130193,-0.0183241 c -0.001814,-0.0102012 -6.5877e-4,-0.0125646 0.005873,-0.0120345 0.005629,4.5793e-4 0.008109,0.004362 0.008062,0.0126944 -4.834e-5,0.0086 -0.001151,0.0101891 -0.003869,0.005569 -0.00321,-0.005459 -0.004115,-0.005459 -0.005806,0 -0.001104,0.003556 -0.00302,7.5365e-4 -0.004263,-0.006229 z m -0.2528091,-0.010865 c -0.001363,-0.003827 -0.001456,-0.009697 -2.1098e-4,-0.0130437 0.001247,-0.003347 0.002424,-0.00146 0.002616,0.004191 1.9045e-4,0.005652 0.002823,0.0113536 0.005849,0.0126693 0.004309,0.001874 0.004279,0.002473 -1.3781e-4,0.002767 -0.003102,2.0528e-4 -0.006754,-0.002757 -0.008117,-0.006584 z m 0.20907819,-0.0164097 c -2.8567e-4,-0.001497 -3.2488e-4,-0.004198 -8.471e-5,-0.006004 2.3899e-4,-0.001806 -0.004047,-0.007143 -0.009527,-0.0118578 -0.005481,-0.004714 -0.0134572,-0.0165759 -0.0177263,-0.0263586 -0.004269,-0.009783 -0.0105602,-0.0177869 -0.0139801,-0.0177869 -0.003468,0 -0.008612,-0.00861 -0.0116298,-0.0194663 -0.002976,-0.0107067 -0.008502,-0.0206244 -0.0122792,-0.0220399 -0.009768,-0.00366 -0.0310732,-0.0256516 -0.0310732,-0.0320742 0,-0.0048 -0.0123569,-0.015879 -0.0796005,-0.0713683 -0.0168278,-0.0138863 -0.0196,-0.0145539 -0.0643504,-0.0154938 -0.0266011,-5.5475e-4 -0.0493201,-0.003268 -0.0526908,-0.006282 -0.003592,-0.003212 -0.0141357,-0.00422 -0.026769,-0.002559 -0.0136832,0.0018 -0.0176442,0.001337 -0.0115302,-0.001348 0.008774,-0.003853 0.009005,-0.0054 0.00398,-0.0267229 -0.005801,-0.0246245 -0.001345,-0.0563326 0.008489,-0.0603996 0.003002,-0.001241 0.0137564,0.001747 0.0238984,0.00664 l 0.0184397,0.008897 0.008632,-0.0152575 c 0.004747,-0.008391 0.008639,-0.0167147 0.008648,-0.0184949 4.834e-5,-0.009572 0.018755,-0.007967 0.0348585,0.002988 0.0282569,0.0192251 0.0328946,0.0303339 0.0296948,0.0711306 -0.002281,0.0290775 -0.001591,0.0353752 0.004131,0.0377419 0.003778,0.001562 0.007596,0.00284 0.008484,0.00284 8.8887e-4,0 0.005121,-0.0119858 0.009406,-0.0266349 0.008801,-0.0300907 0.015384,-0.0353439 0.0283921,-0.0226566 0.008494,0.008285 0.009239,0.008314 0.0132824,5.2859e-4 0.003915,-0.00754 0.00596,-0.007006 0.0237785,0.006207 0.0107222,0.007951 0.0215052,0.0185038 0.023962,0.0234514 0.008111,0.0163332 0.005155,0.0451482 -0.006535,0.0637144 -0.006051,0.00961 -0.0110025,0.018446 -0.0110025,0.0196346 0,0.005895 0.0128117,0.001003 0.0200996,-0.007677 0.005561,-0.006623 0.011812,-0.009106 0.019127,-0.007599 0.005976,0.001233 0.0155403,-0.001063 0.0212535,-0.005097 0.0256048,-0.0180813 0.0240621,0.0281292 -0.001817,0.0544343 l -0.0154036,0.0156585 0.0124784,0.0201945 c 0.014625,0.0236686 0.0278818,0.0252501 0.0278818,0.003327 0,-0.0165565 -0.008206,-0.0232007 -0.0154559,-0.0125146 -0.002925,0.004312 -0.006893,0.007839 -0.008816,0.007839 -0.001924,0 8.71e-5,-0.004269 0.004468,-0.009486 0.0100448,-0.0119622 0.0182127,-0.0120682 0.0240505,-3.114e-4 0.007704,0.0155137 0.005587,0.0341115 -0.004197,0.0368689 -0.004814,0.001355 -0.007648,0.004393 -0.006297,0.006748 0.00135,0.002355 0.004128,0.003167 0.006172,0.001806 0.002045,-0.001361 0.002782,0.003921 0.00164,0.0117385 -0.001651,0.0112905 -7.0191e-4,0.0136448 0.004613,0.0114465 0.009493,-0.003926 0.0137074,-0.021135 0.006398,-0.0261268 -0.003522,-0.002405 -0.003936,-0.004108 -0.00101,-0.004151 0.002729,-4.197e-5 0.00742,0.003118 0.0104227,0.007018 0.004402,0.005717 0.004045,0.00942 -0.001844,0.0191065 -0.007524,0.0123754 -0.005677,0.0238844 0.002915,0.0181616 0.003117,-0.002078 0.003843,-4.1344e-4 0.002035,0.004666 -0.001546,0.004341 -8.2902e-4,0.007893 0.001591,0.007893 0.007416,0 0.0101893,-0.0149066 0.003666,-0.0197062 -0.004717,-0.00347 -0.0041,-0.004165 0.00266,-0.002991 0.006684,0.001162 0.008471,0.004569 0.007426,0.0141619 -0.001214,0.0111406 3.4728e-4,0.0128546 0.0132029,0.0145075 0.008018,0.001031 0.003192,0.001866 -0.0107267,0.001856 -0.0139179,-8.29e-6 -0.02554,-0.001243 -0.0258267,-0.002737 z M 0.76412082,0.3174098 c 0.0100566,-0.0128807 0.0163032,-0.0424315 0.008969,-0.0424315 -0.005962,0 -0.0417792,0.029641 -0.0459387,0.0380175 -0.003704,0.00746 -0.0033,0.008676 0.002135,0.006428 0.003687,-0.001525 0.006703,-0.004165 0.006703,-0.005867 0,-0.001701 0.004456,-0.006086 0.009902,-0.009741 0.009064,-0.006083 0.009391,-0.005979 0.003862,0.00123 -0.005119,0.006676 -0.005119,0.007906 0,0.008067 0.003322,1.0459e-4 5.9381e-4,0.003374 -0.006063,0.007266 -0.0120369,0.007038 -0.0146305,0.0119541 -0.009324,0.0176738 0.004231,0.00456 0.0169843,-0.004289 0.0297535,-0.0206438 z m -0.0248482,-0.0266774 c 0.006424,-0.006507 0.007124,-0.0110111 0.001711,-0.0110111 -0.00723,0 -0.0270755,0.0197458 -0.024449,0.0243259 0.002513,0.004383 0.00904,5.5999e-4 0.0227379,-0.0133151 z m -0.0280552,-0.0218866 c 0.0146329,-0.0211426 0.0123716,-0.0469192 -0.005898,-0.0672344 -0.008287,-0.009214 -0.0176238,-0.0167533 -0.0207494,-0.0167533 -0.008039,0 -0.0258782,0.032239 -0.0295261,0.0533606 -0.002391,0.013844 -0.001669,0.0177869 0.003258,0.0177869 0.003482,0 0.007627,0.003642 0.009212,0.008094 0.00248,0.006965 0.004434,0.006138 0.0140087,-0.005929 0.008142,-0.0102616 0.009266,-0.0108773 0.004191,-0.002295 -0.011192,0.0189228 -0.008013,0.0219274 0.007351,0.006947 0.0114806,-0.0111947 0.0123453,-0.0115417 0.004401,-0.001766 -0.005437,0.00669 -0.009886,0.0148506 -0.009886,0.0181347 0,0.009866 0.0138444,0.003809 0.0236389,-0.0103432 z m -0.0431603,-0.0284601 c 0.001653,-0.004678 0.004114,-0.00731 0.005469,-0.00585 0.001356,0.00146 2.84e-6,0.005288 -0.003005,0.008505 -0.004346,0.00465 -0.004852,0.004104 -0.002464,-0.002655 z m -0.0137807,-0.0227226 c 0.007246,-0.0217162 0.007371,-0.0248393 0.001266,-0.0314202 -0.006106,-0.006581 -0.00743,-0.005952 -0.0133197,0.006327 -0.007987,0.0166509 -0.0105576,0.0353175 -0.005959,0.0432781 0.005985,0.0103621 0.009761,0.006551 0.0180138,-0.0181841 z m -0.0543743,-0.005036 c 0.002841,-0.00572 0.00541,-0.0216304 0.005711,-0.0353567 4.7413e-4,-0.0216586 -0.001199,-0.0269368 -0.0126558,-0.0399383 -0.007262,-0.00824 -0.0187311,-0.0180931 -0.0254876,-0.0218957 l -0.0122848,-0.006915 -0.0134196,0.0318974 c -0.007381,0.0175437 -0.0144824,0.042994 -0.0157811,0.0565562 l -0.002361,0.0246587 0.0355573,6.9582e-4 c 0.0324363,6.3317e-4 0.0360105,-2.1575e-4 0.0407216,-0.009704 z m -0.0352033,-0.0305351 c 2.1098e-4,-0.005526 0.001255,-0.006649 0.002659,-0.002866 0.001272,0.003424 0.001115,0.007515 -3.4728e-4,0.009091 -0.001462,0.001575 -0.002503,-0.001225 -0.002312,-0.006226 z m -0.051319,0.0260804 c 0.001152,-0.00124 0.0032,-0.00902 0.004551,-0.0172852 0.001352,-0.008265 0.0044,-0.0205368 0.006776,-0.0272707 0.003798,-0.0107648 0.002974,-0.0127944 -0.006818,-0.0168069 -0.0289013,-0.0118427 -0.0320324,-0.0113382 -0.0347047,0.005593 -0.001378,0.00872 -0.001652,0.0201236 -6.1237e-4,0.0253412 0.001039,0.005218 0.002041,0.012002 0.002227,0.0150764 8.0258e-4,0.0132889 0.0206198,0.0239342 0.0285826,0.015352 z m -0.13373436,0.2351887 c 0,-0.002609 0.001921,-0.007945 0.004268,-0.0118578 0.002347,-0.003913 0.004268,-0.00498 0.004268,-0.002371 0,0.002609 -0.001921,0.007945 -0.004268,0.0118578 -0.002347,0.003913 -0.004268,0.00498 -0.004268,0.002371 z m 0.20479325,-0.0294402 c -0.002388,-0.00676 -0.001883,-0.007305 0.002464,-0.002655 0.003008,0.003218 0.00436,0.007045 0.003005,0.008505 -0.001356,0.00146 -0.003816,-0.001172 -0.005469,-0.00585 z m 0.15375103,0.003353 c -0.001496,-0.002609 -7.3949e-4,-0.004743 0.00168,-0.004743 0.002421,0 0.005625,0.002135 0.007121,0.004743 0.001496,0.002609 7.3948e-4,0.004743 -0.00168,0.004743 -0.002421,0 -0.005625,-0.002135 -0.007121,-0.004743 z M 0.52474263,0.40599599 c 0,-9.8379e-4 0.003466,-0.00472 0.007702,-0.008301 0.00698,-0.0059 0.007136,-0.005732 0.001662,0.00179 -0.005749,0.007901 -0.009363,0.0104137 -0.009363,0.00651 z M 0.3795106,0.39355722 c 0,-0.002609 0.002097,-0.004743 0.004661,-0.004743 0.002565,0 0.003438,0.002135 0.001939,0.004743 -0.001494,0.002609 -0.003595,0.004743 -0.004661,0.004743 -0.001067,0 -0.001939,-0.002135 -0.001939,-0.004743 z m 0.3432757,-2.8e-4 c 0,-0.002763 0.001981,-0.003704 0.004401,-0.002091 0.002421,0.001612 0.004401,0.003873 0.004401,0.005023 0,0.001151 -0.001981,0.002091 -0.004401,0.002091 -0.002421,0 -0.004401,-0.002261 -0.004401,-0.005023 z M 0.34870383,0.37960754 c 0,-0.002454 0.001958,-0.005767 0.004352,-0.007361 0.002496,-0.001661 0.003234,2.4193e-4 0.00173,0.004463 -0.002927,0.008217 -0.00608,0.009721 -0.00608,0.002898 z m 0.3102684,-2.7999e-4 c -0.001496,-0.002609 -7.3948e-4,-0.004743 0.00168,-0.004743 0.002421,0 0.005625,0.002135 0.007121,0.004743 0.001496,0.002609 7.3949e-4,0.004743 -0.00168,0.004743 -0.002421,0 -0.005625,-0.002135 -0.007121,-0.004743 z M 0.3814501,0.36938595 c -0.001638,-0.002859 6.1237e-4,-0.008729 0.005001,-0.0130437 0.006448,-0.006338 0.006991,-0.006412 0.002825,-3.7943e-4 -0.003943,0.005708 -0.003939,0.008778 2.204e-5,0.0130438 0.003786,0.004082 0.003827,0.005579 1.5449e-4,0.005579 -0.00276,0 -0.006363,-0.002339 -0.008003,-0.005198 z m 0.0670091,-0.0121933 c -0.004208,-0.004533 -0.003619,-0.0110673 9.9742e-4,-0.0110673 0.002162,0 0.00507,0.003201 0.006463,0.007115 0.002575,0.00723 -0.002115,0.009714 -0.007459,0.003953 z m 0.22839987,-0.0191633 c -0.002388,-0.00676 -0.001883,-0.007305 0.002464,-0.002655 0.003008,0.003218 0.00436,0.007045 0.003005,0.008505 -0.001356,0.00146 -0.003816,-0.001172 -0.005469,-0.00585 z M 0.49031245,0.31941905 c 7.8402e-4,-0.004254 0.006374,-0.0110929 0.0124254,-0.0151989 l 0.0110024,-0.007465 -0.009942,0.0119934 c -0.005468,0.006596 -0.008604,0.0134358 -0.006968,0.0151989 0.001638,0.001764 5.1959e-4,0.003206 -0.002482,0.003206 -0.003002,0 -0.004817,-0.00348 -0.004036,-0.007734 z m -0.0447871,-0.006328 c 0,-0.005126 0.004458,-0.0116466 0.009902,-0.014491 0.008936,-0.004667 0.009151,-0.004516 0.002199,0.001541 -0.009035,0.007876 -0.009943,0.0157607 -0.002199,0.0191274 0.003285,0.001429 0.002398,0.002543 -0.002199,0.002766 -0.00484,2.3538e-4 -0.007702,-0.003089 -0.007702,-0.008945 z m -0.0638141,-0.007712 c 0.007262,-0.006571 0.0211245,-0.0161226 0.0308069,-0.0212253 0.009682,-0.005103 0.0139259,-0.006587 0.009431,-0.003297 -0.004495,0.003289 -0.0167539,0.0129176 -0.0272422,0.0213959 -0.02241,0.0181163 -0.0321495,0.0204594 -0.0129957,0.003127 z m 0.17560884,-0.0267239 c 6.1052e-4,-0.003326 0.008384,-0.00671 0.0172737,-0.00752 0.0132654,-0.001209 0.0161012,6.735e-5 0.0158161,0.007115 -1.9978e-4,0.004979 -0.001281,0.006095 -0.002567,0.002658 -0.002663,-0.007113 -0.0262204,-0.007968 -0.0293958,-0.001068 -0.00123,0.002674 -0.001738,0.002141 -0.001128,-0.001186 z m -0.16834797,-0.009012 c -3.6223e-4,-0.006848 -0.001642,-0.0196544 -0.002844,-0.0284591 l -0.002185,-0.0160083 0.004635,0.0159198 c 0.002547,0.008756 0.003827,0.0215623 0.002844,0.028459 l -0.001791,0.0125393 -6.5876e-4,-0.0124508 z m 0.009551,-0.0278661 c 0,-0.0169568 7.9794e-4,-0.0238936 0.001777,-0.0154153 9.7422e-4,0.008478 9.7422e-4,0.0223521 0,0.0308306 -9.7423e-4,0.008479 -0.001777,0.001541 -0.001777,-0.0154153 z m 0.0297455,0.00672 c 2.1099e-4,-0.005526 0.001253,-0.006649 0.002658,-0.002866 0.001271,0.003424 0.001113,0.007515 -3.4729e-4,0.009091 -0.001461,0.001575 -0.002501,-0.001225 -0.00231,-0.006226 z m 0.004802,-0.0185774 c -7.038e-5,-0.005218 0.001573,-0.0137552 0.003651,-0.0189725 0.004819,-0.0120865 0.004819,3.8467e-4 0,0.016601 -0.002835,0.009532 -0.003549,0.009998 -0.003651,0.002371 z m -0.0176572,-0.0213441 c 0,-0.006522 9.9742e-4,-0.00919 0.002218,-0.005929 0.00122,0.003261 0.00122,0.008597 0,0.0118578 -0.00122,0.003261 -0.002218,5.9401e-4 -0.002218,-0.005929 z" id="path4269" inkscape:connector-curvature="0" />
</svg>