<?xml version="1.0" encoding="utf-8" standalone="no"?>
<svg xmlns:dc="http://purl.org/dc/elements/1.1/" xmlns:cc="http://creativecommons.org/ns#" xmlns:rdf="http://www.w3.org/1999/02/22-rdf-syntax-ns#" xmlns:svg="http://www.w3.org/2000/svg" xmlns="http://www.w3.org/2000/svg" xmlns:sodipodi="http://sodipodi.sourceforge.net/DTD/sodipodi-0.dtd" xmlns:inkscape="http://www.inkscape.org/namespaces/inkscape" height="1" version="1.1" width="1" id="svg2" inkscape:version="0.91 r13725" sodipodi:docname="化石碎片.svg">
  <metadata id="metadata8">
    <rdf:RDF>
      <cc:Work rdf:about="">
        <dc:format>image/svg+xml</dc:format>
        <dc:type rdf:resource="http://purl.org/dc/dcmitype/StillImage" />
        <dc:title></dc:title>
      </cc:Work>
    </rdf:RDF>
  </metadata>
  <defs id="defs6">
    <pattern width="1" height="1" id="化石碎片" patternContentUnits="objectBoundingBox">
      <path style="fill:#000000" d="M 0.27195867,0.77774921 C 0.23976928,0.76148367 0.17850858,0.73386091 0.13582795,0.71636542 0.05994518,0.68525957 0.05857886,0.68100098 0.0741198,0.52396895 0.0828606,0.43564635 0.09382591,0.35648049 0.09848215,0.34804554 c 0.0046598,-0.008435 0.07038306,0.0223184 0.14605329,0.0683417 0.0756706,0.0460229 0.17993736,0.0836785 0.23170361,0.0836785 0.0979556,0 0.27504246,-0.1112565 0.38821612,-0.24390117 0.0361539,-0.0423715 0.0712455,-0.0678399 0.077986,-0.056597 0.0324988,0.0542082 -0.14031985,0.43459995 -0.23445657,0.51606567 -0.0735278,0.0636312 -0.35396327,0.1035819 -0.4360273,0.062116 z M 0.72414656,0.60587246 c 0.0471111,-0.0599396 0.0966297,-0.14318298 0.11004173,-0.18498431 0.0223966,-0.0698078 0.0158142,-0.0684015 -0.0807575,0.0172494 -0.14833009,0.13155629 -0.30604248,0.16081008 -0.4357051,0.0808178 -0.1952235,-0.12043847 -0.2069048,-0.11966211 -0.20463348,0.0135965 0.001748,0.10192525 0.0139578,0.12432184 0.0862983,0.15813888 0.0463506,0.0216683 0.16410987,0.0359693 0.26168684,0.0317796 0.15422809,-0.006621 0.18860653,-0.0218584 0.26306917,-0.11659818 z" id="path32417" inkscape:connector-curvature="0" />
    </pattern>
  </defs>
  <sodipodi:namedview pagecolor="#ffffff" bordercolor="#666666" borderopacity="1" objecttolerance="10" gridtolerance="10" guidetolerance="10" inkscape:pageopacity="0" inkscape:pageshadow="2" inkscape:window-width="1600" inkscape:window-height="838" id="namedview4" showgrid="false" inkscape:zoom="256" inkscape:cx="0.52141164" inkscape:cy="0.41484576" inkscape:window-x="-8" inkscape:window-y="-8" inkscape:window-maximized="1" inkscape:current-layer="svg2" />
  <path style="fill:#000000" d="M 0.27195867,0.77774921 C 0.23976928,0.76148367 0.17850858,0.73386091 0.13582795,0.71636542 0.05994518,0.68525957 0.05857886,0.68100098 0.0741198,0.52396895 0.0828606,0.43564635 0.09382591,0.35648049 0.09848215,0.34804554 c 0.0046598,-0.008435 0.07038306,0.0223184 0.14605329,0.0683417 0.0756706,0.0460229 0.17993736,0.0836785 0.23170361,0.0836785 0.0979556,0 0.27504246,-0.1112565 0.38821612,-0.24390117 0.0361539,-0.0423715 0.0712455,-0.0678399 0.077986,-0.056597 0.0324988,0.0542082 -0.14031985,0.43459995 -0.23445657,0.51606567 -0.0735278,0.0636312 -0.35396327,0.1035819 -0.4360273,0.062116 z M 0.72414656,0.60587246 c 0.0471111,-0.0599396 0.0966297,-0.14318298 0.11004173,-0.18498431 0.0223966,-0.0698078 0.0158142,-0.0684015 -0.0807575,0.0172494 -0.14833009,0.13155629 -0.30604248,0.16081008 -0.4357051,0.0808178 -0.1952235,-0.12043847 -0.2069048,-0.11966211 -0.20463348,0.0135965 0.001748,0.10192525 0.0139578,0.12432184 0.0862983,0.15813888 0.0463506,0.0216683 0.16410987,0.0359693 0.26168684,0.0317796 0.15422809,-0.006621 0.18860653,-0.0218584 0.26306917,-0.11659818 z" id="path32417" inkscape:connector-curvature="0" />
</svg>