<?xml version="1.0" encoding="utf-8" standalone="no"?>
<svg xmlns:dc="http://purl.org/dc/elements/1.1/" xmlns:cc="http://creativecommons.org/ns#" xmlns:rdf="http://www.w3.org/1999/02/22-rdf-syntax-ns#" xmlns:svg="http://www.w3.org/2000/svg" xmlns="http://www.w3.org/2000/svg" xmlns:sodipodi="http://sodipodi.sourceforge.net/DTD/sodipodi-0.dtd" xmlns:inkscape="http://www.inkscape.org/namespaces/inkscape" height="1" version="1.1" width="1" id="svg5460" inkscape:version="0.91 r13725" sodipodi:docname="复体四射珊瑚.svg">
  <metadata id="metadata5466">
    <rdf:RDF>
      <cc:Work rdf:about="">
        <dc:format>image/svg+xml</dc:format>
        <dc:type rdf:resource="http://purl.org/dc/dcmitype/StillImage" />
        <dc:title></dc:title>
      </cc:Work>
    </rdf:RDF>
  </metadata>
  <defs id="defs5464">
    <pattern y="0" x="0" height="6" width="6" patternUnits="userSpaceOnUse" id="EMFhbasepattern" />
    <pattern width="1" height="1" id="复体四射珊瑚" patternContentUnits="objectBoundingBox">
      <path inkscape:connector-curvature="0" id="path6013" d="M 0.39422809,0.74407441 C 0.38064714,0.6628628 0.3519764,0.56019903 0.33235965,0.5142302 0.25992847,0.35180894 0.21164084,0.20317757 0.22371272,0.17253191 c 0.013581,-0.0337106 0.0709223,-0.0551624 0.15089842,-0.0551624 0.0422518,-0.001535 0.055832,0.015323 0.0920479,0.11645361 l 0.043761,0.11798564 0.0347069,-0.12871172 c 0.0362159,-0.12564718 0.0377249,-0.12717948 0.11015469,-0.12717948 0.0467789,0 0.0875218,0.01379027 0.10713871,0.03677468 0.0301801,0.03371 0.0301801,0.0459682 0.001506,0.13790556 -0.0165986,0.0551618 -0.0528145,0.21452052 -0.0799764,0.35395734 -0.0256527,0.13943879 -0.0543217,0.25895576 -0.0603576,0.26661724 -0.0256529,0.0229844 0.0497949,-0.38613421 0.10110072,-0.55468665 0.0316889,-0.10725964 0.0316889,-0.10725964 -0.0724318,-0.12564701 l -0.0724298,-0.0137909 -0.0241439,0.1026632 c -0.0135809,0.0566945 -0.0316889,0.10266313 -0.0407429,0.10266313 -0.0135809,0 -0.0377249,-0.0520983 -0.0679048,-0.14556723 -0.007545,-0.0291133 -0.0211259,-0.0306459 -0.0920478,-0.0107255 -0.0452695,0.0122582 -0.0814852,0.0275812 -0.0814852,0.0367747 0,0.007661 0.0256529,0.0812109 0.0588504,0.16395492 0.0588505,0.14863059 0.0679043,0.1838734 0.0935566,0.35702065 0.0211259,0.14710024 -0.003018,0.0995992 -0.0316881,-0.0597572 z M 0.38517409,0.1893871 c 0.0331977,-0.0260486 0.0347067,-0.0306459 0.007545,-0.0413715 -0.0392337,-0.015323 -0.13882663,0.0199197 -0.13882663,0.049033 0,0.0306459 0.0860122,0.0260491 0.13128166,-0.007661 z m 0.36668319,-0.016855 c -0.0105624,-0.032178 -0.1101562,-0.0689527 -0.13128014,-0.0475009 -0.019617,0.0199197 0.0528128,0.0735496 0.10110072,0.0735496 0.0211259,0 0.0347069,-0.0122582 0.0301799,-0.0260486 z" style="fill:#000000;fill-opacity:1;fill-rule:nonzero;stroke:none" />
    </pattern>
  </defs>
  <sodipodi:namedview pagecolor="#ffffff" bordercolor="#666666" borderopacity="1" objecttolerance="10" gridtolerance="10" guidetolerance="10" inkscape:pageopacity="0" inkscape:pageshadow="2" inkscape:window-width="1600" inkscape:window-height="838" id="namedview5462" showgrid="false" inkscape:zoom="134.63876" inkscape:cx="0.5855728" inkscape:cy="-0.27621359" inkscape:window-x="-8" inkscape:window-y="-8" inkscape:window-maximized="1" inkscape:current-layer="svg5460" />
  <path inkscape:connector-curvature="0" id="path6013" d="M 0.39422809,0.74407441 C 0.38064714,0.6628628 0.3519764,0.56019903 0.33235965,0.5142302 0.25992847,0.35180894 0.21164084,0.20317757 0.22371272,0.17253191 c 0.013581,-0.0337106 0.0709223,-0.0551624 0.15089842,-0.0551624 0.0422518,-0.001535 0.055832,0.015323 0.0920479,0.11645361 l 0.043761,0.11798564 0.0347069,-0.12871172 c 0.0362159,-0.12564718 0.0377249,-0.12717948 0.11015469,-0.12717948 0.0467789,0 0.0875218,0.01379027 0.10713871,0.03677468 0.0301801,0.03371 0.0301801,0.0459682 0.001506,0.13790556 -0.0165986,0.0551618 -0.0528145,0.21452052 -0.0799764,0.35395734 -0.0256527,0.13943879 -0.0543217,0.25895576 -0.0603576,0.26661724 -0.0256529,0.0229844 0.0497949,-0.38613421 0.10110072,-0.55468665 0.0316889,-0.10725964 0.0316889,-0.10725964 -0.0724318,-0.12564701 l -0.0724298,-0.0137909 -0.0241439,0.1026632 c -0.0135809,0.0566945 -0.0316889,0.10266313 -0.0407429,0.10266313 -0.0135809,0 -0.0377249,-0.0520983 -0.0679048,-0.14556723 -0.007545,-0.0291133 -0.0211259,-0.0306459 -0.0920478,-0.0107255 -0.0452695,0.0122582 -0.0814852,0.0275812 -0.0814852,0.0367747 0,0.007661 0.0256529,0.0812109 0.0588504,0.16395492 0.0588505,0.14863059 0.0679043,0.1838734 0.0935566,0.35702065 0.0211259,0.14710024 -0.003018,0.0995992 -0.0316881,-0.0597572 z M 0.38517409,0.1893871 c 0.0331977,-0.0260486 0.0347067,-0.0306459 0.007545,-0.0413715 -0.0392337,-0.015323 -0.13882663,0.0199197 -0.13882663,0.049033 0,0.0306459 0.0860122,0.0260491 0.13128166,-0.007661 z m 0.36668319,-0.016855 c -0.0105624,-0.032178 -0.1101562,-0.0689527 -0.13128014,-0.0475009 -0.019617,0.0199197 0.0528128,0.0735496 0.10110072,0.0735496 0.0211259,0 0.0347069,-0.0122582 0.0301799,-0.0260486 z" style="fill:#000000;fill-opacity:1;fill-rule:nonzero;stroke:none" />
</svg>