<?xml version="1.0" encoding="utf-8" standalone="no"?>
<svg xmlns:dc="http://purl.org/dc/elements/1.1/" xmlns:cc="http://creativecommons.org/ns#" xmlns:rdf="http://www.w3.org/1999/02/22-rdf-syntax-ns#" xmlns:svg="http://www.w3.org/2000/svg" xmlns="http://www.w3.org/2000/svg" xmlns:sodipodi="http://sodipodi.sourceforge.net/DTD/sodipodi-0.dtd" xmlns:inkscape="http://www.inkscape.org/namespaces/inkscape" height="1" version="1.1" width="1" id="svg2" inkscape:version="0.91 r13725" sodipodi:docname="完好生物化石.svg">
  <metadata id="metadata8">
    <rdf:RDF>
      <cc:Work rdf:about="">
        <dc:format>image/svg+xml</dc:format>
        <dc:type rdf:resource="http://purl.org/dc/dcmitype/StillImage" />
        <dc:title></dc:title>
      </cc:Work>
    </rdf:RDF>
  </metadata>
  <defs id="defs6">
    <pattern width="1" height="1" id="完好生物化石" patternContentUnits="objectBoundingBox">
      <path style="fill:#000000" d="M 0.18811887,0.57905694 C 0.11461094,0.5015764 0.05446814,0.41172969 0.05446814,0.3793983 c 0,-0.0937526 0.04124158,-0.0693286 0.14619856,0.0865816 0.15045912,0.22350201 0.38348326,0.21205588 0.55972935,-0.0274947 0.15158531,-0.20603194 0.15408558,-0.20814992 0.15408558,-0.13054023 0,0.0302133 -0.0549128,0.12712841 -0.12202892,0.21536759 -0.17040147,0.22402996 -0.42260554,0.24729338 -0.60433384,0.055744 z" id="path33179" inkscape:connector-curvature="0" />
    </pattern>
  </defs>
  <sodipodi:namedview pagecolor="#ffffff" bordercolor="#666666" borderopacity="1" objecttolerance="10" gridtolerance="10" guidetolerance="10" inkscape:pageopacity="0" inkscape:pageshadow="2" inkscape:window-width="1600" inkscape:window-height="838" id="namedview4" showgrid="false" inkscape:zoom="91.12381" inkscape:cx="2.890625" inkscape:cy="-0.40625" inkscape:window-x="-8" inkscape:window-y="-8" inkscape:window-maximized="1" inkscape:current-layer="svg2" />
  <path style="fill:#000000" d="M 0.18811887,0.57905694 C 0.11461094,0.5015764 0.05446814,0.41172969 0.05446814,0.3793983 c 0,-0.0937526 0.04124158,-0.0693286 0.14619856,0.0865816 0.15045912,0.22350201 0.38348326,0.21205588 0.55972935,-0.0274947 0.15158531,-0.20603194 0.15408558,-0.20814992 0.15408558,-0.13054023 0,0.0302133 -0.0549128,0.12712841 -0.12202892,0.21536759 -0.17040147,0.22402996 -0.42260554,0.24729338 -0.60433384,0.055744 z" id="path33179" inkscape:connector-curvature="0" />
</svg>