<?xml version="1.0" encoding="utf-8" standalone="no"?>
<svg xmlns:dc="http://purl.org/dc/elements/1.1/" xmlns:cc="http://creativecommons.org/ns#" xmlns:rdf="http://www.w3.org/1999/02/22-rdf-syntax-ns#" xmlns:svg="http://www.w3.org/2000/svg" xmlns="http://www.w3.org/2000/svg" xmlns:sodipodi="http://sodipodi.sourceforge.net/DTD/sodipodi-0.dtd" xmlns:inkscape="http://www.inkscape.org/namespaces/inkscape" height="100" version="1.1" width="100" id="svg2" inkscape:version="0.91 r13725" sodipodi:docname="层孔虫.svg">
  <defs id="">
    <pattern width="1" height="1" patternContentUnits="objectBoundingBox" id="层孔虫">
      <path style="fill:#000000" d="M 0.31690796,0.7513757 C 0.25639686,0.7205237 0.19020003,0.6949215 0.16980341,0.6944816 0.10720001,0.6931276 0.10748311,0.7041066 0.15879951,0.26722277 l 0.008462,-0.0720532 0.0705915,0.007848 c 0.0388252,0.004316 0.10826225,0.0311776 0.15430423,0.05969 0.098145,0.0607787 0.1383998,0.0635879 0.26098704,0.0182129 0.0756734,-0.0280106 0.10035704,-0.0305435 0.14810348,-0.0151981 0.0557363,0.0179143 0.0660232,0.0379576 0.0589003,0.11476254 -0.00125,0.0135981 -0.008484,0.1081743 -0.0160514,0.21016688 -0.007568,0.10199257 -0.017434,0.18902278 -0.0219308,0.1934001 -0.004495,0.004377 -0.0320221,-8.0135e-4 -0.0611715,-0.0115228 -0.0433493,-0.0159362 -0.0696126,-0.0143832 -0.14424347,0.008527 C 0.48933021,0.82017289 0.4428126,0.81556779 0.31690541,0.75137319 Z M 0.59879928,0.7348926 C 0.63222028,0.7212945 0.68811678,0.7101667 0.7230145,0.7101667 l 0.0634504,0 0.0112083,-0.11950904 c 0.006164,-0.06573 0.015366,-0.15750142 0.0204447,-0.20393704 0.00858,-0.0784187 0.006397,-0.0851227 -0.0306885,-0.0941874 -0.0469286,-0.0114704 -0.11010786,0.001741 -0.1569239,0.0328221 -0.0600989,0.0398962 -0.16638805,0.0276945 -0.23738185,-0.0272515 -0.0621378,-0.0480911 -0.18851702,-0.0939733 -0.20761414,-0.0753749 -0.009874,0.009616 -0.0345617,0.25184109 -0.0366604,0.35968573 -0.001106,0.057297 0.002333,0.061815 0.0472133,0.061815 0.0266289,0 0.0776764,0.0193375 0.11343906,0.042973 0.1188874,0.0785719 0.18615224,0.0896601 0.28929706,0.047689 z m -0.003876,-0.15865618 c -0.009066,-0.0150157 -0.0507081,-0.0304814 -0.0988878,-0.036728 -0.06628,-0.008594 -0.0900025,-0.004904 -0.11650073,0.0181189 -0.0320774,0.02787 -0.0328633,0.0276246 -0.0218563,-0.006839 0.008495,-0.0266049 0.00366,-0.0372911 -0.0189081,-0.0417786 -0.0252565,-0.005021 -0.0221929,-0.0112963 0.0183334,-0.037551 0.0453033,-0.029348 0.0518983,-0.0297095 0.0956743,-0.005242 0.0305641,0.0170827 0.0527963,0.0206501 0.0635321,0.0101965 0.0225992,-0.0220095 0.10944921,-0.0102213 0.11831508,0.0160602 0.005312,0.015748 -0.00541,0.0183427 -0.0410098,0.009917 l -0.0482033,-0.0114068 0.0404865,0.0325139 c 0.0222675,0.0178839 0.0369313,0.0429003 0.0325865,0.0555942 -0.006471,0.0189092 -0.0107298,0.0183925 -0.0235612,-0.002857 z" id="path4290" />
    </pattern>
    <pattern width="1" height="1" id="层孔虫" patternContentUnits="objectBoundingBox">
      <path style="fill:#000000" d="M 0.31690796,0.7513757 C 0.25639686,0.7205237 0.19020003,0.6949215 0.16980341,0.6944816 0.10720001,0.6931276 0.10748311,0.7041066 0.15879951,0.26722277 l 0.008462,-0.0720532 0.0705915,0.007848 c 0.0388252,0.004316 0.10826225,0.0311776 0.15430423,0.05969 0.098145,0.0607787 0.1383998,0.0635879 0.26098704,0.0182129 0.0756734,-0.0280106 0.10035704,-0.0305435 0.14810348,-0.0151981 0.0557363,0.0179143 0.0660232,0.0379576 0.0589003,0.11476254 -0.00125,0.0135981 -0.008484,0.1081743 -0.0160514,0.21016688 -0.007568,0.10199257 -0.017434,0.18902278 -0.0219308,0.1934001 -0.004495,0.004377 -0.0320221,-8.0135e-4 -0.0611715,-0.0115228 -0.0433493,-0.0159362 -0.0696126,-0.0143832 -0.14424347,0.008527 C 0.48933021,0.82017289 0.4428126,0.81556779 0.31690541,0.75137319 Z M 0.59879928,0.7348926 C 0.63222028,0.7212945 0.68811678,0.7101667 0.7230145,0.7101667 l 0.0634504,0 0.0112083,-0.11950904 c 0.006164,-0.06573 0.015366,-0.15750142 0.0204447,-0.20393704 0.00858,-0.0784187 0.006397,-0.0851227 -0.0306885,-0.0941874 -0.0469286,-0.0114704 -0.11010786,0.001741 -0.1569239,0.0328221 -0.0600989,0.0398962 -0.16638805,0.0276945 -0.23738185,-0.0272515 -0.0621378,-0.0480911 -0.18851702,-0.0939733 -0.20761414,-0.0753749 -0.009874,0.009616 -0.0345617,0.25184109 -0.0366604,0.35968573 -0.001106,0.057297 0.002333,0.061815 0.0472133,0.061815 0.0266289,0 0.0776764,0.0193375 0.11343906,0.042973 0.1188874,0.0785719 0.18615224,0.0896601 0.28929706,0.047689 z m -0.003876,-0.15865618 c -0.009066,-0.0150157 -0.0507081,-0.0304814 -0.0988878,-0.036728 -0.06628,-0.008594 -0.0900025,-0.004904 -0.11650073,0.0181189 -0.0320774,0.02787 -0.0328633,0.0276246 -0.0218563,-0.006839 0.008495,-0.0266049 0.00366,-0.0372911 -0.0189081,-0.0417786 -0.0252565,-0.005021 -0.0221929,-0.0112963 0.0183334,-0.037551 0.0453033,-0.029348 0.0518983,-0.0297095 0.0956743,-0.005242 0.0305641,0.0170827 0.0527963,0.0206501 0.0635321,0.0101965 0.0225992,-0.0220095 0.10944921,-0.0102213 0.11831508,0.0160602 0.005312,0.015748 -0.00541,0.0183427 -0.0410098,0.009917 l -0.0482033,-0.0114068 0.0404865,0.0325139 c 0.0222675,0.0178839 0.0369313,0.0429003 0.0325865,0.0555942 -0.006471,0.0189092 -0.0107298,0.0183925 -0.0235612,-0.002857 z" id="path4290" />
    </pattern>
  </defs>
  <g inkscape:label="Layer 1" inkscape:groupmode="layer" id="layer1">
    <rect style="fill:url(#层孔虫);stroke:none" width="100" height="100" x="0" y="0" id="rect3353" />
  </g>
</svg>