<?xml version="1.0" encoding="utf-8" standalone="no"?>
<svg xmlns:dc="http://purl.org/dc/elements/1.1/" xmlns:cc="http://creativecommons.org/ns#" xmlns:rdf="http://www.w3.org/1999/02/22-rdf-syntax-ns#" xmlns:svg="http://www.w3.org/2000/svg" xmlns="http://www.w3.org/2000/svg" xmlns:sodipodi="http://sodipodi.sourceforge.net/DTD/sodipodi-0.dtd" xmlns:inkscape="http://www.inkscape.org/namespaces/inkscape" height="1" version="1.1" width="1" id="svg2" inkscape:version="0.91 r13725" sodipodi:docname="搬运生态.svg">
  <metadata id="metadata8">
    <rdf:RDF>
      <cc:Work rdf:about="">
        <dc:format>image/svg+xml</dc:format>
        <dc:type rdf:resource="http://purl.org/dc/dcmitype/StillImage" />
        <dc:title />
      </cc:Work>
    </rdf:RDF>
  </metadata>
  <defs id="defs6">
    <pattern width="1" height="1" id="搬运生态" patternContentUnits="objectBoundingBox">
     <g id="g4284" transform="translate(-0.01171875,0.03515625)">
    <path sodipodi:nodetypes="cccccsscccccccccccccccsccccc" style="fill:#000000;fill-opacity:1;fill-rule:nonzero;stroke:none" d="m 0.83602533,0.55008385 -0.009557,-0.0127401 0.0235966,-0.0269785 0.0238959,-0.026979 c -0.0524299,-4.1523e-4 -0.10618094,0.001918 -0.15875293,0.002868 -0.007497,-0.001829 -0.001621,-0.00744 -0.002272,-0.0149557 -2.8266e-4,-0.003264 -2.713e-4,-0.007095 -2.713e-4,-0.0115197 l 0,-0.0168614 c 0.0547741,-4.9878e-4 0.10952234,-0.001749 0.16428354,-0.002624 l -0.0250908,-0.0344732 -0.0250903,-0.0348476 0.0116488,-0.0116159 0.0116488,-0.0116158 0.0158314,0.0213582 c 0.0594362,0.0805616 0.0618261,0.083934 0.0618261,0.0989223 -0.0143926,0.0366339 -0.0523754,0.0620284 -0.0800476,0.0948008 -0.001192,0 -0.006572,-0.005621 -0.0116488,-0.0127386 z m -0.55856171,-0.0610769 -0.19415137,-0.001124 0,-0.0333491 0,-0.0333486 0.14994482,0.003373 c 0.0824402,0.001873 0.21416431,0.003373 0.29272078,0.003373 l 0.14277722,0 0,0.0322245 0,0.0325996 -0.0985701,-0.001124 c -0.0540639,-7.4917e-4 -0.185788,-0.001874 -0.2927214,-0.002623 z" id="path4168" inkscape:connector-curvature="0" />
  </g>
    </pattern>
  </defs>
  <sodipodi:namedview pagecolor="#ffffff" bordercolor="#666666" borderopacity="1" objecttolerance="10" gridtolerance="10" guidetolerance="10" inkscape:pageopacity="0" inkscape:pageshadow="2" inkscape:window-width="1600" inkscape:window-height="838" id="namedview4" showgrid="false" inkscape:zoom="256" inkscape:cx="0.28320312" inkscape:cy="0.42773438" inkscape:window-x="-8" inkscape:window-y="-8" inkscape:window-maximized="1" inkscape:current-layer="g4284" />
  <g id="g4284" transform="translate(-0.01171875,0.03515625)">
    <path sodipodi:nodetypes="cccccsscccccccccccccccsccccc" style="fill:#000000;fill-opacity:1;fill-rule:nonzero;stroke:none" d="m 0.83602533,0.55008385 -0.009557,-0.0127401 0.0235966,-0.0269785 0.0238959,-0.026979 c -0.0524299,-4.1523e-4 -0.10618094,0.001918 -0.15875293,0.002868 -0.007497,-0.001829 -0.001621,-0.00744 -0.002272,-0.0149557 -2.8266e-4,-0.003264 -2.713e-4,-0.007095 -2.713e-4,-0.0115197 l 0,-0.0168614 c 0.0547741,-4.9878e-4 0.10952234,-0.001749 0.16428354,-0.002624 l -0.0250908,-0.0344732 -0.0250903,-0.0348476 0.0116488,-0.0116159 0.0116488,-0.0116158 0.0158314,0.0213582 c 0.0594362,0.0805616 0.0618261,0.083934 0.0618261,0.0989223 -0.0143926,0.0366339 -0.0523754,0.0620284 -0.0800476,0.0948008 -0.001192,0 -0.006572,-0.005621 -0.0116488,-0.0127386 z m -0.55856171,-0.0610769 -0.19415137,-0.001124 0,-0.0333491 0,-0.0333486 0.14994482,0.003373 c 0.0824402,0.001873 0.21416431,0.003373 0.29272078,0.003373 l 0.14277722,0 0,0.0322245 0,0.0325996 -0.0985701,-0.001124 c -0.0540639,-7.4917e-4 -0.185788,-0.001874 -0.2927214,-0.002623 z" id="path4168" inkscape:connector-curvature="0" />
  </g>
</svg>