<?xml version="1.0" encoding="utf-8" standalone="no"?>
<svg xmlns:dc="http://purl.org/dc/elements/1.1/" xmlns:cc="http://creativecommons.org/ns#" xmlns:rdf="http://www.w3.org/1999/02/22-rdf-syntax-ns#" xmlns:svg="http://www.w3.org/2000/svg" xmlns="http://www.w3.org/2000/svg" xmlns:sodipodi="http://sodipodi.sourceforge.net/DTD/sodipodi-0.dtd" xmlns:inkscape="http://www.inkscape.org/namespaces/inkscape" height="1" version="1.1" width="1" id="svg2" inkscape:version="0.91 r13725" sodipodi:docname="植物枝干化石.svg">
  <metadata id="metadata8">
    <rdf:RDF>
      <cc:Work rdf:about="">
        <dc:format>image/svg+xml</dc:format>
        <dc:type rdf:resource="http://purl.org/dc/dcmitype/StillImage" />
        <dc:title></dc:title>
      </cc:Work>
    </rdf:RDF>
  </metadata>
  <defs id="defs6">
    <pattern width="1" height="1" id="植物枝干化石" patternContentUnits="objectBoundingBox">
      <path style="fill:#000000" d="M 0.48486357,0.88278793 C 0.45774403,0.8040209 0.40010339,0.72135422 0.30609578,0.62640498 0.25109032,0.57084854 0.21213072,0.52005254 0.21951865,0.51352493 c 0.0140872,-0.0124465 0.0651386,0.0317781 0.18475588,0.1600507 l 0.0716616,0.076847 0,-0.17162564 c 0,-0.168486 -0.001489,-0.17328942 -0.0814977,-0.26257239 C 0.3496144,0.26620386 0.2831729,0.19678564 0.24678976,0.161962 0.21040668,0.1271383 0.19188429,0.09864621 0.20562832,0.09864621 c 0.0262584,0 0.0965066,0.06174511 0.1984324,0.17441356 l 0.0608506,0.0672639 -0.003841,-0.25276741 0.0293043,0.0013491 0.003807,0.1526073 c 0.004577,0.18353595 0.0191047,0.18513584 0.15815374,0.0174166 0.054573,-0.0658252 0.10747475,-0.12005059 0.11755932,-0.12050088 0.0275186,-0.001232 -0.0682731,0.13184 -0.17832677,0.24772165 l -0.0972758,0.1024269 0.0157094,0.21415204 c 0.0143849,0.19610082 0.004577,0.26635962 -0.0251376,0.18005901 z" id="path29511" inkscape:connector-curvature="0" sodipodi:nodetypes="cssscssssscccsscscsc" />
    </pattern>
  </defs>
  <sodipodi:namedview pagecolor="#ffffff" bordercolor="#666666" borderopacity="1" objecttolerance="10" gridtolerance="10" guidetolerance="10" inkscape:pageopacity="0" inkscape:pageshadow="2" inkscape:window-width="1600" inkscape:window-height="838" id="namedview4" showgrid="false" inkscape:zoom="181.01934" inkscape:cx="3.1594047" inkscape:cy="0.21186305" inkscape:window-x="-8" inkscape:window-y="-8" inkscape:window-maximized="1" inkscape:current-layer="svg2" />
  <path style="fill:#000000" d="M 0.48486357,0.88278793 C 0.45774403,0.8040209 0.40010339,0.72135422 0.30609578,0.62640498 0.25109032,0.57084854 0.21213072,0.52005254 0.21951865,0.51352493 c 0.0140872,-0.0124465 0.0651386,0.0317781 0.18475588,0.1600507 l 0.0716616,0.076847 0,-0.17162564 c 0,-0.168486 -0.001489,-0.17328942 -0.0814977,-0.26257239 C 0.3496144,0.26620386 0.2831729,0.19678564 0.24678976,0.161962 0.21040668,0.1271383 0.19188429,0.09864621 0.20562832,0.09864621 c 0.0262584,0 0.0965066,0.06174511 0.1984324,0.17441356 l 0.0608506,0.0672639 -0.003841,-0.25276741 0.0293043,0.0013491 0.003807,0.1526073 c 0.004577,0.18353595 0.0191047,0.18513584 0.15815374,0.0174166 0.054573,-0.0658252 0.10747475,-0.12005059 0.11755932,-0.12050088 0.0275186,-0.001232 -0.0682731,0.13184 -0.17832677,0.24772165 l -0.0972758,0.1024269 0.0157094,0.21415204 c 0.0143849,0.19610082 0.004577,0.26635962 -0.0251376,0.18005901 z" id="path29511" inkscape:connector-curvature="0" sodipodi:nodetypes="cssscssssscccsscscsc" />
</svg>