<?xml version="1.0" encoding="utf-8" standalone="no"?>
<svg xmlns:dc="http://purl.org/dc/elements/1.1/" xmlns:cc="http://creativecommons.org/ns#" xmlns:rdf="http://www.w3.org/1999/02/22-rdf-syntax-ns#" xmlns:svg="http://www.w3.org/2000/svg" xmlns="http://www.w3.org/2000/svg" xmlns:sodipodi="http://sodipodi.sourceforge.net/DTD/sodipodi-0.dtd" xmlns:inkscape="http://www.inkscape.org/namespaces/inkscape" height="1" version="1.1" width="1" id="svg2" inkscape:version="0.91 r13725" sodipodi:docname="海星.svg">
  <metadata id="metadata8">
    <rdf:RDF>
      <cc:Work rdf:about="">
        <dc:format>image/svg+xml</dc:format>
        <dc:type rdf:resource="http://purl.org/dc/dcmitype/StillImage" />
        <dc:title></dc:title>
      </cc:Work>
    </rdf:RDF>
  </metadata>
  <defs id="defs6">
    <pattern width="1" height="1" id="海星" patternContentUnits="objectBoundingBox">
      <path style="fill:#000000" d="M 0.63922813,0.81520895 0.50734955,0.7183925 0.42540168,0.76906417 c -0.0450713,0.0278696 -0.10088131,0.066759 -0.12402232,0.0864209 -0.0440119,0.0373953 -0.0903985,0.047355 -0.0903985,0.0194093 0,-0.008987 0.0230201,-0.0821255 0.0511555,-0.16253001 0.0436311,-0.12468731 0.0467768,-0.14857235 0.0213867,-0.16238335 -0.0163731,-0.008906 -0.0416857,-0.027139 -0.0562506,-0.0405176 -0.0145649,-0.0133788 -0.0608737,-0.0492929 -0.10290838,-0.0798093 -0.0420346,-0.0305164 -0.0764266,-0.063945 -0.0764266,-0.0742857 0,-0.0103914 0.07768531,-0.0188015 0.17367065,-0.0188015 0.19375236,0 0.16673927,0.0202042 0.24757867,-0.1851733 0.0207893,-0.0528169 0.0462407,-0.0973883 0.0565586,-0.0990478 0.010318,-0.00166 0.0372034,0.0660684 0.0597454,0.15050662 l 0.0409856,0.15352398 0.17948053,0 c 0.0987143,0 0.17948045,0.007459 0.17948045,0.0165765 0,0.009117 -0.0630761,0.0588486 -0.14016944,0.11051432 l -0.14016946,0.0939379 0.0392757,0.14902126 c 0.0216019,0.0819618 0.0364536,0.1572514 0.0330041,0.16731009 -0.003449,0.0100589 -0.0656173,-0.0252786 -0.13815015,-0.0785276 z M 0.70289635,0.68792625 0.66546609,0.55672263 0.77362564,0.47883481 0.8817848,0.40094707 0.74194484,0.38755365 C 0.5919671,0.37318912 0.60258145,0.38227235 0.56662301,0.23751906 0.52754354,0.08020195 0.52706473,0.08004009 0.47872995,0.20780477 0.45399925,0.27317627 0.42978235,0.33780489 0.42491475,0.351424 c -0.005905,0.0165213 -0.0547285,0.0247619 -0.14670773,0.0247619 l -0.13785736,0 0.10394123,0.0883785 0.10394147,0.0883785 -0.0402463,0.12079348 c -0.0221354,0.0664365 -0.0355728,0.125336 -0.0298612,0.13088761 0.005712,0.005552 0.0559421,-0.0217184 0.11162259,-0.0606004 0.1161469,-0.0811059 0.12618981,-0.0830858 0.18275241,-0.0360278 0.0902588,0.0750914 0.15598691,0.12264189 0.16176401,0.11702666 0.003336,-0.003241 -0.0107812,-0.0649343 -0.0313676,-0.13709632 z" id="path19328" inkscape:connector-curvature="0" />
    </pattern>
  </defs>
  <sodipodi:namedview pagecolor="#ffffff" bordercolor="#666666" borderopacity="1" objecttolerance="10" gridtolerance="10" guidetolerance="10" inkscape:pageopacity="0" inkscape:pageshadow="2" inkscape:window-width="1600" inkscape:window-height="838" id="namedview4" showgrid="false" inkscape:zoom="181.01934" inkscape:cx="0.38134752" inkscape:cy="0.16217504" inkscape:window-x="-8" inkscape:window-y="-8" inkscape:window-maximized="1" inkscape:current-layer="svg2" />
  <path style="fill:#000000" d="M 0.63922813,0.81520895 0.50734955,0.7183925 0.42540168,0.76906417 c -0.0450713,0.0278696 -0.10088131,0.066759 -0.12402232,0.0864209 -0.0440119,0.0373953 -0.0903985,0.047355 -0.0903985,0.0194093 0,-0.008987 0.0230201,-0.0821255 0.0511555,-0.16253001 0.0436311,-0.12468731 0.0467768,-0.14857235 0.0213867,-0.16238335 -0.0163731,-0.008906 -0.0416857,-0.027139 -0.0562506,-0.0405176 -0.0145649,-0.0133788 -0.0608737,-0.0492929 -0.10290838,-0.0798093 -0.0420346,-0.0305164 -0.0764266,-0.063945 -0.0764266,-0.0742857 0,-0.0103914 0.07768531,-0.0188015 0.17367065,-0.0188015 0.19375236,0 0.16673927,0.0202042 0.24757867,-0.1851733 0.0207893,-0.0528169 0.0462407,-0.0973883 0.0565586,-0.0990478 0.010318,-0.00166 0.0372034,0.0660684 0.0597454,0.15050662 l 0.0409856,0.15352398 0.17948053,0 c 0.0987143,0 0.17948045,0.007459 0.17948045,0.0165765 0,0.009117 -0.0630761,0.0588486 -0.14016944,0.11051432 l -0.14016946,0.0939379 0.0392757,0.14902126 c 0.0216019,0.0819618 0.0364536,0.1572514 0.0330041,0.16731009 -0.003449,0.0100589 -0.0656173,-0.0252786 -0.13815015,-0.0785276 z M 0.70289635,0.68792625 0.66546609,0.55672263 0.77362564,0.47883481 0.8817848,0.40094707 0.74194484,0.38755365 C 0.5919671,0.37318912 0.60258145,0.38227235 0.56662301,0.23751906 0.52754354,0.08020195 0.52706473,0.08004009 0.47872995,0.20780477 0.45399925,0.27317627 0.42978235,0.33780489 0.42491475,0.351424 c -0.005905,0.0165213 -0.0547285,0.0247619 -0.14670773,0.0247619 l -0.13785736,0 0.10394123,0.0883785 0.10394147,0.0883785 -0.0402463,0.12079348 c -0.0221354,0.0664365 -0.0355728,0.125336 -0.0298612,0.13088761 0.005712,0.005552 0.0559421,-0.0217184 0.11162259,-0.0606004 0.1161469,-0.0811059 0.12618981,-0.0830858 0.18275241,-0.0360278 0.0902588,0.0750914 0.15598691,0.12264189 0.16176401,0.11702666 0.003336,-0.003241 -0.0107812,-0.0649343 -0.0313676,-0.13709632 z" id="path19328" inkscape:connector-curvature="0" />
</svg>