<?xml version="1.0" encoding="utf-8" standalone="no"?>
<svg xmlns:dc="http://purl.org/dc/elements/1.1/" xmlns:cc="http://creativecommons.org/ns#" xmlns:rdf="http://www.w3.org/1999/02/22-rdf-syntax-ns#" xmlns:svg="http://www.w3.org/2000/svg" xmlns="http://www.w3.org/2000/svg" xmlns:sodipodi="http://sodipodi.sourceforge.net/DTD/sodipodi-0.dtd" xmlns:inkscape="http://www.inkscape.org/namespaces/inkscape" height="1" version="1.1" width="1" id="svg2" inkscape:version="0.91 r13725" sodipodi:docname="海胆.svg">
  <metadata id="metadata8">
    <rdf:RDF>
      <cc:Work rdf:about="">
        <dc:format>image/svg+xml</dc:format>
        <dc:type rdf:resource="http://purl.org/dc/dcmitype/StillImage" />
        <dc:title></dc:title>
      </cc:Work>
    </rdf:RDF>
  </metadata>
  <defs id="defs6">
    <pattern width="1" height="1" id="海胆" patternContentUnits="objectBoundingBox">
      <path style="fill:#000000" d="M 0.36645972,0.79140967 C 0.31175761,0.77608208 0.24460011,0.74967933 0.21722093,0.73273669 0.15354957,0.69333589 0.1168134,0.583249 0.13511505,0.48669051 c 0.008686,-0.0458297 0.004845,-0.0812038 -0.009791,-0.0901569 -0.0132478,-0.008104 -0.0240868,-0.0252029 -0.0240868,-0.0379975 0,-0.0149808 0.011459,-0.0138506 0.0321848,0.003173 0.0542926,0.0445981 0.0855688,0.004059 0.0446066,-0.0578179 -0.0468971,-0.070842 -0.0190047,-0.0986248 0.0340225,-0.0338888 0.0257545,0.0314416 0.0461439,0.0409778 0.0555172,0.0259663 0.008148,-0.0130487 -0.001101,-0.0411303 -0.0205521,-0.0624042 -0.0474116,-0.0518532 -0.0167771,-0.0779565 0.0360042,-0.0306785 0.0340543,0.0305038 0.0495381,0.0325196 0.0843757,0.0109855 0.0582108,-0.0359813 0.23096047,-0.0332418 0.30536889,0.004843 0.0393805,0.0201561 0.0722729,0.0241503 0.0928355,0.0112729 0.0546612,-0.0342315 0.0735807,-0.0225066 0.0338315,0.0209665 -0.045079,0.0493025 -0.008015,0.0871875 0.0437205,0.0446895 0.0498526,-0.040951 0.0663111,-0.005009 0.0205996,0.0449857 -0.0495038,0.0541416 -0.0255253,0.0850986 0.0363103,0.0468768 0.0604173,-0.0373453 0.0741021,-0.0197181 0.021365,0.0275201 -0.0321427,0.0287915 -0.0394029,0.0572316 -0.0308056,0.1206755 0.006187,0.0456536 -1.5448e-4,0.10408159 -0.0140748,0.12984015 -0.0598498,0.1106872 -0.32806437,0.1768706 -0.51008732,0.12586794 z M 0.67104936,0.74472816 C 0.85174371,0.69161645 0.89765726,0.58346573 0.8043584,0.43071527 0.68751327,0.23941451 0.54755439,0.17302327 0.40782295,0.24261427 0.29007142,0.30125862 0.16776531,0.46435113 0.16762544,0.56291273 c -8.724e-5,0.0672643 0.1024727,0.16421937 0.19501223,0.18434009 0.0324922,0.007065 0.0690226,0.016129 0.0811786,0.0201423 0.0488512,0.0161294 0.11907327,0.009124 0.22723306,-0.0226671 z" id="path17988" inkscape:connector-curvature="0" />
    </pattern>
  </defs>
  <sodipodi:namedview pagecolor="#ffffff" bordercolor="#666666" borderopacity="1" objecttolerance="10" gridtolerance="10" guidetolerance="10" inkscape:pageopacity="0" inkscape:pageshadow="2" inkscape:window-width="1600" inkscape:window-height="838" id="namedview4" showgrid="false" inkscape:zoom="203.57447" inkscape:cx="0.8046875" inkscape:cy="-0.328125" inkscape:window-x="-8" inkscape:window-y="-8" inkscape:window-maximized="1" inkscape:current-layer="svg2" />
  <path style="fill:#000000" d="M 0.36645972,0.79140967 C 0.31175761,0.77608208 0.24460011,0.74967933 0.21722093,0.73273669 0.15354957,0.69333589 0.1168134,0.583249 0.13511505,0.48669051 c 0.008686,-0.0458297 0.004845,-0.0812038 -0.009791,-0.0901569 -0.0132478,-0.008104 -0.0240868,-0.0252029 -0.0240868,-0.0379975 0,-0.0149808 0.011459,-0.0138506 0.0321848,0.003173 0.0542926,0.0445981 0.0855688,0.004059 0.0446066,-0.0578179 -0.0468971,-0.070842 -0.0190047,-0.0986248 0.0340225,-0.0338888 0.0257545,0.0314416 0.0461439,0.0409778 0.0555172,0.0259663 0.008148,-0.0130487 -0.001101,-0.0411303 -0.0205521,-0.0624042 -0.0474116,-0.0518532 -0.0167771,-0.0779565 0.0360042,-0.0306785 0.0340543,0.0305038 0.0495381,0.0325196 0.0843757,0.0109855 0.0582108,-0.0359813 0.23096047,-0.0332418 0.30536889,0.004843 0.0393805,0.0201561 0.0722729,0.0241503 0.0928355,0.0112729 0.0546612,-0.0342315 0.0735807,-0.0225066 0.0338315,0.0209665 -0.045079,0.0493025 -0.008015,0.0871875 0.0437205,0.0446895 0.0498526,-0.040951 0.0663111,-0.005009 0.0205996,0.0449857 -0.0495038,0.0541416 -0.0255253,0.0850986 0.0363103,0.0468768 0.0604173,-0.0373453 0.0741021,-0.0197181 0.021365,0.0275201 -0.0321427,0.0287915 -0.0394029,0.0572316 -0.0308056,0.1206755 0.006187,0.0456536 -1.5448e-4,0.10408159 -0.0140748,0.12984015 -0.0598498,0.1106872 -0.32806437,0.1768706 -0.51008732,0.12586794 z M 0.67104936,0.74472816 C 0.85174371,0.69161645 0.89765726,0.58346573 0.8043584,0.43071527 0.68751327,0.23941451 0.54755439,0.17302327 0.40782295,0.24261427 0.29007142,0.30125862 0.16776531,0.46435113 0.16762544,0.56291273 c -8.724e-5,0.0672643 0.1024727,0.16421937 0.19501223,0.18434009 0.0324922,0.007065 0.0690226,0.016129 0.0811786,0.0201423 0.0488512,0.0161294 0.11907327,0.009124 0.22723306,-0.0226671 z" id="path17988" inkscape:connector-curvature="0" />
</svg>