<?xml version="1.0" encoding="utf-8" standalone="no"?>
<svg xmlns:dc="http://purl.org/dc/elements/1.1/" xmlns:cc="http://creativecommons.org/ns#" xmlns:rdf="http://www.w3.org/1999/02/22-rdf-syntax-ns#" xmlns:svg="http://www.w3.org/2000/svg" xmlns="http://www.w3.org/2000/svg" xmlns:sodipodi="http://sodipodi.sourceforge.net/DTD/sodipodi-0.dtd" xmlns:inkscape="http://www.inkscape.org/namespaces/inkscape" height="1" version="1.1" width="1" id="svg2" inkscape:version="0.91 r13725" sodipodi:docname="碳屑.svg">
  <metadata id="metadata8">
    <rdf:RDF>
      <cc:Work rdf:about="">
        <dc:format>image/svg+xml</dc:format>
        <dc:type rdf:resource="http://purl.org/dc/dcmitype/StillImage" />
        <dc:title></dc:title>
      </cc:Work>
    </rdf:RDF>
  </metadata>
  <defs id="defs6">
    <pattern width="1" height="1" id="碳屑" patternContentUnits="objectBoundingBox">
      <path style="fill:#000000" d="m 0.09156741,0.70619936 c -0.0034566,-0.0499659 -0.0031227,-0.13550609 7.382e-4,-0.19008945 l 0.0070287,-0.0992427 0.0865195,-0.0191567 c 0.0475858,-0.0105363 0.19409985,-0.0486002 0.32558634,-0.0845865 0.13148649,-0.0359861 0.26931769,-0.0708997 0.30629148,-0.0775863 l 0.0672251,-0.0121566 -0.003042,0.19175015 -0.003042,0.19175037 -0.0849696,0.0188281 c -0.046725,0.0103561 -0.20934134,0.0531426 -0.3613615,0.0950823 -0.15202034,0.0419397 -0.28951425,0.0762539 -0.30554239,0.0762539 -0.0204991,0 -0.03100558,-0.0269451 -0.0354254,-0.090847 z m 0.23550262,0.0157878 c 0.0499556,-0.0132751 0.18671445,-0.0492521 0.30390898,-0.0799503 l 0.21308102,-0.0558151 0,-0.16417792 0,-0.16417814 -0.0675621,0.0113208 C 0.73933833,0.2754115 0.66216174,0.2951307 0.60499366,0.3130047 0.54782536,0.3308787 0.41919744,0.3658074 0.31915318,0.3906244 l -0.18189834,0.0451213 -0.004195,0.0898035 c -0.009679,0.20716196 0.00556,0.26406419 0.0637753,0.23813013 0.0216743,-0.009656 0.0802803,-0.028417 0.13023588,-0.0416914 z m -0.1066617,-0.062268 c 0,-0.0125026 0.4050705,-0.13446813 0.49892144,-0.15022437 0.0428103,-0.00719 0.0458563,-0.005479 0.0172809,0.009705 -0.0534088,0.0283741 -0.51620252,0.15435508 -0.51620252,0.14052002 z M 0.19961992,0.51208285 c 0,-0.004454 0.0818543,-0.0285256 0.18189857,-0.0534953 0.10004403,-0.0249697 0.22290301,-0.0566275 0.2730197,-0.0703511 0.0501168,-0.0137235 0.0958908,-0.0209813 0.10172027,-0.0161285 0.00583,0.004854 -0.002431,0.0123511 -0.0183618,0.0166643 C 0.28788502,0.51063143 0.19961992,0.53085126 0.19961992,0.51208322 Z" id="path30947" inkscape:connector-curvature="0" />
    </pattern>
  </defs>
  <sodipodi:namedview pagecolor="#ffffff" bordercolor="#666666" borderopacity="1" objecttolerance="10" gridtolerance="10" guidetolerance="10" inkscape:pageopacity="0" inkscape:pageshadow="2" inkscape:window-width="1600" inkscape:window-height="838" id="namedview4" showgrid="false" inkscape:zoom="151.27273" inkscape:cx="1.125" inkscape:cy="0.1171875" inkscape:window-x="-8" inkscape:window-y="-8" inkscape:window-maximized="1" inkscape:current-layer="svg2" />
  <path style="fill:#000000" d="m 0.09156741,0.70619936 c -0.0034566,-0.0499659 -0.0031227,-0.13550609 7.382e-4,-0.19008945 l 0.0070287,-0.0992427 0.0865195,-0.0191567 c 0.0475858,-0.0105363 0.19409985,-0.0486002 0.32558634,-0.0845865 0.13148649,-0.0359861 0.26931769,-0.0708997 0.30629148,-0.0775863 l 0.0672251,-0.0121566 -0.003042,0.19175015 -0.003042,0.19175037 -0.0849696,0.0188281 c -0.046725,0.0103561 -0.20934134,0.0531426 -0.3613615,0.0950823 -0.15202034,0.0419397 -0.28951425,0.0762539 -0.30554239,0.0762539 -0.0204991,0 -0.03100558,-0.0269451 -0.0354254,-0.090847 z m 0.23550262,0.0157878 c 0.0499556,-0.0132751 0.18671445,-0.0492521 0.30390898,-0.0799503 l 0.21308102,-0.0558151 0,-0.16417792 0,-0.16417814 -0.0675621,0.0113208 C 0.73933833,0.2754115 0.66216174,0.2951307 0.60499366,0.3130047 0.54782536,0.3308787 0.41919744,0.3658074 0.31915318,0.3906244 l -0.18189834,0.0451213 -0.004195,0.0898035 c -0.009679,0.20716196 0.00556,0.26406419 0.0637753,0.23813013 0.0216743,-0.009656 0.0802803,-0.028417 0.13023588,-0.0416914 z m -0.1066617,-0.062268 c 0,-0.0125026 0.4050705,-0.13446813 0.49892144,-0.15022437 0.0428103,-0.00719 0.0458563,-0.005479 0.0172809,0.009705 -0.0534088,0.0283741 -0.51620252,0.15435508 -0.51620252,0.14052002 z M 0.19961992,0.51208285 c 0,-0.004454 0.0818543,-0.0285256 0.18189857,-0.0534953 0.10004403,-0.0249697 0.22290301,-0.0566275 0.2730197,-0.0703511 0.0501168,-0.0137235 0.0958908,-0.0209813 0.10172027,-0.0161285 0.00583,0.004854 -0.002431,0.0123511 -0.0183618,0.0166643 C 0.28788502,0.51063143 0.19961992,0.53085126 0.19961992,0.51208322 Z" id="path30947" inkscape:connector-curvature="0" />
</svg>