<?xml version="1.0" encoding="utf-8" standalone="no"?>
<svg xmlns:dc="http://purl.org/dc/elements/1.1/" xmlns:cc="http://creativecommons.org/ns#" xmlns:rdf="http://www.w3.org/1999/02/22-rdf-syntax-ns#" xmlns:svg="http://www.w3.org/2000/svg" xmlns="http://www.w3.org/2000/svg" xmlns:sodipodi="http://sodipodi.sourceforge.net/DTD/sodipodi-0.dtd" xmlns:inkscape="http://www.inkscape.org/namespaces/inkscape" height="1" version="1.1" width="1" id="svg2" inkscape:version="0.91 r13725" sodipodi:docname="笔石.svg">
  <metadata id="metadata8">
    <rdf:RDF>
      <cc:Work rdf:about="">
        <dc:format>image/svg+xml</dc:format>
        <dc:type rdf:resource="http://purl.org/dc/dcmitype/StillImage" />
        <dc:title></dc:title>
      </cc:Work>
    </rdf:RDF>
  </metadata>
  <defs id="defs6">
    <pattern width="1" height="1" id="笔石" patternContentUnits="objectBoundingBox">
      <path style="fill:#000000" d="M 0.63934032,0.77483808 C 0.46941917,0.64501953 0.2732221,0.44558621 0.22922796,0.35796136 0.21245062,0.32454236 0.17609218,0.26627659 0.14843453,0.22848193 0.09017601,0.14887073 0.09837698,0.08485295 0.16248459,0.11880463 c 0.0221096,0.0117102 0.0932927,0.0274646 0.15818575,0.0350117 0.10430779,0.0121318 0.11798748,0.0191687 0.11798748,0.0607012 0,0.0258387 0.0142076,0.0523743 0.0315744,0.0589689 0.0173661,0.006594 0.0315744,0.0346248 0.0315744,0.0622895 0,0.0327818 0.0146617,0.0540941 0.0420997,0.0611945 0.0284485,0.007362 0.0420997,0.0284127 0.0420997,0.0649204 0,0.0401391 0.0108221,0.0540261 0.0420994,0.0540261 0.0305668,0 0.0420996,0.013887 0.0420996,0.0506923 0,0.0398157 0.0124211,0.0521063 0.057887,0.0572832 0.0486868,0.005545 0.0572571,0.0156953 0.0539241,0.0638741 -0.003314,0.0479006 0.004445,0.0572833 0.0473621,0.0572833 0.0358546,0 0.0513252,0.0115839 0.0513252,0.038432 0,0.0339831 -0.0624615,0.11065026 -0.0858567,0.10538374 -0.004878,-0.0011 -0.0748552,-0.0524105 -0.15550686,-0.11402792 z m 0.1944401,0.0157778 c 0.005299,-0.0157365 -0.0167429,-0.0247358 -0.0605946,-0.0247358 -0.0651072,0 -0.0666624,0.001698 -0.0280664,0.0305404 0.0452309,0.0338067 0.0759966,0.0317923 0.0886609,-0.005805 z M 0.74924784,0.6877666 c 0.006088,-0.01829 -0.0200406,-0.026038 -0.0878128,-0.026038 -0.1064653,0 -0.12097063,0.0122286 -0.0491162,0.041404 0.0613318,0.0249035 0.12594046,0.0176522 0.13692897,-0.0153645 z M 0.62810618,0.56886084 c 0,-0.0180995 -0.0333324,-0.0305422 -0.0947761,-0.035378 -0.10990121,-0.00865 -0.11463653,0.0203575 -0.009203,0.0563705 0.0789475,0.0269654 0.10397809,0.0219126 0.10397809,-0.0209926 z m -0.084199,-0.10241586 c 0,-0.0288653 -0.0869285,-0.0546796 -0.18413196,-0.0546796 -0.0433689,0 -0.0481675,0.00525 -0.027415,0.0299951 0.0426013,0.0507964 0.2115467,0.0705093 0.2115467,0.0246845 z M 0.45970776,0.35187854 c 0,-0.0400889 -0.0713605,-0.0650947 -0.18576427,-0.0650947 -0.0432963,0 -0.0489336,0.005243 -0.0280152,0.026038 0.0272094,0.027054 0.14164389,0.0737693 0.18746785,0.0765288 0.0144721,8.713e-4 0.0263118,-0.0159914 0.0263118,-0.0374721 z m -0.072541,-0.10857001 c 0.0223045,-0.0357117 -0.0148169,-0.0568579 -0.11132387,-0.0634178 -0.10005317,-0.006801 -0.12109599,0.0209261 -0.0453217,0.0597177 0.0624011,0.0319444 0.13789169,0.0337277 0.15664542,0.003699 z" id="path19464" inkscape:connector-curvature="0" />
    </pattern>
  </defs>
  <sodipodi:namedview pagecolor="#ffffff" bordercolor="#666666" borderopacity="1" objecttolerance="10" gridtolerance="10" guidetolerance="10" inkscape:pageopacity="0" inkscape:pageshadow="2" inkscape:window-width="1600" inkscape:window-height="838" id="namedview4" showgrid="false" inkscape:zoom="181.01934" inkscape:cx="1.4864342" inkscape:cy="0.56730165" inkscape:window-x="-8" inkscape:window-y="-8" inkscape:window-maximized="1" inkscape:current-layer="svg2" />
  <path style="fill:#000000" d="M 0.63934032,0.77483808 C 0.46941917,0.64501953 0.2732221,0.44558621 0.22922796,0.35796136 0.21245062,0.32454236 0.17609218,0.26627659 0.14843453,0.22848193 0.09017601,0.14887073 0.09837698,0.08485295 0.16248459,0.11880463 c 0.0221096,0.0117102 0.0932927,0.0274646 0.15818575,0.0350117 0.10430779,0.0121318 0.11798748,0.0191687 0.11798748,0.0607012 0,0.0258387 0.0142076,0.0523743 0.0315744,0.0589689 0.0173661,0.006594 0.0315744,0.0346248 0.0315744,0.0622895 0,0.0327818 0.0146617,0.0540941 0.0420997,0.0611945 0.0284485,0.007362 0.0420997,0.0284127 0.0420997,0.0649204 0,0.0401391 0.0108221,0.0540261 0.0420994,0.0540261 0.0305668,0 0.0420996,0.013887 0.0420996,0.0506923 0,0.0398157 0.0124211,0.0521063 0.057887,0.0572832 0.0486868,0.005545 0.0572571,0.0156953 0.0539241,0.0638741 -0.003314,0.0479006 0.004445,0.0572833 0.0473621,0.0572833 0.0358546,0 0.0513252,0.0115839 0.0513252,0.038432 0,0.0339831 -0.0624615,0.11065026 -0.0858567,0.10538374 -0.004878,-0.0011 -0.0748552,-0.0524105 -0.15550686,-0.11402792 z m 0.1944401,0.0157778 c 0.005299,-0.0157365 -0.0167429,-0.0247358 -0.0605946,-0.0247358 -0.0651072,0 -0.0666624,0.001698 -0.0280664,0.0305404 0.0452309,0.0338067 0.0759966,0.0317923 0.0886609,-0.005805 z M 0.74924784,0.6877666 c 0.006088,-0.01829 -0.0200406,-0.026038 -0.0878128,-0.026038 -0.1064653,0 -0.12097063,0.0122286 -0.0491162,0.041404 0.0613318,0.0249035 0.12594046,0.0176522 0.13692897,-0.0153645 z M 0.62810618,0.56886084 c 0,-0.0180995 -0.0333324,-0.0305422 -0.0947761,-0.035378 -0.10990121,-0.00865 -0.11463653,0.0203575 -0.009203,0.0563705 0.0789475,0.0269654 0.10397809,0.0219126 0.10397809,-0.0209926 z m -0.084199,-0.10241586 c 0,-0.0288653 -0.0869285,-0.0546796 -0.18413196,-0.0546796 -0.0433689,0 -0.0481675,0.00525 -0.027415,0.0299951 0.0426013,0.0507964 0.2115467,0.0705093 0.2115467,0.0246845 z M 0.45970776,0.35187854 c 0,-0.0400889 -0.0713605,-0.0650947 -0.18576427,-0.0650947 -0.0432963,0 -0.0489336,0.005243 -0.0280152,0.026038 0.0272094,0.027054 0.14164389,0.0737693 0.18746785,0.0765288 0.0144721,8.713e-4 0.0263118,-0.0159914 0.0263118,-0.0374721 z m -0.072541,-0.10857001 c 0.0223045,-0.0357117 -0.0148169,-0.0568579 -0.11132387,-0.0634178 -0.10005317,-0.006801 -0.12109599,0.0209261 -0.0453217,0.0597177 0.0624011,0.0319444 0.13789169,0.0337277 0.15664542,0.003699 z" id="path19464" inkscape:connector-curvature="0" />
</svg>