<?xml version="1.0" encoding="utf-8" standalone="no"?>
<svg xmlns:dc="http://purl.org/dc/elements/1.1/" xmlns:cc="http://creativecommons.org/ns#" xmlns:rdf="http://www.w3.org/1999/02/22-rdf-syntax-ns#" xmlns:svg="http://www.w3.org/2000/svg" xmlns="http://www.w3.org/2000/svg" xmlns:sodipodi="http://sodipodi.sourceforge.net/DTD/sodipodi-0.dtd" xmlns:inkscape="http://www.inkscape.org/namespaces/inkscape" height="1" version="1.1" width="1" id="svg2" inkscape:version="0.91 r13725" sodipodi:docname="绿藻.svg">
  <metadata id="metadata8">
    <rdf:RDF>
      <cc:Work rdf:about="">
        <dc:format>image/svg+xml</dc:format>
        <dc:type rdf:resource="http://purl.org/dc/dcmitype/StillImage" />
        <dc:title></dc:title>
      </cc:Work>
    </rdf:RDF>
  </metadata>
  <defs id="defs6">
    <pattern width="1" height="1" id="绿藻" patternContentUnits="objectBoundingBox">
      <path style="fill:#000000" d="m 0.23175507,0.86806382 c -5.8445e-4,-0.021344 0.0647195,-0.0980197 0.16874205,-0.19813754 0.0933291,-0.089826 0.16216444,-0.13988247 0.15296756,-0.13988247 -0.0500718,0 -0.0262509,-0.0829536 0.0599601,-0.17324788 0.156717,-0.16413959 0.18372808,-0.22004659 0.10631343,-0.22004659 -0.0612018,0 -0.18403409,0.16773078 -0.23468205,0.32046485 -0.0151604,0.0457176 -0.060235,0.0972289 -0.15146323,0.17309222 C 0.19678546,0.7440728 0.10436746,0.8011213 0.10436746,0.77180476 c 0,-0.009626 0.0193703,-0.0276621 0.0430444,-0.04008 C 0.17108646,0.71930736 0.24796834,0.65896816 0.31826077,0.5976387 0.41895451,0.50978453 0.45382509,0.46590779 0.48264678,0.39079715 0.55551846,0.20088927 0.65295813,0.09253354 0.74003963,0.10456934 c 0.0307504,0.004249 0.0432455,0.0190748 0.0476306,0.0565118 0.004575,0.0390549 -0.0100601,0.0674659 -0.0635062,0.12328553 -0.14597971,0.15246234 -0.1743014,0.16357748 -0.15329121,0.16357748 0.0119306,0 0.0728771,-0.0287283 0.13543639,-0.0924861 0.0937228,-0.0955182 0.12467868,-0.11644433 0.17586334,-0.11888246 0.0545447,-0.002597 0.0627895,0.002679 0.0676175,0.0432819 0.004236,0.0356447 -0.0110917,0.0600872 -0.0668965,0.10666253 -0.0749227,0.062531 -0.0995792,0.0766387 -0.23663965,0.1353971 -0.0780098,0.0334432 -0.31894849,0.24555295 -0.38288895,0.3370751 -0.0276038,0.0395107 -0.030757,0.0404159 -0.0316099,0.009072 z M 0.78172573,0.41745108 c 0.0875306,-0.0581514 0.16384966,-0.13561684 0.14842599,-0.15065559 -0.034854,-0.0339843 -0.12550221,0.0737224 -0.24112295,0.15388785 -0.10989405,0.0761948 -0.13556409,0.10936047 -0.0123022,0.0564122 0.0180109,-0.006404 0.0652603,-0.0332442 0.10499921,-0.0596444 z" id="path22927" inkscape:connector-curvature="0" sodipodi:nodetypes="cssssssscsscssssccssscssscs" />
    </pattern>
  </defs>
  <sodipodi:namedview pagecolor="#ffffff" bordercolor="#666666" borderopacity="1" objecttolerance="10" gridtolerance="10" guidetolerance="10" inkscape:pageopacity="0" inkscape:pageshadow="2" inkscape:window-width="1600" inkscape:window-height="838" id="namedview4" showgrid="false" inkscape:zoom="256" inkscape:cx="0.39552414" inkscape:cy="0.18533131" inkscape:window-x="-8" inkscape:window-y="-8" inkscape:window-maximized="1" inkscape:current-layer="svg2" />
  <path style="fill:#000000" d="m 0.23175507,0.86806382 c -5.8445e-4,-0.021344 0.0647195,-0.0980197 0.16874205,-0.19813754 0.0933291,-0.089826 0.16216444,-0.13988247 0.15296756,-0.13988247 -0.0500718,0 -0.0262509,-0.0829536 0.0599601,-0.17324788 0.156717,-0.16413959 0.18372808,-0.22004659 0.10631343,-0.22004659 -0.0612018,0 -0.18403409,0.16773078 -0.23468205,0.32046485 -0.0151604,0.0457176 -0.060235,0.0972289 -0.15146323,0.17309222 C 0.19678546,0.7440728 0.10436746,0.8011213 0.10436746,0.77180476 c 0,-0.009626 0.0193703,-0.0276621 0.0430444,-0.04008 C 0.17108646,0.71930736 0.24796834,0.65896816 0.31826077,0.5976387 0.41895451,0.50978453 0.45382509,0.46590779 0.48264678,0.39079715 0.55551846,0.20088927 0.65295813,0.09253354 0.74003963,0.10456934 c 0.0307504,0.004249 0.0432455,0.0190748 0.0476306,0.0565118 0.004575,0.0390549 -0.0100601,0.0674659 -0.0635062,0.12328553 -0.14597971,0.15246234 -0.1743014,0.16357748 -0.15329121,0.16357748 0.0119306,0 0.0728771,-0.0287283 0.13543639,-0.0924861 0.0937228,-0.0955182 0.12467868,-0.11644433 0.17586334,-0.11888246 0.0545447,-0.002597 0.0627895,0.002679 0.0676175,0.0432819 0.004236,0.0356447 -0.0110917,0.0600872 -0.0668965,0.10666253 -0.0749227,0.062531 -0.0995792,0.0766387 -0.23663965,0.1353971 -0.0780098,0.0334432 -0.31894849,0.24555295 -0.38288895,0.3370751 -0.0276038,0.0395107 -0.030757,0.0404159 -0.0316099,0.009072 z M 0.78172573,0.41745108 c 0.0875306,-0.0581514 0.16384966,-0.13561684 0.14842599,-0.15065559 -0.034854,-0.0339843 -0.12550221,0.0737224 -0.24112295,0.15388785 -0.10989405,0.0761948 -0.13556409,0.10936047 -0.0123022,0.0564122 0.0180109,-0.006404 0.0652603,-0.0332442 0.10499921,-0.0596444 z" id="path22927" inkscape:connector-curvature="0" sodipodi:nodetypes="cssssssscsscssssccssscssscs" />
</svg>