<?xml version="1.0" encoding="utf-8" standalone="no"?>
<svg xmlns:dc="http://purl.org/dc/elements/1.1/" xmlns:cc="http://creativecommons.org/ns#" xmlns:rdf="http://www.w3.org/1999/02/22-rdf-syntax-ns#" xmlns:svg="http://www.w3.org/2000/svg" xmlns="http://www.w3.org/2000/svg" xmlns:sodipodi="http://sodipodi.sourceforge.net/DTD/sodipodi-0.dtd" xmlns:inkscape="http://www.inkscape.org/namespaces/inkscape" height="1" version="1.1" width="1" id="svg2" inkscape:version="0.91 r13725" sodipodi:docname="脊椎动物.svg">
  <metadata id="metadata8">
    <rdf:RDF>
      <cc:Work rdf:about="">
        <dc:format>image/svg+xml</dc:format>
        <dc:type rdf:resource="http://purl.org/dc/dcmitype/StillImage" />
        <dc:title></dc:title>
      </cc:Work>
    </rdf:RDF>
  </metadata>
  <defs id="defs6">
    <pattern width="1" height="1" id="脊椎动物" patternContentUnits="objectBoundingBox">
      <path style="fill:#000000" d="m 0.27108849,0.80321063 c -0.0306003,-0.0244501 -0.0511164,-0.0705311 -0.0549895,-0.12351089 -0.005846,-0.079966 -0.001841,-0.0845097 0.0745009,-0.0845097 0.12631946,0 0.23445924,-0.1151285 0.28382885,-0.30217125 0.019704,-0.0746512 0.0389379,-0.10072379 0.0743046,-0.10072379 0.0262454,0 0.0527762,0.0209198 0.0589575,0.0464882 0.006181,0.0255684 0.0243841,0.0464876 0.0404511,0.0464876 0.0378959,0 0.0730078,0.10495076 0.0571111,0.17070758 -0.007767,0.0321283 -0.0263987,0.0454127 -0.0499692,0.0356287 -0.0607704,-0.0252255 -0.35889281,0.18998551 -0.38390972,0.2771394 -0.0244241,0.0850884 -0.033167,0.088093 -0.10028568,0.0344642 z m 0.0480677,-0.14062059 c -0.0689725,-0.0134638 -0.0861731,0.0203366 -0.0385045,0.0756649 0.0344955,0.0400382 0.0416309,0.0389002 0.0644654,-0.0102819 0.0227973,-0.0491015 0.0198862,-0.0564335 -0.0259609,-0.065383 z M 0.5943942,0.48770386 c 0.0208448,-0.0250259 0.0664546,-0.0459456 0.10135481,-0.0464881 0.0443365,-6.8802e-4 0.063455,-0.0156214 0.063455,-0.0495622 0,-0.0334028 -0.0114416,-0.0428118 -0.036629,-0.0301229 -0.0260873,0.0131432 -0.0396088,3.66e-4 -0.0469837,-0.0443989 -0.016113,-0.0978056 -0.0454111,-0.0750938 -0.0988276,0.0766108 -0.0511992,0.14540763 -0.0464228,0.17086346 0.0176304,0.0939613 z" id="path20900" inkscape:connector-curvature="0" />
    </pattern>
  </defs>
  <sodipodi:namedview pagecolor="#ffffff" bordercolor="#666666" borderopacity="1" objecttolerance="10" gridtolerance="10" guidetolerance="10" inkscape:pageopacity="0" inkscape:pageshadow="2" inkscape:window-width="1600" inkscape:window-height="838" id="namedview4" showgrid="false" inkscape:zoom="90.509668" inkscape:cx="4.8502038" inkscape:cy="-1.9833781" inkscape:window-x="-8" inkscape:window-y="-8" inkscape:window-maximized="1" inkscape:current-layer="svg2" />
  <path style="fill:#000000" d="m 0.27108849,0.80321063 c -0.0306003,-0.0244501 -0.0511164,-0.0705311 -0.0549895,-0.12351089 -0.005846,-0.079966 -0.001841,-0.0845097 0.0745009,-0.0845097 0.12631946,0 0.23445924,-0.1151285 0.28382885,-0.30217125 0.019704,-0.0746512 0.0389379,-0.10072379 0.0743046,-0.10072379 0.0262454,0 0.0527762,0.0209198 0.0589575,0.0464882 0.006181,0.0255684 0.0243841,0.0464876 0.0404511,0.0464876 0.0378959,0 0.0730078,0.10495076 0.0571111,0.17070758 -0.007767,0.0321283 -0.0263987,0.0454127 -0.0499692,0.0356287 -0.0607704,-0.0252255 -0.35889281,0.18998551 -0.38390972,0.2771394 -0.0244241,0.0850884 -0.033167,0.088093 -0.10028568,0.0344642 z m 0.0480677,-0.14062059 c -0.0689725,-0.0134638 -0.0861731,0.0203366 -0.0385045,0.0756649 0.0344955,0.0400382 0.0416309,0.0389002 0.0644654,-0.0102819 0.0227973,-0.0491015 0.0198862,-0.0564335 -0.0259609,-0.065383 z M 0.5943942,0.48770386 c 0.0208448,-0.0250259 0.0664546,-0.0459456 0.10135481,-0.0464881 0.0443365,-6.8802e-4 0.063455,-0.0156214 0.063455,-0.0495622 0,-0.0334028 -0.0114416,-0.0428118 -0.036629,-0.0301229 -0.0260873,0.0131432 -0.0396088,3.66e-4 -0.0469837,-0.0443989 -0.016113,-0.0978056 -0.0454111,-0.0750938 -0.0988276,0.0766108 -0.0511992,0.14540763 -0.0464228,0.17086346 0.0176304,0.0939613 z" id="path20900" inkscape:connector-curvature="0" />
</svg>