<?xml version="1.0" encoding="UTF-8" standalone="no"?>
<svg
   xmlns:dc="http://purl.org/dc/elements/1.1/"
   xmlns:cc="http://creativecommons.org/ns#"
   xmlns:rdf="http://www.w3.org/1999/02/22-rdf-syntax-ns#"
   xmlns:svg="http://www.w3.org/2000/svg"
   xmlns="http://www.w3.org/2000/svg"
   xmlns:sodipodi="http://sodipodi.sourceforge.net/DTD/sodipodi-0.dtd"
   xmlns:inkscape="http://www.inkscape.org/namespaces/inkscape"
   height="100"
   version="1.1"
   width="100"
   id="svg2"
   inkscape:version="0.91 r13725"
   sodipodi:docname="自由生长生态.svg">
  <defs id="defs6">
    <pattern width="1" height="1" patternContentUnits="objectBoundingBox"  id="自由生长生态" >
      <path
     style="fill:#000000"
     d="m 0.12984875,0.69689336 c -0.002673,-0.003151 -0.00486,-0.0190327 -0.00486,-0.035291 0,-0.0220696 0.005079,-0.034213 0.0200369,-0.0479149 0.0110202,-0.0100945 0.033963,-0.033373 0.050983,-0.0517299 0.0257213,-0.0277406 0.032795,-0.031566 0.041896,-0.0226565 0.0164985,0.0161519 0.0133057,0.0312504 -0.0109091,0.051589 -0.012022,0.010098 -0.0218586,0.0220444 -0.0218586,0.026548 0,0.004992 0.0572888,0.00728 0.14682686,0.00586 l 0.14682692,-0.002327 -0.001607,-0.12880059 c -8.8408e-4,-0.0708403 -0.003087,-0.13054831 -0.0049,-0.13268442 -0.001809,-0.002134 -0.0178231,0.0129385 -0.0355826,0.0334987 -0.0273793,0.031697 -0.0340049,0.0357037 -0.0435647,0.0263446 -0.0178696,-0.0174941 -0.0136412,-0.0275792 0.0313734,-0.0748331 0.0370512,-0.0388943 0.0459133,-0.0442344 0.0713155,-0.0429747 0.0241305,0.001198 0.0368102,0.009641 0.0754318,0.0502357 0.0400293,0.0420744 0.0451151,0.0506589 0.0369163,0.0623128 -0.0140706,0.0199996 -0.024034,0.0167908 -0.0514422,-0.0165664 -0.0135942,-0.0165453 -0.0273531,-0.0300818 -0.0305742,-0.0300818 -0.003223,0 -0.005857,0.0580153 -0.005857,0.12892295 l 0,0.12892301 L 0.67327348,0.62491349 0.8062469,0.62455924 0.7789236,0.59607274 C 0.7490112,0.56488664 0.7461918,0.55532004 0.762275,0.53957564 c 0.008786,-0.008601 0.0203537,-8.0672e-4 0.0653778,0.0440708 0.0499624,0.0497961 0.0547202,0.0573144 0.0549012,0.0867517 l 1.9485e-4,0.0322307 -0.37402554,0 c -0.20571411,0 -0.37621145,-0.002578 -0.37888305,-0.005729 z"
     id="path4158"/>
	  </pattern>
  </defs>
  <rect style="stroke:none;fill:url(#自由生长生态)" width="100" height="100" x="0" y="0" id="rect3353" />

</svg>
