<?xml version="1.0" encoding="utf-8" standalone="no"?>
<svg xmlns:dc="http://purl.org/dc/elements/1.1/" xmlns:cc="http://creativecommons.org/ns#" xmlns:rdf="http://www.w3.org/1999/02/22-rdf-syntax-ns#" xmlns:svg="http://www.w3.org/2000/svg" xmlns="http://www.w3.org/2000/svg" xmlns:sodipodi="http://sodipodi.sourceforge.net/DTD/sodipodi-0.dtd" xmlns:inkscape="http://www.inkscape.org/namespaces/inkscape" height="1" version="1.1" width="1" id="svg4421" inkscape:version="0.91 r13725" sodipodi:docname="苔癣动物.svg">
  <metadata id="metadata4427">
    <rdf:RDF>
      <cc:Work rdf:about="">
        <dc:format>image/svg+xml</dc:format>
        <dc:type rdf:resource="http://purl.org/dc/dcmitype/StillImage" />
        <dc:title></dc:title>
      </cc:Work>
    </rdf:RDF>
  </metadata>
  <defs id="defs4425">
    <pattern width="1" height="1" id="苔癣动物" patternContentUnits="objectBoundingBox">
      <path inkscape:connector-curvature="0" id="path5047" d="M 0.38588506,0.77795199 C 0.37136613,0.68494016 0.32773851,0.54584289 0.28114425,0.44402126 0.23486919,0.34289689 0.19993865,0.23177847 0.19808377,0.17979369 c -0.003025,-0.08477667 2.7424e-4,-0.09007268 0.0599651,-0.0962534 0.13680863,-0.0141662 0.15615486,0.0028888 0.19948397,0.17585508 0.0221204,0.088298 0.0465974,0.16411472 0.0543964,0.16848184 0.007797,0.004368 0.0318072,-0.0631222 0.0533527,-0.14997589 0.0390977,-0.15761079 0.039312,-0.15791607 0.11072031,-0.15791607 0.0393508,0 0.0900941,0.0122879 0.11276325,0.0273073 0.0399612,0.0264754 0.0400359,0.0317893 0.00246,0.17444135 C 0.71997376,0.59213593 0.6943027,0.70724398 0.6794933,0.82273489 l -0.0147006,0.11463291 -0.12700728,0 -0.12700732,0 -0.0248824,-0.15941563 z m 0.2176065,0.11954323 c 0.0292696,0 0.041527,-0.0135662 0.0405284,-0.0448562 -7.8301e-4,-0.0246709 0.009786,-0.0850435 0.0234943,-0.134161 0.0137092,-0.0491175 0.0203419,-0.10518788 0.0147394,-0.12460092 -0.005605,-0.019413 -8.79e-5,-0.035296 0.0122542,-0.035296 0.0124189,0 0.0181132,-0.0267118 0.0127512,-0.0598086 -0.005327,-0.0328948 -4.4686e-4,-0.0598084 0.0108576,-0.0598084 0.0112992,0 0.0148486,-0.0134568 0.007881,-0.0299043 -0.006965,-0.0164464 -0.00423,-0.0299042 0.006079,-0.0299042 0.0103102,0 0.0240084,-0.0182357 0.0304426,-0.0405243 0.008241,-0.0285559 -0.00484,-0.0503388 -0.0442812,-0.0737562 -0.0538184,-0.0319508 -0.0576403,-0.0313716 -0.0990952,0.0150138 -0.02579,0.0288577 -0.0335697,0.0511301 -0.0193586,0.0554224 0.0155326,0.004689 0.0134548,0.0165132 -0.006001,0.0341402 -0.0163676,0.0148307 -0.0361993,0.0634515 -0.0440697,0.10804692 -0.0152925,0.0866475 -0.0460964,0.1091656 -0.0520114,0.03802 -0.001983,-0.0236846 -0.0115029,-0.0483555 -0.0211849,-0.0548245 -0.009682,-0.00647 -0.0205985,-0.0460553 -0.0242568,-0.0879688 -0.009056,-0.10375572 -0.0411263,-0.17386816 -0.0751551,-0.16431118 -0.0155158,0.004358 -0.0545225,0.0131192 -0.0866851,0.0194733 -0.0557387,0.0110111 -0.0573687,0.0148218 -0.0348133,0.0814099 0.0130137,0.0384221 0.0308011,0.0698587 0.0395256,0.0698587 0.008724,0 0.0226483,0.0336422 0.0309408,0.0747605 0.008292,0.0411182 0.0277447,0.0927031 0.0432259,0.11463291 0.0315958,0.0447566 0.0684033,0.21637695 0.0605943,0.28253023 -0.005175,0.0438344 0.0431714,0.0693543 0.10232854,0.0540148 0.0161163,-0.004178 0.0481855,-0.007598 0.0712635,-0.007598 z M 0.75314098,0.1771716 c -0.0581977,-0.0405507 -0.098118,-0.0467518 -0.11755227,-0.0182608 -0.0169736,0.0248833 0.0985398,0.0793801 0.1386766,0.065425 0.0235757,-0.008197 0.0184843,-0.0195665 -0.0211237,-0.0471644 z M 0.39290939,0.1498894 c 0,-0.0109646 -0.03713,-0.0227202 -0.0825115,-0.0261239 -0.0773771,-0.005802 -0.10295494,0.0109237 -0.0667997,0.0436823 0.0229135,0.0207612 0.14931126,0.005897 0.14931126,-0.0175583 z" style="fill:#000000" />
    </pattern>
  </defs>
  <sodipodi:namedview pagecolor="#ffffff" bordercolor="#666666" borderopacity="1" objecttolerance="10" gridtolerance="10" guidetolerance="10" inkscape:pageopacity="0" inkscape:pageshadow="2" inkscape:window-width="1600" inkscape:window-height="838" id="namedview4423" showgrid="false" inkscape:zoom="256" inkscape:cx="0.37166292" inkscape:cy="0.46317133" inkscape:window-x="-8" inkscape:window-y="-8" inkscape:window-maximized="1" inkscape:current-layer="svg4421" />
  <g id="g5309">
    <path inkscape:connector-curvature="0" id="path5047" d="M 0.38588506,0.77795199 C 0.37136613,0.68494016 0.32773851,0.54584289 0.28114425,0.44402126 0.23486919,0.34289689 0.19993865,0.23177847 0.19808377,0.17979369 c -0.003025,-0.08477667 2.7424e-4,-0.09007268 0.0599651,-0.0962534 0.13680863,-0.0141662 0.15615486,0.0028888 0.19948397,0.17585508 0.0221204,0.088298 0.0465974,0.16411472 0.0543964,0.16848184 0.007797,0.004368 0.0318072,-0.0631222 0.0533527,-0.14997589 0.0390977,-0.15761079 0.039312,-0.15791607 0.11072031,-0.15791607 0.0393508,0 0.0900941,0.0122879 0.11276325,0.0273073 0.0399612,0.0264754 0.0400359,0.0317893 0.00246,0.17444135 C 0.71997376,0.59213593 0.6943027,0.70724398 0.6794933,0.82273489 l -0.0147006,0.11463291 -0.12700728,0 -0.12700732,0 -0.0248824,-0.15941563 z m 0.2176065,0.11954323 c 0.0292696,0 0.041527,-0.0135662 0.0405284,-0.0448562 -7.8301e-4,-0.0246709 0.009786,-0.0850435 0.0234943,-0.134161 0.0137092,-0.0491175 0.0203419,-0.10518788 0.0147394,-0.12460092 -0.005605,-0.019413 -8.79e-5,-0.035296 0.0122542,-0.035296 0.0124189,0 0.0181132,-0.0267118 0.0127512,-0.0598086 -0.005327,-0.0328948 -4.4686e-4,-0.0598084 0.0108576,-0.0598084 0.0112992,0 0.0148486,-0.0134568 0.007881,-0.0299043 -0.006965,-0.0164464 -0.00423,-0.0299042 0.006079,-0.0299042 0.0103102,0 0.0240084,-0.0182357 0.0304426,-0.0405243 0.008241,-0.0285559 -0.00484,-0.0503388 -0.0442812,-0.0737562 -0.0538184,-0.0319508 -0.0576403,-0.0313716 -0.0990952,0.0150138 -0.02579,0.0288577 -0.0335697,0.0511301 -0.0193586,0.0554224 0.0155326,0.004689 0.0134548,0.0165132 -0.006001,0.0341402 -0.0163676,0.0148307 -0.0361993,0.0634515 -0.0440697,0.10804692 -0.0152925,0.0866475 -0.0460964,0.1091656 -0.0520114,0.03802 -0.001983,-0.0236846 -0.0115029,-0.0483555 -0.0211849,-0.0548245 -0.009682,-0.00647 -0.0205985,-0.0460553 -0.0242568,-0.0879688 -0.009056,-0.10375572 -0.0411263,-0.17386816 -0.0751551,-0.16431118 -0.0155158,0.004358 -0.0545225,0.0131192 -0.0866851,0.0194733 -0.0557387,0.0110111 -0.0573687,0.0148218 -0.0348133,0.0814099 0.0130137,0.0384221 0.0308011,0.0698587 0.0395256,0.0698587 0.008724,0 0.0226483,0.0336422 0.0309408,0.0747605 0.008292,0.0411182 0.0277447,0.0927031 0.0432259,0.11463291 0.0315958,0.0447566 0.0684033,0.21637695 0.0605943,0.28253023 -0.005175,0.0438344 0.0431714,0.0693543 0.10232854,0.0540148 0.0161163,-0.004178 0.0481855,-0.007598 0.0712635,-0.007598 z M 0.75314098,0.1771716 c -0.0581977,-0.0405507 -0.098118,-0.0467518 -0.11755227,-0.0182608 -0.0169736,0.0248833 0.0985398,0.0793801 0.1386766,0.065425 0.0235757,-0.008197 0.0184843,-0.0195665 -0.0211237,-0.0471644 z M 0.39290939,0.1498894 c 0,-0.0109646 -0.03713,-0.0227202 -0.0825115,-0.0261239 -0.0773771,-0.005802 -0.10295494,0.0109237 -0.0667997,0.0436823 0.0229135,0.0207612 0.14931126,0.005897 0.14931126,-0.0175583 z" style="fill:#000000" />
    <rect y="0.42600134" x="0.37912634" height="0.0073723281" width="0.0034660781" id="rect5181" style="opacity:0.9906977;fill:#000000;fill-opacity:1;stroke:#000000;stroke-width:0.04575267;stroke-miterlimit:4;stroke-dasharray:none;stroke-opacity:1" />
    <rect y="0.61740756" x="0.48264194" height="0.0073723281" width="0.0034660781" id="rect5181-4" style="opacity:0.9906977;fill:#000000;fill-opacity:1;stroke:#000000;stroke-width:0.04575267;stroke-miterlimit:4;stroke-dasharray:none;stroke-opacity:1" />
    <rect y="0.53147006" x="0.63889194" height="0.0073723281" width="0.0034660781" id="rect5181-7" style="opacity:0.9906977;fill:#000000;fill-opacity:1;stroke:#000000;stroke-width:0.04575267;stroke-miterlimit:4;stroke-dasharray:none;stroke-opacity:1" />
    <rect y="0.36350134" x="0.66232944" height="0.0073723281" width="0.0034660781" id="rect5181-1" style="opacity:0.9906977;fill:#000000;fill-opacity:1;stroke:#000000;stroke-width:0.04575267;stroke-miterlimit:4;stroke-dasharray:none;stroke-opacity:1" />
    <rect y="0.71115756" x="0.61545444" height="0.0073723281" width="0.0034660781" id="rect5181-75" style="opacity:0.9906977;fill:#000000;fill-opacity:1;stroke:#000000;stroke-width:0.04575267;stroke-miterlimit:4;stroke-dasharray:none;stroke-opacity:1" />
    <rect y="0.75803256" x="0.49436069" height="0.0073723281" width="0.0034660781" id="rect5181-8" style="opacity:0.9906977;fill:#000000;fill-opacity:1;stroke:#000000;stroke-width:0.04575267;stroke-miterlimit:4;stroke-dasharray:none;stroke-opacity:1" />
  </g>
</svg>