<?xml version="1.0" encoding="utf-8" standalone="no"?>
<svg xmlns:dc="http://purl.org/dc/elements/1.1/" xmlns:cc="http://creativecommons.org/ns#" xmlns:rdf="http://www.w3.org/1999/02/22-rdf-syntax-ns#" xmlns:svg="http://www.w3.org/2000/svg" xmlns="http://www.w3.org/2000/svg" xmlns:sodipodi="http://sodipodi.sourceforge.net/DTD/sodipodi-0.dtd" xmlns:inkscape="http://www.inkscape.org/namespaces/inkscape" height="1" version="1.1" width="1" id="svg2" inkscape:version="0.91 r13725" sodipodi:docname="菊石类.svg">
  <metadata id="metadata8">
    <rdf:RDF>
      <cc:Work rdf:about="">
        <dc:format>image/svg+xml</dc:format>
        <dc:type rdf:resource="http://purl.org/dc/dcmitype/StillImage" />
        <dc:title></dc:title>
      </cc:Work>
    </rdf:RDF>
  </metadata>
  <defs id="defs6">
    <pattern width="1" height="1" id="菊石类" patternContentUnits="objectBoundingBox">
      <path style="fill:#000000" d="m 0.45627876,0.78796912 c -0.0496054,-0.0202401 -0.0828375,-0.0524223 -0.1062247,-0.10286898 -0.0435337,-0.093903 -9.8234e-4,-0.30037353 0.073243,-0.35538599 0.0217038,-0.0160864 0.0402158,-0.0374733 0.0411379,-0.0475268 9.2137e-4,-0.0100545 0.002558,-0.0265052 0.003636,-0.0365597 0.003388,-0.0316141 0.0897385,-0.0129463 0.14553164,0.0314621 0.0934188,0.0743567 0.14158605,0.28050683 0.0916362,0.39219219 -0.0241102,0.0539089 -0.11202922,0.12132882 -0.16829817,0.12905801 -0.0227319,0.003122 -0.0590297,-0.001544 -0.0806616,-0.0103702 z M 0.63278878,0.71766599 C 0.70275988,0.65585051 0.72204358,0.58599586 0.69977598,0.47500767 0.67694098,0.36119183 0.58254322,0.24928364 0.50937094,0.24928364 c -0.0260679,0 -0.0266055,0.0526735 -6.5102e-4,0.0637831 0.010816,0.004625 0.0196654,0.0217852 0.0196654,0.0381236 0,0.0219381 -0.008571,0.0297066 -0.0327757,0.0297066 -0.0372348,0 -0.0446789,-0.024426 -0.009833,-0.0322634 0.0215734,-0.004851 0.0215946,-0.005748 3.5512e-4,-0.015085 -0.0361846,-0.0158995 -0.0947378,0.0507849 -0.11940751,0.13598818 -0.0393236,0.13581422 -0.0216738,0.2135941 0.0613483,0.27035171 0.0702611,0.0480338 0.13288522,0.0412357 0.20471625,-0.0222228 z" id="path10232" inkscape:connector-curvature="0" />
    </pattern>
  </defs>
  <sodipodi:namedview pagecolor="#ffffff" bordercolor="#666666" borderopacity="1" objecttolerance="10" gridtolerance="10" guidetolerance="10" inkscape:pageopacity="0" inkscape:pageshadow="2" inkscape:window-width="1600" inkscape:window-height="838" id="namedview4" showgrid="false" inkscape:zoom="118" inkscape:cx="3.4872881" inkscape:cy="-0.4824192" inkscape:window-x="-8" inkscape:window-y="-8" inkscape:window-maximized="1" inkscape:current-layer="svg2" />
  <path style="fill:#000000" d="m 0.45627876,0.78796912 c -0.0496054,-0.0202401 -0.0828375,-0.0524223 -0.1062247,-0.10286898 -0.0435337,-0.093903 -9.8234e-4,-0.30037353 0.073243,-0.35538599 0.0217038,-0.0160864 0.0402158,-0.0374733 0.0411379,-0.0475268 9.2137e-4,-0.0100545 0.002558,-0.0265052 0.003636,-0.0365597 0.003388,-0.0316141 0.0897385,-0.0129463 0.14553164,0.0314621 0.0934188,0.0743567 0.14158605,0.28050683 0.0916362,0.39219219 -0.0241102,0.0539089 -0.11202922,0.12132882 -0.16829817,0.12905801 -0.0227319,0.003122 -0.0590297,-0.001544 -0.0806616,-0.0103702 z M 0.63278878,0.71766599 C 0.70275988,0.65585051 0.72204358,0.58599586 0.69977598,0.47500767 0.67694098,0.36119183 0.58254322,0.24928364 0.50937094,0.24928364 c -0.0260679,0 -0.0266055,0.0526735 -6.5102e-4,0.0637831 0.010816,0.004625 0.0196654,0.0217852 0.0196654,0.0381236 0,0.0219381 -0.008571,0.0297066 -0.0327757,0.0297066 -0.0372348,0 -0.0446789,-0.024426 -0.009833,-0.0322634 0.0215734,-0.004851 0.0215946,-0.005748 3.5512e-4,-0.015085 -0.0361846,-0.0158995 -0.0947378,0.0507849 -0.11940751,0.13598818 -0.0393236,0.13581422 -0.0216738,0.2135941 0.0613483,0.27035171 0.0702611,0.0480338 0.13288522,0.0412357 0.20471625,-0.0222228 z" id="path10232" inkscape:connector-curvature="0" />
</svg>