<?xml version="1.0" encoding="utf-8" standalone="no"?>
<svg xmlns:dc="http://purl.org/dc/elements/1.1/" xmlns:cc="http://creativecommons.org/ns#" xmlns:rdf="http://www.w3.org/1999/02/22-rdf-syntax-ns#" xmlns:svg="http://www.w3.org/2000/svg" xmlns="http://www.w3.org/2000/svg" xmlns:sodipodi="http://sodipodi.sourceforge.net/DTD/sodipodi-0.dtd" xmlns:inkscape="http://www.inkscape.org/namespaces/inkscape" height="1" version="1.1" width="1" id="svg2" inkscape:version="0.91 r13725" sodipodi:docname="鱼类.svg">
  <metadata id="metadata8">
    <rdf:RDF>
      <cc:Work rdf:about="">
        <dc:format>image/svg+xml</dc:format>
        <dc:type rdf:resource="http://purl.org/dc/dcmitype/StillImage" />
        <dc:title></dc:title>
      </cc:Work>
    </rdf:RDF>
  </metadata>
  <defs id="defs6">
    <pattern width="1" height="1" id="鱼类" patternContentUnits="objectBoundingBox">
      <path style="fill:#000000" d="m 0.51910006,0.67785692 c -0.0123574,-0.0145205 -0.0577026,-0.12859778 -0.070393,-0.17709248 -0.003651,-0.0139524 -0.007753,-0.0282216 -0.009115,-0.0317098 -0.001898,-0.004858 -6.9039e-4,-0.006342 0.00516,-0.006342 0.0042,0 0.00731,-0.002039 0.006911,-0.00453 -3.9913e-4,-0.002492 0.001129,-0.009121 0.003395,-0.0147319 0.002265,-0.005611 0.004119,-0.0126046 0.004119,-0.0155413 0,-0.0138943 0.0349786,-0.15860911 0.0428301,-0.1771989 0.004295,-0.0101691 0.004681,-0.0103452 0.00598,-0.002724 7.6399e-4,0.004481 -0.001082,0.0240507 -0.004102,0.0434876 -0.009694,0.0624066 -0.021094,0.15087069 -0.0213661,0.16580248 -1.4628e-4,0.007973 -0.001633,0.0166612 -0.003307,0.0193076 -0.002948,0.00466 0.0189857,0.0957481 0.0391072,0.16241113 0.0049,0.0162317 0.008375,0.0331382 0.007724,0.0375697 -0.001148,0.007807 -0.001364,0.007847 -0.006943,0.001291 z m -0.0294808,-0.0904337 c -0.002799,-0.007799 -0.005202,-0.0123843 -0.00534,-0.0101906 -3.4526e-4,0.005545 0.007362,0.0275009 0.00905,0.0257773 7.5892e-4,-7.7238e-4 -9.1106e-4,-0.007788 -0.003711,-0.0155868 z m -0.0164767,-0.0610461 c -0.006004,-0.0234349 -0.009838,-0.045308 -0.008521,-0.0486067 0.001318,-0.003299 0.003018,-0.0181759 0.003779,-0.0330606 7.6146e-4,-0.0148845 0.006187,-0.0472175 0.0120566,-0.071851 0.00587,-0.0246335 0.010558,-0.0475169 0.0104178,-0.0508523 -4.26e-4,-0.0101724 -0.0279519,0.10907559 -0.0280532,0.12153932 -5.693e-5,0.00694 -0.003012,0.0144105 -0.007321,0.0185086 -0.006703,0.006375 -0.006839,0.007632 -0.001885,0.0173551 0.002938,0.005766 0.0104043,0.0288762 0.0165922,0.0513565 0.006188,0.0224805 0.0118356,0.0402765 0.0125505,0.0395468 7.1493e-4,-7.309e-4 -0.003612,-0.0205009 -0.009616,-0.0439359 z M 0.43022331,0.6520651 c -0.007528,-0.0200478 -0.0283768,-0.0932743 -0.0457978,-0.16084909 -0.002145,-0.008318 -0.006005,-0.0138692 -0.0104765,-0.0150625 -0.009133,-0.002438 -0.009312,-0.0134405 -2.201e-4,-0.0134405 0.008323,0 0.008948,-0.001914 0.0177467,-0.0543595 0.006374,-0.0379962 0.0284185,-0.12056563 0.0336,-0.12585457 0.005971,-0.006095 0.005759,0.006319 -8.2973e-4,0.0486034 -0.003981,0.0255461 -0.00816,0.0634349 -0.009287,0.0841973 -0.001126,0.0207626 -0.003607,0.0396665 -0.005512,0.0420091 -0.004467,0.005493 -8.667e-4,0.00915 0.006262,0.006359 0.004541,-0.00178 0.005144,-1.4668e-4 0.003342,0.009055 -0.00142,0.007252 -6.7812e-4,0.0118555 0.002099,0.0130062 0.003065,0.00127 0.003116,0.001862 1.7445e-4,0.002067 -0.003042,2.0893e-4 -0.002812,0.006021 8.7409e-4,0.0221561 0.00275,0.0120284 0.007353,0.0434211 0.0102297,0.0697613 0.002877,0.0263403 0.006877,0.0566755 0.008888,0.0674118 0.007138,0.0381041 0.002184,0.0403103 -0.0110955,0.00494 z m -0.007079,-0.0572812 c -0.009699,-0.035659 -0.0238836,-0.1158575 -0.0206883,-0.11697109 0.004808,-0.001675 0.004362,-0.014191 -5.6307e-4,-0.0158671 -0.002998,-0.00102 -0.002945,-0.0101513 2.0802e-4,-0.0356357 0.007206,-0.0582898 0.007321,-0.0602555 0.002202,-0.0378883 -0.002737,0.0119592 -0.006058,0.0323439 -0.00738,0.0452995 -0.00181,0.0177445 -0.004281,0.0251326 -0.0100143,0.0299473 l -0.007611,0.006391 0.007837,0.006749 c 0.00431,0.003712 0.006879,0.007727 0.005707,0.008923 -0.001171,0.001197 -3.6976e-4,0.004339 0.00178,0.006984 0.00215,0.002646 0.007793,0.0234776 0.0125373,0.0462932 0.0103492,0.0497675 0.0164726,0.0735396 0.0184289,0.0715427 7.9319e-4,-8.1383e-4 -3.0363e-4,-0.007907 -0.002442,-0.0157677 z m -0.007345,-0.25528578 c -6.1e-5,-0.008138 -3.4282e-4,-0.007953 -0.002777,0.001812 -0.001491,0.005979 -0.00274,0.0141334 -0.002777,0.0181199 -4.877e-5,0.00568 5.4868e-4,0.005287 0.002777,-0.001812 0.001563,-0.004983 0.002813,-0.0131369 0.002777,-0.0181199 z m 0.003234,-0.0243928 c -9.0121e-4,-0.003526 -0.001696,-0.001519 -0.001768,0.004461 -7.319e-5,0.005979 6.6374e-4,0.008865 0.001636,0.006411 9.7185e-4,-0.002453 0.001031,-0.007346 1.3014e-4,-0.0108719 z M 0.31006314,0.6660479 C 0.28002774,0.6558402 0.23509924,0.6369686 0.22140494,0.6288083 0.21462594,0.6247703 0.18506894,0.6152753 0.15572364,0.6077123 0.07067994,0.5857947 0.04378771,0.57227 0.04378771,0.5514185 c 0,-0.0148247 0.0293763,-0.0535838 0.0798204,-0.10531585 0.0420875,-0.0431619 0.0568891,-0.0556501 0.0959214,-0.0809283 0.025385,-0.0164401 0.0563521,-0.0371198 0.068816,-0.0459553 0.025989,-0.0184235 0.0386658,-0.0229507 0.0435276,-0.0155453 0.004039,0.006153 0.002216,0.0551015 -0.004295,0.11528628 -0.003812,0.035231 -0.003929,0.0453553 -5.4106e-4,0.0465076 0.005432,0.001849 0.00573,0.0117411 3.5506e-4,0.0117411 -0.009686,0 0.005966,0.10552955 0.0237719,0.16027584 0.008228,0.0252969 0.006066,0.0334274 -0.009146,0.034403 -0.006834,4.4145e-4 -0.0212133,-0.002193 -0.0319531,-0.00584 z M 0.33351944,0.648441 c -0.001031,-0.003489 -0.006669,-0.0263045 -0.012529,-0.0507036 -0.0217699,-0.0906418 -0.0226391,-0.13361662 -0.004418,-0.21837592 0.014392,-0.0669478 0.015226,-0.0724793 0.0109285,-0.0724793 -0.003633,0 -0.0743794,0.0492349 -0.12868798,0.0895586 -0.0503536,0.0373873 -0.13893905,0.13777733 -0.1365518,0.1547481 0.001151,0.008187 0.0162394,0.0170537 0.0322609,0.0189577 0.005599,6.687e-4 0.0116529,0.002141 0.0134516,0.003276 0.001797,0.001135 0.00327,-5.3392e-4 0.00327,-0.003716 0,-0.004583 0.001417,-0.005002 0.006843,-0.002037 0.003765,0.002058 0.009194,0.002815 0.012067,0.00169 0.002872,-0.001125 0.006294,-2.7563e-4 0.007603,0.001887 0.001307,0.002162 0.003867,0.002991 0.005685,0.001845 0.001815,-0.001145 0.003304,-5.4947e-4 0.003304,0.001327 0,0.00408 -0.0175753,0.003577 -0.0242009,-6.998e-4 -0.005725,-0.003691 -0.0103305,1.6448e-4 -0.00574,0.004806 0.001823,0.00184 0.0176925,0.006549 0.0352666,0.0104576 0.0362679,0.008066 0.0560007,0.0148693 0.10651015,0.0367217 0.0362616,0.0156879 0.0687106,0.0283376 0.0739087,0.0288119 0.001596,1.467e-4 0.00206,-0.002586 0.001029,-0.006077 z M 0.14984502,0.56871384 c -0.004389,-0.005713 -0.004271,-0.005861 0.001185,-0.001503 0.006328,0.00506 0.0150849,0.002571 0.0115424,-0.003281 -0.0033,-0.005449 0.002606,-0.003872 0.009561,0.002555 0.005794,0.005353 0.006627,0.005375 0.008562,2.2673e-4 0.001176,-0.003136 0.004163,-0.004909 0.00663,-0.003945 0.002995,0.001172 0.004592,-0.002037 0.004804,-0.009661 5.2033e-4,-0.0186089 0.004323,-0.0170302 0.004323,0.001794 0,0.0146714 -9.0121e-4,0.016947 -0.005929,0.0149772 -0.003261,-0.00128 -0.007133,-3.332e-4 -0.008605,0.002094 -0.002077,0.003431 -0.003964,0.003328 -0.008423,-4.4713e-4 -0.004352,-0.003685 -0.006744,-0.003851 -0.009857,-6.7388e-4 -0.005572,0.005686 -0.008075,0.005297 -0.0137938,-0.002146 z m -0.0442517,-0.0385163 c -0.002872,-0.007643 0.001159,-0.0131252 0.009658,-0.0131252 0.005364,0 0.006856,0.002019 0.006004,0.008117 -0.001324,0.009473 -0.0126241,0.0130868 -0.0156611,0.005008 z m 0.0432451,-0.0206513 c -0.0113956,-0.0138235 -0.0120294,-0.0313016 -0.001624,-0.0448033 0.0104769,-0.0135957 0.0220853,-0.0174377 0.0388035,-0.0128427 0.0175901,0.004835 0.0246362,0.0153382 0.0246362,0.0367236 0,0.0223279 -0.0108364,0.0320723 -0.0356668,0.0320723 -0.0145769,0 -0.0182475,-0.001566 -0.0261485,-0.0111498 z m 0.003236,-0.0214658 c 0.001206,-0.001994 5.0341e-4,-0.003624 -0.001565,-0.003624 -0.002069,0 -0.003761,0.001632 -0.003761,0.003624 0,0.001994 7.0647e-4,0.003624 0.001565,0.003624 8.5849e-4,0 0.002555,-0.001629 0.003761,-0.003624 z m 0.0366381,-0.007784 c -0.001604,-0.0109897 -0.0114359,-0.0166474 -0.018514,-0.0106514 -0.007875,0.006671 -0.001079,0.0184352 0.0106507,0.0184352 0.007189,0 0.00877,-0.001564 0.007864,-0.007784 z m 0.37946793,0.11922079 c -0.004775,-0.0104643 -0.0172743,-0.0422288 -0.0277763,-0.0705878 -0.010502,-0.0283589 -0.0210915,-0.0515977 -0.0235324,-0.0516415 -0.006584,-1.2002e-4 -0.005466,-0.0145754 0.001126,-0.0145754 0.004058,0 0.004917,-0.002085 0.003169,-0.007702 -0.00136,-0.004367 -9.8419e-4,-0.006813 8.6177e-4,-0.005647 0.00179,0.001131 0.005952,-0.009674 0.009247,-0.0240079 0.003294,-0.0143343 0.00785,-0.0325853 0.0101215,-0.0405581 0.003931,-0.0137934 0.004265,-0.0140568 0.006875,-0.005436 0.00158,0.00521 0.001866,7.4333e-4 6.7601e-4,-0.0105133 -0.001403,-0.0132722 -8.6424e-4,-0.0188133 0.001673,-0.0172131 0.002478,0.001564 0.003237,-0.002839 0.002248,-0.0130427 -0.001163,-0.0119853 -7.0774e-4,-0.0137946 0.002045,-0.008155 0.002664,0.00546 0.003137,0.002778 0.001917,-0.0108719 -0.001276,-0.0142626 -8.9381e-4,-0.0161912 0.001795,-0.00906 0.002764,0.007331 0.003116,0.005904 0.001848,-0.007476 -0.001785,-0.0188339 7.8854e-4,-0.0323869 0.006146,-0.0323869 0.002385,0 0.002821,0.009104 0.001254,0.0262738 -0.001318,0.0144505 -0.004645,0.0533026 -0.007391,0.086338 -0.002746,0.0330353 -0.006067,0.064428 -0.007378,0.0697614 -0.001511,0.006144 -9.4311e-4,0.009697 0.00155,0.009697 0.005246,0 0.00507,0.0135055 -1.9861e-4,0.0152983 -0.002887,9.8262e-4 2.3216e-4,0.0193835 0.010333,0.0610035 0.0192487,0.0792957 0.0192937,0.0795287 0.0154314,0.0795287 -0.001846,0 -0.007264,-0.008561 -0.0120387,-0.0190257 z m -0.003616,-0.0287653 c -0.001134,-0.002893 -0.001973,-0.002032 -0.002145,0.002193 -1.5435e-4,0.00382 6.8574e-4,0.005961 0.001863,0.004759 0.001181,-0.001203 0.001305,-0.004329 2.816e-4,-0.006946 z m -0.014582,-0.0558068 c -0.005758,-0.0239672 -0.008238,-0.0432755 -0.007448,-0.0580084 6.5148e-4,-0.0121461 -2.4024e-4,-0.0243767 -0.001978,-0.0271798 -0.002115,-0.00341 -0.003178,4.557e-4 -0.003215,0.0116739 -3.869e-5,0.0104284 -0.002069,0.0184762 -0.00538,0.0212814 -0.006552,0.00555 -0.006869,0.0131671 -7.0774e-4,0.0170339 0.002538,0.001595 0.006425,0.009421 0.008635,0.0173939 0.0135714,0.0489509 0.0159515,0.0565624 0.0172672,0.0552195 8.0334e-4,-8.1901e-4 -0.002424,-0.0176557 -0.007172,-0.0374144 z m -0.006722,-0.10002385 c -0.001134,-0.002891 -0.001973,-0.002034 -0.002145,0.00219 -1.5434e-4,0.00382 6.8574e-4,0.005961 0.001863,0.004757 0.001181,-0.001205 0.001305,-0.004329 2.816e-4,-0.006946 z m 0.00355,-0.0181199 c -0.001134,-0.002891 -0.001973,-0.002034 -0.002145,0.00219 -1.5434e-4,0.00382 6.8573e-4,0.005961 0.001863,0.004757 0.001181,-0.001205 0.001305,-0.00433 2.816e-4,-0.006946 z m 0.37085319,0.18145536 c -0.0317136,-0.0343959 -0.056573,-0.0670313 -0.0594131,-0.0779972 -0.001696,-0.006547 -0.004448,-0.007676 -0.017698,-0.00726 -0.0131432,4.1297e-4 -0.0157034,0.001672 -0.0157694,0.007753 -7.323e-5,0.00667 -6.4725e-4,0.006525 -0.007074,-0.0018 -0.005808,-0.007522 -0.007566,-0.008161 -0.0103553,-0.003768 -0.0029,0.004568 -0.004278,0.004443 -0.0100776,-9.1421e-4 -0.003694,-0.003413 -0.007786,-0.005116 -0.009093,-0.003782 -0.001305,0.001333 -0.002375,-0.002566 -0.002375,-0.008664 0,-0.0110715 0.004929,-0.0158252 0.0133138,-0.0128396 0.002442,8.6877e-4 0.004438,0.005521 0.004438,0.0103381 0,0.004816 0.001768,0.008758 0.00393,0.008758 0.002189,0 0.002938,-0.00264 0.00169,-0.00596 -0.001261,-0.003351 3.6973e-4,-0.008903 0.003722,-0.0126837 0.007276,-0.008207 0.0119617,-0.008628 0.0119617,-0.001073 0,0.003107 -0.001578,0.004654 -0.003511,0.003436 -0.002086,-0.001316 -0.002559,3.1044e-4 -0.001171,0.004004 0.001586,0.004219 0.001002,0.005376 -0.001815,0.003598 -0.004877,-0.003077 -0.005355,0.001131 -9.39e-4,0.008252 0.002403,0.003871 0.003718,0.003048 0.005797,-0.003624 0.00258,-0.008285 0.002813,-0.008341 0.005768,-0.001384 0.002462,0.005792 0.002708,0.00529 0.001236,-0.002495 -0.002602,-0.013745 0.003837,-0.01602 0.008304,-0.002935 0.004078,0.0119416 0.009482,0.0152817 0.005856,0.00362 -0.00124,-0.003986 -6.4301e-4,-0.007248 0.001328,-0.007248 0.001972,0 0.0111913,-0.0101923 0.0204913,-0.0226497 0.0217646,-0.0291533 0.0756268,-0.0893356 0.0840935,-0.0939608 0.0101147,-0.005525 0.0106186,-0.001307 0.001214,0.0101544 -0.007991,0.009734 -0.030796,0.0526088 -0.030796,0.0578934 0,0.00131 0.006325,-0.004759 0.0140557,-0.0134866 0.0202853,-0.0229006 0.0175643,-0.0123763 -0.003909,0.0151171 -0.0100403,0.0128558 -0.0200255,0.0256797 -0.0221898,0.0284976 -0.008941,0.0116431 0.0112434,-0.003342 0.0241632,-0.0179393 0.007306,-0.008255 0.0141183,-0.0141559 0.0151386,-0.0131145 0.00102,0.001042 -0.007859,0.0120905 -0.0197328,0.0245533 -0.0118737,0.0124628 -0.0210772,0.0231811 -0.0204528,0.0238185 6.2609e-4,6.3811e-4 0.008784,-0.002992 0.0181333,-0.008066 0.0219156,-0.0118943 0.0241471,-0.009665 0.003596,0.003594 -0.0153384,0.009896 -0.0206782,0.0154413 -0.0114672,0.011908 0.002441,-9.3731e-4 0.008432,-0.002825 0.0133137,-0.0042 0.008525,-0.002398 0.008604,-0.002275 0.001984,0.003126 -0.003791,0.003093 -0.0117786,0.005649 -0.0177517,0.005679 -0.005973,2.672e-5 -0.0132565,0.001637 -0.0161853,0.003568 -0.004226,0.002788 -0.00349,0.003536 0.003549,0.003624 0.006484,8e-5 0.00755,9.684e-4 0.003956,0.003292 -0.003629,0.002344 -5.9648e-4,0.005133 0.0115387,0.0106127 0.009052,0.004088 0.0164594,0.009247 0.0164594,0.0114648 0,0.002481 -0.003041,0.00186 -0.007891,-0.001609 -0.0151556,-0.0108354 -0.0142553,-0.005502 0.002077,0.0123232 0.009054,0.00988 0.0164624,0.0189461 0.0164624,0.0201456 0,0.003489 -0.008455,-0.002643 -0.0135151,-0.009803 -0.002551,-0.003611 -0.006253,-0.006564 -0.008226,-0.006564 -0.001972,0 0.002246,0.007268 0.00938,0.016153 0.007132,0.008884 0.0120353,0.0176926 0.0108957,0.0195744 -0.001138,0.001882 0.001899,0.010513 0.006755,0.0191806 0.0107827,0.0192527 0.0109126,0.021195 0.001417,0.021195 -0.004784,0 -0.0173067,-0.010641 -0.0346159,-0.0294143 z m -0.007354,-0.0290998 c -0.0140003,-0.0188497 -0.0181375,-0.0275972 -0.0108901,-0.0230253 0.005779,0.003645 0.004048,-5.1265e-4 -0.002458,-0.005898 -0.005116,-0.004236 -0.005561,-0.004218 -0.002999,1.1557e-4 0.002039,0.003455 0.001688,0.004259 -0.001096,0.002504 -0.002255,-0.001422 -0.004099,-0.004651 -0.004099,-0.007176 0,-0.002523 -0.003989,-0.008414 -0.008862,-0.0130882 -0.0119177,-0.0114286 -0.008515,-0.0135476 0.005995,-0.003733 l 0.011743,0.007943 -0.0102759,-0.009007 c -0.006874,-0.006025 -0.009522,-0.0110109 -0.007998,-0.0150636 0.001265,-0.003367 -4.882e-5,-0.008435 -0.002966,-0.0114101 -0.004624,-0.00472 -0.002948,-0.008195 0.0142114,-0.0294276 0.0107002,-0.0132414 0.0194553,-0.025715 0.0194553,-0.0277189 0,-0.004395 6.3455e-4,-0.005064 -0.0316843,0.0335105 l -0.0253583,0.0302684 0.006332,0.0101527 c 0.0106761,0.0171188 0.0624531,0.0834229 0.0639511,0.0818937 7.7837e-4,-7.931e-4 -0.005075,-0.0101688 -0.0130007,-0.0208394 z M 0.79854808,0.47450903 c -0.003818,-0.003898 -0.005845,0.001561 -0.003165,0.008523 0.002515,0.006531 0.002704,0.006542 0.003947,2.3561e-4 7.1746e-4,-0.003644 3.673e-4,-0.007586 -7.8346e-4,-0.008758 z m 0.091995,-0.0173446 c 0.0138882,-0.01162 0.010149,-0.0115411 -0.005326,1.1112e-4 -0.006617,0.004983 -0.0105217,0.009001 -0.008678,0.00893 0.001844,-7.112e-5 0.008145,-0.00414 0.0140036,-0.009042 z M 0.62400105,0.56982581 c -0.001198,-0.004868 -9.8172e-4,-0.0108297 4.8015e-4,-0.0132437 0.001692,-0.002794 0.001168,-0.003447 -0.00144,-0.001804 -0.002591,0.001633 -0.004099,-1.6002e-4 -0.004099,-0.004878 0,-0.004104 -0.0013,-0.007462 -0.002888,-0.007462 -0.00159,0 -0.00657,-0.0130062 -0.0110703,-0.0289031 -0.0045,-0.0158966 -0.0103898,-0.0307734 -0.0130883,-0.0330594 -0.005855,-0.004959 -0.006558,-0.0177647 -9.7761e-4,-0.0177647 0.002162,0 0.00301,-0.002447 0.001885,-0.005436 -0.001124,-0.00299 -4.9706e-4,-0.005436 0.001396,-0.005436 0.00189,0 0.00369,-0.006115 0.003997,-0.0135898 l 5.5587e-4,-0.0135898 0.002589,0.016308 c 0.002003,0.0126152 0.002331,0.0102188 0.001445,-0.0105822 -6.4386e-4,-0.0151277 0.001026,-0.0357354 0.00382,-0.0471115 0.002731,-0.0111219 0.005812,-0.0278326 0.006848,-0.0371347 0.001876,-0.0168475 0.008127,-0.0379104 0.0104552,-0.035231 6.7347e-4,7.7496e-4 -0.001001,0.0266858 -0.003721,0.0575801 -0.005908,0.0671007 -0.006752,0.091178 -0.003878,0.11053093 0.003533,0.0237881 0.0133341,0.0827404 0.015214,0.0915052 0.002377,0.0110889 -0.004794,0.0104218 -0.007529,-6.9979e-4 z m -0.01328,-0.0772153 c -0.003169,-0.0239694 -0.005135,-0.0298977 -0.009913,-0.0298977 -0.008869,0 -0.0118034,0.011141 -0.003517,0.0133528 0.004505,0.001202 0.00753,0.006259 0.009012,0.0150665 0.00732,0.0435051 0.0100976,0.0444346 0.004417,0.001478 z m 0.0616222,0.0428599 c -0.00201,-0.003834 -0.005447,-0.0156566 -0.007639,-0.0262739 -0.002192,-0.0106172 -0.006276,-0.0233811 -0.009077,-0.028364 -0.004556,-0.008108 -0.004341,-0.0105822 0.002047,-0.0235557 0.006368,-0.012929 0.007155,-0.0134968 0.00728,-0.005254 7.725e-5,0.005083 -0.001682,0.0111028 -0.003912,0.0133784 -0.003037,0.003101 -0.002593,0.007279 0.001775,0.0166742 0.003206,0.006895 0.005829,0.0158266 0.005829,0.0198469 0,0.0105706 0.003789,0.0190518 0.007473,0.0167278 0.001748,-0.001102 0.003178,0.003799 0.003178,0.0108926 0,0.014582 -0.00167,0.016006 -0.006955,0.005928 z m 0.047801,-0.021116 c -0.002341,-0.005897 -0.006184,-0.0356246 -0.006207,-0.0480176 -3.867e-5,-0.0218628 0.004706,-0.059731 0.007896,-0.0629872 0.003685,-0.00376 0.002521,0.0246917 -0.001932,0.0473191 -0.001053,0.005341 4.5307e-4,0.008423 0.004662,0.009545 0.005293,0.001413 0.005353,0.00172 4.0649e-4,0.002079 -0.004744,3.4176e-4 -0.005604,0.003911 -0.004693,0.0194462 6.1467e-4,0.0104643 0.00279,0.0235104 0.004835,0.0289917 0.003997,0.0107135 -7.6907e-4,0.0141924 -0.004965,0.003624 z m -0.0486547,-0.0190258 c -0.001148,-0.0109627 -0.001604,-0.0354243 -0.001014,-0.0543595 6.5401e-4,-0.0210403 -4.472e-5,-0.0309047 -0.001799,-0.0253679 -0.004983,0.0157187 -0.003806,6.35e-4 0.001973,-0.0253086 0.003055,-0.0137099 0.008056,-0.0270462 0.0111126,-0.029636 0.004892,-0.004145 0.005285,-0.003414 0.003279,0.006092 -0.004311,0.0204285 -0.009219,0.0861143 -0.007412,0.0991849 9.965e-4,0.007198 4.8987e-4,0.021241 -0.001121,0.0312068 l -0.002933,0.0181199 -0.002087,-0.0199318 z m 0.003059,-0.10237705 c -9.8418e-4,-0.002492 -0.00179,-4.5284e-4 -0.00179,0.00453 0,0.004983 8.0546e-4,0.007021 0.00179,0.00453 9.8418e-4,-0.002492 9.8418e-4,-0.006568 0,-0.00906 z m 0.0758648,0.11157068 c -0.002449,-0.003013 -0.003528,-0.007937 -0.0024,-0.010943 0.001129,-0.003006 4.1384e-4,-0.0145276 -0.001592,-0.0256032 -0.002616,-0.0144447 -0.002505,-0.0236696 3.9424e-4,-0.0326321 0.007693,-0.0237926 0.0124367,-0.008808 0.004996,0.0157825 -7.86e-4,0.002598 1.7851e-4,0.0162939 0.002145,0.0304381 0.003863,0.0278047 0.00331,0.0313871 -0.003543,0.0229576 z m -0.0388821,-0.006335 c -1.5434e-4,-0.003411 -0.003744,-0.009494 -0.007977,-0.01352 -0.007638,-0.007264 -0.007646,-0.007415 -0.001043,-0.0199298 0.003659,-0.006936 0.007252,-0.0119994 0.007984,-0.0112521 7.3227e-4,7.4645e-4 -5.1906e-4,0.004887 -0.00278,0.009199 -0.003267,0.006232 -0.002913,0.0104185 0.001729,0.0204054 0.003212,0.00691 0.005059,0.0145297 0.004103,0.0169311 -9.8171e-4,0.00247 -0.001858,0.001669 -0.002018,-0.001834 z m 0.0636258,-0.001048 c 0,-0.005152 -0.004545,-0.007187 -0.0124262,-0.005563 -0.001954,4.0158e-4 -0.00241,-4.3575e-4 -0.001011,-0.00186 0.001396,-0.001424 8.8149e-4,-0.005751 -0.001146,-0.009615 -0.002893,-0.005518 -0.002206,-0.008331 0.003198,-0.0131167 0.003785,-0.003351 0.008047,-0.0115075 0.009471,-0.0181261 0.001425,-0.006619 0.003338,-0.0112689 0.004254,-0.0103344 0.003712,0.003788 0.005003,0.0640507 0.001371,0.0640507 -0.002042,0 -0.003712,-0.002447 -0.003712,-0.005436 z m -0.002681,-0.0181195 c -0.001748,-0.009337 -0.00797,-0.0127316 -0.00797,-0.004349 0,0.003755 0.006548,0.0134086 0.009094,0.0134086 3.1342e-4,0 -1.9056e-4,-0.004077 -0.001124,-0.00906 z m 0.14380731,0.0175317 c 0.002441,-0.001005 0.006435,-0.001005 0.008876,0 0.002441,0.001005 4.4419e-4,0.001828 -0.004438,0.001828 -0.004881,0 -0.006879,-8.2317e-4 -0.004438,-0.001828 z m -0.48195851,-0.008471 c -0.0032,-0.00211 -0.003638,-0.003535 -0.001097,-0.003568 0.002327,-2.671e-5 0.005216,0.001575 0.006423,0.003568 0.002724,0.004499 0.001494,0.004499 -0.005326,0 z m 0.30279939,-0.006342 c -0.003634,-0.0112325 -0.002194,-0.0226497 0.002857,-0.0226497 0.001846,0 0.0024,0.003899 0.001227,0.008665 -0.001171,0.004766 -4.016e-4,0.009754 0.001707,0.0110858 0.00464,0.002927 0.00513,0.0128655 6.3412e-4,0.0128655 -0.001761,0 -0.004654,-0.004484 -0.006428,-0.009966 z m -0.0109795,-0.006342 c 7.321e-5,-0.005979 8.6916e-4,-0.007987 0.001768,-0.004461 9.012e-4,0.003526 8.4206e-4,0.008418 -1.3012e-4,0.0108718 -9.7186e-4,0.002452 -0.001709,-4.3006e-4 -0.001636,-0.006411 z m -0.15601944,0.002834 c -0.007482,-0.00274 -0.00529,-0.0155167 0.002663,-0.0155167 0.004662,0 0.0071,0.002415 0.0071,0.007034 0,0.00799 -0.003294,0.0108517 -0.009763,0.008483 z m 0.0547344,1.8661e-4 c -0.005297,-0.005407 -0.002194,-0.0157038 0.004734,-0.0157038 0.005207,0 0.0071,0.002415 0.0071,0.00906 0,0.008527 -0.006445,0.0121453 -0.0118343,0.006644 z m 0.0153849,-0.00643 c 0,-0.005101 0.001599,-0.009274 0.00355,-0.009274 0.001951,0 0.00355,0.003166 0.00355,0.007034 0,0.003868 -0.001599,0.008042 -0.00355,0.009274 -0.002013,0.00127 -0.00355,-0.001774 -0.00355,-0.007034 z m 0.0450727,0.001805 c 0.001051,-0.0041 0.003438,-0.007455 0.005306,-0.007455 0.004713,0 0.00205,0.011761 -0.003058,0.0134966 -0.002645,8.9999e-4 -0.003464,-0.001299 -0.002248,-0.006041 z m -0.34330116,-0.001597 c 0,-0.005841 0.0132514,-0.0103596 0.0161825,-0.005518 0.003095,0.00511 -0.001687,0.0105318 -0.009291,0.0105318 -0.00379,0 -0.006891,-0.002256 -0.006891,-0.005014 z m 0.087797,0.002823 c -0.001423,-0.001453 -0.002589,-0.005143 -0.002589,-0.008199 0,-0.004079 0.001051,-0.004485 0.00395,-0.001524 0.002172,0.002216 0.003337,0.005907 0.002589,0.008199 -7.4919e-4,0.002293 -0.002526,0.002979 -0.003949,0.001524 z m 0.0632083,-0.001245 c -0.003122,-0.005156 8.5931e-4,-0.0110632 0.007454,-0.0110632 0.00311,0 0.004892,0.002546 0.004228,0.006041 -0.001383,0.007278 -0.008472,0.0103253 -0.0116832,0.005022 z m 0.30349229,-0.0101544 c 2.762e-5,-0.001495 0.001604,-0.005164 0.003496,-0.008154 0.002782,-0.004395 0.003451,-0.003875 0.003496,0.002717 2.765e-5,0.004484 -0.001543,0.008154 -0.003496,0.008154 -0.001954,0 -0.003526,-0.001222 -0.003496,-0.002717 z M 0.32809531,0.45335113 c 1.7045e-4,-0.004222 0.001011,-0.00508 0.002145,-0.00219 0.001026,0.002615 8.9875e-4,0.005742 -2.816e-4,0.006946 -0.001181,0.001205 -0.002018,-9.3732e-4 -0.001863,-0.004757 z m 0.0168056,0.003262 c 0.002562,-0.001048 0.005625,-9.1687e-4 0.006805,2.8452e-4 0.001181,0.001205 -9.1599e-4,0.002062 -0.00466,0.001902 -0.004136,-1.7339e-4 -0.004978,-0.001033 -0.002145,-0.00219 z" id="path20138" inkscape:connector-curvature="0" />
    </pattern>
  </defs>
  <sodipodi:namedview pagecolor="#ffffff" bordercolor="#666666" borderopacity="1" objecttolerance="10" gridtolerance="10" guidetolerance="10" inkscape:pageopacity="0" inkscape:pageshadow="2" inkscape:window-width="1600" inkscape:window-height="838" id="namedview4" showgrid="false" inkscape:zoom="181.01934" inkscape:cx="0.19570498" inkscape:cy="0.016937778" inkscape:window-x="-8" inkscape:window-y="-8" inkscape:window-maximized="1" inkscape:current-layer="svg2" />
  <path style="fill:#000000" d="m 0.51910006,0.67785692 c -0.0123574,-0.0145205 -0.0577026,-0.12859778 -0.070393,-0.17709248 -0.003651,-0.0139524 -0.007753,-0.0282216 -0.009115,-0.0317098 -0.001898,-0.004858 -6.9039e-4,-0.006342 0.00516,-0.006342 0.0042,0 0.00731,-0.002039 0.006911,-0.00453 -3.9913e-4,-0.002492 0.001129,-0.009121 0.003395,-0.0147319 0.002265,-0.005611 0.004119,-0.0126046 0.004119,-0.0155413 0,-0.0138943 0.0349786,-0.15860911 0.0428301,-0.1771989 0.004295,-0.0101691 0.004681,-0.0103452 0.00598,-0.002724 7.6399e-4,0.004481 -0.001082,0.0240507 -0.004102,0.0434876 -0.009694,0.0624066 -0.021094,0.15087069 -0.0213661,0.16580248 -1.4628e-4,0.007973 -0.001633,0.0166612 -0.003307,0.0193076 -0.002948,0.00466 0.0189857,0.0957481 0.0391072,0.16241113 0.0049,0.0162317 0.008375,0.0331382 0.007724,0.0375697 -0.001148,0.007807 -0.001364,0.007847 -0.006943,0.001291 z m -0.0294808,-0.0904337 c -0.002799,-0.007799 -0.005202,-0.0123843 -0.00534,-0.0101906 -3.4526e-4,0.005545 0.007362,0.0275009 0.00905,0.0257773 7.5892e-4,-7.7238e-4 -9.1106e-4,-0.007788 -0.003711,-0.0155868 z m -0.0164767,-0.0610461 c -0.006004,-0.0234349 -0.009838,-0.045308 -0.008521,-0.0486067 0.001318,-0.003299 0.003018,-0.0181759 0.003779,-0.0330606 7.6146e-4,-0.0148845 0.006187,-0.0472175 0.0120566,-0.071851 0.00587,-0.0246335 0.010558,-0.0475169 0.0104178,-0.0508523 -4.26e-4,-0.0101724 -0.0279519,0.10907559 -0.0280532,0.12153932 -5.693e-5,0.00694 -0.003012,0.0144105 -0.007321,0.0185086 -0.006703,0.006375 -0.006839,0.007632 -0.001885,0.0173551 0.002938,0.005766 0.0104043,0.0288762 0.0165922,0.0513565 0.006188,0.0224805 0.0118356,0.0402765 0.0125505,0.0395468 7.1493e-4,-7.309e-4 -0.003612,-0.0205009 -0.009616,-0.0439359 z M 0.43022331,0.6520651 c -0.007528,-0.0200478 -0.0283768,-0.0932743 -0.0457978,-0.16084909 -0.002145,-0.008318 -0.006005,-0.0138692 -0.0104765,-0.0150625 -0.009133,-0.002438 -0.009312,-0.0134405 -2.201e-4,-0.0134405 0.008323,0 0.008948,-0.001914 0.0177467,-0.0543595 0.006374,-0.0379962 0.0284185,-0.12056563 0.0336,-0.12585457 0.005971,-0.006095 0.005759,0.006319 -8.2973e-4,0.0486034 -0.003981,0.0255461 -0.00816,0.0634349 -0.009287,0.0841973 -0.001126,0.0207626 -0.003607,0.0396665 -0.005512,0.0420091 -0.004467,0.005493 -8.667e-4,0.00915 0.006262,0.006359 0.004541,-0.00178 0.005144,-1.4668e-4 0.003342,0.009055 -0.00142,0.007252 -6.7812e-4,0.0118555 0.002099,0.0130062 0.003065,0.00127 0.003116,0.001862 1.7445e-4,0.002067 -0.003042,2.0893e-4 -0.002812,0.006021 8.7409e-4,0.0221561 0.00275,0.0120284 0.007353,0.0434211 0.0102297,0.0697613 0.002877,0.0263403 0.006877,0.0566755 0.008888,0.0674118 0.007138,0.0381041 0.002184,0.0403103 -0.0110955,0.00494 z m -0.007079,-0.0572812 c -0.009699,-0.035659 -0.0238836,-0.1158575 -0.0206883,-0.11697109 0.004808,-0.001675 0.004362,-0.014191 -5.6307e-4,-0.0158671 -0.002998,-0.00102 -0.002945,-0.0101513 2.0802e-4,-0.0356357 0.007206,-0.0582898 0.007321,-0.0602555 0.002202,-0.0378883 -0.002737,0.0119592 -0.006058,0.0323439 -0.00738,0.0452995 -0.00181,0.0177445 -0.004281,0.0251326 -0.0100143,0.0299473 l -0.007611,0.006391 0.007837,0.006749 c 0.00431,0.003712 0.006879,0.007727 0.005707,0.008923 -0.001171,0.001197 -3.6976e-4,0.004339 0.00178,0.006984 0.00215,0.002646 0.007793,0.0234776 0.0125373,0.0462932 0.0103492,0.0497675 0.0164726,0.0735396 0.0184289,0.0715427 7.9319e-4,-8.1383e-4 -3.0363e-4,-0.007907 -0.002442,-0.0157677 z m -0.007345,-0.25528578 c -6.1e-5,-0.008138 -3.4282e-4,-0.007953 -0.002777,0.001812 -0.001491,0.005979 -0.00274,0.0141334 -0.002777,0.0181199 -4.877e-5,0.00568 5.4868e-4,0.005287 0.002777,-0.001812 0.001563,-0.004983 0.002813,-0.0131369 0.002777,-0.0181199 z m 0.003234,-0.0243928 c -9.0121e-4,-0.003526 -0.001696,-0.001519 -0.001768,0.004461 -7.319e-5,0.005979 6.6374e-4,0.008865 0.001636,0.006411 9.7185e-4,-0.002453 0.001031,-0.007346 1.3014e-4,-0.0108719 z M 0.31006314,0.6660479 C 0.28002774,0.6558402 0.23509924,0.6369686 0.22140494,0.6288083 0.21462594,0.6247703 0.18506894,0.6152753 0.15572364,0.6077123 0.07067994,0.5857947 0.04378771,0.57227 0.04378771,0.5514185 c 0,-0.0148247 0.0293763,-0.0535838 0.0798204,-0.10531585 0.0420875,-0.0431619 0.0568891,-0.0556501 0.0959214,-0.0809283 0.025385,-0.0164401 0.0563521,-0.0371198 0.068816,-0.0459553 0.025989,-0.0184235 0.0386658,-0.0229507 0.0435276,-0.0155453 0.004039,0.006153 0.002216,0.0551015 -0.004295,0.11528628 -0.003812,0.035231 -0.003929,0.0453553 -5.4106e-4,0.0465076 0.005432,0.001849 0.00573,0.0117411 3.5506e-4,0.0117411 -0.009686,0 0.005966,0.10552955 0.0237719,0.16027584 0.008228,0.0252969 0.006066,0.0334274 -0.009146,0.034403 -0.006834,4.4145e-4 -0.0212133,-0.002193 -0.0319531,-0.00584 z M 0.33351944,0.648441 c -0.001031,-0.003489 -0.006669,-0.0263045 -0.012529,-0.0507036 -0.0217699,-0.0906418 -0.0226391,-0.13361662 -0.004418,-0.21837592 0.014392,-0.0669478 0.015226,-0.0724793 0.0109285,-0.0724793 -0.003633,0 -0.0743794,0.0492349 -0.12868798,0.0895586 -0.0503536,0.0373873 -0.13893905,0.13777733 -0.1365518,0.1547481 0.001151,0.008187 0.0162394,0.0170537 0.0322609,0.0189577 0.005599,6.687e-4 0.0116529,0.002141 0.0134516,0.003276 0.001797,0.001135 0.00327,-5.3392e-4 0.00327,-0.003716 0,-0.004583 0.001417,-0.005002 0.006843,-0.002037 0.003765,0.002058 0.009194,0.002815 0.012067,0.00169 0.002872,-0.001125 0.006294,-2.7563e-4 0.007603,0.001887 0.001307,0.002162 0.003867,0.002991 0.005685,0.001845 0.001815,-0.001145 0.003304,-5.4947e-4 0.003304,0.001327 0,0.00408 -0.0175753,0.003577 -0.0242009,-6.998e-4 -0.005725,-0.003691 -0.0103305,1.6448e-4 -0.00574,0.004806 0.001823,0.00184 0.0176925,0.006549 0.0352666,0.0104576 0.0362679,0.008066 0.0560007,0.0148693 0.10651015,0.0367217 0.0362616,0.0156879 0.0687106,0.0283376 0.0739087,0.0288119 0.001596,1.467e-4 0.00206,-0.002586 0.001029,-0.006077 z M 0.14984502,0.56871384 c -0.004389,-0.005713 -0.004271,-0.005861 0.001185,-0.001503 0.006328,0.00506 0.0150849,0.002571 0.0115424,-0.003281 -0.0033,-0.005449 0.002606,-0.003872 0.009561,0.002555 0.005794,0.005353 0.006627,0.005375 0.008562,2.2673e-4 0.001176,-0.003136 0.004163,-0.004909 0.00663,-0.003945 0.002995,0.001172 0.004592,-0.002037 0.004804,-0.009661 5.2033e-4,-0.0186089 0.004323,-0.0170302 0.004323,0.001794 0,0.0146714 -9.0121e-4,0.016947 -0.005929,0.0149772 -0.003261,-0.00128 -0.007133,-3.332e-4 -0.008605,0.002094 -0.002077,0.003431 -0.003964,0.003328 -0.008423,-4.4713e-4 -0.004352,-0.003685 -0.006744,-0.003851 -0.009857,-6.7388e-4 -0.005572,0.005686 -0.008075,0.005297 -0.0137938,-0.002146 z m -0.0442517,-0.0385163 c -0.002872,-0.007643 0.001159,-0.0131252 0.009658,-0.0131252 0.005364,0 0.006856,0.002019 0.006004,0.008117 -0.001324,0.009473 -0.0126241,0.0130868 -0.0156611,0.005008 z m 0.0432451,-0.0206513 c -0.0113956,-0.0138235 -0.0120294,-0.0313016 -0.001624,-0.0448033 0.0104769,-0.0135957 0.0220853,-0.0174377 0.0388035,-0.0128427 0.0175901,0.004835 0.0246362,0.0153382 0.0246362,0.0367236 0,0.0223279 -0.0108364,0.0320723 -0.0356668,0.0320723 -0.0145769,0 -0.0182475,-0.001566 -0.0261485,-0.0111498 z m 0.003236,-0.0214658 c 0.001206,-0.001994 5.0341e-4,-0.003624 -0.001565,-0.003624 -0.002069,0 -0.003761,0.001632 -0.003761,0.003624 0,0.001994 7.0647e-4,0.003624 0.001565,0.003624 8.5849e-4,0 0.002555,-0.001629 0.003761,-0.003624 z m 0.0366381,-0.007784 c -0.001604,-0.0109897 -0.0114359,-0.0166474 -0.018514,-0.0106514 -0.007875,0.006671 -0.001079,0.0184352 0.0106507,0.0184352 0.007189,0 0.00877,-0.001564 0.007864,-0.007784 z m 0.37946793,0.11922079 c -0.004775,-0.0104643 -0.0172743,-0.0422288 -0.0277763,-0.0705878 -0.010502,-0.0283589 -0.0210915,-0.0515977 -0.0235324,-0.0516415 -0.006584,-1.2002e-4 -0.005466,-0.0145754 0.001126,-0.0145754 0.004058,0 0.004917,-0.002085 0.003169,-0.007702 -0.00136,-0.004367 -9.8419e-4,-0.006813 8.6177e-4,-0.005647 0.00179,0.001131 0.005952,-0.009674 0.009247,-0.0240079 0.003294,-0.0143343 0.00785,-0.0325853 0.0101215,-0.0405581 0.003931,-0.0137934 0.004265,-0.0140568 0.006875,-0.005436 0.00158,0.00521 0.001866,7.4333e-4 6.7601e-4,-0.0105133 -0.001403,-0.0132722 -8.6424e-4,-0.0188133 0.001673,-0.0172131 0.002478,0.001564 0.003237,-0.002839 0.002248,-0.0130427 -0.001163,-0.0119853 -7.0774e-4,-0.0137946 0.002045,-0.008155 0.002664,0.00546 0.003137,0.002778 0.001917,-0.0108719 -0.001276,-0.0142626 -8.9381e-4,-0.0161912 0.001795,-0.00906 0.002764,0.007331 0.003116,0.005904 0.001848,-0.007476 -0.001785,-0.0188339 7.8854e-4,-0.0323869 0.006146,-0.0323869 0.002385,0 0.002821,0.009104 0.001254,0.0262738 -0.001318,0.0144505 -0.004645,0.0533026 -0.007391,0.086338 -0.002746,0.0330353 -0.006067,0.064428 -0.007378,0.0697614 -0.001511,0.006144 -9.4311e-4,0.009697 0.00155,0.009697 0.005246,0 0.00507,0.0135055 -1.9861e-4,0.0152983 -0.002887,9.8262e-4 2.3216e-4,0.0193835 0.010333,0.0610035 0.0192487,0.0792957 0.0192937,0.0795287 0.0154314,0.0795287 -0.001846,0 -0.007264,-0.008561 -0.0120387,-0.0190257 z m -0.003616,-0.0287653 c -0.001134,-0.002893 -0.001973,-0.002032 -0.002145,0.002193 -1.5435e-4,0.00382 6.8574e-4,0.005961 0.001863,0.004759 0.001181,-0.001203 0.001305,-0.004329 2.816e-4,-0.006946 z m -0.014582,-0.0558068 c -0.005758,-0.0239672 -0.008238,-0.0432755 -0.007448,-0.0580084 6.5148e-4,-0.0121461 -2.4024e-4,-0.0243767 -0.001978,-0.0271798 -0.002115,-0.00341 -0.003178,4.557e-4 -0.003215,0.0116739 -3.869e-5,0.0104284 -0.002069,0.0184762 -0.00538,0.0212814 -0.006552,0.00555 -0.006869,0.0131671 -7.0774e-4,0.0170339 0.002538,0.001595 0.006425,0.009421 0.008635,0.0173939 0.0135714,0.0489509 0.0159515,0.0565624 0.0172672,0.0552195 8.0334e-4,-8.1901e-4 -0.002424,-0.0176557 -0.007172,-0.0374144 z m -0.006722,-0.10002385 c -0.001134,-0.002891 -0.001973,-0.002034 -0.002145,0.00219 -1.5434e-4,0.00382 6.8574e-4,0.005961 0.001863,0.004757 0.001181,-0.001205 0.001305,-0.004329 2.816e-4,-0.006946 z m 0.00355,-0.0181199 c -0.001134,-0.002891 -0.001973,-0.002034 -0.002145,0.00219 -1.5434e-4,0.00382 6.8573e-4,0.005961 0.001863,0.004757 0.001181,-0.001205 0.001305,-0.00433 2.816e-4,-0.006946 z m 0.37085319,0.18145536 c -0.0317136,-0.0343959 -0.056573,-0.0670313 -0.0594131,-0.0779972 -0.001696,-0.006547 -0.004448,-0.007676 -0.017698,-0.00726 -0.0131432,4.1297e-4 -0.0157034,0.001672 -0.0157694,0.007753 -7.323e-5,0.00667 -6.4725e-4,0.006525 -0.007074,-0.0018 -0.005808,-0.007522 -0.007566,-0.008161 -0.0103553,-0.003768 -0.0029,0.004568 -0.004278,0.004443 -0.0100776,-9.1421e-4 -0.003694,-0.003413 -0.007786,-0.005116 -0.009093,-0.003782 -0.001305,0.001333 -0.002375,-0.002566 -0.002375,-0.008664 0,-0.0110715 0.004929,-0.0158252 0.0133138,-0.0128396 0.002442,8.6877e-4 0.004438,0.005521 0.004438,0.0103381 0,0.004816 0.001768,0.008758 0.00393,0.008758 0.002189,0 0.002938,-0.00264 0.00169,-0.00596 -0.001261,-0.003351 3.6973e-4,-0.008903 0.003722,-0.0126837 0.007276,-0.008207 0.0119617,-0.008628 0.0119617,-0.001073 0,0.003107 -0.001578,0.004654 -0.003511,0.003436 -0.002086,-0.001316 -0.002559,3.1044e-4 -0.001171,0.004004 0.001586,0.004219 0.001002,0.005376 -0.001815,0.003598 -0.004877,-0.003077 -0.005355,0.001131 -9.39e-4,0.008252 0.002403,0.003871 0.003718,0.003048 0.005797,-0.003624 0.00258,-0.008285 0.002813,-0.008341 0.005768,-0.001384 0.002462,0.005792 0.002708,0.00529 0.001236,-0.002495 -0.002602,-0.013745 0.003837,-0.01602 0.008304,-0.002935 0.004078,0.0119416 0.009482,0.0152817 0.005856,0.00362 -0.00124,-0.003986 -6.4301e-4,-0.007248 0.001328,-0.007248 0.001972,0 0.0111913,-0.0101923 0.0204913,-0.0226497 0.0217646,-0.0291533 0.0756268,-0.0893356 0.0840935,-0.0939608 0.0101147,-0.005525 0.0106186,-0.001307 0.001214,0.0101544 -0.007991,0.009734 -0.030796,0.0526088 -0.030796,0.0578934 0,0.00131 0.006325,-0.004759 0.0140557,-0.0134866 0.0202853,-0.0229006 0.0175643,-0.0123763 -0.003909,0.0151171 -0.0100403,0.0128558 -0.0200255,0.0256797 -0.0221898,0.0284976 -0.008941,0.0116431 0.0112434,-0.003342 0.0241632,-0.0179393 0.007306,-0.008255 0.0141183,-0.0141559 0.0151386,-0.0131145 0.00102,0.001042 -0.007859,0.0120905 -0.0197328,0.0245533 -0.0118737,0.0124628 -0.0210772,0.0231811 -0.0204528,0.0238185 6.2609e-4,6.3811e-4 0.008784,-0.002992 0.0181333,-0.008066 0.0219156,-0.0118943 0.0241471,-0.009665 0.003596,0.003594 -0.0153384,0.009896 -0.0206782,0.0154413 -0.0114672,0.011908 0.002441,-9.3731e-4 0.008432,-0.002825 0.0133137,-0.0042 0.008525,-0.002398 0.008604,-0.002275 0.001984,0.003126 -0.003791,0.003093 -0.0117786,0.005649 -0.0177517,0.005679 -0.005973,2.672e-5 -0.0132565,0.001637 -0.0161853,0.003568 -0.004226,0.002788 -0.00349,0.003536 0.003549,0.003624 0.006484,8e-5 0.00755,9.684e-4 0.003956,0.003292 -0.003629,0.002344 -5.9648e-4,0.005133 0.0115387,0.0106127 0.009052,0.004088 0.0164594,0.009247 0.0164594,0.0114648 0,0.002481 -0.003041,0.00186 -0.007891,-0.001609 -0.0151556,-0.0108354 -0.0142553,-0.005502 0.002077,0.0123232 0.009054,0.00988 0.0164624,0.0189461 0.0164624,0.0201456 0,0.003489 -0.008455,-0.002643 -0.0135151,-0.009803 -0.002551,-0.003611 -0.006253,-0.006564 -0.008226,-0.006564 -0.001972,0 0.002246,0.007268 0.00938,0.016153 0.007132,0.008884 0.0120353,0.0176926 0.0108957,0.0195744 -0.001138,0.001882 0.001899,0.010513 0.006755,0.0191806 0.0107827,0.0192527 0.0109126,0.021195 0.001417,0.021195 -0.004784,0 -0.0173067,-0.010641 -0.0346159,-0.0294143 z m -0.007354,-0.0290998 c -0.0140003,-0.0188497 -0.0181375,-0.0275972 -0.0108901,-0.0230253 0.005779,0.003645 0.004048,-5.1265e-4 -0.002458,-0.005898 -0.005116,-0.004236 -0.005561,-0.004218 -0.002999,1.1557e-4 0.002039,0.003455 0.001688,0.004259 -0.001096,0.002504 -0.002255,-0.001422 -0.004099,-0.004651 -0.004099,-0.007176 0,-0.002523 -0.003989,-0.008414 -0.008862,-0.0130882 -0.0119177,-0.0114286 -0.008515,-0.0135476 0.005995,-0.003733 l 0.011743,0.007943 -0.0102759,-0.009007 c -0.006874,-0.006025 -0.009522,-0.0110109 -0.007998,-0.0150636 0.001265,-0.003367 -4.882e-5,-0.008435 -0.002966,-0.0114101 -0.004624,-0.00472 -0.002948,-0.008195 0.0142114,-0.0294276 0.0107002,-0.0132414 0.0194553,-0.025715 0.0194553,-0.0277189 0,-0.004395 6.3455e-4,-0.005064 -0.0316843,0.0335105 l -0.0253583,0.0302684 0.006332,0.0101527 c 0.0106761,0.0171188 0.0624531,0.0834229 0.0639511,0.0818937 7.7837e-4,-7.931e-4 -0.005075,-0.0101688 -0.0130007,-0.0208394 z M 0.79854808,0.47450903 c -0.003818,-0.003898 -0.005845,0.001561 -0.003165,0.008523 0.002515,0.006531 0.002704,0.006542 0.003947,2.3561e-4 7.1746e-4,-0.003644 3.673e-4,-0.007586 -7.8346e-4,-0.008758 z m 0.091995,-0.0173446 c 0.0138882,-0.01162 0.010149,-0.0115411 -0.005326,1.1112e-4 -0.006617,0.004983 -0.0105217,0.009001 -0.008678,0.00893 0.001844,-7.112e-5 0.008145,-0.00414 0.0140036,-0.009042 z M 0.62400105,0.56982581 c -0.001198,-0.004868 -9.8172e-4,-0.0108297 4.8015e-4,-0.0132437 0.001692,-0.002794 0.001168,-0.003447 -0.00144,-0.001804 -0.002591,0.001633 -0.004099,-1.6002e-4 -0.004099,-0.004878 0,-0.004104 -0.0013,-0.007462 -0.002888,-0.007462 -0.00159,0 -0.00657,-0.0130062 -0.0110703,-0.0289031 -0.0045,-0.0158966 -0.0103898,-0.0307734 -0.0130883,-0.0330594 -0.005855,-0.004959 -0.006558,-0.0177647 -9.7761e-4,-0.0177647 0.002162,0 0.00301,-0.002447 0.001885,-0.005436 -0.001124,-0.00299 -4.9706e-4,-0.005436 0.001396,-0.005436 0.00189,0 0.00369,-0.006115 0.003997,-0.0135898 l 5.5587e-4,-0.0135898 0.002589,0.016308 c 0.002003,0.0126152 0.002331,0.0102188 0.001445,-0.0105822 -6.4386e-4,-0.0151277 0.001026,-0.0357354 0.00382,-0.0471115 0.002731,-0.0111219 0.005812,-0.0278326 0.006848,-0.0371347 0.001876,-0.0168475 0.008127,-0.0379104 0.0104552,-0.035231 6.7347e-4,7.7496e-4 -0.001001,0.0266858 -0.003721,0.0575801 -0.005908,0.0671007 -0.006752,0.091178 -0.003878,0.11053093 0.003533,0.0237881 0.0133341,0.0827404 0.015214,0.0915052 0.002377,0.0110889 -0.004794,0.0104218 -0.007529,-6.9979e-4 z m -0.01328,-0.0772153 c -0.003169,-0.0239694 -0.005135,-0.0298977 -0.009913,-0.0298977 -0.008869,0 -0.0118034,0.011141 -0.003517,0.0133528 0.004505,0.001202 0.00753,0.006259 0.009012,0.0150665 0.00732,0.0435051 0.0100976,0.0444346 0.004417,0.001478 z m 0.0616222,0.0428599 c -0.00201,-0.003834 -0.005447,-0.0156566 -0.007639,-0.0262739 -0.002192,-0.0106172 -0.006276,-0.0233811 -0.009077,-0.028364 -0.004556,-0.008108 -0.004341,-0.0105822 0.002047,-0.0235557 0.006368,-0.012929 0.007155,-0.0134968 0.00728,-0.005254 7.725e-5,0.005083 -0.001682,0.0111028 -0.003912,0.0133784 -0.003037,0.003101 -0.002593,0.007279 0.001775,0.0166742 0.003206,0.006895 0.005829,0.0158266 0.005829,0.0198469 0,0.0105706 0.003789,0.0190518 0.007473,0.0167278 0.001748,-0.001102 0.003178,0.003799 0.003178,0.0108926 0,0.014582 -0.00167,0.016006 -0.006955,0.005928 z m 0.047801,-0.021116 c -0.002341,-0.005897 -0.006184,-0.0356246 -0.006207,-0.0480176 -3.867e-5,-0.0218628 0.004706,-0.059731 0.007896,-0.0629872 0.003685,-0.00376 0.002521,0.0246917 -0.001932,0.0473191 -0.001053,0.005341 4.5307e-4,0.008423 0.004662,0.009545 0.005293,0.001413 0.005353,0.00172 4.0649e-4,0.002079 -0.004744,3.4176e-4 -0.005604,0.003911 -0.004693,0.0194462 6.1467e-4,0.0104643 0.00279,0.0235104 0.004835,0.0289917 0.003997,0.0107135 -7.6907e-4,0.0141924 -0.004965,0.003624 z m -0.0486547,-0.0190258 c -0.001148,-0.0109627 -0.001604,-0.0354243 -0.001014,-0.0543595 6.5401e-4,-0.0210403 -4.472e-5,-0.0309047 -0.001799,-0.0253679 -0.004983,0.0157187 -0.003806,6.35e-4 0.001973,-0.0253086 0.003055,-0.0137099 0.008056,-0.0270462 0.0111126,-0.029636 0.004892,-0.004145 0.005285,-0.003414 0.003279,0.006092 -0.004311,0.0204285 -0.009219,0.0861143 -0.007412,0.0991849 9.965e-4,0.007198 4.8987e-4,0.021241 -0.001121,0.0312068 l -0.002933,0.0181199 -0.002087,-0.0199318 z m 0.003059,-0.10237705 c -9.8418e-4,-0.002492 -0.00179,-4.5284e-4 -0.00179,0.00453 0,0.004983 8.0546e-4,0.007021 0.00179,0.00453 9.8418e-4,-0.002492 9.8418e-4,-0.006568 0,-0.00906 z m 0.0758648,0.11157068 c -0.002449,-0.003013 -0.003528,-0.007937 -0.0024,-0.010943 0.001129,-0.003006 4.1384e-4,-0.0145276 -0.001592,-0.0256032 -0.002616,-0.0144447 -0.002505,-0.0236696 3.9424e-4,-0.0326321 0.007693,-0.0237926 0.0124367,-0.008808 0.004996,0.0157825 -7.86e-4,0.002598 1.7851e-4,0.0162939 0.002145,0.0304381 0.003863,0.0278047 0.00331,0.0313871 -0.003543,0.0229576 z m -0.0388821,-0.006335 c -1.5434e-4,-0.003411 -0.003744,-0.009494 -0.007977,-0.01352 -0.007638,-0.007264 -0.007646,-0.007415 -0.001043,-0.0199298 0.003659,-0.006936 0.007252,-0.0119994 0.007984,-0.0112521 7.3227e-4,7.4645e-4 -5.1906e-4,0.004887 -0.00278,0.009199 -0.003267,0.006232 -0.002913,0.0104185 0.001729,0.0204054 0.003212,0.00691 0.005059,0.0145297 0.004103,0.0169311 -9.8171e-4,0.00247 -0.001858,0.001669 -0.002018,-0.001834 z m 0.0636258,-0.001048 c 0,-0.005152 -0.004545,-0.007187 -0.0124262,-0.005563 -0.001954,4.0158e-4 -0.00241,-4.3575e-4 -0.001011,-0.00186 0.001396,-0.001424 8.8149e-4,-0.005751 -0.001146,-0.009615 -0.002893,-0.005518 -0.002206,-0.008331 0.003198,-0.0131167 0.003785,-0.003351 0.008047,-0.0115075 0.009471,-0.0181261 0.001425,-0.006619 0.003338,-0.0112689 0.004254,-0.0103344 0.003712,0.003788 0.005003,0.0640507 0.001371,0.0640507 -0.002042,0 -0.003712,-0.002447 -0.003712,-0.005436 z m -0.002681,-0.0181195 c -0.001748,-0.009337 -0.00797,-0.0127316 -0.00797,-0.004349 0,0.003755 0.006548,0.0134086 0.009094,0.0134086 3.1342e-4,0 -1.9056e-4,-0.004077 -0.001124,-0.00906 z m 0.14380731,0.0175317 c 0.002441,-0.001005 0.006435,-0.001005 0.008876,0 0.002441,0.001005 4.4419e-4,0.001828 -0.004438,0.001828 -0.004881,0 -0.006879,-8.2317e-4 -0.004438,-0.001828 z m -0.48195851,-0.008471 c -0.0032,-0.00211 -0.003638,-0.003535 -0.001097,-0.003568 0.002327,-2.671e-5 0.005216,0.001575 0.006423,0.003568 0.002724,0.004499 0.001494,0.004499 -0.005326,0 z m 0.30279939,-0.006342 c -0.003634,-0.0112325 -0.002194,-0.0226497 0.002857,-0.0226497 0.001846,0 0.0024,0.003899 0.001227,0.008665 -0.001171,0.004766 -4.016e-4,0.009754 0.001707,0.0110858 0.00464,0.002927 0.00513,0.0128655 6.3412e-4,0.0128655 -0.001761,0 -0.004654,-0.004484 -0.006428,-0.009966 z m -0.0109795,-0.006342 c 7.321e-5,-0.005979 8.6916e-4,-0.007987 0.001768,-0.004461 9.012e-4,0.003526 8.4206e-4,0.008418 -1.3012e-4,0.0108718 -9.7186e-4,0.002452 -0.001709,-4.3006e-4 -0.001636,-0.006411 z m -0.15601944,0.002834 c -0.007482,-0.00274 -0.00529,-0.0155167 0.002663,-0.0155167 0.004662,0 0.0071,0.002415 0.0071,0.007034 0,0.00799 -0.003294,0.0108517 -0.009763,0.008483 z m 0.0547344,1.8661e-4 c -0.005297,-0.005407 -0.002194,-0.0157038 0.004734,-0.0157038 0.005207,0 0.0071,0.002415 0.0071,0.00906 0,0.008527 -0.006445,0.0121453 -0.0118343,0.006644 z m 0.0153849,-0.00643 c 0,-0.005101 0.001599,-0.009274 0.00355,-0.009274 0.001951,0 0.00355,0.003166 0.00355,0.007034 0,0.003868 -0.001599,0.008042 -0.00355,0.009274 -0.002013,0.00127 -0.00355,-0.001774 -0.00355,-0.007034 z m 0.0450727,0.001805 c 0.001051,-0.0041 0.003438,-0.007455 0.005306,-0.007455 0.004713,0 0.00205,0.011761 -0.003058,0.0134966 -0.002645,8.9999e-4 -0.003464,-0.001299 -0.002248,-0.006041 z m -0.34330116,-0.001597 c 0,-0.005841 0.0132514,-0.0103596 0.0161825,-0.005518 0.003095,0.00511 -0.001687,0.0105318 -0.009291,0.0105318 -0.00379,0 -0.006891,-0.002256 -0.006891,-0.005014 z m 0.087797,0.002823 c -0.001423,-0.001453 -0.002589,-0.005143 -0.002589,-0.008199 0,-0.004079 0.001051,-0.004485 0.00395,-0.001524 0.002172,0.002216 0.003337,0.005907 0.002589,0.008199 -7.4919e-4,0.002293 -0.002526,0.002979 -0.003949,0.001524 z m 0.0632083,-0.001245 c -0.003122,-0.005156 8.5931e-4,-0.0110632 0.007454,-0.0110632 0.00311,0 0.004892,0.002546 0.004228,0.006041 -0.001383,0.007278 -0.008472,0.0103253 -0.0116832,0.005022 z m 0.30349229,-0.0101544 c 2.762e-5,-0.001495 0.001604,-0.005164 0.003496,-0.008154 0.002782,-0.004395 0.003451,-0.003875 0.003496,0.002717 2.765e-5,0.004484 -0.001543,0.008154 -0.003496,0.008154 -0.001954,0 -0.003526,-0.001222 -0.003496,-0.002717 z M 0.32809531,0.45335113 c 1.7045e-4,-0.004222 0.001011,-0.00508 0.002145,-0.00219 0.001026,0.002615 8.9875e-4,0.005742 -2.816e-4,0.006946 -0.001181,0.001205 -0.002018,-9.3732e-4 -0.001863,-0.004757 z m 0.0168056,0.003262 c 0.002562,-0.001048 0.005625,-9.1687e-4 0.006805,2.8452e-4 0.001181,0.001205 -9.1599e-4,0.002062 -0.00466,0.001902 -0.004136,-1.7339e-4 -0.004978,-0.001033 -0.002145,-0.00219 z" id="path20138" inkscape:connector-curvature="0" />
</svg>