<?xml version="1.0" encoding="utf-8" standalone="no"?>
<svg xmlns:dc="http://purl.org/dc/elements/1.1/" xmlns:cc="http://creativecommons.org/ns#" xmlns:rdf="http://www.w3.org/1999/02/22-rdf-syntax-ns#" xmlns:svg="http://www.w3.org/2000/svg" xmlns="http://www.w3.org/2000/svg" xmlns:sodipodi="http://sodipodi.sourceforge.net/DTD/sodipodi-0.dtd" xmlns:inkscape="http://www.inkscape.org/namespaces/inkscape" height="1" version="1.1" width="1" id="svg2" inkscape:version="0.91 r13725" sodipodi:docname="linguoid.svg">
  <metadata id="metadata8">
    <rdf:RDF>
      <cc:Work rdf:about="">
        <dc:format>image/svg+xml</dc:format>
        <dc:type rdf:resource="http://purl.org/dc/dcmitype/StillImage" />
        <dc:title></dc:title>
      </cc:Work>
    </rdf:RDF>
  </metadata>
  <defs id="defs6">
    <pattern width="1" height="1" id="linguoid舌状" patternContentUnits="objectBoundingBox">
      <path style="fill:#000000" d="m 0.09106507,0.67473833 c -0.0081713,-0.0339046 -0.02300542,-0.0496264 -0.04682529,-0.0496264 -0.0077599,0 -0.01370625,-0.005368 -0.01370625,-0.0123729 0,-0.0128379 0.01513355,-0.0153126 0.03428599,-0.005607 0.01659823,0.008412 0.03828695,0.0463508 0.0429041,0.0750509 0.005984,0.0372025 -0.007333,0.0312504 -0.01665864,-0.007445 z m 0.02572352,0.0209095 c 0,-0.007329 0.004371,-0.0263315 0.009714,-0.0422275 0.0115641,-0.0344083 0.047311,-0.0569112 0.0773686,-0.048704 0.0220129,0.006011 0.0522528,0.0547247 0.0522528,0.0841751 0,0.0270504 -0.0109221,0.0229896 -0.0155508,-0.005781 -0.005601,-0.0348238 -0.0267188,-0.0579982 -0.0528486,-0.0579982 -0.0289933,0 -0.0445112,0.0152609 -0.0501075,0.049278 -0.004709,0.0286282 -0.0208283,0.0450792 -0.0208283,0.0212576 z M 0.2662003,0.68079013 c 0.00247,-0.0147445 0.008674,-0.035014 0.0137795,-0.0450436 0.0116704,-0.0229245 0.0549619,-0.0384874 0.0774685,-0.0278493 0.022832,0.0107917 0.0446455,0.0479578 0.0446455,0.0760675 0,0.0318185 -0.0105776,0.0300597 -0.0158368,-0.002632 -0.006253,-0.0388688 -0.0220113,-0.0562195 -0.0510598,-0.0562195 -0.0284154,0 -0.0525332,0.0289123 -0.0525332,0.0629771 0,0.0122787 -0.003886,0.0195093 -0.010479,0.0195093 -0.008323,0 -0.009555,-0.005519 -0.005984,-0.026808 z m 0.1491634,0.006575 c 0,-0.0718115 0.0701781,-0.11073468 0.11012146,-0.0610772 0.020195,0.0251066 0.0330258,0.0813107 0.0185621,0.0813107 -0.005307,0 -0.009253,-0.008321 -0.009253,-0.0195093 0,-0.0107299 -0.006189,-0.0292894 -0.0137516,-0.0412431 -0.0194265,-0.0307031 -0.0592303,-0.0307031 -0.0786569,0 -0.007564,0.0119537 -0.0137516,0.0305132 -0.0137516,0.0412431 0,0.0107299 -0.002987,0.0195093 -0.006635,0.0195093 -0.003647,0 -0.006635,-0.009105 -0.006635,-0.0202334 z m 0.14596997,-0.004382 c 0,-0.0354482 0.0300017,-0.0738412 0.0614982,-0.0786986 0.021337,-0.003291 0.0283251,7.532e-5 0.0476319,0.0229211 0.0254741,0.030148 0.0384616,0.0803933 0.0207797,0.0803933 -0.007064,0 -0.010479,-0.007557 -0.010479,-0.0231907 0,-0.0754077 -0.0920267,-0.0802556 -0.10331614,-0.005443 -0.005293,0.0350725 -0.0161137,0.0377704 -0.0161137,0.004017 z m 0.14815668,-0.005437 c 0.0131052,-0.10040347 0.11840315,-0.0967784 0.13471853,0.004638 0.006125,0.038074 -0.008983,0.0316316 -0.0174447,-0.007439 -0.007647,-0.0353022 -0.0220225,-0.0496321 -0.0497928,-0.0496321 -0.0275741,0 -0.0420397,0.0141931 -0.050579,0.0496264 -0.009979,0.0414101 -0.0222059,0.0434406 -0.0169021,0.002807 z m 0.14378342,0.0138332 c 0,-0.0465088 0.0427224,-0.0949327 0.0767637,-0.0870081 0.007047,0.001642 0.0165412,0.003265 0.0211029,0.003611 0.004558,3.4748e-4 0.008295,0.005743 0.008295,0.0119909 0,0.008455 -0.007214,0.0103989 -0.0281983,0.007601 -0.0345553,-0.004606 -0.0508736,0.008765 -0.057133,0.0468143 -0.005183,0.0315103 -0.0208283,0.0442708 -0.0208283,0.0169888 z M 0.05043868,0.55485097 c 0,-0.0446685 0.02916517,-0.0782142 0.06800061,-0.0782142 0.0217261,0 0.0327947,0.004756 0.0431959,0.0185594 0.0170772,0.0226634 0.0299385,0.0626952 0.0251387,0.078245 -0.005331,0.017272 -0.0169053,0.004056 -0.0169053,-0.0193043 0,-0.0112804 -0.007328,-0.0296206 -0.0162859,-0.0407562 -0.0307006,-0.038167 -0.07902227,-0.01946 -0.08704389,0.0336976 -0.0059525,0.0394473 -0.01610017,0.0443463 -0.01610017,0.007773 z m 0.14596994,0.007987 c 0,-0.0274592 0.0166861,-0.0669815 0.0328074,-0.0777078 0.007021,-0.004671 0.024346,-0.008493 0.0385002,-0.008493 0.032036,0 0.0600478,0.0327978 0.0658273,0.0770743 0.005203,0.0398683 -0.008235,0.0401139 -0.0170748,3.1446e-4 -0.009363,-0.0421552 -0.0251833,-0.060889 -0.0514209,-0.060889 -0.0275219,0 -0.0465103,0.0222431 -0.05242,0.0614046 -0.005098,0.0337842 -0.0162191,0.0394747 -0.0162191,0.008299 z m 0.14963052,0.0110605 c -0.006844,-0.0198103 0.007882,-0.070076 0.0248639,-0.084863 0.0147377,-0.0128332 0.0624897,-0.0167315 0.0745472,-0.006086 0.0172088,0.015194 0.0362638,0.0558043 0.0362638,0.0772859 0,0.0324083 -0.0108593,0.0298239 -0.0159315,-0.003792 -0.00526,-0.0348555 -0.0264049,-0.0633098 -0.0470472,-0.0633098 -0.0314784,0 -0.0491704,0.0171567 -0.0587236,0.0569471 -0.006837,0.0284773 -0.0103136,0.0344044 -0.0139724,0.0238171 z m 0.14615945,0.002793 c -0.007485,-0.0150569 0.00893,-0.0739464 0.0243567,-0.0873795 0.0149927,-0.0130551 0.0626929,-0.0171088 0.0748646,-0.006362 0.0270486,0.0238817 0.0496658,0.10091931 0.0296286,0.10091931 -0.003647,0 -0.006635,-0.007608 -0.006635,-0.0169069 0,-0.0233597 -0.0171869,-0.0625176 -0.0301545,-0.0687041 -0.0314771,-0.0150165 -0.0759112,0.0124408 -0.076107,0.0470287 -1.3151e-4,0.0238531 -0.0100267,0.0433259 -0.0159534,0.0314046 z m 0.14608833,2.3836e-4 c -0.006,-0.0120708 0.008098,-0.0605172 0.0235698,-0.0809917 0.0228483,-0.0302357 0.0673646,-0.027197 0.0925474,0.006318 0.0134147,0.0178526 0.0192495,0.034105 0.0192495,0.053616 0,0.0383918 -0.0106318,0.0353246 -0.0157601,-0.004547 -0.004769,-0.0370723 -0.0237735,-0.0581908 -0.0523678,-0.0581908 -0.0233754,0 -0.0513022,0.0332076 -0.0513022,0.061003 0,0.0213684 -0.009728,0.0352812 -0.0159367,0.0227922 z m 0.14863689,-0.0220783 c 0,-0.0446685 0.0291653,-0.0782142 0.0680004,-0.0782142 0.0220468,0 0.0327886,0.004734 0.0437965,0.0193007 0.0154721,0.0204745 0.0295705,0.0689209 0.0235699,0.0809916 -0.00621,0.0124889 -0.0159367,-0.001424 -0.0159367,-0.0227922 0,-0.0112804 -0.007328,-0.0296206 -0.0162859,-0.0407563 -0.0307003,-0.0381669 -0.0790222,-0.01946 -0.0870438,0.0336976 -0.005953,0.0394473 -0.0161002,0.0443462 -0.0161002,0.007773 z m 0.1478174,-0.0043 c 0.003419,-0.0317065 0.016429,-0.0621908 0.0230342,-0.0539794 0.005178,0.006442 -0.013689,0.0872974 -0.0203747,0.0872974 -0.003477,0 -0.004659,-0.0147966 -0.002665,-0.033318 z M 0.09990576,0.42396358 c -0.0057238,-0.0379365 -0.02541559,-0.0628077 -0.04972564,-0.0628077 -0.01080515,0 -0.01964647,-0.003712 -0.01964647,-0.008249 0,-0.004537 0.0098915,-0.008249 0.02198106,-0.008249 0.01538736,0 0.02729361,0.006894 0.03969196,0.0229822 0.01928567,0.0250254 0.03019631,0.0707138 0.01895034,0.0793545 -0.004121,0.003166 -0.008718,-0.006242 -0.01125109,-0.0230317 z m 0.14662287,-0.001475 c -0.00599,-0.0396912 -0.0248448,-0.0613324 -0.0534375,-0.0613324 -0.0274885,0 -0.0497626,0.0237807 -0.0497626,0.0531292 0,0.0200785 -0.0106186,0.0354034 -0.0180919,0.0261118 -0.007509,-0.009334 0.011915,-0.070456 0.0263978,-0.0830669 0.0149895,-0.0130522 0.0626903,-0.017104 0.0748605,-0.006359 0.015774,0.013927 0.0362638,0.0549902 0.0362638,0.0726747 0,0.0311941 -0.0114719,0.0303757 -0.0162299,-0.001158 z m 0.14892998,0.0124955 c 0,-0.0233597 -0.0171865,-0.0625175 -0.0301549,-0.0687041 -0.005906,-0.002818 -0.0192367,-0.005124 -0.0296215,-0.005124 -0.0221076,0 -0.0463839,0.0329606 -0.0463839,0.0629771 0,0.0118424 -0.003911,0.0195091 -0.009953,0.0195091 -0.011777,0 -0.0119834,-0.00295 -0.003023,-0.0430621 0.008607,-0.0385284 0.0281851,-0.0559214 0.0629458,-0.0559214 0.0289524,0 0.0411434,0.008542 0.058536,0.0410164 0.0119874,0.0223817 0.0148265,0.0662157 0.004288,0.0662157 -0.003647,0 -0.006635,-0.007608 -0.006635,-0.0169069 z m 0.15039349,0.0114077 c -0.002434,-0.003024 -0.004424,-0.0143289 -0.004424,-0.0251208 0,-0.0281612 -0.0282145,-0.060115 -0.0530801,-0.060115 -0.0253468,0 -0.0530801,0.0321271 -0.0530801,0.0614898 0,0.011548 -0.002987,0.0209964 -0.006635,0.0209964 -0.008759,0 -0.008479,-0.0354334 4.7337e-4,-0.0598589 0.0101082,-0.0275795 0.0307834,-0.0411011 0.0620389,-0.040573 0.0350179,5.916e-4 0.0635541,0.0364858 0.0635541,0.0799405 0,0.0295403 -0.001209,0.0327298 -0.008847,0.0232409 z m 0.14608057,1.3807e-4 c -0.002494,-0.0031 -0.004534,-0.013797 -0.004534,-0.023771 0,-0.030467 -0.0246483,-0.0616023 -0.0487677,-0.0616023 -0.0293033,0 -0.0494186,0.0198588 -0.0545483,0.0538531 -0.005293,0.0350725 -0.0161141,0.0377705 -0.0161141,0.004018 0,-0.0153115 0.007028,-0.0343946 0.0185935,-0.0504866 0.0155862,-0.021686 0.0232405,-0.0257912 0.0473191,-0.0253781 0.034179,5.8713e-4 0.0630003,0.0295117 0.0694688,0.0697195 0.004056,0.0252077 -0.00255,0.0446726 -0.0114182,0.0336479 z m 0.14457712,-0.0213744 c -0.006309,-0.0370839 -0.0278334,-0.0639988 -0.0511788,-0.0639988 -0.0293072,0 -0.0436155,0.0135761 -0.0523036,0.0496263 -0.0100963,0.0418965 -0.022159,0.0432753 -0.0168635,0.001928 0.008511,-0.0664542 0.0754016,-0.0932448 0.1125279,-0.045069 0.0190848,0.0247648 0.0301979,0.0707125 0.0191552,0.0791972 -0.003811,0.002928 -0.008761,-0.006537 -0.0113378,-0.0216833 z m 0.0233988,0.00585 c 0,-0.0234771 0.0186934,-0.0684617 0.0321773,-0.077433 0.0192586,-0.0128136 0.0673479,-0.0115253 0.0673479,0.001804 0,0.007322 -0.007114,0.009684 -0.022467,0.007456 -0.0317238,-0.004604 -0.0489229,0.00982 -0.0571833,0.0479569 -0.006961,0.0321418 -0.0198748,0.0452766 -0.0198748,0.0202163 z M 0.05707355,0.29089605 c 0,-0.0652406 0.06610039,-0.10266158 0.10835412,-0.0613417 0.0168735,0.0165005 0.0339589,0.0694468 0.0269563,0.0835336 -0.00616,0.0123926 -0.0158802,-0.001627 -0.0158802,-0.0229059 0,-0.0112804 -0.007328,-0.0296206 -0.0162859,-0.0407563 -0.0307006,-0.038167 -0.07902227,-0.01946 -0.08704404,0.0336976 -0.0059525,0.0394473 -0.01610018,0.0443462 -0.01610018,0.007773 z m 0.1480036,-0.006026 c 0.0101703,-0.0942606 0.10919322,-0.0985533 0.13156977,-0.005704 0.004321,0.0179328 0.006085,0.0348088 0.003918,0.0375022 -0.007529,0.009362 -0.0180919,-0.006101 -0.0180919,-0.0264868 0,-0.0245489 -0.0273163,-0.0610029 -0.0457114,-0.0610029 -0.0311144,0 -0.0469855,0.0153627 -0.0551691,0.0534021 -0.0101572,0.0472125 -0.0215328,0.048789 -0.0165159,0.002289 z m 0.14393636,0.0182816 c 0,-0.0314353 0.0188939,-0.073903 0.0366035,-0.0822737 0.0484672,-0.0229086 0.0924869,0.007251 0.1005312,0.0688781 0.005165,0.0395682 -0.008885,0.0406497 -0.0148467,0.001143 -0.004896,-0.0324421 -0.0298569,-0.0617199 -0.0526204,-0.0617199 -0.0227636,0 -0.0477249,0.0292777 -0.0526205,0.0617199 -0.004696,0.031117 -0.0170473,0.0399947 -0.0170473,0.0122527 z m 0.15082334,0.0117977 c -0.0136224,-0.0169354 0.007984,-0.0791189 0.0322712,-0.092876 0.018638,-0.0105574 0.0555259,-0.0122796 0.0659468,-0.003079 0.0172088,0.0151941 0.0362638,0.0558043 0.0362638,0.0772859 0,0.0350337 -0.009438,0.0286522 -0.0182582,-0.0123452 -0.006092,-0.0283183 -0.0121676,-0.0382588 -0.0285375,-0.0466881 -0.0366468,-0.0188712 -0.057666,-0.001267 -0.0771796,0.064642 -0.003107,0.0105017 -0.007837,0.0163788 -0.0105069,0.0130603 z m 0.14568278,-0.001087 c -0.007848,-0.0166152 0.005148,-0.0616918 0.0232433,-0.0806217 0.0194897,-0.020388 0.0596878,-0.0279972 0.0752619,-0.0142466 0.0270486,0.0238818 0.0496658,0.10091939 0.0296286,0.10091939 -0.003647,0 -0.006635,-0.007608 -0.006635,-0.0169069 0,-0.0233597 -0.0171869,-0.0625175 -0.0301549,-0.0687041 -0.0338913,-0.0161682 -0.0760053,0.0147939 -0.0760053,0.0558791 0,0.0205422 -0.009727,0.0355593 -0.0153388,0.0236799 z m 0.148039,-0.0229669 c 0,-0.0436656 0.0292475,-0.0782141 0.0662136,-0.0782141 0.0224299,0 0.0309819,0.004842 0.0469555,0.0265841 0.0132946,0.0180958 0.0195307,0.0352155 0.0195307,0.0536161 0,0.0377538 -0.0107013,0.0338106 -0.0157994,-0.005821 -0.005419,-0.0421354 -0.0274603,-0.0620077 -0.0602828,-0.0543526 -0.0251507,0.005866 -0.0433474,0.0309204 -0.0433474,0.0596845 0,0.0100646 -0.002987,0.0205934 -0.006635,0.0233973 -0.003958,0.003041 -0.006635,-0.007 -0.006635,-0.0248936 z m 0.14597006,0.001725 c 0,-0.0150115 0.004692,-0.0344989 0.0104194,-0.0433052 0.009789,-0.0150419 0.0101949,-0.0140134 0.006712,0.0169828 -0.002036,0.018147 -0.003745,0.0376343 -0.003787,0.0433053 -3.98e-5,0.005671 -0.003058,0.0103108 -0.006712,0.0103108 -0.003645,0 -0.006636,-0.0122822 -0.006636,-0.0272937 z" id="path4560" inkscape:connector-curvature="0" />
    </pattern>
  </defs>
  <sodipodi:namedview pagecolor="#ffffff" bordercolor="#666666" borderopacity="1" objecttolerance="10" gridtolerance="10" guidetolerance="10" inkscape:pageopacity="0" inkscape:pageshadow="2" inkscape:window-width="1600" inkscape:window-height="838" id="namedview4" showgrid="false" inkscape:zoom="256" inkscape:cx="0.5" inkscape:cy="0.5" inkscape:window-x="-8" inkscape:window-y="-8" inkscape:window-maximized="1" inkscape:current-layer="svg2" />
  <path style="fill:#000000" d="m 0.09106507,0.67473833 c -0.0081713,-0.0339046 -0.02300542,-0.0496264 -0.04682529,-0.0496264 -0.0077599,0 -0.01370625,-0.005368 -0.01370625,-0.0123729 0,-0.0128379 0.01513355,-0.0153126 0.03428599,-0.005607 0.01659823,0.008412 0.03828695,0.0463508 0.0429041,0.0750509 0.005984,0.0372025 -0.007333,0.0312504 -0.01665864,-0.007445 z m 0.02572352,0.0209095 c 0,-0.007329 0.004371,-0.0263315 0.009714,-0.0422275 0.0115641,-0.0344083 0.047311,-0.0569112 0.0773686,-0.048704 0.0220129,0.006011 0.0522528,0.0547247 0.0522528,0.0841751 0,0.0270504 -0.0109221,0.0229896 -0.0155508,-0.005781 -0.005601,-0.0348238 -0.0267188,-0.0579982 -0.0528486,-0.0579982 -0.0289933,0 -0.0445112,0.0152609 -0.0501075,0.049278 -0.004709,0.0286282 -0.0208283,0.0450792 -0.0208283,0.0212576 z M 0.2662003,0.68079013 c 0.00247,-0.0147445 0.008674,-0.035014 0.0137795,-0.0450436 0.0116704,-0.0229245 0.0549619,-0.0384874 0.0774685,-0.0278493 0.022832,0.0107917 0.0446455,0.0479578 0.0446455,0.0760675 0,0.0318185 -0.0105776,0.0300597 -0.0158368,-0.002632 -0.006253,-0.0388688 -0.0220113,-0.0562195 -0.0510598,-0.0562195 -0.0284154,0 -0.0525332,0.0289123 -0.0525332,0.0629771 0,0.0122787 -0.003886,0.0195093 -0.010479,0.0195093 -0.008323,0 -0.009555,-0.005519 -0.005984,-0.026808 z m 0.1491634,0.006575 c 0,-0.0718115 0.0701781,-0.11073468 0.11012146,-0.0610772 0.020195,0.0251066 0.0330258,0.0813107 0.0185621,0.0813107 -0.005307,0 -0.009253,-0.008321 -0.009253,-0.0195093 0,-0.0107299 -0.006189,-0.0292894 -0.0137516,-0.0412431 -0.0194265,-0.0307031 -0.0592303,-0.0307031 -0.0786569,0 -0.007564,0.0119537 -0.0137516,0.0305132 -0.0137516,0.0412431 0,0.0107299 -0.002987,0.0195093 -0.006635,0.0195093 -0.003647,0 -0.006635,-0.009105 -0.006635,-0.0202334 z m 0.14596997,-0.004382 c 0,-0.0354482 0.0300017,-0.0738412 0.0614982,-0.0786986 0.021337,-0.003291 0.0283251,7.532e-5 0.0476319,0.0229211 0.0254741,0.030148 0.0384616,0.0803933 0.0207797,0.0803933 -0.007064,0 -0.010479,-0.007557 -0.010479,-0.0231907 0,-0.0754077 -0.0920267,-0.0802556 -0.10331614,-0.005443 -0.005293,0.0350725 -0.0161137,0.0377704 -0.0161137,0.004017 z m 0.14815668,-0.005437 c 0.0131052,-0.10040347 0.11840315,-0.0967784 0.13471853,0.004638 0.006125,0.038074 -0.008983,0.0316316 -0.0174447,-0.007439 -0.007647,-0.0353022 -0.0220225,-0.0496321 -0.0497928,-0.0496321 -0.0275741,0 -0.0420397,0.0141931 -0.050579,0.0496264 -0.009979,0.0414101 -0.0222059,0.0434406 -0.0169021,0.002807 z m 0.14378342,0.0138332 c 0,-0.0465088 0.0427224,-0.0949327 0.0767637,-0.0870081 0.007047,0.001642 0.0165412,0.003265 0.0211029,0.003611 0.004558,3.4748e-4 0.008295,0.005743 0.008295,0.0119909 0,0.008455 -0.007214,0.0103989 -0.0281983,0.007601 -0.0345553,-0.004606 -0.0508736,0.008765 -0.057133,0.0468143 -0.005183,0.0315103 -0.0208283,0.0442708 -0.0208283,0.0169888 z M 0.05043868,0.55485097 c 0,-0.0446685 0.02916517,-0.0782142 0.06800061,-0.0782142 0.0217261,0 0.0327947,0.004756 0.0431959,0.0185594 0.0170772,0.0226634 0.0299385,0.0626952 0.0251387,0.078245 -0.005331,0.017272 -0.0169053,0.004056 -0.0169053,-0.0193043 0,-0.0112804 -0.007328,-0.0296206 -0.0162859,-0.0407562 -0.0307006,-0.038167 -0.07902227,-0.01946 -0.08704389,0.0336976 -0.0059525,0.0394473 -0.01610017,0.0443463 -0.01610017,0.007773 z m 0.14596994,0.007987 c 0,-0.0274592 0.0166861,-0.0669815 0.0328074,-0.0777078 0.007021,-0.004671 0.024346,-0.008493 0.0385002,-0.008493 0.032036,0 0.0600478,0.0327978 0.0658273,0.0770743 0.005203,0.0398683 -0.008235,0.0401139 -0.0170748,3.1446e-4 -0.009363,-0.0421552 -0.0251833,-0.060889 -0.0514209,-0.060889 -0.0275219,0 -0.0465103,0.0222431 -0.05242,0.0614046 -0.005098,0.0337842 -0.0162191,0.0394747 -0.0162191,0.008299 z m 0.14963052,0.0110605 c -0.006844,-0.0198103 0.007882,-0.070076 0.0248639,-0.084863 0.0147377,-0.0128332 0.0624897,-0.0167315 0.0745472,-0.006086 0.0172088,0.015194 0.0362638,0.0558043 0.0362638,0.0772859 0,0.0324083 -0.0108593,0.0298239 -0.0159315,-0.003792 -0.00526,-0.0348555 -0.0264049,-0.0633098 -0.0470472,-0.0633098 -0.0314784,0 -0.0491704,0.0171567 -0.0587236,0.0569471 -0.006837,0.0284773 -0.0103136,0.0344044 -0.0139724,0.0238171 z m 0.14615945,0.002793 c -0.007485,-0.0150569 0.00893,-0.0739464 0.0243567,-0.0873795 0.0149927,-0.0130551 0.0626929,-0.0171088 0.0748646,-0.006362 0.0270486,0.0238817 0.0496658,0.10091931 0.0296286,0.10091931 -0.003647,0 -0.006635,-0.007608 -0.006635,-0.0169069 0,-0.0233597 -0.0171869,-0.0625176 -0.0301545,-0.0687041 -0.0314771,-0.0150165 -0.0759112,0.0124408 -0.076107,0.0470287 -1.3151e-4,0.0238531 -0.0100267,0.0433259 -0.0159534,0.0314046 z m 0.14608833,2.3836e-4 c -0.006,-0.0120708 0.008098,-0.0605172 0.0235698,-0.0809917 0.0228483,-0.0302357 0.0673646,-0.027197 0.0925474,0.006318 0.0134147,0.0178526 0.0192495,0.034105 0.0192495,0.053616 0,0.0383918 -0.0106318,0.0353246 -0.0157601,-0.004547 -0.004769,-0.0370723 -0.0237735,-0.0581908 -0.0523678,-0.0581908 -0.0233754,0 -0.0513022,0.0332076 -0.0513022,0.061003 0,0.0213684 -0.009728,0.0352812 -0.0159367,0.0227922 z m 0.14863689,-0.0220783 c 0,-0.0446685 0.0291653,-0.0782142 0.0680004,-0.0782142 0.0220468,0 0.0327886,0.004734 0.0437965,0.0193007 0.0154721,0.0204745 0.0295705,0.0689209 0.0235699,0.0809916 -0.00621,0.0124889 -0.0159367,-0.001424 -0.0159367,-0.0227922 0,-0.0112804 -0.007328,-0.0296206 -0.0162859,-0.0407563 -0.0307003,-0.0381669 -0.0790222,-0.01946 -0.0870438,0.0336976 -0.005953,0.0394473 -0.0161002,0.0443462 -0.0161002,0.007773 z m 0.1478174,-0.0043 c 0.003419,-0.0317065 0.016429,-0.0621908 0.0230342,-0.0539794 0.005178,0.006442 -0.013689,0.0872974 -0.0203747,0.0872974 -0.003477,0 -0.004659,-0.0147966 -0.002665,-0.033318 z M 0.09990576,0.42396358 c -0.0057238,-0.0379365 -0.02541559,-0.0628077 -0.04972564,-0.0628077 -0.01080515,0 -0.01964647,-0.003712 -0.01964647,-0.008249 0,-0.004537 0.0098915,-0.008249 0.02198106,-0.008249 0.01538736,0 0.02729361,0.006894 0.03969196,0.0229822 0.01928567,0.0250254 0.03019631,0.0707138 0.01895034,0.0793545 -0.004121,0.003166 -0.008718,-0.006242 -0.01125109,-0.0230317 z m 0.14662287,-0.001475 c -0.00599,-0.0396912 -0.0248448,-0.0613324 -0.0534375,-0.0613324 -0.0274885,0 -0.0497626,0.0237807 -0.0497626,0.0531292 0,0.0200785 -0.0106186,0.0354034 -0.0180919,0.0261118 -0.007509,-0.009334 0.011915,-0.070456 0.0263978,-0.0830669 0.0149895,-0.0130522 0.0626903,-0.017104 0.0748605,-0.006359 0.015774,0.013927 0.0362638,0.0549902 0.0362638,0.0726747 0,0.0311941 -0.0114719,0.0303757 -0.0162299,-0.001158 z m 0.14892998,0.0124955 c 0,-0.0233597 -0.0171865,-0.0625175 -0.0301549,-0.0687041 -0.005906,-0.002818 -0.0192367,-0.005124 -0.0296215,-0.005124 -0.0221076,0 -0.0463839,0.0329606 -0.0463839,0.0629771 0,0.0118424 -0.003911,0.0195091 -0.009953,0.0195091 -0.011777,0 -0.0119834,-0.00295 -0.003023,-0.0430621 0.008607,-0.0385284 0.0281851,-0.0559214 0.0629458,-0.0559214 0.0289524,0 0.0411434,0.008542 0.058536,0.0410164 0.0119874,0.0223817 0.0148265,0.0662157 0.004288,0.0662157 -0.003647,0 -0.006635,-0.007608 -0.006635,-0.0169069 z m 0.15039349,0.0114077 c -0.002434,-0.003024 -0.004424,-0.0143289 -0.004424,-0.0251208 0,-0.0281612 -0.0282145,-0.060115 -0.0530801,-0.060115 -0.0253468,0 -0.0530801,0.0321271 -0.0530801,0.0614898 0,0.011548 -0.002987,0.0209964 -0.006635,0.0209964 -0.008759,0 -0.008479,-0.0354334 4.7337e-4,-0.0598589 0.0101082,-0.0275795 0.0307834,-0.0411011 0.0620389,-0.040573 0.0350179,5.916e-4 0.0635541,0.0364858 0.0635541,0.0799405 0,0.0295403 -0.001209,0.0327298 -0.008847,0.0232409 z m 0.14608057,1.3807e-4 c -0.002494,-0.0031 -0.004534,-0.013797 -0.004534,-0.023771 0,-0.030467 -0.0246483,-0.0616023 -0.0487677,-0.0616023 -0.0293033,0 -0.0494186,0.0198588 -0.0545483,0.0538531 -0.005293,0.0350725 -0.0161141,0.0377705 -0.0161141,0.004018 0,-0.0153115 0.007028,-0.0343946 0.0185935,-0.0504866 0.0155862,-0.021686 0.0232405,-0.0257912 0.0473191,-0.0253781 0.034179,5.8713e-4 0.0630003,0.0295117 0.0694688,0.0697195 0.004056,0.0252077 -0.00255,0.0446726 -0.0114182,0.0336479 z m 0.14457712,-0.0213744 c -0.006309,-0.0370839 -0.0278334,-0.0639988 -0.0511788,-0.0639988 -0.0293072,0 -0.0436155,0.0135761 -0.0523036,0.0496263 -0.0100963,0.0418965 -0.022159,0.0432753 -0.0168635,0.001928 0.008511,-0.0664542 0.0754016,-0.0932448 0.1125279,-0.045069 0.0190848,0.0247648 0.0301979,0.0707125 0.0191552,0.0791972 -0.003811,0.002928 -0.008761,-0.006537 -0.0113378,-0.0216833 z m 0.0233988,0.00585 c 0,-0.0234771 0.0186934,-0.0684617 0.0321773,-0.077433 0.0192586,-0.0128136 0.0673479,-0.0115253 0.0673479,0.001804 0,0.007322 -0.007114,0.009684 -0.022467,0.007456 -0.0317238,-0.004604 -0.0489229,0.00982 -0.0571833,0.0479569 -0.006961,0.0321418 -0.0198748,0.0452766 -0.0198748,0.0202163 z M 0.05707355,0.29089605 c 0,-0.0652406 0.06610039,-0.10266158 0.10835412,-0.0613417 0.0168735,0.0165005 0.0339589,0.0694468 0.0269563,0.0835336 -0.00616,0.0123926 -0.0158802,-0.001627 -0.0158802,-0.0229059 0,-0.0112804 -0.007328,-0.0296206 -0.0162859,-0.0407563 -0.0307006,-0.038167 -0.07902227,-0.01946 -0.08704404,0.0336976 -0.0059525,0.0394473 -0.01610018,0.0443462 -0.01610018,0.007773 z m 0.1480036,-0.006026 c 0.0101703,-0.0942606 0.10919322,-0.0985533 0.13156977,-0.005704 0.004321,0.0179328 0.006085,0.0348088 0.003918,0.0375022 -0.007529,0.009362 -0.0180919,-0.006101 -0.0180919,-0.0264868 0,-0.0245489 -0.0273163,-0.0610029 -0.0457114,-0.0610029 -0.0311144,0 -0.0469855,0.0153627 -0.0551691,0.0534021 -0.0101572,0.0472125 -0.0215328,0.048789 -0.0165159,0.002289 z m 0.14393636,0.0182816 c 0,-0.0314353 0.0188939,-0.073903 0.0366035,-0.0822737 0.0484672,-0.0229086 0.0924869,0.007251 0.1005312,0.0688781 0.005165,0.0395682 -0.008885,0.0406497 -0.0148467,0.001143 -0.004896,-0.0324421 -0.0298569,-0.0617199 -0.0526204,-0.0617199 -0.0227636,0 -0.0477249,0.0292777 -0.0526205,0.0617199 -0.004696,0.031117 -0.0170473,0.0399947 -0.0170473,0.0122527 z m 0.15082334,0.0117977 c -0.0136224,-0.0169354 0.007984,-0.0791189 0.0322712,-0.092876 0.018638,-0.0105574 0.0555259,-0.0122796 0.0659468,-0.003079 0.0172088,0.0151941 0.0362638,0.0558043 0.0362638,0.0772859 0,0.0350337 -0.009438,0.0286522 -0.0182582,-0.0123452 -0.006092,-0.0283183 -0.0121676,-0.0382588 -0.0285375,-0.0466881 -0.0366468,-0.0188712 -0.057666,-0.001267 -0.0771796,0.064642 -0.003107,0.0105017 -0.007837,0.0163788 -0.0105069,0.0130603 z m 0.14568278,-0.001087 c -0.007848,-0.0166152 0.005148,-0.0616918 0.0232433,-0.0806217 0.0194897,-0.020388 0.0596878,-0.0279972 0.0752619,-0.0142466 0.0270486,0.0238818 0.0496658,0.10091939 0.0296286,0.10091939 -0.003647,0 -0.006635,-0.007608 -0.006635,-0.0169069 0,-0.0233597 -0.0171869,-0.0625175 -0.0301549,-0.0687041 -0.0338913,-0.0161682 -0.0760053,0.0147939 -0.0760053,0.0558791 0,0.0205422 -0.009727,0.0355593 -0.0153388,0.0236799 z m 0.148039,-0.0229669 c 0,-0.0436656 0.0292475,-0.0782141 0.0662136,-0.0782141 0.0224299,0 0.0309819,0.004842 0.0469555,0.0265841 0.0132946,0.0180958 0.0195307,0.0352155 0.0195307,0.0536161 0,0.0377538 -0.0107013,0.0338106 -0.0157994,-0.005821 -0.005419,-0.0421354 -0.0274603,-0.0620077 -0.0602828,-0.0543526 -0.0251507,0.005866 -0.0433474,0.0309204 -0.0433474,0.0596845 0,0.0100646 -0.002987,0.0205934 -0.006635,0.0233973 -0.003958,0.003041 -0.006635,-0.007 -0.006635,-0.0248936 z m 0.14597006,0.001725 c 0,-0.0150115 0.004692,-0.0344989 0.0104194,-0.0433052 0.009789,-0.0150419 0.0101949,-0.0140134 0.006712,0.0169828 -0.002036,0.018147 -0.003745,0.0376343 -0.003787,0.0433053 -3.98e-5,0.005671 -0.003058,0.0103108 -0.006712,0.0103108 -0.003645,0 -0.006636,-0.0122822 -0.006636,-0.0272937 z" id="path4560" inkscape:connector-curvature="0" />
</svg>