<?xml version="1.0" encoding="utf-8" standalone="no"?>
<svg xmlns:dc="http://purl.org/dc/elements/1.1/" xmlns:cc="http://creativecommons.org/ns#" xmlns:rdf="http://www.w3.org/1999/02/22-rdf-syntax-ns#" xmlns:svg="http://www.w3.org/2000/svg" xmlns="http://www.w3.org/2000/svg" xmlns:sodipodi="http://sodipodi.sourceforge.net/DTD/sodipodi-0.dtd" xmlns:inkscape="http://www.inkscape.org/namespaces/inkscape" height="1" version="1.1" width="1" id="svg2" inkscape:version="0.91 r13725" sodipodi:docname="sinuousOutPhase.svg">
  <metadata id="metadata8">
    <rdf:RDF>
      <cc:Work rdf:about="">
        <dc:format>image/svg+xml</dc:format>
        <dc:type rdf:resource="http://purl.org/dc/dcmitype/StillImage" />
        <dc:title></dc:title>
      </cc:Work>
    </rdf:RDF>
  </metadata>
  <defs id="defs6">
    <pattern width="1" height="1" id="sinuousOutPhase非周期迂型" patternContentUnits="objectBoundingBox">
      <path style="fill:#000000" d="m 0.31406048,0.81482293 c -0.010828,-0.002116 -0.0532223,-0.0147457 -0.0942126,-0.0280648 -0.0498765,-0.0162064 -0.090699,-0.0242162 -0.12341905,-0.0242162 -0.03092359,0 -0.04740106,-0.003039 -0.04483603,-0.008268 0.008567,-0.0174662 0.10362223,-0.008839 0.18063535,0.0163934 0.0997383,0.0326786 0.14643874,0.0324503 0.26143674,-0.001279 0.12122522,-0.0355555 0.20101389,-0.0354624 0.33473099,3.9035e-4 0.0519128,0.0139187 0.0959582,0.027287 0.0978786,0.029707 0.0120491,0.0151837 -0.01767,0.0119555 -0.11178874,-0.0121416 C 0.67766319,0.75231263 0.626674,0.75204683 0.50763049,0.78574403 0.41688808,0.81143093 0.34893031,0.82163983 0.3140606,0.81482273 Z M 0.53059626,0.695605 C 0.50894302,0.69222901 0.45726942,0.67931258 0.4157667,0.66690047 0.3093588,0.63507761 0.24617181,0.63590632 0.14382433,0.67046742 0.0692693,0.69564322 0.0425058,0.69838382 0.05156404,0.67991442 c 0.002248,-0.004579 0.0106176,-0.008327 0.01860281,-0.008327 0.0079851,0 0.0498883,-0.0115627 0.09311698,-0.0256947 0.096274,-0.0314732 0.14545219,-0.0299999 0.27957191,0.008377 0.11524987,0.0329766 0.1572153,0.0326121 0.29443394,-0.002557 0.10007929,-0.02565 0.12785128,-0.0289734 0.11376099,-0.0136135 -0.007893,0.008604 -0.2021513,0.0564653 -0.24499484,0.0603615 -0.0198495,0.001805 -0.053806,5.1983e-4 -0.0754596,-0.002855 z M 0.21563498,0.52367191 c -0.0396981,-0.0133839 -0.0935281,-0.0269815 -0.11962207,-0.0302168 -0.02913994,-0.003614 -0.04586893,-0.009093 -0.04336208,-0.0142034 0.0060693,-0.0123806 0.09116404,-0.002062 0.14391276,0.0174506 0.11117833,0.0411278 0.13688705,0.0411092 0.28482006,-2.0756e-4 0.1101165,-0.030753 0.1843917,-0.0326414 0.27887213,-0.00709 0.0360893,0.009761 0.0825953,0.0216529 0.10334668,0.0264287 0.0207514,0.004775 0.0377297,0.0120069 0.0377297,0.0160682 0,0.0120938 -0.0234078,0.008729 -0.12747778,-0.0183273 -0.0859173,-0.0223368 -0.10751472,-0.025098 -0.16451778,-0.021033 -0.0360891,0.002573 -0.0966207,0.0142582 -0.13451459,0.0259658 -0.0378941,0.0117083 -0.0954726,0.0231338 -0.12795303,0.0253915 -0.0510787,0.003551 -0.0688042,8.1855e-4 -0.13123396,-0.0202294 z M 0.60933656,0.39078586 c -0.0180455,-0.003752 -0.0667652,-0.0168604 -0.10826777,-0.02913 -0.10445904,-0.0308815 -0.15885437,-0.0302035 -0.25966426,0.003236 -0.0642646,0.0213176 -0.089354,0.02582 -0.13291783,0.0238525 -0.02953527,-0.001335 -0.05294276,-0.005559 -0.05201632,-0.009389 9.2123e-4,-0.00383 0.02825858,-0.0079 0.06073916,-0.009045 0.0416274,-0.001467 0.083118,-0.0101118 0.14059434,-0.0292916 0.0961477,-0.0320848 0.13643872,-0.0313664 0.25353755,0.00452 0.11326753,0.0347129 0.18764965,0.0357786 0.30746136,0.004404 0.10313695,-0.0270073 0.12189953,-0.0299061 0.12189953,-0.0188328 0,0.009949 -0.1917759,0.0581247 -0.24934442,0.062637 -0.027067,0.002121 -0.0639766,7.8834e-4 -0.0820213,-0.002964 z M 0.22547747,0.22859661 c -0.0342851,-0.0118245 -0.0867542,-0.0239639 -0.1165985,-0.0269769 -0.02984426,-0.003012 -0.05410957,-0.009199 -0.05392274,-0.0137466 5.0295e-4,-0.0123735 0.08929776,-0.006962 0.13115085,0.007994 0.12488772,0.0446264 0.1688423,0.0458031 0.29316847,0.007848 0.11566376,-0.0353101 0.17987318,-0.0358288 0.31486154,-0.002543 0.0758058,0.018692 0.11373759,0.0315436 0.11374515,0.0385376 6.55e-6,0.006559 -0.005523,0.00899 -0.0147524,0.006483 -0.16822987,-0.0457052 -0.22103777,-0.0556601 -0.2739507,-0.0516429 -0.0306759,0.002328 -0.0882549,0.0143176 -0.12795301,0.0266414 -0.10595377,0.0328919 -0.18543093,0.0351068 -0.26574876,0.007406 z" id="path4470" inkscape:connector-curvature="0" />
    </pattern>
  </defs>
  <sodipodi:namedview pagecolor="#ffffff" bordercolor="#666666" borderopacity="1" objecttolerance="10" gridtolerance="10" guidetolerance="10" inkscape:pageopacity="0" inkscape:pageshadow="2" inkscape:window-width="1600" inkscape:window-height="838" id="namedview4" showgrid="false" inkscape:zoom="256" inkscape:cx="0.1758763" inkscape:cy="0.45225335" inkscape:window-x="-8" inkscape:window-y="-8" inkscape:window-maximized="1" inkscape:current-layer="svg2" />
  <path style="fill:#000000" d="m 0.31406048,0.81482293 c -0.010828,-0.002116 -0.0532223,-0.0147457 -0.0942126,-0.0280648 -0.0498765,-0.0162064 -0.090699,-0.0242162 -0.12341905,-0.0242162 -0.03092359,0 -0.04740106,-0.003039 -0.04483603,-0.008268 0.008567,-0.0174662 0.10362223,-0.008839 0.18063535,0.0163934 0.0997383,0.0326786 0.14643874,0.0324503 0.26143674,-0.001279 0.12122522,-0.0355555 0.20101389,-0.0354624 0.33473099,3.9035e-4 0.0519128,0.0139187 0.0959582,0.027287 0.0978786,0.029707 0.0120491,0.0151837 -0.01767,0.0119555 -0.11178874,-0.0121416 C 0.67766319,0.75231263 0.626674,0.75204683 0.50763049,0.78574403 0.41688808,0.81143093 0.34893031,0.82163983 0.3140606,0.81482273 Z M 0.53059626,0.695605 C 0.50894302,0.69222901 0.45726942,0.67931258 0.4157667,0.66690047 0.3093588,0.63507761 0.24617181,0.63590632 0.14382433,0.67046742 0.0692693,0.69564322 0.0425058,0.69838382 0.05156404,0.67991442 c 0.002248,-0.004579 0.0106176,-0.008327 0.01860281,-0.008327 0.0079851,0 0.0498883,-0.0115627 0.09311698,-0.0256947 0.096274,-0.0314732 0.14545219,-0.0299999 0.27957191,0.008377 0.11524987,0.0329766 0.1572153,0.0326121 0.29443394,-0.002557 0.10007929,-0.02565 0.12785128,-0.0289734 0.11376099,-0.0136135 -0.007893,0.008604 -0.2021513,0.0564653 -0.24499484,0.0603615 -0.0198495,0.001805 -0.053806,5.1983e-4 -0.0754596,-0.002855 z M 0.21563498,0.52367191 c -0.0396981,-0.0133839 -0.0935281,-0.0269815 -0.11962207,-0.0302168 -0.02913994,-0.003614 -0.04586893,-0.009093 -0.04336208,-0.0142034 0.0060693,-0.0123806 0.09116404,-0.002062 0.14391276,0.0174506 0.11117833,0.0411278 0.13688705,0.0411092 0.28482006,-2.0756e-4 0.1101165,-0.030753 0.1843917,-0.0326414 0.27887213,-0.00709 0.0360893,0.009761 0.0825953,0.0216529 0.10334668,0.0264287 0.0207514,0.004775 0.0377297,0.0120069 0.0377297,0.0160682 0,0.0120938 -0.0234078,0.008729 -0.12747778,-0.0183273 -0.0859173,-0.0223368 -0.10751472,-0.025098 -0.16451778,-0.021033 -0.0360891,0.002573 -0.0966207,0.0142582 -0.13451459,0.0259658 -0.0378941,0.0117083 -0.0954726,0.0231338 -0.12795303,0.0253915 -0.0510787,0.003551 -0.0688042,8.1855e-4 -0.13123396,-0.0202294 z M 0.60933656,0.39078586 c -0.0180455,-0.003752 -0.0667652,-0.0168604 -0.10826777,-0.02913 -0.10445904,-0.0308815 -0.15885437,-0.0302035 -0.25966426,0.003236 -0.0642646,0.0213176 -0.089354,0.02582 -0.13291783,0.0238525 -0.02953527,-0.001335 -0.05294276,-0.005559 -0.05201632,-0.009389 9.2123e-4,-0.00383 0.02825858,-0.0079 0.06073916,-0.009045 0.0416274,-0.001467 0.083118,-0.0101118 0.14059434,-0.0292916 0.0961477,-0.0320848 0.13643872,-0.0313664 0.25353755,0.00452 0.11326753,0.0347129 0.18764965,0.0357786 0.30746136,0.004404 0.10313695,-0.0270073 0.12189953,-0.0299061 0.12189953,-0.0188328 0,0.009949 -0.1917759,0.0581247 -0.24934442,0.062637 -0.027067,0.002121 -0.0639766,7.8834e-4 -0.0820213,-0.002964 z M 0.22547747,0.22859661 c -0.0342851,-0.0118245 -0.0867542,-0.0239639 -0.1165985,-0.0269769 -0.02984426,-0.003012 -0.05410957,-0.009199 -0.05392274,-0.0137466 5.0295e-4,-0.0123735 0.08929776,-0.006962 0.13115085,0.007994 0.12488772,0.0446264 0.1688423,0.0458031 0.29316847,0.007848 0.11566376,-0.0353101 0.17987318,-0.0358288 0.31486154,-0.002543 0.0758058,0.018692 0.11373759,0.0315436 0.11374515,0.0385376 6.55e-6,0.006559 -0.005523,0.00899 -0.0147524,0.006483 -0.16822987,-0.0457052 -0.22103777,-0.0556601 -0.2739507,-0.0516429 -0.0306759,0.002328 -0.0882549,0.0143176 -0.12795301,0.0266414 -0.10595377,0.0328919 -0.18543093,0.0351068 -0.26574876,0.007406 z" id="path4470" inkscape:connector-curvature="0" />
</svg>