<?xml version="1.0" encoding="utf-8" standalone="no"?>
<svg xmlns:dc="http://purl.org/dc/elements/1.1/" xmlns:cc="http://creativecommons.org/ns#" xmlns:rdf="http://www.w3.org/1999/02/22-rdf-syntax-ns#" xmlns:svg="http://www.w3.org/2000/svg" xmlns="http://www.w3.org/2000/svg" xmlns:sodipodi="http://sodipodi.sourceforge.net/DTD/sodipodi-0.dtd" xmlns:inkscape="http://www.inkscape.org/namespaces/inkscape" height="1" version="1.1" width="1" id="svg2" inkscape:version="0.91 r13725" sodipodi:docname="sinuousInPhase.svg">
  <metadata id="metadata8">
    <rdf:RDF>
      <cc:Work rdf:about="">
        <dc:format>image/svg+xml</dc:format>
        <dc:type rdf:resource="http://purl.org/dc/dcmitype/StillImage" />
        <dc:title></dc:title>
      </cc:Work>
    </rdf:RDF>
  </metadata>
  <defs id="defs6">
    <pattern width="1" height="1" id="sinuousInPhase周期迂型" patternContentUnits="objectBoundingBox">
      <path style="fill:#000000" d="m 0.25153721,0.79889973 c -0.0583726,-0.0241195 -0.0911661,-0.0316278 -0.13813581,-0.0316278 -0.06619866,0 -0.08226394,-0.014613 -0.02886072,-0.0262505 0.04363434,-0.009508 0.09466231,0.001119 0.18695496,0.0389684 0.0920954,0.0377608 0.14918688,0.0359711 0.2596285,-0.008138 0.1115024,-0.0445341 0.17759648,-0.0456261 0.30747629,-0.005083 0.12902675,0.0402794 0.12933891,0.040417 0.12117394,0.0533549 -0.003952,0.006258 -0.0421507,-0.002298 -0.10263459,-0.022985 -0.13019547,-0.0445303 -0.21241124,-0.0455889 -0.31602989,-0.004067 -0.11161304,0.0447241 -0.19154503,0.0463326 -0.28957284,0.005827 z M 0.25818121,0.6505196 C 0.20212541,0.6267134 0.16468821,0.6174307 0.11838114,0.6158551 0.04044362,0.6132021 0.03114541,0.594396 0.10566774,0.5901413 c 0.0433596,-0.002473 0.0704777,0.003592 0.13818001,0.0309279 0.10707061,0.0432282 0.16762402,0.0445096 0.26835533,0.005678 0.0817924,-0.0315295 0.16364973,-0.0488004 0.20199227,-0.0426161 0.0485124,0.007824 0.24298574,0.071986 0.24298574,0.0801676 0,0.0142085 -0.0288398,0.008744 -0.13032991,-0.0246928 C 0.70766388,0.6003383 0.64313569,0.6016711 0.52779531,0.6457849 0.48751961,0.661188 0.42760525,0.6758709 0.39465253,0.6784124 0.34297023,0.6823974 0.32421943,0.67856707 0.25818105,0.6505213 Z m 0.0699001,-0.12285051 c -0.010985,-0.002407 -0.0484308,-0.016857 -0.0832144,-0.0321148 -0.048525,-0.0212849 -0.079119,-0.0278775 -0.13146281,-0.0283279 -0.04993144,-4.2864e-4 -0.06822428,-0.004122 -0.06823574,-0.0137722 -1.2e-5,-0.009602 0.01675948,-0.0131853 0.06170737,-0.0131853 0.0474878,0 0.0801139,0.007555 0.14146421,0.0327552 0.0710582,0.0291884 0.0869903,0.0321793 0.14631278,0.0274659 0.0366142,-0.00291 0.0905371,-0.0150733 0.11982844,-0.0270324 0.0818441,-0.0334148 0.1486435,-0.0468097 0.19629971,-0.0393637 0.0601576,0.009398 0.24640034,0.0712877 0.24640034,0.0818788 0,0.0140873 -0.0189418,0.0104494 -0.12304394,-0.0236309 -0.11913952,-0.039003 -0.18114015,-0.0412573 -0.27305585,-0.009928 -0.14919186,0.0508516 -0.18007077,0.0568493 -0.23300004,0.0452565 z M 0.23820985,0.34485536 C 0.18454812,0.32174749 0.15323166,0.3146307 0.10340281,0.31422013 0.03195075,0.31362501 0.0166783,0.29903873 0.07677407,0.28877712 c 0.04612279,-0.007876 0.09504856,0.002807 0.18796901,0.0410421 0.0851107,0.0350221 0.13813361,0.0325046 0.25306669,-0.0120148 0.10793968,-0.0418108 0.2060177,-0.0407478 0.33590386,0.003642 0.0511049,0.0174641 0.0940435,0.0371045 0.095419,0.0436431 0.003358,0.0159474 0.006089,0.016501 -0.10796936,-0.0218347 -0.13442701,-0.0451808 -0.19951502,-0.0450826 -0.32496884,4.8425e-4 -0.11873831,0.0431332 -0.17983697,0.0433772 -0.27798466,0.001119 z M 0.26816695,0.20828523 C 0.18185085,0.1690831 0.16187045,0.16365829 0.0984098,0.16219235 0.02037714,0.16038508 0.01589844,0.14091784 0.0925118,0.13655008 c 0.0444535,-0.002533 0.0714766,0.003806 0.15149415,0.0355414 0.11359529,0.0450534 0.13292858,0.0446231 0.27623046,-0.006146 0.11993704,-0.0424911 0.17550994,-0.0421188 0.31545191,0.002113 0.059498,0.0188062 0.10817836,0.0379049 0.10817836,0.0424409 0,0.0144377 -0.0284623,0.009082 -0.13032975,-0.0245307 -0.0868137,-0.0286452 -0.10773716,-0.0319991 -0.16591314,-0.0265956 -0.0366142,0.003402 -0.0965285,0.0183088 -0.1331429,0.0331298 -0.0933277,0.037776 -0.1849588,0.0436469 -0.24631418,0.0157814 z" id="path4421" inkscape:connector-curvature="0" />
    </pattern>
  </defs>
  <sodipodi:namedview pagecolor="#ffffff" bordercolor="#666666" borderopacity="1" objecttolerance="10" gridtolerance="10" guidetolerance="10" inkscape:pageopacity="0" inkscape:pageshadow="2" inkscape:window-width="1600" inkscape:window-height="838" id="namedview4" showgrid="false" inkscape:zoom="256" inkscape:cx="0.5" inkscape:cy="0.5" inkscape:window-x="-8" inkscape:window-y="-8" inkscape:window-maximized="1" inkscape:current-layer="svg2" />
  <path style="fill:#000000" d="m 0.25153721,0.79889973 c -0.0583726,-0.0241195 -0.0911661,-0.0316278 -0.13813581,-0.0316278 -0.06619866,0 -0.08226394,-0.014613 -0.02886072,-0.0262505 0.04363434,-0.009508 0.09466231,0.001119 0.18695496,0.0389684 0.0920954,0.0377608 0.14918688,0.0359711 0.2596285,-0.008138 0.1115024,-0.0445341 0.17759648,-0.0456261 0.30747629,-0.005083 0.12902675,0.0402794 0.12933891,0.040417 0.12117394,0.0533549 -0.003952,0.006258 -0.0421507,-0.002298 -0.10263459,-0.022985 -0.13019547,-0.0445303 -0.21241124,-0.0455889 -0.31602989,-0.004067 -0.11161304,0.0447241 -0.19154503,0.0463326 -0.28957284,0.005827 z M 0.25818121,0.6505196 C 0.20212541,0.6267134 0.16468821,0.6174307 0.11838114,0.6158551 0.04044362,0.6132021 0.03114541,0.594396 0.10566774,0.5901413 c 0.0433596,-0.002473 0.0704777,0.003592 0.13818001,0.0309279 0.10707061,0.0432282 0.16762402,0.0445096 0.26835533,0.005678 0.0817924,-0.0315295 0.16364973,-0.0488004 0.20199227,-0.0426161 0.0485124,0.007824 0.24298574,0.071986 0.24298574,0.0801676 0,0.0142085 -0.0288398,0.008744 -0.13032991,-0.0246928 C 0.70766388,0.6003383 0.64313569,0.6016711 0.52779531,0.6457849 0.48751961,0.661188 0.42760525,0.6758709 0.39465253,0.6784124 0.34297023,0.6823974 0.32421943,0.67856707 0.25818105,0.6505213 Z m 0.0699001,-0.12285051 c -0.010985,-0.002407 -0.0484308,-0.016857 -0.0832144,-0.0321148 -0.048525,-0.0212849 -0.079119,-0.0278775 -0.13146281,-0.0283279 -0.04993144,-4.2864e-4 -0.06822428,-0.004122 -0.06823574,-0.0137722 -1.2e-5,-0.009602 0.01675948,-0.0131853 0.06170737,-0.0131853 0.0474878,0 0.0801139,0.007555 0.14146421,0.0327552 0.0710582,0.0291884 0.0869903,0.0321793 0.14631278,0.0274659 0.0366142,-0.00291 0.0905371,-0.0150733 0.11982844,-0.0270324 0.0818441,-0.0334148 0.1486435,-0.0468097 0.19629971,-0.0393637 0.0601576,0.009398 0.24640034,0.0712877 0.24640034,0.0818788 0,0.0140873 -0.0189418,0.0104494 -0.12304394,-0.0236309 -0.11913952,-0.039003 -0.18114015,-0.0412573 -0.27305585,-0.009928 -0.14919186,0.0508516 -0.18007077,0.0568493 -0.23300004,0.0452565 z M 0.23820985,0.34485536 C 0.18454812,0.32174749 0.15323166,0.3146307 0.10340281,0.31422013 0.03195075,0.31362501 0.0166783,0.29903873 0.07677407,0.28877712 c 0.04612279,-0.007876 0.09504856,0.002807 0.18796901,0.0410421 0.0851107,0.0350221 0.13813361,0.0325046 0.25306669,-0.0120148 0.10793968,-0.0418108 0.2060177,-0.0407478 0.33590386,0.003642 0.0511049,0.0174641 0.0940435,0.0371045 0.095419,0.0436431 0.003358,0.0159474 0.006089,0.016501 -0.10796936,-0.0218347 -0.13442701,-0.0451808 -0.19951502,-0.0450826 -0.32496884,4.8425e-4 -0.11873831,0.0431332 -0.17983697,0.0433772 -0.27798466,0.001119 z M 0.26816695,0.20828523 C 0.18185085,0.1690831 0.16187045,0.16365829 0.0984098,0.16219235 0.02037714,0.16038508 0.01589844,0.14091784 0.0925118,0.13655008 c 0.0444535,-0.002533 0.0714766,0.003806 0.15149415,0.0355414 0.11359529,0.0450534 0.13292858,0.0446231 0.27623046,-0.006146 0.11993704,-0.0424911 0.17550994,-0.0421188 0.31545191,0.002113 0.059498,0.0188062 0.10817836,0.0379049 0.10817836,0.0424409 0,0.0144377 -0.0284623,0.009082 -0.13032975,-0.0245307 -0.0868137,-0.0286452 -0.10773716,-0.0319991 -0.16591314,-0.0265956 -0.0366142,0.003402 -0.0965285,0.0183088 -0.1331429,0.0331298 -0.0933277,0.037776 -0.1849588,0.0436469 -0.24631418,0.0157814 z" id="path4421" inkscape:connector-curvature="0" />
</svg>