<?xml version="1.0" encoding="UTF-8" standalone="no"?>
<!-- Created with Inkscape (http://www.inkscape.org/) -->

<svg
   xmlns:dc="http://purl.org/dc/elements/1.1/"
   xmlns:cc="http://creativecommons.org/ns#"
   xmlns:rdf="http://www.w3.org/1999/02/22-rdf-syntax-ns#"
   xmlns:svg="http://www.w3.org/2000/svg"
   xmlns="http://www.w3.org/2000/svg"
   xmlns:sodipodi="http://sodipodi.sourceforge.net/DTD/sodipodi-0.dtd"
   xmlns:inkscape="http://www.inkscape.org/namespaces/inkscape"
   width="210mm"
   height="297mm"
   viewBox="0 0 744.09448819 1052.3622047"
   id="svg85069"
   version="1.1"
   inkscape:version="0.91 r13725"
   sodipodi:docname="CSB0020104C.svg">
  <defs id="defs85071">
     <pattern patternUnits="userSpaceOnUse" width="40" height="20" id="石膏质粉砂岩">
	      <svg:path d="M 3 0 v10" style="stroke: black; fill: none" stroke-width="1" />
		   <svg:path d="M 6 0 v10" style="stroke: black; fill: none" stroke-width="1" />
		   <svg:path d="M 9 0 v10" style="stroke: black; fill: none" stroke-width="1" />
		   <svg:path d="M 12 0 v10" style="stroke: black; fill: none" stroke-width="1" />
		<circle cx="23" cy="5" r="1.5" stroke="black" stroke-width="0.5" fill="black" />
	    <circle cx="27" cy="5" r="1.5" stroke="black" stroke-width="0.5" fill="black" />
		  <svg:path d="M 0 9.5 h 40" style="stroke: black; fill: none" stroke-width="0.5" />
		    <circle cx="13" cy="15" r="1.5" stroke="black" stroke-width="0.5" fill="black" />
	    <circle cx="17" cy="15" r="1.5" stroke="black" stroke-width="0.5" fill="black" />
		<circle cx="33" cy="15" r="1.5" stroke="black" stroke-width="0.5" fill="black" />
	    <circle cx="37" cy="15" r="1.5" stroke="black" stroke-width="0.5" fill="black" />
		  <svg:path d="M 0 19.5 h 40" style="stroke: black; fill: none" stroke-width="0.5" />
    </pattern>
      <pattern patternUnits="userSpaceOnUse" width="18" height="10" id="石膏质粉砂岩">
		   <svg:path d="M 1 0 v4.5" style="stroke: black; fill: none" stroke-width="0.5" />
		   <svg:path d="M 2 0 v4.5" style="stroke: black; fill: none" stroke-width="0.5" />
		   <svg:path d="M 3 0 v4.5" style="stroke: black; fill: none" stroke-width="0.5" />
		   <svg:path d="M 4 0 v4.5" style="stroke: black; fill: none" stroke-width="0.5" />
		  <circle cx="8" cy="2.5" r="0.3" stroke="black" stroke-width="0.3" fill="black" />
		  <circle cx="14" cy="2.5" r="0.3" stroke="black" stroke-width="0.3" fill="black" />
		  <svg:path d="M 0 4.5 h 18" style="stroke: black; fill: none" stroke-width="0.5" />
		  <circle cx="4" cy="7.5" r="0.3" stroke="black" stroke-width="0.3" fill="black" />
		  <circle cx="10" cy="7.5" r="0.3" stroke="black" stroke-width="0.3" fill="black" />
		  <svg:path d="M 14 5 v4.5" style="stroke: black; fill: none" stroke-width="0.5" />
		   <svg:path d="M 15 5 v4.5" style="stroke: black; fill: none" stroke-width="0.5" />
		   <svg:path d="M 16 5 v4.5" style="stroke: black; fill: none" stroke-width="0.5" />
		   <svg:path d="M 17 5 v4.5" style="stroke: black; fill: none" stroke-width="0.5" />
		  <svg:path d="M 0 9.5 h 18" style="stroke: black; fill: none" stroke-width="0.5" />
    </pattern>
  </defs>
  <g
     inkscape:label="Layer 1"
     inkscape:groupmode="layer"
     id="layer1">
    <rect
       style="fill:url(#石膏质粉砂岩);stroke:none"
       width="100"
       height="100"
       x="0"
       y="0"
       id="rect3353"
        />
  </g>
</svg>
