<?xml version="1.0" encoding="UTF-8" standalone="no"?>
<!-- Created with Inkscape (http://www.inkscape.org/) -->

<svg
   xmlns:osb="http://www.openswatchbook.org/uri/2009/osb"
   xmlns:dc="http://purl.org/dc/elements/1.1/"
   xmlns:cc="http://creativecommons.org/ns#"
   xmlns:rdf="http://www.w3.org/1999/02/22-rdf-syntax-ns#"
   xmlns:svg="http://www.w3.org/2000/svg"
   xmlns="http://www.w3.org/2000/svg"
   xmlns:sodipodi="http://sodipodi.sourceforge.net/DTD/sodipodi-0.dtd"
   xmlns:inkscape="http://www.inkscape.org/namespaces/inkscape"
   width="16pt"
   height="16pt"
   viewBox="0 0 20 20"
   id="svg2"
   version="1.1"
   inkscape:version="0.91 r13725"
   sodipodi:docname="16x16CurvePaste.svg">
  <defs
     id="defs4">
    <inkscape:path-effect
       effect="skeletal"
       id="path-effect4355"
       is_visible="true"
       pattern="m 2.1805029,1035.9976 c 0,-2.76 2.24,-5 5,-5 2.76,0 5.0000001,2.24 5.0000001,5 0,2.76 -2.2400001,5 -5.0000001,5 -2.76,0 -5,-2.24 -5,-5 z"
       copytype="single_stretched"
       prop_scale="1"
       scale_y_rel="false"
       spacing="0"
       normal_offset="0"
       tang_offset="0"
       prop_units="false"
       vertical_pattern="false"
       fuse_tolerance="0" />
    <inkscape:path-effect
       effect="skeletal"
       id="path-effect4340"
       is_visible="true"
       pattern="m 0,1037.3622 c 0,-2.76 2.24,-5 5,-5 2.76,0 5,2.24 5,5 0,2.76 -2.24,5 -5,5 -2.76,0 -5,-2.24 -5,-5 z"
       copytype="single_stretched"
       prop_scale="1"
       scale_y_rel="false"
       spacing="0"
       normal_offset="0"
       tang_offset="0"
       prop_units="false"
       vertical_pattern="false"
       fuse_tolerance="0" />
    <inkscape:path-effect
       effect="spiro"
       id="path-effect4338"
       is_visible="true" />
    <inkscape:perspective
       sodipodi:type="inkscape:persp3d"
       inkscape:vp_x="0 : 10 : 1"
       inkscape:vp_y="0 : 1000 : 0"
       inkscape:vp_z="20 : 10 : 1"
       inkscape:persp3d-origin="10 : 6.6666667 : 1"
       id="perspective4144" />
    <linearGradient
       id="linearGradient5623"
       osb:paint="solid">
      <stop
         style="stop-color:#0000ff;stop-opacity:0.58823532;"
         offset="0"
         id="stop5625" />
    </linearGradient>
    <linearGradient
       id="linearGradient5595"
       osb:paint="solid">
      <stop
         style="stop-color:#ff0000;stop-opacity:1;"
         offset="0"
         id="stop5597" />
    </linearGradient>
    <linearGradient
       id="linearGradient5589"
       osb:paint="solid">
      <stop
         style="stop-color:#ff0000;stop-opacity:1;"
         offset="0"
         id="stop5591" />
    </linearGradient>
    <pattern
       y="0"
       x="0"
       height="6"
       width="6"
       patternUnits="userSpaceOnUse"
       id="EMFhbasepattern" />
  </defs>
  <sodipodi:namedview
     id="base"
     pagecolor="#ffffff"
     bordercolor="#000000"
     borderopacity="1"
     inkscape:pageopacity="0"
     inkscape:pageshadow="2"
     inkscape:zoom="19.545781"
     inkscape:cx="13.733266"
     inkscape:cy="7.2263882"
     inkscape:document-units="px"
     inkscape:current-layer="layer1"
     showgrid="false"
     inkscape:snap-grids="false"
     inkscape:window-width="1600"
     inkscape:window-height="838"
     inkscape:window-x="-8"
     inkscape:window-y="-8"
     inkscape:window-maximized="1"
     units="pt"
     showguides="true"
     borderlayer="true" />
  <metadata
     id="metadata7">
    <rdf:RDF>
      <cc:Work
         rdf:about="">
        <dc:format>image/svg+xml</dc:format>
        <dc:type
           rdf:resource="http://purl.org/dc/dcmitype/StillImage" />
        <dc:title></dc:title>
      </cc:Work>
    </rdf:RDF>
  </metadata>
  <g
     inkscape:label="Layer 1"
     inkscape:groupmode="layer"
     id="layer1"
     transform="translate(0,-1032.3622)">
    <path
       style="fill:#d35f5f;fill-opacity:1;fill-rule:nonzero;stroke:#0000ff;stroke-width:1;stroke-miterlimit:4;stroke-dasharray:none;stroke-opacity:1"
       d="m 7.0256467,1051.1319 c -0.013766,-0.506 -0.7725106,-0.6773 -0.2480869,-1.0173 0.074521,-0.4352 0.2790329,-1.1319 0.1117737,-1.3322 0.5662846,0.1956 0.0103,0.9417 0.0075,1.409 -0.483821,0.3448 0.1842777,0.2589 0.1812586,0.7386 0.059281,0.2658 0.3363518,0.3528 -0.052447,0.2019 z m -0.8142163,-2.4305 c 0.073204,-0.3297 -0.096357,-0.5052 0.4146437,-0.5978 0.4658335,-0.018 1.5016308,-0.4444 0.6189126,-0.6555 0.3523549,-0.024 1.1355327,-0.2755 0.3823059,-0.3175 0.3220177,-0.067 1.0270202,0.1588 0.2943124,0.2195 -0.3283118,0.01 -0.7790098,0.1362 -0.2044086,0.2097 0.2308404,0.5165 -1.0078446,0.395 -1.3222986,0.7612 -0.1858293,0.019 0.2528696,0.6601 -0.1834674,0.3804 z m 0.4943477,-1.6242 c -0.7242008,-0.027 0.7877082,-0.2368 -0.045775,-0.2543 -0.3216171,-0.036 -1.1960488,-0.1102 -1.1663312,-0.1848 0.4283951,0.1239 1.4616208,0.061 1.5044635,0.2962 -0.6483393,0.083 0.7738879,0.2442 -0.012031,0.1707 l -0.140484,-0.014 -0.1398433,-0.014 0,2e-4 z m -1.4636423,-0.559 c -0.5537116,-0.2061 -1.2010578,-0.04 -1.7289907,-0.2994 0.2429933,-0.011 1.1922455,-0.1245 0.4869039,-0.2265 0.2620817,-0.06 1.2427066,-0.1494 0.5228048,-0.3718 -0.8009243,-0.2271 0.7393701,-0.1175 0.9036223,-0.4026 -0.9380711,-0.2324 0.6127497,-0.3566 0.9368255,-0.45 0.2961479,-0.059 0.6904967,-0.038 0.1690959,0.035 -0.3181153,0.076 -1.3638119,0.075 -1.146292,0.3443 0.8196214,0.1244 -0.5950068,0.3098 -0.8479591,0.3524 -0.032187,0.1806 0.9451871,0.3429 0.1723079,0.4011 -0.1661053,-0.01 -0.6165472,0.095 -0.2339206,0.2184 -0.2991409,0.073 -1.1126786,0.1373 -0.3442891,0.2041 0.3330654,0.036 1.2673631,0.1077 1.211897,0.2349 -0.013237,0.012 -0.10231,-7e-4 -0.1020058,-0.04 z m 1.7350484,-1.956 c 0.3257847,-0.1446 1.592126,-0.3455 0.6922884,-0.654 -0.1568677,-0.1998 1.2034974,-0.2338 0.3775595,-0.3267 -0.2824657,0.01 -0.9442281,-0.214 -0.275672,-0.2706 0.8669939,-0.323 0.3677432,-1.4161 -0.075504,-1.4948 0.5142401,0.037 0.8620538,-0.5887 0.1702564,-0.6656 -0.4474096,-0.1847 -1.5609561,-0.2207 -1.681908,-0.2985 0.7051146,0 1.4335844,0.1137 2.081954,0.3901 0.501632,0.5095 -1.146018,0.6034 -0.1003597,0.8227 0.7407631,0.4564 -0.2709697,1.4056 -0.5255883,1.3955 0.3562305,0.1154 1.3484283,0.1462 0.490711,0.2851 -0.3660557,0.064 -0.5410933,0.1132 -0.096993,0.274 0.4169477,0.4133 -0.8678947,0.4509 -1.0567441,0.5428 z m -2.3747941,-3.7598 c -0.3380541,-0.067 -1.4850277,-0.03 -1.2708092,-0.345 0.8874623,-0.3033 -0.8992342,-0.092 -0.9255265,-0.6338 0.029764,-0.4405 -1.78059927,-0.3382 -0.8002261,-0.6555 0.3331711,-0.1616 1.1804259,-0.1335 0.9562233,-0.4811 0.2576705,-0.1688 1.1316341,-0.5972 0.3279652,-0.6428 -0.4168656,-0.1576 0.9366035,-0.1494 0.4147247,-0.4176 0.6067056,-0.1329 1.2760423,-0.043 1.8344026,-0.3538 -0.2664674,-0.017 -1.3483542,-0.1186 -0.5532724,-0.3158 0.6044561,-0.053 -0.9670925,-0.3931 -0.1420158,-0.58 0.2722732,-0.072 1.0834439,-0.06 0.584967,-0.3171 0.3048502,-0.1641 1.3243439,0.05 0.9362377,-0.3314 0.251478,-0.2105 1.3069859,-0.2186 1.0710145,-0.178 -0.2935615,0.064 -1.5954432,0.1654 -0.7371534,0.3218 0.1272306,0.1632 -0.8557035,0.1085 -1.1611111,0.1793 -0.4724196,0.018 0.9365986,0.1851 0.027672,0.2389 -0.4562415,-0.013 -1.2037402,0.291 -0.385347,0.5298 0.2045101,0.089 -0.8665697,0.359 -0.1091363,0.3446 0.2647031,0.01 1.1775514,0.1359 0.3978699,0.1988 -0.7010316,0.199 -1.4357398,0.273 -2.0785195,0.5698 0.029067,0.1564 0.8345404,0.2351 0.1792122,0.4941 -0.3607443,0.083 -0.6186533,0.433 -0.3664772,0.4696 -0.3232325,0.1463 -1.4713221,0.2227 -1.2471498,0.4867 0.5483938,0.07 1.0657383,0.2146 1.2428497,0.691 0.3009902,0.1186 1.501928,0.1948 0.6638273,0.3768 -0.459021,0.2286 0.6781117,0.2269 0.8737661,0.2769 0.3323243,0.017 1.633733,0.1308 0.7004141,0.096 -0.1448152,-0.01 -0.2903155,-0.015 -0.4344019,-0.022 z m 2.9466826,-5.3458 c 0.2912744,0 -0.2206303,-0.4479 0.2306438,-0.2727 -0.1897266,0.2187 0.5033202,0.1896 -0.01727,0.2849 -0.068748,0.028 -0.5904049,0.065 -0.213374,-0.012 z m 0.445869,-0.3395 c -0.4535372,-0.1508 -1.5599627,0.051 -0.9901773,-0.7122 0.4108336,-0.2925 -1.0964122,-0.2337 -0.2603468,-0.3912 0.3263198,-0.1622 0.078769,-1.2052 0.3563748,-0.4213 0.050453,0.3632 -0.78929,0.628 -0.026646,0.6139 0.5384349,0.022 -0.5510593,0.739 0.2356756,0.7936 0.1073874,-0.062 1.3444847,0.1724 0.6851198,0.1172 z"
       id="path4149"
       inkscape:connector-curvature="0" />
    <path
       style="fill:#d35f5f;fill-opacity:1;fill-rule:nonzero;stroke:#0000ff;stroke-width:1;stroke-miterlimit:4;stroke-dasharray:none;stroke-opacity:1"
       d="m 16.348879,1051.109 c -0.01377,-0.506 -0.77251,-0.6773 -0.248086,-1.0173 0.07452,-0.4352 0.279032,-1.1319 0.111773,-1.3322 0.566285,0.1956 0.0103,0.9417 0.0075,1.409 -0.483821,0.3448 0.184278,0.2589 0.181259,0.7386 0.05928,0.2658 0.336352,0.3528 -0.05245,0.2019 z m -0.814216,-2.4305 c 0.0732,-0.3297 -0.09636,-0.5052 0.414644,-0.5978 0.465833,-0.018 1.501631,-0.4444 0.618912,-0.6555 0.352355,-0.024 1.135533,-0.2755 0.382306,-0.3175 0.322018,-0.067 1.027021,0.1588 0.294313,0.2195 -0.328312,0.01 -0.77901,0.1362 -0.204409,0.2097 0.230841,0.5165 -1.007844,0.395 -1.322298,0.7612 -0.18583,0.019 0.252869,0.6601 -0.183468,0.3804 z m 0.494348,-1.6242 c -0.724201,-0.027 0.787708,-0.2368 -0.04578,-0.2543 -0.321617,-0.036 -1.196049,-0.1102 -1.166331,-0.1848 0.428395,0.1239 1.46162,0.061 1.504463,0.2962 -0.648339,0.083 0.773888,0.2442 -0.01203,0.1707 l -0.140484,-0.014 -0.139843,-0.014 0,2e-4 z m -1.463642,-0.559 c -0.553712,-0.2061 -1.201058,-0.04 -1.728991,-0.2994 0.242993,-0.011 1.192245,-0.1245 0.486904,-0.2265 0.262081,-0.06 1.242706,-0.1494 0.522805,-0.3718 -0.800925,-0.2271 0.73937,-0.1175 0.903622,-0.4026 -0.938071,-0.2324 0.61275,-0.3566 0.936825,-0.45 0.296148,-0.059 0.690497,-0.038 0.169096,0.035 -0.318115,0.076 -1.363812,0.075 -1.146292,0.3443 0.819622,0.1244 -0.595007,0.3098 -0.847959,0.3524 -0.03219,0.1806 0.945187,0.3429 0.172308,0.4011 -0.166105,-0.01 -0.616547,0.095 -0.233921,0.2184 -0.29914,0.073 -1.112678,0.1373 -0.344289,0.2041 0.333066,0.036 1.267363,0.1077 1.211897,0.2349 -0.01324,0.012 -0.10231,-7e-4 -0.102005,-0.04 z m 1.735048,-1.956 c 0.325785,-0.1446 1.592126,-0.3455 0.692288,-0.654 -0.156867,-0.1998 1.203498,-0.2338 0.37756,-0.3267 -0.282466,0.01 -0.944228,-0.214 -0.275672,-0.2706 0.866994,-0.323 0.367743,-1.4161 -0.0755,-1.4948 0.51424,0.037 0.862054,-0.5887 0.170256,-0.6656 -0.447409,-0.1847 -1.560956,-0.2207 -1.681908,-0.2985 0.705115,0 1.433585,0.1137 2.081954,0.3901 0.501632,0.5095 -1.146018,0.6034 -0.100359,0.8227 0.740762,0.4564 -0.27097,1.4056 -0.525589,1.3955 0.356231,0.1154 1.348428,0.1462 0.490711,0.2851 -0.366055,0.064 -0.541093,0.1132 -0.09699,0.274 0.416948,0.4133 -0.867894,0.4509 -1.056744,0.5428 z m -2.374794,-3.7598 c -0.338054,-0.067 -1.485028,-0.03 -1.270809,-0.345 0.887462,-0.3033 -0.899235,-0.092 -0.925527,-0.6338 0.02976,-0.4405 -1.7805991,-0.3382 -0.800226,-0.6555 0.333171,-0.1616 1.180426,-0.1335 0.956223,-0.4811 0.257671,-0.1688 1.131634,-0.5972 0.327966,-0.6428 -0.416866,-0.1576 0.936603,-0.1494 0.414724,-0.4176 0.606706,-0.1329 1.276043,-0.043 1.834403,-0.3538 -0.266468,-0.017 -1.348354,-0.1186 -0.553273,-0.3158 0.604457,-0.053 -0.967092,-0.3931 -0.142015,-0.58 0.272273,-0.072 1.083444,-0.06 0.584967,-0.3171 0.30485,-0.1641 1.324344,0.05 0.936237,-0.3314 0.251478,-0.2105 1.306986,-0.2186 1.071015,-0.178 -0.293562,0.064 -1.595443,0.1654 -0.737154,0.3218 0.127231,0.1632 -0.855703,0.1085 -1.161111,0.1793 -0.472419,0.018 0.936599,0.1851 0.02767,0.2389 -0.456241,-0.013 -1.20374,0.291 -0.385347,0.5298 0.20451,0.089 -0.866569,0.359 -0.109136,0.3446 0.264703,0.01 1.177551,0.1359 0.39787,0.1988 -0.701032,0.199 -1.43574,0.273 -2.07852,0.5698 0.02907,0.1564 0.834541,0.2351 0.179213,0.4941 -0.360745,0.083 -0.618654,0.433 -0.366478,0.4696 -0.323232,0.1463 -1.471322,0.2227 -1.247149,0.4867 0.548393,0.07 1.065738,0.2146 1.242849,0.691 0.300991,0.1186 1.501928,0.1948 0.663828,0.3768 -0.459021,0.2286 0.678111,0.2269 0.873766,0.2769 0.332324,0.017 1.633733,0.1308 0.700414,0.096 -0.144815,-0.01 -0.290316,-0.015 -0.434402,-0.022 z m 2.946682,-5.3458 c 0.291275,0 -0.22063,-0.4479 0.230644,-0.2727 -0.189726,0.2187 0.50332,0.1896 -0.01727,0.2849 -0.06875,0.028 -0.590405,0.065 -0.213374,-0.012 z m 0.445869,-0.3395 c -0.453537,-0.1508 -1.559962,0.051 -0.990177,-0.7122 0.410834,-0.2925 -1.096412,-0.2337 -0.260347,-0.3912 0.32632,-0.1622 0.07877,-1.2052 0.356375,-0.4213 0.05045,0.3632 -0.78929,0.628 -0.02665,0.6139 0.538435,0.022 -0.551059,0.739 0.235676,0.7936 0.107387,-0.062 1.344484,0.1724 0.68512,0.1172 z"
       id="path4149-2"
       inkscape:connector-curvature="0" />
    <rect
       style="opacity:0.9906977;fill:none;fill-opacity:1;stroke:#ff0000;stroke-width:0.80000001;stroke-linejoin:bevel;stroke-miterlimit:0;stroke-dasharray:none;stroke-opacity:1"
       id="rect5148"
       width="9.1579876"
       height="19.134563"
       x="0.76742905"
       y="1032.9718" />
  </g>
</svg>
