<?xml version="1.0" encoding="UTF-8" standalone="no"?>
<!-- Created with Inkscape (http://www.inkscape.org/) -->

<svg
   xmlns:osb="http://www.openswatchbook.org/uri/2009/osb"
   xmlns:dc="http://purl.org/dc/elements/1.1/"
   xmlns:cc="http://creativecommons.org/ns#"
   xmlns:rdf="http://www.w3.org/1999/02/22-rdf-syntax-ns#"
   xmlns:svg="http://www.w3.org/2000/svg"
   xmlns="http://www.w3.org/2000/svg"
   xmlns:sodipodi="http://sodipodi.sourceforge.net/DTD/sodipodi-0.dtd"
   xmlns:inkscape="http://www.inkscape.org/namespaces/inkscape"
   width="16pt"
   height="16pt"
   viewBox="0 0 20 20"
   id="svg2"
   version="1.1"
   inkscape:version="0.91 r13725"
   sodipodi:docname="16x16CurveSet.svg">
  <defs
     id="defs4">
    <inkscape:path-effect
       effect="skeletal"
       id="path-effect4355"
       is_visible="true"
       pattern="m 2.1805029,1035.9976 c 0,-2.76 2.24,-5 5,-5 2.76,0 5.0000001,2.24 5.0000001,5 0,2.76 -2.2400001,5 -5.0000001,5 -2.76,0 -5,-2.24 -5,-5 z"
       copytype="single_stretched"
       prop_scale="1"
       scale_y_rel="false"
       spacing="0"
       normal_offset="0"
       tang_offset="0"
       prop_units="false"
       vertical_pattern="false"
       fuse_tolerance="0" />
    <inkscape:path-effect
       effect="skeletal"
       id="path-effect4340"
       is_visible="true"
       pattern="m 0,1037.3622 c 0,-2.76 2.24,-5 5,-5 2.76,0 5,2.24 5,5 0,2.76 -2.24,5 -5,5 -2.76,0 -5,-2.24 -5,-5 z"
       copytype="single_stretched"
       prop_scale="1"
       scale_y_rel="false"
       spacing="0"
       normal_offset="0"
       tang_offset="0"
       prop_units="false"
       vertical_pattern="false"
       fuse_tolerance="0" />
    <inkscape:path-effect
       effect="spiro"
       id="path-effect4338"
       is_visible="true" />
    <inkscape:perspective
       sodipodi:type="inkscape:persp3d"
       inkscape:vp_x="0 : 10 : 1"
       inkscape:vp_y="0 : 1000 : 0"
       inkscape:vp_z="20 : 10 : 1"
       inkscape:persp3d-origin="10 : 6.6666667 : 1"
       id="perspective4144" />
    <linearGradient
       id="linearGradient5623"
       osb:paint="solid">
      <stop
         style="stop-color:#0000ff;stop-opacity:0.58823532;"
         offset="0"
         id="stop5625" />
    </linearGradient>
    <linearGradient
       id="linearGradient5595"
       osb:paint="solid">
      <stop
         style="stop-color:#ff0000;stop-opacity:1;"
         offset="0"
         id="stop5597" />
    </linearGradient>
    <linearGradient
       id="linearGradient5589"
       osb:paint="solid">
      <stop
         style="stop-color:#ff0000;stop-opacity:1;"
         offset="0"
         id="stop5591" />
    </linearGradient>
    <pattern
       y="0"
       x="0"
       height="6"
       width="6"
       patternUnits="userSpaceOnUse"
       id="EMFhbasepattern" />
  </defs>
  <sodipodi:namedview
     id="base"
     pagecolor="#ffffff"
     bordercolor="#000000"
     borderopacity="1"
     inkscape:pageopacity="0"
     inkscape:pageshadow="2"
     inkscape:zoom="19.545781"
     inkscape:cx="13.733266"
     inkscape:cy="7.2263882"
     inkscape:document-units="px"
     inkscape:current-layer="layer1"
     showgrid="false"
     inkscape:snap-grids="false"
     inkscape:window-width="1600"
     inkscape:window-height="838"
     inkscape:window-x="-8"
     inkscape:window-y="-8"
     inkscape:window-maximized="1"
     units="pt"
     showguides="true"
     borderlayer="true" />
  <metadata
     id="metadata7">
    <rdf:RDF>
      <cc:Work
         rdf:about="">
        <dc:format>image/svg+xml</dc:format>
        <dc:type
           rdf:resource="http://purl.org/dc/dcmitype/StillImage" />
        <dc:title></dc:title>
      </cc:Work>
    </rdf:RDF>
  </metadata>
  <g
     inkscape:label="Layer 1"
     inkscape:groupmode="layer"
     id="layer1"
     transform="translate(0,-1032.3622)">
    <path
       style="fill:#d35f5f;fill-opacity:1;fill-rule:nonzero;stroke:#0000ff;stroke-width:1;stroke-miterlimit:4;stroke-dasharray:none;stroke-opacity:1"
       d="m 7.0256467,1051.1319 c -0.013766,-0.506 -0.7725106,-0.6773 -0.2480869,-1.0173 0.074521,-0.4352 0.2790329,-1.1319 0.1117737,-1.3322 0.5662846,0.1956 0.0103,0.9417 0.0075,1.409 -0.483821,0.3448 0.1842777,0.2589 0.1812586,0.7386 0.059281,0.2658 0.3363518,0.3528 -0.052447,0.2019 z m -0.8142163,-2.4305 c 0.073204,-0.3297 -0.096357,-0.5052 0.4146437,-0.5978 0.4658335,-0.018 1.5016308,-0.4444 0.6189126,-0.6555 0.3523549,-0.024 1.1355327,-0.2755 0.3823059,-0.3175 0.3220177,-0.067 1.0270202,0.1588 0.2943124,0.2195 -0.3283118,0.01 -0.7790098,0.1362 -0.2044086,0.2097 0.2308404,0.5165 -1.0078446,0.395 -1.3222986,0.7612 -0.1858293,0.019 0.2528696,0.6601 -0.1834674,0.3804 z m 0.4943477,-1.6242 c -0.7242008,-0.027 0.7877082,-0.2368 -0.045775,-0.2543 -0.3216171,-0.036 -1.1960488,-0.1102 -1.1663312,-0.1848 0.4283951,0.1239 1.4616208,0.061 1.5044635,0.2962 -0.6483393,0.083 0.7738879,0.2442 -0.012031,0.1707 l -0.140484,-0.014 -0.1398433,-0.014 0,2e-4 z m -1.4636423,-0.559 c -0.5537116,-0.2061 -1.2010578,-0.04 -1.7289907,-0.2994 0.2429933,-0.011 1.1922455,-0.1245 0.4869039,-0.2265 0.2620817,-0.06 1.2427066,-0.1494 0.5228048,-0.3718 -0.8009243,-0.2271 0.7393701,-0.1175 0.9036223,-0.4026 -0.9380711,-0.2324 0.6127497,-0.3566 0.9368255,-0.45 0.2961479,-0.059 0.6904967,-0.038 0.1690959,0.035 -0.3181153,0.076 -1.3638119,0.075 -1.146292,0.3443 0.8196214,0.1244 -0.5950068,0.3098 -0.8479591,0.3524 -0.032187,0.1806 0.9451871,0.3429 0.1723079,0.4011 -0.1661053,-0.01 -0.6165472,0.095 -0.2339206,0.2184 -0.2991409,0.073 -1.1126786,0.1373 -0.3442891,0.2041 0.3330654,0.036 1.2673631,0.1077 1.211897,0.2349 -0.013237,0.012 -0.10231,-7e-4 -0.1020058,-0.04 z m 1.7350484,-1.956 c 0.3257847,-0.1446 1.592126,-0.3455 0.6922884,-0.654 -0.1568677,-0.1998 1.2034974,-0.2338 0.3775595,-0.3267 -0.2824657,0.01 -0.9442281,-0.214 -0.275672,-0.2706 0.8669939,-0.323 0.3677432,-1.4161 -0.075504,-1.4948 0.5142401,0.037 0.8620538,-0.5887 0.1702564,-0.6656 -0.4474096,-0.1847 -1.5609561,-0.2207 -1.681908,-0.2985 0.7051146,0 1.4335844,0.1137 2.081954,0.3901 0.501632,0.5095 -1.146018,0.6034 -0.1003597,0.8227 0.7407631,0.4564 -0.2709697,1.4056 -0.5255883,1.3955 0.3562305,0.1154 1.3484283,0.1462 0.490711,0.2851 -0.3660557,0.064 -0.5410933,0.1132 -0.096993,0.274 0.4169477,0.4133 -0.8678947,0.4509 -1.0567441,0.5428 z m -2.3747941,-3.7598 c -0.3380541,-0.067 -1.4850277,-0.03 -1.2708092,-0.345 0.8874623,-0.3033 -0.8992342,-0.092 -0.9255265,-0.6338 0.029764,-0.4405 -1.78059927,-0.3382 -0.8002261,-0.6555 0.3331711,-0.1616 1.1804259,-0.1335 0.9562233,-0.4811 0.2576705,-0.1688 1.1316341,-0.5972 0.3279652,-0.6428 -0.4168656,-0.1576 0.9366035,-0.1494 0.4147247,-0.4176 0.6067056,-0.1329 1.2760423,-0.043 1.8344026,-0.3538 -0.2664674,-0.017 -1.3483542,-0.1186 -0.5532724,-0.3158 0.6044561,-0.053 -0.9670925,-0.3931 -0.1420158,-0.58 0.2722732,-0.072 1.0834439,-0.06 0.584967,-0.3171 0.3048502,-0.1641 1.3243439,0.05 0.9362377,-0.3314 0.251478,-0.2105 1.3069859,-0.2186 1.0710145,-0.178 -0.2935615,0.064 -1.5954432,0.1654 -0.7371534,0.3218 0.1272306,0.1632 -0.8557035,0.1085 -1.1611111,0.1793 -0.4724196,0.018 0.9365986,0.1851 0.027672,0.2389 -0.4562415,-0.013 -1.2037402,0.291 -0.385347,0.5298 0.2045101,0.089 -0.8665697,0.359 -0.1091363,0.3446 0.2647031,0.01 1.1775514,0.1359 0.3978699,0.1988 -0.7010316,0.199 -1.4357398,0.273 -2.0785195,0.5698 0.029067,0.1564 0.8345404,0.2351 0.1792122,0.4941 -0.3607443,0.083 -0.6186533,0.433 -0.3664772,0.4696 -0.3232325,0.1463 -1.4713221,0.2227 -1.2471498,0.4867 0.5483938,0.07 1.0657383,0.2146 1.2428497,0.691 0.3009902,0.1186 1.501928,0.1948 0.6638273,0.3768 -0.459021,0.2286 0.6781117,0.2269 0.8737661,0.2769 0.3323243,0.017 1.633733,0.1308 0.7004141,0.096 -0.1448152,-0.01 -0.2903155,-0.015 -0.4344019,-0.022 z m 2.9466826,-5.3458 c 0.2912744,0 -0.2206303,-0.4479 0.2306438,-0.2727 -0.1897266,0.2187 0.5033202,0.1896 -0.01727,0.2849 -0.068748,0.028 -0.5904049,0.065 -0.213374,-0.012 z m 0.445869,-0.3395 c -0.4535372,-0.1508 -1.5599627,0.051 -0.9901773,-0.7122 0.4108336,-0.2925 -1.0964122,-0.2337 -0.2603468,-0.3912 0.3263198,-0.1622 0.078769,-1.2052 0.3563748,-0.4213 0.050453,0.3632 -0.78929,0.628 -0.026646,0.6139 0.5384349,0.022 -0.5510593,0.739 0.2356756,0.7936 0.1073874,-0.062 1.3444847,0.1724 0.6851198,0.1172 z"
       id="path4149"
       inkscape:connector-curvature="0" />
    <path
       style="opacity:0.9906977;fill:#ff0000;fill-opacity:1;stroke:#ff0000;stroke-width:0.80000001;stroke-linejoin:bevel;stroke-miterlimit:0;stroke-dasharray:none;stroke-opacity:1"
       d="m 9.8690283,1043.521 c 1.1118777,0.9233 2.0739607,1.3308 3.0615727,2.3923 0.365791,0.2483 0.499822,-0.047 0.733785,-0.2289 1.158004,-2.1674 3.219066,-5.9099 4.460742,-7.8684 -0.581737,1.0895 0.740415,0.2345 0.287621,0.7462 -0.632638,1.0552 -4.32084,7.343 -4.979598,8.3783 -0.0651,0.6194 -1.933948,-1.0384 -2.176932,-1.4635 -0.725128,-0.7307 -2.3612532,-2.1276 -0.986326,-0.9101 -0.223994,-0.2209 -0.3104557,-0.8158 -0.4008647,-1.0459 z"
       id="path4467"
       inkscape:connector-curvature="0"
       sodipodi:nodetypes="ccccccccc" />
  </g>
</svg>
