<?xml version="1.0" encoding="UTF-8" standalone="no"?>
<!-- Created with Inkscape (http://www.inkscape.org/) -->

<svg
   xmlns:osb="http://www.openswatchbook.org/uri/2009/osb"
   xmlns:dc="http://purl.org/dc/elements/1.1/"
   xmlns:cc="http://creativecommons.org/ns#"
   xmlns:rdf="http://www.w3.org/1999/02/22-rdf-syntax-ns#"
   xmlns:svg="http://www.w3.org/2000/svg"
   xmlns="http://www.w3.org/2000/svg"
   xmlns:sodipodi="http://sodipodi.sourceforge.net/DTD/sodipodi-0.dtd"
   xmlns:inkscape="http://www.inkscape.org/namespaces/inkscape"
   width="16pt"
   height="16pt"
   viewBox="0 0 20 20"
   id="svg2"
   version="1.1"
   inkscape:version="0.91 r13725"
   sodipodi:docname="16x16Curve.svg">
  <defs
     id="defs4">
    <inkscape:perspective
       sodipodi:type="inkscape:persp3d"
       inkscape:vp_x="0 : 10 : 1"
       inkscape:vp_y="0 : 1000 : 0"
       inkscape:vp_z="20 : 10 : 1"
       inkscape:persp3d-origin="10 : 6.6666667 : 1"
       id="perspective4144" />
    <linearGradient
       id="linearGradient5623"
       osb:paint="solid">
      <stop
         style="stop-color:#0000ff;stop-opacity:0.58823532;"
         offset="0"
         id="stop5625" />
    </linearGradient>
    <linearGradient
       id="linearGradient5595"
       osb:paint="solid">
      <stop
         style="stop-color:#ff0000;stop-opacity:1;"
         offset="0"
         id="stop5597" />
    </linearGradient>
    <linearGradient
       id="linearGradient5589"
       osb:paint="solid">
      <stop
         style="stop-color:#ff0000;stop-opacity:1;"
         offset="0"
         id="stop5591" />
    </linearGradient>
    <pattern
       y="0"
       x="0"
       height="6"
       width="6"
       patternUnits="userSpaceOnUse"
       id="EMFhbasepattern" />
  </defs>
  <sodipodi:namedview
     id="base"
     pagecolor="#ffffff"
     bordercolor="#000000"
     borderopacity="1"
     inkscape:pageopacity="0"
     inkscape:pageshadow="2"
     inkscape:zoom="15.983088"
     inkscape:cx="11.455318"
     inkscape:cy="6.882429"
     inkscape:document-units="px"
     inkscape:current-layer="layer1"
     showgrid="false"
     inkscape:snap-grids="false"
     inkscape:window-width="1600"
     inkscape:window-height="838"
     inkscape:window-x="-8"
     inkscape:window-y="-8"
     inkscape:window-maximized="1"
     units="pt"
     showguides="true"
     borderlayer="true" />
  <metadata
     id="metadata7">
    <rdf:RDF>
      <cc:Work
         rdf:about="">
        <dc:format>image/svg+xml</dc:format>
        <dc:type
           rdf:resource="http://purl.org/dc/dcmitype/StillImage" />
        <dc:title></dc:title>
      </cc:Work>
    </rdf:RDF>
  </metadata>
  <g
     inkscape:label="Layer 1"
     inkscape:groupmode="layer"
     id="layer1"
     transform="translate(0,-1032.3622)">
    <path
       inkscape:connector-curvature="0"
       id="path4149"
       d="m 13.287106,1051.1945 c -0.09032,-0.038 -0.165575,-0.1765 -0.19568,-0.3118 -0.01506,-0.1736 -0.13547,-0.2678 -0.391359,-0.3237 -0.301044,-0.064 -0.316097,-0.088 -0.105368,-0.1412 0.331149,-0.077 0.40641,-0.2031 0.421463,-0.7415 0,-0.2382 0.105369,-0.4736 0.240836,-0.5236 0.180627,-0.074 0.150523,-0.1148 -0.105369,-0.206 -0.195679,-0.065 -0.255889,-0.1148 -0.150523,-0.1148 0.406412,0 0.677352,0.1942 0.451568,0.3266 -0.120419,0.068 -0.210731,0.309 -0.180628,0.5355 0.0301,0.2266 0,0.4296 -0.04516,0.4472 -0.06021,0.021 -0.120418,0.088 -0.150522,0.153 -0.01506,0.065 -0.165576,0.1324 -0.316098,0.1501 -0.225784,0.03 -0.195679,0.05 0.13547,0.103 0.316098,0.056 0.391359,0.1177 0.391359,0.3237 0,0.1676 0.09031,0.2794 0.285993,0.3235 0.150522,0.039 0.195679,0.071 0.07526,0.071 -0.120417,0 -0.285993,-0.033 -0.361254,-0.071 z m -1.264386,-2.4305 c -0.120417,-0.041 -0.120417,-0.088 0.0301,-0.1354 0.180627,-0.053 0.165575,-0.091 0,-0.1471 -0.195679,-0.058 -0.180627,-0.085 0.13547,-0.1413 0.210733,-0.035 0.33115,-0.088 0.270941,-0.1176 -0.06021,-0.029 0.285993,-0.103 0.812822,-0.1736 0.511777,-0.068 0.933221,-0.1354 0.933221,-0.1501 0.01506,-0.017 0.04516,-0.077 0.09031,-0.1353 0.04516,-0.077 -0.06021,-0.1266 -0.361235,-0.1707 l -0.436516,-0.061 0.496726,-0.074 c 1.128899,-0.1735 1.113847,-0.1677 0.481652,-0.2207 -0.692385,-0.058 -0.331131,-0.071 0.436515,-0.014 0.451568,0.035 0.496725,0.05 0.270941,0.1029 -0.13547,0.033 -0.526829,0.085 -0.842926,0.1206 l -0.587018,0.058 0.556913,0.1148 c 0.316097,0.062 0.451568,0.1147 0.316097,0.1147 -0.135471,0 -0.240836,0.021 -0.210731,0.047 0.09031,0.1353 -0.09031,0.1912 -0.933221,0.2883 -0.692403,0.08 -0.873031,0.1207 -0.782717,0.1765 0.07526,0.047 -0.0301,0.085 -0.316098,0.1148 -0.301045,0.032 -0.361254,0.058 -0.210731,0.091 0.165575,0.041 0.240836,0.3796 0.07526,0.3796 -0.01505,0 -0.120417,-0.029 -0.225784,-0.068 z m 0.767666,-1.6242 -0.496725,-0.041 0.451567,-0.071 c 0.240837,-0.041 0.451568,-0.08 0.451568,-0.091 0,-0.01 -0.541881,-0.056 -1.204181,-0.103 -1.098794,-0.077 -1.730989,-0.1588 -1.234265,-0.1588 0.105369,0 0.255889,0.014 0.301046,0.032 0.06021,0.017 0.662279,0.074 1.324578,0.1206 1.26439,0.088 1.475121,0.1384 0.812822,0.1796 -0.556933,0.035 -0.511777,0.085 0.150523,0.1294 0.301045,0.024 0.406412,0.041 0.240836,0.041 -0.165575,0 -0.526829,-0.017 -0.797769,-0.038 z m -2.272871,-0.559 c -0.06021,-0.032 -0.6924035,-0.094 -1.429964,-0.1412 -0.7224885,-0.047 -1.3546835,-0.1005 -1.4148927,-0.1206 -0.060211,-0.017 0.2558889,-0.056 0.6924042,-0.082 0.842907,-0.047 1.0235341,-0.097 0.511757,-0.1383 -0.4967045,-0.035 -0.3461818,-0.082 0.406411,-0.1295 0.7074557,-0.047 0.8730305,-0.094 0.4816718,-0.1412 -0.1204173,-0.014 -0.1655743,-0.05 -0.1053688,-0.079 0.060209,-0.029 0.030099,-0.056 -0.04516,-0.056 -0.090314,0 -0.3311496,-0.024 -0.5418809,-0.056 -0.3762868,-0.053 -0.3612343,-0.059 0.3612542,-0.1177 0.8429262,-0.071 1.7460612,-0.2265 1.4149122,-0.2471 -0.120419,-0.01 -0.376306,-0.035 -0.571986,-0.064 -0.33115,-0.047 -0.33115,-0.058 0.225783,-0.153 0.692405,-0.1236 3.040537,-0.362 2.604022,-0.2648 -0.165575,0.035 -0.647248,0.085 -1.053659,0.1147 -0.782697,0.053 -1.67078,0.1853 -1.67078,0.2472 0,0.017 0.225784,0.053 0.511776,0.08 l 0.496724,0.044 -0.571985,0.1089 c -0.316098,0.061 -0.8429264,0.1295 -1.159023,0.153 -0.5719866,0.044 -0.5719866,0.047 -0.1806274,0.1029 0.2257837,0.033 0.3763057,0.08 0.3311493,0.103 -0.030099,0.027 0.090308,0.068 0.2709401,0.091 0.285994,0.044 0.285994,0.053 -0.13547,0.1118 -0.2558885,0.033 -0.5719855,0.062 -0.7074559,0.062 -0.3160974,0 -0.3311499,0.047 -0.030102,0.1061 0.3160974,0.062 0.060211,0.1176 -0.6472275,0.15 -0.7676652,0.032 -0.587038,0.068 0.7375411,0.153 0.9332383,0.058 2.0621583,0.2177 1.5353293,0.2177 -0.120418,0 -0.255889,-0.024 -0.316098,-0.053 z m 2.694334,-1.956 c -0.01505,-0.041 0.180627,-0.085 0.451568,-0.1059 0.255887,-0.021 0.662278,-0.1004 0.903115,-0.1795 l 0.436515,-0.1442 -0.436515,-0.1412 -0.451547,-0.1383 0.662278,-0.1088 0.662299,-0.1089 -0.812822,-0.082 c -0.963323,-0.094 -1.023532,-0.1324 -0.346201,-0.2176 0.481673,-0.062 0.602091,-0.1472 0.812822,-0.568 0.04516,-0.097 0.13547,-0.2235 0.195679,-0.2795 0.120419,-0.1382 -0.225784,-0.3737 -0.767664,-0.5149 l -0.421444,-0.1148 0.556914,-0.094 c 0.511776,-0.088 0.556932,-0.1148 0.496724,-0.3413 -0.06021,-0.2443 -0.06021,-0.2443 -0.873031,-0.3237 -0.451547,-0.041 -0.978376,-0.1088 -1.174056,-0.1471 -0.19568,-0.039 -0.632195,-0.071 -0.978396,-0.071 -0.361255,-0.01 -0.52683,-0.012 -0.376307,-0.024 0.436515,-0.035 1.640696,0.027 1.640696,0.082 0,0.032 0.346202,0.077 0.752612,0.103 1.038587,0.065 1.249318,0.1323 1.249318,0.4059 0,0.209 -0.06021,0.2443 -0.541882,0.3208 l -0.54188,0.085 0.571986,0.1617 c 0.526829,0.1501 0.571985,0.1913 0.571985,0.5091 0,0.1912 -0.105369,0.3825 -0.225784,0.4294 -0.13547,0.044 -0.225784,0.1326 -0.225784,0.1972 0,0.082 -0.180626,0.1443 -0.556933,0.206 -0.301026,0.047 -0.466599,0.091 -0.346182,0.1004 0.105347,0.01 0.511757,0.053 0.888064,0.097 l 0.692403,0.082 -0.677352,0.1088 -0.677352,0.1058 0.451568,0.1414 c 0.421464,0.1352 0.421464,0.147 0.120419,0.2412 -0.180628,0.053 -0.316098,0.1089 -0.301045,0.1265 0.0301,0.017 -0.225784,0.058 -0.571966,0.091 -0.33115,0.033 -0.647247,0.085 -0.707457,0.1176 -0.06021,0.044 -0.09031,0.041 -0.105368,-0.01 z m -3.6877868,-3.7598 c -0.9482724,-0.044 -1.7911994,-0.1265 -2.167506,-0.2148 -0.240836,-0.058 -0.2107316,-0.077 0.2709406,-0.15 0.6171423,-0.094 0.6924042,-0.1413 0.2558881,-0.1413 -0.1655745,0 -0.662299,-0.071 -1.0988145,-0.1589 -0.7225084,-0.1441 -0.7826974,-0.1677 -0.587038,-0.2706 0.180627,-0.1004 0.1354703,-0.1354 -0.3612342,-0.2531 -0.3160974,-0.077 -0.812822,-0.1589 -1.1138672,-0.1853 -0.6924039,-0.056 -0.7225085,-0.1236 -0.075261,-0.1913 0.2709406,-0.027 0.5418813,-0.088 0.6020903,-0.1354 0.060209,-0.047 0.4365155,-0.1147 0.8579587,-0.156 0.6472472,-0.058 0.7074561,-0.074 0.406411,-0.1058 -0.4515678,-0.05 -0.4365156,-0.097 0.060209,-0.2207 0.2107317,-0.053 0.3913588,-0.1383 0.3913588,-0.1883 0,-0.05 0.090314,-0.097 0.1956793,-0.103 0.090314,-0.01 0.2408364,-0.058 0.301045,-0.1147 0.1053666,-0.082 0.045156,-0.1089 -0.3763063,-0.1442 -0.6773517,-0.061 -0.6472472,-0.1118 0.090314,-0.1853 0.6321951,-0.065 0.752613,-0.1324 0.3612545,-0.206 -0.1806272,-0.039 -0.060211,-0.062 0.4967245,-0.106 0.406411,-0.035 0.9181674,-0.062 1.1439514,-0.062 0.2558888,0 0.4816722,-0.035 0.6020906,-0.097 0.1053688,-0.053 0.2859922,-0.097 0.3913572,-0.097 0.52683,0 0.13547,-0.08 -0.4967238,-0.103 -0.9633237,-0.035 -1.0385847,-0.08 -0.3612538,-0.2176 l 0.571986,-0.1178 -0.4666199,-0.074 c -0.3311499,-0.053 -0.4365153,-0.1004 -0.3462017,-0.153 0.060211,-0.041 0.030102,-0.085 -0.090314,-0.1004 -0.3762868,-0.047 -0.2107321,-0.097 0.6472468,-0.206 0.4666194,-0.058 0.9031344,-0.1118 0.9482914,-0.1206 0.06021,-0.01 -0.06021,-0.039 -0.270941,-0.068 -0.5117756,-0.074 -0.255888,-0.1294 0.782718,-0.1796 1.008481,-0.05 1.023533,-0.056 0.587018,-0.1412 -0.285973,-0.056 -0.270921,-0.068 0.04516,-0.1382 0.46662,-0.103 1.429965,-0.1972 1.73101,-0.1736 0.150522,0.012 0.13547,0.02 -0.04516,0.02 -0.165575,0.01 -0.647247,0.05 -1.068711,0.1089 l -0.767665,0.1029 0.436516,0.091 0.421463,0.088 -1.159004,0.068 -1.174076,0.064 0.46662,0.074 0.451568,0.074 -1.008501,0.1236 c -0.7977693,0.097 -0.9783964,0.1354 -0.8128218,0.1766 0.1204178,0.027 0.1655746,0.085 0.090314,0.1264 -0.090314,0.056 0,0.091 0.2859932,0.1236 0.5418796,0.056 0.5117746,0.1118 -0.1204185,0.2413 -0.4967246,0.1029 -0.5117764,0.1118 -0.1505221,0.1354 0.2107314,0.014 0.6924032,0.053 1.0837612,0.082 0.692404,0.056 0.692404,0.058 0.225784,0.094 -0.255889,0.017 -0.511777,0.071 -0.571986,0.1147 -0.060209,0.044 -0.331148,0.088 -0.6321939,0.1005 -1.4148919,0.062 -1.5353105,0.077 -1.4751012,0.2 0.060211,0.1004 -0.030102,0.1266 -0.5418814,0.1678 -0.7526129,0.062 -0.7676652,0.094 -0.120418,0.15 0.3763062,0.035 0.5117765,0.077 0.5117765,0.1588 0,0.068 -0.1354703,0.1266 -0.3010449,0.1384 -0.1655746,0.012 -0.3010452,0.058 -0.3010452,0.103 0,0.047 -0.2107316,0.1353 -0.4515678,0.2 -0.4365155,0.1148 -0.4365155,0.1236 -0.090314,0.1589 0.3010451,0.032 0.3160974,0.05 0.1053655,0.1005 -0.1354703,0.032 -0.46662,0.077 -0.7224884,0.094 -0.2558884,0.02 -0.5117767,0.064 -0.587038,0.1028 -0.060209,0.039 -0.346202,0.109 -0.6171427,0.156 -1.032639,0.077 0.00987,0.018 0.075261,0.1404 0.3160975,0.032 0.8579788,0.1236 1.219213,0.203 0.587038,0.1294 0.6171425,0.1472 0.3612542,0.2442 -0.2709406,0.1004 -0.2408361,0.1118 0.4816723,0.2472 0.4064112,0.079 0.9031358,0.156 1.0837628,0.1677 0.4816721,0.039 0.4214635,0.094 -0.1655753,0.1707 -0.2709406,0.035 -0.4967245,0.077 -0.4967245,0.094 0,0.071 1.4600494,0.2031 2.754544,0.253 0.752612,0.029 1.083762,0.053 0.752612,0.053 -0.331149,0 -0.9332399,-0.014 -1.3547025,-0.035 z m 4.5758658,-5.3458 c 0.316077,-0.047 0.346182,-0.065 0.120398,-0.1178 -0.301026,-0.071 -0.165555,-0.1824 0.210732,-0.1824 0.195678,0 0.195678,0.012 0.01506,0.047 -0.195679,0.035 -0.165575,0.064 0.105369,0.1207 0.316098,0.071 0.316098,0.079 -0.04516,0.1294 -0.210732,0.032 -0.481652,0.056 -0.587018,0.056 -0.105369,0 -0.0301,-0.024 0.180627,-0.053 z m 0.692384,-0.3395 c 0,-0.02 -0.361254,-0.058 -0.79775,-0.082 -0.782717,-0.047 -1.505226,-0.1531 -1.038606,-0.1531 0.150523,0 0.195679,-0.085 0.150523,-0.2383 -0.06021,-0.1794 0,-0.2501 0.255888,-0.3001 0.240836,-0.047 0.255888,-0.068 0.07526,-0.08 -0.13547,-0.01 -0.451568,-0.05 -0.692404,-0.088 l -0.451567,-0.074 0.436515,-0.08 c 0.40641,-0.074 0.421463,-0.1118 0.376307,-0.5032 -0.0301,-0.2618 0,-0.3794 0.105369,-0.3089 0.09031,0.062 0.150522,0.256 0.13547,0.4296 -0.01505,0.2559 -0.105369,0.3354 -0.406411,0.403 -0.391359,0.085 -0.391359,0.085 0.225784,0.1501 0.692403,0.068 0.752612,0.1005 0.376306,0.1707 -0.13547,0.029 -0.240836,0.1589 -0.255888,0.3177 l 0,0.2648 0.948272,0.068 c 0.857979,0.058 1.294494,0.1412 0.767665,0.1412 -0.120417,0 -0.210731,-0.017 -0.210731,-0.039 z"
       style="fill:#d35f5f;fill-opacity:1;fill-rule:nonzero;stroke:#0000ff;stroke-width:0.41;stroke-miterlimit:4;stroke-dasharray:none;stroke-opacity:1"
       sodipodi:nodetypes="cccccccsccccccscscccccccccccccccccccscccccscccccscsccccsccccccccccscccccccsccccccccscccsccccccccccccccccccccccscscccscsccccccccccccccccscccccccccsccccccscsccccccccccccccccccccccccccccccsccccscsccccccccccccscsccccscccsccccscccccccccccccccscc" />
  </g>
</svg>
