<?xml version="1.0" encoding="UTF-8" standalone="no"?>
<svg
   xmlns:dc="http://purl.org/dc/elements/1.1/"
   xmlns:cc="http://creativecommons.org/ns#"
   xmlns:rdf="http://www.w3.org/1999/02/22-rdf-syntax-ns#"
   xmlns:svg="http://www.w3.org/2000/svg"
   xmlns="http://www.w3.org/2000/svg"
   xmlns:sodipodi="http://sodipodi.sourceforge.net/DTD/sodipodi-0.dtd"
   xmlns:inkscape="http://www.inkscape.org/namespaces/inkscape"
   height="16"
   version="1.1"
   width="16"
   id="svg2"
   inkscape:version="0.91 r13725"
   sodipodi:docname="16X16Base.svg">
  <metadata
     id="metadata8">
    <rdf:RDF>
      <cc:Work
         rdf:about="">
        <dc:format>image/svg+xml</dc:format>
        <dc:type
           rdf:resource="http://purl.org/dc/dcmitype/StillImage" />
        <dc:title />
      </cc:Work>
    </rdf:RDF>
  </metadata>
  <defs
     id="defs6" />
  <sodipodi:namedview
     pagecolor="#ffffff"
     bordercolor="#666666"
     borderopacity="1"
     objecttolerance="10"
     gridtolerance="10"
     guidetolerance="10"
     inkscape:pageopacity="0"
     inkscape:pageshadow="2"
     inkscape:window-width="1600"
     inkscape:window-height="838"
     id="namedview4"
     showgrid="false"
     inkscape:zoom="33.436995"
     inkscape:cx="8.9816971"
     inkscape:cy="8.0516774"
     inkscape:window-x="-8"
     inkscape:window-y="-8"
     inkscape:window-maximized="1"
     inkscape:current-layer="svg2" />
  <path
     inkscape:connector-curvature="0"
     style="fill:#000000"
     d="m 5.7555658,5.9146277 0,6.1518573 0.9495048,0 0,-6.1518573 -0.9495048,0 z m 1.8989861,0 0,6.1518573 0.9495048,0 0,-6.1518573 -0.9495048,0 z m 1.8990085,0 0,6.1518573 0.9495046,0 0,-6.1518573 -0.9495046,0 z M 10.503042,1.5721625 c 0,-0.90469632 -0.192856,-1.08563482 -0.9494816,-1.08563482 l -3.1649914,0 c -0.7975659,0 -0.9431461,0.1989575 -0.9431461,1.08913952 l -0.0063,1.0821057 -2.5319893,0 c -0.4684155,0 -0.6330024,0.1774092 -0.6330024,0.723757 l 0,0.3618794 c 0,0.5608083 0.1645869,0.723731 0.6330024,0.723731 l 0.3165024,0 0,9.4087367 c 0,0.901165 0.174009,1.085635 0.9495032,1.085635 l 7.5959208,0 c 0.791254,0 1.266006,-0.170347 1.266006,-1.085635 l 0,-9.4087367 0.316501,0 c 0.477841,0 0.633004,-0.1736956 0.633004,-0.723731 l 0,-0.3618794 c 0,-0.5355741 -0.135996,-0.723757 -0.633004,-0.723757 l -2.848467,0 0,-1.0856104 z m -0.9494816,0 0,1.0856365 -3.1649914,0 0,-1.0856365 3.1649914,0 z m -4.747476,2.8949778 6.6464386,0 0,8.6849787 -6.6464386,0 0,-8.6849787 z"
     id="path3" />
</svg>
