<?xml version="1.0" encoding="utf-8" standalone="no"?>
<svg xmlns:dc="http://purl.org/dc/elements/1.1/" xmlns:cc="http://creativecommons.org/ns#" xmlns:rdf="http://www.w3.org/1999/02/22-rdf-syntax-ns#" xmlns:svg="http://www.w3.org/2000/svg" xmlns="http://www.w3.org/2000/svg" xmlns:sodipodi="http://sodipodi.sourceforge.net/DTD/sodipodi-0.dtd" xmlns:inkscape="http://www.inkscape.org/namespaces/inkscape" height="1" version="1.1" width="1" id="svg2" inkscape:version="0.91 r13725" sodipodi:docname="交错层理.svg">
  <metadata id="metadata8">
    <rdf:RDF>
      <cc:Work rdf:about="">
        <dc:format>image/svg+xml</dc:format>
        <dc:type rdf:resource="http://purl.org/dc/dcmitype/StillImage" />
        <dc:title></dc:title>
      </cc:Work>
    </rdf:RDF>
  </metadata>
  <defs id="defs6">
    <pattern width="1" height="1" id="交错层理" patternContentUnits="objectBoundingBox">
      <path style="fill:#000000" d="m 0.16193172,0.92102084 c 0,-0.00233 0.0805472,-0.16287951 0.17899407,-0.3567749 0.0984466,-0.19389537 0.17899426,-0.35681138 0.17899426,-0.36203597 0,-0.005225 -0.0228217,-0.009477 -0.0507152,-0.009453 L 0.41848979,0.19279888 0.24546234,0.53641901 0.0724345,0.88003897 0.06894398,0.81471111 C 0.06558569,0.7518955 0.07074908,0.7388863 0.2031893,0.47643386 0.27894486,0.32631161 0.34092664,0.20105973 0.34092664,0.19809616 c 0,-0.002962 -0.023351,-0.005389 -0.0518909,-0.005389 l -0.051891,0 -0.0846301,0.16623197 -0.08462982,0.16623211 -7.1363e-4,-0.0706876 c -6.0868e-4,-0.0607537 0.0060008,-0.0832873 0.04702396,-0.1603468 0.0262525,-0.0493125 0.0477319,-0.0923075 0.0477319,-0.0955444 0,-0.003236 -0.0214793,-0.005884 -0.0477319,-0.005884 -0.04659515,0 -0.04773172,-9.4026e-4 -0.04773172,-0.0394447 l 0,-0.0394451 0.42958591,0 0.42958605,0 2.167e-5,0.0422625 2.142e-5,0.0422625 -0.0716194,-0.003817 c -0.0393906,-0.002098 -0.0714797,4.3654e-4 -0.0713083,0.005635 1.7693e-4,0.005199 0.0323902,0.0496318 0.0715976,0.0987382 0.0504276,0.063158 0.0712871,0.0992274 0.0712871,0.12326308 0,0.0303211 -0.0112039,0.0198007 -0.10408196,-0.0977368 l -0.1040819,-0.13171576 -0.0510462,0 c -0.0280756,0 -0.0510464,0.002603 -0.0510464,0.005788 0,0.003184 0.0701991,0.0941307 0.155998,0.20210408 C 0.89369482,0.55453395 0.92654348,0.6032785 0.9235223,0.62637458 0.92021407,0.65163231 0.89596937,0.62587239 0.75336342,0.44562762 0.60117013,0.25326274 0.58568403,0.23719937 0.57086791,0.25633047 0.5289051,0.31051414 0.53251607,0.31748024 0.73408348,0.57119709 0.88663861,0.76322174 0.92628861,0.82030922 0.92336609,0.84372482 0.92022334,0.86893283 0.89034069,0.83614887 0.72277552,0.62363948 0.61448405,0.48630166 0.52192678,0.3737307 0.51709253,0.37348212 c -0.008335,-4.3655e-4 -0.0449086,0.0722018 -0.0449086,0.08918 0,0.004393 0.0802719,0.10900819 0.17838199,0.23247532 0.15110982,0.19016479 0.17467027,0.22505562 0.15410372,0.22821372 -0.0133533,0.002049 -0.0256766,0.002049 -0.027385,0 -0.001697,-0.002049 -0.0772145,-0.0971325 -0.16779101,-0.21129353 l -0.164685,-0.20756546 -0.0288053,0.0535302 -0.0288053,0.05353 0.120057,0.15101888 c 0.0660312,0.0830605 0.12005679,0.15364413 0.12005679,0.15685285 0,0.00321 -0.0101442,0.005836 -0.0225421,0.005836 -0.014894,0 -0.0588384,-0.0458185 -0.12953471,-0.13506199 L 0.368242,0.65513461 l -0.0209641,0.043908 -0.0209641,0.0439081 0.0734715,0.0911537 c 0.0676428,0.0839224 0.0712265,0.091154 0.0451714,0.091154 -0.0208696,0 -0.041917,-0.0177519 -0.080169,-0.0676198 -0.0285278,-0.0371908 -0.0553204,-0.0676196 -0.0595393,-0.0676196 -0.004219,0 -0.0230693,0.0304288 -0.0418909,0.0676196 -0.029852,0.0589877 -0.0385103,0.0676198 -0.0678252,0.0676198 -0.0184831,0 -0.0336047,-0.001897 -0.0336047,-0.004235 z" id="path4184" inkscape:connector-curvature="0" />
    </pattern>
  </defs>
  <sodipodi:namedview pagecolor="#ffffff" bordercolor="#666666" borderopacity="1" objecttolerance="10" gridtolerance="10" guidetolerance="10" inkscape:pageopacity="0" inkscape:pageshadow="2" inkscape:window-width="1680" inkscape:window-height="988" id="namedview4" showgrid="false" inkscape:zoom="128" inkscape:cx="4.0677234" inkscape:cy="0.2048879" inkscape:window-x="-8" inkscape:window-y="-8" inkscape:window-maximized="1" inkscape:current-layer="svg2" />
  <path style="fill:#000000" d="m 0.16193172,0.92102084 c 0,-0.00233 0.0805472,-0.16287951 0.17899407,-0.3567749 0.0984466,-0.19389537 0.17899426,-0.35681138 0.17899426,-0.36203597 0,-0.005225 -0.0228217,-0.009477 -0.0507152,-0.009453 L 0.41848979,0.19279888 0.24546234,0.53641901 0.0724345,0.88003897 0.06894398,0.81471111 C 0.06558569,0.7518955 0.07074908,0.7388863 0.2031893,0.47643386 0.27894486,0.32631161 0.34092664,0.20105973 0.34092664,0.19809616 c 0,-0.002962 -0.023351,-0.005389 -0.0518909,-0.005389 l -0.051891,0 -0.0846301,0.16623197 -0.08462982,0.16623211 -7.1363e-4,-0.0706876 c -6.0868e-4,-0.0607537 0.0060008,-0.0832873 0.04702396,-0.1603468 0.0262525,-0.0493125 0.0477319,-0.0923075 0.0477319,-0.0955444 0,-0.003236 -0.0214793,-0.005884 -0.0477319,-0.005884 -0.04659515,0 -0.04773172,-9.4026e-4 -0.04773172,-0.0394447 l 0,-0.0394451 0.42958591,0 0.42958605,0 2.167e-5,0.0422625 2.142e-5,0.0422625 -0.0716194,-0.003817 c -0.0393906,-0.002098 -0.0714797,4.3654e-4 -0.0713083,0.005635 1.7693e-4,0.005199 0.0323902,0.0496318 0.0715976,0.0987382 0.0504276,0.063158 0.0712871,0.0992274 0.0712871,0.12326308 0,0.0303211 -0.0112039,0.0198007 -0.10408196,-0.0977368 l -0.1040819,-0.13171576 -0.0510462,0 c -0.0280756,0 -0.0510464,0.002603 -0.0510464,0.005788 0,0.003184 0.0701991,0.0941307 0.155998,0.20210408 C 0.89369482,0.55453395 0.92654348,0.6032785 0.9235223,0.62637458 0.92021407,0.65163231 0.89596937,0.62587239 0.75336342,0.44562762 0.60117013,0.25326274 0.58568403,0.23719937 0.57086791,0.25633047 0.5289051,0.31051414 0.53251607,0.31748024 0.73408348,0.57119709 0.88663861,0.76322174 0.92628861,0.82030922 0.92336609,0.84372482 0.92022334,0.86893283 0.89034069,0.83614887 0.72277552,0.62363948 0.61448405,0.48630166 0.52192678,0.3737307 0.51709253,0.37348212 c -0.008335,-4.3655e-4 -0.0449086,0.0722018 -0.0449086,0.08918 0,0.004393 0.0802719,0.10900819 0.17838199,0.23247532 0.15110982,0.19016479 0.17467027,0.22505562 0.15410372,0.22821372 -0.0133533,0.002049 -0.0256766,0.002049 -0.027385,0 -0.001697,-0.002049 -0.0772145,-0.0971325 -0.16779101,-0.21129353 l -0.164685,-0.20756546 -0.0288053,0.0535302 -0.0288053,0.05353 0.120057,0.15101888 c 0.0660312,0.0830605 0.12005679,0.15364413 0.12005679,0.15685285 0,0.00321 -0.0101442,0.005836 -0.0225421,0.005836 -0.014894,0 -0.0588384,-0.0458185 -0.12953471,-0.13506199 L 0.368242,0.65513461 l -0.0209641,0.043908 -0.0209641,0.0439081 0.0734715,0.0911537 c 0.0676428,0.0839224 0.0712265,0.091154 0.0451714,0.091154 -0.0208696,0 -0.041917,-0.0177519 -0.080169,-0.0676198 -0.0285278,-0.0371908 -0.0553204,-0.0676196 -0.0595393,-0.0676196 -0.004219,0 -0.0230693,0.0304288 -0.0418909,0.0676196 -0.029852,0.0589877 -0.0385103,0.0676198 -0.0678252,0.0676198 -0.0184831,0 -0.0336047,-0.001897 -0.0336047,-0.004235 z" id="path4184" inkscape:connector-curvature="0" />
</svg>