<?xml version="1.0" encoding="utf-8" standalone="no"?>
<svg xmlns:dc="http://purl.org/dc/elements/1.1/" xmlns:cc="http://creativecommons.org/ns#" xmlns:rdf="http://www.w3.org/1999/02/22-rdf-syntax-ns#" xmlns:svg="http://www.w3.org/2000/svg" xmlns="http://www.w3.org/2000/svg" xmlns:sodipodi="http://sodipodi.sourceforge.net/DTD/sodipodi-0.dtd" xmlns:inkscape="http://www.inkscape.org/namespaces/inkscape" height="1" version="1.1" width="1" id="svg2" inkscape:version="0.91 r13725" sodipodi:docname="叠层石.svg">
  <metadata id="metadata8">
    <rdf:RDF>
      <cc:Work rdf:about="">
        <dc:format>image/svg+xml</dc:format>
        <dc:type rdf:resource="http://purl.org/dc/dcmitype/StillImage" />
        <dc:title></dc:title>
      </cc:Work>
    </rdf:RDF>
  </metadata>
  <defs id="defs6">
    <pattern width="1" height="1" id="叠层石" patternContentUnits="objectBoundingBox">
      <path style="fill:#000000" d="m 0.02613601,0.74072659 c 0.008076,-0.0651585 0.0571549,-0.045755 0.083273,-0.0595532 0.10247473,-0.0195734 0.20550222,-0.009375 0.30802786,-0.0245109 0.0340258,0.0114407 0.0465163,-0.0596155 0.0141521,-0.0940948 -0.0263318,-0.0625808 -0.0642063,-0.0886384 -0.10120822,-0.0665832 -0.0606147,0.0200168 -0.1220963,0.0467223 -0.17684069,0.11080724 -0.0409524,0.0233515 -0.0854191,0.0300737 -0.12649151,0.004966 -0.0288877,-0.0473253 0.0358364,-0.0629782 0.0509109,-0.0714109 0.0436824,-0.0120902 0.0862731,-0.0383522 0.12621751,-0.0798364 0.0628112,-0.0437318 0.13367796,-0.11079854 0.19806842,-0.0437326 0.035881,0.0381337 0.0628823,0.10528154 0.0920767,0.1639312 0.0339297,-0.0599291 0.0681984,-0.12252181 0.11112115,-0.14610457 0.0433671,-0.0260478 0.0908658,-0.0613329 0.13543131,-0.0314378 0.0637279,0.07566 0.13282323,0.12722947 0.20413301,0.14963452 0.0212623,-0.001118 0.0561412,0.0603277 0.0164138,0.0712422 -0.0721747,0.0289409 -0.1450014,-0.0200394 -0.2090738,-0.0932066 -0.0353369,-0.0402766 -0.0775037,-0.0540472 -0.11438478,-0.0153932 -0.0276186,0.0346622 -0.0810666,0.0495853 -0.0860882,0.12723904 0.0299848,0.0361394 0.0665003,0.0226895 0.0993131,0.0305336 0.10016883,0.008819 0.19585882,0.003756 0.30060394,0.0194819 0.0283636,-0.003521 0.0479966,0.0733848 0.0181643,0.0667419 -0.12665252,0.003158 -0.2530268,-4.7098e-4 -0.37102373,0.003066 -0.18545268,-7.2519e-4 -0.37304234,0.005202 -0.56232691,0.003049 -0.005462,-0.001627 -0.005284,-0.0199274 -0.010469,-0.0248324 z m 0.030889,-0.29362744 c -0.0290538,-0.002606 -0.0531131,-0.11687785 -0.008564,-0.0976897 0.036152,0.0145176 0.0745614,0.0234288 0.10866795,-0.0148862 0.0702507,-0.0637771 0.13796714,-0.18510057 0.21804577,-0.15712695 0.0564156,0.0135848 0.10648794,0.0940545 0.1638665,0.09019 C 0.59967303,0.2466427 0.67241742,0.1725097 0.73481448,0.2029185 0.8084051,0.32548322 1.0286926,0.37852025 0.9628566,0.48366702 0.91322341,0.4966958 0.86580739,0.44373415 0.82038557,0.40549586 0.75363115,0.33831725 0.67613845,0.28231696 0.60476245,0.34928163 0.56969317,0.37946953 0.53680292,0.42077025 0.50292081,0.45696182 0.4782634,0.39174325 0.44994364,0.33217937 0.41373123,0.30136533 c -0.0364629,-0.0407549 -0.0797218,-0.0443611 -0.11658646,-0.003779 -0.0531251,0.0446678 -0.099975,0.12144233 -0.15386014,0.16113749 -0.0284371,0.0183741 -0.0588131,0.0117169 -0.0862597,-0.0116248 z" id="path4206" inkscape:connector-curvature="0" sodipodi:nodetypes="cccccccccccccccccccccccccccccccccccccc" />
    </pattern>
  </defs>
  <sodipodi:namedview pagecolor="#ffffff" bordercolor="#666666" borderopacity="1" objecttolerance="10" gridtolerance="10" guidetolerance="10" inkscape:pageopacity="0" inkscape:pageshadow="2" inkscape:window-width="1680" inkscape:window-height="988" id="namedview4" showgrid="false" inkscape:zoom="256" inkscape:cx="0.81910111" inkscape:cy="0.098320678" inkscape:window-x="-8" inkscape:window-y="-8" inkscape:window-maximized="1" inkscape:current-layer="svg2" />
  <path style="fill:#000000" d="m 0.02613601,0.74072659 c 0.008076,-0.0651585 0.0571549,-0.045755 0.083273,-0.0595532 0.10247473,-0.0195734 0.20550222,-0.009375 0.30802786,-0.0245109 0.0340258,0.0114407 0.0465163,-0.0596155 0.0141521,-0.0940948 -0.0263318,-0.0625808 -0.0642063,-0.0886384 -0.10120822,-0.0665832 -0.0606147,0.0200168 -0.1220963,0.0467223 -0.17684069,0.11080724 -0.0409524,0.0233515 -0.0854191,0.0300737 -0.12649151,0.004966 -0.0288877,-0.0473253 0.0358364,-0.0629782 0.0509109,-0.0714109 0.0436824,-0.0120902 0.0862731,-0.0383522 0.12621751,-0.0798364 0.0628112,-0.0437318 0.13367796,-0.11079854 0.19806842,-0.0437326 0.035881,0.0381337 0.0628823,0.10528154 0.0920767,0.1639312 0.0339297,-0.0599291 0.0681984,-0.12252181 0.11112115,-0.14610457 0.0433671,-0.0260478 0.0908658,-0.0613329 0.13543131,-0.0314378 0.0637279,0.07566 0.13282323,0.12722947 0.20413301,0.14963452 0.0212623,-0.001118 0.0561412,0.0603277 0.0164138,0.0712422 -0.0721747,0.0289409 -0.1450014,-0.0200394 -0.2090738,-0.0932066 -0.0353369,-0.0402766 -0.0775037,-0.0540472 -0.11438478,-0.0153932 -0.0276186,0.0346622 -0.0810666,0.0495853 -0.0860882,0.12723904 0.0299848,0.0361394 0.0665003,0.0226895 0.0993131,0.0305336 0.10016883,0.008819 0.19585882,0.003756 0.30060394,0.0194819 0.0283636,-0.003521 0.0479966,0.0733848 0.0181643,0.0667419 -0.12665252,0.003158 -0.2530268,-4.7098e-4 -0.37102373,0.003066 -0.18545268,-7.2519e-4 -0.37304234,0.005202 -0.56232691,0.003049 -0.005462,-0.001627 -0.005284,-0.0199274 -0.010469,-0.0248324 z m 0.030889,-0.29362744 c -0.0290538,-0.002606 -0.0531131,-0.11687785 -0.008564,-0.0976897 0.036152,0.0145176 0.0745614,0.0234288 0.10866795,-0.0148862 0.0702507,-0.0637771 0.13796714,-0.18510057 0.21804577,-0.15712695 0.0564156,0.0135848 0.10648794,0.0940545 0.1638665,0.09019 C 0.59967303,0.2466427 0.67241742,0.1725097 0.73481448,0.2029185 0.8084051,0.32548322 1.0286926,0.37852025 0.9628566,0.48366702 0.91322341,0.4966958 0.86580739,0.44373415 0.82038557,0.40549586 0.75363115,0.33831725 0.67613845,0.28231696 0.60476245,0.34928163 0.56969317,0.37946953 0.53680292,0.42077025 0.50292081,0.45696182 0.4782634,0.39174325 0.44994364,0.33217937 0.41373123,0.30136533 c -0.0364629,-0.0407549 -0.0797218,-0.0443611 -0.11658646,-0.003779 -0.0531251,0.0446678 -0.099975,0.12144233 -0.15386014,0.16113749 -0.0284371,0.0183741 -0.0588131,0.0117169 -0.0862597,-0.0116248 z" id="path4206" inkscape:connector-curvature="0" sodipodi:nodetypes="cccccccccccccccccccccccccccccccccccccc" />
</svg>