<?xml version="1.0" encoding="utf-8" standalone="no"?>
<svg xmlns:dc="http://purl.org/dc/elements/1.1/" xmlns:cc="http://creativecommons.org/ns#" xmlns:rdf="http://www.w3.org/1999/02/22-rdf-syntax-ns#" xmlns:svg="http://www.w3.org/2000/svg" xmlns="http://www.w3.org/2000/svg" xmlns:sodipodi="http://sodipodi.sourceforge.net/DTD/sodipodi-0.dtd" xmlns:inkscape="http://www.inkscape.org/namespaces/inkscape" height="1" version="1.1" width="1" id="svg2" inkscape:version="0.91 r13725" sodipodi:docname="均匀构造.svg">
  <metadata id="metadata8">
    <rdf:RDF>
      <cc:Work rdf:about="">
        <dc:format>image/svg+xml</dc:format>
        <dc:type rdf:resource="http://purl.org/dc/dcmitype/StillImage" />
        <dc:title></dc:title>
      </cc:Work>
    </rdf:RDF>
  </metadata>
  <defs id="defs6">
    <pattern width="1" height="1" id="均匀构造" patternContentUnits="objectBoundingBox">
      <path style="fill:#000000" d="m 0.12790561,0.61944609 c -0.006322,-0.0306878 0.0453816,-0.0179159 0.0283007,0.009765 -0.002856,0.0148598 -0.0376179,0.009205 -0.0283007,-0.009765 z m 0.21880541,0.006094 c -0.0180785,-0.0394073 0.057723,-0.0222902 0.0240194,0.00645 -0.00808,2.3253e-4 -0.0190023,0.00205 -0.0240194,-0.00645 z m 0.21793192,-0.008243 c -0.002176,-0.0356712 0.0580832,-0.004972 0.0256014,0.0147558 -0.0112744,5.7266e-4 -0.0304123,0.003698 -0.0256014,-0.0147558 z m 0.22040948,-0.002409 c -0.002402,-0.0135587 5.3112e-4,-0.021296 0.0153062,-0.0161139 0.0176306,-0.006387 0.0272162,0.0403273 0.006846,0.0335646 -0.008677,-0.001761 -0.0268042,0.005928 -0.0221554,-0.009159 2.27e-6,-0.002763 -4.35e-6,-0.005532 3e-6,-0.008292 z M 0.04219092,0.40027566 c -0.0030613,-0.0142864 0.0017152,-0.0207351 0.01648572,-0.0171898 0.03668188,0 0.07336377,0 0.11004566,0 0,0.0114599 0,0.0229197 0,0.0343796 -0.0421771,0 -0.08435425,0 -0.12653138,0 0,-0.00573 0,-0.0114599 0,-0.0171898 z m 0.25306271,0 c -0.003061,-0.0142864 0.001715,-0.0207351 0.0164857,-0.0171898 0.0353214,0 0.0706427,0 0.10596408,0 -0.002686,0.008937 0.005946,0.0283788 -0.00548,0.0292045 -0.0389171,0.003069 -0.077909,0.005777 -0.11696974,0.005174 -7e-8,-0.005729 1.4e-7,-0.0114619 -1e-7,-0.0171892 z m 0.24898105,-0.004297 c -0.003061,-0.0142864 0.001715,-0.0207351 0.0164857,-0.0171898 0.0366819,0 0.0733638,0 0.11004568,0 0,0.0114599 0,0.0229197 0,0.0343796 -0.0421771,0 -0.0843543,0 -0.1265314,0 0,-0.00573 0,-0.0114599 0,-0.0171898 z m 0.25306267,-0.001512 c -0.004883,-0.0160168 0.007539,-0.0160894 0.0200819,-0.0160502 0.034028,-0.003161 0.0682038,-0.004224 0.10236713,-0.003926 0,0.0114599 0,0.0229197 0,0.0343796 -0.0408165,0 -0.0816329,0 -0.1224494,0 2.5e-7,-0.004801 -5.1e-7,-0.009605 4e-7,-0.0144036 z" id="path4312" inkscape:connector-curvature="0" />
    </pattern>
  </defs>
  <sodipodi:namedview pagecolor="#ffffff" bordercolor="#666666" borderopacity="1" objecttolerance="10" gridtolerance="10" guidetolerance="10" inkscape:pageopacity="0" inkscape:pageshadow="2" inkscape:window-width="1680" inkscape:window-height="988" id="namedview4" showgrid="false" inkscape:zoom="256" inkscape:cx="0.65625" inkscape:cy="0.45507812" inkscape:window-x="-8" inkscape:window-y="-8" inkscape:window-maximized="1" inkscape:current-layer="svg2" />
  <path style="fill:#000000" d="m 0.12790561,0.61944609 c -0.006322,-0.0306878 0.0453816,-0.0179159 0.0283007,0.009765 -0.002856,0.0148598 -0.0376179,0.009205 -0.0283007,-0.009765 z m 0.21880541,0.006094 c -0.0180785,-0.0394073 0.057723,-0.0222902 0.0240194,0.00645 -0.00808,2.3253e-4 -0.0190023,0.00205 -0.0240194,-0.00645 z m 0.21793192,-0.008243 c -0.002176,-0.0356712 0.0580832,-0.004972 0.0256014,0.0147558 -0.0112744,5.7266e-4 -0.0304123,0.003698 -0.0256014,-0.0147558 z m 0.22040948,-0.002409 c -0.002402,-0.0135587 5.3112e-4,-0.021296 0.0153062,-0.0161139 0.0176306,-0.006387 0.0272162,0.0403273 0.006846,0.0335646 -0.008677,-0.001761 -0.0268042,0.005928 -0.0221554,-0.009159 2.27e-6,-0.002763 -4.35e-6,-0.005532 3e-6,-0.008292 z M 0.04219092,0.40027566 c -0.0030613,-0.0142864 0.0017152,-0.0207351 0.01648572,-0.0171898 0.03668188,0 0.07336377,0 0.11004566,0 0,0.0114599 0,0.0229197 0,0.0343796 -0.0421771,0 -0.08435425,0 -0.12653138,0 0,-0.00573 0,-0.0114599 0,-0.0171898 z m 0.25306271,0 c -0.003061,-0.0142864 0.001715,-0.0207351 0.0164857,-0.0171898 0.0353214,0 0.0706427,0 0.10596408,0 -0.002686,0.008937 0.005946,0.0283788 -0.00548,0.0292045 -0.0389171,0.003069 -0.077909,0.005777 -0.11696974,0.005174 -7e-8,-0.005729 1.4e-7,-0.0114619 -1e-7,-0.0171892 z m 0.24898105,-0.004297 c -0.003061,-0.0142864 0.001715,-0.0207351 0.0164857,-0.0171898 0.0366819,0 0.0733638,0 0.11004568,0 0,0.0114599 0,0.0229197 0,0.0343796 -0.0421771,0 -0.0843543,0 -0.1265314,0 0,-0.00573 0,-0.0114599 0,-0.0171898 z m 0.25306267,-0.001512 c -0.004883,-0.0160168 0.007539,-0.0160894 0.0200819,-0.0160502 0.034028,-0.003161 0.0682038,-0.004224 0.10236713,-0.003926 0,0.0114599 0,0.0229197 0,0.0343796 -0.0408165,0 -0.0816329,0 -0.1224494,0 2.5e-7,-0.004801 -5.1e-7,-0.009605 4e-7,-0.0144036 z" id="path4312" inkscape:connector-curvature="0" />
</svg>