<?xml version="1.0" encoding="utf-8" standalone="no"?>
<svg xmlns:dc="http://purl.org/dc/elements/1.1/" xmlns:cc="http://creativecommons.org/ns#" xmlns:rdf="http://www.w3.org/1999/02/22-rdf-syntax-ns#" xmlns:svg="http://www.w3.org/2000/svg" xmlns="http://www.w3.org/2000/svg" xmlns:sodipodi="http://sodipodi.sourceforge.net/DTD/sodipodi-0.dtd" xmlns:inkscape="http://www.inkscape.org/namespaces/inkscape" height="1" version="1.1" width="1" id="svg2" inkscape:version="0.91 r13725" sodipodi:docname="揉皱构造.svg">
  <metadata id="metadata8">
    <rdf:RDF>
      <cc:Work rdf:about="">
        <dc:format>image/svg+xml</dc:format>
        <dc:type rdf:resource="http://purl.org/dc/dcmitype/StillImage" />
        <dc:title></dc:title>
      </cc:Work>
    </rdf:RDF>
  </metadata>
  <defs id="defs6">
    <pattern width="1" height="1" id="揉皱构造" patternContentUnits="objectBoundingBox">
      <path style="fill:#000000" d="m 0.03473554,0.78922538 c -0.0222987,-0.0202089 -0.005241,-0.0288374 0.06418502,-0.0324688 0.0722955,-0.003781 0.07391639,-0.004742 0.08188842,-0.048528 0.004474,-0.0245686 0.016327,-0.0583723 0.026342,-0.0751195 0.0157432,-0.0263263 0.0141681,-0.0369645 -0.0116307,-0.0785663 -0.0320721,-0.0517172 -0.0261399,-0.0925742 0.0182939,-0.12599517 0.0283599,-0.0213308 0.0287227,-0.0554395 0.001109,-0.10384071 -0.016166,-0.0283317 -0.0314205,-0.037655 -0.0616116,-0.037655 -0.0686704,0 -0.12814245,-0.0152116 -0.12814245,-0.0327761 0,-0.0136036 0.09294935,-0.0167488 0.48577814,-0.0164374 0.27797956,2.1955e-4 0.48918404,0.005379 0.49374014,0.0120601 0.011215,0.0164456 -0.0558129,0.0371533 -0.12025854,0.0371533 l -0.0542787,0 0.0139126,0.0456658 c 0.0106982,0.0351149 0.008327,0.0617599 -0.0102638,0.11532504 -0.020775,0.0598595 -0.0216147,0.0766935 -0.00597,0.11965861 0.0110888,0.0304502 0.0150814,0.0774489 0.0102127,0.12020548 l -0.007995,0.0702064 0.0869326,0.003774 c 0.0489325,0.002124 0.085397,0.009353 0.0834198,0.0165372 -0.003985,0.0144818 -0.94992481,0.0250619 -0.96566075,0.0108007 z M 0.28696658,0.7385389 c -0.004831,-0.0114078 0.00176,-0.0547885 0.0146423,-0.0964019 0.0176144,-0.0568943 0.0194188,-0.0792907 0.007275,-0.0902962 -0.0223139,-0.0202226 -0.0202074,-0.0636033 0.004527,-0.0932407 0.0348733,-0.041786 0.0271578,-0.11702343 -0.015691,-0.15301322 -0.0435703,-0.0365956 -0.0685527,-0.040718 -0.0543142,-0.008963 0.0382148,0.0852281 0.0346792,0.13246247 -0.0125755,0.16800534 -0.0283786,0.021345 -0.0290509,0.056934 -0.001468,0.0776811 0.0260325,0.0195804 0.0265135,0.0550605 0.001626,0.11985562 -0.0249765,0.0650248 -0.0151665,0.0971142 0.0296888,0.0971142 0.0265885,0 0.0329469,-0.005016 0.0262885,-0.0207414 z m 0.1145298,-0.0143566 c 8.591e-5,-0.0193039 0.00494,-0.0644916 0.0108037,-0.10041692 0.006345,-0.0388732 0.004983,-0.0745159 -0.003365,-0.0880348 -0.0100393,-0.0162582 -0.006715,-0.0415713 0.0116955,-0.0890424 0.0214708,-0.055364 0.0230336,-0.0742665 0.009454,-0.11436681 -0.0169551,-0.0500678 -0.0384867,-0.0657594 -0.0735164,-0.053577 -0.018123,0.006303 -0.0181446,0.0126505 -1.8255e-4,0.0516235 0.0201225,0.0436466 0.0164351,0.10471853 -0.00906,0.15005936 -0.006873,0.012225 -0.005244,0.0382514 0.003881,0.061975 0.012706,0.0330328 0.0113041,0.0493144 -0.00729,0.0846514 -0.0388506,0.0738359 -0.0237903,0.13222663 0.0341047,0.13222663 0.0160256,0 0.0233722,-0.0109868 0.0234697,-0.035098 z M 0.61525856,0.7190873 C 0.63492966,0.6679467 0.63519076,0.58975746 0.6157478,0.57213788 0.5932184,0.55171987 0.5961832,0.4926935 0.6234878,0.41802001 0.652669,0.33821611 0.6436653,0.28705217 0.6004409,0.28705217 c -0.0263445,0 -0.0287895,0.005307 -0.0214162,0.0464853 0.00576,0.0321695 -1.7769e-4,0.0633982 -0.0192813,0.10140329 -0.0331457,0.0659409 -0.034061,0.08456 -0.006529,0.13281243 0.0156857,0.0274901 0.0174866,0.0454946 0.007042,0.0703932 -0.0160214,0.0381909 -0.0185719,0.10000532 -0.004646,0.11262557 0.0210038,0.0190355 0.0450512,0.006262 0.059647,-0.0316846 z m 0.0910243,-0.0619101 c -0.001039,-0.0526471 -0.006458,-0.11405324 -0.0120401,-0.13645818 -0.006759,-0.0271266 -0.00222,-0.0595535 0.0135854,-0.0970603 0.0130539,-0.0309782 0.0216404,-0.0725089 0.0190815,-0.0922903 -0.006037,-0.0466549 -0.03986,-0.0582035 -0.03986,-0.0136094 0,0.0180587 -0.0126711,0.063048 -0.0281582,0.0999762 -0.0337484,0.0804718 -0.0345124,0.0963733 -0.007029,0.14630298 0.0168681,0.0306444 0.018292,0.0520406 0.007042,0.10580633 -0.0189557,0.090585 -0.0187095,0.0918043 0.0175832,0.0871329 0.0298426,-0.003841 0.0315759,-0.009647 0.0297952,-0.0998004 z m -0.1807878,0.0206916 c 0.005822,-0.0422296 0.003502,-0.0787448 -0.006028,-0.094883 -0.021452,-0.0363272 -0.018522,-0.11724832 0.005632,-0.15554171 0.0286315,-0.0453921 0.0257333,-0.097926 -0.007042,-0.12762925 -0.0154909,-0.0140393 -0.0336828,-0.0255259 -0.0404263,-0.0255259 -0.006744,0 -0.0127349,0.0358957 -0.0133144,0.0797683 -0.00122,0.0924471 -0.0123369,0.30062154 -0.0175489,0.32864539 -0.008486,0.0456261 0.001509,0.0638146 0.0350696,0.0638146 0.0307915,0 0.0351348,-0.00683 0.0436573,-0.0686486 z m 0.28208159,0.0106799 c 0.006749,-0.0407849 0.002753,-0.074197 -0.0134779,-0.11271493 -0.0220903,-0.0524222 -0.0217963,-0.0573554 0.006926,-0.1162025 0.0268258,-0.0549609 0.0280785,-0.0667217 0.0118536,-0.11127615 -0.0241616,-0.0663502 -0.0413334,-0.0733098 -0.0413334,-0.0167524 0,0.0253315 -0.0100098,0.0636 -0.0222437,0.0850411 -0.0170247,0.0298369 -0.0196247,0.0543937 -0.011082,0.10466031 0.00614,0.0361222 0.009161,0.10157239 0.006716,0.14544495 -0.004075,0.0731145 -0.002049,0.0797683 0.0243014,0.0797683 0.0233144,0 0.0305606,-0.0109559 0.0383396,-0.0579687 z" id="path4252" inkscape:connector-curvature="0" />
    </pattern>
  </defs>
  <sodipodi:namedview pagecolor="#ffffff" bordercolor="#666666" borderopacity="1" objecttolerance="10" gridtolerance="10" guidetolerance="10" inkscape:pageopacity="0" inkscape:pageshadow="2" inkscape:window-width="1680" inkscape:window-height="988" id="namedview4" showgrid="false" inkscape:zoom="128" inkscape:cx="2.8577959" inkscape:cy="-1.2465667" inkscape:window-x="-8" inkscape:window-y="-8" inkscape:window-maximized="1" inkscape:current-layer="svg2" />
  <path style="fill:#000000" d="m 0.03473554,0.78922538 c -0.0222987,-0.0202089 -0.005241,-0.0288374 0.06418502,-0.0324688 0.0722955,-0.003781 0.07391639,-0.004742 0.08188842,-0.048528 0.004474,-0.0245686 0.016327,-0.0583723 0.026342,-0.0751195 0.0157432,-0.0263263 0.0141681,-0.0369645 -0.0116307,-0.0785663 -0.0320721,-0.0517172 -0.0261399,-0.0925742 0.0182939,-0.12599517 0.0283599,-0.0213308 0.0287227,-0.0554395 0.001109,-0.10384071 -0.016166,-0.0283317 -0.0314205,-0.037655 -0.0616116,-0.037655 -0.0686704,0 -0.12814245,-0.0152116 -0.12814245,-0.0327761 0,-0.0136036 0.09294935,-0.0167488 0.48577814,-0.0164374 0.27797956,2.1955e-4 0.48918404,0.005379 0.49374014,0.0120601 0.011215,0.0164456 -0.0558129,0.0371533 -0.12025854,0.0371533 l -0.0542787,0 0.0139126,0.0456658 c 0.0106982,0.0351149 0.008327,0.0617599 -0.0102638,0.11532504 -0.020775,0.0598595 -0.0216147,0.0766935 -0.00597,0.11965861 0.0110888,0.0304502 0.0150814,0.0774489 0.0102127,0.12020548 l -0.007995,0.0702064 0.0869326,0.003774 c 0.0489325,0.002124 0.085397,0.009353 0.0834198,0.0165372 -0.003985,0.0144818 -0.94992481,0.0250619 -0.96566075,0.0108007 z M 0.28696658,0.7385389 c -0.004831,-0.0114078 0.00176,-0.0547885 0.0146423,-0.0964019 0.0176144,-0.0568943 0.0194188,-0.0792907 0.007275,-0.0902962 -0.0223139,-0.0202226 -0.0202074,-0.0636033 0.004527,-0.0932407 0.0348733,-0.041786 0.0271578,-0.11702343 -0.015691,-0.15301322 -0.0435703,-0.0365956 -0.0685527,-0.040718 -0.0543142,-0.008963 0.0382148,0.0852281 0.0346792,0.13246247 -0.0125755,0.16800534 -0.0283786,0.021345 -0.0290509,0.056934 -0.001468,0.0776811 0.0260325,0.0195804 0.0265135,0.0550605 0.001626,0.11985562 -0.0249765,0.0650248 -0.0151665,0.0971142 0.0296888,0.0971142 0.0265885,0 0.0329469,-0.005016 0.0262885,-0.0207414 z m 0.1145298,-0.0143566 c 8.591e-5,-0.0193039 0.00494,-0.0644916 0.0108037,-0.10041692 0.006345,-0.0388732 0.004983,-0.0745159 -0.003365,-0.0880348 -0.0100393,-0.0162582 -0.006715,-0.0415713 0.0116955,-0.0890424 0.0214708,-0.055364 0.0230336,-0.0742665 0.009454,-0.11436681 -0.0169551,-0.0500678 -0.0384867,-0.0657594 -0.0735164,-0.053577 -0.018123,0.006303 -0.0181446,0.0126505 -1.8255e-4,0.0516235 0.0201225,0.0436466 0.0164351,0.10471853 -0.00906,0.15005936 -0.006873,0.012225 -0.005244,0.0382514 0.003881,0.061975 0.012706,0.0330328 0.0113041,0.0493144 -0.00729,0.0846514 -0.0388506,0.0738359 -0.0237903,0.13222663 0.0341047,0.13222663 0.0160256,0 0.0233722,-0.0109868 0.0234697,-0.035098 z M 0.61525856,0.7190873 C 0.63492966,0.6679467 0.63519076,0.58975746 0.6157478,0.57213788 0.5932184,0.55171987 0.5961832,0.4926935 0.6234878,0.41802001 0.652669,0.33821611 0.6436653,0.28705217 0.6004409,0.28705217 c -0.0263445,0 -0.0287895,0.005307 -0.0214162,0.0464853 0.00576,0.0321695 -1.7769e-4,0.0633982 -0.0192813,0.10140329 -0.0331457,0.0659409 -0.034061,0.08456 -0.006529,0.13281243 0.0156857,0.0274901 0.0174866,0.0454946 0.007042,0.0703932 -0.0160214,0.0381909 -0.0185719,0.10000532 -0.004646,0.11262557 0.0210038,0.0190355 0.0450512,0.006262 0.059647,-0.0316846 z m 0.0910243,-0.0619101 c -0.001039,-0.0526471 -0.006458,-0.11405324 -0.0120401,-0.13645818 -0.006759,-0.0271266 -0.00222,-0.0595535 0.0135854,-0.0970603 0.0130539,-0.0309782 0.0216404,-0.0725089 0.0190815,-0.0922903 -0.006037,-0.0466549 -0.03986,-0.0582035 -0.03986,-0.0136094 0,0.0180587 -0.0126711,0.063048 -0.0281582,0.0999762 -0.0337484,0.0804718 -0.0345124,0.0963733 -0.007029,0.14630298 0.0168681,0.0306444 0.018292,0.0520406 0.007042,0.10580633 -0.0189557,0.090585 -0.0187095,0.0918043 0.0175832,0.0871329 0.0298426,-0.003841 0.0315759,-0.009647 0.0297952,-0.0998004 z m -0.1807878,0.0206916 c 0.005822,-0.0422296 0.003502,-0.0787448 -0.006028,-0.094883 -0.021452,-0.0363272 -0.018522,-0.11724832 0.005632,-0.15554171 0.0286315,-0.0453921 0.0257333,-0.097926 -0.007042,-0.12762925 -0.0154909,-0.0140393 -0.0336828,-0.0255259 -0.0404263,-0.0255259 -0.006744,0 -0.0127349,0.0358957 -0.0133144,0.0797683 -0.00122,0.0924471 -0.0123369,0.30062154 -0.0175489,0.32864539 -0.008486,0.0456261 0.001509,0.0638146 0.0350696,0.0638146 0.0307915,0 0.0351348,-0.00683 0.0436573,-0.0686486 z m 0.28208159,0.0106799 c 0.006749,-0.0407849 0.002753,-0.074197 -0.0134779,-0.11271493 -0.0220903,-0.0524222 -0.0217963,-0.0573554 0.006926,-0.1162025 0.0268258,-0.0549609 0.0280785,-0.0667217 0.0118536,-0.11127615 -0.0241616,-0.0663502 -0.0413334,-0.0733098 -0.0413334,-0.0167524 0,0.0253315 -0.0100098,0.0636 -0.0222437,0.0850411 -0.0170247,0.0298369 -0.0196247,0.0543937 -0.011082,0.10466031 0.00614,0.0361222 0.009161,0.10157239 0.006716,0.14544495 -0.004075,0.0731145 -0.002049,0.0797683 0.0243014,0.0797683 0.0233144,0 0.0305606,-0.0109559 0.0383396,-0.0579687 z" id="path4252" inkscape:connector-curvature="0" />
</svg>