<?xml version="1.0" encoding="utf-8" standalone="no"?>
<svg xmlns:dc="http://purl.org/dc/elements/1.1/" xmlns:cc="http://creativecommons.org/ns#" xmlns:rdf="http://www.w3.org/1999/02/22-rdf-syntax-ns#" xmlns:svg="http://www.w3.org/2000/svg" xmlns="http://www.w3.org/2000/svg" xmlns:sodipodi="http://sodipodi.sourceforge.net/DTD/sodipodi-0.dtd" xmlns:inkscape="http://www.inkscape.org/namespaces/inkscape" height="1" version="1.1" width="1" id="svg2" inkscape:version="0.91 r13725" sodipodi:docname="搅混构造.svg">
  <metadata id="metadata8">
    <rdf:RDF>
      <cc:Work rdf:about="">
        <dc:format>image/svg+xml</dc:format>
        <dc:type rdf:resource="http://purl.org/dc/dcmitype/StillImage" />
        <dc:title></dc:title>
      </cc:Work>
    </rdf:RDF>
  </metadata>
  <defs id="defs6">
    <pattern width="1" height="1" id="搅混构造" patternContentUnits="objectBoundingBox">
      <path style="fill:#000000" d="m 0.03297864,0.89405097 c -0.0169985,-0.0435458 0.0664365,-0.0201737 0.0930621,-0.0288803 0.0332494,-0.0113997 0.10474454,0.0193121 0.10787907,-0.0284429 C 0.24716906,0.73323918 0.25784165,0.62601433 0.2259867,0.52462739 0.19546724,0.4212075 0.1734072,0.30787182 0.20704424,0.2024463 0.21814233,0.17996085 0.2414743,0.14328247 0.19627235,0.16204367 0.14891873,0.16562829 0.09301697,0.16417133 0.05645472,0.13004493 0.01834752,0.072212 0.1081403,0.08239099 0.1425847,0.077449 0.37775227,0.06547331 0.61361021,0.06588202 0.8488397,0.07603314 c 0.038206,0.0091962 0.0996107,-0.0095371 0.12044065,0.02924814 0.0122016,0.0552348 -0.0657279,0.0338345 -0.0984688,0.0431075 -0.0438771,0.003608 -0.0954591,0.0174693 -0.11078522,0.0643696 -0.0398066,0.10193525 -0.0282428,0.21574156 -0.005995,0.32042093 0.0241492,0.10425774 0.0282851,0.21149332 0.0264556,0.31807505 -0.006949,0.0226458 0.0195555,0.013109 0.0332212,0.0159234 0.0504725,0.003299 0.10168399,5.991e-4 0.15146456,0.0101285 0.028627,0.0211377 -0.0222995,0.0570439 -0.049586,0.0449018 -0.24146127,-7.0522e-4 -0.48309678,-0.0127199 -0.72443433,8.85e-4 -0.0478179,-1.704e-5 -0.09761559,0.007738 -0.1439691,-0.006978 -0.008703,-0.003306 -0.0156424,-0.0124047 -0.0142025,-0.0220599 z m 0.50791444,-0.0434194 c 0.004129,-0.0277817 0.0384889,-0.0161151 0.0267818,0.007087 0.0420793,0.0146267 0.0923788,0.0142756 0.1349475,8.6306e-4 0.0394936,-0.0348266 -0.0577418,-0.0524229 -0.0148751,-0.087321 0.0477705,0.01619 0.0525733,-0.0602353 0.0457293,-0.0929644 -0.0444367,-0.14997938 -0.0801108,-0.31489762 -0.0269744,-0.46757927 0.007044,-0.0308323 0.0460661,-0.0893056 -0.0139172,-0.0763412 -0.11881995,-0.002537 -0.23809807,-0.006578 -0.35673291,0.001751 -0.055732,7.5861e-4 -0.0695875,0.0645923 -0.0800139,0.10786198 -0.021022,0.10312071 0.001109,0.20808704 0.0268826,0.30809729 0.0175934,0.0734702 0.01109,0.14907974 0.002601,0.22321128 -0.0125606,0.0469529 0.0169123,0.0978931 0.0696242,0.0909479 0.0588765,0.001814 0.11910399,0.004944 0.17682165,-0.008806 l 0.006777,-0.003262 0.002349,-0.003547 0,0 z M 0.31841394,0.79070765 c 0.00904,-0.0684578 0.0647415,0.0291443 0.0104694,0.0236554 -0.007598,-0.005186 -0.0103898,-0.0149368 -0.0104694,-0.0236554 z m 0.25670674,-0.0438134 c 0.011023,-0.0337521 0.058576,0.0315283 0.0104679,0.016701 -0.00641,-0.002842 -0.0105561,-0.009747 -0.0104679,-0.016701 z M 0.42965359,0.71366232 c -0.009226,-0.0434804 0.0519168,0.010276 0.0143593,0.0157702 -0.006028,-0.003946 -0.0105087,-0.009793 -0.0143593,-0.0157702 z m 0.23103607,0 c 0.0172163,-0.0452247 0.0451626,0.0146017 0.004618,0.0157702 -0.003831,-0.004249 -0.004436,-0.0103434 -0.004618,-0.0157702 z M 0.36975533,0.65474875 c -0.004089,-0.0459086 0.0593108,-0.0180894 0.0237584,0.0107308 -0.009688,0.0142153 -0.026433,0.005009 -0.0237584,-0.0107308 z M 0.49090294,0.5153421 c 0.006758,-0.0570908 0.0220731,0.0542671 2.9381e-4,0.0119254 l -3.4281e-4,-0.005546 6.856e-5,-0.006381 -6.6e-7,0 z M 0.63787125,0.4796729 C 0.61262055,0.4561397 0.63607725,0.4275878 0.65387905,0.4616997 0.66908235,0.4764729 0.65299661,0.4949848 0.63787125,0.4796729 Z M 0.55126935,0.4297323 c -0.0154009,-0.0597955 0.076852,0.0308856 0.0198,0.0249731 -0.009396,-0.005585 -0.0158385,-0.0149986 -0.0198,-0.0249731 z M 0.29416288,0.35641547 c -0.0286128,-0.0327153 0.0300884,-0.0528974 0.0225934,-0.009065 -9.781e-4,0.017612 -0.0122717,0.0327061 -0.0225934,0.009065 z m 0.32612921,0.002943 c -0.0481048,-0.0463238 0.0733659,-0.0520589 0.0312207,-0.002884 -0.007929,0.007894 -0.0224563,0.0118788 -0.0312207,0.002884 z M 0.38906162,0.33871401 c -0.0316976,-0.0142472 -0.0120333,-0.0663817 0.0148297,-0.0279394 0.0207231,0.0116207 0.0395955,0.0595054 -2.7753e-4,0.0363254 l -0.006913,-0.003755 -0.007647,-0.004631 0,0 z M 0.60934827,0.2675009 c 0.011023,-0.033752 0.058576,0.0315284 0.0104694,0.016701 -0.00641,-0.002842 -0.0105561,-0.009746 -0.0104694,-0.016701 z M 0.43821046,0.22469796 c 0.008034,-0.05415 0.062877,0.0379826 0.0104699,0.0245862 -0.007709,-0.005572 -0.0103913,-0.0155568 -0.0104699,-0.0245862 z M 0.33552774,0.20912452 c 0.007377,-0.0476391 0.0755897,0.0152793 0.0219269,0.0246359 -0.0138648,0.002409 -0.0228752,-0.0124013 -0.0219269,-0.0246359 z m 0.21321855,0.006884 c -0.029844,-0.0591026 0.0766571,-0.0133635 0.0334047,0.0170358 -0.013395,0.003326 -0.0266688,-0.006093 -0.0334047,-0.0170358 z m 0.0948296,-0.0331033 c 0.0125213,-0.048966 0.0604436,0.0232538 0.0104694,0.0157701 -0.006204,-0.002564 -0.0105612,-0.009027 -0.0104694,-0.0157701 z" id="path4229" inkscape:connector-curvature="0" />
    </pattern>
  </defs>
  <sodipodi:namedview pagecolor="#ffffff" bordercolor="#666666" borderopacity="1" objecttolerance="10" gridtolerance="10" guidetolerance="10" inkscape:pageopacity="0" inkscape:pageshadow="2" inkscape:window-width="1680" inkscape:window-height="988" id="namedview4" showgrid="false" inkscape:zoom="187.54102" inkscape:cx="0.74127083" inkscape:cy="-0.043604167" inkscape:window-x="-8" inkscape:window-y="-8" inkscape:window-maximized="1" inkscape:current-layer="svg2" />
  <path style="fill:#000000" d="m 0.03297864,0.89405097 c -0.0169985,-0.0435458 0.0664365,-0.0201737 0.0930621,-0.0288803 0.0332494,-0.0113997 0.10474454,0.0193121 0.10787907,-0.0284429 C 0.24716906,0.73323918 0.25784165,0.62601433 0.2259867,0.52462739 0.19546724,0.4212075 0.1734072,0.30787182 0.20704424,0.2024463 0.21814233,0.17996085 0.2414743,0.14328247 0.19627235,0.16204367 0.14891873,0.16562829 0.09301697,0.16417133 0.05645472,0.13004493 0.01834752,0.072212 0.1081403,0.08239099 0.1425847,0.077449 0.37775227,0.06547331 0.61361021,0.06588202 0.8488397,0.07603314 c 0.038206,0.0091962 0.0996107,-0.0095371 0.12044065,0.02924814 0.0122016,0.0552348 -0.0657279,0.0338345 -0.0984688,0.0431075 -0.0438771,0.003608 -0.0954591,0.0174693 -0.11078522,0.0643696 -0.0398066,0.10193525 -0.0282428,0.21574156 -0.005995,0.32042093 0.0241492,0.10425774 0.0282851,0.21149332 0.0264556,0.31807505 -0.006949,0.0226458 0.0195555,0.013109 0.0332212,0.0159234 0.0504725,0.003299 0.10168399,5.991e-4 0.15146456,0.0101285 0.028627,0.0211377 -0.0222995,0.0570439 -0.049586,0.0449018 -0.24146127,-7.0522e-4 -0.48309678,-0.0127199 -0.72443433,8.85e-4 -0.0478179,-1.704e-5 -0.09761559,0.007738 -0.1439691,-0.006978 -0.008703,-0.003306 -0.0156424,-0.0124047 -0.0142025,-0.0220599 z m 0.50791444,-0.0434194 c 0.004129,-0.0277817 0.0384889,-0.0161151 0.0267818,0.007087 0.0420793,0.0146267 0.0923788,0.0142756 0.1349475,8.6306e-4 0.0394936,-0.0348266 -0.0577418,-0.0524229 -0.0148751,-0.087321 0.0477705,0.01619 0.0525733,-0.0602353 0.0457293,-0.0929644 -0.0444367,-0.14997938 -0.0801108,-0.31489762 -0.0269744,-0.46757927 0.007044,-0.0308323 0.0460661,-0.0893056 -0.0139172,-0.0763412 -0.11881995,-0.002537 -0.23809807,-0.006578 -0.35673291,0.001751 -0.055732,7.5861e-4 -0.0695875,0.0645923 -0.0800139,0.10786198 -0.021022,0.10312071 0.001109,0.20808704 0.0268826,0.30809729 0.0175934,0.0734702 0.01109,0.14907974 0.002601,0.22321128 -0.0125606,0.0469529 0.0169123,0.0978931 0.0696242,0.0909479 0.0588765,0.001814 0.11910399,0.004944 0.17682165,-0.008806 l 0.006777,-0.003262 0.002349,-0.003547 0,0 z M 0.31841394,0.79070765 c 0.00904,-0.0684578 0.0647415,0.0291443 0.0104694,0.0236554 -0.007598,-0.005186 -0.0103898,-0.0149368 -0.0104694,-0.0236554 z m 0.25670674,-0.0438134 c 0.011023,-0.0337521 0.058576,0.0315283 0.0104679,0.016701 -0.00641,-0.002842 -0.0105561,-0.009747 -0.0104679,-0.016701 z M 0.42965359,0.71366232 c -0.009226,-0.0434804 0.0519168,0.010276 0.0143593,0.0157702 -0.006028,-0.003946 -0.0105087,-0.009793 -0.0143593,-0.0157702 z m 0.23103607,0 c 0.0172163,-0.0452247 0.0451626,0.0146017 0.004618,0.0157702 -0.003831,-0.004249 -0.004436,-0.0103434 -0.004618,-0.0157702 z M 0.36975533,0.65474875 c -0.004089,-0.0459086 0.0593108,-0.0180894 0.0237584,0.0107308 -0.009688,0.0142153 -0.026433,0.005009 -0.0237584,-0.0107308 z M 0.49090294,0.5153421 c 0.006758,-0.0570908 0.0220731,0.0542671 2.9381e-4,0.0119254 l -3.4281e-4,-0.005546 6.856e-5,-0.006381 -6.6e-7,0 z M 0.63787125,0.4796729 C 0.61262055,0.4561397 0.63607725,0.4275878 0.65387905,0.4616997 0.66908235,0.4764729 0.65299661,0.4949848 0.63787125,0.4796729 Z M 0.55126935,0.4297323 c -0.0154009,-0.0597955 0.076852,0.0308856 0.0198,0.0249731 -0.009396,-0.005585 -0.0158385,-0.0149986 -0.0198,-0.0249731 z M 0.29416288,0.35641547 c -0.0286128,-0.0327153 0.0300884,-0.0528974 0.0225934,-0.009065 -9.781e-4,0.017612 -0.0122717,0.0327061 -0.0225934,0.009065 z m 0.32612921,0.002943 c -0.0481048,-0.0463238 0.0733659,-0.0520589 0.0312207,-0.002884 -0.007929,0.007894 -0.0224563,0.0118788 -0.0312207,0.002884 z M 0.38906162,0.33871401 c -0.0316976,-0.0142472 -0.0120333,-0.0663817 0.0148297,-0.0279394 0.0207231,0.0116207 0.0395955,0.0595054 -2.7753e-4,0.0363254 l -0.006913,-0.003755 -0.007647,-0.004631 0,0 z M 0.60934827,0.2675009 c 0.011023,-0.033752 0.058576,0.0315284 0.0104694,0.016701 -0.00641,-0.002842 -0.0105561,-0.009746 -0.0104694,-0.016701 z M 0.43821046,0.22469796 c 0.008034,-0.05415 0.062877,0.0379826 0.0104699,0.0245862 -0.007709,-0.005572 -0.0103913,-0.0155568 -0.0104699,-0.0245862 z M 0.33552774,0.20912452 c 0.007377,-0.0476391 0.0755897,0.0152793 0.0219269,0.0246359 -0.0138648,0.002409 -0.0228752,-0.0124013 -0.0219269,-0.0246359 z m 0.21321855,0.006884 c -0.029844,-0.0591026 0.0766571,-0.0133635 0.0334047,0.0170358 -0.013395,0.003326 -0.0266688,-0.006093 -0.0334047,-0.0170358 z m 0.0948296,-0.0331033 c 0.0125213,-0.048966 0.0604436,0.0232538 0.0104694,0.0157701 -0.006204,-0.002564 -0.0105612,-0.009027 -0.0104694,-0.0157701 z" id="path4229" inkscape:connector-curvature="0" />
</svg>