<?xml version="1.0" encoding="utf-8" standalone="no"?>
<svg xmlns:dc="http://purl.org/dc/elements/1.1/" xmlns:cc="http://creativecommons.org/ns#" xmlns:rdf="http://www.w3.org/1999/02/22-rdf-syntax-ns#" xmlns:svg="http://www.w3.org/2000/svg" xmlns="http://www.w3.org/2000/svg" xmlns:sodipodi="http://sodipodi.sourceforge.net/DTD/sodipodi-0.dtd" xmlns:inkscape="http://www.inkscape.org/namespaces/inkscape" height="1" version="1.1" width="1" id="svg2" inkscape:version="0.91 r13725" sodipodi:docname="斜层理.svg">
  <metadata id="metadata8">
    <rdf:RDF>
      <cc:Work rdf:about="">
        <dc:format>image/svg+xml</dc:format>
        <dc:type rdf:resource="http://purl.org/dc/dcmitype/StillImage" />
        <dc:title></dc:title>
      </cc:Work>
    </rdf:RDF>
  </metadata>
  <defs id="defs6">
    <pattern width="1" height="1" id="斜层理" patternContentUnits="objectBoundingBox">
      <path style="fill:#000000" d="m 0.06916513,0.74814544 c 2.9347e-4,-0.13825417 0.0016611,-0.15190751 0.037629,-0.37553637 0.0205271,-0.12763635 0.0357912,-0.23362092 0.0339196,-0.23552142 -0.00187,-0.001903 -0.0188044,-0.003457 -0.037629,-0.003457 l -0.03422634,0 0,-0.0263416 0,-0.02634177 0.30919963,0.0047698 c 0.17005979,0.0026239 0.36444223,0.0047698 0.43196099,0.0047698 l 0.12276134,0 0,0.18280707 c 0,0.1821676 -1.1231e-4,0.183507 -0.0318392,0.38294709 -0.0407568,0.25619647 -0.0342451,0.23250171 -0.0638937,0.23250171 -0.0135573,0 -0.0246497,-0.001828 -0.0246497,-0.004061 0,-0.002232 0.0254927,-0.16443518 0.0566507,-0.36044491 0.0311581,-0.19600986 0.0566507,-0.36263133 0.0566507,-0.37027009 0,-0.0122358 -0.004424,-0.0136292 -0.0371772,-0.0117142 l -0.0371769,0.00217 -0.0219264,0.13663836 c -0.0120599,0.075151 -0.038781,0.24262306 -0.0593812,0.37215983 l -0.0374547,0.23552145 -0.0267021,0 c -0.0218039,0 -0.0261754,-0.002306 -0.0238305,-0.0125852 0.002805,-0.0122906 0.11618484,-0.7272109 0.11618484,-0.73260485 0,-0.001499 -0.0172732,-0.002724 -0.0383847,-0.002724 -0.036199,0 -0.0386087,0.001126 -0.0423206,0.0197767 -0.002165,0.0108745 -0.0278761,0.17187372 -0.0571363,0.35777383 -0.0292606,0.18589933 -0.054889,0.3452808 -0.0569529,0.35418025 -0.003003,0.012952 -0.008673,0.0161807 -0.0284021,0.0161807 -0.0135573,0 -0.0246496,-0.001828 -0.0246496,-0.004061 0,-0.002232 0.0254926,-0.16443514 0.0566506,-0.36044491 0.0311579,-0.19600987 0.0566506,-0.36246219 0.0566506,-0.36989424 0,-0.0115086 -0.005517,-0.0135108 -0.0371769,-0.0135051 l -0.0371769,6.58e-6 -0.0590116,0.37215323 c -0.0324561,0.20468424 -0.0600195,0.37317689 -0.0612512,0.37442815 -0.001234,0.00125 -0.0130464,0.00125 -0.0262546,0 l -0.024015,-0.002278 0.0584848,-0.36676624 c 0.0321667,-0.20172139 0.0585866,-0.36919331 0.0587111,-0.37215978 1.2527e-4,-0.002966 -0.0170466,-0.005391 -0.0381582,-0.005391 -0.0361988,0 -0.038609,0.001126 -0.0423209,0.0197766 -0.002162,0.0108769 -0.0278761,0.17187619 -0.0571365,0.35777632 -0.0292604,0.18590016 -0.0548889,0.34528162 -0.0569528,0.35418108 -0.003003,0.0129521 -0.008673,0.0161807 -0.0284016,0.0161807 -0.0135573,0 -0.0246051,-0.002425 -0.0245503,-0.005391 5.616e-5,-0.002966 0.0265205,-0.17124741 0.0588126,-0.37395765 l 0.0587129,-0.36856409 -0.0393393,6.67e-6 -0.0393387,6.66e-6 -0.0590116,0.3721531 c -0.0324565,0.20468433 -0.0600195,0.37317703 -0.0612512,0.37442823 -0.001234,0.00125 -0.0130464,0.00125 -0.0262543,0 l -0.0240146,-0.002276 0.0584848,-0.36676625 c 0.0321667,-0.20172136 0.0585866,-0.37081138 0.0587111,-0.37575552 1.5603e-4,-0.006106 -0.0119859,-0.008989 -0.0378359,-0.008989 -0.0359376,0 -0.038261,0.0011 -0.0416259,0.0197766 -0.001959,0.0108769 -0.0284208,0.17834909 -0.0588023,0.37215984 -0.0303808,0.19381079 -0.05785504,0.35545759 -0.0610533,0.35921518 -0.0031967,0.003756 -0.0056769,-0.05773 -0.0055089,-0.13663837 z" id="path4944" inkscape:connector-curvature="0" />
    </pattern>
  </defs>
  <sodipodi:namedview pagecolor="#ffffff" bordercolor="#666666" borderopacity="1" objecttolerance="10" gridtolerance="10" guidetolerance="10" inkscape:pageopacity="0" inkscape:pageshadow="2" inkscape:window-width="1680" inkscape:window-height="988" id="namedview4" showgrid="false" inkscape:zoom="181.01934" inkscape:cx="0.37292062" inkscape:cy="-0.3218237" inkscape:window-x="-8" inkscape:window-y="-8" inkscape:window-maximized="1" inkscape:current-layer="svg2" />
  <path style="fill:#000000" d="m 0.06916513,0.74814544 c 2.9347e-4,-0.13825417 0.0016611,-0.15190751 0.037629,-0.37553637 0.0205271,-0.12763635 0.0357912,-0.23362092 0.0339196,-0.23552142 -0.00187,-0.001903 -0.0188044,-0.003457 -0.037629,-0.003457 l -0.03422634,0 0,-0.0263416 0,-0.02634177 0.30919963,0.0047698 c 0.17005979,0.0026239 0.36444223,0.0047698 0.43196099,0.0047698 l 0.12276134,0 0,0.18280707 c 0,0.1821676 -1.1231e-4,0.183507 -0.0318392,0.38294709 -0.0407568,0.25619647 -0.0342451,0.23250171 -0.0638937,0.23250171 -0.0135573,0 -0.0246497,-0.001828 -0.0246497,-0.004061 0,-0.002232 0.0254927,-0.16443518 0.0566507,-0.36044491 0.0311581,-0.19600986 0.0566507,-0.36263133 0.0566507,-0.37027009 0,-0.0122358 -0.004424,-0.0136292 -0.0371772,-0.0117142 l -0.0371769,0.00217 -0.0219264,0.13663836 c -0.0120599,0.075151 -0.038781,0.24262306 -0.0593812,0.37215983 l -0.0374547,0.23552145 -0.0267021,0 c -0.0218039,0 -0.0261754,-0.002306 -0.0238305,-0.0125852 0.002805,-0.0122906 0.11618484,-0.7272109 0.11618484,-0.73260485 0,-0.001499 -0.0172732,-0.002724 -0.0383847,-0.002724 -0.036199,0 -0.0386087,0.001126 -0.0423206,0.0197767 -0.002165,0.0108745 -0.0278761,0.17187372 -0.0571363,0.35777383 -0.0292606,0.18589933 -0.054889,0.3452808 -0.0569529,0.35418025 -0.003003,0.012952 -0.008673,0.0161807 -0.0284021,0.0161807 -0.0135573,0 -0.0246496,-0.001828 -0.0246496,-0.004061 0,-0.002232 0.0254926,-0.16443514 0.0566506,-0.36044491 0.0311579,-0.19600987 0.0566506,-0.36246219 0.0566506,-0.36989424 0,-0.0115086 -0.005517,-0.0135108 -0.0371769,-0.0135051 l -0.0371769,6.58e-6 -0.0590116,0.37215323 c -0.0324561,0.20468424 -0.0600195,0.37317689 -0.0612512,0.37442815 -0.001234,0.00125 -0.0130464,0.00125 -0.0262546,0 l -0.024015,-0.002278 0.0584848,-0.36676624 c 0.0321667,-0.20172139 0.0585866,-0.36919331 0.0587111,-0.37215978 1.2527e-4,-0.002966 -0.0170466,-0.005391 -0.0381582,-0.005391 -0.0361988,0 -0.038609,0.001126 -0.0423209,0.0197766 -0.002162,0.0108769 -0.0278761,0.17187619 -0.0571365,0.35777632 -0.0292604,0.18590016 -0.0548889,0.34528162 -0.0569528,0.35418108 -0.003003,0.0129521 -0.008673,0.0161807 -0.0284016,0.0161807 -0.0135573,0 -0.0246051,-0.002425 -0.0245503,-0.005391 5.616e-5,-0.002966 0.0265205,-0.17124741 0.0588126,-0.37395765 l 0.0587129,-0.36856409 -0.0393393,6.67e-6 -0.0393387,6.66e-6 -0.0590116,0.3721531 c -0.0324565,0.20468433 -0.0600195,0.37317703 -0.0612512,0.37442823 -0.001234,0.00125 -0.0130464,0.00125 -0.0262543,0 l -0.0240146,-0.002276 0.0584848,-0.36676625 c 0.0321667,-0.20172136 0.0585866,-0.37081138 0.0587111,-0.37575552 1.5603e-4,-0.006106 -0.0119859,-0.008989 -0.0378359,-0.008989 -0.0359376,0 -0.038261,0.0011 -0.0416259,0.0197766 -0.001959,0.0108769 -0.0284208,0.17834909 -0.0588023,0.37215984 -0.0303808,0.19381079 -0.05785504,0.35545759 -0.0610533,0.35921518 -0.0031967,0.003756 -0.0056769,-0.05773 -0.0055089,-0.13663837 z" id="path4944" inkscape:connector-curvature="0" />
</svg>