<?xml version="1.0" encoding="utf-8" standalone="no"?>
<svg xmlns:dc="http://purl.org/dc/elements/1.1/" xmlns:cc="http://creativecommons.org/ns#" xmlns:rdf="http://www.w3.org/1999/02/22-rdf-syntax-ns#" xmlns:svg="http://www.w3.org/2000/svg" xmlns="http://www.w3.org/2000/svg" xmlns:sodipodi="http://sodipodi.sourceforge.net/DTD/sodipodi-0.dtd" xmlns:inkscape="http://www.inkscape.org/namespaces/inkscape" height="1" version="1.1" width="1" id="svg2" inkscape:version="0.91 r13725" sodipodi:docname="气孔构造.svg">
  <metadata id="metadata8">
    <rdf:RDF>
      <cc:Work rdf:about="">
        <dc:format>image/svg+xml</dc:format>
        <dc:type rdf:resource="http://purl.org/dc/dcmitype/StillImage" />
        <dc:title></dc:title>
      </cc:Work>
    </rdf:RDF>
  </metadata>
  <defs id="defs6">
    <pattern width="1" height="1" id="气孔构造" patternContentUnits="objectBoundingBox">
      <path id="path4141" style="fill:none;fill-rule:evenodd;stroke:#000000;stroke-width:0.03;stroke-linecap:butt;stroke-linejoin:miter;stroke-miterlimit:4;stroke-dasharray:none;stroke-opacity:1" d="M 0.6328125,0.1484375 C 0.38428292,0.13886319 0.52747662,0.44166982 0.48828125,0.55078125 m -0.203125,-0.265625 0.41015625,-0.003906 0.0117188,-0.003906 0,0 M 0.6171875,0.68164062 a 0.125,0.12304688 0 0 1 -0.125,0.12304689 0.125,0.12304688 0 0 1 -0.125,-0.12304689 0.125,0.12304688 0 0 1 0.125,-0.12304688 0.125,0.12304688 0 0 1 0.125,0.12304688 z" />
    </pattern>
  </defs>
  <sodipodi:namedview pagecolor="#ffffff" bordercolor="#666666" borderopacity="1" objecttolerance="10" gridtolerance="10" guidetolerance="10" inkscape:pageopacity="0" inkscape:pageshadow="2" inkscape:window-width="1680" inkscape:window-height="988" id="namedview4" showgrid="false" inkscape:zoom="256" inkscape:cx="1.2913766" inkscape:cy="0.27734375" inkscape:window-x="-8" inkscape:window-y="-8" inkscape:window-maximized="1" inkscape:current-layer="svg2" />
  <path id="path4141" style="fill:none;fill-rule:evenodd;stroke:#000000;stroke-width:0.03;stroke-linecap:butt;stroke-linejoin:miter;stroke-miterlimit:4;stroke-dasharray:none;stroke-opacity:1" d="M 0.6328125,0.1484375 C 0.38428292,0.13886319 0.52747662,0.44166982 0.48828125,0.55078125 m -0.203125,-0.265625 0.41015625,-0.003906 0.0117188,-0.003906 0,0 M 0.6171875,0.68164062 a 0.125,0.12304688 0 0 1 -0.125,0.12304689 0.125,0.12304688 0 0 1 -0.125,-0.12304689 0.125,0.12304688 0 0 1 0.125,-0.12304688 0.125,0.12304688 0 0 1 0.125,0.12304688 z" />
</svg>