<?xml version="1.0" encoding="utf-8" standalone="no"?>
<svg xmlns:dc="http://purl.org/dc/elements/1.1/" xmlns:cc="http://creativecommons.org/ns#" xmlns:rdf="http://www.w3.org/1999/02/22-rdf-syntax-ns#" xmlns:svg="http://www.w3.org/2000/svg" xmlns="http://www.w3.org/2000/svg" xmlns:sodipodi="http://sodipodi.sourceforge.net/DTD/sodipodi-0.dtd" xmlns:inkscape="http://www.inkscape.org/namespaces/inkscape" height="1" version="1.1" width="1" id="svg2" inkscape:version="0.91 r13725" sodipodi:docname="透镜体.svg">
  <metadata id="metadata8">
    <rdf:RDF>
      <cc:Work rdf:about="">
        <dc:format>image/svg+xml</dc:format>
        <dc:type rdf:resource="http://purl.org/dc/dcmitype/StillImage" />
        <dc:title></dc:title>
      </cc:Work>
    </rdf:RDF>
  </metadata>
  <defs id="defs6">
    <pattern width="1" height="1" id="透镜体" patternContentUnits="objectBoundingBox">
      <path style="fill:#000000" d="M 0.19530244,0.64203713 C 0.14392935,0.60866777 0.07377276,0.62965791 0.0320565,0.57293092 -0.00968958,0.54340807 0.00232941,0.46953168 0.04901319,0.45794518 c 0.03853961,-0.0305189 0.08159982,-0.0512474 0.1268254,-0.0618833 0.082327,-0.0275357 0.16882948,-0.0225653 0.25336347,-0.0194411 0.0906322,0.004166 0.17971977,0.0257763 0.26999767,0.03458 0.0640245,0.009365 0.12664025,0.0298289 0.18828537,0.0520511 0.0368519,0.0195372 0.0885061,0.0161714 0.1161829,0.0497322 9.746e-4,0.0526321 -0.0625246,0.0351957 -0.0898889,0.053575 -0.0592964,0.0153086 -0.12055589,0.0187216 -0.17839339,0.04133 -0.0574801,0.0141897 -0.11445106,0.0334816 -0.17362254,0.0339585 -0.12189574,0.007489 -0.24483051,0.0160285 -0.36646078,1.9147e-4 z m 0.36736838,-0.0518323 c 0.0500422,-0.0143103 0.10268659,-0.0108503 0.15181392,-0.0306699 0.0257051,-9.0563e-4 0.056626,-0.0155506 0.0457174,-0.0499607 0.0143041,-0.0334966 0.0422501,0.0103728 0.024109,0.0309793 0.0248538,-0.001987 0.0860101,-8.9622e-4 0.0799825,-0.0358556 C 0.80625844,0.47205103 0.7407124,0.47339763 0.6793289,0.45533903 0.5996311,0.43959373 0.51751631,0.44870103 0.43849584,0.42599933 c -0.0470006,0.009046 -0.0941967,-0.0166725 -0.14104086,-0.001365 -0.0422469,0.0101072 -0.0852935,0.014844 -0.1276048,0.023329 -0.0353397,0.0199141 -0.09656011,0.0286806 -0.10636292,0.0779003 0.01417394,0.0428263 0.06040251,0.0422112 0.09128625,0.0585459 0.045419,0.0184795 0.0935575,0.0207629 0.14097893,0.0177183 0.0890393,-1.9522e-4 0.17825214,-0.001094 0.26691831,-0.0119232 z m -0.4599619,-0.0571072 c -0.01774234,-0.0694431 0.0948227,-0.003358 0.0268692,0.0107847 -0.009578,0.001346 -0.0208042,-7.837e-4 -0.0268692,-0.0107847 z m 0.20586295,-0.002768 c -0.0366343,-0.0336669 0.0356988,-0.0673042 0.0334686,-0.0129225 2.99e-6,0.0189996 -0.0246776,0.0307121 -0.0334686,0.0129225 z m 0.26824248,0.009161 c -0.0360109,-0.0485195 0.0707478,-0.0449105 0.0286713,-0.001702 -0.008207,0.006438 -0.0203721,0.0103763 -0.0286713,0.001702 z M 0.19738559,0.52772831 c -0.0226946,-0.0563572 0.0787847,-0.0117073 0.0235814,0.008292 -0.008381,0.00243 -0.017447,-0.001241 -0.0235814,-0.008292 z m 0.19466259,0.004415 c -0.0216902,-0.0617468 0.0718305,-0.002045 0.004506,0.003429 l -0.004506,-0.003429 z m 0.0946607,-0.00947 c -0.0250663,-0.0513729 0.070247,-0.0354496 0.0269941,0.005078 -0.007657,0.008825 -0.0259683,0.0133382 -0.0269941,-0.005078 z m 0.18253568,-0.002052 c -0.0223105,-0.0541313 0.0683295,-0.0155861 0.0239561,0.0127856 -0.00904,0.005694 -0.021282,-0.001084 -0.0239561,-0.0127856 z" id="path4378" inkscape:connector-curvature="0" />
    </pattern>
  </defs>
  <sodipodi:namedview pagecolor="#ffffff" bordercolor="#666666" borderopacity="1" objecttolerance="10" gridtolerance="10" guidetolerance="10" inkscape:pageopacity="0" inkscape:pageshadow="2" inkscape:window-width="1680" inkscape:window-height="988" id="namedview4" showgrid="false" inkscape:zoom="256" inkscape:cx="0.5" inkscape:cy="0.5" inkscape:window-x="-8" inkscape:window-y="-8" inkscape:window-maximized="1" inkscape:current-layer="svg2" />
  <path style="fill:#000000" d="M 0.19530244,0.64203713 C 0.14392935,0.60866777 0.07377276,0.62965791 0.0320565,0.57293092 -0.00968958,0.54340807 0.00232941,0.46953168 0.04901319,0.45794518 c 0.03853961,-0.0305189 0.08159982,-0.0512474 0.1268254,-0.0618833 0.082327,-0.0275357 0.16882948,-0.0225653 0.25336347,-0.0194411 0.0906322,0.004166 0.17971977,0.0257763 0.26999767,0.03458 0.0640245,0.009365 0.12664025,0.0298289 0.18828537,0.0520511 0.0368519,0.0195372 0.0885061,0.0161714 0.1161829,0.0497322 9.746e-4,0.0526321 -0.0625246,0.0351957 -0.0898889,0.053575 -0.0592964,0.0153086 -0.12055589,0.0187216 -0.17839339,0.04133 -0.0574801,0.0141897 -0.11445106,0.0334816 -0.17362254,0.0339585 -0.12189574,0.007489 -0.24483051,0.0160285 -0.36646078,1.9147e-4 z m 0.36736838,-0.0518323 c 0.0500422,-0.0143103 0.10268659,-0.0108503 0.15181392,-0.0306699 0.0257051,-9.0563e-4 0.056626,-0.0155506 0.0457174,-0.0499607 0.0143041,-0.0334966 0.0422501,0.0103728 0.024109,0.0309793 0.0248538,-0.001987 0.0860101,-8.9622e-4 0.0799825,-0.0358556 C 0.80625844,0.47205103 0.7407124,0.47339763 0.6793289,0.45533903 0.5996311,0.43959373 0.51751631,0.44870103 0.43849584,0.42599933 c -0.0470006,0.009046 -0.0941967,-0.0166725 -0.14104086,-0.001365 -0.0422469,0.0101072 -0.0852935,0.014844 -0.1276048,0.023329 -0.0353397,0.0199141 -0.09656011,0.0286806 -0.10636292,0.0779003 0.01417394,0.0428263 0.06040251,0.0422112 0.09128625,0.0585459 0.045419,0.0184795 0.0935575,0.0207629 0.14097893,0.0177183 0.0890393,-1.9522e-4 0.17825214,-0.001094 0.26691831,-0.0119232 z m -0.4599619,-0.0571072 c -0.01774234,-0.0694431 0.0948227,-0.003358 0.0268692,0.0107847 -0.009578,0.001346 -0.0208042,-7.837e-4 -0.0268692,-0.0107847 z m 0.20586295,-0.002768 c -0.0366343,-0.0336669 0.0356988,-0.0673042 0.0334686,-0.0129225 2.99e-6,0.0189996 -0.0246776,0.0307121 -0.0334686,0.0129225 z m 0.26824248,0.009161 c -0.0360109,-0.0485195 0.0707478,-0.0449105 0.0286713,-0.001702 -0.008207,0.006438 -0.0203721,0.0103763 -0.0286713,0.001702 z M 0.19738559,0.52772831 c -0.0226946,-0.0563572 0.0787847,-0.0117073 0.0235814,0.008292 -0.008381,0.00243 -0.017447,-0.001241 -0.0235814,-0.008292 z m 0.19466259,0.004415 c -0.0216902,-0.0617468 0.0718305,-0.002045 0.004506,0.003429 l -0.004506,-0.003429 z m 0.0946607,-0.00947 c -0.0250663,-0.0513729 0.070247,-0.0354496 0.0269941,0.005078 -0.007657,0.008825 -0.0259683,0.0133382 -0.0269941,-0.005078 z m 0.18253568,-0.002052 c -0.0223105,-0.0541313 0.0683295,-0.0155861 0.0239561,0.0127856 -0.00904,0.005694 -0.021282,-0.001084 -0.0239561,-0.0127856 z" id="path4378" inkscape:connector-curvature="0" />
</svg>