<?xml version="1.0" encoding="utf-8" standalone="no"?>
<svg xmlns:dc="http://purl.org/dc/elements/1.1/" xmlns:cc="http://creativecommons.org/ns#" xmlns:rdf="http://www.w3.org/1999/02/22-rdf-syntax-ns#" xmlns:svg="http://www.w3.org/2000/svg" xmlns="http://www.w3.org/2000/svg" xmlns:sodipodi="http://sodipodi.sourceforge.net/DTD/sodipodi-0.dtd" xmlns:inkscape="http://www.inkscape.org/namespaces/inkscape" height="1" version="1.1" width="1" id="svg2" inkscape:version="0.91 r13725" sodipodi:docname="AnticlineFold.svg">
  <metadata id="metadata8">
    <rdf:RDF>
      <cc:Work rdf:about="">
        <dc:format>image/svg+xml</dc:format>
        <dc:type rdf:resource="http://purl.org/dc/dcmitype/StillImage" />
        <dc:title></dc:title>
      </cc:Work>
    </rdf:RDF>
  </metadata>
  <defs id="defs6">
    <pattern width="1" height="1" id="AnticlineFold" patternContentUnits="objectBoundingBox">
      <path style="fill:#000000" d="m 0.50466553,0.86393216 c -0.0253785,-0.003613 -0.10739735,-0.005824 -0.18226418,-0.004915 l -0.13612127,0.001653 -0.0226685,-0.0230786 c -0.0198563,-0.0202157 -0.0252264,-0.031467 -0.0432892,-0.0906893 -0.0255081,-0.0836342 -0.0577314,-0.23214215 -0.0674645,-0.31091989 -0.008496,-0.0687769 -0.009512,-0.16868057 -0.002242,-0.2207111 0.005827,-0.0417223 0.0261958,-0.081867 0.0489225,-0.0964398 0.0206981,-0.0132714 0.11075574,-0.0123451 0.15890342,0.001637 0.0811182,0.0235529 0.2952741,0.1649614 0.38082126,0.25145914 0.0350209,0.0354104 0.23204663,0.26977447 0.28296833,0.336594 0.0241219,0.0316534 0.047465,0.0671251 0.0518725,0.078826 0.007697,0.0204334 0.007655,0.0219753 -0.00107,0.0389919 -0.004998,0.009744 -0.0175767,0.0229333 -0.0279611,0.0293093 -0.0171531,0.010532 -0.0224731,0.01063 -0.0581719,0.001069 -0.0333854,-0.008943 -0.0407916,-0.009067 -0.0492674,-8.2386e-4 -0.0124529,0.0121091 -0.26204991,0.0181377 -0.3329747,0.008043 z m 0.0415285,-0.0253158 c 0,-0.0198043 -0.006194,-0.020572 -0.0507572,-0.006291 -0.0381462,0.0122243 -0.0385983,0.0163135 -0.002308,0.0208726 0.051025,0.006409 0.0530641,0.005849 0.0530641,-0.0145812 z m 0.20329543,0.014825 c -0.002462,-0.006112 -0.0415548,-0.028987 -0.0495392,-0.028987 -0.002086,0 -0.003792,0.005489 -0.003792,0.012197 0,0.0102353 -0.001109,0.009763 -0.006906,-0.002934 -0.005568,-0.0122009 -0.013607,-0.0160947 -0.0415058,-0.0201072 -0.0190296,-0.002739 -0.0481065,-0.002755 -0.0646148,-5.01e-5 -0.0293591,0.004826 -0.0300156,0.005383 -0.0300156,0.0256125 l 0,0.0206794 0.0994792,0 c 0.0582956,0 0.0984093,-0.002655 0.0968947,-0.006418 z m 0.0518853,-0.0343321 c 0.001294,-0.0346795 5.547e-4,-0.0376993 -0.0109413,-0.0444077 -0.0199296,-0.0116281 -0.0897994,-0.0373687 -0.0920516,-0.0339129 -0.00114,0.001742 -4.87e-5,0.0139839 0.002426,0.0272001 0.002941,0.0157363 0.002914,0.0264492 -7.304e-5,0.0310422 -0.007889,0.0121057 -0.005157,0.0164343 0.015382,0.0243706 0.0109737,0.004242 0.0291421,0.0141809 0.0403748,0.02209 0.0112326,0.007909 0.0256144,0.0135809 0.0319589,0.0126039 0.0104884,-0.001614 0.0116624,-0.005155 0.0129305,-0.0389869 z m -0.0313175,-0.0105877 c 4.869e-5,-0.0128834 9.2484e-4,-0.0138998 0.004544,-0.005311 0.005781,0.0137284 0.005781,0.0212433 0,0.0212433 -0.002538,0 -0.004582,-0.00717 -0.004544,-0.0159328 z m 0.0592967,0.0398759 c 0.007638,-0.008209 0.0170959,-0.0105142 0.0333267,-0.008121 0.0124652,0.001837 0.0226628,0.00201 0.0226628,3.8065e-4 0,-0.004186 -0.067565,-0.0516081 -0.073526,-0.0516081 -0.005308,0 -0.006932,0.0582772 -0.00184,0.0660901 0.004549,0.006981 0.007596,0.005921 0.019377,-0.006742 z m -0.57358815,-0.002622 c 0.0341481,-1.002e-4 0.0488987,-0.0128466 0.0401901,-0.0347429 -0.003125,-0.007856 -0.007041,-0.0273432 -0.008706,-0.0433044 -0.001996,-0.0191642 -0.004997,-0.0278581 -0.008835,-0.0255981 -0.003195,0.001881 -0.0142988,0.007325 -0.0246722,0.012094 -0.0161034,0.007404 -0.0192845,0.0121363 -0.021758,0.0323699 -0.003613,0.0295593 -0.0102514,0.0315421 -0.007447,0.002227 0.001995,-0.020877 0.001721,-0.0212389 -0.0100279,-0.0130253 -0.00702,0.00491 -0.0123054,0.0146452 -0.0126159,0.0232434 -4.3143e-4,0.011956 -9.3924e-4,0.0124174 -0.002646,0.002405 -0.002502,-0.0146936 -0.002338,-0.0146664 -0.025251,-0.00413 -0.0214488,0.009861 -0.0207331,0.0182001 0.003414,0.0397774 0.0131013,0.0117077 0.0225574,0.0151507 0.0342485,0.0124698 0.008883,-0.002037 0.028731,-0.003741 0.0441071,-0.00378 z m 0.00665,-0.0704707 c 0,-0.003663 0.002077,-0.008633 0.004614,-0.0110397 0.002537,-0.002405 0.004614,5.9006e-4 0.004614,0.006663 0,0.006072 -0.002077,0.0110397 -0.004614,0.0110397 -0.002537,0 -0.004614,-0.003 -0.004614,-0.006663 z m 0.68771155,0.0631679 c 0.0100505,-0.007868 0.0182733,-0.0189566 0.0182733,-0.0246406 0,-0.0103973 -0.0434633,-0.0529174 -0.0542177,-0.0530415 -0.004027,-5.005e-5 -0.005768,0.0138247 -0.005768,0.0459608 0,0.0445674 3.7287e-4,0.046027 0.0117196,0.046027 0.006446,0 0.0199424,-0.006438 0.0299928,-0.0143062 z m -0.56446937,0.002672 0.0240352,-0.004431 0.003052,-0.0312399 c 0.00168,-0.0171819 0.001969,-0.0329031 6.4714e-4,-0.0349355 -0.003102,-0.004759 -0.0956505,0.0506612 -0.10742617,0.0643303 -0.008132,0.009441 -0.00602,0.0103945 0.0233582,0.0105432 0.0177648,1.0019e-4 0.0431158,-0.001831 0.0563349,-0.00427 z M 0.4992465,0.82244476 0.5445849,0.80760246 0.5416819,0.78239406 c -0.005006,-0.0434814 -0.007319,-0.0499954 -0.0177177,-0.0498991 -0.0157345,1.5047e-4 -0.096466,0.0269151 -0.1001589,0.0332115 -0.00182,0.003101 -0.004558,0.0205737 -0.006084,0.0388249 -0.002675,0.0319691 -0.002317,0.0332895 0.009784,0.0360783 0.006909,0.001592 0.0156754,0.001497 0.0194821,-2.25e-4 0.003808,-0.001709 0.0273237,-0.009787 0.0522595,-0.0179507 z M 0.4239156,0.79259046 c 0,-0.009737 0.002075,-0.0177029 0.004615,-0.0177029 0.002538,0 0.004615,0.007966 0.004615,0.0177029 0,0.009737 -0.002075,0.0177029 -0.004615,0.0177029 -0.002538,0 -0.004615,-0.007966 -0.004615,-0.0177029 z m 0.0653286,-0.0247837 c 0,-0.009737 0.001048,-0.0137195 0.002327,-0.008851 0.001279,0.004871 0.001279,0.0128344 0,0.0177029 -0.001279,0.004871 -0.002327,8.8509e-4 -0.002327,-0.008852 z m 0.022707,0.00295 c 2.1572e-4,-0.008249 0.001309,-0.009927 0.002788,-0.004275 0.00134,0.00511 0.001171,0.011219 -3.6979e-4,0.013572 -0.001525,0.002355 -0.002624,-0.001826 -0.002422,-0.009294 z m 0.39091604,0.0236036 -0.001375,-0.0442568 -0.0438357,-0.0225988 c -0.0241096,-0.0124297 -0.045393,-0.0227858 -0.0472963,-0.0230135 -0.001903,-2.25e-4 -0.003461,0.0156834 -0.003461,0.0353591 0,0.0331258 9.8585e-4,0.0363049 0.0134113,0.0429475 0.007376,0.003947 0.0276209,0.0178811 0.0449893,0.0309676 0.0173681,0.0130866 0.0332353,0.0240316 0.0352598,0.0243222 0.002025,2.9064e-4 0.003062,-0.0193869 0.002308,-0.043728 z m -0.0682808,-0.0336348 c 0,-0.0129162 0.001915,-0.0202625 0.004615,-0.0177029 0.002538,0.002405 0.004615,0.0103734 0.004615,0.0177029 0,0.00733 -0.002075,0.0152959 -0.004615,0.0177029 -0.0027,0.002561 -0.004615,-0.004787 -0.004615,-0.0177029 z m -0.47638207,0.0283246 c 0.0253024,-0.0155782 0.0483621,-0.0283246 0.0512436,-0.0283246 0.003282,0 0.005238,-0.0147276 0.005238,-0.0394233 0,-0.0341974 -0.001063,-0.0389451 -0.008075,-0.03582 -0.00444,0.001982 -0.0252054,0.0106629 -0.0461426,0.0192905 -0.0302141,0.0124514 -0.038068,0.0183804 -0.038068,0.0287388 0,0.007178 -0.002075,0.0130515 -0.004615,0.0130515 -0.002538,0 -0.004615,-0.004676 -0.004615,-0.0103934 0,-0.007837 -0.002554,-0.008917 -0.010382,-0.004392 -0.008379,0.004843 -0.0101248,0.0106077 -0.009049,0.029866 0.001433,0.025538 0.009612,0.0557277 0.0151108,0.0557277 0.001843,0 0.0240498,-0.0127459 0.0493526,-0.028324 z m 0.005726,-0.0346477 c 0,-0.003479 0.003408,-0.008331 0.007575,-0.0107842 0.006333,-0.00373 0.006618,-0.002694 0.001743,0.006324 -0.006645,0.0122872 -0.009316,0.0135664 -0.009316,0.004459 z m -0.008864,-0.0261319 c 2.1572e-4,-0.008249 0.001309,-0.009927 0.002788,-0.004275 0.00134,0.00511 0.001171,0.011219 -3.698e-4,0.013572 -0.001525,0.002355 -0.002624,-0.001826 -0.002422,-0.009294 z m 0.33940578,0.0630475 c 0.001418,-0.008702 6.6255e-4,-0.0247224 -0.001692,-0.0355996 -0.003684,-0.0170249 -0.007439,-0.0204295 -0.0269827,-0.0244675 -0.0281256,-0.005811 -0.11945703,-0.007334 -0.1229006,-0.002049 -0.002081,0.003195 0.001743,0.0379571 0.00775,0.0704702 8.0143e-4,0.004309 0.0286888,0.007157 0.0712727,0.007275 0.068612,2.0062e-4 0.0700142,-1.0014e-4 0.0725519,-0.0156283 z m -0.0944847,-0.0235112 c 0,-0.009737 0.001048,-0.0137195 0.002327,-0.008851 0.001279,0.004871 0.001279,0.0128344 0,0.0177029 -0.001279,0.004871 -0.002327,8.8509e-4 -0.002327,-0.008852 z m 0.0336142,-0.002961 c -0.0137749,-0.0154585 -0.00612,-0.0180303 0.009493,-0.00319 0.007986,0.007591 0.0107996,0.0131734 0.00665,0.0131951 -0.003957,2.032e-5 -0.0112202,-0.004481 -0.0161427,-0.0100054 z m -0.41838878,-0.001637 c 0.033746,-0.0181065 0.0607679,-0.0354805 0.0600481,-0.0386095 -0.003804,-0.0165373 -0.0566043,-0.10549693 -0.0626147,-0.10549693 -0.003873,0 -0.0165847,0.0159322 -0.0282511,0.0354053 -0.0116657,0.0194731 -0.0232382,0.0354053 -0.0257159,0.0354053 -0.004422,0 0.003099,-0.0133877 0.0338262,-0.0601867 0.0108752,-0.0165635 0.0142928,-0.0266001 0.0115361,-0.0338779 -0.005622,-0.0148451 -0.0634066,-0.11731731 -0.0664759,-0.11788877 -0.001419,-2.5718e-4 -0.009159,0.0138603 -0.0172086,0.0313862 -0.008049,0.0175259 -0.017476,0.0318644 -0.020947,0.0318644 -0.003469,0 -0.008447,0.007169 -0.0110556,0.0159328 -0.003709,0.012462 -0.002002,0.0274996 0.007844,0.0690405 0.018806,0.079333 0.0468487,0.16994586 0.0525938,0.16994586 0.002783,0 0.0326737,-0.0148144 0.0664197,-0.032921 z m 0.7255028,-0.0131061 c -0.0194614,-0.030431 -0.0374069,-0.0407465 -0.0436999,-0.0251205 -0.002052,0.005099 0.0494608,0.0518541 0.0619644,0.0562431 0.001159,4.0765e-4 -0.007056,-0.013597 -0.0182644,-0.0311229 z m -0.13842829,-0.013685 c 0,-0.0346238 0.001309,-0.0331698 -0.0415287,-0.0460387 -0.0796907,-0.0239387 -0.086017,-0.0224023 -0.0730608,0.017743 0.005334,0.0165267 0.0126116,0.0216385 0.054604,0.0383484 0.0644501,0.0256471 0.0599856,0.0263958 0.0599856,-0.0100527 z m -0.0244084,-0.0110987 c 0.001325,-0.007789 0.00321,-0.014162 0.004182,-0.014162 9.7077e-4,0 0.001769,0.006373 0.001769,0.014162 0,0.007789 -0.001881,0.014162 -0.004182,0.014162 -0.002301,0 -0.003097,-0.006373 -0.001769,-0.014162 z m -0.31450754,0.0143157 c 0.0227122,-0.007705 0.0480432,-0.014078 0.0562912,-0.014162 0.0149059,-1.5047e-4 0.0149968,-3.6523e-4 0.0149968,-0.0355584 0,-0.0353809 -9.24e-6,-0.0354048 -0.0149968,-0.034641 -0.008248,4.205e-4 -0.0284931,0.004403 -0.0449891,0.008851 -0.0267886,0.007223 -0.0301578,0.009978 -0.0315373,0.0257896 -0.002438,0.0279505 -0.009991,0.0343738 -0.009991,0.008497 0,-0.0311875 -0.007387,-0.0285434 -0.0108813,0.003897 -0.003095,0.028741 -0.003789,0.0513375 -0.001575,0.0513375 7.7059e-4,0 0.0199699,-0.006304 0.0426821,-0.0140089 z m 0.0489447,-0.0355584 c 0,-0.009737 0.001048,-0.0137195 0.002327,-0.008852 0.001279,0.004871 0.001279,0.0128344 0,0.0177029 -0.001279,0.004871 -0.002327,8.8509e-4 -0.002327,-0.008851 z m -0.15652481,-0.008159 c 0.0297843,-0.0130376 0.05417,-0.0252986 0.05419,-0.0272458 1.833e-5,-0.001948 -0.0149197,-0.0317676 -0.0331985,-0.0662667 l -0.0332357,-0.0627261 -0.0121756,0.0209115 c -0.006897,0.0118463 -0.0135192,0.0337983 -0.0152726,0.0506356 -0.002184,0.0209511 -0.008689,0.0390331 -0.0220442,0.0612671 -0.016174,0.0269268 -0.0180657,0.0331731 -0.0129259,0.0426776 0.003311,0.006123 0.009282,0.00963 0.0132649,0.007793 0.003985,-0.001837 0.0316128,-0.0140089 0.0613973,-0.0270465 z m 0.32481869,0.0134707 c -0.001525,-0.008763 -0.00281,-0.0215088 -0.002846,-0.0283241 -4.869e-5,-0.008963 -0.003808,-0.0123918 -0.0135992,-0.0123918 -0.0103759,0 -0.0139983,0.003719 -0.0155156,0.0159322 -0.00134,0.0108187 -0.001698,0.009682 -0.001109,-0.00354 8.0144e-4,-0.0178566 -4.9306e-4,-0.0194765 -0.0156309,-0.0195154 -0.009078,-2.277e-5 -0.033635,-0.002088 -0.0545724,-0.004592 l -0.0380679,-0.004548 0,0.0327089 0,0.0327089 0.0611392,0.002199 c 0.0336267,0.001208 0.0660533,0.002895 0.0720596,0.003746 0.00924,0.001308 0.010493,-9.0736e-4 0.008139,-0.0143864 z m -0.11077409,-0.023288 c -0.004453,-0.017807 -0.003139,-0.0224012 0.0023,-0.008046 0.002694,0.007107 0.003924,0.0144148 0.002737,0.0162378 -0.001187,0.001826 -0.003455,-0.001865 -0.005037,-0.008191 z m 0.0352783,-0.001091 c 0.00449,-0.001798 0.0107195,-0.001676 0.0138427,2.6236e-4 0.003125,0.001937 -5.547e-4,0.003407 -0.008163,0.003262 -0.007613,-1.5047e-4 -0.0101694,-0.001731 -0.005681,-0.003529 z m 0.30153634,0.024138 c 0.001257,-0.001926 -0.0133364,-0.0230953 -0.0324295,-0.0470373 -0.0315824,-0.0396037 -0.0360066,-0.0430166 -0.0490401,-0.0378341 l -0.0143266,0.005697 0.0303232,0.037755 c 0.0401608,0.0500038 0.0417754,0.0613938 0.001974,0.0139193 -0.0128967,-0.0153822 -0.0217663,-0.0200548 -0.0380679,-0.0200548 -0.0370391,0 -0.0260189,0.0198906 0.022582,0.0407582 0.0288229,0.0123757 0.0728794,0.0161666 0.078985,0.006797 z M 0.30075682,0.64997165 c 0.002054,-0.005422 0.006719,-0.0274579 0.0103697,-0.0489651 0.005949,-0.0350491 0.005866,-0.0409102 -8.0144e-4,-0.0565295 -0.004092,-0.009584 -0.008871,-0.0174257 -0.0106193,-0.0174257 -0.001747,0 -0.0102218,0.0111527 -0.0188317,0.0247837 -0.00861,0.013631 -0.0177547,0.0247837 -0.0203231,0.0247837 -0.002571,0 0.00458,-0.0144626 0.0158845,-0.0321394 0.0168927,-0.0264141 0.0193242,-0.0333323 0.0136501,-0.0388372 -0.003797,-0.003685 -0.0103235,-0.006747 -0.0145006,-0.006806 -0.004179,-5.015e-5 -0.0141339,-0.0115335 -0.0221234,-0.0254979 -0.0161939,-0.0283046 -0.0116746,-0.0300987 -0.0523682,0.0207869 -0.0121559,0.0152013 -0.0231511,0.0260301 -0.0244318,0.0240639 -0.001282,-0.001965 0.0113771,-0.0203126 0.0281311,-0.0407705 l 0.03046,-0.0371956 -0.0302688,-0.045099 c -0.0166478,-0.0248048 -0.0332537,-0.0450996 -0.0369023,-0.0450996 -0.003647,0 -0.008074,-0.003574 -0.009835,-0.007949 -0.001995,-0.004949 -0.0118117,0.006402 -0.0260271,0.0300948 -0.0144635,0.0241057 -0.02142,0.0410132 -0.018989,0.0461506 0.002112,0.004459 0.0380205,0.0686981 0.0798008,0.14275278 l 0.0759647,0.13464551 0.0140137,-0.0179429 c 0.007707,-0.009869 0.015694,-0.0223806 0.0177476,-0.0278047 z m 0.47384434,0.0299256 c 0,-0.001614 -0.0101417,-0.0143613 -0.0225358,-0.028324 -0.0189203,-0.0213135 -0.0263238,-0.0253871 -0.0461429,-0.0253871 -0.0216346,0 -0.0236068,0.001375 -0.0236068,0.0164738 0,0.0152809 0.003089,0.0172526 0.0426821,0.0272347 0.0234751,0.005919 0.0442395,0.0112518 0.0461429,0.0118508 0.001903,5.9563e-4 0.003461,-2.2506e-4 0.003461,-0.001848 z M 0.4366074,0.65628089 c 0.001109,-0.005138 -0.002,-0.008851 -0.007421,-0.008851 -0.0100908,0 -0.0161641,0.009247 -0.0111386,0.0169598 0.004643,0.007125 0.0163649,0.002004 0.0185589,-0.008108 z m 0.0205932,-4.9894e-4 c 0.00536,-0.003268 0.006625,-0.007996 0.003926,-0.0146964 -0.004927,-0.0122349 -0.0187538,-0.00511 -0.0187538,0.009663 0,0.0116726 0.002521,0.0125282 0.0148273,0.005032 z m 0.35568129,-0.008157 c 0.00202,-0.002806 -0.003823,-0.0138714 -0.0129845,-0.0245955 l -0.0166584,-0.0194987 -0.0208209,0.0138314 -0.0208208,0.0138308 0.014818,0.0143975 c 0.0110307,0.010718 0.0196709,0.013469 0.0338057,0.0107647 0.0104437,-0.001998 0.020641,-0.005927 0.0226613,-0.00873 z M 0.6777014,0.64034895 c 0,-0.008513 -0.003075,-0.0141626 -0.007712,-0.0141626 -0.004242,0 -0.0114652,-0.005216 -0.0160537,-0.0115852 -0.007724,-0.0107263 -0.008558,-0.0107263 -0.0112387,0 -0.001895,0.007577 -0.008314,0.0115852 -0.0185531,0.0115852 -0.010533,0 -0.0156564,0.003329 -0.0156564,0.010173 0,0.0104574 0.0129475,0.0148996 0.0496034,0.0170177 0.0167806,9.6859e-4 0.0196108,-9.1293e-4 0.0196108,-0.0130287 z M 0.41954498,0.62874546 c 0.005857,-0.0236392 0.003908,-0.0264008 -0.0111833,-0.0158493 -0.0135592,0.009482 -0.0146301,0.0137061 -0.006595,0.0260367 0.008371,0.0128472 0.0126825,0.0103762 0.0177775,-0.0101875 z m 0.0634528,-0.008713 c -0.002074,-0.0273532 -0.0175533,-0.029669 -0.0175533,-0.002627 0,0.0242421 0.003052,0.0304995 0.0122356,0.025091 0.004088,-0.002405 0.006171,-0.0112078 0.005317,-0.0224652 z m 0.0373625,0.0208987 c 0.004895,-0.004754 0.001855,-0.009892 -0.0125038,-0.0211331 l -0.0189695,-0.0148512 9.7077e-4,0.0212277 c 8.0144e-4,0.0175554 0.002963,0.0212116 0.0125038,0.0211331 0.006345,-5.01e-5 0.0144452,-0.002923 0.0180014,-0.006377 z m 0.0554854,-0.027901 c -0.007123,-0.003641 -0.0188997,0.0196429 -0.0149259,0.0295114 0.001667,0.004136 0.006673,2.5e-5 0.011798,-0.009685 0.00642,-0.012167 0.007293,-0.0176963 0.003128,-0.0198266 z m 0.0234129,0.0166971 c 0,-0.0197687 -0.0111771,-0.0244107 -0.0156562,-0.006502 -0.00468,0.018715 -0.003222,0.0242047 0.006429,0.0242047 0.006767,0 0.009228,-0.004721 0.009228,-0.0177029 z m -0.1529802,-5.1864e-4 c 0.009646,-0.007384 0.014553,-0.0163369 0.014553,-0.0265539 4.6e-7,-0.0145344 0.002279,-0.0154941 0.0399093,-0.016824 0.0435099,-0.001536 0.0545066,-0.008976 0.0418907,-0.0283363 -0.0073,-0.0112034 -0.008431,-0.0110386 -0.0182593,0.002655 -0.0155908,0.0217204 -0.0422127,0.0259955 -0.0525653,0.008441 -0.008229,-0.0139544 -0.008288,-0.0139494 -0.011892,0.001002 -0.001991,0.008262 -0.005846,0.0129123 -0.008565,0.0103339 -0.008031,-0.007617 -0.0228195,0.0184906 -0.0228195,0.0402822 0,0.0236247 -8.1652e-4,0.0232133 0.0177481,0.009006 z m 0.10683758,0.004281 c 0,-0.003774 -0.003114,-0.005027 -0.006921,-0.002783 -0.003808,0.002243 -0.006921,0.005327 -0.006921,0.006859 0,0.001531 0.003115,0.002783 0.006921,0.002783 0.003808,0 0.006921,-0.003084 0.006921,-0.006859 z m 0.009095,-0.0262917 c 0.004584,-0.006379 -0.0121185,-0.0162005 -0.0275522,-0.0162005 -0.0253266,0 -0.0307948,0.009165 -0.0160727,0.0269357 0.0117333,0.0141642 0.0131616,0.0143563 0.0269212,0.003624 0.007992,-0.006234 0.0155082,-0.0126952 0.0167037,-0.0143591 z m 0.0739621,-0.005377 c 0,-0.0205965 -0.008615,-0.0310021 -0.014288,-0.0172576 -0.007211,0.0174697 -0.004711,0.0345425 0.00506,0.0345425 0.006709,0 0.009228,-0.004721 0.009228,-0.0172849 z m 0.0346069,0.0102036 c -0.001569,-0.003897 -0.005966,-0.007081 -0.009773,-0.007081 -0.003808,0 -0.005638,0.003184 -0.00407,0.007081 0.00157,0.003897 0.005966,0.007081 0.009773,0.007081 0.003808,0 0.005638,-0.003184 0.00407,-0.007081 z m 0.0484499,0.001024 c 0,-0.003329 -0.0170327,-0.0248399 -0.0378504,-0.0477972 -0.020818,-0.0229578 -0.0477643,-0.0556522 -0.0598809,-0.0726541 -0.0200309,-0.0281075 -0.0235402,-0.0304783 -0.0386705,-0.0261219 -0.0123374,0.003551 -0.0159444,0.007576 -0.0139475,0.0155592 0.001479,0.005923 0.002694,0.0154507 0.002694,0.0211726 0,0.005722 0.006965,0.014869 0.0154752,0.0203265 0.008511,0.005455 0.0189412,0.0180408 0.0231778,0.0279628 0.004238,0.009922 0.0115531,0.0180403 0.0162596,0.0180403 0.004707,0 0.0111417,0.004782 0.0143019,0.0106217 0.003158,0.005842 0.007772,0.0106217 0.0102495,0.0106217 0.002478,0 0.0110477,0.004492 0.0190456,0.009986 0.0274068,0.0188246 0.0491472,0.0242571 0.0491472,0.0122811 z m 0.0454925,-0.007214 0.0154992,-0.0126763 -0.0351681,-0.0462335 -0.0351678,-0.0462335 -0.0241673,0.006331 c -0.0132911,0.003485 -0.0272816,0.007076 -0.0310883,0.007987 -0.003858,9.2406e-4 0.006351,0.0162167 0.0230713,0.0345603 0.016496,0.0180976 0.0350268,0.0411462 0.0411793,0.0512195 0.0130414,0.0213524 0.0243767,0.0225999 0.0458417,0.005043 z m 0.0592341,0.007668 c 0.007609,-0.007423 -0.0595207,-0.0864715 -0.0733656,-0.0863906 -0.008826,5.015e-5 -0.005199,0.00769 0.0217033,0.0456997 0.0315809,0.0446214 0.0404628,0.051617 0.0516623,0.0406908 z M 0.40969435,0.60203573 c 0.0111401,-0.009471 0.0111417,-0.009498 0.001464,-0.0174519 -0.0128073,-0.0105192 -0.0218847,-0.0100639 -0.0280887,0.001408 -0.003703,0.006845 -0.003605,0.0116209 3.5439e-4,0.0177029 0.006872,0.0105459 0.012325,0.0102019 0.0262737,-0.001659 z m 0.20340744,-0.007965 c 0,-0.00901 -0.001778,-0.00945 -0.010382,-0.002583 -0.0152695,0.012192 -0.0154499,0.0134523 -0.001923,0.0134523 0.007986,0 0.0123049,-0.003813 0.0123049,-0.0108716 z m -0.0162822,-0.008161 c 0.0200587,-0.0146786 0.0138966,-0.0231916 -0.0168991,-0.0233458 -0.0240548,-1.2525e-4 -0.0326969,0.0111722 -0.019706,0.0257495 0.0110708,0.0124219 0.016865,0.0120428 0.0366051,-0.002405 z M 0.4377591,0.56891827 c 0,-0.0124219 -0.0187203,-0.0220238 -0.0256733,-0.0131684 -0.009166,0.0116737 -0.008322,0.0175115 0.003755,0.026 0.0103281,0.007259 0.0219177,4.7578e-4 0.0219177,-0.012831 z m -0.0566983,-0.007094 c -0.006193,-0.0152152 -0.01057,-0.0170133 -0.0149475,-0.006142 -0.004176,0.01037 0.006399,0.0279511 0.0140877,0.0234232 0.005079,-0.002989 0.005253,-0.006489 8.6314e-4,-0.0172821 z m 0.0674861,-0.0244636 c -0.010966,-0.0127514 -0.015402,-0.0127782 -0.015402,-1.002e-4 0,0.005621 0.004672,0.0152675 0.0103821,0.021437 0.009487,0.0102487 0.0105161,0.0102376 0.0119413,-1.2525e-4 8.6313e-4,-0.006244 -0.002256,-0.015788 -0.006921,-0.0212116 z m 0.0582277,0.00442 c 0.003884,-0.0111377 0.002633,-0.0140362 -0.007789,-0.0180503 -0.0126193,-0.00486 -0.0243129,0.009023 -0.0243129,0.0288651 0,0.0216797 0.023534,0.0137512 0.0321011,-0.0108148 z m -0.10131527,0.0100522 c 0.003158,-0.005842 0.009642,-0.0106217 0.0144082,-0.0106217 0.004764,0 0.008664,-0.004782 0.008664,-0.0106217 0,-0.005842 0,-0.0122148 0,-0.014162 0,-0.001948 -6.0092e-4,-0.002744 -0.00134,-0.00177 -7.3974e-4,9.7972e-4 -0.008129,-0.009382 -0.0164263,-0.0230135 -0.0115623,-0.0189977 -0.0144621,-0.0213235 -0.0124205,-0.009965 0.001652,0.009197 -8.6314e-4,0.0217115 -0.006645,0.0329822 -0.009462,0.0184606 -0.0117904,0.0345448 -0.006233,0.0430722 0.005148,0.0079 0.0139352,0.005305 0.0199954,-0.005901 z m 0.11768971,-0.003585 c 0.004607,-0.007813 0.007018,-0.0162907 0.005358,-0.0188397 -0.003365,-0.005166 -0.0215331,0.017669 -0.0215331,0.0270615 0,0.0103378 0.00747,0.00654 0.0161755,-0.008222 z M 0.3441183,0.53412867 c 0.002661,0 0.007445,0.004821 0.0106317,0.010709 0.004433,0.008197 0.007285,0.008806 0.0121571,0.0026 0.008624,-0.0109829 -3.3899e-4,-0.0274718 -0.0149382,-0.0274718 -0.006686,0 -0.0147502,-0.008132 -0.021067,-0.0212433 -0.0114113,-0.0236859 -0.0165835,-0.025725 -0.0292364,-0.0115273 -0.00829,0.009301 -0.008008,0.0109768 0.006595,0.0392713 0.013989,0.0271066 0.0159068,0.0286486 0.0231362,0.0186086 0.004336,-0.006021 0.01006,-0.0109473 0.0127225,-0.0109473 z m 0.25365754,0.008851 c -0.008075,-0.0123924 -0.044988,-0.0177887 -0.0516586,-0.007552 -0.007684,0.0117923 0.005123,0.0199441 0.0313315,0.0199441 0.0270495,0 0.0280175,-5.9006e-4 0.0203271,-0.0123924 z M 0.10101907,0.52782957 c 0.008826,-0.0112535 0.0194826,-0.0295754 0.0236811,-0.0407164 0.007467,-0.0198149 0.007316,-0.0208325 -0.006922,-0.0467796 l -0.0145547,-0.0265238 -0.0197383,0.0265238 -0.0197377,0.0265238 0.007691,0.0407165 c 0.00423,0.0223939 0.009006,0.0407164 0.0106113,0.0407164 0.001604,0 0.0101417,-0.009207 0.0189678,-0.0204606 z m 0.37308637,0.001843 c 0.00304,-0.0102398 0.004242,-0.0205909 0.00267,-0.0230024 -0.003544,-0.005439 -0.0159453,0.0197209 -0.0159453,0.032352 0,0.0155715 0.00743,0.0103389 0.0132741,-0.00935 z m -0.0178891,-0.006584 c 0,-0.006072 -0.002111,-0.009037 -0.004689,-0.006592 -0.002579,0.002449 -0.003494,0.007415 -0.002035,0.0110397 0.003955,0.009822 0.006724,0.007991 0.006724,-0.004448 z m -0.0645999,-0.0349049 c 0,-0.0233581 -0.004628,-0.025882 -0.0179216,-0.009771 l -0.0120707,0.0146313 -0.001418,-0.0290254 c -7.8567e-4,-0.0159639 -0.002267,-0.0290255 -0.003304,-0.0290255 -0.001032,0 -0.009419,0.005517 -0.0186277,0.0122527 -0.0167318,0.0122449 -0.0167488,0.0122393 -0.0255942,-0.006395 -0.0106825,-0.0225053 -0.020974,-0.0201311 -0.0391868,0.009043 -0.0121353,0.0194375 -0.0124486,0.0214326 -0.005128,0.032671 0.007324,0.0112379 0.009111,0.0109924 0.0292644,-0.004036 l 0.021465,-0.0160035 0.0135253,0.0251795 c 0.008552,0.0159211 0.017543,0.0251795 0.0244523,0.0251795 0.00601,0 0.0122942,0.003396 0.0139644,0.007542 0.004551,0.0113019 0.0205786,-0.0138086 0.0205786,-0.0322435 z m 0.16496033,0.0344 c 0.00571,-0.002349 0.010382,-0.008286 0.010382,-0.0131957 0,-0.00639 -0.005898,-0.007906 -0.0207644,-0.005333 -0.0188431,0.003262 -0.0207644,0.002199 -0.0207644,-0.0114912 0,-0.008687 -0.002935,-0.0150833 -0.006921,-0.0150833 -0.0118196,0 -0.007715,0.0269107 0.005767,0.0378085 0.0150091,0.0121313 0.0185798,0.0129385 0.0322997,0.007297 z m -0.0517323,-0.0288339 c -0.003111,-0.01902 -0.003493,-0.0192566 -0.009783,-0.006057 -0.008573,0.017993 -0.008256,0.0235696 0.001525,0.0269101 0.0111478,0.003808 0.0119537,0.00177 0.008253,-0.0208531 z m 0.24192158,0.0209054 c -7.318e-5,-0.002922 -0.0212496,-0.0300063 -0.0470379,-0.0601894 -0.0511013,-0.0598095 -0.0506275,-0.0595987 -0.10969764,-0.0488671 l -0.0253785,0.004609 0.0161501,0.0170238 c 0.008883,0.009363 0.0257976,0.0312231 0.037589,0.0485782 l 0.0214391,0.0315544 0.0281643,-0.005016 c 0.0154906,-0.002761 0.0281645,-0.007693 0.0281645,-0.0109629 0,-0.003268 -0.00934,-0.0162395 -0.0207565,-0.0288206 -0.011416,-0.0125817 -0.0197388,-0.024438 -0.0184943,-0.0263473 0.001248,-0.001909 0.0183715,0.0158771 0.0380602,0.0395258 0.0321447,0.0386095 0.0522148,0.0536867 0.0517977,0.0389112 z m -0.29546071,-0.008421 c 0.00549,-0.005333 0.005592,-0.008344 5.8552e-4,-0.0175944 -0.008573,-0.0158521 -0.0233632,-0.0143257 -0.0233632,0.00241 0,0.011652 0.005106,0.0194598 0.0138427,0.0211659 0.001264,2.4437e-4 0.005288,-0.002444 0.008932,-0.005982 z m 0.0328957,-0.0186871 c 0.005173,-0.009565 0.003854,-0.0138052 -0.009162,-0.0294357 l -0.0152048,-0.0182618 0.0108813,-0.009999 c 0.006529,-0.005999 0.007499,-0.008387 0.002427,-0.005969 -0.004649,0.002216 -0.012436,0.00403 -0.0173037,0.00403 -0.0109306,0 -0.0116794,0.020636 -0.001811,0.0499192 0.00775,0.0230001 0.0207295,0.0271796 0.0301734,0.009717 z m 0.0774998,3.6005e-4 c 0.001279,-0.001971 1.2172e-4,-0.006988 -0.002591,-0.0111477 -0.007596,-0.011657 -0.0264406,-0.004609 -0.0283307,0.0105972 -0.001449,0.011671 3.0817e-4,0.0128155 0.013459,0.008778 0.00832,-0.002555 0.0161784,-0.006256 0.0174635,-0.008227 z M 0.4257688,0.47320232 c 0.001689,-0.006754 0.005758,-0.009638 0.0100399,-0.007116 0.00541,0.003184 0.006835,3.0867e-4 0.005729,-0.0115852 -8.1652e-4,-0.008703 -0.004943,-0.0168401 -0.009185,-0.0180804 -0.005766,-0.001687 -0.007086,0.001425 -0.00523,0.0123195 0.002062,0.0120918 3.3898e-4,0.0145745 -0.0101555,0.0145745 -0.0107117,0 -0.0117626,0.00162 -0.006895,0.0106217 0.007394,0.0136733 0.0121478,0.0134506 0.0156952,-7.348e-4 z M 0.3772655,0.46071472 c 0.003963,-0.007328 0.003671,-0.0116749 -0.001202,-0.0178833 -0.005012,-0.006385 -0.007069,-0.00568 -0.009285,0.003179 -0.006137,0.0245432 2.9275e-4,0.0335572 0.0104884,0.0147031 z m 0.13893653,0.00413 c 0,-0.003056 -0.006031,-0.0110219 -0.0134005,-0.0177024 -0.023852,-0.0216224 -0.0394416,-0.0109512 -0.0178719,0.0122343 0.0106948,0.0114962 0.0312733,0.0150944 0.0312733,0.005466 z m -0.247771,-0.0195154 c 0.0139198,-0.0293444 -0.001433,-0.0447578 -0.0174718,-0.0175493 -0.006774,0.0114806 -0.007217,0.0159829 -0.002454,0.0247837 0.007738,0.0143073 0.0101218,0.0134423 0.0199289,-0.007235 z m 0.27084229,0.0146302 c 0,-0.004258 -0.0259854,-0.0250448 -0.0309172,-0.0247297 -0.006382,4.1148e-4 0.0177698,0.0280886 0.0245071,0.0280886 0.003525,0 0.00641,-0.001509 0.00641,-0.003357 z m 0.0459606,-0.003624 c 0.00928,-7.509e-5 0.005069,-0.007154 -0.0230713,-0.0387509 -0.0328601,-0.0368966 -0.0357361,-0.0386674 -0.0632642,-0.0389457 -0.0158615,-1.543e-4 -0.0288393,0.001603 -0.0288393,0.003924 0,0.002321 0.004294,0.0134723 0.009542,0.0247837 0.007049,0.0151919 0.013379,0.0206237 0.0242249,0.0207869 0.008075,1.2524e-4 0.022988,0.008162 0.0331394,0.0178688 0.0106255,0.0101591 0.0223731,0.0161154 0.0276856,0.0140379 0.005075,-0.001987 0.0143373,-0.003652 0.0205819,-0.003707 z M 0.41930229,0.44485992 c 0,-0.007468 -0.00251,-0.009902 -0.007299,-0.00708 -0.004014,0.002366 -0.0114036,0.004297 -0.0164222,0.004297 -0.005018,0 -0.00784,0.003184 -0.006271,0.007082 0.004894,0.0121508 0.0299928,0.008554 0.0299928,-0.004297 z m -0.326484,-0.0293372 c 0.0144882,-0.0184995 0.033576,-0.0467406 0.0424164,-0.0627585 0.0132939,-0.0240845 0.015108,-0.0310623 0.0104886,-0.040329 -0.003071,-0.006163 -0.0111769,-0.0132719 -0.0180093,-0.0157986 -0.0104502,-0.003863 -0.0161425,7.4593e-4 -0.0358315,0.0290082 -0.0128751,0.0184806 -0.0245147,0.0319034 -0.0258667,0.0298287 -0.001357,-0.002076 0.008947,-0.0187261 0.0228879,-0.0370024 0.0229064,-0.0300319 0.0248747,-0.034817 0.0204486,-0.0497238 -0.003119,-0.0105059 -0.0101465,-0.017836 -0.0193558,-0.0201896 -0.0118351,-0.003023 -0.0168267,2.0574e-4 -0.0275141,0.0177614 -0.0115348,0.018956 -0.0127674,0.0252897 -0.0105777,0.0543502 0.001357,0.0180915 0.003771,0.0544025 0.005347,0.0806913 0.001577,0.0262883 0.004299,0.0477972 0.006047,0.0477972 0.001748,0 0.0150305,-0.0151362 0.0295187,-0.0336352 z m 0.25052966,0.004437 c 0.00482,-0.0233058 -0.006318,-0.028009 -0.0192673,-0.008136 -0.008874,0.0136171 -0.0101802,0.0195266 -0.006021,0.0272169 0.006829,0.0126279 0.0209316,0.001987 0.0252892,-0.0190801 z m 0.0609579,0.0105755 c 0.007085,-0.002911 0.0103821,-0.00963 0.0103821,-0.0211465 0,-0.0143997 -0.002254,-0.0168769 -0.0153511,-0.0168769 -0.0144313,0 -0.0152295,0.001275 -0.0133188,0.0212433 0.002184,0.0228359 0.00261,0.0232273 0.0182878,0.01678 z M 0.25131938,0.41285512 c 0.008647,-0.0148172 0.008646,-0.0151913 -1.4624e-4,-0.0230135 -0.004909,-0.004375 -0.0135929,-0.0153472 -0.01929,-0.0243862 l -0.010359,-0.0164349 -0.00816,0.0191102 c -0.008105,0.0189805 -0.008058,0.0192482 0.006671,0.0394484 0.0177488,0.0243361 0.0199365,0.0247058 0.0312759,0.005277 z m 0.10799717,0.0119398 c 0,-0.00172 -0.002075,-0.005093 -0.004615,-0.007499 -0.002538,-0.002405 -0.004615,-0.001002 -0.004615,0.003123 0,0.004125 0.002075,0.007498 0.004615,0.007498 0.002538,0 0.004615,-0.001403 0.004615,-0.003123 z m 0.018457,-0.007499 c 0,-0.005842 -8.1652e-4,-0.0106217 -0.001813,-0.0106217 -0.001002,0 -0.003009,0.004782 -0.00447,0.0106217 -0.001464,0.005842 -6.4715e-4,0.0106217 0.001813,0.0106217 0.002458,0 0.00447,-0.004782 0.00447,-0.0106217 z m 0.0692143,0.002249 c 0.0161415,9.1293e-4 0.0272856,-0.006228 0.0248588,-0.0159328 -0.005165,-0.0206572 -0.0294731,-0.0203749 -0.0294731,3.4719e-4 0,0.008074 -0.001681,0.008314 -0.009018,0.001286 -0.0105469,-0.0101073 -0.016431,-0.004119 -0.0122773,0.0124932 0.00196,0.007839 0.00555,0.009984 0.0109521,0.006543 0.004421,-0.002817 0.0111509,-0.004943 0.0149583,-0.004726 z m -0.1614998,-0.007973 c 0,-0.005099 -0.002975,-0.0154535 -0.00661,-0.0230135 -0.005441,-0.0113136 -0.007686,-0.0121107 -0.0126887,-0.004509 -0.005018,0.007626 -0.004072,0.0116058 0.005457,0.022856 0.0138443,0.0163491 0.0138428,0.0163486 0.0138428,0.00467 z m 0.0117642,-0.004325 c -0.001449,-0.003585 0.002517,-0.0127192 0.0088,-0.0203031 0.006282,-0.007585 0.0101093,-0.0158053 0.008504,-0.0182696 -0.003773,-0.005792 -0.0266545,-0.005823 -0.0304214,-5.015e-5 -0.002997,0.004598 0.008931,0.0451297 0.0132803,0.0451297 0.001356,0 0.001279,-0.002934 -1.695e-4,-0.006515 z m 0.0275677,-0.008182 c 0.004296,-0.0207752 -7.7059e-4,-0.0251923 -0.0116178,-0.0101268 -0.0116671,0.0162027 -0.0117842,0.0248232 -3.3897e-4,0.0248232 0.004974,0 0.0102619,-0.0065 0.0119567,-0.0146959 z m 0.0473859,2.4438e-4 c 0.00559,-0.0137373 0.004151,-0.0280363 -0.002823,-0.0280363 -0.00541,0 -0.0151771,0.0284426 -0.0122572,0.0356931 0.0042,0.0104302 0.008636,0.008177 0.01508,-0.007656 z M 0.61540924,0.3935173 0.64309484,0.3889753 0.61540924,0.3632614 C 0.56258844,0.3142028 0.56020064,0.31306 0.52197554,0.318557 l -0.0348543,0.00501 0.01108,0.0135569 c 0.0518195,0.0634035 0.057579,0.0661745 0.11720821,0.0563913 z M 0.35549274,0.380797 c 0.0103605,-0.014388 0.0109984,-0.0470156 0.001171,-0.0595396 -0.006028,-0.007677 -0.007995,-0.007522 -0.0114868,9.018e-4 -0.002317,0.005591 -0.003197,0.0141492 -0.001954,0.0190178 0.007678,0.0300915 0.007738,0.0338445 3.0816e-4,0.0198539 -0.005595,-0.0105409 -0.008589,-0.011828 -0.0127256,-0.005478 -0.004139,0.006351 -0.003424,0.0116737 0.00304,0.0226327 0.0102156,0.0173222 0.0109922,0.0174163 0.0216533,0.002611 z m 0.0904627,0.00339 c 0.008268,-0.0126885 -0.002028,-0.0270766 -0.0193736,-0.0270766 -0.008065,0 -0.0170977,-0.003735 -0.0200743,-0.008305 -0.004105,-0.006299 -0.008231,-0.006334 -0.0170729,-1.543e-4 -0.0194114,0.0135725 -0.0143373,0.0278709 0.0125638,0.0353998 0.034016,0.00952 0.0378323,0.009531 0.0439566,1.2531e-4 z M 0.22088826,0.334633 c 0,-0.0179384 -0.00755,-0.0161465 -0.0213782,0.005071 -0.009623,0.0147666 -0.0107039,0.0198979 -0.006019,0.0285601 0.004984,0.009222 0.007085,0.008579 0.0165539,-0.005071 0.005964,-0.008598 0.010843,-0.0214498 0.010843,-0.0285601 z m 0.0528337,0.0293338 c 0.00931,-2.3146e-4 0.009317,-3.8577e-4 5.0849e-4,-0.0106217 -0.01361,-0.0157964 -0.0210361,-0.012718 -0.0210361,0.008722 0,0.0148701 0.001234,0.0172303 0.005539,0.0106217 0.003044,-0.00467 0.009793,-0.008599 0.0149969,-0.008722 z m -0.0269615,-0.003897 c -0.001543,-0.006161 -0.002804,-0.0157196 -0.002804,-0.0212433 0,-0.0133549 -0.00881,-0.0128711 -0.012197,6.6799e-4 -0.002845,0.0113871 0.005656,0.0317748 0.0132556,0.0317748 0.002502,0 0.003284,-0.005043 0.001741,-0.0112006 z m 0.26462247,0.005889 C 0.51126121,0.3630368 0.49566163,0.3422428 0.47669733,0.319747 0.44979443,0.2878353 0.44045933,0.2802897 0.43422033,0.2854127 c -0.004397,0.003613 -0.0183037,0.008938 -0.0309013,0.0118369 l -0.0229046,0.005272 0.0179057,0.0237527 c 0.0105715,0.0140234 0.0228993,0.0237527 0.0300975,0.0237527 0.006706,0 0.0162227,0.004676 0.021149,0.0103968 0.009246,0.0107324 0.0621997,0.0154746 0.0618161,0.005533 z M 0.33126403,0.3387692 c 0.005376,-0.0139806 0.008176,-0.0242343 0.006224,-0.0227864 -0.001952,0.001447 -0.009778,0.007159 -0.0173923,0.0126908 -0.0190658,0.0138531 -0.0188314,0.0132007 -0.008892,0.0247408 0.004891,0.005677 0.009206,0.0104252 0.00959,0.0105487 3.852e-4,1.2525e-4 0.005095,-0.0112134 0.0104714,-0.0251939 z m -0.0319328,0.0112574 c 0,-0.003897 -0.002197,-0.007082 -0.004886,-0.007082 -0.002688,0 -0.003604,0.003184 -0.002035,0.007082 0.001569,0.003897 0.003767,0.00708 0.004886,0.00708 0.001125,0 0.002035,-0.003184 0.002035,-0.00708 z M 0.19320268,0.3365721 c 0,-0.003045 -0.0103823,-0.0142093 -0.0230716,-0.0248076 -0.0126886,-0.0105988 -0.0230716,-0.0215484 -0.0230716,-0.0243333 0,-0.002783 0.003222,-0.0121202 0.007157,-0.0207434 0.006856,-0.0150154 0.006465,-0.0161849 -0.009128,-0.0275971 -0.0153685,-0.0112468 -0.0167917,-0.0112123 -0.0253025,6.0676e-4 -0.0115389,0.0160263 -0.007646,0.0346678 0.005869,0.0280858 0.008579,-0.004181 0.009035,-0.003357 0.003661,0.006579 -0.005313,0.00983 -0.004559,0.0119582 0.005615,0.0158788 0.006465,0.002494 0.0158223,0.0151078 0.0207975,0.0280485 0.0101897,0.0265015 0.0374769,0.0398135 0.0374769,0.018283 z m 0.0922856,0.006373 c 0,-0.003891 -0.003633,-0.007033 -0.008075,-0.006972 -0.006901,1.002e-4 -0.007069,0.001108 -0.001156,0.006972 0.008709,0.008637 0.009229,0.008637 0.009229,0 z m 0.10112284,-0.002817 c 0.00424,-0.007841 0.002789,-0.0129925 -0.006978,-0.0247837 -0.006782,-0.008187 -0.0141277,-0.0148857 -0.0163234,-0.0148857 -0.005474,0 -0.00504,0.0123323 6.1633e-4,0.0177024 0.002538,0.002405 0.004615,0.0105615 0.004615,0.0181205 0,0.0159873 0.0103127,0.0181828 0.0180658,0.003847 z M 0.26241686,0.3217021 c -0.002715,-0.007789 -0.006943,-0.0141626 -0.009391,-0.0141626 -0.00652,0 -0.005437,0.019452 0.001309,0.0236347 0.0110604,0.006847 0.0129813,0.004592 0.008075,-0.009472 z m 0.0641857,-0.007884 0.0274064,-0.022046 -0.0100353,-0.0292915 c -0.009901,-0.0289019 -0.0100554,-0.0290288 -0.011513,-0.009542 -0.00114,0.0151997 -0.004471,0.0206683 -0.0144699,0.0237372 -0.0125808,0.003863 -0.0232733,0.0263279 -0.0232733,0.0489005 0,0.013734 3.698e-4,0.0135998 0.0318857,-0.0117572 z M 0.29238036,0.303015 c 0.008054,-0.0295804 0.002759,-0.0472071 -0.0130985,-0.0436139 -0.0182406,0.00413 -0.0188179,0.0693823 -6.1634e-4,0.0693823 0.003684,0 0.009855,-0.0115953 0.0137133,-0.0257684 z m -0.0705943,0.00265 c 0.005724,-0.0136627 -0.0135051,-0.0333952 -0.0337089,-0.0345904 -0.00987,-5.7893e-4 -0.020513,-0.001381 -0.0236509,-0.00177 -0.0129272,-0.001603 -0.007137,0.0215367 0.00912,0.0364457 0.0182541,0.0167405 0.0412078,0.0167004 0.0482397,-7.51e-5 z M 0.24395956,0.3115 c 0,-0.011278 -0.008373,-0.0217955 -0.012413,-0.0155949 -0.003798,0.005825 0.002132,0.0257985 0.007653,0.0257985 0.002619,0 0.004758,-0.004592 0.004758,-0.0102042 z M 0.54276229,0.304265 C 0.54428729,0.302289 0.48319119,0.2585965 0.43429854,0.2266979 0.41336124,0.213038 0.39623064,0.203263 0.39623064,0.2049758 c 0,0.001715 0.0189336,0.027297 0.0420748,0.0568538 l 0.0420745,0.0537401 0.0306004,-0.004887 c 0.0168302,-0.002689 0.0311321,-0.005576 0.031782,-0.006418 z M 0.2591393,0.2862971 c 0.002612,-0.0153388 -7.308e-5,-0.0174207 -0.0100032,-0.007764 -0.003496,0.003401 -0.004929,0.009724 -0.003188,0.014054 0.004868,0.0120829 0.0105194,0.009388 0.0131911,-0.00629 z M 0.42694704,0.2813481 C 0.43708564,0.2753771 0.43430804,0.2678635 0.41079354,0.2376518 0.38945024,0.210229 0.38762944,0.2092587 0.37041864,0.2161352 c -0.0307643,0.0122922 -0.0296997,0.0107786 -0.0243015,0.0345442 0.007783,0.0342636 0.0205728,0.0442813 0.0496834,0.0389168 0.013721,-0.002527 0.0277375,-0.006241 0.0311464,-0.008248 z M 0.23934529,0.2756731 c 0,-0.005842 -0.002077,-0.0106216 -0.004614,-0.0106216 -0.002537,0 -0.004614,0.004782 -0.004614,0.0106216 0,0.005842 0.002077,0.0106217 0.004614,0.0106217 0.002537,0 0.004614,-0.004782 0.004614,-0.0106217 z M 0.22303829,0.2563553 C 0.21932929,0.241508 0.18412169,0.227724 0.17607859,0.2379677 c -0.010117,0.0128845 -0.006725,0.0182145 0.0147083,0.0231482 0.011362,0.002616 0.0219774,0.008033 0.0235919,0.0120428 0.004395,0.0109072 0.011929,-0.003724 0.008658,-0.0168039 z m 0.0975449,-0.002388 c 0.003832,-0.0234321 -0.0182579,-0.062598 -0.0300007,-0.0531912 -0.004071,0.003262 -0.0144452,0.004292 -0.0230533,0.002288 -0.0109616,-0.002555 -0.0146822,-0.001236 -0.0124171,0.004386 0.001776,0.00442 0.009666,0.008032 0.0175239,0.008032 0.0138257,0 0.0485121,0.0326098 0.0432599,0.0406702 -0.001371,0.00211 -0.005714,-2.5717e-4 -0.009644,-0.005266 -0.008604,-0.010959 -0.0128365,-0.006362 -0.008843,0.009609 0.004618,0.018465 0.0197852,0.0141915 0.0231742,-0.006529 z M 0.06599588,0.2274017 c -0.004196,-0.0167861 -0.0112215,-0.007522 -0.0112215,0.0147994 0,0.016913 7.0614e-4,0.0177091 0.007091,0.00792 0.003997,-0.006136 0.0058,-0.0160463 0.004134,-0.0227201 z m 0.22758967,0.0110937 c 0.001294,-0.006062 -0.003746,-0.008851 -0.0160186,-0.008851 -0.009855,0 -0.0200944,-0.00334 -0.0227537,-0.00742 -0.007239,-0.0111093 -0.0287303,0.005745 -0.0262136,0.0205575 0.001666,0.009799 0.006828,0.0110848 0.0325325,0.008105 0.018571,-0.002149 0.0312985,-0.007012 0.0324535,-0.0123924 z M 0.1133642,0.2326354 C 0.11425545,0.2284384 0.1096482,0.2212611 0.1031039,0.216687 0.0964679,0.21205 0.0880425,0.1967368 0.0840463,0.182061 0.0772793,0.1572172 0.0765243,0.1565052 0.0704438,0.1692684 0.0627278,0.1854639 0.0623378,0.197475 0.0689148,0.2163475 0.0772138,0.2401448 0.1092382,0.2518803 0.1133605,0.2326354 Z m 0.0595722,-0.001219 c 0.008572,-0.0173278 0.007878,-0.0230135 -0.002804,-0.0230135 -0.006767,0 -0.009228,0.00472 -0.009228,0.0177029 0,0.020828 0.003579,0.0224067 0.0120339,0.005311 z M 0.1531274,0.2161667 c -0.001584,-0.0093 6.9243e-4,-0.0149369 0.007353,-0.01818 0.005306,-0.002583 0.00965,-0.007887 0.00965,-0.0117817 0,-0.004047 -0.004443,-0.005021 -0.0103823,-0.002266 C 0.1467819,0.189951 0.1442624,0.193818 0.140345,0.2137148 0.137829,0.2264818 0.139022,0.2296476 0.146316,0.2296476 c 0.006684,0 0.008496,-0.00359 0.006808,-0.0134795 z M 0.234964,0.21522594 c 0.008025,-0.008767 0.0121771,-0.0184784 0.010601,-0.0247837 -0.00386,-0.0154412 -0.0185502,-0.0125327 -0.0266825,0.005283 -0.003928,0.008608 -0.0118337,0.0196479 -0.0175651,0.0245332 -0.010034,0.008551 -0.009848,0.008891 0.005018,0.009133 0.00849,1.543e-4 0.0213748,-0.006237 0.0286309,-0.0141659 z m 0.11743113,-1.8003e-4 c 0.0327986,-0.013199 0.0334051,-0.013931 0.0203408,-0.0245432 -0.0512911,-0.041665 -0.17893801,-0.0871691 -0.16794334,-0.0598694 0.007033,0.0174619 0.0463639,0.0400457 0.0646057,0.037097 0.0168284,-0.002722 0.0201072,-3.601e-4 0.0359465,0.0259148 0.0190958,0.0316724 0.0202372,0.0321912 0.0470499,0.0214014 z M 0.13670604,0.20307161 c 0.001234,-0.005771 -0.002962,-0.008851 -0.0120613,-0.008851 -0.0140803,0 -0.0215332,0.00809 -0.0157003,0.01704 0.005005,0.00768 0.0256706,0.001581 0.0277616,-0.008189 z m 0.0757312,-0.003702 c 0.002825,-0.007016 -0.003311,-0.0151774 -0.0230058,-0.0305963 -0.0104989,-0.00822 -0.015666,0.007318 -0.009424,0.0283424 0.004717,0.0158871 0.007743,0.0184283 0.017478,0.014678 0.006479,-0.002494 0.0132035,-0.008085 0.0149503,-0.0124247 z m -0.0924127,-0.0122304 c 0.006957,0 0.0138287,-0.002934 0.0152711,-0.006515 0.003661,-0.009093 -0.0204623,-0.0368783 -0.0267997,-0.0308674 -0.003113,0.00295 -5.8555e-4,0.006873 0.006307,0.00982 0.0134187,0.005731 0.008436,0.008273 -0.0127366,0.006494 -0.0164298,-0.001381 -0.01743,8.6283e-4 -0.009955,0.0222937 0.003688,0.0105732 0.006417,0.0123501 0.0101506,0.006616 0.002811,-0.004314 0.0108012,-0.007842 0.017757,-0.007842 z m 0.17007769,4.2439e-4 c 0,-0.003663 -0.002128,-0.008681 -0.004727,-0.0111466 -0.006758,-0.006409 -0.0327857,0.003513 -0.0296483,0.0113047 0.003455,0.008577 0.0343749,0.008435 0.0343749,-1.5431e-4 z M 0.22063273,0.1633744 C 0.22048649,0.1589214 0.21447673,0.1481414 0.20726613,0.1394157 0.19562233,0.1253244 0.19383023,0.124854 0.19124083,0.1352077 c -0.003634,0.0145261 0.0142311,0.0453406 0.0232162,0.040049 0.003538,-0.002082 0.006314,-0.007429 0.006177,-0.0118808 z M 0.14032793,0.1522111 c -0.001673,-0.004153 -0.005251,-0.007552 -0.007949,-0.007552 -0.003058,0 -0.002708,0.004064 9.2552e-4,0.0107931 0.006328,0.0117021 0.0119845,0.00909 0.007018,-0.00324 z m 0.0367248,0.00661 c 0.0017,-0.004225 -0.003887,-0.007082 -0.0138424,-0.007082 -0.009955,0 -0.0155433,0.002861 -0.0138424,0.007082 0.00157,0.003897 0.007798,0.007082 0.0138424,0.007082 0.006047,0 0.0122745,-0.003184 0.0138424,-0.007082 z M 0.10380823,0.1432084 c 0.001543,-0.00383 -0.001872,-0.005783 -0.007786,-0.004453 -0.005793,0.001303 -0.0113325,0.006098 -0.0123108,0.0106606 -0.002105,0.009832 0.0158738,0.004281 0.0200969,-0.006205 z m 0.080166,-0.001509 c 0,-0.001625 0.001261,-0.008001 0.002804,-0.014162 0.002228,-0.008917 -5.3927e-4,-0.0112006 -0.0135702,-0.0112006 -0.009004,0 -0.0177913,0.003524 -0.0195279,0.007837 -0.002256,0.005598 -0.004148,0.005377 -0.006623,-7.7376e-4 -0.002372,-0.005888 -0.009485,-0.007047 -0.0225142,-0.003668 -0.0246587,0.006394 -0.019691,0.0189187 0.006671,0.0168245 0.011157,-8.8509e-4 0.0217087,5.7893e-4 0.0234493,0.003245 0.00338,0.005188 0.0293124,0.006866 0.0293124,0.001893 z" id="path4147" inkscape:connector-curvature="0" />
    </pattern>
  </defs>
  <sodipodi:namedview pagecolor="#ffffff" bordercolor="#666666" borderopacity="1" objecttolerance="10" gridtolerance="10" guidetolerance="10" inkscape:pageopacity="0" inkscape:pageshadow="2" inkscape:window-width="1600" inkscape:window-height="838" id="namedview4" showgrid="false" inkscape:zoom="226.44983" inkscape:cx="1.1049995" inkscape:cy="0.61419831" inkscape:window-x="-8" inkscape:window-y="-8" inkscape:window-maximized="1" inkscape:current-layer="svg2" />
  <path style="fill:#000000" d="m 0.50466553,0.86393216 c -0.0253785,-0.003613 -0.10739735,-0.005824 -0.18226418,-0.004915 l -0.13612127,0.001653 -0.0226685,-0.0230786 c -0.0198563,-0.0202157 -0.0252264,-0.031467 -0.0432892,-0.0906893 -0.0255081,-0.0836342 -0.0577314,-0.23214215 -0.0674645,-0.31091989 -0.008496,-0.0687769 -0.009512,-0.16868057 -0.002242,-0.2207111 0.005827,-0.0417223 0.0261958,-0.081867 0.0489225,-0.0964398 0.0206981,-0.0132714 0.11075574,-0.0123451 0.15890342,0.001637 0.0811182,0.0235529 0.2952741,0.1649614 0.38082126,0.25145914 0.0350209,0.0354104 0.23204663,0.26977447 0.28296833,0.336594 0.0241219,0.0316534 0.047465,0.0671251 0.0518725,0.078826 0.007697,0.0204334 0.007655,0.0219753 -0.00107,0.0389919 -0.004998,0.009744 -0.0175767,0.0229333 -0.0279611,0.0293093 -0.0171531,0.010532 -0.0224731,0.01063 -0.0581719,0.001069 -0.0333854,-0.008943 -0.0407916,-0.009067 -0.0492674,-8.2386e-4 -0.0124529,0.0121091 -0.26204991,0.0181377 -0.3329747,0.008043 z m 0.0415285,-0.0253158 c 0,-0.0198043 -0.006194,-0.020572 -0.0507572,-0.006291 -0.0381462,0.0122243 -0.0385983,0.0163135 -0.002308,0.0208726 0.051025,0.006409 0.0530641,0.005849 0.0530641,-0.0145812 z m 0.20329543,0.014825 c -0.002462,-0.006112 -0.0415548,-0.028987 -0.0495392,-0.028987 -0.002086,0 -0.003792,0.005489 -0.003792,0.012197 0,0.0102353 -0.001109,0.009763 -0.006906,-0.002934 -0.005568,-0.0122009 -0.013607,-0.0160947 -0.0415058,-0.0201072 -0.0190296,-0.002739 -0.0481065,-0.002755 -0.0646148,-5.01e-5 -0.0293591,0.004826 -0.0300156,0.005383 -0.0300156,0.0256125 l 0,0.0206794 0.0994792,0 c 0.0582956,0 0.0984093,-0.002655 0.0968947,-0.006418 z m 0.0518853,-0.0343321 c 0.001294,-0.0346795 5.547e-4,-0.0376993 -0.0109413,-0.0444077 -0.0199296,-0.0116281 -0.0897994,-0.0373687 -0.0920516,-0.0339129 -0.00114,0.001742 -4.87e-5,0.0139839 0.002426,0.0272001 0.002941,0.0157363 0.002914,0.0264492 -7.304e-5,0.0310422 -0.007889,0.0121057 -0.005157,0.0164343 0.015382,0.0243706 0.0109737,0.004242 0.0291421,0.0141809 0.0403748,0.02209 0.0112326,0.007909 0.0256144,0.0135809 0.0319589,0.0126039 0.0104884,-0.001614 0.0116624,-0.005155 0.0129305,-0.0389869 z m -0.0313175,-0.0105877 c 4.869e-5,-0.0128834 9.2484e-4,-0.0138998 0.004544,-0.005311 0.005781,0.0137284 0.005781,0.0212433 0,0.0212433 -0.002538,0 -0.004582,-0.00717 -0.004544,-0.0159328 z m 0.0592967,0.0398759 c 0.007638,-0.008209 0.0170959,-0.0105142 0.0333267,-0.008121 0.0124652,0.001837 0.0226628,0.00201 0.0226628,3.8065e-4 0,-0.004186 -0.067565,-0.0516081 -0.073526,-0.0516081 -0.005308,0 -0.006932,0.0582772 -0.00184,0.0660901 0.004549,0.006981 0.007596,0.005921 0.019377,-0.006742 z m -0.57358815,-0.002622 c 0.0341481,-1.002e-4 0.0488987,-0.0128466 0.0401901,-0.0347429 -0.003125,-0.007856 -0.007041,-0.0273432 -0.008706,-0.0433044 -0.001996,-0.0191642 -0.004997,-0.0278581 -0.008835,-0.0255981 -0.003195,0.001881 -0.0142988,0.007325 -0.0246722,0.012094 -0.0161034,0.007404 -0.0192845,0.0121363 -0.021758,0.0323699 -0.003613,0.0295593 -0.0102514,0.0315421 -0.007447,0.002227 0.001995,-0.020877 0.001721,-0.0212389 -0.0100279,-0.0130253 -0.00702,0.00491 -0.0123054,0.0146452 -0.0126159,0.0232434 -4.3143e-4,0.011956 -9.3924e-4,0.0124174 -0.002646,0.002405 -0.002502,-0.0146936 -0.002338,-0.0146664 -0.025251,-0.00413 -0.0214488,0.009861 -0.0207331,0.0182001 0.003414,0.0397774 0.0131013,0.0117077 0.0225574,0.0151507 0.0342485,0.0124698 0.008883,-0.002037 0.028731,-0.003741 0.0441071,-0.00378 z m 0.00665,-0.0704707 c 0,-0.003663 0.002077,-0.008633 0.004614,-0.0110397 0.002537,-0.002405 0.004614,5.9006e-4 0.004614,0.006663 0,0.006072 -0.002077,0.0110397 -0.004614,0.0110397 -0.002537,0 -0.004614,-0.003 -0.004614,-0.006663 z m 0.68771155,0.0631679 c 0.0100505,-0.007868 0.0182733,-0.0189566 0.0182733,-0.0246406 0,-0.0103973 -0.0434633,-0.0529174 -0.0542177,-0.0530415 -0.004027,-5.005e-5 -0.005768,0.0138247 -0.005768,0.0459608 0,0.0445674 3.7287e-4,0.046027 0.0117196,0.046027 0.006446,0 0.0199424,-0.006438 0.0299928,-0.0143062 z m -0.56446937,0.002672 0.0240352,-0.004431 0.003052,-0.0312399 c 0.00168,-0.0171819 0.001969,-0.0329031 6.4714e-4,-0.0349355 -0.003102,-0.004759 -0.0956505,0.0506612 -0.10742617,0.0643303 -0.008132,0.009441 -0.00602,0.0103945 0.0233582,0.0105432 0.0177648,1.0019e-4 0.0431158,-0.001831 0.0563349,-0.00427 z M 0.4992465,0.82244476 0.5445849,0.80760246 0.5416819,0.78239406 c -0.005006,-0.0434814 -0.007319,-0.0499954 -0.0177177,-0.0498991 -0.0157345,1.5047e-4 -0.096466,0.0269151 -0.1001589,0.0332115 -0.00182,0.003101 -0.004558,0.0205737 -0.006084,0.0388249 -0.002675,0.0319691 -0.002317,0.0332895 0.009784,0.0360783 0.006909,0.001592 0.0156754,0.001497 0.0194821,-2.25e-4 0.003808,-0.001709 0.0273237,-0.009787 0.0522595,-0.0179507 z M 0.4239156,0.79259046 c 0,-0.009737 0.002075,-0.0177029 0.004615,-0.0177029 0.002538,0 0.004615,0.007966 0.004615,0.0177029 0,0.009737 -0.002075,0.0177029 -0.004615,0.0177029 -0.002538,0 -0.004615,-0.007966 -0.004615,-0.0177029 z m 0.0653286,-0.0247837 c 0,-0.009737 0.001048,-0.0137195 0.002327,-0.008851 0.001279,0.004871 0.001279,0.0128344 0,0.0177029 -0.001279,0.004871 -0.002327,8.8509e-4 -0.002327,-0.008852 z m 0.022707,0.00295 c 2.1572e-4,-0.008249 0.001309,-0.009927 0.002788,-0.004275 0.00134,0.00511 0.001171,0.011219 -3.6979e-4,0.013572 -0.001525,0.002355 -0.002624,-0.001826 -0.002422,-0.009294 z m 0.39091604,0.0236036 -0.001375,-0.0442568 -0.0438357,-0.0225988 c -0.0241096,-0.0124297 -0.045393,-0.0227858 -0.0472963,-0.0230135 -0.001903,-2.25e-4 -0.003461,0.0156834 -0.003461,0.0353591 0,0.0331258 9.8585e-4,0.0363049 0.0134113,0.0429475 0.007376,0.003947 0.0276209,0.0178811 0.0449893,0.0309676 0.0173681,0.0130866 0.0332353,0.0240316 0.0352598,0.0243222 0.002025,2.9064e-4 0.003062,-0.0193869 0.002308,-0.043728 z m -0.0682808,-0.0336348 c 0,-0.0129162 0.001915,-0.0202625 0.004615,-0.0177029 0.002538,0.002405 0.004615,0.0103734 0.004615,0.0177029 0,0.00733 -0.002075,0.0152959 -0.004615,0.0177029 -0.0027,0.002561 -0.004615,-0.004787 -0.004615,-0.0177029 z m -0.47638207,0.0283246 c 0.0253024,-0.0155782 0.0483621,-0.0283246 0.0512436,-0.0283246 0.003282,0 0.005238,-0.0147276 0.005238,-0.0394233 0,-0.0341974 -0.001063,-0.0389451 -0.008075,-0.03582 -0.00444,0.001982 -0.0252054,0.0106629 -0.0461426,0.0192905 -0.0302141,0.0124514 -0.038068,0.0183804 -0.038068,0.0287388 0,0.007178 -0.002075,0.0130515 -0.004615,0.0130515 -0.002538,0 -0.004615,-0.004676 -0.004615,-0.0103934 0,-0.007837 -0.002554,-0.008917 -0.010382,-0.004392 -0.008379,0.004843 -0.0101248,0.0106077 -0.009049,0.029866 0.001433,0.025538 0.009612,0.0557277 0.0151108,0.0557277 0.001843,0 0.0240498,-0.0127459 0.0493526,-0.028324 z m 0.005726,-0.0346477 c 0,-0.003479 0.003408,-0.008331 0.007575,-0.0107842 0.006333,-0.00373 0.006618,-0.002694 0.001743,0.006324 -0.006645,0.0122872 -0.009316,0.0135664 -0.009316,0.004459 z m -0.008864,-0.0261319 c 2.1572e-4,-0.008249 0.001309,-0.009927 0.002788,-0.004275 0.00134,0.00511 0.001171,0.011219 -3.698e-4,0.013572 -0.001525,0.002355 -0.002624,-0.001826 -0.002422,-0.009294 z m 0.33940578,0.0630475 c 0.001418,-0.008702 6.6255e-4,-0.0247224 -0.001692,-0.0355996 -0.003684,-0.0170249 -0.007439,-0.0204295 -0.0269827,-0.0244675 -0.0281256,-0.005811 -0.11945703,-0.007334 -0.1229006,-0.002049 -0.002081,0.003195 0.001743,0.0379571 0.00775,0.0704702 8.0143e-4,0.004309 0.0286888,0.007157 0.0712727,0.007275 0.068612,2.0062e-4 0.0700142,-1.0014e-4 0.0725519,-0.0156283 z m -0.0944847,-0.0235112 c 0,-0.009737 0.001048,-0.0137195 0.002327,-0.008851 0.001279,0.004871 0.001279,0.0128344 0,0.0177029 -0.001279,0.004871 -0.002327,8.8509e-4 -0.002327,-0.008852 z m 0.0336142,-0.002961 c -0.0137749,-0.0154585 -0.00612,-0.0180303 0.009493,-0.00319 0.007986,0.007591 0.0107996,0.0131734 0.00665,0.0131951 -0.003957,2.032e-5 -0.0112202,-0.004481 -0.0161427,-0.0100054 z m -0.41838878,-0.001637 c 0.033746,-0.0181065 0.0607679,-0.0354805 0.0600481,-0.0386095 -0.003804,-0.0165373 -0.0566043,-0.10549693 -0.0626147,-0.10549693 -0.003873,0 -0.0165847,0.0159322 -0.0282511,0.0354053 -0.0116657,0.0194731 -0.0232382,0.0354053 -0.0257159,0.0354053 -0.004422,0 0.003099,-0.0133877 0.0338262,-0.0601867 0.0108752,-0.0165635 0.0142928,-0.0266001 0.0115361,-0.0338779 -0.005622,-0.0148451 -0.0634066,-0.11731731 -0.0664759,-0.11788877 -0.001419,-2.5718e-4 -0.009159,0.0138603 -0.0172086,0.0313862 -0.008049,0.0175259 -0.017476,0.0318644 -0.020947,0.0318644 -0.003469,0 -0.008447,0.007169 -0.0110556,0.0159328 -0.003709,0.012462 -0.002002,0.0274996 0.007844,0.0690405 0.018806,0.079333 0.0468487,0.16994586 0.0525938,0.16994586 0.002783,0 0.0326737,-0.0148144 0.0664197,-0.032921 z m 0.7255028,-0.0131061 c -0.0194614,-0.030431 -0.0374069,-0.0407465 -0.0436999,-0.0251205 -0.002052,0.005099 0.0494608,0.0518541 0.0619644,0.0562431 0.001159,4.0765e-4 -0.007056,-0.013597 -0.0182644,-0.0311229 z m -0.13842829,-0.013685 c 0,-0.0346238 0.001309,-0.0331698 -0.0415287,-0.0460387 -0.0796907,-0.0239387 -0.086017,-0.0224023 -0.0730608,0.017743 0.005334,0.0165267 0.0126116,0.0216385 0.054604,0.0383484 0.0644501,0.0256471 0.0599856,0.0263958 0.0599856,-0.0100527 z m -0.0244084,-0.0110987 c 0.001325,-0.007789 0.00321,-0.014162 0.004182,-0.014162 9.7077e-4,0 0.001769,0.006373 0.001769,0.014162 0,0.007789 -0.001881,0.014162 -0.004182,0.014162 -0.002301,0 -0.003097,-0.006373 -0.001769,-0.014162 z m -0.31450754,0.0143157 c 0.0227122,-0.007705 0.0480432,-0.014078 0.0562912,-0.014162 0.0149059,-1.5047e-4 0.0149968,-3.6523e-4 0.0149968,-0.0355584 0,-0.0353809 -9.24e-6,-0.0354048 -0.0149968,-0.034641 -0.008248,4.205e-4 -0.0284931,0.004403 -0.0449891,0.008851 -0.0267886,0.007223 -0.0301578,0.009978 -0.0315373,0.0257896 -0.002438,0.0279505 -0.009991,0.0343738 -0.009991,0.008497 0,-0.0311875 -0.007387,-0.0285434 -0.0108813,0.003897 -0.003095,0.028741 -0.003789,0.0513375 -0.001575,0.0513375 7.7059e-4,0 0.0199699,-0.006304 0.0426821,-0.0140089 z m 0.0489447,-0.0355584 c 0,-0.009737 0.001048,-0.0137195 0.002327,-0.008852 0.001279,0.004871 0.001279,0.0128344 0,0.0177029 -0.001279,0.004871 -0.002327,8.8509e-4 -0.002327,-0.008851 z m -0.15652481,-0.008159 c 0.0297843,-0.0130376 0.05417,-0.0252986 0.05419,-0.0272458 1.833e-5,-0.001948 -0.0149197,-0.0317676 -0.0331985,-0.0662667 l -0.0332357,-0.0627261 -0.0121756,0.0209115 c -0.006897,0.0118463 -0.0135192,0.0337983 -0.0152726,0.0506356 -0.002184,0.0209511 -0.008689,0.0390331 -0.0220442,0.0612671 -0.016174,0.0269268 -0.0180657,0.0331731 -0.0129259,0.0426776 0.003311,0.006123 0.009282,0.00963 0.0132649,0.007793 0.003985,-0.001837 0.0316128,-0.0140089 0.0613973,-0.0270465 z m 0.32481869,0.0134707 c -0.001525,-0.008763 -0.00281,-0.0215088 -0.002846,-0.0283241 -4.869e-5,-0.008963 -0.003808,-0.0123918 -0.0135992,-0.0123918 -0.0103759,0 -0.0139983,0.003719 -0.0155156,0.0159322 -0.00134,0.0108187 -0.001698,0.009682 -0.001109,-0.00354 8.0144e-4,-0.0178566 -4.9306e-4,-0.0194765 -0.0156309,-0.0195154 -0.009078,-2.277e-5 -0.033635,-0.002088 -0.0545724,-0.004592 l -0.0380679,-0.004548 0,0.0327089 0,0.0327089 0.0611392,0.002199 c 0.0336267,0.001208 0.0660533,0.002895 0.0720596,0.003746 0.00924,0.001308 0.010493,-9.0736e-4 0.008139,-0.0143864 z m -0.11077409,-0.023288 c -0.004453,-0.017807 -0.003139,-0.0224012 0.0023,-0.008046 0.002694,0.007107 0.003924,0.0144148 0.002737,0.0162378 -0.001187,0.001826 -0.003455,-0.001865 -0.005037,-0.008191 z m 0.0352783,-0.001091 c 0.00449,-0.001798 0.0107195,-0.001676 0.0138427,2.6236e-4 0.003125,0.001937 -5.547e-4,0.003407 -0.008163,0.003262 -0.007613,-1.5047e-4 -0.0101694,-0.001731 -0.005681,-0.003529 z m 0.30153634,0.024138 c 0.001257,-0.001926 -0.0133364,-0.0230953 -0.0324295,-0.0470373 -0.0315824,-0.0396037 -0.0360066,-0.0430166 -0.0490401,-0.0378341 l -0.0143266,0.005697 0.0303232,0.037755 c 0.0401608,0.0500038 0.0417754,0.0613938 0.001974,0.0139193 -0.0128967,-0.0153822 -0.0217663,-0.0200548 -0.0380679,-0.0200548 -0.0370391,0 -0.0260189,0.0198906 0.022582,0.0407582 0.0288229,0.0123757 0.0728794,0.0161666 0.078985,0.006797 z M 0.30075682,0.64997165 c 0.002054,-0.005422 0.006719,-0.0274579 0.0103697,-0.0489651 0.005949,-0.0350491 0.005866,-0.0409102 -8.0144e-4,-0.0565295 -0.004092,-0.009584 -0.008871,-0.0174257 -0.0106193,-0.0174257 -0.001747,0 -0.0102218,0.0111527 -0.0188317,0.0247837 -0.00861,0.013631 -0.0177547,0.0247837 -0.0203231,0.0247837 -0.002571,0 0.00458,-0.0144626 0.0158845,-0.0321394 0.0168927,-0.0264141 0.0193242,-0.0333323 0.0136501,-0.0388372 -0.003797,-0.003685 -0.0103235,-0.006747 -0.0145006,-0.006806 -0.004179,-5.015e-5 -0.0141339,-0.0115335 -0.0221234,-0.0254979 -0.0161939,-0.0283046 -0.0116746,-0.0300987 -0.0523682,0.0207869 -0.0121559,0.0152013 -0.0231511,0.0260301 -0.0244318,0.0240639 -0.001282,-0.001965 0.0113771,-0.0203126 0.0281311,-0.0407705 l 0.03046,-0.0371956 -0.0302688,-0.045099 c -0.0166478,-0.0248048 -0.0332537,-0.0450996 -0.0369023,-0.0450996 -0.003647,0 -0.008074,-0.003574 -0.009835,-0.007949 -0.001995,-0.004949 -0.0118117,0.006402 -0.0260271,0.0300948 -0.0144635,0.0241057 -0.02142,0.0410132 -0.018989,0.0461506 0.002112,0.004459 0.0380205,0.0686981 0.0798008,0.14275278 l 0.0759647,0.13464551 0.0140137,-0.0179429 c 0.007707,-0.009869 0.015694,-0.0223806 0.0177476,-0.0278047 z m 0.47384434,0.0299256 c 0,-0.001614 -0.0101417,-0.0143613 -0.0225358,-0.028324 -0.0189203,-0.0213135 -0.0263238,-0.0253871 -0.0461429,-0.0253871 -0.0216346,0 -0.0236068,0.001375 -0.0236068,0.0164738 0,0.0152809 0.003089,0.0172526 0.0426821,0.0272347 0.0234751,0.005919 0.0442395,0.0112518 0.0461429,0.0118508 0.001903,5.9563e-4 0.003461,-2.2506e-4 0.003461,-0.001848 z M 0.4366074,0.65628089 c 0.001109,-0.005138 -0.002,-0.008851 -0.007421,-0.008851 -0.0100908,0 -0.0161641,0.009247 -0.0111386,0.0169598 0.004643,0.007125 0.0163649,0.002004 0.0185589,-0.008108 z m 0.0205932,-4.9894e-4 c 0.00536,-0.003268 0.006625,-0.007996 0.003926,-0.0146964 -0.004927,-0.0122349 -0.0187538,-0.00511 -0.0187538,0.009663 0,0.0116726 0.002521,0.0125282 0.0148273,0.005032 z m 0.35568129,-0.008157 c 0.00202,-0.002806 -0.003823,-0.0138714 -0.0129845,-0.0245955 l -0.0166584,-0.0194987 -0.0208209,0.0138314 -0.0208208,0.0138308 0.014818,0.0143975 c 0.0110307,0.010718 0.0196709,0.013469 0.0338057,0.0107647 0.0104437,-0.001998 0.020641,-0.005927 0.0226613,-0.00873 z M 0.6777014,0.64034895 c 0,-0.008513 -0.003075,-0.0141626 -0.007712,-0.0141626 -0.004242,0 -0.0114652,-0.005216 -0.0160537,-0.0115852 -0.007724,-0.0107263 -0.008558,-0.0107263 -0.0112387,0 -0.001895,0.007577 -0.008314,0.0115852 -0.0185531,0.0115852 -0.010533,0 -0.0156564,0.003329 -0.0156564,0.010173 0,0.0104574 0.0129475,0.0148996 0.0496034,0.0170177 0.0167806,9.6859e-4 0.0196108,-9.1293e-4 0.0196108,-0.0130287 z M 0.41954498,0.62874546 c 0.005857,-0.0236392 0.003908,-0.0264008 -0.0111833,-0.0158493 -0.0135592,0.009482 -0.0146301,0.0137061 -0.006595,0.0260367 0.008371,0.0128472 0.0126825,0.0103762 0.0177775,-0.0101875 z m 0.0634528,-0.008713 c -0.002074,-0.0273532 -0.0175533,-0.029669 -0.0175533,-0.002627 0,0.0242421 0.003052,0.0304995 0.0122356,0.025091 0.004088,-0.002405 0.006171,-0.0112078 0.005317,-0.0224652 z m 0.0373625,0.0208987 c 0.004895,-0.004754 0.001855,-0.009892 -0.0125038,-0.0211331 l -0.0189695,-0.0148512 9.7077e-4,0.0212277 c 8.0144e-4,0.0175554 0.002963,0.0212116 0.0125038,0.0211331 0.006345,-5.01e-5 0.0144452,-0.002923 0.0180014,-0.006377 z m 0.0554854,-0.027901 c -0.007123,-0.003641 -0.0188997,0.0196429 -0.0149259,0.0295114 0.001667,0.004136 0.006673,2.5e-5 0.011798,-0.009685 0.00642,-0.012167 0.007293,-0.0176963 0.003128,-0.0198266 z m 0.0234129,0.0166971 c 0,-0.0197687 -0.0111771,-0.0244107 -0.0156562,-0.006502 -0.00468,0.018715 -0.003222,0.0242047 0.006429,0.0242047 0.006767,0 0.009228,-0.004721 0.009228,-0.0177029 z m -0.1529802,-5.1864e-4 c 0.009646,-0.007384 0.014553,-0.0163369 0.014553,-0.0265539 4.6e-7,-0.0145344 0.002279,-0.0154941 0.0399093,-0.016824 0.0435099,-0.001536 0.0545066,-0.008976 0.0418907,-0.0283363 -0.0073,-0.0112034 -0.008431,-0.0110386 -0.0182593,0.002655 -0.0155908,0.0217204 -0.0422127,0.0259955 -0.0525653,0.008441 -0.008229,-0.0139544 -0.008288,-0.0139494 -0.011892,0.001002 -0.001991,0.008262 -0.005846,0.0129123 -0.008565,0.0103339 -0.008031,-0.007617 -0.0228195,0.0184906 -0.0228195,0.0402822 0,0.0236247 -8.1652e-4,0.0232133 0.0177481,0.009006 z m 0.10683758,0.004281 c 0,-0.003774 -0.003114,-0.005027 -0.006921,-0.002783 -0.003808,0.002243 -0.006921,0.005327 -0.006921,0.006859 0,0.001531 0.003115,0.002783 0.006921,0.002783 0.003808,0 0.006921,-0.003084 0.006921,-0.006859 z m 0.009095,-0.0262917 c 0.004584,-0.006379 -0.0121185,-0.0162005 -0.0275522,-0.0162005 -0.0253266,0 -0.0307948,0.009165 -0.0160727,0.0269357 0.0117333,0.0141642 0.0131616,0.0143563 0.0269212,0.003624 0.007992,-0.006234 0.0155082,-0.0126952 0.0167037,-0.0143591 z m 0.0739621,-0.005377 c 0,-0.0205965 -0.008615,-0.0310021 -0.014288,-0.0172576 -0.007211,0.0174697 -0.004711,0.0345425 0.00506,0.0345425 0.006709,0 0.009228,-0.004721 0.009228,-0.0172849 z m 0.0346069,0.0102036 c -0.001569,-0.003897 -0.005966,-0.007081 -0.009773,-0.007081 -0.003808,0 -0.005638,0.003184 -0.00407,0.007081 0.00157,0.003897 0.005966,0.007081 0.009773,0.007081 0.003808,0 0.005638,-0.003184 0.00407,-0.007081 z m 0.0484499,0.001024 c 0,-0.003329 -0.0170327,-0.0248399 -0.0378504,-0.0477972 -0.020818,-0.0229578 -0.0477643,-0.0556522 -0.0598809,-0.0726541 -0.0200309,-0.0281075 -0.0235402,-0.0304783 -0.0386705,-0.0261219 -0.0123374,0.003551 -0.0159444,0.007576 -0.0139475,0.0155592 0.001479,0.005923 0.002694,0.0154507 0.002694,0.0211726 0,0.005722 0.006965,0.014869 0.0154752,0.0203265 0.008511,0.005455 0.0189412,0.0180408 0.0231778,0.0279628 0.004238,0.009922 0.0115531,0.0180403 0.0162596,0.0180403 0.004707,0 0.0111417,0.004782 0.0143019,0.0106217 0.003158,0.005842 0.007772,0.0106217 0.0102495,0.0106217 0.002478,0 0.0110477,0.004492 0.0190456,0.009986 0.0274068,0.0188246 0.0491472,0.0242571 0.0491472,0.0122811 z m 0.0454925,-0.007214 0.0154992,-0.0126763 -0.0351681,-0.0462335 -0.0351678,-0.0462335 -0.0241673,0.006331 c -0.0132911,0.003485 -0.0272816,0.007076 -0.0310883,0.007987 -0.003858,9.2406e-4 0.006351,0.0162167 0.0230713,0.0345603 0.016496,0.0180976 0.0350268,0.0411462 0.0411793,0.0512195 0.0130414,0.0213524 0.0243767,0.0225999 0.0458417,0.005043 z m 0.0592341,0.007668 c 0.007609,-0.007423 -0.0595207,-0.0864715 -0.0733656,-0.0863906 -0.008826,5.015e-5 -0.005199,0.00769 0.0217033,0.0456997 0.0315809,0.0446214 0.0404628,0.051617 0.0516623,0.0406908 z M 0.40969435,0.60203573 c 0.0111401,-0.009471 0.0111417,-0.009498 0.001464,-0.0174519 -0.0128073,-0.0105192 -0.0218847,-0.0100639 -0.0280887,0.001408 -0.003703,0.006845 -0.003605,0.0116209 3.5439e-4,0.0177029 0.006872,0.0105459 0.012325,0.0102019 0.0262737,-0.001659 z m 0.20340744,-0.007965 c 0,-0.00901 -0.001778,-0.00945 -0.010382,-0.002583 -0.0152695,0.012192 -0.0154499,0.0134523 -0.001923,0.0134523 0.007986,0 0.0123049,-0.003813 0.0123049,-0.0108716 z m -0.0162822,-0.008161 c 0.0200587,-0.0146786 0.0138966,-0.0231916 -0.0168991,-0.0233458 -0.0240548,-1.2525e-4 -0.0326969,0.0111722 -0.019706,0.0257495 0.0110708,0.0124219 0.016865,0.0120428 0.0366051,-0.002405 z M 0.4377591,0.56891827 c 0,-0.0124219 -0.0187203,-0.0220238 -0.0256733,-0.0131684 -0.009166,0.0116737 -0.008322,0.0175115 0.003755,0.026 0.0103281,0.007259 0.0219177,4.7578e-4 0.0219177,-0.012831 z m -0.0566983,-0.007094 c -0.006193,-0.0152152 -0.01057,-0.0170133 -0.0149475,-0.006142 -0.004176,0.01037 0.006399,0.0279511 0.0140877,0.0234232 0.005079,-0.002989 0.005253,-0.006489 8.6314e-4,-0.0172821 z m 0.0674861,-0.0244636 c -0.010966,-0.0127514 -0.015402,-0.0127782 -0.015402,-1.002e-4 0,0.005621 0.004672,0.0152675 0.0103821,0.021437 0.009487,0.0102487 0.0105161,0.0102376 0.0119413,-1.2525e-4 8.6313e-4,-0.006244 -0.002256,-0.015788 -0.006921,-0.0212116 z m 0.0582277,0.00442 c 0.003884,-0.0111377 0.002633,-0.0140362 -0.007789,-0.0180503 -0.0126193,-0.00486 -0.0243129,0.009023 -0.0243129,0.0288651 0,0.0216797 0.023534,0.0137512 0.0321011,-0.0108148 z m -0.10131527,0.0100522 c 0.003158,-0.005842 0.009642,-0.0106217 0.0144082,-0.0106217 0.004764,0 0.008664,-0.004782 0.008664,-0.0106217 0,-0.005842 0,-0.0122148 0,-0.014162 0,-0.001948 -6.0092e-4,-0.002744 -0.00134,-0.00177 -7.3974e-4,9.7972e-4 -0.008129,-0.009382 -0.0164263,-0.0230135 -0.0115623,-0.0189977 -0.0144621,-0.0213235 -0.0124205,-0.009965 0.001652,0.009197 -8.6314e-4,0.0217115 -0.006645,0.0329822 -0.009462,0.0184606 -0.0117904,0.0345448 -0.006233,0.0430722 0.005148,0.0079 0.0139352,0.005305 0.0199954,-0.005901 z m 0.11768971,-0.003585 c 0.004607,-0.007813 0.007018,-0.0162907 0.005358,-0.0188397 -0.003365,-0.005166 -0.0215331,0.017669 -0.0215331,0.0270615 0,0.0103378 0.00747,0.00654 0.0161755,-0.008222 z M 0.3441183,0.53412867 c 0.002661,0 0.007445,0.004821 0.0106317,0.010709 0.004433,0.008197 0.007285,0.008806 0.0121571,0.0026 0.008624,-0.0109829 -3.3899e-4,-0.0274718 -0.0149382,-0.0274718 -0.006686,0 -0.0147502,-0.008132 -0.021067,-0.0212433 -0.0114113,-0.0236859 -0.0165835,-0.025725 -0.0292364,-0.0115273 -0.00829,0.009301 -0.008008,0.0109768 0.006595,0.0392713 0.013989,0.0271066 0.0159068,0.0286486 0.0231362,0.0186086 0.004336,-0.006021 0.01006,-0.0109473 0.0127225,-0.0109473 z m 0.25365754,0.008851 c -0.008075,-0.0123924 -0.044988,-0.0177887 -0.0516586,-0.007552 -0.007684,0.0117923 0.005123,0.0199441 0.0313315,0.0199441 0.0270495,0 0.0280175,-5.9006e-4 0.0203271,-0.0123924 z M 0.10101907,0.52782957 c 0.008826,-0.0112535 0.0194826,-0.0295754 0.0236811,-0.0407164 0.007467,-0.0198149 0.007316,-0.0208325 -0.006922,-0.0467796 l -0.0145547,-0.0265238 -0.0197383,0.0265238 -0.0197377,0.0265238 0.007691,0.0407165 c 0.00423,0.0223939 0.009006,0.0407164 0.0106113,0.0407164 0.001604,0 0.0101417,-0.009207 0.0189678,-0.0204606 z m 0.37308637,0.001843 c 0.00304,-0.0102398 0.004242,-0.0205909 0.00267,-0.0230024 -0.003544,-0.005439 -0.0159453,0.0197209 -0.0159453,0.032352 0,0.0155715 0.00743,0.0103389 0.0132741,-0.00935 z m -0.0178891,-0.006584 c 0,-0.006072 -0.002111,-0.009037 -0.004689,-0.006592 -0.002579,0.002449 -0.003494,0.007415 -0.002035,0.0110397 0.003955,0.009822 0.006724,0.007991 0.006724,-0.004448 z m -0.0645999,-0.0349049 c 0,-0.0233581 -0.004628,-0.025882 -0.0179216,-0.009771 l -0.0120707,0.0146313 -0.001418,-0.0290254 c -7.8567e-4,-0.0159639 -0.002267,-0.0290255 -0.003304,-0.0290255 -0.001032,0 -0.009419,0.005517 -0.0186277,0.0122527 -0.0167318,0.0122449 -0.0167488,0.0122393 -0.0255942,-0.006395 -0.0106825,-0.0225053 -0.020974,-0.0201311 -0.0391868,0.009043 -0.0121353,0.0194375 -0.0124486,0.0214326 -0.005128,0.032671 0.007324,0.0112379 0.009111,0.0109924 0.0292644,-0.004036 l 0.021465,-0.0160035 0.0135253,0.0251795 c 0.008552,0.0159211 0.017543,0.0251795 0.0244523,0.0251795 0.00601,0 0.0122942,0.003396 0.0139644,0.007542 0.004551,0.0113019 0.0205786,-0.0138086 0.0205786,-0.0322435 z m 0.16496033,0.0344 c 0.00571,-0.002349 0.010382,-0.008286 0.010382,-0.0131957 0,-0.00639 -0.005898,-0.007906 -0.0207644,-0.005333 -0.0188431,0.003262 -0.0207644,0.002199 -0.0207644,-0.0114912 0,-0.008687 -0.002935,-0.0150833 -0.006921,-0.0150833 -0.0118196,0 -0.007715,0.0269107 0.005767,0.0378085 0.0150091,0.0121313 0.0185798,0.0129385 0.0322997,0.007297 z m -0.0517323,-0.0288339 c -0.003111,-0.01902 -0.003493,-0.0192566 -0.009783,-0.006057 -0.008573,0.017993 -0.008256,0.0235696 0.001525,0.0269101 0.0111478,0.003808 0.0119537,0.00177 0.008253,-0.0208531 z m 0.24192158,0.0209054 c -7.318e-5,-0.002922 -0.0212496,-0.0300063 -0.0470379,-0.0601894 -0.0511013,-0.0598095 -0.0506275,-0.0595987 -0.10969764,-0.0488671 l -0.0253785,0.004609 0.0161501,0.0170238 c 0.008883,0.009363 0.0257976,0.0312231 0.037589,0.0485782 l 0.0214391,0.0315544 0.0281643,-0.005016 c 0.0154906,-0.002761 0.0281645,-0.007693 0.0281645,-0.0109629 0,-0.003268 -0.00934,-0.0162395 -0.0207565,-0.0288206 -0.011416,-0.0125817 -0.0197388,-0.024438 -0.0184943,-0.0263473 0.001248,-0.001909 0.0183715,0.0158771 0.0380602,0.0395258 0.0321447,0.0386095 0.0522148,0.0536867 0.0517977,0.0389112 z m -0.29546071,-0.008421 c 0.00549,-0.005333 0.005592,-0.008344 5.8552e-4,-0.0175944 -0.008573,-0.0158521 -0.0233632,-0.0143257 -0.0233632,0.00241 0,0.011652 0.005106,0.0194598 0.0138427,0.0211659 0.001264,2.4437e-4 0.005288,-0.002444 0.008932,-0.005982 z m 0.0328957,-0.0186871 c 0.005173,-0.009565 0.003854,-0.0138052 -0.009162,-0.0294357 l -0.0152048,-0.0182618 0.0108813,-0.009999 c 0.006529,-0.005999 0.007499,-0.008387 0.002427,-0.005969 -0.004649,0.002216 -0.012436,0.00403 -0.0173037,0.00403 -0.0109306,0 -0.0116794,0.020636 -0.001811,0.0499192 0.00775,0.0230001 0.0207295,0.0271796 0.0301734,0.009717 z m 0.0774998,3.6005e-4 c 0.001279,-0.001971 1.2172e-4,-0.006988 -0.002591,-0.0111477 -0.007596,-0.011657 -0.0264406,-0.004609 -0.0283307,0.0105972 -0.001449,0.011671 3.0817e-4,0.0128155 0.013459,0.008778 0.00832,-0.002555 0.0161784,-0.006256 0.0174635,-0.008227 z M 0.4257688,0.47320232 c 0.001689,-0.006754 0.005758,-0.009638 0.0100399,-0.007116 0.00541,0.003184 0.006835,3.0867e-4 0.005729,-0.0115852 -8.1652e-4,-0.008703 -0.004943,-0.0168401 -0.009185,-0.0180804 -0.005766,-0.001687 -0.007086,0.001425 -0.00523,0.0123195 0.002062,0.0120918 3.3898e-4,0.0145745 -0.0101555,0.0145745 -0.0107117,0 -0.0117626,0.00162 -0.006895,0.0106217 0.007394,0.0136733 0.0121478,0.0134506 0.0156952,-7.348e-4 z M 0.3772655,0.46071472 c 0.003963,-0.007328 0.003671,-0.0116749 -0.001202,-0.0178833 -0.005012,-0.006385 -0.007069,-0.00568 -0.009285,0.003179 -0.006137,0.0245432 2.9275e-4,0.0335572 0.0104884,0.0147031 z m 0.13893653,0.00413 c 0,-0.003056 -0.006031,-0.0110219 -0.0134005,-0.0177024 -0.023852,-0.0216224 -0.0394416,-0.0109512 -0.0178719,0.0122343 0.0106948,0.0114962 0.0312733,0.0150944 0.0312733,0.005466 z m -0.247771,-0.0195154 c 0.0139198,-0.0293444 -0.001433,-0.0447578 -0.0174718,-0.0175493 -0.006774,0.0114806 -0.007217,0.0159829 -0.002454,0.0247837 0.007738,0.0143073 0.0101218,0.0134423 0.0199289,-0.007235 z m 0.27084229,0.0146302 c 0,-0.004258 -0.0259854,-0.0250448 -0.0309172,-0.0247297 -0.006382,4.1148e-4 0.0177698,0.0280886 0.0245071,0.0280886 0.003525,0 0.00641,-0.001509 0.00641,-0.003357 z m 0.0459606,-0.003624 c 0.00928,-7.509e-5 0.005069,-0.007154 -0.0230713,-0.0387509 -0.0328601,-0.0368966 -0.0357361,-0.0386674 -0.0632642,-0.0389457 -0.0158615,-1.543e-4 -0.0288393,0.001603 -0.0288393,0.003924 0,0.002321 0.004294,0.0134723 0.009542,0.0247837 0.007049,0.0151919 0.013379,0.0206237 0.0242249,0.0207869 0.008075,1.2524e-4 0.022988,0.008162 0.0331394,0.0178688 0.0106255,0.0101591 0.0223731,0.0161154 0.0276856,0.0140379 0.005075,-0.001987 0.0143373,-0.003652 0.0205819,-0.003707 z M 0.41930229,0.44485992 c 0,-0.007468 -0.00251,-0.009902 -0.007299,-0.00708 -0.004014,0.002366 -0.0114036,0.004297 -0.0164222,0.004297 -0.005018,0 -0.00784,0.003184 -0.006271,0.007082 0.004894,0.0121508 0.0299928,0.008554 0.0299928,-0.004297 z m -0.326484,-0.0293372 c 0.0144882,-0.0184995 0.033576,-0.0467406 0.0424164,-0.0627585 0.0132939,-0.0240845 0.015108,-0.0310623 0.0104886,-0.040329 -0.003071,-0.006163 -0.0111769,-0.0132719 -0.0180093,-0.0157986 -0.0104502,-0.003863 -0.0161425,7.4593e-4 -0.0358315,0.0290082 -0.0128751,0.0184806 -0.0245147,0.0319034 -0.0258667,0.0298287 -0.001357,-0.002076 0.008947,-0.0187261 0.0228879,-0.0370024 0.0229064,-0.0300319 0.0248747,-0.034817 0.0204486,-0.0497238 -0.003119,-0.0105059 -0.0101465,-0.017836 -0.0193558,-0.0201896 -0.0118351,-0.003023 -0.0168267,2.0574e-4 -0.0275141,0.0177614 -0.0115348,0.018956 -0.0127674,0.0252897 -0.0105777,0.0543502 0.001357,0.0180915 0.003771,0.0544025 0.005347,0.0806913 0.001577,0.0262883 0.004299,0.0477972 0.006047,0.0477972 0.001748,0 0.0150305,-0.0151362 0.0295187,-0.0336352 z m 0.25052966,0.004437 c 0.00482,-0.0233058 -0.006318,-0.028009 -0.0192673,-0.008136 -0.008874,0.0136171 -0.0101802,0.0195266 -0.006021,0.0272169 0.006829,0.0126279 0.0209316,0.001987 0.0252892,-0.0190801 z m 0.0609579,0.0105755 c 0.007085,-0.002911 0.0103821,-0.00963 0.0103821,-0.0211465 0,-0.0143997 -0.002254,-0.0168769 -0.0153511,-0.0168769 -0.0144313,0 -0.0152295,0.001275 -0.0133188,0.0212433 0.002184,0.0228359 0.00261,0.0232273 0.0182878,0.01678 z M 0.25131938,0.41285512 c 0.008647,-0.0148172 0.008646,-0.0151913 -1.4624e-4,-0.0230135 -0.004909,-0.004375 -0.0135929,-0.0153472 -0.01929,-0.0243862 l -0.010359,-0.0164349 -0.00816,0.0191102 c -0.008105,0.0189805 -0.008058,0.0192482 0.006671,0.0394484 0.0177488,0.0243361 0.0199365,0.0247058 0.0312759,0.005277 z m 0.10799717,0.0119398 c 0,-0.00172 -0.002075,-0.005093 -0.004615,-0.007499 -0.002538,-0.002405 -0.004615,-0.001002 -0.004615,0.003123 0,0.004125 0.002075,0.007498 0.004615,0.007498 0.002538,0 0.004615,-0.001403 0.004615,-0.003123 z m 0.018457,-0.007499 c 0,-0.005842 -8.1652e-4,-0.0106217 -0.001813,-0.0106217 -0.001002,0 -0.003009,0.004782 -0.00447,0.0106217 -0.001464,0.005842 -6.4715e-4,0.0106217 0.001813,0.0106217 0.002458,0 0.00447,-0.004782 0.00447,-0.0106217 z m 0.0692143,0.002249 c 0.0161415,9.1293e-4 0.0272856,-0.006228 0.0248588,-0.0159328 -0.005165,-0.0206572 -0.0294731,-0.0203749 -0.0294731,3.4719e-4 0,0.008074 -0.001681,0.008314 -0.009018,0.001286 -0.0105469,-0.0101073 -0.016431,-0.004119 -0.0122773,0.0124932 0.00196,0.007839 0.00555,0.009984 0.0109521,0.006543 0.004421,-0.002817 0.0111509,-0.004943 0.0149583,-0.004726 z m -0.1614998,-0.007973 c 0,-0.005099 -0.002975,-0.0154535 -0.00661,-0.0230135 -0.005441,-0.0113136 -0.007686,-0.0121107 -0.0126887,-0.004509 -0.005018,0.007626 -0.004072,0.0116058 0.005457,0.022856 0.0138443,0.0163491 0.0138428,0.0163486 0.0138428,0.00467 z m 0.0117642,-0.004325 c -0.001449,-0.003585 0.002517,-0.0127192 0.0088,-0.0203031 0.006282,-0.007585 0.0101093,-0.0158053 0.008504,-0.0182696 -0.003773,-0.005792 -0.0266545,-0.005823 -0.0304214,-5.015e-5 -0.002997,0.004598 0.008931,0.0451297 0.0132803,0.0451297 0.001356,0 0.001279,-0.002934 -1.695e-4,-0.006515 z m 0.0275677,-0.008182 c 0.004296,-0.0207752 -7.7059e-4,-0.0251923 -0.0116178,-0.0101268 -0.0116671,0.0162027 -0.0117842,0.0248232 -3.3897e-4,0.0248232 0.004974,0 0.0102619,-0.0065 0.0119567,-0.0146959 z m 0.0473859,2.4438e-4 c 0.00559,-0.0137373 0.004151,-0.0280363 -0.002823,-0.0280363 -0.00541,0 -0.0151771,0.0284426 -0.0122572,0.0356931 0.0042,0.0104302 0.008636,0.008177 0.01508,-0.007656 z M 0.61540924,0.3935173 0.64309484,0.3889753 0.61540924,0.3632614 C 0.56258844,0.3142028 0.56020064,0.31306 0.52197554,0.318557 l -0.0348543,0.00501 0.01108,0.0135569 c 0.0518195,0.0634035 0.057579,0.0661745 0.11720821,0.0563913 z M 0.35549274,0.380797 c 0.0103605,-0.014388 0.0109984,-0.0470156 0.001171,-0.0595396 -0.006028,-0.007677 -0.007995,-0.007522 -0.0114868,9.018e-4 -0.002317,0.005591 -0.003197,0.0141492 -0.001954,0.0190178 0.007678,0.0300915 0.007738,0.0338445 3.0816e-4,0.0198539 -0.005595,-0.0105409 -0.008589,-0.011828 -0.0127256,-0.005478 -0.004139,0.006351 -0.003424,0.0116737 0.00304,0.0226327 0.0102156,0.0173222 0.0109922,0.0174163 0.0216533,0.002611 z m 0.0904627,0.00339 c 0.008268,-0.0126885 -0.002028,-0.0270766 -0.0193736,-0.0270766 -0.008065,0 -0.0170977,-0.003735 -0.0200743,-0.008305 -0.004105,-0.006299 -0.008231,-0.006334 -0.0170729,-1.543e-4 -0.0194114,0.0135725 -0.0143373,0.0278709 0.0125638,0.0353998 0.034016,0.00952 0.0378323,0.009531 0.0439566,1.2531e-4 z M 0.22088826,0.334633 c 0,-0.0179384 -0.00755,-0.0161465 -0.0213782,0.005071 -0.009623,0.0147666 -0.0107039,0.0198979 -0.006019,0.0285601 0.004984,0.009222 0.007085,0.008579 0.0165539,-0.005071 0.005964,-0.008598 0.010843,-0.0214498 0.010843,-0.0285601 z m 0.0528337,0.0293338 c 0.00931,-2.3146e-4 0.009317,-3.8577e-4 5.0849e-4,-0.0106217 -0.01361,-0.0157964 -0.0210361,-0.012718 -0.0210361,0.008722 0,0.0148701 0.001234,0.0172303 0.005539,0.0106217 0.003044,-0.00467 0.009793,-0.008599 0.0149969,-0.008722 z m -0.0269615,-0.003897 c -0.001543,-0.006161 -0.002804,-0.0157196 -0.002804,-0.0212433 0,-0.0133549 -0.00881,-0.0128711 -0.012197,6.6799e-4 -0.002845,0.0113871 0.005656,0.0317748 0.0132556,0.0317748 0.002502,0 0.003284,-0.005043 0.001741,-0.0112006 z m 0.26462247,0.005889 C 0.51126121,0.3630368 0.49566163,0.3422428 0.47669733,0.319747 0.44979443,0.2878353 0.44045933,0.2802897 0.43422033,0.2854127 c -0.004397,0.003613 -0.0183037,0.008938 -0.0309013,0.0118369 l -0.0229046,0.005272 0.0179057,0.0237527 c 0.0105715,0.0140234 0.0228993,0.0237527 0.0300975,0.0237527 0.006706,0 0.0162227,0.004676 0.021149,0.0103968 0.009246,0.0107324 0.0621997,0.0154746 0.0618161,0.005533 z M 0.33126403,0.3387692 c 0.005376,-0.0139806 0.008176,-0.0242343 0.006224,-0.0227864 -0.001952,0.001447 -0.009778,0.007159 -0.0173923,0.0126908 -0.0190658,0.0138531 -0.0188314,0.0132007 -0.008892,0.0247408 0.004891,0.005677 0.009206,0.0104252 0.00959,0.0105487 3.852e-4,1.2525e-4 0.005095,-0.0112134 0.0104714,-0.0251939 z m -0.0319328,0.0112574 c 0,-0.003897 -0.002197,-0.007082 -0.004886,-0.007082 -0.002688,0 -0.003604,0.003184 -0.002035,0.007082 0.001569,0.003897 0.003767,0.00708 0.004886,0.00708 0.001125,0 0.002035,-0.003184 0.002035,-0.00708 z M 0.19320268,0.3365721 c 0,-0.003045 -0.0103823,-0.0142093 -0.0230716,-0.0248076 -0.0126886,-0.0105988 -0.0230716,-0.0215484 -0.0230716,-0.0243333 0,-0.002783 0.003222,-0.0121202 0.007157,-0.0207434 0.006856,-0.0150154 0.006465,-0.0161849 -0.009128,-0.0275971 -0.0153685,-0.0112468 -0.0167917,-0.0112123 -0.0253025,6.0676e-4 -0.0115389,0.0160263 -0.007646,0.0346678 0.005869,0.0280858 0.008579,-0.004181 0.009035,-0.003357 0.003661,0.006579 -0.005313,0.00983 -0.004559,0.0119582 0.005615,0.0158788 0.006465,0.002494 0.0158223,0.0151078 0.0207975,0.0280485 0.0101897,0.0265015 0.0374769,0.0398135 0.0374769,0.018283 z m 0.0922856,0.006373 c 0,-0.003891 -0.003633,-0.007033 -0.008075,-0.006972 -0.006901,1.002e-4 -0.007069,0.001108 -0.001156,0.006972 0.008709,0.008637 0.009229,0.008637 0.009229,0 z m 0.10112284,-0.002817 c 0.00424,-0.007841 0.002789,-0.0129925 -0.006978,-0.0247837 -0.006782,-0.008187 -0.0141277,-0.0148857 -0.0163234,-0.0148857 -0.005474,0 -0.00504,0.0123323 6.1633e-4,0.0177024 0.002538,0.002405 0.004615,0.0105615 0.004615,0.0181205 0,0.0159873 0.0103127,0.0181828 0.0180658,0.003847 z M 0.26241686,0.3217021 c -0.002715,-0.007789 -0.006943,-0.0141626 -0.009391,-0.0141626 -0.00652,0 -0.005437,0.019452 0.001309,0.0236347 0.0110604,0.006847 0.0129813,0.004592 0.008075,-0.009472 z m 0.0641857,-0.007884 0.0274064,-0.022046 -0.0100353,-0.0292915 c -0.009901,-0.0289019 -0.0100554,-0.0290288 -0.011513,-0.009542 -0.00114,0.0151997 -0.004471,0.0206683 -0.0144699,0.0237372 -0.0125808,0.003863 -0.0232733,0.0263279 -0.0232733,0.0489005 0,0.013734 3.698e-4,0.0135998 0.0318857,-0.0117572 z M 0.29238036,0.303015 c 0.008054,-0.0295804 0.002759,-0.0472071 -0.0130985,-0.0436139 -0.0182406,0.00413 -0.0188179,0.0693823 -6.1634e-4,0.0693823 0.003684,0 0.009855,-0.0115953 0.0137133,-0.0257684 z m -0.0705943,0.00265 c 0.005724,-0.0136627 -0.0135051,-0.0333952 -0.0337089,-0.0345904 -0.00987,-5.7893e-4 -0.020513,-0.001381 -0.0236509,-0.00177 -0.0129272,-0.001603 -0.007137,0.0215367 0.00912,0.0364457 0.0182541,0.0167405 0.0412078,0.0167004 0.0482397,-7.51e-5 z M 0.24395956,0.3115 c 0,-0.011278 -0.008373,-0.0217955 -0.012413,-0.0155949 -0.003798,0.005825 0.002132,0.0257985 0.007653,0.0257985 0.002619,0 0.004758,-0.004592 0.004758,-0.0102042 z M 0.54276229,0.304265 C 0.54428729,0.302289 0.48319119,0.2585965 0.43429854,0.2266979 0.41336124,0.213038 0.39623064,0.203263 0.39623064,0.2049758 c 0,0.001715 0.0189336,0.027297 0.0420748,0.0568538 l 0.0420745,0.0537401 0.0306004,-0.004887 c 0.0168302,-0.002689 0.0311321,-0.005576 0.031782,-0.006418 z M 0.2591393,0.2862971 c 0.002612,-0.0153388 -7.308e-5,-0.0174207 -0.0100032,-0.007764 -0.003496,0.003401 -0.004929,0.009724 -0.003188,0.014054 0.004868,0.0120829 0.0105194,0.009388 0.0131911,-0.00629 z M 0.42694704,0.2813481 C 0.43708564,0.2753771 0.43430804,0.2678635 0.41079354,0.2376518 0.38945024,0.210229 0.38762944,0.2092587 0.37041864,0.2161352 c -0.0307643,0.0122922 -0.0296997,0.0107786 -0.0243015,0.0345442 0.007783,0.0342636 0.0205728,0.0442813 0.0496834,0.0389168 0.013721,-0.002527 0.0277375,-0.006241 0.0311464,-0.008248 z M 0.23934529,0.2756731 c 0,-0.005842 -0.002077,-0.0106216 -0.004614,-0.0106216 -0.002537,0 -0.004614,0.004782 -0.004614,0.0106216 0,0.005842 0.002077,0.0106217 0.004614,0.0106217 0.002537,0 0.004614,-0.004782 0.004614,-0.0106217 z M 0.22303829,0.2563553 C 0.21932929,0.241508 0.18412169,0.227724 0.17607859,0.2379677 c -0.010117,0.0128845 -0.006725,0.0182145 0.0147083,0.0231482 0.011362,0.002616 0.0219774,0.008033 0.0235919,0.0120428 0.004395,0.0109072 0.011929,-0.003724 0.008658,-0.0168039 z m 0.0975449,-0.002388 c 0.003832,-0.0234321 -0.0182579,-0.062598 -0.0300007,-0.0531912 -0.004071,0.003262 -0.0144452,0.004292 -0.0230533,0.002288 -0.0109616,-0.002555 -0.0146822,-0.001236 -0.0124171,0.004386 0.001776,0.00442 0.009666,0.008032 0.0175239,0.008032 0.0138257,0 0.0485121,0.0326098 0.0432599,0.0406702 -0.001371,0.00211 -0.005714,-2.5717e-4 -0.009644,-0.005266 -0.008604,-0.010959 -0.0128365,-0.006362 -0.008843,0.009609 0.004618,0.018465 0.0197852,0.0141915 0.0231742,-0.006529 z M 0.06599588,0.2274017 c -0.004196,-0.0167861 -0.0112215,-0.007522 -0.0112215,0.0147994 0,0.016913 7.0614e-4,0.0177091 0.007091,0.00792 0.003997,-0.006136 0.0058,-0.0160463 0.004134,-0.0227201 z m 0.22758967,0.0110937 c 0.001294,-0.006062 -0.003746,-0.008851 -0.0160186,-0.008851 -0.009855,0 -0.0200944,-0.00334 -0.0227537,-0.00742 -0.007239,-0.0111093 -0.0287303,0.005745 -0.0262136,0.0205575 0.001666,0.009799 0.006828,0.0110848 0.0325325,0.008105 0.018571,-0.002149 0.0312985,-0.007012 0.0324535,-0.0123924 z M 0.1133642,0.2326354 C 0.11425545,0.2284384 0.1096482,0.2212611 0.1031039,0.216687 0.0964679,0.21205 0.0880425,0.1967368 0.0840463,0.182061 0.0772793,0.1572172 0.0765243,0.1565052 0.0704438,0.1692684 0.0627278,0.1854639 0.0623378,0.197475 0.0689148,0.2163475 0.0772138,0.2401448 0.1092382,0.2518803 0.1133605,0.2326354 Z m 0.0595722,-0.001219 c 0.008572,-0.0173278 0.007878,-0.0230135 -0.002804,-0.0230135 -0.006767,0 -0.009228,0.00472 -0.009228,0.0177029 0,0.020828 0.003579,0.0224067 0.0120339,0.005311 z M 0.1531274,0.2161667 c -0.001584,-0.0093 6.9243e-4,-0.0149369 0.007353,-0.01818 0.005306,-0.002583 0.00965,-0.007887 0.00965,-0.0117817 0,-0.004047 -0.004443,-0.005021 -0.0103823,-0.002266 C 0.1467819,0.189951 0.1442624,0.193818 0.140345,0.2137148 0.137829,0.2264818 0.139022,0.2296476 0.146316,0.2296476 c 0.006684,0 0.008496,-0.00359 0.006808,-0.0134795 z M 0.234964,0.21522594 c 0.008025,-0.008767 0.0121771,-0.0184784 0.010601,-0.0247837 -0.00386,-0.0154412 -0.0185502,-0.0125327 -0.0266825,0.005283 -0.003928,0.008608 -0.0118337,0.0196479 -0.0175651,0.0245332 -0.010034,0.008551 -0.009848,0.008891 0.005018,0.009133 0.00849,1.543e-4 0.0213748,-0.006237 0.0286309,-0.0141659 z m 0.11743113,-1.8003e-4 c 0.0327986,-0.013199 0.0334051,-0.013931 0.0203408,-0.0245432 -0.0512911,-0.041665 -0.17893801,-0.0871691 -0.16794334,-0.0598694 0.007033,0.0174619 0.0463639,0.0400457 0.0646057,0.037097 0.0168284,-0.002722 0.0201072,-3.601e-4 0.0359465,0.0259148 0.0190958,0.0316724 0.0202372,0.0321912 0.0470499,0.0214014 z M 0.13670604,0.20307161 c 0.001234,-0.005771 -0.002962,-0.008851 -0.0120613,-0.008851 -0.0140803,0 -0.0215332,0.00809 -0.0157003,0.01704 0.005005,0.00768 0.0256706,0.001581 0.0277616,-0.008189 z m 0.0757312,-0.003702 c 0.002825,-0.007016 -0.003311,-0.0151774 -0.0230058,-0.0305963 -0.0104989,-0.00822 -0.015666,0.007318 -0.009424,0.0283424 0.004717,0.0158871 0.007743,0.0184283 0.017478,0.014678 0.006479,-0.002494 0.0132035,-0.008085 0.0149503,-0.0124247 z m -0.0924127,-0.0122304 c 0.006957,0 0.0138287,-0.002934 0.0152711,-0.006515 0.003661,-0.009093 -0.0204623,-0.0368783 -0.0267997,-0.0308674 -0.003113,0.00295 -5.8555e-4,0.006873 0.006307,0.00982 0.0134187,0.005731 0.008436,0.008273 -0.0127366,0.006494 -0.0164298,-0.001381 -0.01743,8.6283e-4 -0.009955,0.0222937 0.003688,0.0105732 0.006417,0.0123501 0.0101506,0.006616 0.002811,-0.004314 0.0108012,-0.007842 0.017757,-0.007842 z m 0.17007769,4.2439e-4 c 0,-0.003663 -0.002128,-0.008681 -0.004727,-0.0111466 -0.006758,-0.006409 -0.0327857,0.003513 -0.0296483,0.0113047 0.003455,0.008577 0.0343749,0.008435 0.0343749,-1.5431e-4 z M 0.22063273,0.1633744 C 0.22048649,0.1589214 0.21447673,0.1481414 0.20726613,0.1394157 0.19562233,0.1253244 0.19383023,0.124854 0.19124083,0.1352077 c -0.003634,0.0145261 0.0142311,0.0453406 0.0232162,0.040049 0.003538,-0.002082 0.006314,-0.007429 0.006177,-0.0118808 z M 0.14032793,0.1522111 c -0.001673,-0.004153 -0.005251,-0.007552 -0.007949,-0.007552 -0.003058,0 -0.002708,0.004064 9.2552e-4,0.0107931 0.006328,0.0117021 0.0119845,0.00909 0.007018,-0.00324 z m 0.0367248,0.00661 c 0.0017,-0.004225 -0.003887,-0.007082 -0.0138424,-0.007082 -0.009955,0 -0.0155433,0.002861 -0.0138424,0.007082 0.00157,0.003897 0.007798,0.007082 0.0138424,0.007082 0.006047,0 0.0122745,-0.003184 0.0138424,-0.007082 z M 0.10380823,0.1432084 c 0.001543,-0.00383 -0.001872,-0.005783 -0.007786,-0.004453 -0.005793,0.001303 -0.0113325,0.006098 -0.0123108,0.0106606 -0.002105,0.009832 0.0158738,0.004281 0.0200969,-0.006205 z m 0.080166,-0.001509 c 0,-0.001625 0.001261,-0.008001 0.002804,-0.014162 0.002228,-0.008917 -5.3927e-4,-0.0112006 -0.0135702,-0.0112006 -0.009004,0 -0.0177913,0.003524 -0.0195279,0.007837 -0.002256,0.005598 -0.004148,0.005377 -0.006623,-7.7376e-4 -0.002372,-0.005888 -0.009485,-0.007047 -0.0225142,-0.003668 -0.0246587,0.006394 -0.019691,0.0189187 0.006671,0.0168245 0.011157,-8.8509e-4 0.0217087,5.7893e-4 0.0234493,0.003245 0.00338,0.005188 0.0293124,0.006866 0.0293124,0.001893 z" id="path4147" inkscape:connector-curvature="0" />
</svg>