<?xml version="1.0" encoding="utf-8" standalone="no"?>
<svg xmlns:dc="http://purl.org/dc/elements/1.1/" xmlns:cc="http://creativecommons.org/ns#" xmlns:rdf="http://www.w3.org/1999/02/22-rdf-syntax-ns#" xmlns:svg="http://www.w3.org/2000/svg" xmlns="http://www.w3.org/2000/svg" xmlns:sodipodi="http://sodipodi.sourceforge.net/DTD/sodipodi-0.dtd" xmlns:inkscape="http://www.inkscape.org/namespaces/inkscape" height="1" version="1.1" width="1" id="svg2" inkscape:version="0.91 r13725" sodipodi:docname="ListricNormalFault.svg">
  <metadata id="metadata8">
    <rdf:RDF>
      <cc:Work rdf:about="">
        <dc:format>image/svg+xml</dc:format>
        <dc:type rdf:resource="http://purl.org/dc/dcmitype/StillImage" />
        <dc:title></dc:title>
      </cc:Work>
    </rdf:RDF>
  </metadata>
  <defs id="defs6">
    <pattern width="1" height="1" id="ListricNormalFault" patternContentUnits="objectBoundingBox">
      <path style="fill:#000000" d="M 0.49792463,0.87097757 C 0.39126727,0.87012655 0.24761978,0.86836957 0.17870776,0.86707012 L 0.05341325,0.8647097 0.04521805,0.62594993 0.03702284,0.38719017 0.07740852,0.27759778 0.11779427,0.16800509 0.2929863,0.16277064 c 0.0963555,-0.002878 0.18290423,-0.005541 0.19233026,-0.005919 l 0.0171382,-6.8469e-4 0.005545,0.0387559 c 0.003047,0.0213157 0.006848,0.0407767 0.008439,0.0432468 0.001593,0.002472 0.0320959,-0.001724 0.0677866,-0.009321 0.0601747,-0.012808 0.0662931,-0.0154429 0.0841655,-0.0362469 0.0178172,-0.0207399 0.0213058,-0.0222557 0.0461774,-0.0200602 0.0147971,0.001308 0.061527,0.004727 0.10384431,0.007603 0.0423172,0.002876 0.0885158,0.006875 0.10266362,0.008888 0.0240697,0.003425 0.0255602,0.0046 0.0231928,0.0182691 -0.001393,0.008035 2.1988e-4,0.11178295 0.003571,0.23055163 l 0.006109,0.21594235 -0.0127547,0.0308103 c -0.007012,0.0169453 -0.0277526,0.0658175 -0.046083,0.10860409 l -0.0333282,0.0777937 -0.0849671,7.615e-4 c -0.0467318,4.1577e-4 -0.17223196,6.673e-5 -0.27888936,-7.8401e-4 z m 0.35780223,-0.0102808 c 0.001086,-0.001991 8.8657e-4,-0.0107827 -4.4194e-4,-0.019526 -0.002316,-0.0152654 -0.004288,-0.0160204 -0.0496361,-0.0190203 -0.0259713,-0.001717 -0.0691885,-0.007192 -0.0960377,-0.0121657 -0.0268493,-0.004973 -0.0861037,-0.009787 -0.13167648,-0.0106951 l -0.0828596,-0.001652 0.0207396,0.0299636 c 0.0191254,0.0276316 0.0225176,0.0299969 0.0435884,0.0303935 0.0125673,2.3744e-4 0.0810389,0.001234 0.15216036,0.002226 0.0711211,9.8393e-4 0.13220919,0.002316 0.13575105,0.002953 0.00354,6.3716e-4 0.007328,-4.7709e-4 0.008413,-0.002476 z m -0.47355869,-0.006466 c -1.434e-4,-0.00369 -0.003663,-0.019024 -0.007821,-0.0340799 -0.00722,-0.026141 -0.008359,-0.0273568 -0.0252814,-0.0269868 -0.009746,2.1316e-4 -0.0176246,0.002695 -0.0175063,0.005521 1.1816e-4,0.002824 0.004203,0.0150644 0.009074,0.0272024 0.004873,0.0121382 0.007348,0.0221025 0.005497,0.0221429 -0.001852,4.051e-5 -0.007038,-0.0119147 -0.011529,-0.0265679 l -0.008165,-0.0266415 -0.0370105,-0.002846 C 0.14139694,0.78059881 0.09968579,0.77700292 0.0791636,0.77384901 l -0.02336257,-0.003591 0.001633,0.042024 0.001633,0.042024 0.01516926,6.1619e-4 c 0.008343,3.391e-4 0.075175,0.00137 0.14851517,0.002299 0.0733399,9.213e-4 0.13927,0.002133 0.14651125,0.002696 0.00724,5.633e-4 0.0130486,-0.001997 0.0129052,-0.005688 z m 0.0683264,-0.005315 c -0.0147377,-0.0276045 -0.0385191,-0.050614 -0.0561061,-0.0542848 -0.0215977,-0.004507 -0.0231092,0.001762 -0.0101342,0.0420596 l 0.00774,0.0240388 0.0320294,-7.0054e-4 c 0.0283629,-6.2035e-4 0.0313933,-0.001896 0.0264705,-0.0111131 z m 0.057753,-0.0212483 -0.0212513,-0.030054 -0.0322895,5.4028e-4 -0.0322895,5.4036e-4 0.021358,0.0299549 0.021358,0.0299543 0.0321826,-4.4104e-4 0.0321826,-4.4099e-4 -0.0212511,-0.0300543 z m 0.40804991,-0.1039807 c 0.0213112,-0.0508285 0.0311726,-0.0806733 0.0306973,-0.0929046 -8.7682e-4,-0.0225647 3.0725e-4,-0.0248673 -0.048273,0.0934499 -0.0230274,0.0560774 -0.0371667,0.0972681 -0.0367225,0.10698135 6.7362e-4,0.014717 0.001478,0.0141419 0.0118113,-0.008423 0.006099,-0.0133202 0.0252181,-0.0579163 0.0424867,-0.0991028 z m -0.0744582,0.0741138 c -0.0103958,-0.056033 -0.008313,-0.052572 -0.0342147,-0.0568679 -0.0132632,-0.002197 -0.0596009,-0.005162 -0.10297214,-0.006581 -0.0433713,-0.001422 -0.0849111,-0.003704 -0.0923107,-0.005074 -0.0132679,-0.002457 -0.0134233,-0.002146 -0.0112356,0.0226695 l 0.002219,0.0251626 0.0712218,0.0139706 c 0.0710521,0.0139375 0.13249277,0.0236252 0.15754561,0.0248408 0.0124814,6.0442e-4 0.0130313,-4.1598e-4 0.009747,-0.0181199 z m -0.0873128,-0.0272036 c -4.3883e-4,-0.0112933 5.6355e-4,-0.020563 0.002229,-0.0205994 0.001665,-3.642e-5 0.003386,0.009173 0.003825,0.0204669 4.3883e-4,0.0112933 -5.6355e-4,0.020563 -0.002229,0.0205994 -0.001665,3.643e-5 -0.003386,-0.009173 -0.003825,-0.0204669 z m 0.11689328,6.475e-4 c 0.0143181,-0.0355846 0.0151138,-0.0403439 0.0114911,-0.0687534 -0.00214,-0.0167874 -0.005394,-0.0304894 -0.007229,-0.0304492 -0.001835,4.014e-5 -0.0105179,0.0159122 -0.0192944,0.035271 -0.0127585,0.0281418 -0.0155212,0.0395318 -0.0137831,0.0568157 0.002009,0.0199618 0.008772,0.0454492 0.0120418,0.0453777 7.658e-4,-1.675e-5 0.008313,-0.0172345 0.0167738,-0.0382618 z M 0.6011447,0.79102702 C 0.5999457,0.78914405 0.5784724,0.78325744 0.553427,0.77794863 0.5283816,0.77263935 0.4973163,0.76248833 0.4843931,0.75539043 l -0.023497,-0.0129048 0.0145668,0.0235699 c 0.0145002,0.0234622 0.0147535,0.0235759 0.0553534,0.0248852 0.0224325,7.2453e-4 0.047924,0.001812 0.0566477,0.002413 0.008724,6.0103e-4 0.0148801,-4.4241e-4 0.0136804,-0.002329 z M 0.47406839,0.77673014 c -0.009638,-0.0166411 -0.0136501,-0.0169987 -0.0154441,-0.001376 -7.6059e-4,0.006609 -0.001961,0.002549 -0.002667,-0.009023 -7.8192e-4,-0.0128478 -0.005457,-0.0272145 -0.0119994,-0.0368951 l -0.0107133,-0.0158543 9.6891e-4,0.0234359 c 0.001995,0.048378 0.004947,0.0541749 0.0273607,0.0536847 0.0200757,-4.3908e-4 0.0202331,-6.1545e-4 0.0124959,-0.0139736 z m -0.11085717,0.0054 c -8.282e-5,-0.002131 -0.002353,-0.0100424 -0.005043,-0.0175836 -0.004665,-0.0130689 -0.005234,-0.0131463 -0.0121805,-0.001647 -0.0102562,0.0169803 -0.008747,0.0236736 0.005268,0.0233671 0.006658,-1.4562e-4 0.0120385,-0.002006 0.0119557,-0.004137 z m 0.0149093,-0.0376737 c -0.0151736,-0.0219852 -0.0283687,-0.038537 -0.0293231,-0.0367812 -0.001865,0.003436 0.012785,0.055706 0.019528,0.0696558 0.002253,0.00466 0.0115852,0.008164 0.0207392,0.007787 l 0.0166438,-6.8682e-4 -0.0275878,-0.039973 z m 0.0529232,0.0178022 c -0.001601,-0.0386865 -0.006105,-0.0529556 -0.0166482,-0.052725 -0.008981,1.9644e-4 -0.00945,0.002265 -0.006619,0.0292581 l 0.003047,0.0290467 -0.005497,-0.028417 c -0.005804,-0.0300113 -0.0120097,-0.0362751 -0.0350532,-0.0353817 -0.0118913,4.5997e-4 -0.011622,0.001153 0.0157116,0.0405513 0.0326891,0.0471152 0.0464995,0.0525302 0.0450582,0.0176673 z m -0.19826498,-0.009362 c -0.002431,-0.0595985 -0.003691,-0.0615862 -0.0368356,-0.0580105 -0.0161248,0.001741 -0.0300434,0.004672 -0.0309313,0.006514 -8.8537e-4,0.001845 -0.002195,0.0193906 -0.002908,0.0389951 l -0.001295,0.0356444 0.0234113,0.001966 c 0.0556051,0.004667 0.0498904,0.007622 0.0485564,-0.0251075 z m 0.0858011,0.0239636 c -6.979e-5,-0.001796 -0.005706,-0.020171 -0.0125248,-0.0408273 -0.0115432,-0.0349677 -0.013383,-0.0375407 -0.0266927,-0.0373194 -0.007862,1.2992e-4 -0.0211787,-0.001521 -0.0295923,-0.003675 l -0.0152978,-0.003912 0.001586,0.0408212 c 8.7242e-4,0.0224517 0.002877,0.0428481 0.004454,0.0453253 0.00323,0.005073 0.0782651,0.004674 0.0780674,-4.1275e-4 z m 0.0214863,-0.0176758 c 0.0127238,-0.0244879 0.009931,-0.0329435 -0.006771,-0.0205041 -0.0141963,0.0105726 -0.0164376,0.0160113 -0.012574,0.0305126 0.004045,0.0151907 0.007063,0.0136303 0.0193454,-0.0100089 z m 0.25546387,-0.007371 -0.002128,-0.022217 -0.0343815,-0.001329 c -0.0189099,-7.3177e-4 -0.0404664,7.3516e-4 -0.047904,0.003256 -0.0124298,0.004216 -0.0129628,0.005465 -0.006599,0.0154618 0.006314,0.009918 0.0530018,0.0250392 0.0817571,0.0264798 0.0104867,5.2496e-4 0.0112167,-0.001182 0.009256,-0.0216463 z M 0.15836888,0.71342268 c -2.0807e-4,-0.0108178 -0.005332,-0.0118709 -0.0526927,-0.0108351 l -0.05245983,0.001147 0.0011672,0.0300387 0.0011672,0.0300383 0.04966226,0.004814 0.0496624,0.004814 0.001861,-0.0240166 c 0.001023,-0.0132091 0.001756,-0.0294089 0.001631,-0.0359991 z m 0.3365644,0.0286023 c -1.4629e-4,-0.003765 -0.005251,-0.006519 -0.0113445,-0.006122 -0.009817,6.4527e-4 -0.0101336,0.001373 -0.002779,0.00643 0.0113344,0.007792 0.014436,0.007724 0.0141239,-3.0891e-4 z M 0.3307062,0.73124553 c 0.0131379,-0.0139779 0.0148649,-0.0270553 0.00354,-0.0268076 -0.007782,1.702e-4 -0.0259177,0.0280446 -0.0229673,0.0353021 0.003413,0.008399 0.003644,0.008299 0.0194268,-0.008495 z m 0.49824718,-0.0530406 c -0.002585,-0.0310261 -0.006436,-0.0582291 -0.008562,-0.0604506 -0.007005,-0.007324 -0.12791669,-0.0108494 -0.17448053,-0.005086 l -0.0456818,0.005654 -7.6627e-4,0.0480173 c -4.214e-4,0.0264096 -1.57e-4,0.0489703 5.8156e-4,0.0501351 7.4264e-4,0.001161 0.0458532,0.004541 0.10024839,0.007505 0.0543951,0.002965 0.0997481,0.00672 0.1007845,0.008348 0.001037,0.001631 0.008789,0.002807 0.017227,0.002623 l 0.0153427,-3.3558e-4 -0.004698,-0.0564115 z m -0.0793251,-0.00249 c -0.002559,-0.0201638 -0.003722,-0.038377 -0.002582,-0.0404739 0.004493,-0.008263 0.006865,0.005345 0.007047,0.0404185 l 1.892e-4,0.0367167 -0.004656,-0.0366613 z m -0.1109639,-0.008761 c -8.5251e-4,-0.0225872 -4.2669e-4,-0.0310181 9.4666e-4,-0.0187363 0.001378,0.0122823 0.002075,0.0307624 0.001555,0.0410673 -5.2015e-4,0.0103047 -0.001649,2.5596e-4 -0.002501,-0.0223309 z m 0.079517,-1.9302e-4 c -5.2772e-4,-0.0135807 8.9101e-4,-0.0267594 0.003159,-0.0292858 0.002803,-0.003128 0.003547,0.00383 0.002331,0.0218079 -0.00237,0.035033 -0.004316,0.0376822 -0.00549,0.007478 z m -0.24180053,0.0413485 c 2.3867e-4,-0.0145217 -1.3586e-4,-0.0150807 -0.002477,-0.003755 -0.003262,0.0157381 -0.009845,0.004108 -0.006829,-0.0120621 0.001077,-0.005787 1.1533e-4,-0.0155044 -0.002153,-0.0215961 -0.003505,-0.009438 -0.005557,-0.007532 -0.0138676,0.0128968 -0.007406,0.0182037 -0.008503,0.0255386 -0.004557,0.0304801 0.015573,0.019503 0.0295161,0.016721 0.0298845,-0.005963 z m 0.38235221,-0.0168541 c 0.0343213,-0.067654 0.0329369,-0.0621102 0.0278779,-0.11163908 l -0.004587,-0.0448964 -0.0244042,0.0391384 -0.0244042,0.0391384 0.002095,0.0539194 c 0.001152,0.0296558 0.003534,0.0538878 0.005292,0.0538494 0.001759,-3.848e-5 0.009916,-0.0133179 0.0181302,-0.0295098 z m 0.0603992,-0.0360908 c 0.020717,-0.050765 0.026113,-0.0694034 0.0254007,-0.087735 l -9.0448e-4,-0.0232765 -0.0301679,0.0551402 c -0.0306461,0.0560151 -0.0332567,0.0666904 -0.0256834,0.10502763 0.00167,0.00844 0.003487,0.0153366 0.004043,0.0153245 5.5509e-4,-1.214e-5 0.0128466,-0.0290283 0.0273146,-0.0644807 z m -0.37050837,0.0543014 c -0.001576,-0.005925 -0.003576,-0.0290011 -0.004442,-0.0512795 -0.001563,-0.0402231 -0.001658,-0.0405047 -0.0133896,-0.0402481 -0.0113906,2.4913e-4 -0.0118546,0.001675 -0.0129034,0.0396708 -0.001561,0.0565739 -0.003504,0.0600763 -0.004811,0.008674 -9.3409e-4,-0.0367709 -0.002327,-0.0448542 -0.008015,-0.046566 -0.005336,-0.001605 -0.006688,0.003043 -0.006014,0.0206753 4.7977e-4,0.0125105 -0.002096,0.0320592 -0.005716,0.0434415 -0.0103435,0.0325063 -0.006362,0.0378146 0.0278029,0.0370674 0.026027,-5.6926e-4 0.0299512,-0.002201 0.0274904,-0.0114371 z m 0.0454428,-0.0158465 c -5.2336e-4,-0.014117 -2.6226e-4,-0.0374897 5.8285e-4,-0.0519394 0.001505,-0.0257513 0.001306,-0.0262222 -0.010055,-0.0237559 -0.0102174,0.002218 -0.0116203,0.005559 -0.011845,0.0282099 -1.4029e-4,0.0141316 -0.001556,0.0257224 -0.003145,0.0257572 -0.001588,3.473e-5 -0.002675,-0.0122716 -0.002413,-0.0273482 4.4354e-4,-0.0256339 -2.0485e-4,-0.0273965 -0.010037,-0.0271814 -0.0117066,2.5604e-4 -0.0124543,0.0104955 -0.00519,0.0710846 l 0.003799,0.0316987 0.0196284,-4.2931e-4 0.0196283,-4.293e-4 -9.5665e-4,-0.0256675 z M 0.3138041,0.71442987 c 0.009575,-0.006609 0.006929,-0.0165443 -0.00434,-0.0162978 -0.009798,2.1429e-4 -0.012626,0.006947 -0.006777,0.0161321 0.003489,0.005484 0.003417,0.005482 0.0111192,1.6719e-4 z m 0.10274307,-0.0148382 c -2.7468e-4,-0.007069 -0.041319,-0.0642462 -0.0461473,-0.0642857 -0.003729,-2.842e-5 -0.004583,0.008517 -0.002911,0.0290184 0.002325,0.0285308 0.002646,0.0290643 0.0174751,0.0292208 0.008307,8.815e-5 0.0164175,0.002222 0.0180223,0.004744 0.003239,0.005086 0.0137475,0.006096 0.0135612,0.001301 z m -0.0538043,-0.0334534 c -7.7858e-4,-0.0200366 -0.00296,-0.0307875 -0.006244,-0.0307648 -0.002777,1.878e-5 -0.0119311,-0.001724 -0.0203447,-0.003877 -0.0195457,-0.004997 -0.0193338,0.003511 9.6083e-4,0.0386073 0.0208964,0.0361374 0.0271489,0.0351699 0.0256281,-0.003966 z m 0.0844459,0.006924 c 0.005365,-0.016175 0.006111,-0.024573 0.002742,-0.030886 -0.005016,-0.009396 -0.0213499,-0.0103851 -0.0332102,-0.002011 -0.006829,0.004822 -0.006305,0.007202 0.006641,0.030199 0.007729,0.0137312 0.0145942,0.0249533 0.0152563,0.0249389 6.6045e-4,-1.444e-5 0.00452,-0.0100237 0.008573,-0.022242 z m 0.0429767,9.0404e-4 c 0.008783,-0.0332359 0.006314,-0.0484297 -0.007823,-0.0481206 -0.0108184,2.3662e-4 -0.0120194,0.002497 -0.0112908,0.0212478 7.5339e-4,0.0193886 0.007834,0.0473298 0.0119709,0.0472394 9.7243e-4,-2.127e-5 0.00419,-0.009186 0.007144,-0.0203664 z M 0.2867448,0.68515804 c -1.4139e-4,-0.003639 -0.003614,-0.0170372 -0.007716,-0.0297787 l -0.007459,-0.023166 -0.0672692,-0.0031 c -0.0369982,-0.001707 -0.072005,-0.004543 -0.077793,-0.006308 -0.009702,-0.002957 -0.0107661,-6.4269e-4 -0.0136282,0.0296792 l -0.003105,0.032887 -6.1334e-4,-0.0308126 -6.1335e-4,-0.0308126 -0.0276503,-0.00282 c -0.0152076,-0.001552 -0.02835481,-0.00152 -0.02921607,7.038e-5 -8.6283e-4,0.00159 -9.9018e-4,0.017727 -2.8545e-4,0.0358631 l 0.0012813,0.0329747 0.11407423,-5.623e-4 c 0.0627407,-3.1019e-4 0.11546393,1.241e-4 0.11716263,9.679e-4 0.001699,8.4326e-4 0.002973,-0.001439 0.002832,-0.005078 z M 0.3328446,0.6848297 C 0.3339056,0.6815417 0.3313056,0.6738972 0.3270626,0.667841 0.3198736,0.6575764 0.3187526,0.658003 0.3105435,0.674137 l -0.008807,0.0173077 0.0145891,-3.191e-4 c 0.008025,-1.7551e-4 0.0154578,-0.00301 0.016519,-0.006297 z m 0.0824909,-0.0164205 c -0.00518,-0.0111896 -0.0124676,-0.0201527 -0.0161946,-0.0199181 -0.004815,3.0523e-4 -0.002505,0.006199 0.007983,0.0203762 0.0185586,0.025086 0.0200002,0.0250056 0.008213,-4.5947e-4 z M 0.3165189,0.64342932 c -0.001108,-0.007338 -0.007432,-0.0110055 -0.0209974,-0.0121775 l -0.0194122,-0.001677 0.009456,0.0276574 0.009456,0.0276574 0.011542,-0.0154799 c 0.006348,-0.008515 0.0108284,-0.020205 0.009956,-0.0259802 z m 0.14591125,-0.0103017 c -1.4628e-4,-0.003765 -0.003099,-0.006784 -0.006557,-0.006708 -0.003461,7.569e-5 -0.005049,0.003191 -0.00353,0.006928 0.001516,0.003735 0.004468,0.006754 0.006557,0.006708 0.00209,-4.572e-5 0.003677,-0.003161 0.00353,-0.006928 z m -0.0689493,-0.007459 c -1.9146e-4,-0.004927 -0.003246,-0.0148785 -0.006789,-0.0221148 -0.006093,-0.0124445 -0.006401,-0.0119528 -0.005705,0.009091 5.0762e-4,0.0153082 0.002624,0.0222056 0.00679,0.0221144 0.003331,-7.284e-5 0.005897,-0.004164 0.005705,-0.009091 z m 0.0435894,-0.002551 c 0.002102,-0.003123 -0.0218049,-0.069966 -0.0267787,-0.074871 -0.002611,-0.002576 -0.006169,-4.0344e-4 -0.007906,0.004825 -0.003544,0.0106803 -0.002226,0.070079 0.001693,0.0762337 0.002259,0.003545 0.0299368,-0.001643 0.0329906,-0.006188 z m 0.47941216,-0.0910218 c -0.00232,-0.0214284 -0.005684,-0.0389287 -0.007475,-0.0388895 -0.001791,3.918e-5 -0.00764,0.007105 -0.013002,0.0156972 -0.00924,0.014812 -0.009514,0.0180597 -0.005266,0.062323 l 0.004479,0.0466969 0.0127411,-0.0234337 c 0.0123377,-0.0226909 0.0126076,-0.0246683 0.008521,-0.0623941 z m -0.64839674,0.0886232 c -1.0995e-4,-0.002829 -0.033175,-0.10515079 -0.040815,-0.12630282 -0.002027,-0.005606 -0.007697,-0.011109 -0.012604,-0.0122261 -0.008786,-0.002001 -0.008847,-0.001064 -0.003928,0.0617379 0.002746,0.0350729 0.005846,0.0676037 0.006889,0.0722904 0.001242,0.005583 0.0102862,0.008337 0.0262342,0.007988 0.0133861,-2.9277e-4 0.0242872,-0.001863 0.0242242,-0.003487 z m 0.0403679,-5.129e-4 c -5.525e-5,-0.001422 -0.003281,-0.0136823 -0.007171,-0.0272441 -0.011319,-0.0394737 -0.0273913,-0.0307119 -0.0256545,0.0139852 5.7302e-4,0.0147467 0.002402,0.0165127 0.0167845,0.0161982 0.008878,-1.9417e-4 0.0160962,-0.001516 0.0160408,-0.00294 z m 0.002392,-0.11163608 c -9.9319e-4,-0.001556 -0.008241,-0.004442 -0.0161128,-0.006416 l -0.0143122,-0.003588 0.0171207,0.0627552 0.0171207,0.0627552 -0.001009,-0.0563394 c -5.5906e-4,-0.0309867 -0.001813,-0.0576122 -0.002814,-0.0591671 z m 0.0433435,0.0806858 c -0.008185,-0.0177171 -0.018266,-0.0421574 -0.0224015,-0.0543119 -0.0119718,-0.0351848 -0.0155535,-0.0263154 -0.0132553,0.0328284 l 0.002128,0.0547552 0.0242053,-5.2942e-4 0.0242057,-5.2941e-4 -0.0148819,-0.0322131 z m 0.10981078,-6.897e-4 c 1.4361e-4,-0.0181158 0.003552,-0.0338643 0.0100573,-0.0464589 0.007638,-0.014789 0.00837,-0.0190211 0.003268,-0.0189094 -0.003614,7.905e-5 -0.007529,0.003111 -0.008701,0.00674 -0.001173,0.003629 -0.004864,0.004922 -0.008205,0.002871 -0.00334,-0.00205 -0.005934,-1.3008e-4 -0.005763,0.004254 1.7056e-4,0.004389 0.002051,0.006038 0.004181,0.003663 0.005874,-0.006554 0.005001,6.3067e-4 -0.004591,0.0377765 -0.0107149,0.0414943 -0.0106965,0.0428336 5.3918e-4,0.0398534 0.007352,-0.001951 0.009035,-0.00739 0.009212,-0.0297914 z m 0.36446743,-0.0362574 c 9.097e-4,-0.0364738 7.496e-5,-0.042637 -0.006349,-0.0467731 -0.004069,-0.002623 -0.0551316,-0.005409 -0.11347241,-0.006196 l -0.10607422,-0.001434 0.00151,0.0403565 c 8.2757e-4,0.0221964 7.7392e-4,0.0465381 -1.2502e-4,0.0540928 -0.0015,0.0125503 2.595e-5,0.0135047 0.0176532,0.0110557 l 0.0192923,-0.00268 -0.00265,-0.0308521 c -0.001454,-0.0169687 -7.6948e-4,-0.0343088 0.001528,-0.0385337 0.003054,-0.00562 0.004584,0.002786 0.005693,0.0313314 l 0.001516,0.0390131 0.0242122,-5.2956e-4 0.0242122,-5.2956e-4 -8.8427e-4,-0.0427944 -8.8429e-4,-0.0427945 0.003093,0.0427463 0.003093,0.0427461 0.0260376,-5.695e-4 0.0260372,-5.6947e-4 -7.6751e-4,-0.0393718 -7.6751e-4,-0.0393719 0.002956,0.0388138 0.002956,0.0388138 0.0272152,0.003752 c 0.0149685,0.002065 0.0299672,0.00442 0.0333311,0.005237 0.00854,0.002074 0.010425,-0.006833 0.0116277,-0.0549587 z m -0.61984477,0.0298552 c -0.002169,-0.0197324 -0.004585,-0.052047 -0.005373,-0.0718098 l -0.001431,-0.0359322 -0.016504,3.6097e-4 -0.0165036,3.6097e-4 0.005043,0.0572557 c 0.003259,0.0370026 0.003632,0.0588285 0.001056,0.0617016 -0.002604,0.002904 -0.004815,-0.0149846 -0.006378,-0.0515763 -0.001312,-0.030812 -0.004228,-0.0589059 -0.006474,-0.0624309 -0.002246,-0.003524 -0.0285185,-0.007453 -0.0583874,-0.00873 l -0.05430744,-0.002322 -0.0017665,0.0223769 c -9.7347e-4,0.0123075 -9.4368e-4,0.0435522 6.197e-5,0.0694325 l 0.0018285,0.0470552 0.01210613,-2.6448e-4 c 0.0121061,-2.6478e-4 0.0121061,-2.6478e-4 0.0105104,-0.0413312 -8.7765e-4,-0.0225861 8.184e-5,-0.041103 0.002132,-0.0411478 0.00205,-4.485e-5 0.00416,0.0191752 0.004688,0.0427113 l 9.6532e-4,0.0427926 0.0344504,0.003107 c 0.0189479,0.001708 0.0487992,0.003368 0.0663363,0.003686 l 0.0318857,5.7782e-4 -0.003941,-0.0358775 z m 0.16720305,0.004906 c -7.7801e-4,-0.0200221 -0.002725,-0.0273414 -0.007243,-0.0272425 -0.009476,2.0725e-4 -0.0108634,0.0189729 -0.002794,0.0377901 0.009831,0.0229249 0.0112797,0.0214017 0.0100382,-0.0105476 z m 0.11362263,0.0138017 c -3.5339e-4,-0.009094 -0.001466,-0.009539 -0.006154,-0.002453 -0.003148,0.004759 -0.005677,0.009816 -0.005622,0.0112367 5.525e-5,0.001422 0.002823,0.002524 0.006154,0.002452 0.003331,-7.285e-5 0.005859,-0.00513 0.005622,-0.0112367 z m 0.023048,-0.0304911 c -8.7766e-4,-0.0225865 -0.002353,-0.0410499 -0.003281,-0.0410295 -9.3192e-4,2.038e-5 -0.004929,0.0101261 -0.008888,0.0224577 -0.008772,0.0273143 -0.005394,0.0600573 0.006169,0.0598044 0.006598,-1.4432e-4 0.00739,-0.005577 0.006004,-0.0412326 z m 0.0296512,-0.001655 c 0.001662,-0.0731204 0.001627,-0.0733022 -0.0131655,-0.0677955 l -0.0129391,0.004816 8.7154e-4,0.052809 8.7153e-4,0.0528089 0.0117009,-2.5593e-4 c 0.011361,-2.4847e-4 0.0117291,-0.001482 0.0126586,-0.0423831 z m 0.0245075,0.0244447 c -0.003477,-0.0266502 -0.004241,-0.0549825 -0.002046,-0.0755205 0.001911,-0.017838 0.00106,-0.0209352 -0.00595,-0.0216737 -0.008923,-9.4231e-4 -0.0100219,0.006092 -0.0118535,0.075874 l -0.001049,0.0399204 0.0113389,-0.002468 c 0.008762,-0.001907 0.0109342,-0.005574 0.009558,-0.0161308 z m 0.0315971,-0.001141 c 0.001789,-0.009703 0.002602,-0.0343819 0.001807,-0.0548412 -0.001427,-0.0367317 -0.001597,-0.0371951 -0.0134974,-0.0369349 -0.0100036,2.1881e-4 -0.0129132,0.004437 -0.0171202,0.0248219 -0.004168,0.0201963 -0.004009,0.0299268 8.9119e-4,0.0547823 0.004879,0.0247307 0.007661,0.0301865 0.0153125,0.0300191 0.006324,-1.3833e-4 0.0104041,-0.005915 0.0126046,-0.0178471 z M 0.39573581,0.57977797 c -7.4895e-4,-0.0192743 -0.002785,-0.02734 -0.006878,-0.0272505 -0.008825,1.9302e-4 -0.009429,0.008284 -0.002436,0.0325918 0.008381,0.0291277 0.0106034,0.0278529 0.009313,-0.005341 z m 0.0523805,-6.3429e-4 c 0.005276,-0.0340223 0.001794,-0.048595 -0.0104385,-0.0436666 -0.0196232,0.007907 -0.0195701,0.007671 -0.009005,0.0399474 0.005549,0.0169486 0.0112507,0.0307899 0.0126729,0.0307587 0.001422,-3.112e-5 0.004468,-0.0121988 0.00677,-0.0270397 z m 0.0355389,-0.002997 c 0.0135173,-0.0375233 0.0105228,-0.0552029 -0.004793,-0.0282837 -0.006975,0.0122621 -0.0106538,0.0261616 -0.0101761,0.0384556 4.1146e-4,0.0105888 0.001571,0.0192344 0.002571,0.0192125 0.001006,-2.199e-5 0.00658,-0.0132448 0.0123951,-0.0293846 z m 0.37112216,-0.008237 c 0.0154097,-0.0289095 0.0156795,-0.0303872 0.0118967,-0.0651406 l -0.003872,-0.0355601 -0.0112823,0.0145559 c -0.006205,0.008005 -0.0124521,0.0211551 -0.0138821,0.0292207 -0.003872,0.0218431 -0.005096,0.0866465 -0.001634,0.0865707 0.001653,-3.616e-5 0.0101006,-0.013377 0.0187725,-0.0296462 z m -0.58600945,0.003102 c -0.001218,-0.001911 -0.004073,-0.001398 -0.006351,0.001141 -0.002884,0.003219 -0.002455,0.009128 0.001414,0.0194931 l 0.005548,0.0148761 8.0516e-4,-0.0160188 c 4.4437e-4,-0.00881 -1.9657e-4,-0.0175822 -0.001414,-0.0194931 z m 0.6726732,-0.0831349 c -9.2531e-4,-0.0238127 -0.002926,-0.0432683 -0.004452,-0.0432349 -0.001526,3.339e-5 -0.006709,0.006849 -0.0115277,0.0151466 -0.009044,0.0155797 -0.009845,0.0317273 -0.003767,0.0762586 l 0.003534,0.0259166 0.008943,-0.0153955 c 0.007575,-0.0130351 0.008685,-0.0220339 0.00726,-0.058691 z m -0.66849497,0.0500663 c -9.9957e-4,-0.0257236 -0.002992,-0.0275413 -0.0185341,-0.0169123 -0.009074,0.006205 -0.009536,0.008562 -0.004737,0.0240795 0.003483,0.0112637 0.00858,0.0171301 0.0147614,0.0169949 0.008099,-1.7713e-4 0.009309,-0.003611 0.00851,-0.024162 z m 0.016828,0.0173177 c -4.6019e-4,-0.0118429 -0.005984,-0.0278301 -0.009588,-0.0277513 -0.001981,4.333e-5 -0.003302,0.007779 -0.002937,0.0171896 4.1371e-4,0.0106469 0.00295,0.0170612 0.006718,0.0169787 0.003331,-7.283e-5 0.005944,-0.002959 0.005809,-0.006417 z m 0.0647525,-0.0295919 c 0.001321,-0.0427171 -0.001641,-0.0545512 -0.0135897,-0.0542898 -0.0220635,4.8257e-4 -0.022872,0.005975 -0.007193,0.048861 0.008049,0.0220159 0.0157776,0.040004 0.0171754,0.0399734 0.001397,-3.056e-5 0.00302,-0.0155754 0.003609,-0.0345446 z m 0.0126994,0.00919 c -0.002384,-0.0127194 -0.001961,-0.0166674 0.001425,-0.0133275 0.003314,0.003267 0.004475,-0.003901 0.003732,-0.0230356 -8.9772e-4,-0.0231024 -0.00242,-0.027752 -0.00905,-0.027607 -0.006969,1.5242e-4 -0.007367,0.002458 -0.003168,0.0183467 0.003271,0.012372 0.003718,0.0247147 0.001405,0.0386675 -0.004301,0.025919 -0.00437,0.0253222 0.002917,0.0251628 0.004616,-1.0096e-4 0.005294,-0.004599 0.002744,-0.0182074 z m 0.0294651,-1.937e-4 c 0.001601,-0.008586 0.002792,-0.009017 0.005632,-0.002034 0.001982,0.004872 0.004522,0.007167 0.005646,0.005099 0.003417,-0.006283 -0.0218615,-0.0741863 -0.0275708,-0.0740615 -0.003821,8.359e-5 -0.004874,0.0117348 -0.00373,0.0411828 0.001427,0.0367149 0.002463,0.0410474 0.009793,0.040887 0.004508,-9.859e-5 0.009111,-0.005081 0.0102286,-0.0110735 z m 0.10412075,-0.005126 c 0.001223,-0.003795 3.0937e-4,-0.006858 -0.002044,-0.006806 -0.00235,5.141e-5 -0.004154,0.003172 -0.004007,0.006939 1.4629e-4,0.003765 0.001068,0.006828 0.002044,0.006806 9.8069e-4,-2.145e-5 0.002781,-0.003142 0.004007,-0.006939 z m 0.40687685,-0.0527957 c 0.0194686,-0.0341784 0.0198198,-0.0356073 0.018311,-0.0744364 -8.4608e-4,-0.0217739 -0.00285,-0.0395603 -0.004465,-0.039525 -0.001605,3.511e-5 -0.0144235,0.0210405 -0.0284772,0.0466781 -0.0263254,0.0480251 -0.0290517,0.0616149 -0.0207722,0.10353554 0.003615,0.0183117 0.005307,0.0165806 0.035402,-0.0362521 z m -0.46717056,0.0500696 c 0.0071,-0.003448 0.008065,-0.009001 0.006602,-0.0379954 l -0.001717,-0.0339559 -0.014047,0.002289 c -0.0139459,0.002273 -0.0140454,0.002548 -0.0138704,0.0382479 1.8919e-4,0.0383639 0.002433,0.0414224 0.02303,0.0314153 z m 0.0244442,-0.0119032 c 0.002057,-0.004755 0.004521,-0.022018 0.005473,-0.0383638 0.001657,-0.028404 0.001316,-0.0296091 -0.007669,-0.0272332 -0.008321,0.002201 -0.009383,0.006624 -0.009225,0.0384459 1.7108e-4,0.0352721 0.003986,0.0443348 0.0114215,0.0271511 z m -0.20673117,-0.005162 c 0.014798,-0.0114315 0.0149219,-0.0118512 0.004899,-0.01655 -0.005656,-0.002652 -0.0152511,-0.005019 -0.0213217,-0.005263 -0.0103395,-4.1282e-4 -0.0107048,6.3442e-4 -0.005775,0.0165692 0.002894,0.009355 0.005657,0.0170017 0.006138,0.0169911 4.8622e-4,-1.063e-5 0.00771,-0.005297 0.0160599,-0.011748 z m 0.15422439,-0.019377 c -8.8654e-4,-0.0228148 -0.002408,-0.0273483 -0.009135,-0.0272011 -0.009677,2.1165e-4 -0.009804,0.007921 -5.6919e-4,0.0346037 0.009213,0.0266205 0.0109754,0.0252755 0.009706,-0.007403 z m 0.0772372,0.0128675 c -2.7427e-4,-0.007058 2.6184e-4,-0.022483 0.001194,-0.0342771 0.001317,-0.0167138 2.954e-4,-0.0214133 -0.004628,-0.0213057 -0.008027,1.7557e-4 -0.009124,0.004057 -0.0112085,0.0396338 -0.001552,0.0265272 -9.4879e-4,0.0291342 0.006718,0.0289665 0.005548,-1.2133e-4 0.008255,-0.004567 0.007927,-0.0130175 z m 0.0267353,-0.016854 c 0.017286,-0.0483846 0.0173044,-0.0466174 -4.8677e-4,-0.0462283 -0.0152709,3.3401e-4 -0.0163719,0.001819 -0.0193952,0.0261127 -0.007137,0.0573553 0.002934,0.0675472 0.0198821,0.0201159 z m 0.30169309,-0.035449 c -0.001857,-0.0243042 -0.004585,-0.046085 -0.006061,-0.0484015 -0.001474,-0.002316 -0.0416246,-0.005094 -0.0892219,-0.006173 l -0.0865403,-0.001961 -0.003415,0.0302 -0.003415,0.0302 7.8586e-4,-0.0291307 c 5.5517e-4,-0.0205727 -7.1405e-4,-0.0291252 -0.004311,-0.0291127 -0.002802,1.039e-5 -0.009021,-0.001653 -0.0138206,-0.003696 -0.008066,-0.003435 -0.008809,-2.6818e-4 -0.009832,0.0419486 -6.0976e-4,0.0251151 9.078e-5,0.047546 0.001557,0.0498464 0.001464,0.0023 0.0430862,0.005241 0.0924922,0.006536 0.0494059,0.001293 0.0977788,0.002708 0.10749522,0.003143 l 0.017666,7.9151e-4 -0.00338,-0.0441895 z m -0.072524,0.0182723 c -0.001829,-0.009282 -0.003469,-0.0245795 -0.003645,-0.0339947 -2.2432e-4,-0.0122947 0.001027,-0.009556 0.004451,0.009719 0.005248,0.029549 0.004524,0.0513142 -8.0842e-4,0.0242765 z m 0.14096377,-0.0596978 0.0478636,-0.0846849 4.8482e-4,-0.0512958 4.8482e-4,-0.0512956 -0.0165188,0.0297846 c -0.0157812,0.0284556 -0.0164053,0.0313698 -0.0139845,0.0652916 l 0.002535,0.0355066 -0.005656,-0.0319507 -0.005656,-0.0319507 -0.0377119,0.0527644 c -0.0409531,0.0572992 -0.0404157,0.0552871 -0.0324701,0.12156677 0.002089,0.0174342 0.005818,0.03153 0.008285,0.0313236 0.002465,-2.0384e-4 0.0260234,-0.0384834 0.0523484,-0.0850599 z m -0.5708919,0.0845792 c -1.1205e-4,-0.002883 -0.006312,-0.0281527 -0.0137772,-0.0561509 l -0.0135734,-0.0509062 -0.0187694,-0.001897 c -0.0118487,-0.001197 -0.0186607,8.9954e-4 -0.0184747,0.005687 2.7942e-4,0.007191 0.0229674,0.0894998 0.026114,0.0947387 0.001678,0.002795 0.0258674,0.0122812 0.0336128,0.0131824 0.002791,3.2916e-4 0.004979,-0.001771 0.004867,-0.004654 z m -0.0430314,-0.0680205 c -6.0948e-4,-0.015685 5.9412e-4,-0.0285557 0.002672,-0.0286011 0.002094,-4.58e-5 0.003185,0.0113889 0.002444,0.025635 -0.001853,0.0356103 -0.003805,0.0367421 -0.005117,0.002967 z m 0.29805658,0.05164 c 9.4605e-4,-0.005081 0.002328,-0.0266899 0.00307,-0.0480187 l 0.001347,-0.03878 -0.0121752,2.663e-4 c -0.0110416,2.415e-4 -0.0133136,0.004756 -0.0244044,0.0484853 l -0.012229,0.0482191 0.0213338,-4.6661e-4 c 0.0141341,-3.0913e-4 0.0219154,-0.003585 0.0230568,-0.009705 z m 0.0255266,-0.0393085 c -0.001467,-0.0377504 -0.00313,-0.0478831 -0.007838,-0.0477801 -0.003287,7.187e-5 -0.006567,0.00708 -0.00729,0.0155727 -7.2341e-4,0.008493 -0.002424,0.0301084 -0.003779,0.0480343 l -0.002465,0.0325924 0.011617,-2.5409e-4 0.0116169,-2.5408e-4 -0.001862,-0.0479109 z m -0.3267677,0.0396851 c -0.001296,-0.004681 -0.008076,-0.0276526 -0.0150602,-0.0510472 l -0.0126978,-0.0425362 -0.0196495,4.2977e-4 c -0.010807,2.3637e-4 -0.0195324,0.003441 -0.0193894,0.007122 1.4302e-4,0.003681 0.00582,0.0235335 0.0126141,0.0441166 0.0110034,0.0333345 0.0141666,0.0380671 0.0289452,0.0433115 0.0237509,0.008429 0.027901,0.008198 0.0252375,-0.001403 z m -0.0583763,-0.0359885 c -0.005083,-0.0140813 -0.00681,-0.0158444 -0.006576,-0.006712 6.5689e-4,0.0253081 -0.00812,0.003067 -0.00914,-0.0231718 l -0.00106,-0.0272734 -0.0291783,0.00265 -0.0291783,0.00265 -0.001565,0.0240101 -0.001565,0.02401 -0.001528,-0.025655 -0.001528,-0.025655 -0.0282479,6.1784e-4 -0.0282475,6.1782e-4 0.001463,0.0376442 0.001463,0.0376443 0.0333203,6.7e-7 c 0.0183263,-5.4e-7 0.0497404,0.001623 0.0698096,0.00361 0.0200694,0.001986 0.0369759,0.001475 0.0375705,-0.001141 5.9598e-4,-0.002613 -0.002023,-0.0133446 -0.005814,-0.0238483 z m 0.14595209,-0.002472 c 0.0136635,-0.0240655 0.0137348,-0.0244858 0.002198,-0.013016 -0.006557,0.00652 -0.0161185,0.0177119 -0.0212467,0.0248729 -0.007686,0.0107317 -0.008072,0.0130188 -0.002198,0.0130158 0.003922,-1.71e-6 0.0134807,-0.0111948 0.0212471,-0.0248725 z M 0.06665692,0.42600955 c -0.001383,-0.0355908 -0.00201,-0.0376321 -0.01155104,-0.0374235 -0.0093968,2.0553e-4 -0.0099984,0.002533 -0.008777,0.0339666 0.0011484,0.0295539 0.0024521,0.0340897 0.01050619,0.0365135 0.0050569,0.001523 0.0096654,0.003176 0.01024016,0.003678 5.7902e-4,4.9868e-4 3.8705e-4,-0.0160298 -4.1747e-4,-0.0367341 z m 0.25877217,0.02607 c 0.004187,-0.004795 0.003643,-0.012791 -0.003021,-0.0443554 -0.008835,-0.0418583 -0.008729,-0.041688 -0.0194643,-0.0313431 -0.007682,0.007402 -0.00759,0.008169 0.008923,0.0733786 0.0025,0.009871 0.006387,0.0105361 0.0135614,0.002321 z m 0.0906129,-0.0611126 c 0.0190884,-0.0362099 0.0337905,-0.065816 0.0326713,-0.0657916 -0.006736,1.4733e-4 -0.0573959,0.0673371 -0.073088,0.096937 l -0.0186734,0.035224 0.0121919,-2.6666e-4 c 0.0100972,-2.2085e-4 0.018155,-0.0115779 0.0468983,-0.0661029 z m 0.01041,0.0236247 c 0.008822,-0.0190989 0.0258967,-0.0472871 0.0379442,-0.0626408 0.0207079,-0.0263916 0.0538086,-0.0896453 0.0500227,-0.0955918 -0.007042,-0.0110617 -0.0773909,0.0958436 -0.10621549,0.16141074 -0.0122696,0.0279098 -0.0130087,0.0318799 -0.005907,0.0317245 0.004746,-1.038e-4 0.0147787,-0.0145998 0.0241564,-0.0349026 z m 0.0767137,-0.0674846 c 0.029626,-0.0519799 0.0529159,-0.0960007 0.051755,-0.0978242 -0.001162,-0.001824 -0.008601,0.00643 -0.0165329,0.01834 -0.0183742,0.0275896 -0.0268077,0.0287546 -0.009182,0.001267 0.009646,-0.0150426 0.0113126,-0.0205944 0.00621,-0.0206863 -0.006405,-1.1977e-4 -0.0183324,0.0201743 -0.0357514,0.060821 -0.003758,0.008768 -0.0187452,0.0322145 -0.033307,0.0521051 -0.0145614,0.0198904 -0.0305737,0.0462727 -0.0355829,0.0586271 l -0.009107,0.0224622 0.0138171,-3.022e-4 c 0.0122435,-2.6778e-4 0.0199518,-0.0110662 0.0676827,-0.0948112 z m -0.0338574,0.0888288 c 0.002335,-0.00282 0.006269,-0.0128763 0.008742,-0.0223496 0.004311,-0.0165065 0.004004,-0.016375 -0.007351,0.003154 -0.006516,0.0112085 -0.0118105,0.0213427 -0.0117648,0.0225207 1.4826e-4,0.003816 0.006018,0.001934 0.0103727,-0.003325 z m 0.46819016,-0.0495239 c -9.7518e-4,-0.0250962 -0.00349,-0.0444501 -0.005761,-0.0444003 -0.00228,4.987e-5 -0.003279,0.0194808 -0.002304,0.0445768 9.7518e-4,0.0250961 0.00349,0.0444501 0.005761,0.0444004 0.00228,-4.987e-5 0.003279,-0.0194808 0.002304,-0.0445769 z m -0.58401196,0.0320996 0.0156218,-0.0186915 -0.0041,-0.0346496 c -0.004637,-0.0391795 -0.005271,-0.0411757 -0.0110036,-0.0347804 -0.002271,0.002533 -0.003657,0.0167439 -0.003081,0.0315794 5.7647e-4,0.0148355 -4.0225e-4,0.0270054 -0.002176,0.0270442 -0.001774,3.88e-5 -0.002903,-0.0107254 -0.002506,-0.0239211 4.3982e-4,-0.0146848 -0.001018,-0.0239532 -0.00376,-0.0238933 -0.002767,6.052e-5 -0.004058,0.0177389 -0.003378,0.0463127 l 0.001098,0.046215 -0.004005,-0.0430735 c -0.003692,-0.0397101 -0.004537,-0.0423655 -0.0108014,-0.0340066 -0.006355,0.008479 -0.006297,0.0113899 8.9537e-4,0.044854 0.004227,0.019683 0.008562,0.0357681 0.009633,0.0357447 0.00107,-2.339e-5 0.008978,-0.008454 0.0175699,-0.0187341 z m 0.16228706,-0.0268753 c 0.0123572,-0.0231919 0.0383814,-0.0672979 0.0578312,-0.0980133 0.0194498,-0.0307153 0.0348033,-0.0565476 0.0341186,-0.0574048 -6.82e-4,-8.5303e-4 -0.009513,4.879e-4 -0.0196203,0.002985 -0.0164689,0.004074 -0.022427,0.011564 -0.0574348,0.0721985 -0.0214828,0.0372089 -0.0377362,0.0697313 -0.0361188,0.072272 0.001615,0.002541 0.009353,-0.00688 0.0171895,-0.0209355 0.0192879,-0.0345923 0.0253681,-0.0328243 0.006902,0.002006 -0.008083,0.0152472 -0.0179146,0.0277928 -0.0218461,0.0278787 -0.00393,8.597e-5 -0.009607,0.009458 -0.0126104,0.0208267 -0.009614,0.0363804 0.006515,0.0252404 0.031589,-0.021816 z m 0.025415,0.00687 c 0.00348,-0.0137515 0.025249,-0.0539569 0.0506741,-0.0935861 0.0342978,-0.0534588 0.0427038,-0.0699481 0.0364591,-0.0715197 -0.0112769,-0.002838 -0.1151462,0.16335423 -0.12054742,0.19287784 -5.1862e-4,0.00283 0.005416,0.003165 0.013187,7.4135e-4 0.0110534,-0.003447 0.0154556,-0.009652 0.0202277,-0.0285138 z m -0.12039109,-0.0572442 0.0386656,-0.0443224 -0.002803,-0.0356019 c -0.004159,-0.0528497 -0.006687,-0.0515367 -0.0109293,0.005677 l -0.002036,0.0274455 -0.003601,-0.0273221 c -0.002738,-0.0207826 -0.004251,-0.0244305 -0.006323,-0.0152416 -0.001499,0.006644 -0.001567,0.0228294 -1.4707e-4,0.0359669 0.001419,0.0131374 0.001124,0.0239179 -6.4577e-4,0.0239566 -0.001774,3.88e-5 -0.00371,-0.012431 -0.004304,-0.0277112 -6.5196e-4,-0.0167781 -0.002611,-0.0260709 -0.00495,-0.0234632 -0.002127,0.002374 -0.003339,0.0179966 -0.00269,0.0347143 6.4962e-4,0.0167179 -6.3412e-4,0.0304355 -0.002854,0.030484 -0.002217,4.85e-5 -0.004454,-0.0106918 -0.004966,-0.0238672 -9.7009e-4,-0.0249652 -0.005187,-0.0301461 -0.0120304,-0.0147871 -0.002958,0.006638 -0.001726,0.0147338 0.004677,0.0307237 0.004783,0.0119407 0.0073,0.0217407 0.00559,0.021778 -0.00171,3.74e-5 -0.006631,-0.00897 -0.0109404,-0.0200152 -0.0114184,-0.02927 -0.0202697,-0.0204341 -0.0162187,0.0161911 l 0.003133,0.0283251 -0.006069,-0.0254137 c -0.00448,-0.0187627 -0.007445,-0.0238476 -0.011332,-0.0194301 -0.00691,0.007857 6.8522e-4,0.0786772 0.007628,0.0711145 0.002463,-0.002685 0.0218788,-0.0248247 0.043145,-0.0492021 z m 0.32170482,0.0344487 c -0.001121,-0.00734 -0.008935,-0.0144038 -0.0215903,-0.0195165 -0.0217966,-0.008806 -0.032975,-0.0202251 -0.0133077,-0.0135942 0.0401814,0.0135474 0.0343448,0.0178082 0.0790603,-0.0577128 0.0226579,-0.0382675 0.0419557,-0.0683922 0.0428837,-0.066944 9.2809e-4,0.001446 -3.4489e-4,0.007196 -0.002829,0.0127722 -0.003798,0.008521 -0.00169,0.0112911 0.0132253,0.0173601 0.009759,0.003972 0.0262476,0.0110221 0.0366409,0.0156683 l 0.018897,0.008447 0.0223004,-0.0361634 0.0223012,-0.0361634 -0.0303045,-0.003749 c -0.016667,-0.002061 -0.052155,-0.004821 -0.0788621,-0.006132 -0.0267072,-0.001309 -0.0558889,-0.003949 -0.0648487,-0.00586 -0.0157904,-0.003371 -0.0167231,-0.002386 -0.0303847,0.0321307 -0.007752,0.0195843 -0.013458,0.0364412 -0.0126803,0.0374597 7.7768e-4,0.00102 0.0100427,0.003563 0.0205891,0.005654 0.0190534,0.003779 0.0192742,0.003584 0.034799,-0.0306597 0.008592,-0.0189545 0.0164274,-0.0332005 0.0174096,-0.0316579 0.0013,0.002041 -0.0374739,0.095769 -0.0527093,0.12741575 -6.1539e-4,0.001278 -0.0154643,-0.002699 -0.0329955,-0.00884 l -0.031875,-0.0111671 -0.0186127,0.0373697 -0.0186127,0.0373697 0.0361539,0.003052 c 0.0692278,0.005845 0.0672757,0.006041 0.0653537,-0.006539 z m 0.11032047,-0.040535 c 0.019779,-0.0277478 0.035964,-0.0523457 0.0359661,-0.0546622 2.8e-6,-0.002318 -0.0133652,-0.009178 -0.0297057,-0.0152465 -0.0163407,-0.00607 -0.0328029,-0.0124226 -0.0365827,-0.0141184 -0.008694,-0.003901 -0.0759293,0.10685005 -0.0752638,0.12397661 4.0881e-4,0.0105205 0.004764,0.0119198 0.0350453,0.0112576 l 0.0345789,-7.5628e-4 0.0359622,-0.0504505 z m -0.2583662,0.0204819 c 0.009702,-0.0156028 0.0174954,-0.0321123 0.0173176,-0.0366875 -4.0035e-4,-0.0103029 0.0371144,-0.0891825 0.0401483,-0.0844171 0.001209,0.001901 -0.006448,0.0209522 -0.0170176,0.0423394 -0.0188076,0.0380586 -0.0235037,0.0584299 -0.0134174,0.058202 0.002776,-6.279e-5 0.0173723,-0.0250426 0.0324407,-0.0555113 l 0.0273962,-0.0553972 -0.0149072,3.2605e-4 c -0.0125745,2.7502e-4 -0.0200526,0.00814 -0.0477899,0.0502638 -0.0180855,0.0274658 -0.0399952,0.0616737 -0.0486884,0.0760177 -0.0144904,0.0239097 -0.0150696,0.0263042 -0.006959,0.0287783 0.004866,0.001485 0.009968,0.003091 0.0113409,0.003577 0.001371,4.8135e-4 0.0104331,-0.0118876 0.0201354,-0.0274905 z m 0.0150995,0.0105542 c 0.00484,-0.00951 0.007596,-0.0191793 0.006128,-0.0214867 -0.002894,-0.004547 -0.0255625,0.0254445 -0.0256016,0.0338735 -5.464e-5,0.011117 0.0111344,0.004003 0.0194743,-0.0123868 z m 0.0302521,0.00306 c 0.006379,-0.0130463 0.006249,-0.013666 -0.003748,-0.0176371 -0.00746,-0.002962 -0.0125622,-6.5e-5 -0.0182258,0.0103503 -0.0102834,0.0189128 -0.009832,0.0213592 0.003881,0.0210593 0.006314,-1.3809e-4 0.0144562,-0.006337 0.0180928,-0.0137727 z m -0.5495597,-0.026509 c 0.0112219,-0.0174909 0.0202287,-0.0362953 0.0200153,-0.0417871 -2.1337e-4,-0.005491 0.0109276,-0.0227957 0.024758,-0.0384531 0.0138304,-0.0156575 0.0250942,-0.0298056 0.0250306,-0.0314404 -2.4573e-4,-0.006326 -0.043749,-0.0349477 -0.0459683,-0.0302432 -0.006277,0.0133061 -0.06182867,0.16636411 -0.06168867,0.16996706 5.3881e-4,0.0138661 0.02040981,-8.5677e-4 0.03785325,-0.0280431 z m 0.2199049,-0.005009 c 0.0120294,-0.016816 0.0235534,-0.0306112 0.0256086,-0.0306562 0.002054,-4.492e-5 0.0109124,-0.009506 0.0196838,-0.021024 0.008771,-0.0115183 0.0160521,-0.0182521 0.0161798,-0.0149649 2.4982e-4,0.006429 -0.0283302,0.0426742 -0.0337427,0.0427926 -0.001795,3.926e-5 -0.009195,0.009394 -0.0164437,0.0207901 -0.0246549,0.0387624 0.0586139,-0.0368714 0.11412387,-0.10365974 l 0.0505338,-0.060802 -0.017861,-0.001614 c -0.0157795,-0.001428 -0.0246604,0.005065 -0.0762152,0.0557141 -0.0320946,0.0315311 -0.0680416,0.0652743 -0.0798815,0.0749846 -0.0118401,0.00971 -0.0298228,0.0285369 -0.039962,0.0418373 -0.0101389,0.0133 -0.0193639,0.0227222 -0.0204998,0.0209376 -0.004391,-0.006896 0.0263309,-0.0414456 0.0846223,-0.0951643 0.0334047,-0.0307843 0.0691404,-0.0648793 0.0794127,-0.075767 l 0.0186773,-0.0197958 -0.0228998,-0.001534 -0.0228998,-0.001534 -0.0877554,0.0987176 c -0.0482654,0.0542947 -0.0886334,0.0973384 -0.0897064,0.0956528 -0.001072,-0.001685 0.0242328,-0.0325203 0.0562353,-0.0685213 0.0320029,-0.0360011 0.058112,-0.0673776 0.0580207,-0.0697255 -3.6743e-4,-0.009456 -0.0494853,-0.0208002 -0.0582197,-0.0134462 -0.0160536,0.0135166 -0.0413069,0.0505918 -0.0409374,0.0601018 2.0165e-4,0.005189 -0.003976,0.0145812 -0.009286,0.0208685 -0.005309,0.006288 -0.009746,0.009022 -0.009861,0.006077 -1.1455e-4,-0.002948 0.003273,-0.009282 0.007531,-0.0140809 0.004255,-0.004799 0.007563,-0.0132253 0.007349,-0.0187252 -5.1548e-4,-0.0132659 0.0574746,-0.0839899 0.0612507,-0.0747004 0.001574,0.003874 0.0142177,0.011183 0.0280947,0.0162398 0.0251386,0.009161 0.0252953,0.009121 0.0429492,-0.0107144 0.009745,-0.0109502 0.0176425,-0.0218634 0.0175497,-0.0242517 -9.272e-5,-0.002386 -0.0177958,-0.001949 -0.0393399,9.8016e-4 -0.0215443,0.002923 -0.0604429,0.005543 -0.0864413,0.005819 L 0.19875382,0.179091 0.18146642,0.2021627 c -0.009508,0.0126892 -0.0172175,0.0266971 -0.017132,0.0311284 8.493e-5,0.004431 -0.009589,0.0181045 -0.0214985,0.0303853 -0.0119097,0.0122809 -0.0224345,0.0273797 -0.0233881,0.0335526 -9.5263e-4,0.006173 -0.0105002,0.0258659 -0.0212147,0.0437618 l -0.0194805,0.0325378 0.10476442,-0.002591 0.10476434,-0.002591 0.0218719,-0.0305745 z m -0.1557592,0.007561 c 0.00594,-0.0114328 0.0126165,-0.0208267 0.0148358,-0.0208752 0.002221,-4.859e-5 -8.2444e-4,0.009267 -0.006766,0.0206987 -0.00594,0.0114328 -0.0126165,0.0208264 -0.0148358,0.020875 -0.002217,4.849e-5 8.2444e-4,-0.009267 0.006765,-0.0206984 z m 0.50491163,-0.0181931 c 0.005239,-0.0115827 0.0160905,-0.0270854 0.0241135,-0.0344511 0.016453,-0.0151043 0.0385842,-0.047221 0.0382615,-0.055525 -1.1726e-4,-0.003018 -0.007082,-0.006842 -0.0154756,-0.008499 -0.0144863,-0.002858 -0.0167504,-3.3314e-4 -0.0445139,0.0497274 -0.016088,0.0290061 -0.0291677,0.0548951 -0.0290653,0.0575307 1.0239e-4,0.002636 0.003418,0.006131 0.00737,0.007768 0.003952,0.001636 0.007768,0.003322 0.008484,0.003743 7.1403e-4,4.2504e-4 0.005587,-0.008711 0.0108263,-0.0202931 z m 0.09033,-0.0318763 0.009585,-0.0235603 -0.0195696,-0.0041 c -0.0160007,-0.003352 -0.0221993,-0.0013 -0.0339896,0.0112426 -0.007931,0.008438 -0.0135335,0.0167352 -0.0124499,0.0184372 0.001702,0.002673 0.0370229,0.0194168 0.0442674,0.0209839 0.001415,3.0882e-4 0.006885,-0.0100454 0.0121565,-0.0230039 z M 0.48284043,0.26899668 c 0.002762,-0.008549 -0.0121639,-0.060754 -0.0173357,-0.0606409 -0.001884,4.12e-5 -0.002701,0.0186632 -0.001818,0.041382 0.001507,0.0387919 0.002066,0.0408631 0.009174,0.0340136 0.004163,-0.004012 0.008653,-0.0106512 0.009979,-0.0147549 z m 0.0164783,-0.0151415 c 0.005316,-0.0120502 -0.0138487,-0.0681439 -0.0206785,-0.0605245 -0.003825,0.004264 -0.003221,0.0121618 0.002846,0.0373586 0.00801,0.0332652 0.011422,0.0376969 0.0178323,0.023166 z m 0.003542,-0.0531666 c -0.002514,-0.0264031 -0.007017,-0.0344214 -0.0115123,-0.0205001 -0.001792,0.00554 0.009818,0.0479379 0.0131036,0.047866 5.5915e-4,-1.222e-5 -1.5976e-4,-0.0123267 -0.001595,-0.0273657 z m 0.23128633,0.005457 c 0.00796,-0.0231039 0.007543,-0.0243817 -0.007844,-0.0240451 -0.008992,1.9668e-4 -0.016245,0.005844 -0.0219816,0.0171174 l -0.008561,0.0168238 0.0136571,0.00252 c 0.007511,0.001387 0.0148295,0.002986 0.0162621,0.003558 0.001434,5.6755e-4 0.005243,-0.006617 0.008467,-0.0159735 z m -0.0381471,-0.006257 0.008813,-0.0173182 -0.009307,2.0355e-4 c -0.008336,1.8234e-4 -0.0355492,0.0249913 -0.0352708,0.0321559 6.126e-5,0.001576 0.006151,0.002731 0.0135319,0.00257 0.009097,-1.9897e-4 0.0162591,-0.005872 0.0222333,-0.017612 z M 0.1769148,0.19732977 0.1883669,0.18023414 0.155074,0.18092692 c -0.0183108,3.8837e-4 -0.0331898,0.003357 -0.0330634,0.00661 2.5421e-4,0.006542 0.0278086,0.0261489 0.0373828,0.0266008 0.00334,1.5681e-4 0.0112228,-0.007406 0.0175215,-0.0168089 z" id="path4169" inkscape:connector-curvature="0" />
    </pattern>
  </defs>
  <sodipodi:namedview pagecolor="#ffffff" bordercolor="#666666" borderopacity="1" objecttolerance="10" gridtolerance="10" guidetolerance="10" inkscape:pageopacity="0" inkscape:pageshadow="2" inkscape:window-width="1600" inkscape:window-height="838" id="namedview4" showgrid="false" inkscape:zoom="256" inkscape:cx="0.5" inkscape:cy="0.5" inkscape:window-x="-8" inkscape:window-y="-8" inkscape:window-maximized="1" inkscape:current-layer="svg2" />
  <path style="fill:#000000" d="M 0.49792463,0.87097757 C 0.39126727,0.87012655 0.24761978,0.86836957 0.17870776,0.86707012 L 0.05341325,0.8647097 0.04521805,0.62594993 0.03702284,0.38719017 0.07740852,0.27759778 0.11779427,0.16800509 0.2929863,0.16277064 c 0.0963555,-0.002878 0.18290423,-0.005541 0.19233026,-0.005919 l 0.0171382,-6.8469e-4 0.005545,0.0387559 c 0.003047,0.0213157 0.006848,0.0407767 0.008439,0.0432468 0.001593,0.002472 0.0320959,-0.001724 0.0677866,-0.009321 0.0601747,-0.012808 0.0662931,-0.0154429 0.0841655,-0.0362469 0.0178172,-0.0207399 0.0213058,-0.0222557 0.0461774,-0.0200602 0.0147971,0.001308 0.061527,0.004727 0.10384431,0.007603 0.0423172,0.002876 0.0885158,0.006875 0.10266362,0.008888 0.0240697,0.003425 0.0255602,0.0046 0.0231928,0.0182691 -0.001393,0.008035 2.1988e-4,0.11178295 0.003571,0.23055163 l 0.006109,0.21594235 -0.0127547,0.0308103 c -0.007012,0.0169453 -0.0277526,0.0658175 -0.046083,0.10860409 l -0.0333282,0.0777937 -0.0849671,7.615e-4 c -0.0467318,4.1577e-4 -0.17223196,6.673e-5 -0.27888936,-7.8401e-4 z m 0.35780223,-0.0102808 c 0.001086,-0.001991 8.8657e-4,-0.0107827 -4.4194e-4,-0.019526 -0.002316,-0.0152654 -0.004288,-0.0160204 -0.0496361,-0.0190203 -0.0259713,-0.001717 -0.0691885,-0.007192 -0.0960377,-0.0121657 -0.0268493,-0.004973 -0.0861037,-0.009787 -0.13167648,-0.0106951 l -0.0828596,-0.001652 0.0207396,0.0299636 c 0.0191254,0.0276316 0.0225176,0.0299969 0.0435884,0.0303935 0.0125673,2.3744e-4 0.0810389,0.001234 0.15216036,0.002226 0.0711211,9.8393e-4 0.13220919,0.002316 0.13575105,0.002953 0.00354,6.3716e-4 0.007328,-4.7709e-4 0.008413,-0.002476 z m -0.47355869,-0.006466 c -1.434e-4,-0.00369 -0.003663,-0.019024 -0.007821,-0.0340799 -0.00722,-0.026141 -0.008359,-0.0273568 -0.0252814,-0.0269868 -0.009746,2.1316e-4 -0.0176246,0.002695 -0.0175063,0.005521 1.1816e-4,0.002824 0.004203,0.0150644 0.009074,0.0272024 0.004873,0.0121382 0.007348,0.0221025 0.005497,0.0221429 -0.001852,4.051e-5 -0.007038,-0.0119147 -0.011529,-0.0265679 l -0.008165,-0.0266415 -0.0370105,-0.002846 C 0.14139694,0.78059881 0.09968579,0.77700292 0.0791636,0.77384901 l -0.02336257,-0.003591 0.001633,0.042024 0.001633,0.042024 0.01516926,6.1619e-4 c 0.008343,3.391e-4 0.075175,0.00137 0.14851517,0.002299 0.0733399,9.213e-4 0.13927,0.002133 0.14651125,0.002696 0.00724,5.633e-4 0.0130486,-0.001997 0.0129052,-0.005688 z m 0.0683264,-0.005315 c -0.0147377,-0.0276045 -0.0385191,-0.050614 -0.0561061,-0.0542848 -0.0215977,-0.004507 -0.0231092,0.001762 -0.0101342,0.0420596 l 0.00774,0.0240388 0.0320294,-7.0054e-4 c 0.0283629,-6.2035e-4 0.0313933,-0.001896 0.0264705,-0.0111131 z m 0.057753,-0.0212483 -0.0212513,-0.030054 -0.0322895,5.4028e-4 -0.0322895,5.4036e-4 0.021358,0.0299549 0.021358,0.0299543 0.0321826,-4.4104e-4 0.0321826,-4.4099e-4 -0.0212511,-0.0300543 z m 0.40804991,-0.1039807 c 0.0213112,-0.0508285 0.0311726,-0.0806733 0.0306973,-0.0929046 -8.7682e-4,-0.0225647 3.0725e-4,-0.0248673 -0.048273,0.0934499 -0.0230274,0.0560774 -0.0371667,0.0972681 -0.0367225,0.10698135 6.7362e-4,0.014717 0.001478,0.0141419 0.0118113,-0.008423 0.006099,-0.0133202 0.0252181,-0.0579163 0.0424867,-0.0991028 z m -0.0744582,0.0741138 c -0.0103958,-0.056033 -0.008313,-0.052572 -0.0342147,-0.0568679 -0.0132632,-0.002197 -0.0596009,-0.005162 -0.10297214,-0.006581 -0.0433713,-0.001422 -0.0849111,-0.003704 -0.0923107,-0.005074 -0.0132679,-0.002457 -0.0134233,-0.002146 -0.0112356,0.0226695 l 0.002219,0.0251626 0.0712218,0.0139706 c 0.0710521,0.0139375 0.13249277,0.0236252 0.15754561,0.0248408 0.0124814,6.0442e-4 0.0130313,-4.1598e-4 0.009747,-0.0181199 z m -0.0873128,-0.0272036 c -4.3883e-4,-0.0112933 5.6355e-4,-0.020563 0.002229,-0.0205994 0.001665,-3.642e-5 0.003386,0.009173 0.003825,0.0204669 4.3883e-4,0.0112933 -5.6355e-4,0.020563 -0.002229,0.0205994 -0.001665,3.643e-5 -0.003386,-0.009173 -0.003825,-0.0204669 z m 0.11689328,6.475e-4 c 0.0143181,-0.0355846 0.0151138,-0.0403439 0.0114911,-0.0687534 -0.00214,-0.0167874 -0.005394,-0.0304894 -0.007229,-0.0304492 -0.001835,4.014e-5 -0.0105179,0.0159122 -0.0192944,0.035271 -0.0127585,0.0281418 -0.0155212,0.0395318 -0.0137831,0.0568157 0.002009,0.0199618 0.008772,0.0454492 0.0120418,0.0453777 7.658e-4,-1.675e-5 0.008313,-0.0172345 0.0167738,-0.0382618 z M 0.6011447,0.79102702 C 0.5999457,0.78914405 0.5784724,0.78325744 0.553427,0.77794863 0.5283816,0.77263935 0.4973163,0.76248833 0.4843931,0.75539043 l -0.023497,-0.0129048 0.0145668,0.0235699 c 0.0145002,0.0234622 0.0147535,0.0235759 0.0553534,0.0248852 0.0224325,7.2453e-4 0.047924,0.001812 0.0566477,0.002413 0.008724,6.0103e-4 0.0148801,-4.4241e-4 0.0136804,-0.002329 z M 0.47406839,0.77673014 c -0.009638,-0.0166411 -0.0136501,-0.0169987 -0.0154441,-0.001376 -7.6059e-4,0.006609 -0.001961,0.002549 -0.002667,-0.009023 -7.8192e-4,-0.0128478 -0.005457,-0.0272145 -0.0119994,-0.0368951 l -0.0107133,-0.0158543 9.6891e-4,0.0234359 c 0.001995,0.048378 0.004947,0.0541749 0.0273607,0.0536847 0.0200757,-4.3908e-4 0.0202331,-6.1545e-4 0.0124959,-0.0139736 z m -0.11085717,0.0054 c -8.282e-5,-0.002131 -0.002353,-0.0100424 -0.005043,-0.0175836 -0.004665,-0.0130689 -0.005234,-0.0131463 -0.0121805,-0.001647 -0.0102562,0.0169803 -0.008747,0.0236736 0.005268,0.0233671 0.006658,-1.4562e-4 0.0120385,-0.002006 0.0119557,-0.004137 z m 0.0149093,-0.0376737 c -0.0151736,-0.0219852 -0.0283687,-0.038537 -0.0293231,-0.0367812 -0.001865,0.003436 0.012785,0.055706 0.019528,0.0696558 0.002253,0.00466 0.0115852,0.008164 0.0207392,0.007787 l 0.0166438,-6.8682e-4 -0.0275878,-0.039973 z m 0.0529232,0.0178022 c -0.001601,-0.0386865 -0.006105,-0.0529556 -0.0166482,-0.052725 -0.008981,1.9644e-4 -0.00945,0.002265 -0.006619,0.0292581 l 0.003047,0.0290467 -0.005497,-0.028417 c -0.005804,-0.0300113 -0.0120097,-0.0362751 -0.0350532,-0.0353817 -0.0118913,4.5997e-4 -0.011622,0.001153 0.0157116,0.0405513 0.0326891,0.0471152 0.0464995,0.0525302 0.0450582,0.0176673 z m -0.19826498,-0.009362 c -0.002431,-0.0595985 -0.003691,-0.0615862 -0.0368356,-0.0580105 -0.0161248,0.001741 -0.0300434,0.004672 -0.0309313,0.006514 -8.8537e-4,0.001845 -0.002195,0.0193906 -0.002908,0.0389951 l -0.001295,0.0356444 0.0234113,0.001966 c 0.0556051,0.004667 0.0498904,0.007622 0.0485564,-0.0251075 z m 0.0858011,0.0239636 c -6.979e-5,-0.001796 -0.005706,-0.020171 -0.0125248,-0.0408273 -0.0115432,-0.0349677 -0.013383,-0.0375407 -0.0266927,-0.0373194 -0.007862,1.2992e-4 -0.0211787,-0.001521 -0.0295923,-0.003675 l -0.0152978,-0.003912 0.001586,0.0408212 c 8.7242e-4,0.0224517 0.002877,0.0428481 0.004454,0.0453253 0.00323,0.005073 0.0782651,0.004674 0.0780674,-4.1275e-4 z m 0.0214863,-0.0176758 c 0.0127238,-0.0244879 0.009931,-0.0329435 -0.006771,-0.0205041 -0.0141963,0.0105726 -0.0164376,0.0160113 -0.012574,0.0305126 0.004045,0.0151907 0.007063,0.0136303 0.0193454,-0.0100089 z m 0.25546387,-0.007371 -0.002128,-0.022217 -0.0343815,-0.001329 c -0.0189099,-7.3177e-4 -0.0404664,7.3516e-4 -0.047904,0.003256 -0.0124298,0.004216 -0.0129628,0.005465 -0.006599,0.0154618 0.006314,0.009918 0.0530018,0.0250392 0.0817571,0.0264798 0.0104867,5.2496e-4 0.0112167,-0.001182 0.009256,-0.0216463 z M 0.15836888,0.71342268 c -2.0807e-4,-0.0108178 -0.005332,-0.0118709 -0.0526927,-0.0108351 l -0.05245983,0.001147 0.0011672,0.0300387 0.0011672,0.0300383 0.04966226,0.004814 0.0496624,0.004814 0.001861,-0.0240166 c 0.001023,-0.0132091 0.001756,-0.0294089 0.001631,-0.0359991 z m 0.3365644,0.0286023 c -1.4629e-4,-0.003765 -0.005251,-0.006519 -0.0113445,-0.006122 -0.009817,6.4527e-4 -0.0101336,0.001373 -0.002779,0.00643 0.0113344,0.007792 0.014436,0.007724 0.0141239,-3.0891e-4 z M 0.3307062,0.73124553 c 0.0131379,-0.0139779 0.0148649,-0.0270553 0.00354,-0.0268076 -0.007782,1.702e-4 -0.0259177,0.0280446 -0.0229673,0.0353021 0.003413,0.008399 0.003644,0.008299 0.0194268,-0.008495 z m 0.49824718,-0.0530406 c -0.002585,-0.0310261 -0.006436,-0.0582291 -0.008562,-0.0604506 -0.007005,-0.007324 -0.12791669,-0.0108494 -0.17448053,-0.005086 l -0.0456818,0.005654 -7.6627e-4,0.0480173 c -4.214e-4,0.0264096 -1.57e-4,0.0489703 5.8156e-4,0.0501351 7.4264e-4,0.001161 0.0458532,0.004541 0.10024839,0.007505 0.0543951,0.002965 0.0997481,0.00672 0.1007845,0.008348 0.001037,0.001631 0.008789,0.002807 0.017227,0.002623 l 0.0153427,-3.3558e-4 -0.004698,-0.0564115 z m -0.0793251,-0.00249 c -0.002559,-0.0201638 -0.003722,-0.038377 -0.002582,-0.0404739 0.004493,-0.008263 0.006865,0.005345 0.007047,0.0404185 l 1.892e-4,0.0367167 -0.004656,-0.0366613 z m -0.1109639,-0.008761 c -8.5251e-4,-0.0225872 -4.2669e-4,-0.0310181 9.4666e-4,-0.0187363 0.001378,0.0122823 0.002075,0.0307624 0.001555,0.0410673 -5.2015e-4,0.0103047 -0.001649,2.5596e-4 -0.002501,-0.0223309 z m 0.079517,-1.9302e-4 c -5.2772e-4,-0.0135807 8.9101e-4,-0.0267594 0.003159,-0.0292858 0.002803,-0.003128 0.003547,0.00383 0.002331,0.0218079 -0.00237,0.035033 -0.004316,0.0376822 -0.00549,0.007478 z m -0.24180053,0.0413485 c 2.3867e-4,-0.0145217 -1.3586e-4,-0.0150807 -0.002477,-0.003755 -0.003262,0.0157381 -0.009845,0.004108 -0.006829,-0.0120621 0.001077,-0.005787 1.1533e-4,-0.0155044 -0.002153,-0.0215961 -0.003505,-0.009438 -0.005557,-0.007532 -0.0138676,0.0128968 -0.007406,0.0182037 -0.008503,0.0255386 -0.004557,0.0304801 0.015573,0.019503 0.0295161,0.016721 0.0298845,-0.005963 z m 0.38235221,-0.0168541 c 0.0343213,-0.067654 0.0329369,-0.0621102 0.0278779,-0.11163908 l -0.004587,-0.0448964 -0.0244042,0.0391384 -0.0244042,0.0391384 0.002095,0.0539194 c 0.001152,0.0296558 0.003534,0.0538878 0.005292,0.0538494 0.001759,-3.848e-5 0.009916,-0.0133179 0.0181302,-0.0295098 z m 0.0603992,-0.0360908 c 0.020717,-0.050765 0.026113,-0.0694034 0.0254007,-0.087735 l -9.0448e-4,-0.0232765 -0.0301679,0.0551402 c -0.0306461,0.0560151 -0.0332567,0.0666904 -0.0256834,0.10502763 0.00167,0.00844 0.003487,0.0153366 0.004043,0.0153245 5.5509e-4,-1.214e-5 0.0128466,-0.0290283 0.0273146,-0.0644807 z m -0.37050837,0.0543014 c -0.001576,-0.005925 -0.003576,-0.0290011 -0.004442,-0.0512795 -0.001563,-0.0402231 -0.001658,-0.0405047 -0.0133896,-0.0402481 -0.0113906,2.4913e-4 -0.0118546,0.001675 -0.0129034,0.0396708 -0.001561,0.0565739 -0.003504,0.0600763 -0.004811,0.008674 -9.3409e-4,-0.0367709 -0.002327,-0.0448542 -0.008015,-0.046566 -0.005336,-0.001605 -0.006688,0.003043 -0.006014,0.0206753 4.7977e-4,0.0125105 -0.002096,0.0320592 -0.005716,0.0434415 -0.0103435,0.0325063 -0.006362,0.0378146 0.0278029,0.0370674 0.026027,-5.6926e-4 0.0299512,-0.002201 0.0274904,-0.0114371 z m 0.0454428,-0.0158465 c -5.2336e-4,-0.014117 -2.6226e-4,-0.0374897 5.8285e-4,-0.0519394 0.001505,-0.0257513 0.001306,-0.0262222 -0.010055,-0.0237559 -0.0102174,0.002218 -0.0116203,0.005559 -0.011845,0.0282099 -1.4029e-4,0.0141316 -0.001556,0.0257224 -0.003145,0.0257572 -0.001588,3.473e-5 -0.002675,-0.0122716 -0.002413,-0.0273482 4.4354e-4,-0.0256339 -2.0485e-4,-0.0273965 -0.010037,-0.0271814 -0.0117066,2.5604e-4 -0.0124543,0.0104955 -0.00519,0.0710846 l 0.003799,0.0316987 0.0196284,-4.2931e-4 0.0196283,-4.293e-4 -9.5665e-4,-0.0256675 z M 0.3138041,0.71442987 c 0.009575,-0.006609 0.006929,-0.0165443 -0.00434,-0.0162978 -0.009798,2.1429e-4 -0.012626,0.006947 -0.006777,0.0161321 0.003489,0.005484 0.003417,0.005482 0.0111192,1.6719e-4 z m 0.10274307,-0.0148382 c -2.7468e-4,-0.007069 -0.041319,-0.0642462 -0.0461473,-0.0642857 -0.003729,-2.842e-5 -0.004583,0.008517 -0.002911,0.0290184 0.002325,0.0285308 0.002646,0.0290643 0.0174751,0.0292208 0.008307,8.815e-5 0.0164175,0.002222 0.0180223,0.004744 0.003239,0.005086 0.0137475,0.006096 0.0135612,0.001301 z m -0.0538043,-0.0334534 c -7.7858e-4,-0.0200366 -0.00296,-0.0307875 -0.006244,-0.0307648 -0.002777,1.878e-5 -0.0119311,-0.001724 -0.0203447,-0.003877 -0.0195457,-0.004997 -0.0193338,0.003511 9.6083e-4,0.0386073 0.0208964,0.0361374 0.0271489,0.0351699 0.0256281,-0.003966 z m 0.0844459,0.006924 c 0.005365,-0.016175 0.006111,-0.024573 0.002742,-0.030886 -0.005016,-0.009396 -0.0213499,-0.0103851 -0.0332102,-0.002011 -0.006829,0.004822 -0.006305,0.007202 0.006641,0.030199 0.007729,0.0137312 0.0145942,0.0249533 0.0152563,0.0249389 6.6045e-4,-1.444e-5 0.00452,-0.0100237 0.008573,-0.022242 z m 0.0429767,9.0404e-4 c 0.008783,-0.0332359 0.006314,-0.0484297 -0.007823,-0.0481206 -0.0108184,2.3662e-4 -0.0120194,0.002497 -0.0112908,0.0212478 7.5339e-4,0.0193886 0.007834,0.0473298 0.0119709,0.0472394 9.7243e-4,-2.127e-5 0.00419,-0.009186 0.007144,-0.0203664 z M 0.2867448,0.68515804 c -1.4139e-4,-0.003639 -0.003614,-0.0170372 -0.007716,-0.0297787 l -0.007459,-0.023166 -0.0672692,-0.0031 c -0.0369982,-0.001707 -0.072005,-0.004543 -0.077793,-0.006308 -0.009702,-0.002957 -0.0107661,-6.4269e-4 -0.0136282,0.0296792 l -0.003105,0.032887 -6.1334e-4,-0.0308126 -6.1335e-4,-0.0308126 -0.0276503,-0.00282 c -0.0152076,-0.001552 -0.02835481,-0.00152 -0.02921607,7.038e-5 -8.6283e-4,0.00159 -9.9018e-4,0.017727 -2.8545e-4,0.0358631 l 0.0012813,0.0329747 0.11407423,-5.623e-4 c 0.0627407,-3.1019e-4 0.11546393,1.241e-4 0.11716263,9.679e-4 0.001699,8.4326e-4 0.002973,-0.001439 0.002832,-0.005078 z M 0.3328446,0.6848297 C 0.3339056,0.6815417 0.3313056,0.6738972 0.3270626,0.667841 0.3198736,0.6575764 0.3187526,0.658003 0.3105435,0.674137 l -0.008807,0.0173077 0.0145891,-3.191e-4 c 0.008025,-1.7551e-4 0.0154578,-0.00301 0.016519,-0.006297 z m 0.0824909,-0.0164205 c -0.00518,-0.0111896 -0.0124676,-0.0201527 -0.0161946,-0.0199181 -0.004815,3.0523e-4 -0.002505,0.006199 0.007983,0.0203762 0.0185586,0.025086 0.0200002,0.0250056 0.008213,-4.5947e-4 z M 0.3165189,0.64342932 c -0.001108,-0.007338 -0.007432,-0.0110055 -0.0209974,-0.0121775 l -0.0194122,-0.001677 0.009456,0.0276574 0.009456,0.0276574 0.011542,-0.0154799 c 0.006348,-0.008515 0.0108284,-0.020205 0.009956,-0.0259802 z m 0.14591125,-0.0103017 c -1.4628e-4,-0.003765 -0.003099,-0.006784 -0.006557,-0.006708 -0.003461,7.569e-5 -0.005049,0.003191 -0.00353,0.006928 0.001516,0.003735 0.004468,0.006754 0.006557,0.006708 0.00209,-4.572e-5 0.003677,-0.003161 0.00353,-0.006928 z m -0.0689493,-0.007459 c -1.9146e-4,-0.004927 -0.003246,-0.0148785 -0.006789,-0.0221148 -0.006093,-0.0124445 -0.006401,-0.0119528 -0.005705,0.009091 5.0762e-4,0.0153082 0.002624,0.0222056 0.00679,0.0221144 0.003331,-7.284e-5 0.005897,-0.004164 0.005705,-0.009091 z m 0.0435894,-0.002551 c 0.002102,-0.003123 -0.0218049,-0.069966 -0.0267787,-0.074871 -0.002611,-0.002576 -0.006169,-4.0344e-4 -0.007906,0.004825 -0.003544,0.0106803 -0.002226,0.070079 0.001693,0.0762337 0.002259,0.003545 0.0299368,-0.001643 0.0329906,-0.006188 z m 0.47941216,-0.0910218 c -0.00232,-0.0214284 -0.005684,-0.0389287 -0.007475,-0.0388895 -0.001791,3.918e-5 -0.00764,0.007105 -0.013002,0.0156972 -0.00924,0.014812 -0.009514,0.0180597 -0.005266,0.062323 l 0.004479,0.0466969 0.0127411,-0.0234337 c 0.0123377,-0.0226909 0.0126076,-0.0246683 0.008521,-0.0623941 z m -0.64839674,0.0886232 c -1.0995e-4,-0.002829 -0.033175,-0.10515079 -0.040815,-0.12630282 -0.002027,-0.005606 -0.007697,-0.011109 -0.012604,-0.0122261 -0.008786,-0.002001 -0.008847,-0.001064 -0.003928,0.0617379 0.002746,0.0350729 0.005846,0.0676037 0.006889,0.0722904 0.001242,0.005583 0.0102862,0.008337 0.0262342,0.007988 0.0133861,-2.9277e-4 0.0242872,-0.001863 0.0242242,-0.003487 z m 0.0403679,-5.129e-4 c -5.525e-5,-0.001422 -0.003281,-0.0136823 -0.007171,-0.0272441 -0.011319,-0.0394737 -0.0273913,-0.0307119 -0.0256545,0.0139852 5.7302e-4,0.0147467 0.002402,0.0165127 0.0167845,0.0161982 0.008878,-1.9417e-4 0.0160962,-0.001516 0.0160408,-0.00294 z m 0.002392,-0.11163608 c -9.9319e-4,-0.001556 -0.008241,-0.004442 -0.0161128,-0.006416 l -0.0143122,-0.003588 0.0171207,0.0627552 0.0171207,0.0627552 -0.001009,-0.0563394 c -5.5906e-4,-0.0309867 -0.001813,-0.0576122 -0.002814,-0.0591671 z m 0.0433435,0.0806858 c -0.008185,-0.0177171 -0.018266,-0.0421574 -0.0224015,-0.0543119 -0.0119718,-0.0351848 -0.0155535,-0.0263154 -0.0132553,0.0328284 l 0.002128,0.0547552 0.0242053,-5.2942e-4 0.0242057,-5.2941e-4 -0.0148819,-0.0322131 z m 0.10981078,-6.897e-4 c 1.4361e-4,-0.0181158 0.003552,-0.0338643 0.0100573,-0.0464589 0.007638,-0.014789 0.00837,-0.0190211 0.003268,-0.0189094 -0.003614,7.905e-5 -0.007529,0.003111 -0.008701,0.00674 -0.001173,0.003629 -0.004864,0.004922 -0.008205,0.002871 -0.00334,-0.00205 -0.005934,-1.3008e-4 -0.005763,0.004254 1.7056e-4,0.004389 0.002051,0.006038 0.004181,0.003663 0.005874,-0.006554 0.005001,6.3067e-4 -0.004591,0.0377765 -0.0107149,0.0414943 -0.0106965,0.0428336 5.3918e-4,0.0398534 0.007352,-0.001951 0.009035,-0.00739 0.009212,-0.0297914 z m 0.36446743,-0.0362574 c 9.097e-4,-0.0364738 7.496e-5,-0.042637 -0.006349,-0.0467731 -0.004069,-0.002623 -0.0551316,-0.005409 -0.11347241,-0.006196 l -0.10607422,-0.001434 0.00151,0.0403565 c 8.2757e-4,0.0221964 7.7392e-4,0.0465381 -1.2502e-4,0.0540928 -0.0015,0.0125503 2.595e-5,0.0135047 0.0176532,0.0110557 l 0.0192923,-0.00268 -0.00265,-0.0308521 c -0.001454,-0.0169687 -7.6948e-4,-0.0343088 0.001528,-0.0385337 0.003054,-0.00562 0.004584,0.002786 0.005693,0.0313314 l 0.001516,0.0390131 0.0242122,-5.2956e-4 0.0242122,-5.2956e-4 -8.8427e-4,-0.0427944 -8.8429e-4,-0.0427945 0.003093,0.0427463 0.003093,0.0427461 0.0260376,-5.695e-4 0.0260372,-5.6947e-4 -7.6751e-4,-0.0393718 -7.6751e-4,-0.0393719 0.002956,0.0388138 0.002956,0.0388138 0.0272152,0.003752 c 0.0149685,0.002065 0.0299672,0.00442 0.0333311,0.005237 0.00854,0.002074 0.010425,-0.006833 0.0116277,-0.0549587 z m -0.61984477,0.0298552 c -0.002169,-0.0197324 -0.004585,-0.052047 -0.005373,-0.0718098 l -0.001431,-0.0359322 -0.016504,3.6097e-4 -0.0165036,3.6097e-4 0.005043,0.0572557 c 0.003259,0.0370026 0.003632,0.0588285 0.001056,0.0617016 -0.002604,0.002904 -0.004815,-0.0149846 -0.006378,-0.0515763 -0.001312,-0.030812 -0.004228,-0.0589059 -0.006474,-0.0624309 -0.002246,-0.003524 -0.0285185,-0.007453 -0.0583874,-0.00873 l -0.05430744,-0.002322 -0.0017665,0.0223769 c -9.7347e-4,0.0123075 -9.4368e-4,0.0435522 6.197e-5,0.0694325 l 0.0018285,0.0470552 0.01210613,-2.6448e-4 c 0.0121061,-2.6478e-4 0.0121061,-2.6478e-4 0.0105104,-0.0413312 -8.7765e-4,-0.0225861 8.184e-5,-0.041103 0.002132,-0.0411478 0.00205,-4.485e-5 0.00416,0.0191752 0.004688,0.0427113 l 9.6532e-4,0.0427926 0.0344504,0.003107 c 0.0189479,0.001708 0.0487992,0.003368 0.0663363,0.003686 l 0.0318857,5.7782e-4 -0.003941,-0.0358775 z m 0.16720305,0.004906 c -7.7801e-4,-0.0200221 -0.002725,-0.0273414 -0.007243,-0.0272425 -0.009476,2.0725e-4 -0.0108634,0.0189729 -0.002794,0.0377901 0.009831,0.0229249 0.0112797,0.0214017 0.0100382,-0.0105476 z m 0.11362263,0.0138017 c -3.5339e-4,-0.009094 -0.001466,-0.009539 -0.006154,-0.002453 -0.003148,0.004759 -0.005677,0.009816 -0.005622,0.0112367 5.525e-5,0.001422 0.002823,0.002524 0.006154,0.002452 0.003331,-7.285e-5 0.005859,-0.00513 0.005622,-0.0112367 z m 0.023048,-0.0304911 c -8.7766e-4,-0.0225865 -0.002353,-0.0410499 -0.003281,-0.0410295 -9.3192e-4,2.038e-5 -0.004929,0.0101261 -0.008888,0.0224577 -0.008772,0.0273143 -0.005394,0.0600573 0.006169,0.0598044 0.006598,-1.4432e-4 0.00739,-0.005577 0.006004,-0.0412326 z m 0.0296512,-0.001655 c 0.001662,-0.0731204 0.001627,-0.0733022 -0.0131655,-0.0677955 l -0.0129391,0.004816 8.7154e-4,0.052809 8.7153e-4,0.0528089 0.0117009,-2.5593e-4 c 0.011361,-2.4847e-4 0.0117291,-0.001482 0.0126586,-0.0423831 z m 0.0245075,0.0244447 c -0.003477,-0.0266502 -0.004241,-0.0549825 -0.002046,-0.0755205 0.001911,-0.017838 0.00106,-0.0209352 -0.00595,-0.0216737 -0.008923,-9.4231e-4 -0.0100219,0.006092 -0.0118535,0.075874 l -0.001049,0.0399204 0.0113389,-0.002468 c 0.008762,-0.001907 0.0109342,-0.005574 0.009558,-0.0161308 z m 0.0315971,-0.001141 c 0.001789,-0.009703 0.002602,-0.0343819 0.001807,-0.0548412 -0.001427,-0.0367317 -0.001597,-0.0371951 -0.0134974,-0.0369349 -0.0100036,2.1881e-4 -0.0129132,0.004437 -0.0171202,0.0248219 -0.004168,0.0201963 -0.004009,0.0299268 8.9119e-4,0.0547823 0.004879,0.0247307 0.007661,0.0301865 0.0153125,0.0300191 0.006324,-1.3833e-4 0.0104041,-0.005915 0.0126046,-0.0178471 z M 0.39573581,0.57977797 c -7.4895e-4,-0.0192743 -0.002785,-0.02734 -0.006878,-0.0272505 -0.008825,1.9302e-4 -0.009429,0.008284 -0.002436,0.0325918 0.008381,0.0291277 0.0106034,0.0278529 0.009313,-0.005341 z m 0.0523805,-6.3429e-4 c 0.005276,-0.0340223 0.001794,-0.048595 -0.0104385,-0.0436666 -0.0196232,0.007907 -0.0195701,0.007671 -0.009005,0.0399474 0.005549,0.0169486 0.0112507,0.0307899 0.0126729,0.0307587 0.001422,-3.112e-5 0.004468,-0.0121988 0.00677,-0.0270397 z m 0.0355389,-0.002997 c 0.0135173,-0.0375233 0.0105228,-0.0552029 -0.004793,-0.0282837 -0.006975,0.0122621 -0.0106538,0.0261616 -0.0101761,0.0384556 4.1146e-4,0.0105888 0.001571,0.0192344 0.002571,0.0192125 0.001006,-2.199e-5 0.00658,-0.0132448 0.0123951,-0.0293846 z m 0.37112216,-0.008237 c 0.0154097,-0.0289095 0.0156795,-0.0303872 0.0118967,-0.0651406 l -0.003872,-0.0355601 -0.0112823,0.0145559 c -0.006205,0.008005 -0.0124521,0.0211551 -0.0138821,0.0292207 -0.003872,0.0218431 -0.005096,0.0866465 -0.001634,0.0865707 0.001653,-3.616e-5 0.0101006,-0.013377 0.0187725,-0.0296462 z m -0.58600945,0.003102 c -0.001218,-0.001911 -0.004073,-0.001398 -0.006351,0.001141 -0.002884,0.003219 -0.002455,0.009128 0.001414,0.0194931 l 0.005548,0.0148761 8.0516e-4,-0.0160188 c 4.4437e-4,-0.00881 -1.9657e-4,-0.0175822 -0.001414,-0.0194931 z m 0.6726732,-0.0831349 c -9.2531e-4,-0.0238127 -0.002926,-0.0432683 -0.004452,-0.0432349 -0.001526,3.339e-5 -0.006709,0.006849 -0.0115277,0.0151466 -0.009044,0.0155797 -0.009845,0.0317273 -0.003767,0.0762586 l 0.003534,0.0259166 0.008943,-0.0153955 c 0.007575,-0.0130351 0.008685,-0.0220339 0.00726,-0.058691 z m -0.66849497,0.0500663 c -9.9957e-4,-0.0257236 -0.002992,-0.0275413 -0.0185341,-0.0169123 -0.009074,0.006205 -0.009536,0.008562 -0.004737,0.0240795 0.003483,0.0112637 0.00858,0.0171301 0.0147614,0.0169949 0.008099,-1.7713e-4 0.009309,-0.003611 0.00851,-0.024162 z m 0.016828,0.0173177 c -4.6019e-4,-0.0118429 -0.005984,-0.0278301 -0.009588,-0.0277513 -0.001981,4.333e-5 -0.003302,0.007779 -0.002937,0.0171896 4.1371e-4,0.0106469 0.00295,0.0170612 0.006718,0.0169787 0.003331,-7.283e-5 0.005944,-0.002959 0.005809,-0.006417 z m 0.0647525,-0.0295919 c 0.001321,-0.0427171 -0.001641,-0.0545512 -0.0135897,-0.0542898 -0.0220635,4.8257e-4 -0.022872,0.005975 -0.007193,0.048861 0.008049,0.0220159 0.0157776,0.040004 0.0171754,0.0399734 0.001397,-3.056e-5 0.00302,-0.0155754 0.003609,-0.0345446 z m 0.0126994,0.00919 c -0.002384,-0.0127194 -0.001961,-0.0166674 0.001425,-0.0133275 0.003314,0.003267 0.004475,-0.003901 0.003732,-0.0230356 -8.9772e-4,-0.0231024 -0.00242,-0.027752 -0.00905,-0.027607 -0.006969,1.5242e-4 -0.007367,0.002458 -0.003168,0.0183467 0.003271,0.012372 0.003718,0.0247147 0.001405,0.0386675 -0.004301,0.025919 -0.00437,0.0253222 0.002917,0.0251628 0.004616,-1.0096e-4 0.005294,-0.004599 0.002744,-0.0182074 z m 0.0294651,-1.937e-4 c 0.001601,-0.008586 0.002792,-0.009017 0.005632,-0.002034 0.001982,0.004872 0.004522,0.007167 0.005646,0.005099 0.003417,-0.006283 -0.0218615,-0.0741863 -0.0275708,-0.0740615 -0.003821,8.359e-5 -0.004874,0.0117348 -0.00373,0.0411828 0.001427,0.0367149 0.002463,0.0410474 0.009793,0.040887 0.004508,-9.859e-5 0.009111,-0.005081 0.0102286,-0.0110735 z m 0.10412075,-0.005126 c 0.001223,-0.003795 3.0937e-4,-0.006858 -0.002044,-0.006806 -0.00235,5.141e-5 -0.004154,0.003172 -0.004007,0.006939 1.4629e-4,0.003765 0.001068,0.006828 0.002044,0.006806 9.8069e-4,-2.145e-5 0.002781,-0.003142 0.004007,-0.006939 z m 0.40687685,-0.0527957 c 0.0194686,-0.0341784 0.0198198,-0.0356073 0.018311,-0.0744364 -8.4608e-4,-0.0217739 -0.00285,-0.0395603 -0.004465,-0.039525 -0.001605,3.511e-5 -0.0144235,0.0210405 -0.0284772,0.0466781 -0.0263254,0.0480251 -0.0290517,0.0616149 -0.0207722,0.10353554 0.003615,0.0183117 0.005307,0.0165806 0.035402,-0.0362521 z m -0.46717056,0.0500696 c 0.0071,-0.003448 0.008065,-0.009001 0.006602,-0.0379954 l -0.001717,-0.0339559 -0.014047,0.002289 c -0.0139459,0.002273 -0.0140454,0.002548 -0.0138704,0.0382479 1.8919e-4,0.0383639 0.002433,0.0414224 0.02303,0.0314153 z m 0.0244442,-0.0119032 c 0.002057,-0.004755 0.004521,-0.022018 0.005473,-0.0383638 0.001657,-0.028404 0.001316,-0.0296091 -0.007669,-0.0272332 -0.008321,0.002201 -0.009383,0.006624 -0.009225,0.0384459 1.7108e-4,0.0352721 0.003986,0.0443348 0.0114215,0.0271511 z m -0.20673117,-0.005162 c 0.014798,-0.0114315 0.0149219,-0.0118512 0.004899,-0.01655 -0.005656,-0.002652 -0.0152511,-0.005019 -0.0213217,-0.005263 -0.0103395,-4.1282e-4 -0.0107048,6.3442e-4 -0.005775,0.0165692 0.002894,0.009355 0.005657,0.0170017 0.006138,0.0169911 4.8622e-4,-1.063e-5 0.00771,-0.005297 0.0160599,-0.011748 z m 0.15422439,-0.019377 c -8.8654e-4,-0.0228148 -0.002408,-0.0273483 -0.009135,-0.0272011 -0.009677,2.1165e-4 -0.009804,0.007921 -5.6919e-4,0.0346037 0.009213,0.0266205 0.0109754,0.0252755 0.009706,-0.007403 z m 0.0772372,0.0128675 c -2.7427e-4,-0.007058 2.6184e-4,-0.022483 0.001194,-0.0342771 0.001317,-0.0167138 2.954e-4,-0.0214133 -0.004628,-0.0213057 -0.008027,1.7557e-4 -0.009124,0.004057 -0.0112085,0.0396338 -0.001552,0.0265272 -9.4879e-4,0.0291342 0.006718,0.0289665 0.005548,-1.2133e-4 0.008255,-0.004567 0.007927,-0.0130175 z m 0.0267353,-0.016854 c 0.017286,-0.0483846 0.0173044,-0.0466174 -4.8677e-4,-0.0462283 -0.0152709,3.3401e-4 -0.0163719,0.001819 -0.0193952,0.0261127 -0.007137,0.0573553 0.002934,0.0675472 0.0198821,0.0201159 z m 0.30169309,-0.035449 c -0.001857,-0.0243042 -0.004585,-0.046085 -0.006061,-0.0484015 -0.001474,-0.002316 -0.0416246,-0.005094 -0.0892219,-0.006173 l -0.0865403,-0.001961 -0.003415,0.0302 -0.003415,0.0302 7.8586e-4,-0.0291307 c 5.5517e-4,-0.0205727 -7.1405e-4,-0.0291252 -0.004311,-0.0291127 -0.002802,1.039e-5 -0.009021,-0.001653 -0.0138206,-0.003696 -0.008066,-0.003435 -0.008809,-2.6818e-4 -0.009832,0.0419486 -6.0976e-4,0.0251151 9.078e-5,0.047546 0.001557,0.0498464 0.001464,0.0023 0.0430862,0.005241 0.0924922,0.006536 0.0494059,0.001293 0.0977788,0.002708 0.10749522,0.003143 l 0.017666,7.9151e-4 -0.00338,-0.0441895 z m -0.072524,0.0182723 c -0.001829,-0.009282 -0.003469,-0.0245795 -0.003645,-0.0339947 -2.2432e-4,-0.0122947 0.001027,-0.009556 0.004451,0.009719 0.005248,0.029549 0.004524,0.0513142 -8.0842e-4,0.0242765 z m 0.14096377,-0.0596978 0.0478636,-0.0846849 4.8482e-4,-0.0512958 4.8482e-4,-0.0512956 -0.0165188,0.0297846 c -0.0157812,0.0284556 -0.0164053,0.0313698 -0.0139845,0.0652916 l 0.002535,0.0355066 -0.005656,-0.0319507 -0.005656,-0.0319507 -0.0377119,0.0527644 c -0.0409531,0.0572992 -0.0404157,0.0552871 -0.0324701,0.12156677 0.002089,0.0174342 0.005818,0.03153 0.008285,0.0313236 0.002465,-2.0384e-4 0.0260234,-0.0384834 0.0523484,-0.0850599 z m -0.5708919,0.0845792 c -1.1205e-4,-0.002883 -0.006312,-0.0281527 -0.0137772,-0.0561509 l -0.0135734,-0.0509062 -0.0187694,-0.001897 c -0.0118487,-0.001197 -0.0186607,8.9954e-4 -0.0184747,0.005687 2.7942e-4,0.007191 0.0229674,0.0894998 0.026114,0.0947387 0.001678,0.002795 0.0258674,0.0122812 0.0336128,0.0131824 0.002791,3.2916e-4 0.004979,-0.001771 0.004867,-0.004654 z m -0.0430314,-0.0680205 c -6.0948e-4,-0.015685 5.9412e-4,-0.0285557 0.002672,-0.0286011 0.002094,-4.58e-5 0.003185,0.0113889 0.002444,0.025635 -0.001853,0.0356103 -0.003805,0.0367421 -0.005117,0.002967 z m 0.29805658,0.05164 c 9.4605e-4,-0.005081 0.002328,-0.0266899 0.00307,-0.0480187 l 0.001347,-0.03878 -0.0121752,2.663e-4 c -0.0110416,2.415e-4 -0.0133136,0.004756 -0.0244044,0.0484853 l -0.012229,0.0482191 0.0213338,-4.6661e-4 c 0.0141341,-3.0913e-4 0.0219154,-0.003585 0.0230568,-0.009705 z m 0.0255266,-0.0393085 c -0.001467,-0.0377504 -0.00313,-0.0478831 -0.007838,-0.0477801 -0.003287,7.187e-5 -0.006567,0.00708 -0.00729,0.0155727 -7.2341e-4,0.008493 -0.002424,0.0301084 -0.003779,0.0480343 l -0.002465,0.0325924 0.011617,-2.5409e-4 0.0116169,-2.5408e-4 -0.001862,-0.0479109 z m -0.3267677,0.0396851 c -0.001296,-0.004681 -0.008076,-0.0276526 -0.0150602,-0.0510472 l -0.0126978,-0.0425362 -0.0196495,4.2977e-4 c -0.010807,2.3637e-4 -0.0195324,0.003441 -0.0193894,0.007122 1.4302e-4,0.003681 0.00582,0.0235335 0.0126141,0.0441166 0.0110034,0.0333345 0.0141666,0.0380671 0.0289452,0.0433115 0.0237509,0.008429 0.027901,0.008198 0.0252375,-0.001403 z m -0.0583763,-0.0359885 c -0.005083,-0.0140813 -0.00681,-0.0158444 -0.006576,-0.006712 6.5689e-4,0.0253081 -0.00812,0.003067 -0.00914,-0.0231718 l -0.00106,-0.0272734 -0.0291783,0.00265 -0.0291783,0.00265 -0.001565,0.0240101 -0.001565,0.02401 -0.001528,-0.025655 -0.001528,-0.025655 -0.0282479,6.1784e-4 -0.0282475,6.1782e-4 0.001463,0.0376442 0.001463,0.0376443 0.0333203,6.7e-7 c 0.0183263,-5.4e-7 0.0497404,0.001623 0.0698096,0.00361 0.0200694,0.001986 0.0369759,0.001475 0.0375705,-0.001141 5.9598e-4,-0.002613 -0.002023,-0.0133446 -0.005814,-0.0238483 z m 0.14595209,-0.002472 c 0.0136635,-0.0240655 0.0137348,-0.0244858 0.002198,-0.013016 -0.006557,0.00652 -0.0161185,0.0177119 -0.0212467,0.0248729 -0.007686,0.0107317 -0.008072,0.0130188 -0.002198,0.0130158 0.003922,-1.71e-6 0.0134807,-0.0111948 0.0212471,-0.0248725 z M 0.06665692,0.42600955 c -0.001383,-0.0355908 -0.00201,-0.0376321 -0.01155104,-0.0374235 -0.0093968,2.0553e-4 -0.0099984,0.002533 -0.008777,0.0339666 0.0011484,0.0295539 0.0024521,0.0340897 0.01050619,0.0365135 0.0050569,0.001523 0.0096654,0.003176 0.01024016,0.003678 5.7902e-4,4.9868e-4 3.8705e-4,-0.0160298 -4.1747e-4,-0.0367341 z m 0.25877217,0.02607 c 0.004187,-0.004795 0.003643,-0.012791 -0.003021,-0.0443554 -0.008835,-0.0418583 -0.008729,-0.041688 -0.0194643,-0.0313431 -0.007682,0.007402 -0.00759,0.008169 0.008923,0.0733786 0.0025,0.009871 0.006387,0.0105361 0.0135614,0.002321 z m 0.0906129,-0.0611126 c 0.0190884,-0.0362099 0.0337905,-0.065816 0.0326713,-0.0657916 -0.006736,1.4733e-4 -0.0573959,0.0673371 -0.073088,0.096937 l -0.0186734,0.035224 0.0121919,-2.6666e-4 c 0.0100972,-2.2085e-4 0.018155,-0.0115779 0.0468983,-0.0661029 z m 0.01041,0.0236247 c 0.008822,-0.0190989 0.0258967,-0.0472871 0.0379442,-0.0626408 0.0207079,-0.0263916 0.0538086,-0.0896453 0.0500227,-0.0955918 -0.007042,-0.0110617 -0.0773909,0.0958436 -0.10621549,0.16141074 -0.0122696,0.0279098 -0.0130087,0.0318799 -0.005907,0.0317245 0.004746,-1.038e-4 0.0147787,-0.0145998 0.0241564,-0.0349026 z m 0.0767137,-0.0674846 c 0.029626,-0.0519799 0.0529159,-0.0960007 0.051755,-0.0978242 -0.001162,-0.001824 -0.008601,0.00643 -0.0165329,0.01834 -0.0183742,0.0275896 -0.0268077,0.0287546 -0.009182,0.001267 0.009646,-0.0150426 0.0113126,-0.0205944 0.00621,-0.0206863 -0.006405,-1.1977e-4 -0.0183324,0.0201743 -0.0357514,0.060821 -0.003758,0.008768 -0.0187452,0.0322145 -0.033307,0.0521051 -0.0145614,0.0198904 -0.0305737,0.0462727 -0.0355829,0.0586271 l -0.009107,0.0224622 0.0138171,-3.022e-4 c 0.0122435,-2.6778e-4 0.0199518,-0.0110662 0.0676827,-0.0948112 z m -0.0338574,0.0888288 c 0.002335,-0.00282 0.006269,-0.0128763 0.008742,-0.0223496 0.004311,-0.0165065 0.004004,-0.016375 -0.007351,0.003154 -0.006516,0.0112085 -0.0118105,0.0213427 -0.0117648,0.0225207 1.4826e-4,0.003816 0.006018,0.001934 0.0103727,-0.003325 z m 0.46819016,-0.0495239 c -9.7518e-4,-0.0250962 -0.00349,-0.0444501 -0.005761,-0.0444003 -0.00228,4.987e-5 -0.003279,0.0194808 -0.002304,0.0445768 9.7518e-4,0.0250961 0.00349,0.0444501 0.005761,0.0444004 0.00228,-4.987e-5 0.003279,-0.0194808 0.002304,-0.0445769 z m -0.58401196,0.0320996 0.0156218,-0.0186915 -0.0041,-0.0346496 c -0.004637,-0.0391795 -0.005271,-0.0411757 -0.0110036,-0.0347804 -0.002271,0.002533 -0.003657,0.0167439 -0.003081,0.0315794 5.7647e-4,0.0148355 -4.0225e-4,0.0270054 -0.002176,0.0270442 -0.001774,3.88e-5 -0.002903,-0.0107254 -0.002506,-0.0239211 4.3982e-4,-0.0146848 -0.001018,-0.0239532 -0.00376,-0.0238933 -0.002767,6.052e-5 -0.004058,0.0177389 -0.003378,0.0463127 l 0.001098,0.046215 -0.004005,-0.0430735 c -0.003692,-0.0397101 -0.004537,-0.0423655 -0.0108014,-0.0340066 -0.006355,0.008479 -0.006297,0.0113899 8.9537e-4,0.044854 0.004227,0.019683 0.008562,0.0357681 0.009633,0.0357447 0.00107,-2.339e-5 0.008978,-0.008454 0.0175699,-0.0187341 z m 0.16228706,-0.0268753 c 0.0123572,-0.0231919 0.0383814,-0.0672979 0.0578312,-0.0980133 0.0194498,-0.0307153 0.0348033,-0.0565476 0.0341186,-0.0574048 -6.82e-4,-8.5303e-4 -0.009513,4.879e-4 -0.0196203,0.002985 -0.0164689,0.004074 -0.022427,0.011564 -0.0574348,0.0721985 -0.0214828,0.0372089 -0.0377362,0.0697313 -0.0361188,0.072272 0.001615,0.002541 0.009353,-0.00688 0.0171895,-0.0209355 0.0192879,-0.0345923 0.0253681,-0.0328243 0.006902,0.002006 -0.008083,0.0152472 -0.0179146,0.0277928 -0.0218461,0.0278787 -0.00393,8.597e-5 -0.009607,0.009458 -0.0126104,0.0208267 -0.009614,0.0363804 0.006515,0.0252404 0.031589,-0.021816 z m 0.025415,0.00687 c 0.00348,-0.0137515 0.025249,-0.0539569 0.0506741,-0.0935861 0.0342978,-0.0534588 0.0427038,-0.0699481 0.0364591,-0.0715197 -0.0112769,-0.002838 -0.1151462,0.16335423 -0.12054742,0.19287784 -5.1862e-4,0.00283 0.005416,0.003165 0.013187,7.4135e-4 0.0110534,-0.003447 0.0154556,-0.009652 0.0202277,-0.0285138 z m -0.12039109,-0.0572442 0.0386656,-0.0443224 -0.002803,-0.0356019 c -0.004159,-0.0528497 -0.006687,-0.0515367 -0.0109293,0.005677 l -0.002036,0.0274455 -0.003601,-0.0273221 c -0.002738,-0.0207826 -0.004251,-0.0244305 -0.006323,-0.0152416 -0.001499,0.006644 -0.001567,0.0228294 -1.4707e-4,0.0359669 0.001419,0.0131374 0.001124,0.0239179 -6.4577e-4,0.0239566 -0.001774,3.88e-5 -0.00371,-0.012431 -0.004304,-0.0277112 -6.5196e-4,-0.0167781 -0.002611,-0.0260709 -0.00495,-0.0234632 -0.002127,0.002374 -0.003339,0.0179966 -0.00269,0.0347143 6.4962e-4,0.0167179 -6.3412e-4,0.0304355 -0.002854,0.030484 -0.002217,4.85e-5 -0.004454,-0.0106918 -0.004966,-0.0238672 -9.7009e-4,-0.0249652 -0.005187,-0.0301461 -0.0120304,-0.0147871 -0.002958,0.006638 -0.001726,0.0147338 0.004677,0.0307237 0.004783,0.0119407 0.0073,0.0217407 0.00559,0.021778 -0.00171,3.74e-5 -0.006631,-0.00897 -0.0109404,-0.0200152 -0.0114184,-0.02927 -0.0202697,-0.0204341 -0.0162187,0.0161911 l 0.003133,0.0283251 -0.006069,-0.0254137 c -0.00448,-0.0187627 -0.007445,-0.0238476 -0.011332,-0.0194301 -0.00691,0.007857 6.8522e-4,0.0786772 0.007628,0.0711145 0.002463,-0.002685 0.0218788,-0.0248247 0.043145,-0.0492021 z m 0.32170482,0.0344487 c -0.001121,-0.00734 -0.008935,-0.0144038 -0.0215903,-0.0195165 -0.0217966,-0.008806 -0.032975,-0.0202251 -0.0133077,-0.0135942 0.0401814,0.0135474 0.0343448,0.0178082 0.0790603,-0.0577128 0.0226579,-0.0382675 0.0419557,-0.0683922 0.0428837,-0.066944 9.2809e-4,0.001446 -3.4489e-4,0.007196 -0.002829,0.0127722 -0.003798,0.008521 -0.00169,0.0112911 0.0132253,0.0173601 0.009759,0.003972 0.0262476,0.0110221 0.0366409,0.0156683 l 0.018897,0.008447 0.0223004,-0.0361634 0.0223012,-0.0361634 -0.0303045,-0.003749 c -0.016667,-0.002061 -0.052155,-0.004821 -0.0788621,-0.006132 -0.0267072,-0.001309 -0.0558889,-0.003949 -0.0648487,-0.00586 -0.0157904,-0.003371 -0.0167231,-0.002386 -0.0303847,0.0321307 -0.007752,0.0195843 -0.013458,0.0364412 -0.0126803,0.0374597 7.7768e-4,0.00102 0.0100427,0.003563 0.0205891,0.005654 0.0190534,0.003779 0.0192742,0.003584 0.034799,-0.0306597 0.008592,-0.0189545 0.0164274,-0.0332005 0.0174096,-0.0316579 0.0013,0.002041 -0.0374739,0.095769 -0.0527093,0.12741575 -6.1539e-4,0.001278 -0.0154643,-0.002699 -0.0329955,-0.00884 l -0.031875,-0.0111671 -0.0186127,0.0373697 -0.0186127,0.0373697 0.0361539,0.003052 c 0.0692278,0.005845 0.0672757,0.006041 0.0653537,-0.006539 z m 0.11032047,-0.040535 c 0.019779,-0.0277478 0.035964,-0.0523457 0.0359661,-0.0546622 2.8e-6,-0.002318 -0.0133652,-0.009178 -0.0297057,-0.0152465 -0.0163407,-0.00607 -0.0328029,-0.0124226 -0.0365827,-0.0141184 -0.008694,-0.003901 -0.0759293,0.10685005 -0.0752638,0.12397661 4.0881e-4,0.0105205 0.004764,0.0119198 0.0350453,0.0112576 l 0.0345789,-7.5628e-4 0.0359622,-0.0504505 z m -0.2583662,0.0204819 c 0.009702,-0.0156028 0.0174954,-0.0321123 0.0173176,-0.0366875 -4.0035e-4,-0.0103029 0.0371144,-0.0891825 0.0401483,-0.0844171 0.001209,0.001901 -0.006448,0.0209522 -0.0170176,0.0423394 -0.0188076,0.0380586 -0.0235037,0.0584299 -0.0134174,0.058202 0.002776,-6.279e-5 0.0173723,-0.0250426 0.0324407,-0.0555113 l 0.0273962,-0.0553972 -0.0149072,3.2605e-4 c -0.0125745,2.7502e-4 -0.0200526,0.00814 -0.0477899,0.0502638 -0.0180855,0.0274658 -0.0399952,0.0616737 -0.0486884,0.0760177 -0.0144904,0.0239097 -0.0150696,0.0263042 -0.006959,0.0287783 0.004866,0.001485 0.009968,0.003091 0.0113409,0.003577 0.001371,4.8135e-4 0.0104331,-0.0118876 0.0201354,-0.0274905 z m 0.0150995,0.0105542 c 0.00484,-0.00951 0.007596,-0.0191793 0.006128,-0.0214867 -0.002894,-0.004547 -0.0255625,0.0254445 -0.0256016,0.0338735 -5.464e-5,0.011117 0.0111344,0.004003 0.0194743,-0.0123868 z m 0.0302521,0.00306 c 0.006379,-0.0130463 0.006249,-0.013666 -0.003748,-0.0176371 -0.00746,-0.002962 -0.0125622,-6.5e-5 -0.0182258,0.0103503 -0.0102834,0.0189128 -0.009832,0.0213592 0.003881,0.0210593 0.006314,-1.3809e-4 0.0144562,-0.006337 0.0180928,-0.0137727 z m -0.5495597,-0.026509 c 0.0112219,-0.0174909 0.0202287,-0.0362953 0.0200153,-0.0417871 -2.1337e-4,-0.005491 0.0109276,-0.0227957 0.024758,-0.0384531 0.0138304,-0.0156575 0.0250942,-0.0298056 0.0250306,-0.0314404 -2.4573e-4,-0.006326 -0.043749,-0.0349477 -0.0459683,-0.0302432 -0.006277,0.0133061 -0.06182867,0.16636411 -0.06168867,0.16996706 5.3881e-4,0.0138661 0.02040981,-8.5677e-4 0.03785325,-0.0280431 z m 0.2199049,-0.005009 c 0.0120294,-0.016816 0.0235534,-0.0306112 0.0256086,-0.0306562 0.002054,-4.492e-5 0.0109124,-0.009506 0.0196838,-0.021024 0.008771,-0.0115183 0.0160521,-0.0182521 0.0161798,-0.0149649 2.4982e-4,0.006429 -0.0283302,0.0426742 -0.0337427,0.0427926 -0.001795,3.926e-5 -0.009195,0.009394 -0.0164437,0.0207901 -0.0246549,0.0387624 0.0586139,-0.0368714 0.11412387,-0.10365974 l 0.0505338,-0.060802 -0.017861,-0.001614 c -0.0157795,-0.001428 -0.0246604,0.005065 -0.0762152,0.0557141 -0.0320946,0.0315311 -0.0680416,0.0652743 -0.0798815,0.0749846 -0.0118401,0.00971 -0.0298228,0.0285369 -0.039962,0.0418373 -0.0101389,0.0133 -0.0193639,0.0227222 -0.0204998,0.0209376 -0.004391,-0.006896 0.0263309,-0.0414456 0.0846223,-0.0951643 0.0334047,-0.0307843 0.0691404,-0.0648793 0.0794127,-0.075767 l 0.0186773,-0.0197958 -0.0228998,-0.001534 -0.0228998,-0.001534 -0.0877554,0.0987176 c -0.0482654,0.0542947 -0.0886334,0.0973384 -0.0897064,0.0956528 -0.001072,-0.001685 0.0242328,-0.0325203 0.0562353,-0.0685213 0.0320029,-0.0360011 0.058112,-0.0673776 0.0580207,-0.0697255 -3.6743e-4,-0.009456 -0.0494853,-0.0208002 -0.0582197,-0.0134462 -0.0160536,0.0135166 -0.0413069,0.0505918 -0.0409374,0.0601018 2.0165e-4,0.005189 -0.003976,0.0145812 -0.009286,0.0208685 -0.005309,0.006288 -0.009746,0.009022 -0.009861,0.006077 -1.1455e-4,-0.002948 0.003273,-0.009282 0.007531,-0.0140809 0.004255,-0.004799 0.007563,-0.0132253 0.007349,-0.0187252 -5.1548e-4,-0.0132659 0.0574746,-0.0839899 0.0612507,-0.0747004 0.001574,0.003874 0.0142177,0.011183 0.0280947,0.0162398 0.0251386,0.009161 0.0252953,0.009121 0.0429492,-0.0107144 0.009745,-0.0109502 0.0176425,-0.0218634 0.0175497,-0.0242517 -9.272e-5,-0.002386 -0.0177958,-0.001949 -0.0393399,9.8016e-4 -0.0215443,0.002923 -0.0604429,0.005543 -0.0864413,0.005819 L 0.19875382,0.179091 0.18146642,0.2021627 c -0.009508,0.0126892 -0.0172175,0.0266971 -0.017132,0.0311284 8.493e-5,0.004431 -0.009589,0.0181045 -0.0214985,0.0303853 -0.0119097,0.0122809 -0.0224345,0.0273797 -0.0233881,0.0335526 -9.5263e-4,0.006173 -0.0105002,0.0258659 -0.0212147,0.0437618 l -0.0194805,0.0325378 0.10476442,-0.002591 0.10476434,-0.002591 0.0218719,-0.0305745 z m -0.1557592,0.007561 c 0.00594,-0.0114328 0.0126165,-0.0208267 0.0148358,-0.0208752 0.002221,-4.859e-5 -8.2444e-4,0.009267 -0.006766,0.0206987 -0.00594,0.0114328 -0.0126165,0.0208264 -0.0148358,0.020875 -0.002217,4.849e-5 8.2444e-4,-0.009267 0.006765,-0.0206984 z m 0.50491163,-0.0181931 c 0.005239,-0.0115827 0.0160905,-0.0270854 0.0241135,-0.0344511 0.016453,-0.0151043 0.0385842,-0.047221 0.0382615,-0.055525 -1.1726e-4,-0.003018 -0.007082,-0.006842 -0.0154756,-0.008499 -0.0144863,-0.002858 -0.0167504,-3.3314e-4 -0.0445139,0.0497274 -0.016088,0.0290061 -0.0291677,0.0548951 -0.0290653,0.0575307 1.0239e-4,0.002636 0.003418,0.006131 0.00737,0.007768 0.003952,0.001636 0.007768,0.003322 0.008484,0.003743 7.1403e-4,4.2504e-4 0.005587,-0.008711 0.0108263,-0.0202931 z m 0.09033,-0.0318763 0.009585,-0.0235603 -0.0195696,-0.0041 c -0.0160007,-0.003352 -0.0221993,-0.0013 -0.0339896,0.0112426 -0.007931,0.008438 -0.0135335,0.0167352 -0.0124499,0.0184372 0.001702,0.002673 0.0370229,0.0194168 0.0442674,0.0209839 0.001415,3.0882e-4 0.006885,-0.0100454 0.0121565,-0.0230039 z M 0.48284043,0.26899668 c 0.002762,-0.008549 -0.0121639,-0.060754 -0.0173357,-0.0606409 -0.001884,4.12e-5 -0.002701,0.0186632 -0.001818,0.041382 0.001507,0.0387919 0.002066,0.0408631 0.009174,0.0340136 0.004163,-0.004012 0.008653,-0.0106512 0.009979,-0.0147549 z m 0.0164783,-0.0151415 c 0.005316,-0.0120502 -0.0138487,-0.0681439 -0.0206785,-0.0605245 -0.003825,0.004264 -0.003221,0.0121618 0.002846,0.0373586 0.00801,0.0332652 0.011422,0.0376969 0.0178323,0.023166 z m 0.003542,-0.0531666 c -0.002514,-0.0264031 -0.007017,-0.0344214 -0.0115123,-0.0205001 -0.001792,0.00554 0.009818,0.0479379 0.0131036,0.047866 5.5915e-4,-1.222e-5 -1.5976e-4,-0.0123267 -0.001595,-0.0273657 z m 0.23128633,0.005457 c 0.00796,-0.0231039 0.007543,-0.0243817 -0.007844,-0.0240451 -0.008992,1.9668e-4 -0.016245,0.005844 -0.0219816,0.0171174 l -0.008561,0.0168238 0.0136571,0.00252 c 0.007511,0.001387 0.0148295,0.002986 0.0162621,0.003558 0.001434,5.6755e-4 0.005243,-0.006617 0.008467,-0.0159735 z m -0.0381471,-0.006257 0.008813,-0.0173182 -0.009307,2.0355e-4 c -0.008336,1.8234e-4 -0.0355492,0.0249913 -0.0352708,0.0321559 6.126e-5,0.001576 0.006151,0.002731 0.0135319,0.00257 0.009097,-1.9897e-4 0.0162591,-0.005872 0.0222333,-0.017612 z M 0.1769148,0.19732977 0.1883669,0.18023414 0.155074,0.18092692 c -0.0183108,3.8837e-4 -0.0331898,0.003357 -0.0330634,0.00661 2.5421e-4,0.006542 0.0278086,0.0261489 0.0373828,0.0266008 0.00334,1.5681e-4 0.0112228,-0.007406 0.0175215,-0.0168089 z" id="path4169" inkscape:connector-curvature="0" />
</svg>