<?xml version="1.0" encoding="utf-8" standalone="no"?>
<svg xmlns:dc="http://purl.org/dc/elements/1.1/" xmlns:cc="http://creativecommons.org/ns#" xmlns:rdf="http://www.w3.org/1999/02/22-rdf-syntax-ns#" xmlns:svg="http://www.w3.org/2000/svg" xmlns="http://www.w3.org/2000/svg" xmlns:sodipodi="http://sodipodi.sourceforge.net/DTD/sodipodi-0.dtd" xmlns:inkscape="http://www.inkscape.org/namespaces/inkscape" height="1" version="1.1" width="1" id="svg2" inkscape:version="0.91 r13725" sodipodi:docname="介形虫条带.svg">
  <metadata id="metadata8">
    <rdf:RDF>
      <cc:Work rdf:about="">
        <dc:format>image/svg+xml</dc:format>
        <dc:type rdf:resource="http://purl.org/dc/dcmitype/StillImage" />
        <dc:title />
      </cc:Work>
    </rdf:RDF>
  </metadata>
  <defs id="defs6">
    <pattern width="1" height="1" id="介形虫条带" patternContentUnits="objectBoundingBox">
      <path style="fill:#000000" d="M 0.04156545,0.76817874 C 0.08140612,0.74315408 0.13011789,0.74012863 0.17318919,0.72266012 0.42498793,0.64535827 0.67712886,0.56916875 0.92863345,0.49091066 0.63711449,0.41281282 0.34378977,0.34168022 0.05201209,0.26457362 c 0.01053486,-0.0209979 0.05132134,0.009926 0.07466714,0.008681 0.27343549,0.0695125 0.54688191,0.13898428 0.82011996,0.20926996 -0.003347,0.0298137 -0.0600784,0.0257854 -0.0853722,0.0406789 -0.27152338,0.084123 -0.54336852,0.16720718 -0.81551907,0.24927838 -0.0014475,-0.001434 -0.0028951,-0.002869 -0.0043424,-0.004303 z M 0.08817377,0.58232072 c 0.02804231,-0.0159248 0.05507851,-0.0591185 0.0072093,-0.0656424 -0.04922117,-0.0418118 0.03753952,-0.11268423 0.07191531,-0.0601423 0.029285,0.045871 -0.0226928,0.0927919 -0.0588777,0.11586306 -0.006633,0.003541 -0.01353277,0.006543 -0.02024693,0.009922 z m 0.17200047,1.7671e-4 c 0.0280244,-0.0155236 0.0557179,-0.0595492 0.007582,-0.0657273 -0.0504282,-0.0416861 0.0388308,-0.11340965 0.0722813,-0.0592323 0.0273648,0.0445679 -0.0214238,0.0912864 -0.057258,0.11335747 -0.007243,0.004403 -0.0147763,0.008345 -0.0226051,0.0116021 z m 0.17200047,-9.7989e-4 c 0.0269919,-0.012853 0.0575184,-0.058378 0.009657,-0.0637414 -0.0489367,-0.0398645 0.0283652,-0.11354591 0.0678672,-0.0639447 0.0337546,0.0515595 -0.0248081,0.10396863 -0.0683946,0.12425162 l -0.009129,0.003435 -1e-7,-10e-8 z m -0.0494554,-0.0843619 0.001154,0 -0.001154,0 z" id="path4215" inkscape:connector-curvature="0" />
    </pattern>
  </defs>
  <sodipodi:namedview pagecolor="#ffffff" bordercolor="#666666" borderopacity="1" objecttolerance="10" gridtolerance="10" guidetolerance="10" inkscape:pageopacity="0" inkscape:pageshadow="2" inkscape:window-width="1680" inkscape:window-height="988" id="namedview4" showgrid="false" inkscape:zoom="256" inkscape:cx="0.16992188" inkscape:cy="0.54882812" inkscape:window-x="-8" inkscape:window-y="-8" inkscape:window-maximized="1" inkscape:current-layer="svg2" />
  <path style="fill:#000000" d="M 0.04156545,0.76817874 C 0.08140612,0.74315408 0.13011789,0.74012863 0.17318919,0.72266012 0.42498793,0.64535827 0.67712886,0.56916875 0.92863345,0.49091066 0.63711449,0.41281282 0.34378977,0.34168022 0.05201209,0.26457362 c 0.01053486,-0.0209979 0.05132134,0.009926 0.07466714,0.008681 0.27343549,0.0695125 0.54688191,0.13898428 0.82011996,0.20926996 -0.003347,0.0298137 -0.0600784,0.0257854 -0.0853722,0.0406789 -0.27152338,0.084123 -0.54336852,0.16720718 -0.81551907,0.24927838 -0.0014475,-0.001434 -0.0028951,-0.002869 -0.0043424,-0.004303 z M 0.08817377,0.58232072 c 0.02804231,-0.0159248 0.05507851,-0.0591185 0.0072093,-0.0656424 -0.04922117,-0.0418118 0.03753952,-0.11268423 0.07191531,-0.0601423 0.029285,0.045871 -0.0226928,0.0927919 -0.0588777,0.11586306 -0.006633,0.003541 -0.01353277,0.006543 -0.02024693,0.009922 z m 0.17200047,1.7671e-4 c 0.0280244,-0.0155236 0.0557179,-0.0595492 0.007582,-0.0657273 -0.0504282,-0.0416861 0.0388308,-0.11340965 0.0722813,-0.0592323 0.0273648,0.0445679 -0.0214238,0.0912864 -0.057258,0.11335747 -0.007243,0.004403 -0.0147763,0.008345 -0.0226051,0.0116021 z m 0.17200047,-9.7989e-4 c 0.0269919,-0.012853 0.0575184,-0.058378 0.009657,-0.0637414 -0.0489367,-0.0398645 0.0283652,-0.11354591 0.0678672,-0.0639447 0.0337546,0.0515595 -0.0248081,0.10396863 -0.0683946,0.12425162 l -0.009129,0.003435 -1e-7,-10e-8 z m -0.0494554,-0.0843619 0.001154,0 -0.001154,0 z" id="path4215" inkscape:connector-curvature="0" />
</svg>