<?xml version="1.0" encoding="utf-8" standalone="no"?>
<svg xmlns:dc="http://purl.org/dc/elements/1.1/" xmlns:cc="http://creativecommons.org/ns#" xmlns:rdf="http://www.w3.org/1999/02/22-rdf-syntax-ns#" xmlns:svg="http://www.w3.org/2000/svg" xmlns="http://www.w3.org/2000/svg" xmlns:sodipodi="http://sodipodi.sourceforge.net/DTD/sodipodi-0.dtd" xmlns:inkscape="http://www.inkscape.org/namespaces/inkscape" height="1" version="1.1" width="1" id="svg2" inkscape:version="0.91 r13725" sodipodi:docname="鸟眼构造.svg">
  <metadata id="metadata8">
    <rdf:RDF>
      <cc:Work rdf:about="">
        <dc:format>image/svg+xml</dc:format>
        <dc:type rdf:resource="http://purl.org/dc/dcmitype/StillImage" />
        <dc:title></dc:title>
      </cc:Work>
    </rdf:RDF>
  </metadata>
  <defs id="defs6">
    <pattern width="1" height="1" id="鸟眼构造" patternContentUnits="objectBoundingBox">
      <path style="fill:#000000" d="M 0.41973884,0.64175637 C 0.37289144,0.63289537 0.31586036,0.63606237 0.27332573,0.59724487 0.23323143,0.57020897 0.19144543,0.54633697 0.15292832,0.51628267 0.11893522,0.51636366 0.03717748,0.49884017 0.07096715,0.44244177 0.11509934,0.43894577 0.15153925,0.42023567 0.1956082,0.41127637 0.232076,0.39240467 0.27027,0.37997627 0.30805556,0.36601587 c 0.0461773,-0.0247195 0.0995163,-0.015686 0.14895953,-0.021027 0.0643797,-8.9131e-4 0.1288688,-0.0146414 0.19271079,0.001046 0.053683,0.009728 0.1055954,0.0298419 0.15797263,0.0464596 0.0383095,0.0166386 0.091772,0.0444879 0.0887104,0.10188046 -0.0129576,0.0624604 -0.0672382,0.0956782 -0.11686189,0.10644275 -0.12142847,0.0421835 -0.24928533,0.036805 -0.35980815,0.0409362 z m 0.27131275,-0.0704126 c 0.0474504,-0.0214437 0.10491558,-0.0190313 0.14500424,-0.0621707 0.0277249,-0.0595174 -0.0471693,-0.0663421 -0.0781507,-0.0767567 -0.0402183,-0.0164822 -0.0815856,-0.0360525 -0.12422225,-0.0402649 -0.0564162,-8.2718e-4 -0.11400697,-0.005677 -0.16963295,0.006596 -0.0419051,0.0149217 -0.0875013,0.003805 -0.13046213,0.0147669 -0.0467717,0.009443 -0.0939824,0.0284905 -0.13114825,0.0632589 0.005491,0.0239286 0.0534743,0.050886 0.079276,0.0730026 0.0552874,0.0406266 0.1215748,0.0307302 0.18345034,0.0324897 0.075162,-0.002056 0.15147616,0.001652 0.22588571,-0.010922 z M 0.5129058,0.51445048 c -0.0229173,-0.0459759 0.0321734,-0.0945955 0.0491453,-0.0330414 -6.8017e-4,0.0238174 -0.0311389,0.0485953 -0.0491453,0.0330412 z" id="path4400" inkscape:connector-curvature="0" sodipodi:nodetypes="ccccccccccccccccccccccccc" />
    </pattern>
  </defs>
  <sodipodi:namedview pagecolor="#ffffff" bordercolor="#666666" borderopacity="1" objecttolerance="10" gridtolerance="10" guidetolerance="10" inkscape:pageopacity="0" inkscape:pageshadow="2" inkscape:window-width="1680" inkscape:window-height="988" id="namedview4" showgrid="false" inkscape:zoom="256" inkscape:cx="1.6265802" inkscape:cy="0.033887088" inkscape:window-x="-8" inkscape:window-y="-8" inkscape:window-maximized="1" inkscape:current-layer="svg2" />
  <path style="fill:#000000" d="M 0.41973884,0.64175637 C 0.37289144,0.63289537 0.31586036,0.63606237 0.27332573,0.59724487 0.23323143,0.57020897 0.19144543,0.54633697 0.15292832,0.51628267 0.11893522,0.51636366 0.03717748,0.49884017 0.07096715,0.44244177 0.11509934,0.43894577 0.15153925,0.42023567 0.1956082,0.41127637 0.232076,0.39240467 0.27027,0.37997627 0.30805556,0.36601587 c 0.0461773,-0.0247195 0.0995163,-0.015686 0.14895953,-0.021027 0.0643797,-8.9131e-4 0.1288688,-0.0146414 0.19271079,0.001046 0.053683,0.009728 0.1055954,0.0298419 0.15797263,0.0464596 0.0383095,0.0166386 0.091772,0.0444879 0.0887104,0.10188046 -0.0129576,0.0624604 -0.0672382,0.0956782 -0.11686189,0.10644275 -0.12142847,0.0421835 -0.24928533,0.036805 -0.35980815,0.0409362 z m 0.27131275,-0.0704126 c 0.0474504,-0.0214437 0.10491558,-0.0190313 0.14500424,-0.0621707 0.0277249,-0.0595174 -0.0471693,-0.0663421 -0.0781507,-0.0767567 -0.0402183,-0.0164822 -0.0815856,-0.0360525 -0.12422225,-0.0402649 -0.0564162,-8.2718e-4 -0.11400697,-0.005677 -0.16963295,0.006596 -0.0419051,0.0149217 -0.0875013,0.003805 -0.13046213,0.0147669 -0.0467717,0.009443 -0.0939824,0.0284905 -0.13114825,0.0632589 0.005491,0.0239286 0.0534743,0.050886 0.079276,0.0730026 0.0552874,0.0406266 0.1215748,0.0307302 0.18345034,0.0324897 0.075162,-0.002056 0.15147616,0.001652 0.22588571,-0.010922 z M 0.5129058,0.51445048 c -0.0229173,-0.0459759 0.0321734,-0.0945955 0.0491453,-0.0330414 -6.8017e-4,0.0238174 -0.0311389,0.0485953 -0.0491453,0.0330412 z" id="path4400" inkscape:connector-curvature="0" sodipodi:nodetypes="ccccccccccccccccccccccccc" />
</svg>