<?xml version="1.0" encoding="utf-8" standalone="no"?>
<svg xmlns:dc="http://purl.org/dc/elements/1.1/" xmlns:cc="http://creativecommons.org/ns#" xmlns:rdf="http://www.w3.org/1999/02/22-rdf-syntax-ns#" xmlns:svg="http://www.w3.org/2000/svg" xmlns="http://www.w3.org/2000/svg" xmlns:sodipodi="http://sodipodi.sourceforge.net/DTD/sodipodi-0.dtd" xmlns:inkscape="http://www.inkscape.org/namespaces/inkscape" height="1" version="1.1" width="1" id="svg2" inkscape:version="0.91 r13725" sodipodi:docname="变质岩.svg">
  <metadata id="metadata8">
    <rdf:RDF>
      <cc:Work rdf:about="">
        <dc:format>image/svg+xml</dc:format>
        <dc:type rdf:resource="http://purl.org/dc/dcmitype/StillImage" />
        <dc:title></dc:title>
      </cc:Work>
    </rdf:RDF>
  </metadata>
  <defs id="defs6">
    <pattern width="1" height="1" id="变质岩" patternContentUnits="objectBoundingBox">
      <path style="fill:#000000" d="M 0.03294508,0.97431304 C 0.12702143,0.80005184 0.23758864,0.64013373 0.30023875,0.43402153 0.35030181,0.28629234 0.41686568,0.15157066 0.49383464,0.03203186 0.51495938,-0.01635891 0.53565138,0.03044578 0.50859801,0.05812718 0.44848683,0.17077036 0.39055219,0.28729973 0.34012324,0.41035719 0.29390572,0.53443541 0.24313846,0.65491917 0.1849072,0.76766453 0.14498867,0.84440474 0.10291498,0.91998164 0.05478607,0.98554051 0.04336504,0.9986312 0.00702175,1.0166832 0.03294501,0.97431336 Z M 0.19001222,0.89657297 C 0.27173725,0.74202348 0.3374742,0.57125679 0.40139215,0.40000232 0.45643827,0.26485194 0.52939648,0.14755191 0.6073127,0.04051334 0.6172587,0.01248415 0.6635241,-0.00245621 0.637247,0.04263317 0.5822871,0.11877657 0.5404341,0.21218025 0.49327839,0.29848836 0.42599089,0.42591658 0.36576416,0.56128682 0.31479398,0.70423351 c -0.0385555,0.0918068 -0.0818748,0.17961532 -0.12780716,0.26346535 -0.009599,0.0277989 -0.0509266,0.0451998 -0.0293101,-0.003524 0.009858,-0.0234634 0.0212846,-0.0453589 0.0323354,-0.0675988 z m 0.0646861,0.077642 C 0.33919107,0.79571393 0.40454435,0.59960885 0.48517416,0.41763171 0.55406147,0.27425256 0.63715705,0.14626655 0.7247876,0.02801937 0.75922522,-0.0132008 0.75205233,0.04505432 0.72993883,0.06696941 0.63711158,0.22713638 0.5248605,0.36716466 0.45985725,0.5584701 0.41111582,0.69486833 0.35391986,0.82472608 0.29062889,0.9473479 c -0.004485,0.0216415 -0.0661911,0.095156 -0.0359309,0.0268673 z m 0.10443477,-0.007764 C 0.41694762,0.83435422 0.46400575,0.69299934 0.51845731,0.5580897 0.60048374,0.37297613 0.71215796,0.22256528 0.81990612,0.07089595 0.83377633,0.04931876 0.89209226,-0.02159297 0.85938422,0.04692436 0.74036556,0.24938998 0.59181105,0.42125493 0.51126061,0.6671296 0.46824261,0.77985136 0.42853071,0.89764269 0.37024438,0.99531153 0.35208658,1.0159691 0.34674538,0.98315564 0.35913318,0.96645038 Z m 0.0831121,0.0223384 C 0.46323217,0.92992572 0.49883199,0.88573879 0.51922012,0.8259691 0.57912292,0.67915656 0.62779031,0.51819159 0.71412969,0.39932999 0.79382374,0.27698671 0.87222319,0.15230241 0.95355237,0.03260151 0.9654087,0.01080022 1.0037556,-0.00132648 0.9791116,0.04067761 0.87615124,0.22480981 0.75781935,0.38857719 0.65153497,0.56822369 c -0.0342025,0.068633 -0.0464532,0.1579785 -0.089129,0.21792985 -0.0214627,0.079645 -0.0601933,0.14531256 -0.0982059,0.20875203 -0.006585,0.008938 -0.019595,0.009044 -0.021955,-0.006116 z M 0.55407942,0.96793007 C 0.62008326,0.8600468 0.6615616,0.72683853 0.71494736,0.60632038 0.78943046,0.4523897 0.8736635,0.30835307 0.96594772,0.17733442 c 0.046642,-0.0319017 -0.006416,0.05853 -0.0181347,0.0760078 -0.0990481,0.1551908 -0.196185,0.31728214 -0.26120867,0.50943679 -0.0350549,0.0822538 -0.0662556,0.1750727 -0.12160385,0.23158443 -0.0413257,0.020033 -0.0320562,0.006052 -0.0109208,-0.0264335 z M 0.66689051,0.95092227 C 0.74991981,0.78926384 0.80189618,0.59647813 0.89556044,0.44607193 0.92195504,0.40027651 0.95009354,0.3563368 0.98186254,0.31852873 0.99887014,0.39039483 0.92923624,0.42666887 0.91058494,0.48477086 0.86676104,0.55742865 0.82292234,0.63229472 0.79668058,0.72259345 0.76158918,0.81363675 0.72355248,0.90260131 0.68394763,0.98929528 0.65212573,1.022437 0.63774553,0.978843 0.66689083,0.95092194 l 0,0 z M 0.80342738,0.84078444 c 0.0359188,-0.1082108 0.0773631,-0.21497903 0.1380767,-0.29724262 0.007639,-0.028809 0.0596693,-0.0865032 0.0428051,-0.0210204 -0.0297566,0.0561917 -0.0642308,0.10627283 -0.0874418,0.17014086 -0.0394936,0.0887644 -0.0715472,0.18468411 -0.10829599,0.27537782 -0.024396,0.0501871 -0.0404703,0.009332 -0.0181302,-0.0303558 0.0102379,-0.0328501 0.0217723,-0.0647651 0.0329859,-0.0969 z m 0.0615627,0.087906 c 0.0323844,-0.10670993 0.0602286,-0.22212765 0.11946018,-0.30404543 0.0173489,0.0631676 -0.0333489,0.10867439 -0.0447491,0.16506403 -0.0238937,0.0688989 -0.0378159,0.14711958 -0.0740432,0.20531516 -0.0349133,0.0216886 -0.002777,-0.0503726 -6.683e-4,-0.0663337 z m 0.0925537,-0.0121344 c 0.003578,-0.0288605 0.0346521,-0.0964906 0.0315975,-0.0262544 0.006015,0.0378826 -0.031038,0.14524581 -0.0492028,0.0873634 0.004372,-0.0212522 0.0115252,-0.0408849 0.0176054,-0.0611092 z M 0.01054339,0.82604609 C 0.038855,0.74864875 0.09225925,0.70083583 0.12364891,0.62645567 0.20790081,0.45795945 0.25685687,0.25582811 0.35090676,0.09714655 0.37075641,0.07038353 0.39958054,-0.00871735 0.42743395,0.02023855 0.41185046,0.07237522 0.3768636,0.10638058 0.35513255,0.15340751 0.283872,0.29117829 0.23889363,0.45355311 0.16982363,0.59363515 0.12642388,0.68521228 0.07852381,0.775529 0.01832335,0.84382255 0.01197754,0.84501878 0.00874276,0.83346193 0.01054374,0.82604591 Z M 0.01079155,0.65428196 C 0.03215557,0.57062521 0.08519767,0.51720971 0.11183217,0.43779616 0.16960592,0.29891963 0.20735378,0.13872818 0.28607189,0.02089939 0.3292625,-0.01495705 0.29748901,0.06556588 0.28105077,0.0863906 0.2478104,0.14643037 0.22458991,0.21574822 0.20257682,0.28554449 0.15546501,0.41591952 0.09591742,0.5363291 0.030515,0.64777538 0.0264883,0.65453798 0.01493839,0.67109679 0.01079223,0.65428194 Z M 0.01054339,0.48715797 C 0.03207569,0.38601196 0.06711596,0.29263686 0.0947198,0.19510515 0.11629963,0.1323084 0.13482622,0.06319065 0.17081495,0.0150447 c 0.049908,-0.02256939 -2.5267e-4,0.04629396 -0.008267,0.07417146 -0.0514119,0.13180248 -0.06999884,0.29233969 -0.14432223,0.40355729 -0.00255,0.003866 -0.00997195,0.002486 -0.007682,-0.005616 z m 0.0043215,-0.2953808 C 0.02151829,0.13026483 0.02505875,0.02021168 0.07568175,0.01199209 0.06674575,0.07076806 0.04098382,0.12958588 0.03088752,0.19201702 0.02277022,0.22267385 0.0055533,0.31724314 0.01237487,0.24083845 c 8.3146e-4,-0.0163538 0.0016574,-0.0327074 0.0024888,-0.0490613 z" id="path4738" inkscape:connector-curvature="0" />
    </pattern>
  </defs>
  <sodipodi:namedview pagecolor="#ffffff" bordercolor="#666666" borderopacity="1" objecttolerance="10" gridtolerance="10" guidetolerance="10" inkscape:pageopacity="0" inkscape:pageshadow="2" inkscape:window-width="1680" inkscape:window-height="988" id="namedview4" showgrid="false" inkscape:zoom="256" inkscape:cx="0.5" inkscape:cy="0.5" inkscape:window-x="-8" inkscape:window-y="-8" inkscape:window-maximized="1" inkscape:current-layer="svg2" />
  <path style="fill:#000000" d="M 0.03294508,0.97431304 C 0.12702143,0.80005184 0.23758864,0.64013373 0.30023875,0.43402153 0.35030181,0.28629234 0.41686568,0.15157066 0.49383464,0.03203186 0.51495938,-0.01635891 0.53565138,0.03044578 0.50859801,0.05812718 0.44848683,0.17077036 0.39055219,0.28729973 0.34012324,0.41035719 0.29390572,0.53443541 0.24313846,0.65491917 0.1849072,0.76766453 0.14498867,0.84440474 0.10291498,0.91998164 0.05478607,0.98554051 0.04336504,0.9986312 0.00702175,1.0166832 0.03294501,0.97431336 Z M 0.19001222,0.89657297 C 0.27173725,0.74202348 0.3374742,0.57125679 0.40139215,0.40000232 0.45643827,0.26485194 0.52939648,0.14755191 0.6073127,0.04051334 0.6172587,0.01248415 0.6635241,-0.00245621 0.637247,0.04263317 0.5822871,0.11877657 0.5404341,0.21218025 0.49327839,0.29848836 0.42599089,0.42591658 0.36576416,0.56128682 0.31479398,0.70423351 c -0.0385555,0.0918068 -0.0818748,0.17961532 -0.12780716,0.26346535 -0.009599,0.0277989 -0.0509266,0.0451998 -0.0293101,-0.003524 0.009858,-0.0234634 0.0212846,-0.0453589 0.0323354,-0.0675988 z m 0.0646861,0.077642 C 0.33919107,0.79571393 0.40454435,0.59960885 0.48517416,0.41763171 0.55406147,0.27425256 0.63715705,0.14626655 0.7247876,0.02801937 0.75922522,-0.0132008 0.75205233,0.04505432 0.72993883,0.06696941 0.63711158,0.22713638 0.5248605,0.36716466 0.45985725,0.5584701 0.41111582,0.69486833 0.35391986,0.82472608 0.29062889,0.9473479 c -0.004485,0.0216415 -0.0661911,0.095156 -0.0359309,0.0268673 z m 0.10443477,-0.007764 C 0.41694762,0.83435422 0.46400575,0.69299934 0.51845731,0.5580897 0.60048374,0.37297613 0.71215796,0.22256528 0.81990612,0.07089595 0.83377633,0.04931876 0.89209226,-0.02159297 0.85938422,0.04692436 0.74036556,0.24938998 0.59181105,0.42125493 0.51126061,0.6671296 0.46824261,0.77985136 0.42853071,0.89764269 0.37024438,0.99531153 0.35208658,1.0159691 0.34674538,0.98315564 0.35913318,0.96645038 Z m 0.0831121,0.0223384 C 0.46323217,0.92992572 0.49883199,0.88573879 0.51922012,0.8259691 0.57912292,0.67915656 0.62779031,0.51819159 0.71412969,0.39932999 0.79382374,0.27698671 0.87222319,0.15230241 0.95355237,0.03260151 0.9654087,0.01080022 1.0037556,-0.00132648 0.9791116,0.04067761 0.87615124,0.22480981 0.75781935,0.38857719 0.65153497,0.56822369 c -0.0342025,0.068633 -0.0464532,0.1579785 -0.089129,0.21792985 -0.0214627,0.079645 -0.0601933,0.14531256 -0.0982059,0.20875203 -0.006585,0.008938 -0.019595,0.009044 -0.021955,-0.006116 z M 0.55407942,0.96793007 C 0.62008326,0.8600468 0.6615616,0.72683853 0.71494736,0.60632038 0.78943046,0.4523897 0.8736635,0.30835307 0.96594772,0.17733442 c 0.046642,-0.0319017 -0.006416,0.05853 -0.0181347,0.0760078 -0.0990481,0.1551908 -0.196185,0.31728214 -0.26120867,0.50943679 -0.0350549,0.0822538 -0.0662556,0.1750727 -0.12160385,0.23158443 -0.0413257,0.020033 -0.0320562,0.006052 -0.0109208,-0.0264335 z M 0.66689051,0.95092227 C 0.74991981,0.78926384 0.80189618,0.59647813 0.89556044,0.44607193 0.92195504,0.40027651 0.95009354,0.3563368 0.98186254,0.31852873 0.99887014,0.39039483 0.92923624,0.42666887 0.91058494,0.48477086 0.86676104,0.55742865 0.82292234,0.63229472 0.79668058,0.72259345 0.76158918,0.81363675 0.72355248,0.90260131 0.68394763,0.98929528 0.65212573,1.022437 0.63774553,0.978843 0.66689083,0.95092194 l 0,0 z M 0.80342738,0.84078444 c 0.0359188,-0.1082108 0.0773631,-0.21497903 0.1380767,-0.29724262 0.007639,-0.028809 0.0596693,-0.0865032 0.0428051,-0.0210204 -0.0297566,0.0561917 -0.0642308,0.10627283 -0.0874418,0.17014086 -0.0394936,0.0887644 -0.0715472,0.18468411 -0.10829599,0.27537782 -0.024396,0.0501871 -0.0404703,0.009332 -0.0181302,-0.0303558 0.0102379,-0.0328501 0.0217723,-0.0647651 0.0329859,-0.0969 z m 0.0615627,0.087906 c 0.0323844,-0.10670993 0.0602286,-0.22212765 0.11946018,-0.30404543 0.0173489,0.0631676 -0.0333489,0.10867439 -0.0447491,0.16506403 -0.0238937,0.0688989 -0.0378159,0.14711958 -0.0740432,0.20531516 -0.0349133,0.0216886 -0.002777,-0.0503726 -6.683e-4,-0.0663337 z m 0.0925537,-0.0121344 c 0.003578,-0.0288605 0.0346521,-0.0964906 0.0315975,-0.0262544 0.006015,0.0378826 -0.031038,0.14524581 -0.0492028,0.0873634 0.004372,-0.0212522 0.0115252,-0.0408849 0.0176054,-0.0611092 z M 0.01054339,0.82604609 C 0.038855,0.74864875 0.09225925,0.70083583 0.12364891,0.62645567 0.20790081,0.45795945 0.25685687,0.25582811 0.35090676,0.09714655 0.37075641,0.07038353 0.39958054,-0.00871735 0.42743395,0.02023855 0.41185046,0.07237522 0.3768636,0.10638058 0.35513255,0.15340751 0.283872,0.29117829 0.23889363,0.45355311 0.16982363,0.59363515 0.12642388,0.68521228 0.07852381,0.775529 0.01832335,0.84382255 0.01197754,0.84501878 0.00874276,0.83346193 0.01054374,0.82604591 Z M 0.01079155,0.65428196 C 0.03215557,0.57062521 0.08519767,0.51720971 0.11183217,0.43779616 0.16960592,0.29891963 0.20735378,0.13872818 0.28607189,0.02089939 0.3292625,-0.01495705 0.29748901,0.06556588 0.28105077,0.0863906 0.2478104,0.14643037 0.22458991,0.21574822 0.20257682,0.28554449 0.15546501,0.41591952 0.09591742,0.5363291 0.030515,0.64777538 0.0264883,0.65453798 0.01493839,0.67109679 0.01079223,0.65428194 Z M 0.01054339,0.48715797 C 0.03207569,0.38601196 0.06711596,0.29263686 0.0947198,0.19510515 0.11629963,0.1323084 0.13482622,0.06319065 0.17081495,0.0150447 c 0.049908,-0.02256939 -2.5267e-4,0.04629396 -0.008267,0.07417146 -0.0514119,0.13180248 -0.06999884,0.29233969 -0.14432223,0.40355729 -0.00255,0.003866 -0.00997195,0.002486 -0.007682,-0.005616 z m 0.0043215,-0.2953808 C 0.02151829,0.13026483 0.02505875,0.02021168 0.07568175,0.01199209 0.06674575,0.07076806 0.04098382,0.12958588 0.03088752,0.19201702 0.02277022,0.22267385 0.0055533,0.31724314 0.01237487,0.24083845 c 8.3146e-4,-0.0163538 0.0016574,-0.0327074 0.0024888,-0.0490613 z" id="path4738" inkscape:connector-curvature="0" />
</svg>