<?xml version="1.0" encoding="utf-8" standalone="no"?>
<svg xmlns:dc="http://purl.org/dc/elements/1.1/" xmlns:cc="http://creativecommons.org/ns#" xmlns:rdf="http://www.w3.org/1999/02/22-rdf-syntax-ns#" xmlns:svg="http://www.w3.org/2000/svg" xmlns="http://www.w3.org/2000/svg" xmlns:sodipodi="http://sodipodi.sourceforge.net/DTD/sodipodi-0.dtd" xmlns:inkscape="http://www.inkscape.org/namespaces/inkscape" height="1" version="1.1" width="1" id="svg2" inkscape:version="0.91 r13725" sodipodi:docname="Ls_laminateSandSheet.svg">
  <metadata id="metadata8">
    <rdf:RDF>
      <cc:Work rdf:about="">
        <dc:format>image/svg+xml</dc:format>
        <dc:type rdf:resource="http://purl.org/dc/dcmitype/StillImage" />
        <dc:title></dc:title>
      </cc:Work>
    </rdf:RDF>
  </metadata>
  <defs id="defs6">
    <pattern width="1" height="1" id="Ls_laminateSandSheet" patternContentUnits="objectBoundingBox">
      <path style="fill:#000000" d="m 0.0034819,0.69674197 0,-0.0183861 0.49897593,0 0.49897607,0 0,0.0183861 0,0.0183861 -0.49897607,0 -0.49897593,0 0,-0.0183861 z m 0,-0.0496426 c 0,-0.00488 0.05746393,-0.005516 0.49897593,-0.005516 0.44151206,0 0.49897607,6.3378e-4 0.49897607,0.005516 0,0.004881 -0.057464,0.005516 -0.49897607,0.005516 -0.44151197,0 -0.49897593,-6.3648e-4 -0.49897593,-0.005516 z m 0,-0.0312564 c 0,-0.007325 0.0020205,-0.007354 0.49897593,-0.007354 0.49695382,0 0.49897607,2.432e-5 0.49897607,0.007354 0,0.007325 -0.002023,0.007354 -0.49897607,0.007354 -0.4969537,0 -0.49897593,-2.427e-5 -0.49897593,-0.007354 z m 0,-0.0312564 c 0,-0.004881 0.05746393,-0.005516 0.49897593,-0.005516 0.44151206,0 0.49897607,6.3377e-4 0.49897607,0.005516 0,0.004881 -0.057464,0.005516 -0.49897607,0.005516 -0.44151197,0 -0.49897593,-6.3378e-4 -0.49897593,-0.005516 z m 0,-0.0330951 c 0,-0.004881 0.05746393,-0.005516 0.49897593,-0.005516 0.44151206,0 0.49897607,6.3378e-4 0.49897607,0.005516 0,0.004881 -0.057464,0.005516 -0.49897607,0.005516 -0.44151197,0 -0.49897593,-6.3376e-4 -0.49897593,-0.005516 z m 0,-0.0294178 c 0,-0.004881 0.05746393,-0.005516 0.49897593,-0.005516 0.44151206,0 0.49897607,6.3377e-4 0.49897607,0.005516 0,0.004881 -0.057464,0.005516 -0.49897607,0.005516 -0.44151197,0 -0.49897593,-6.3377e-4 -0.49897593,-0.005516 z m 0,-0.047804 0,-0.0202248 0.49897593,0 0.49897607,0 0,0.0202248 0,0.0202248 -0.49897607,0 -0.49897593,0 0,-0.0202248 z m 0,-0.0478039 c 0,-0.004881 0.05746393,-0.005516 0.49897593,-0.005516 0.44151206,0 0.49897607,6.3377e-4 0.49897607,0.005516 0,0.004881 -0.057464,0.005516 -0.49897607,0.005516 -0.44151197,0 -0.49897593,-6.3377e-4 -0.49897593,-0.005516 z m 0,-0.0312564 c 0,-0.007325 0.0020205,-0.007354 0.49897593,-0.007354 0.49695382,0 0.49897607,2.423e-5 0.49897607,0.007354 0,0.007325 -0.002023,0.007354 -0.49897607,0.007354 -0.4969537,0 -0.49897593,-2.43e-5 -0.49897593,-0.007354 z m 0,-0.0312564 c 0,-0.004881 0.05746393,-0.005516 0.49897593,-0.005516 0.44151206,0 0.49897607,6.3648e-4 0.49897607,0.005516 0,0.004881 -0.057464,0.005516 -0.49897607,0.005516 -0.44151197,0 -0.49897593,-6.3377e-4 -0.49897593,-0.005516 z m 0,-0.0330951 c 0,-0.004881 0.05746393,-0.005516 0.49897593,-0.005516 0.44151206,0 0.49897607,6.3377e-4 0.49897607,0.005516 0,0.004881 -0.057464,0.005516 -0.49897607,0.005516 -0.44151197,0 -0.49897593,-6.3378e-4 -0.49897593,-0.005516 z m 0,-0.0294179 c 0,-0.004881 0.05746393,-0.005516 0.49897593,-0.005516 0.44151206,0 0.49897607,6.3648e-4 0.49897607,0.005516 0,0.004881 -0.057464,0.005516 -0.49897607,0.005516 -0.44151197,0 -0.49897593,-6.3648e-4 -0.49897593,-0.005516 z m 0,-0.047804 0,-0.0202248 0.49897593,0 0.49897607,0 0,0.0202248 0,0.0202248 -0.49897607,0 -0.49897593,0 0,-0.0202248 z" id="path5534" inkscape:connector-curvature="0" />
    </pattern>
  </defs>
  <sodipodi:namedview pagecolor="#ffffff" bordercolor="#666666" borderopacity="1" objecttolerance="10" gridtolerance="10" guidetolerance="10" inkscape:pageopacity="0" inkscape:pageshadow="2" inkscape:window-width="1600" inkscape:window-height="838" id="namedview4" showgrid="false" inkscape:zoom="256" inkscape:cx="0.5" inkscape:cy="0.5" inkscape:window-x="-8" inkscape:window-y="-8" inkscape:window-maximized="1" inkscape:current-layer="svg2" />
  <path style="fill:#000000" d="m 0.0034819,0.69674197 0,-0.0183861 0.49897593,0 0.49897607,0 0,0.0183861 0,0.0183861 -0.49897607,0 -0.49897593,0 0,-0.0183861 z m 0,-0.0496426 c 0,-0.00488 0.05746393,-0.005516 0.49897593,-0.005516 0.44151206,0 0.49897607,6.3378e-4 0.49897607,0.005516 0,0.004881 -0.057464,0.005516 -0.49897607,0.005516 -0.44151197,0 -0.49897593,-6.3648e-4 -0.49897593,-0.005516 z m 0,-0.0312564 c 0,-0.007325 0.0020205,-0.007354 0.49897593,-0.007354 0.49695382,0 0.49897607,2.432e-5 0.49897607,0.007354 0,0.007325 -0.002023,0.007354 -0.49897607,0.007354 -0.4969537,0 -0.49897593,-2.427e-5 -0.49897593,-0.007354 z m 0,-0.0312564 c 0,-0.004881 0.05746393,-0.005516 0.49897593,-0.005516 0.44151206,0 0.49897607,6.3377e-4 0.49897607,0.005516 0,0.004881 -0.057464,0.005516 -0.49897607,0.005516 -0.44151197,0 -0.49897593,-6.3378e-4 -0.49897593,-0.005516 z m 0,-0.0330951 c 0,-0.004881 0.05746393,-0.005516 0.49897593,-0.005516 0.44151206,0 0.49897607,6.3378e-4 0.49897607,0.005516 0,0.004881 -0.057464,0.005516 -0.49897607,0.005516 -0.44151197,0 -0.49897593,-6.3376e-4 -0.49897593,-0.005516 z m 0,-0.0294178 c 0,-0.004881 0.05746393,-0.005516 0.49897593,-0.005516 0.44151206,0 0.49897607,6.3377e-4 0.49897607,0.005516 0,0.004881 -0.057464,0.005516 -0.49897607,0.005516 -0.44151197,0 -0.49897593,-6.3377e-4 -0.49897593,-0.005516 z m 0,-0.047804 0,-0.0202248 0.49897593,0 0.49897607,0 0,0.0202248 0,0.0202248 -0.49897607,0 -0.49897593,0 0,-0.0202248 z m 0,-0.0478039 c 0,-0.004881 0.05746393,-0.005516 0.49897593,-0.005516 0.44151206,0 0.49897607,6.3377e-4 0.49897607,0.005516 0,0.004881 -0.057464,0.005516 -0.49897607,0.005516 -0.44151197,0 -0.49897593,-6.3377e-4 -0.49897593,-0.005516 z m 0,-0.0312564 c 0,-0.007325 0.0020205,-0.007354 0.49897593,-0.007354 0.49695382,0 0.49897607,2.423e-5 0.49897607,0.007354 0,0.007325 -0.002023,0.007354 -0.49897607,0.007354 -0.4969537,0 -0.49897593,-2.43e-5 -0.49897593,-0.007354 z m 0,-0.0312564 c 0,-0.004881 0.05746393,-0.005516 0.49897593,-0.005516 0.44151206,0 0.49897607,6.3648e-4 0.49897607,0.005516 0,0.004881 -0.057464,0.005516 -0.49897607,0.005516 -0.44151197,0 -0.49897593,-6.3377e-4 -0.49897593,-0.005516 z m 0,-0.0330951 c 0,-0.004881 0.05746393,-0.005516 0.49897593,-0.005516 0.44151206,0 0.49897607,6.3377e-4 0.49897607,0.005516 0,0.004881 -0.057464,0.005516 -0.49897607,0.005516 -0.44151197,0 -0.49897593,-6.3378e-4 -0.49897593,-0.005516 z m 0,-0.0294179 c 0,-0.004881 0.05746393,-0.005516 0.49897593,-0.005516 0.44151206,0 0.49897607,6.3648e-4 0.49897607,0.005516 0,0.004881 -0.057464,0.005516 -0.49897607,0.005516 -0.44151197,0 -0.49897593,-6.3648e-4 -0.49897593,-0.005516 z m 0,-0.047804 0,-0.0202248 0.49897593,0 0.49897607,0 0,0.0202248 0,0.0202248 -0.49897607,0 -0.49897593,0 0,-0.0202248 z" id="path5534" inkscape:connector-curvature="0" />
</svg>