<?xml version="1.0" encoding="utf-8" standalone="no"?>
<svg xmlns:dc="http://purl.org/dc/elements/1.1/" xmlns:cc="http://creativecommons.org/ns#" xmlns:rdf="http://www.w3.org/1999/02/22-rdf-syntax-ns#" xmlns:svg="http://www.w3.org/2000/svg" xmlns="http://www.w3.org/2000/svg" xmlns:sodipodi="http://sodipodi.sourceforge.net/DTD/sodipodi-0.dtd" xmlns:inkscape="http://www.inkscape.org/namespaces/inkscape" height="1" version="1.1" width="1" id="svg2" inkscape:version="0.91 r13725" sodipodi:docname="SB_sandBedforms.svg">
  <metadata id="metadata8">
    <rdf:RDF>
      <cc:Work rdf:about="">
        <dc:format>image/svg+xml</dc:format>
        <dc:type rdf:resource="http://purl.org/dc/dcmitype/StillImage" />
        <dc:title></dc:title>
      </cc:Work>
    </rdf:RDF>
  </metadata>
  <defs id="defs6">
    <pattern width="1" height="1" id="SB_sandBedforms" patternContentUnits="objectBoundingBox">
      <path style="fill:#000000" d="M 0.1136476,0.63093322 C 0.08467814,0.61937512 0.02497065,0.57777632 0.0102967,0.55892762 0.00525389,0.55245262 7.2019347e-4,0.54201582 2.1761676e-4,0.53573532 -5.3661227e-4,0.52625432 0.01497183,0.52367452 0.09161688,0.52053502 c 0.09600623,-0.003932 0.13828854,-0.015387 0.19489754,-0.0527985 l 0.0240092,-0.015867 -0.0379122,-5.8481e-4 c -0.0208514,-3.2129e-4 -0.0429331,0.002916 -0.0490699,0.007195 -0.0443303,0.0309092 -0.22077015,0.0648433 -0.22077015,0.0424601 0,-0.0048 0.02593824,-0.009969 0.06438815,-0.0128316 0.03866154,-0.002879 0.07921334,-0.0109844 0.10149264,-0.0202868 l 0.0371046,-0.0154926 -0.0261937,-8.1444e-4 c -0.0144063,-4.4826e-4 -0.0399432,0.004498 -0.0567484,0.0109915 -0.04316102,0.0166767 -0.12004386,0.0252519 -0.12004386,0.0133893 0,-0.005845 0.00992052,-0.009472 0.02728318,-0.009976 0.01500582,-4.3323e-4 0.03808734,-0.003531 0.05129182,-0.006878 0.02022208,-0.005126 0.01591803,-0.006264 -0.02728318,-0.007214 -0.03087485,-6.7788e-4 -0.05129182,-0.004314 -0.05129182,-0.009133 0,-0.005291 0.17024606,-0.008006 0.50200743,-0.008006 0.2875747,0 0.50200743,0.003021 0.50200743,0.007072 0,0.00389 -0.00442,0.009751 -0.009821,0.0130245 l -0.009821,0.005953 0.009821,0.003543 c 0.0196825,0.007101 0.008934,0.0163921 -0.0305571,0.0264136 -0.0505442,0.0128265 -0.15128426,0.012876 -0.19821614,9.832e-5 -0.0230006,-0.006263 -0.0382349,-0.007001 -0.0430239,-0.002086 -0.0132733,0.0136225 0.0436075,0.0276372 0.11136409,0.0274386 0.0574057,-1.6945e-4 0.15447584,-0.0137443 0.16261559,-0.022743 0.0018,-0.001991 0.003276,1.2473e-4 0.003276,0.004706 0,0.007868 -0.004641,0.0109031 -0.0305572,0.0199781 -0.006003,0.002102 -7.9827e-4,0.002423 0.0115628,7.1203e-4 0.0190566,-0.002636 0.0227985,-8.4614e-4 0.0245971,0.0117668 0.00185,0.0130139 -0.0026,0.0164222 -0.035572,0.0272322 -0.11079898,0.0363219 -0.20966927,0.0408642 -0.28453698,0.0130717 l -0.0460408,-0.0170914 -0.0434473,0.0165997 c -0.0623621,0.0238259 -0.15234638,0.0356376 -0.20278019,0.0266172 -0.0363559,-0.006502 -0.0444289,-0.00552 -0.0654619,0.007964 -0.0582992,0.0373751 -0.15798982,0.0493336 -0.21653669,0.0259746 z m 0.15155968,-0.007825 c 0.0201219,-0.006444 0.0444427,-0.0172777 0.0540467,-0.0240748 l 0.0174611,-0.0123583 -0.0152783,0.003755 c -0.008403,0.002066 -0.0309938,0.007845 -0.0502007,0.0128432 -0.0629374,0.0163795 -0.14529422,-0.001793 -0.21785593,-0.04807 -0.01418111,-0.009044 -0.03087815,-0.0164006 -0.03710519,-0.0163475 -0.0291583,2.5063e-4 0.06475568,0.0720377 0.11380491,0.0869943 0.0367506,0.0112065 0.0952819,0.0100189 0.13512768,-0.002742 z m 0.0364314,-0.0453792 c 0.003271,-0.006392 -0.002103,-0.007724 -0.0194899,-0.00483 -0.0344895,0.005741 -0.13261913,-0.006985 -0.16588074,-0.0215114 -0.03105157,-0.0135612 -0.0634935,-0.0168744 -0.05238351,-0.00535 0.0093821,0.009732 0.06172117,0.0326897 0.09319268,0.0408772 0.0347731,0.009046 0.13860454,0.002449 0.1445615,-0.009187 z m 0.25096867,-0.003279 c 0.059444,-0.0176792 0.0824949,-0.0290784 0.0721968,-0.0357031 -0.004553,-0.002929 -0.0162341,-0.002659 -0.0259569,6.0229e-4 -0.0376056,0.0126109 -0.150235,0.0249123 -0.18352591,0.0200447 -0.0589116,-0.008614 -0.0988996,-0.0214076 -0.12886302,-0.041229 -0.021147,-0.0139893 -0.0320392,-0.0172332 -0.0415816,-0.0123836 l -0.0129292,0.006571 0.0152789,0.0119402 c 0.0253205,0.0197881 0.0466035,0.031283 0.0864657,0.0466991 0.0493682,0.0190923 0.16044893,0.0208476 0.21891502,0.003459 z m 0.38433349,-0.0153898 c 0.0252093,-0.007129 0.0507462,-0.0164355 0.0567487,-0.0206818 l 0.0109132,-0.007721 -0.0109219,0.003705 c -0.0251901,0.008545 -0.14755375,0.0284127 -0.17499021,0.0284127 -0.0419036,0 -0.12451459,-0.0210578 -0.15291865,-0.0389794 -0.0300744,-0.0189753 -0.064529,-0.0299621 -0.0584094,-0.0186252 0.00926,0.0171545 0.0605763,0.0503482 0.0949627,0.0614264 0.045705,0.0147248 0.17001279,0.0107312 0.23461598,-0.007537 z m -0.67028902,-0.003219 c -0.002279,-0.003814 -0.0139692,-0.004295 -0.0259735,-0.001068 l -0.0218264,0.005864 0.0259729,0.001068 c 0.0148841,6.1245e-4 0.0242036,-0.001892 0.0218264,-0.005864 z m -0.0827216,-0.009536 c -0.009605,-0.003643 -0.026301,-0.00632 -0.0371052,-0.005949 l -0.0196441,6.7544e-4 0.0174611,0.005733 c 0.009603,0.003154 0.0263004,0.00583 0.0371046,0.005949 l 0.0196434,2.1414e-4 z m 0.36137934,-0.010844 c 0.0282951,-0.005832 0.0528493,-0.0133901 0.0545664,-0.0167947 0.001718,-0.003405 -0.004735,-0.003845 -0.0143396,-9.8025e-4 -0.0694909,0.0207365 -0.19646512,0.0126656 -0.25110417,-0.015961 -0.0359408,-0.0188303 -0.0464075,-0.0213508 -0.0544382,-0.0131094 -0.005796,0.00595 -0.002136,0.010484 0.0176973,0.0219249 0.0596161,0.0343885 0.15507774,0.0439955 0.24761809,0.0249197 z m 0.39599676,-0.002986 c 0.0112154,-0.003379 -0.0253089,-0.005876 -0.085123,-0.005821 -0.0883572,8.045e-5 -0.1099512,-0.002277 -0.13786689,-0.0150608 -0.024122,-0.0110461 -0.0352896,-0.0129105 -0.0411714,-0.006874 -0.006749,0.006926 -0.004185,0.009754 0.015639,0.017253 0.013041,0.004933 0.0354971,0.0123479 0.0499022,0.0164776 0.0279764,0.00802 0.16594092,0.00387 0.1986203,-0.005975 z m -0.71154077,-0.004928 c -0.006246,-0.006049 -0.0181224,-0.008918 -0.0277677,-0.006705 -0.0233414,0.005354 -0.0114036,0.0177307 0.0168545,0.0174744 0.020706,-1.8827e-4 0.0212659,-7.4006e-4 0.0109132,-0.0107691 z m 0.32521359,-0.0182476 c 0.0217641,-0.003796 0.0274164,-0.006838 0.0196434,-0.0105712 -0.006003,-0.002883 -0.0305571,-0.001991 -0.0545659,0.001981 -0.0537394,0.008892 -0.13297713,-0.002672 -0.17211208,-0.025118 -0.0168154,-0.009644 -0.030632,-0.0134504 -0.0344818,-0.009499 -0.004833,0.004962 -0.002752,0.008786 0.008413,0.0154563 0.0476286,0.0284488 0.15548254,0.0412887 0.23310258,0.0277506 z m -0.0525333,-0.0261893 c -0.004883,-0.003631 -0.0284569,-0.006681 -0.0523835,-0.006779 -0.0272534,-1.1173e-4 -0.0516557,-0.004899 -0.0653292,-0.0128183 -0.0120048,-0.006952 -0.0287019,-0.0123575 -0.0371046,-0.0120115 -0.0147382,6.0717e-4 -0.0145071,0.001041 0.006547,0.0122766 0.0120043,0.006406 0.035577,0.014601 0.052383,0.0182109 0.0413344,0.008878 0.10736008,0.00965 0.0958866,0.001121 z m 0.20095266,7.152e-5 c 0.01272,-0.004825 8.6433e-4,-0.006886 -0.0436527,-0.007591 -0.0336126,-5.3198e-4 -0.0805864,-0.00635 -0.10438645,-0.0129288 -0.0237994,-0.006579 -0.0542476,-0.011548 -0.0676619,-0.0110432 -0.0242542,9.132e-4 -0.0241842,9.7903e-4 0.0127156,0.0119353 0.0820332,0.024358 0.16847942,0.0327171 0.20298555,0.019628 z m 0.26628212,-0.00858 c 0.0101576,-0.003808 -0.0144926,-0.004813 -0.0589312,-0.002403 -0.0476193,0.002582 -0.0903681,5.8725e-4 -0.11349734,-0.005297 -0.0204077,-0.005192 -0.0508558,-0.0108177 -0.0676618,-0.0125014 l -0.0305572,-0.003061 0.0305572,0.0121241 c 0.0168061,0.006668 0.0472542,0.0152359 0.0676618,0.0190391 0.0401144,0.007476 0.14412841,0.002711 0.17242859,-0.0079 z M 0.41638116,0.4531882 c -0.0042,-0.002013 -0.0110772,-0.002013 -0.0152783,0 -0.0042,0.002014 -7.6524e-4,0.003661 0.007639,0.003661 0.008403,0 0.0118407,-0.001647 0.007639,-0.003661 z m 0.23354262,-3.8487e-4 c -0.012605,-0.001617 -0.0332305,-0.001617 -0.0458356,0 -0.012605,0.001617 -0.00229,0.00294 0.0229175,0.00294 0.0252093,0 0.0355224,-0.001323 0.022918,-0.00294 z m 0.2553689,-4.916e-5 c -0.0186068,-0.0015 -0.0490551,-0.0015 -0.0676618,0 -0.0186068,0.001501 -0.003386,0.002729 0.0338306,0.002729 0.0372141,0 0.052438,-0.001228 0.0338306,-0.002729 z M 0.01804933,0.41066907 c 0.0014864,-0.004403 0.0070012,-0.008048 0.01226196,-0.0081 0.0052631,-5.809e-5 0.01990002,-0.005141 0.03253304,-0.0113081 0.02138866,-0.010442 0.02326486,-0.0101964 0.02728264,0.003571 0.0023728,0.008132 0.0043162,0.0168226 0.0043162,0.0193136 0,0.002491 -0.01779534,0.004529 -0.03954514,0.004529 -0.02525173,0 -0.03856962,-0.002894 -0.03684701,-0.008005 z m 0.10913197,0 c 0.001486,-0.004403 0.006082,-0.008005 0.010219,-0.008005 0.004135,0 0.0177358,-0.004859 0.0302198,-0.0107978 0.020364,-0.009687 0.0233804,-0.009417 0.0293256,0.002632 0.003645,0.007386 0.006627,0.0158477 0.006627,0.0188032 0,0.002955 -0.0177953,0.005374 -0.0395452,0.005374 -0.0252523,0 -0.0385702,-0.002894 -0.0368475,-0.008005 z m 0.10351749,0.003626 c 0.001316,-0.002409 0.0174232,-0.010949 0.0357983,-0.0189777 0.0321939,-0.0140661 0.0335636,-0.0140715 0.0376271,-1.4708e-4 0.002318,0.007947 0.004216,0.0164868 0.004216,0.0189777 0,0.002491 -0.0180068,0.004529 -0.0400148,0.004529 -0.0220086,0 -0.0389401,-0.001971 -0.0376266,-0.00438 z m 0.11038112,-0.003626 c 0.001486,-0.004403 0.007181,-0.008005 0.01266,-0.008005 0.005478,0 0.0190109,-0.004995 0.0300716,-0.0110989 0.0181614,-0.0100236 0.020766,-0.009769 0.0268853,0.002632 0.003727,0.007552 0.006777,0.0161488 0.006777,0.0191043 0,0.002955 -0.0177953,0.005374 -0.0395452,0.005374 -0.0252518,0 -0.0385696,-0.002894 -0.0368475,-0.008005 z m 0.10913228,1.5179e-4 c 0.0048,-0.003724 0.0211074,-0.0119088 0.0362343,-0.0181887 0.0255545,-0.0106088 0.0277979,-0.0104115 0.0316482,0.002783 0.002279,0.007811 0.004145,0.0162396 0.004145,0.0187305 0,0.00249 -0.0181708,0.004285 -0.0403792,0.003987 -0.0262267,-3.5309e-4 -0.0373187,-0.002915 -0.0316483,-0.007313 z m 0.10694933,7.7095e-4 c 0.0036,-0.003628 0.0187984,-0.0112051 0.0337712,-0.0168382 0.0218593,-0.008224 0.0285252,-0.00826 0.0338312,-1.8827e-4 0.0127893,0.0194653 0.006223,0.0241045 -0.0337717,0.0238635 -0.0236293,-1.4356e-4 -0.0376624,-0.00298 -0.0338306,-0.00684 z m 0.10716762,2.0592e-4 c 0.002279,-0.003782 0.0149508,-0.0106865 0.0281563,-0.0153423 0.013205,-0.004656 0.0266225,-0.009667 0.0298167,-0.0111351 0.003193,-0.001469 0.008836,0.005436 0.0125373,0.0153423 l 0.006729,0.0180123 -0.040693,0 c -0.0229857,0 -0.0388883,-0.002993 -0.0365459,-0.006877 z m 0.1067311,-2.0592e-4 c 0.0036,-0.003628 0.0187984,-0.0112051 0.0337717,-0.0168382 0.0218593,-0.008224 0.0285252,-0.00826 0.0338306,-1.8827e-4 0.0127893,0.0194653 0.006223,0.0241046 -0.0337712,0.0238635 -0.0236298,-1.4356e-4 -0.0376629,-0.00298 -0.0338312,-0.00684 z m 0.10716767,2.0592e-4 c 0.003942,-0.006533 0.0494376,-0.0251448 0.0614702,-0.0251448 0.003115,0 0.007769,0.007205 0.0103386,0.016011 0.004514,0.0154737 0.00332,0.0160109 -0.0356419,0.0160109 -0.0227744,0 -0.0385101,-0.002992 -0.0361671,-0.006877 z M 0.00277063,0.35863403 c 0,-0.0107054 0.05695593,-0.0118446 0.50200781,-0.0100405 0.33102167,0.001342 0.50200746,0.004762 0.50200746,0.0100405 0,0.005279 -0.17098579,0.008699 -0.50200746,0.0100405 -0.44505188,0.001804 -0.50200781,6.6488e-4 -0.50200781,-0.0100405 z" id="path4892" inkscape:connector-curvature="0" sodipodi:nodetypes="csssscsssssccssssssssscssssssssccsscsssccsscsssssssssssscscssscssccsscsssssssscsssscsscssssssssssssssssssssssssssssssssssssssssssscsssssssssssssssscsssssssssssscsssscssssssssssssscscsccsscscsscscsccssssssssss" />
    </pattern>
  </defs>
  <sodipodi:namedview pagecolor="#ffffff" bordercolor="#666666" borderopacity="1" objecttolerance="10" gridtolerance="10" guidetolerance="10" inkscape:pageopacity="0" inkscape:pageshadow="2" inkscape:window-width="1600" inkscape:window-height="838" id="namedview4" showgrid="false" inkscape:zoom="181.01934" inkscape:cx="0.27185894" inkscape:cy="0.45307737" inkscape:window-x="-8" inkscape:window-y="-8" inkscape:window-maximized="1" inkscape:current-layer="svg2" />
  <path style="fill:#000000" d="M 0.1136476,0.63093322 C 0.08467814,0.61937512 0.02497065,0.57777632 0.0102967,0.55892762 0.00525389,0.55245262 7.2019347e-4,0.54201582 2.1761676e-4,0.53573532 -5.3661227e-4,0.52625432 0.01497183,0.52367452 0.09161688,0.52053502 c 0.09600623,-0.003932 0.13828854,-0.015387 0.19489754,-0.0527985 l 0.0240092,-0.015867 -0.0379122,-5.8481e-4 c -0.0208514,-3.2129e-4 -0.0429331,0.002916 -0.0490699,0.007195 -0.0443303,0.0309092 -0.22077015,0.0648433 -0.22077015,0.0424601 0,-0.0048 0.02593824,-0.009969 0.06438815,-0.0128316 0.03866154,-0.002879 0.07921334,-0.0109844 0.10149264,-0.0202868 l 0.0371046,-0.0154926 -0.0261937,-8.1444e-4 c -0.0144063,-4.4826e-4 -0.0399432,0.004498 -0.0567484,0.0109915 -0.04316102,0.0166767 -0.12004386,0.0252519 -0.12004386,0.0133893 0,-0.005845 0.00992052,-0.009472 0.02728318,-0.009976 0.01500582,-4.3323e-4 0.03808734,-0.003531 0.05129182,-0.006878 0.02022208,-0.005126 0.01591803,-0.006264 -0.02728318,-0.007214 -0.03087485,-6.7788e-4 -0.05129182,-0.004314 -0.05129182,-0.009133 0,-0.005291 0.17024606,-0.008006 0.50200743,-0.008006 0.2875747,0 0.50200743,0.003021 0.50200743,0.007072 0,0.00389 -0.00442,0.009751 -0.009821,0.0130245 l -0.009821,0.005953 0.009821,0.003543 c 0.0196825,0.007101 0.008934,0.0163921 -0.0305571,0.0264136 -0.0505442,0.0128265 -0.15128426,0.012876 -0.19821614,9.832e-5 -0.0230006,-0.006263 -0.0382349,-0.007001 -0.0430239,-0.002086 -0.0132733,0.0136225 0.0436075,0.0276372 0.11136409,0.0274386 0.0574057,-1.6945e-4 0.15447584,-0.0137443 0.16261559,-0.022743 0.0018,-0.001991 0.003276,1.2473e-4 0.003276,0.004706 0,0.007868 -0.004641,0.0109031 -0.0305572,0.0199781 -0.006003,0.002102 -7.9827e-4,0.002423 0.0115628,7.1203e-4 0.0190566,-0.002636 0.0227985,-8.4614e-4 0.0245971,0.0117668 0.00185,0.0130139 -0.0026,0.0164222 -0.035572,0.0272322 -0.11079898,0.0363219 -0.20966927,0.0408642 -0.28453698,0.0130717 l -0.0460408,-0.0170914 -0.0434473,0.0165997 c -0.0623621,0.0238259 -0.15234638,0.0356376 -0.20278019,0.0266172 -0.0363559,-0.006502 -0.0444289,-0.00552 -0.0654619,0.007964 -0.0582992,0.0373751 -0.15798982,0.0493336 -0.21653669,0.0259746 z m 0.15155968,-0.007825 c 0.0201219,-0.006444 0.0444427,-0.0172777 0.0540467,-0.0240748 l 0.0174611,-0.0123583 -0.0152783,0.003755 c -0.008403,0.002066 -0.0309938,0.007845 -0.0502007,0.0128432 -0.0629374,0.0163795 -0.14529422,-0.001793 -0.21785593,-0.04807 -0.01418111,-0.009044 -0.03087815,-0.0164006 -0.03710519,-0.0163475 -0.0291583,2.5063e-4 0.06475568,0.0720377 0.11380491,0.0869943 0.0367506,0.0112065 0.0952819,0.0100189 0.13512768,-0.002742 z m 0.0364314,-0.0453792 c 0.003271,-0.006392 -0.002103,-0.007724 -0.0194899,-0.00483 -0.0344895,0.005741 -0.13261913,-0.006985 -0.16588074,-0.0215114 -0.03105157,-0.0135612 -0.0634935,-0.0168744 -0.05238351,-0.00535 0.0093821,0.009732 0.06172117,0.0326897 0.09319268,0.0408772 0.0347731,0.009046 0.13860454,0.002449 0.1445615,-0.009187 z m 0.25096867,-0.003279 c 0.059444,-0.0176792 0.0824949,-0.0290784 0.0721968,-0.0357031 -0.004553,-0.002929 -0.0162341,-0.002659 -0.0259569,6.0229e-4 -0.0376056,0.0126109 -0.150235,0.0249123 -0.18352591,0.0200447 -0.0589116,-0.008614 -0.0988996,-0.0214076 -0.12886302,-0.041229 -0.021147,-0.0139893 -0.0320392,-0.0172332 -0.0415816,-0.0123836 l -0.0129292,0.006571 0.0152789,0.0119402 c 0.0253205,0.0197881 0.0466035,0.031283 0.0864657,0.0466991 0.0493682,0.0190923 0.16044893,0.0208476 0.21891502,0.003459 z m 0.38433349,-0.0153898 c 0.0252093,-0.007129 0.0507462,-0.0164355 0.0567487,-0.0206818 l 0.0109132,-0.007721 -0.0109219,0.003705 c -0.0251901,0.008545 -0.14755375,0.0284127 -0.17499021,0.0284127 -0.0419036,0 -0.12451459,-0.0210578 -0.15291865,-0.0389794 -0.0300744,-0.0189753 -0.064529,-0.0299621 -0.0584094,-0.0186252 0.00926,0.0171545 0.0605763,0.0503482 0.0949627,0.0614264 0.045705,0.0147248 0.17001279,0.0107312 0.23461598,-0.007537 z m -0.67028902,-0.003219 c -0.002279,-0.003814 -0.0139692,-0.004295 -0.0259735,-0.001068 l -0.0218264,0.005864 0.0259729,0.001068 c 0.0148841,6.1245e-4 0.0242036,-0.001892 0.0218264,-0.005864 z m -0.0827216,-0.009536 c -0.009605,-0.003643 -0.026301,-0.00632 -0.0371052,-0.005949 l -0.0196441,6.7544e-4 0.0174611,0.005733 c 0.009603,0.003154 0.0263004,0.00583 0.0371046,0.005949 l 0.0196434,2.1414e-4 z m 0.36137934,-0.010844 c 0.0282951,-0.005832 0.0528493,-0.0133901 0.0545664,-0.0167947 0.001718,-0.003405 -0.004735,-0.003845 -0.0143396,-9.8025e-4 -0.0694909,0.0207365 -0.19646512,0.0126656 -0.25110417,-0.015961 -0.0359408,-0.0188303 -0.0464075,-0.0213508 -0.0544382,-0.0131094 -0.005796,0.00595 -0.002136,0.010484 0.0176973,0.0219249 0.0596161,0.0343885 0.15507774,0.0439955 0.24761809,0.0249197 z m 0.39599676,-0.002986 c 0.0112154,-0.003379 -0.0253089,-0.005876 -0.085123,-0.005821 -0.0883572,8.045e-5 -0.1099512,-0.002277 -0.13786689,-0.0150608 -0.024122,-0.0110461 -0.0352896,-0.0129105 -0.0411714,-0.006874 -0.006749,0.006926 -0.004185,0.009754 0.015639,0.017253 0.013041,0.004933 0.0354971,0.0123479 0.0499022,0.0164776 0.0279764,0.00802 0.16594092,0.00387 0.1986203,-0.005975 z m -0.71154077,-0.004928 c -0.006246,-0.006049 -0.0181224,-0.008918 -0.0277677,-0.006705 -0.0233414,0.005354 -0.0114036,0.0177307 0.0168545,0.0174744 0.020706,-1.8827e-4 0.0212659,-7.4006e-4 0.0109132,-0.0107691 z m 0.32521359,-0.0182476 c 0.0217641,-0.003796 0.0274164,-0.006838 0.0196434,-0.0105712 -0.006003,-0.002883 -0.0305571,-0.001991 -0.0545659,0.001981 -0.0537394,0.008892 -0.13297713,-0.002672 -0.17211208,-0.025118 -0.0168154,-0.009644 -0.030632,-0.0134504 -0.0344818,-0.009499 -0.004833,0.004962 -0.002752,0.008786 0.008413,0.0154563 0.0476286,0.0284488 0.15548254,0.0412887 0.23310258,0.0277506 z m -0.0525333,-0.0261893 c -0.004883,-0.003631 -0.0284569,-0.006681 -0.0523835,-0.006779 -0.0272534,-1.1173e-4 -0.0516557,-0.004899 -0.0653292,-0.0128183 -0.0120048,-0.006952 -0.0287019,-0.0123575 -0.0371046,-0.0120115 -0.0147382,6.0717e-4 -0.0145071,0.001041 0.006547,0.0122766 0.0120043,0.006406 0.035577,0.014601 0.052383,0.0182109 0.0413344,0.008878 0.10736008,0.00965 0.0958866,0.001121 z m 0.20095266,7.152e-5 c 0.01272,-0.004825 8.6433e-4,-0.006886 -0.0436527,-0.007591 -0.0336126,-5.3198e-4 -0.0805864,-0.00635 -0.10438645,-0.0129288 -0.0237994,-0.006579 -0.0542476,-0.011548 -0.0676619,-0.0110432 -0.0242542,9.132e-4 -0.0241842,9.7903e-4 0.0127156,0.0119353 0.0820332,0.024358 0.16847942,0.0327171 0.20298555,0.019628 z m 0.26628212,-0.00858 c 0.0101576,-0.003808 -0.0144926,-0.004813 -0.0589312,-0.002403 -0.0476193,0.002582 -0.0903681,5.8725e-4 -0.11349734,-0.005297 -0.0204077,-0.005192 -0.0508558,-0.0108177 -0.0676618,-0.0125014 l -0.0305572,-0.003061 0.0305572,0.0121241 c 0.0168061,0.006668 0.0472542,0.0152359 0.0676618,0.0190391 0.0401144,0.007476 0.14412841,0.002711 0.17242859,-0.0079 z M 0.41638116,0.4531882 c -0.0042,-0.002013 -0.0110772,-0.002013 -0.0152783,0 -0.0042,0.002014 -7.6524e-4,0.003661 0.007639,0.003661 0.008403,0 0.0118407,-0.001647 0.007639,-0.003661 z m 0.23354262,-3.8487e-4 c -0.012605,-0.001617 -0.0332305,-0.001617 -0.0458356,0 -0.012605,0.001617 -0.00229,0.00294 0.0229175,0.00294 0.0252093,0 0.0355224,-0.001323 0.022918,-0.00294 z m 0.2553689,-4.916e-5 c -0.0186068,-0.0015 -0.0490551,-0.0015 -0.0676618,0 -0.0186068,0.001501 -0.003386,0.002729 0.0338306,0.002729 0.0372141,0 0.052438,-0.001228 0.0338306,-0.002729 z M 0.01804933,0.41066907 c 0.0014864,-0.004403 0.0070012,-0.008048 0.01226196,-0.0081 0.0052631,-5.809e-5 0.01990002,-0.005141 0.03253304,-0.0113081 0.02138866,-0.010442 0.02326486,-0.0101964 0.02728264,0.003571 0.0023728,0.008132 0.0043162,0.0168226 0.0043162,0.0193136 0,0.002491 -0.01779534,0.004529 -0.03954514,0.004529 -0.02525173,0 -0.03856962,-0.002894 -0.03684701,-0.008005 z m 0.10913197,0 c 0.001486,-0.004403 0.006082,-0.008005 0.010219,-0.008005 0.004135,0 0.0177358,-0.004859 0.0302198,-0.0107978 0.020364,-0.009687 0.0233804,-0.009417 0.0293256,0.002632 0.003645,0.007386 0.006627,0.0158477 0.006627,0.0188032 0,0.002955 -0.0177953,0.005374 -0.0395452,0.005374 -0.0252523,0 -0.0385702,-0.002894 -0.0368475,-0.008005 z m 0.10351749,0.003626 c 0.001316,-0.002409 0.0174232,-0.010949 0.0357983,-0.0189777 0.0321939,-0.0140661 0.0335636,-0.0140715 0.0376271,-1.4708e-4 0.002318,0.007947 0.004216,0.0164868 0.004216,0.0189777 0,0.002491 -0.0180068,0.004529 -0.0400148,0.004529 -0.0220086,0 -0.0389401,-0.001971 -0.0376266,-0.00438 z m 0.11038112,-0.003626 c 0.001486,-0.004403 0.007181,-0.008005 0.01266,-0.008005 0.005478,0 0.0190109,-0.004995 0.0300716,-0.0110989 0.0181614,-0.0100236 0.020766,-0.009769 0.0268853,0.002632 0.003727,0.007552 0.006777,0.0161488 0.006777,0.0191043 0,0.002955 -0.0177953,0.005374 -0.0395452,0.005374 -0.0252518,0 -0.0385696,-0.002894 -0.0368475,-0.008005 z m 0.10913228,1.5179e-4 c 0.0048,-0.003724 0.0211074,-0.0119088 0.0362343,-0.0181887 0.0255545,-0.0106088 0.0277979,-0.0104115 0.0316482,0.002783 0.002279,0.007811 0.004145,0.0162396 0.004145,0.0187305 0,0.00249 -0.0181708,0.004285 -0.0403792,0.003987 -0.0262267,-3.5309e-4 -0.0373187,-0.002915 -0.0316483,-0.007313 z m 0.10694933,7.7095e-4 c 0.0036,-0.003628 0.0187984,-0.0112051 0.0337712,-0.0168382 0.0218593,-0.008224 0.0285252,-0.00826 0.0338312,-1.8827e-4 0.0127893,0.0194653 0.006223,0.0241045 -0.0337717,0.0238635 -0.0236293,-1.4356e-4 -0.0376624,-0.00298 -0.0338306,-0.00684 z m 0.10716762,2.0592e-4 c 0.002279,-0.003782 0.0149508,-0.0106865 0.0281563,-0.0153423 0.013205,-0.004656 0.0266225,-0.009667 0.0298167,-0.0111351 0.003193,-0.001469 0.008836,0.005436 0.0125373,0.0153423 l 0.006729,0.0180123 -0.040693,0 c -0.0229857,0 -0.0388883,-0.002993 -0.0365459,-0.006877 z m 0.1067311,-2.0592e-4 c 0.0036,-0.003628 0.0187984,-0.0112051 0.0337717,-0.0168382 0.0218593,-0.008224 0.0285252,-0.00826 0.0338306,-1.8827e-4 0.0127893,0.0194653 0.006223,0.0241046 -0.0337712,0.0238635 -0.0236298,-1.4356e-4 -0.0376629,-0.00298 -0.0338312,-0.00684 z m 0.10716767,2.0592e-4 c 0.003942,-0.006533 0.0494376,-0.0251448 0.0614702,-0.0251448 0.003115,0 0.007769,0.007205 0.0103386,0.016011 0.004514,0.0154737 0.00332,0.0160109 -0.0356419,0.0160109 -0.0227744,0 -0.0385101,-0.002992 -0.0361671,-0.006877 z M 0.00277063,0.35863403 c 0,-0.0107054 0.05695593,-0.0118446 0.50200781,-0.0100405 0.33102167,0.001342 0.50200746,0.004762 0.50200746,0.0100405 0,0.005279 -0.17098579,0.008699 -0.50200746,0.0100405 -0.44505188,0.001804 -0.50200781,6.6488e-4 -0.50200781,-0.0100405 z" id="path4892" inkscape:connector-curvature="0" sodipodi:nodetypes="csssscsssssccssssssssscssssssssccsscsssccsscsssssssssssscscssscssccsscsssssssscsssscsscssssssssssssssssssssssssssssssssssssssssssscsssssssssssssssscsssssssssssscsssscssssssssssssscscsccsscscsscscsccssssssssss" />
</svg>