<?xml version="1.0" encoding="utf-8" standalone="no"?>
<svg xmlns:dc="http://purl.org/dc/elements/1.1/" xmlns:cc="http://creativecommons.org/ns#" xmlns:rdf="http://www.w3.org/1999/02/22-rdf-syntax-ns#" xmlns:svg="http://www.w3.org/2000/svg" xmlns="http://www.w3.org/2000/svg" xmlns:sodipodi="http://sodipodi.sourceforge.net/DTD/sodipodi-0.dtd" xmlns:inkscape="http://www.inkscape.org/namespaces/inkscape" height="1" version="1.1" width="1" id="svg2" inkscape:version="0.91 r13725" sodipodi:docname="SP.svg">
  <metadata id="metadata8">
    <rdf:RDF>
      <cc:Work rdf:about="">
        <dc:format>image/svg+xml</dc:format>
        <dc:type rdf:resource="http://purl.org/dc/dcmitype/StillImage" />
        <dc:title></dc:title>
      </cc:Work>
    </rdf:RDF>
  </metadata>
  <defs id="defs6">
    <pattern width="1" height="1" id="SP" patternContentUnits="objectBoundingBox">
      <path style="fill:#000000" d="m 0.0218154,0.86474332 c 0.0021723,-0.004115 0.01142377,-0.0122158 0.02056384,-0.01799 0.0091393,-0.005776 0.02129081,-0.0165923 0.02700304,-0.0240398 0.0057119,-0.007445 0.01708507,-0.0139223 0.02527313,-0.0143882 0.01622524,-9.2086e-4 0.04830307,-0.049496 0.06842954,-0.10361487 0.00583,-0.0156771 0.0203148,-0.0412746 0.0321874,-0.0568838 0.0118731,-0.0156091 0.0241533,-0.0347665 0.0272891,-0.0425719 0.005113,-0.012724 0.004319,-0.0141912 -0.007678,-0.0141912 -0.0114671,0 -0.0211219,0.0152218 -0.0675489,0.10650361 -0.0297935,0.0585767 -0.05595395,0.10650368 -0.05813435,0.10650368 -0.0021782,0 0.01910748,-0.0458413 0.04730712,-0.10186985 0.0475328,-0.0944401 0.0503943,-0.10189714 0.0392335,-0.10224334 -0.009557,-2.9479e-4 -0.0194059,0.0141881 -0.0477742,0.0702594 -0.03543217,0.0700336 -0.09876658,0.1735665 -0.10205303,0.16682658 -9.3545e-4,-0.001926 0.01546592,-0.0311331 0.03645804,-0.064899 0.0340118,-0.0547084 0.08594195,-0.15180328 0.08594195,-0.16068681 0,-0.001843 -0.004567,-0.003352 -0.0101514,-0.003352 -0.006847,0 -0.0186553,0.0171193 -0.0362841,0.0526077 -0.02699522,0.0543437 -0.07195483,0.12631823 -0.07890621,0.12631823 -0.0021747,0 0.01064903,-0.0226775 0.02849856,-0.0503938 0.01784837,-0.027717 0.03984136,-0.0660581 0.04887334,-0.085203 l 0.0164215,-0.034808 -0.0131488,0 c -0.01008816,0 -0.01919828,0.0110704 -0.03913251,0.0475501 -0.03593233,0.0657576 -0.04904467,0.0768311 -0.015874,0.0134066 0.02398432,-0.0458602 0.02586125,-0.0516766 0.01679269,-0.0520339 -0.0063488,-2.5266e-4 -0.01617021,0.0115324 -0.02596478,0.0311481 -0.0086648,0.017352 -0.01575386,0.027073 -0.01575386,0.0216001 0,-0.005474 0.0037394,-0.0140537 0.0083084,-0.0190697 0.01039662,-0.0114124 0.0107799,-0.0255612 6.8877e-4,-0.0255612 -0.01873201,0 -0.0097095,-0.0150987 0.03903296,-0.0653181 0.02873718,-0.0296078 0.05627355,-0.0596134 0.06119222,-0.0666795 0.008925,-0.0128222 0.008922,-0.0128471 -0.002146,-0.0128471 -0.006097,0 -0.0224969,0.0137139 -0.03644169,0.0304769 -0.0254131,0.040928 -0.11466357,0.10032268 -0.04051665,0.0310402 0.01656284,-0.0153706 0.03478806,-0.0354136 0.04050019,-0.0445426 0.01822078,-0.0291162 -0.0012153,-0.0201963 -0.037481,0.0172016 -0.02769109,0.032647 -0.0486152,0.0362412 -0.01133262,2.5265e-4 C 0.05902277,0.5103119 0.06465893,0.5012501 0.0603423,0.4993692 0.0565152,0.4977012 0.04584149,0.5042322 0.03662067,0.5138804 0.0023086,0.5339416 0.02471842,0.4954284 0.04860494,0.4632601 0.06724487,0.4378464 0.06726287,0.437773 0.05483564,0.4380068 0.04798094,0.43813309 0.03874362,0.4438708 0.03430872,0.4507509 0.01271386,0.4831478 0.02258721,0.4302916 0.02854072,0.4298511 0.09482736,0.4258341 0.26510451,0.3919959 0.32901981,0.3701426 l 0.0207714,-0.007102 -0.0166425,-0.001012 C 0.32399571,0.3614693 0.29314941,0.3665616 0.26460251,0.3733334 0.15023141,0.4098862 -0.07882843,0.4097701 0.12130466,0.3862602 0.16700206,0.3809442 0.20516926,0.375007 0.20612156,0.373066 0.20879856,0.367607 0.18980096,0.368725 0.10846756,0.378805 0.10166456,0.37790493 -0.01093795,0.398298 0.02990981,0.370611 0.05607466,0.3529876 0.11091872,0.2994356 0.11091872,0.2915105 c 0,-0.0158382 -0.02191623,-0.00559 -0.04659303,0.0217883 C 0.04782537,0.3438964 -0.00192765,0.360659 0.04029533,0.3267838 0.04829173,0.3205118 0.05843011,0.3104463 0.06282281,0.3044149 0.07028281,0.2941738 0.07032841,0.293069 0.06352363,0.2877125 0.05921283,0.2843195 0.04977945,0.2894215 0.04043044,0.3001961 0.00380564,0.3329078 0.02586735,0.311828 0.03198884,0.2937211 0.012379,0.2677997 0.03902234,0.2773629 0.05022142,0.2769739 0.09417527,0.2755919 0.16745901,0.251396 0.2417811,0.2137244 0.2894899,0.1895423 0.2936797,0.1860403 0.2777133,0.1836887 0.2677045,0.1822157 0.2352626,0.1925457 0.2050132,0.2068404 0.10131521,0.2558425 0.04139819,0.2757992 0.04624248,0.2597224 0.04780948,0.2545144 0.05599638,0.2502194 0.06442962,0.2501784 0.0797809,0.25010168 0.20234803,0.2019038 0.20594497,0.1945266 0.21173597,0.1826502 0.14274327,0.1925176 0.12299537,0.2063884 0.10472497,0.233272 -0.02758364,0.2634179 0.05504073,0.2310089 0.07571617,0.2230109 0.10001869,0.2109186 0.10904646,0.2041385 l 0.016414,-0.0123273 -0.02908015,-5.3906e-4 c -0.01741903,-3.2004e-4 -0.03949196,0.005959 -0.05504458,0.0156593 -0.01478512,0.0164811 -0.04076509,0.009554 -0.01246309,-0.004343 l 0.01350169,-0.006413 c -0.01037908,-0.005306 -0.02289942,-0.009992 -0.03114988,-0.0213242 4.2e-6,-0.00305 0.07805305,-0.006389 0.1734424,-0.007423 0.0953889,-0.001034 0.25195125,-0.006028 0.34791575,-0.0110972 0.0959645,-0.005069 0.23623916,-0.0114435 0.31172144,-0.0141641 l 0.13724051,-0.004947 0,0.0181738 c 0,0.0121 -0.002609,0.0181738 -0.007801,0.0181738 -0.004291,0 -0.0125548,0.007668 -0.0183645,0.0170406 l -0.0105626,0.0170406 0.0192545,0 c 0.0105894,0 0.0192545,0.003526 0.0192545,0.007835 0,0.00431 -0.0107496,0.0214604 -0.0238874,0.0381133 -0.019601,0.0248449 -0.0220237,0.0302648 -0.0135013,0.0302043 0.005712,-4.256e-5 0.0150596,-0.005553 0.0207716,-0.0122503 0.0135932,-0.0159367 0.020957,-0.0157491 0.0106303,2.695e-4 -0.007983,0.012383 -0.007983,0.0125113 0,0.0126967 0.004718,1.0952e-4 5.4873e-4,0.007183 -0.010045,0.0170406 -0.0206613,0.0192283 -0.0228468,0.0201732 -0.0192791,0.008333 0.003783,-0.0125635 -0.0153951,-0.009881 -0.0238874,0.003339 -0.0101349,0.0157782 -0.009072,0.0245634 0.00208,0.017169 0.005143,-0.00341 0.016825,-0.0068 0.0259647,-0.007533 0.009139,-7.3509e-4 0.0196093,-0.004144 0.0232665,-0.007579 0.00567,-0.005326 0.006276,-0.001524 0.004113,0.0257898 -0.002169,0.02736 -0.007575,0.040477 -0.0370436,0.0898862 -0.0303147,0.0508268 -0.0331525,0.0578516 -0.0233695,0.0578516 0.007308,0 0.019183,-0.0141412 0.0345483,-0.0411427 0.0319928,-0.0562201 0.0411653,-0.0639248 0.0130273,-0.0109427 -0.0177223,0.0333696 -0.0209843,0.0430764 -0.0145402,0.0432617 0.004573,1.3478e-4 0.0140851,-0.006985 0.0211452,-0.0158146 l 0.0128366,-0.0160541 -0.00175,0.0187851 c -0.001416,0.0151999 -0.006292,0.0207083 -0.0255491,0.0288662 -0.0130889,0.005543 -0.0321359,0.0100811 -0.0423265,0.0100811 -0.0101896,0 -0.0325111,0.007956 -0.0496016,0.0176781 -0.0170904,0.009722 -0.0537063,0.0231178 -0.0813681,0.0297656 -0.0635873,0.0152815 -0.1517318,0.042195 -0.19480952,0.0594813 -0.0182789,0.007332 -0.0575375,0.0224895 -0.0872408,0.0336776 -0.13162757,0.049579 -0.38226166,0.16633595 -0.44658766,0.20804427 -0.02906951,0.0188485 -0.04155983,0.022491 -0.03510415,0.0102375 z m 0.14311606,-0.0994964 c 0.007996,-0.011389 0.0248218,-0.0397373 0.0373888,-0.0629947 l 0.0228486,-0.0422872 -0.0161312,-3.7023e-4 c -0.0147238,-3.3691e-4 -0.0190729,0.005648 -0.0498517,0.068605 -0.0300609,0.0614891 -0.0323679,0.0683656 -0.0212574,0.0633639 0.006855,-0.003081 0.019006,-0.0149289 0.027003,-0.0263178 z m 0.034546,-0.005082 c 0.007577,-0.008205 0.0292173,-0.0414234 0.0643123,-0.0987192 0.008934,-0.0145875 0.004599,-0.020373 -0.0105941,-0.0141398 -0.009628,0.003949 -0.0561319,0.0736513 -0.0796085,0.11931865 -0.004067,0.007911 0.0176173,0.0025 0.0258914,-0.006456 z m 0.0651571,-0.0461004 c 0.0102826,-0.015351 0.0252375,-0.0421551 0.0332347,-0.0595643 l 0.0145398,-0.0316533 -0.0140925,0.005437 c -0.007751,0.00299 -0.0161637,0.0105078 -0.0186944,0.0167025 -0.002533,0.006191 -0.0158182,0.0299641 -0.0295275,0.0528207 -0.0137092,0.0228572 -0.0267367,0.0446854 -0.0289505,0.0485091 -0.0120123,0.0207498 0.0277311,-0.008726 0.0434903,-0.0322551 z m 0.040289,-0.0278753 c 0.0132564,-0.0226609 0.0266685,-0.0475826 0.0298043,-0.0553819 0.004965,-0.0123471 0.004697,-0.0141329 -0.002076,-0.013812 -0.009452,4.4716e-4 -0.0675345,0.1103957 -0.0583192,0.1103957 0.003568,0 0.0173354,-0.0185404 0.0305921,-0.0412021 z m 0.015758,0.0156688 c 0.0116189,-0.00906 0.0561194,-0.0912287 0.0561194,-0.10362211 0,-0.0163031 -0.0283942,0.0193401 -0.0512684,0.0643584 -0.0242987,0.0478212 -0.0252018,0.0551328 -0.00485,0.0392638 z m 0.0600372,-0.0604281 c 0.0161239,-0.0285333 0.0293169,-0.0553721 0.0293169,-0.0596421 0,-0.0111927 -0.009818,-0.009545 -0.0171975,0.002885 -0.0145026,0.0244308 -0.050124,0.10863371 -0.0459563,0.10863371 0.002488,0 0.0177131,-0.0233458 0.0338372,-0.0518791 z m 0.0367982,-0.0273017 c 0.012112,-0.0188795 0.0239563,-0.0417397 0.0263208,-0.0508015 0.009193,-0.0352309 -0.0151031,-0.004689 -0.0441881,0.0555473 -0.0299018,0.061927 -0.0238814,0.0603285 0.0178673,-0.004749 z m 0.0210558,0.018813 c 0.0117227,-0.019143 0.0213142,-0.0360381 0.0213142,-0.0375437 0,-0.00151 -0.004207,-6.2853e-4 -0.009348,0.001933 -0.008026,0.004009 -0.048813,0.0607513 -0.048813,0.0679043 0,0.001382 0.003493,0.002507 0.007766,0.002507 0.004271,0 0.0173574,-0.0156628 0.02908,-0.0348066 z m 0.0308223,-0.016103 c 0.0229045,-0.0443402 0.010947,-0.0442292 -0.0136626,1.2633e-4 -0.0131966,0.0237861 -0.016509,0.0337018 -0.0112638,0.0337177 0.004088,1.707e-5 0.0153039,-0.015218 0.024926,-0.0338453 z m -0.23055921,0.00873 c 0.008478,-0.00914 0.0210214,-0.0247412 0.0278758,-0.0346691 l 0.0124629,-0.0180504 -0.0186944,0.005626 c -0.0134038,0.004039 -0.0227896,0.0138468 -0.0331652,0.0346691 -0.0161919,0.0324937 -0.0116435,0.037398 0.0115208,0.0124219 z m 0.0445394,-0.0175165 c 0.0261606,-0.0306981 0.0367512,-0.0523192 0.0220013,-0.0449164 -0.009235,0.004636 -0.0573591,0.061252 -0.0573591,0.0674829 0,0.0100827 0.0165189,-4.6182e-4 0.0353577,-0.0225658 z m 0.20343093,0.0173738 c 0.001366,-0.00453 0.007792,-0.006064 0.0142815,-0.003405 0.006671,0.002733 0.01303,7.4573e-4 0.0146335,-0.004569 0.001565,-0.005195 0.007294,-0.007113 0.0127869,-0.004289 0.008016,0.004131 0.0144292,-0.003564 0.0329798,-0.0395463 0.0126658,-0.0245675 0.0230288,-0.0478265 0.0230288,-0.0516858 0,-0.007922 -0.0118022,-7.4044e-4 -0.0198728,0.0120927 -0.002936,0.004659 -0.0106724,0.00934 -0.0171976,0.010393 -0.007918,0.001276 -0.0170147,0.0136052 -0.0273466,0.0370597 -0.008515,0.0193302 -0.0175003,0.0351463 -0.0199673,0.0351463 -0.002467,0 0.001901,-0.0135145 0.009707,-0.0300321 l 0.0141924,-0.0300321 -0.0127417,0.009109 c -0.0157506,0.0112614 -0.0439259,0.0679941 -0.0337677,0.0679941 0.00374,0 0.007919,-0.003707 0.009285,-0.008241 z m 0.0517289,-0.0459441 c 0.007841,-0.0169193 0.0151513,-0.0289259 0.0162454,-0.0266818 0.002742,0.005626 -0.0119615,0.0379167 -0.0221467,0.0486443 -0.00515,0.005421 -0.002885,-0.003005 0.005901,-0.0219625 z M 0.11433781,0.56165716 c 0.0289692,-0.0302329 0.0564095,-0.0607838 0.0609793,-0.0678914 0.008013,-0.0124635 0.007862,-0.0129324 -0.004269,-0.0131944 -0.006918,-1.5155e-4 -0.0171995,0.00638 -0.0228489,0.0145052 -0.005649,0.008128 -0.032705,0.0387028 -0.06012334,0.0679466 -0.0378124,0.0403292 -0.04702094,0.0532223 -0.03813047,0.0533862 0.006447,1.1794e-4 0.03542304,-0.02452 0.0643916,-0.0547522 z m 0.21823549,0.0230173 c 0.0286165,-0.0307977 0.0292022,-0.0320474 0.0162298,-0.0346147 -0.0103359,-0.002046 -0.0189245,0.005369 -0.0370263,0.0319508 -0.0298557,0.0438472 -0.0187871,0.0452645 0.0207964,0.002666 z m -0.17711421,0.009213 c 0.0164967,-0.002899 0.0291898,-0.007946 0.0282073,-0.011207 -9.8405e-4,-0.003262 -0.0134644,-0.00265 -0.0277377,0.001352 -0.0142731,0.004002 -0.0278653,0.005972 -0.0302052,0.004372 -0.002337,-0.001601 0.0134701,-0.0202408 0.0351326,-0.0414248 0.0216629,-0.021184 0.0440606,-0.0466977 0.0497729,-0.0566965 l 0.010385,-0.0181803 -0.0145399,0.005369 c -0.007996,0.002952 -0.0198437,0.0129634 -0.0263257,0.0222487 -0.006482,0.009286 -0.0307846,0.0377521 -0.0540059,0.0632582 l -0.04222066,0.0463752 0.0207715,-0.005089 c 0.0114238,-0.002801 0.0342688,-0.007468 0.0507652,-0.0103696 z m 0.43777539,-0.0425726 c 0.0291157,-0.0576502 0.0334906,-0.0729429 0.0150219,-0.0525095 -0.0130504,0.0144388 -0.055299,0.10930053 -0.0486786,0.10930053 0.002738,0 0.0178818,-0.0255552 0.0336568,-0.0567909 z m -0.20777464,0.0129377 c 0.0112321,-0.0141737 0.0204215,-0.0277857 0.0204215,-0.0302481 0,-0.0125979 -0.0315671,0.0103651 -0.0507831,0.0369419 l -0.0219174,0.0303122 0.0159293,-0.005618 c 0.008761,-0.003088 0.0251185,-0.0172145 0.0363498,-0.0313882 z m 0.21137359,0.0209514 c 0.006499,-0.009336 0.0105461,-0.0110862 0.0115371,-0.004991 0.004206,0.0258746 0.0562032,-0.0425175 0.0924659,-0.12161873 l 0.01454,-0.0317167 -0.0138535,0.005341 c -0.009445,0.003638 -0.0254377,0.0270559 -0.0502532,0.0735725 -0.0200196,0.0375271 -0.0380883,0.0681784 -0.0401525,0.0681149 -0.002067,-5.965e-5 0.0112029,-0.0286427 0.0294815,-0.0635074 0.0289773,-0.0552707 0.0319041,-0.0634073 0.022849,-0.063515 -0.0122357,-1.4318e-4 -0.0135877,0.002041 -0.0539021,0.0871451 -0.0295404,0.0623611 -0.0345567,0.0825523 -0.0127128,0.051173 z m -0.1322608,-0.0387754 c 0.002151,-0.008254 0.002994,-0.0150059 0.00186,-0.0150059 -0.003504,0 -0.0231633,0.0462424 -0.0231633,0.0544856 0,0.0100894 0.0162045,-0.0199419 0.0213027,-0.039479 z m -0.25077995,0.0302617 c -0.003972,-0.002129 -0.0114495,-0.002212 -0.0166173,-1.6846e-4 -0.005168,0.002039 -0.001916,0.003783 0.007223,0.003881 0.009139,9.264e-5 0.0133675,-0.001571 0.009395,-0.003707 z m 0.005188,-0.0468539 c 0.0171597,-0.01848 0.0358541,-0.0412338 0.0415431,-0.0505644 l 0.0103428,-0.0169653 -0.0186944,0.005776 c -0.0102826,0.003179 -0.0234569,0.0126847 -0.0292778,0.0211296 -0.005821,0.008444 -0.0245153,0.0310379 -0.041543,0.050208 l -0.0309601,0.0348541 0.0186944,-0.005421 c 0.0102826,-0.002975 0.0327347,-0.0205384 0.0498946,-0.0390184 z m 0.0693632,0.0272413 c 0.0172387,-0.0106211 0.003405,-0.008838 -0.0340941,0.004394 l -0.0332346,0.011728 0.0278629,-0.004486 c 0.0153245,-0.002469 0.0330842,-0.007704 0.0394658,-0.0116359 z m 0.19733333,-0.0146035 c 0.0161367,-0.0323162 0.0192946,-0.0451324 0.0111211,-0.0451324 -0.005115,0 -0.0327562,0.0589217 -0.0327562,0.0698275 0,0.0133922 0.006085,0.006449 0.021635,-0.0246951 z m 0.17492921,0.0216801 c 0.0139456,-0.0151691 0.0701503,-0.10466504 0.0814597,-0.12971107 l 0.0100718,-0.0223044 -0.009197,0 c -0.005539,0 -0.0202858,0.0211821 -0.0370744,0.0532521 -0.0153323,0.029289 -0.0353549,0.0655839 -0.0444944,0.080657 -0.0168811,0.0278409 -0.0172265,0.0360109 -7.609e-4,0.018107 z M 0.43575329,0.54330551 c 0.0306841,-0.0224314 0.0485671,-0.0443607 0.0282892,-0.0346902 -0.005712,0.002718 -0.0182115,0.007506 -0.0277765,0.0106225 -0.0102423,0.003338 -0.0212119,0.0140122 -0.0266883,0.0259682 -0.0115756,0.0252713 -0.0109294,0.0252245 0.0261757,-0.001896 z m 0.077276,-0.0143354 c 0.019479,-0.0407068 0.0213151,-0.0491298 0.009305,-0.0426881 -0.0101638,0.005452 -0.0403645,0.0792219 -0.0324321,0.0792219 0.003106,0 0.0135116,-0.0164405 0.0231268,-0.0365334 z m 0.20493152,-0.004674 c 0.0168586,-0.0226647 0.039999,-0.0589369 0.0514232,-0.0806058 l 0.0207714,-0.0393983 -0.0127775,-3.369e-4 c -0.008563,-2.274e-4 -0.0160989,0.006982 -0.0228488,0.021856 -0.005539,0.0122073 -0.0254942,0.0473331 -0.0443444,0.0780579 -0.0188503,0.0307253 -0.034273,0.0571617 -0.034273,0.0587481 0,0.0113285 0.0158841,-0.003149 0.0420485,-0.0383215 z M 0.27250692,0.50799157 c 0.0377262,-0.0419519 0.0423942,-0.0493835 0.032484,-0.0517174 -0.008282,-0.001949 -0.0235462,0.011981 -0.0536784,0.0489916 -0.0551726,0.0677676 -0.0391491,0.0698283 0.0211945,0.002726 z m 0.48414778,0.004938 c 0.0240634,-0.0391717 0.0542806,-0.0955541 0.0582245,-0.10864224 0.00699,-0.0231977 -0.0119533,-0.005462 -0.0307642,0.028803 -0.0114717,0.020896 -0.0316304,0.0540372 -0.0447975,0.0736474 -0.0333778,0.0497104 -0.0346819,0.0530841 -0.0177085,0.0458067 0.007996,-0.003428 0.0237676,-0.0212557 0.0350456,-0.0396149 z m -0.45097843,-0.003239 c 0.0196974,-0.0213252 0.040487,-0.046468 0.0461992,-0.0558733 l 0.0103861,-0.0171002 -0.0134096,0.005386 c -0.0190238,0.007643 -0.10144932,0.10635946 -0.0888067,0.10635946 0.0054,0 0.0259335,-0.0174478 0.0456309,-0.0387729 z m 0.23522051,0.004689 c 0.0133416,-0.0280228 0.014784,-0.0340537 0.008112,-0.0339276 -0.004462,8.427e-5 -0.0142941,0.0154211 -0.0218491,0.0340817 -0.0180912,0.0446845 -0.007556,0.044566 0.0137364,-1.5162e-4 z M 0.34586382,0.49799348 c 0.0181582,-0.0183856 0.0404924,-0.0434758 0.049632,-0.0557561 l 0.0166169,-0.0223279 -0.01454,0.005497 c -0.0154189,0.005829 -0.10127079,0.10601491 -0.0908473,0.10601491 0.003368,0 0.0209803,-0.0150428 0.0391381,-0.0334285 z m 0.0257449,0.0275547 c -0.003999,-0.002145 -0.0105427,-0.002145 -0.0145402,0 -0.003999,0.002145 -7.2485e-4,0.003896 0.00727,0.003896 0.007996,0 0.0112684,-0.001751 0.00727,-0.003896 z m 0.40402721,-0.00265 c 0.001923,0 0.009209,-0.00986 0.0161925,-0.0219111 0.006983,-0.0120512 0.0146228,-0.0194699 0.0169776,-0.0164851 0.006199,0.007858 0.0365362,-0.025574 0.0582039,-0.0641427 0.0174426,-0.0310493 0.0179992,-0.0332913 0.008308,-0.0334926 -0.006807,-1.4318e-4 -0.0192054,0.0159209 -0.0359775,0.0466075 -0.0140756,0.0257529 -0.0271614,0.0466575 -0.0290803,0.0464545 -0.001917,-2.0206e-4 0.006794,-0.019331 0.0193606,-0.0425075 0.0227564,-0.041969 0.0227987,-0.0421373 0.0103861,-0.0418401 -0.00983,2.358e-4 -0.0199235,0.0149136 -0.0477746,0.0694721 -0.0194212,0.0380451 -0.0318871,0.0666244 -0.0277018,0.0635097 0.004186,-0.003119 0.009182,-0.005663 0.011106,-0.005663 z m 0.0228278,0 c 0.003251,-0.0107834 -0.002252,-0.0107834 -0.010385,0 -0.005371,0.007121 -0.005261,0.008277 7.9435e-4,0.00839 0.003862,6.818e-5 0.00818,-0.0037 0.009592,-0.00839 z m 0.0437939,-0.0306709 0.0185208,-0.0391917 -0.0146765,0.0158251 c -0.008071,0.008703 -0.0211578,0.0262975 -0.0290804,0.0390969 -0.0141597,0.0228784 -0.0142251,0.023274 -0.003847,0.023367 0.007131,6.818e-5 0.0165725,-0.0126303 0.0290804,-0.0390977 z m -0.43941249,0.0250825 c -0.002813,-0.002334 -0.008421,-0.002477 -0.0124631,-3.1163e-4 -0.004042,0.002159 -0.001742,0.00407 0.005114,0.004244 0.006855,1.7684e-4 0.0101617,-0.001593 0.007351,-0.003926 z m 0.16344447,-0.0159777 c 0.003788,-0.0118624 0.005702,-0.0240034 0.00425,-0.0269815 -0.001451,-0.002975 -0.00311,-0.00382 -0.003679,-0.001865 -5.7484e-4,0.001956 -0.005571,0.0140937 -0.0111106,0.0269808 -0.008218,0.0191226 -0.008809,0.0234304 -0.003212,0.0234304 0.003773,0 0.00996,-0.009704 0.0137499,-0.0215668 z m 0.3183759,-0.0354208 c 0.0154228,-0.0252933 0.0280414,-0.0475561 0.0280414,-0.0494727 0,-0.001917 -0.008414,0.002909 -0.0186947,0.0107253 -0.0214536,0.0163076 -0.0649268,0.0986533 -0.0474083,0.0897995 0.005511,-0.002786 0.0226389,-0.025759 0.0380612,-0.0510522 z M 0.40726798,0.46539081 c 0.0381419,-0.0405548 0.0441415,-0.0494552 0.0348383,-0.0516817 -0.0072,-0.001721 -0.0198334,0.007891 -0.0351562,0.0267549 -0.0131545,0.0161947 -0.0323294,0.0394154 -0.0426114,0.0516013 -0.0362542,0.0429675 -0.003326,0.0225084 0.0429292,-0.0266742 z m 0.0207297,0.0177446 c 0.006609,-0.007007 0.0225643,-0.0266841 0.0354549,-0.0437193 0.0331868,-0.0438579 0.0171523,-0.0464701 -0.0189925,-0.003095 -0.0155062,0.0186088 -0.0356707,0.0420281 -0.0448101,0.0520439 l -0.0166169,0.0182105 0.0164734,-0.005346 c 0.009061,-0.002937 0.0218814,-0.0110824 0.0284909,-0.0180926 z m 0.022456,0.0175792 c -0.001381,-0.002832 -0.004964,-0.003134 -0.007962,-6.7648e-4 -0.003314,0.002718 -0.002332,0.004742 0.002508,0.005142 0.004379,3.7021e-4 0.006833,-0.001638 0.005453,-0.004477 z m 0.1422254,-0.0113331 c 0.006367,-0.0243983 0.005256,-0.0335583 -0.0035,-0.0288609 -0.004291,0.002303 -0.009859,0.0134451 -0.012374,0.0247631 -0.003981,0.0179152 -0.003527,0.0205784 0.003501,0.0205784 0.00444,0 0.0100088,-0.007415 0.0123734,-0.0164805 z m -0.0827064,-0.009585 c 0.0234709,-0.009651 0.0483338,-0.0235474 0.0552507,-0.0308842 0.0241542,-0.0256182 0.0384251,-0.0308676 0.10030183,-0.0368979 0.0342731,-0.003339 0.0791396,-0.0102976 0.0997034,-0.0154608 0.0205638,-0.005162 0.0654304,-0.0143123 0.0997034,-0.0203319 0.0342729,-0.006019 0.053902,-0.0119898 0.04362,-0.0132683 -0.0102826,-0.001279 -0.0663651,0.006861 -0.12462929,0.0180878 -0.0582641,0.0112265 -0.10686956,0.0176004 -0.10801194,0.0141636 -0.003882,-0.0116815 -0.0779794,0.0151912 -0.12528129,0.0454361 -0.0259175,0.0165719 -0.057872,0.0344632 -0.0710097,0.0397594 -0.0131381,0.005293 -0.0238877,0.0112742 -0.0238877,0.013285 0,0.006675 0.0111714,0.00382 0.05424,-0.0138898 z m 0.41536037,-0.0341037 c 0.0328613,-0.0496261 0.0455776,-0.0761547 0.0365043,-0.0761547 -0.008509,0 -0.0387797,0.0425049 -0.0636706,0.0894014 -0.016777,0.0316087 -0.0187742,0.0380428 -0.0103861,0.0334571 0.005712,-0.003119 0.0226106,-0.0241394 0.0375522,-0.0467038 z m -0.8564153,0.0203405 c 0.01042818,-0.0125337 0.01679772,-0.0242673 0.01415516,-0.0260735 -0.0042547,-0.002909 -0.03861659,0.0377864 -0.03861659,0.0457344 0,0.007143 0.006531,0.001887 0.02446167,-0.019661 z m 0.40550944,-0.004984 c 0.009139,-0.009383 0.0218657,-0.024646 0.0282807,-0.0339177 0.006416,-0.009272 0.0126358,-0.0148625 0.0138248,-0.012425 0.001188,0.00244 -0.004961,0.0143581 -0.0136668,0.0264901 -0.008706,0.0121321 -0.013881,0.0220584 -0.0115021,0.0220584 0.004594,0 0.0509756,-0.0553079 0.057634,-0.0687281 0.007408,-0.0149302 -0.0113969,-0.008326 -0.0198047,0.006956 -0.005553,0.0100915 -0.008754,0.0117038 -0.009902,0.004991 -0.002747,-0.0160439 -0.0223163,-5.961e-5 -0.0536826,0.0438349 -0.0280698,0.0392878 -0.0239133,0.0443508 0.008821,0.0107452 z m 0.14456833,0.0129731 0.0132953,-0.0147937 -0.0120122,-0.00293 c -0.0108746,-0.002652 -0.0189048,0.008343 -0.0190815,0.0261261 -7.59e-5,0.009466 0.003091,0.007963 0.0177985,-0.008404 z M 0.10053909,0.45473592 c 0.011585,-0.0140944 0.0175172,-0.0253343 0.0134129,-0.0254158 -0.006552,-1.2635e-4 -0.04041547,0.0399619 -0.04041547,0.0478486 0,0.00749 0.0075898,0.001186 0.0270027,-0.0224329 z m 0.0237566,0.002424 c 0.0113993,-0.0127244 0.0188026,-0.024451 0.0164512,-0.0260587 -0.003964,-0.002711 -0.0278301,0.0199889 -0.0422846,0.0402144 -0.01357485,0.0189943 0.005499,0.008542 0.0258333,-0.0141557 z m 0.0376578,-0.008341 c 0.0139689,-0.014797 0.0192073,-0.0240575 0.0147376,-0.0260528 -0.006527,-0.002914 -0.0491487,0.0360158 -0.0491487,0.0448934 0,0.0101869 0.0145062,0.002251 0.0344112,-0.0188405 z m 0.036212,-0.004421 c 0.0149686,-0.0178327 0.0204639,-0.0282565 0.015934,-0.0302258 -0.006105,-0.002653 -0.0533227,0.0453066 -0.0533227,0.0541587 0,0.0109412 0.0175383,-2.8625e-4 0.0373885,-0.0239334 z m 0.0343916,-0.008345 c 0.0170348,-0.0179307 0.0233672,-0.0283098 0.0185756,-0.0304457 -0.006408,-0.002855 -0.052967,0.0446254 -0.052967,0.0540163 0,0.00883 0.0103463,0.001744 0.0343916,-0.0235706 z m 0.018714,0.006585 c 0.0107776,-0.0113416 0.0233335,-0.0265562 0.0279032,-0.0338101 0.008261,-0.0131138 0.008258,-0.0131904 -5.265e-4,-0.01346 -0.004861,-1.5155e-4 -0.0112789,0.005761 -0.0142626,0.0131324 -0.002985,0.007371 -0.0125587,0.0208694 -0.0212799,0.0299941 -0.008721,0.009126 -0.0158568,0.0184303 -0.0158568,0.0206782 0,0.007264 0.004076,0.004455 0.0240255,-0.0165341 z m 0.0369519,-0.0133626 c 0.0118313,-0.013917 0.0226908,-0.0292174 0.0241322,-0.0340013 0.005484,-0.0181996 -0.008135,-0.007427 -0.0320918,0.0253833 -0.0289682,0.0396736 -0.0234873,0.0456081 0.007959,0.008618 z m 0.019266,0.007157 c 0.00499,-0.005382 0.01445,-0.0189593 0.0210203,-0.0301714 0.0157418,-0.0268625 0.019481,-0.0182876 0.004112,0.00943 -0.017648,0.031828 -0.004537,0.0265061 0.0225691,-0.009162 0.0232322,-0.0305699 0.0239794,-0.0448087 0.0017,-0.0323873 -0.006186,0.003452 -0.0153885,0.007381 -0.0204513,0.00874 -0.0100295,0.00269 -0.0512487,0.0633369 -0.0430476,0.0633369 0.002765,0 0.009108,-0.004405 0.0140988,-0.009786 z m 0.25145676,-0.0241091 c 0.0140633,-0.0186423 0.02557,-0.035896 0.02557,-0.0383415 0,-0.0126445 -0.0130212,-7.404e-4 -0.0333462,0.0304841 -0.0274762,0.0422108 -0.0272347,0.0417528 -0.0219963,0.0417528 0.002314,0 0.0157089,-0.015253 0.0297724,-0.0338953 z m 0.0485217,0.0250338 c 0.001752,-0.005813 -0.00138,-0.006865 -0.009102,-0.003063 -0.0159166,0.007842 -0.0174233,0.0119233 -0.004401,0.0119233 0.005957,0 0.0120345,-0.00399 0.0135034,-0.008862 z m 0.0445558,-0.0053 c -0.002854,-0.002365 -0.00753,-0.002365 -0.010385,0 -0.002854,0.002365 -5.1445e-4,0.004299 0.005191,0.004299 0.005712,0 0.008049,-0.001934 0.005193,-0.004299 z M 0.38354819,0.39753682 c 0.0127798,-0.0174033 0.0210931,-0.0331075 0.0184742,-0.0348978 -0.004083,-0.002792 -0.0501471,0.0557188 -0.0501471,0.0636964 0,0.009231 0.011273,-0.001017 0.031673,-0.0287988 z m 0.51242492,0.0147235 c 0.008894,-0.009305 0.0175222,-0.0214063 0.019175,-0.0268907 0.00509,-0.0168845 -0.0219402,-0.001401 -0.0313918,0.0179823 -0.0149012,0.0305614 -0.0111153,0.0333216 0.0122168,0.008908 z M 0.41649236,0.38492587 c 0.0142412,-0.0188618 0.0184218,-0.0281628 0.0136235,-0.0303083 -0.003807,-0.001704 -0.0156344,0.0105431 -0.0262826,0.027213 -0.0240776,0.0376943 -0.0151178,0.0398852 0.012659,0.003095 z m 0.18012208,0.004075 c 0.0138936,-0.0168664 0.0170571,-0.023976 0.0116727,-0.0262319 -0.004064,-0.001699 -0.0139427,0.008709 -0.021955,0.0231375 -0.0179733,0.032366 -0.0146528,0.0333653 0.0102836,0.003095 z M 0.44950147,0.37394811 c 0.0228389,-0.0269898 0.0238823,-0.0294486 0.0124629,-0.0293596 -0.008263,6.819e-5 -0.0179449,0.0100248 -0.0287338,0.0295631 -0.0206096,0.0373241 -0.0154298,0.0372597 0.016271,-2.0215e-4 z m 0.0332343,0.0126291 c 0.003037,-0.0100776 -0.001029,-0.0100776 -0.0124628,0 -0.008011,0.007061 -0.007983,0.007344 7.9433e-4,0.007922 0.005004,3.2839e-4 0.0102578,-0.003239 0.0116704,-0.007922 z m 0.0317356,-0.008237 c 0.007687,-0.0131361 0.008335,-0.0168184 0.002996,-0.0170406 -0.003743,-1.6001e-4 -0.0112227,0.007257 -0.016617,0.0164733 -0.007689,0.0131361 -0.008335,0.0168184 -0.003,0.0170405 0.003747,1.6003e-4 0.0112228,-0.007257 0.0166169,-0.0164738 z m 0.11881938,-0.005294 c 0.0100904,-0.0121289 0.0177326,-0.0232926 0.016982,-0.0248086 -0.003591,-0.007257 -0.0234506,0.007774 -0.0345992,0.0261892 -0.0165153,0.0272801 -0.005511,0.0264178 0.0176174,-0.00138 z m -0.14493163,-0.015645 c 0.006489,-0.006882 0.0154867,-0.0105352 0.0199947,-0.008117 0.004857,0.002605 0.0106175,-0.001625 0.0141382,-0.0103711 0.005425,-0.0134834 0.005187,-0.0139437 -0.002735,-0.00529 -0.004771,0.005215 -0.0125521,0.007399 -0.0172906,0.004858 -0.007315,-0.003921 -0.0467343,0.0335582 -0.0467343,0.0444358 0,0.004197 0.0175644,-0.00954 0.0326264,-0.0255143 z m 0.0480794,0.0162123 c 0.004403,-0.006832 0.006687,-0.0151235 0.005078,-0.0184266 -0.00161,-0.003303 -0.00703,0.002408 -0.012044,0.0126924 -0.0102082,0.0209376 -0.00539,0.0249049 0.006965,0.005733 z m 0.13531837,-0.0125977 c 0.0119975,-0.0163572 0.0159828,-0.025501 0.0111258,-0.0255245 -0.007062,-3.413e-5 -0.0443602,0.0400168 -0.0443602,0.0476345 0,0.0112271 0.0171528,-1.8532e-4 0.0332346,-0.0221105 z m 0.0602374,0.0175296 c 0.0218707,-0.009278 0.00222,-0.0100723 -0.0228485,-9.2086e-4 -0.0140187,0.005119 -0.0155773,0.006966 -0.006232,0.007398 0.006855,3.2003e-4 0.0199406,-0.002594 0.0290801,-0.006474 z m -0.029366,-0.027082 c 0.007012,-0.00877 0.009945,-0.0159391 0.006517,-0.0159327 -0.003428,6.44e-6 -0.0137092,0.009763 -0.0228486,0.0216802 -0.0194297,0.0253358 -0.00425,0.0199937 0.0163315,-0.005748 z m -0.58884893,-0.015224 c 0.0184646,-0.0183137 0.0348337,-0.0374839 0.0363757,-0.0426012 0.006319,-0.0209649 -0.0173507,-0.007053 -0.05665029,0.0332971 -0.03642042,0.0373944 -0.03976879,0.0426013 -0.0273944,0.0426013 0.0078947,0 0.02886771,-0.01465 0.04766915,-0.0332972 z m 0.0357894,-0.001423 c 0.0411402,-0.0419423 0.0461284,-0.0504821 0.0294872,-0.0504821 -0.006855,0 -0.0142387,0.003521 -0.0164094,0.007825 -0.002173,0.004304 -0.0179678,0.0234209 -0.0351041,0.0424819 -0.04192805,0.0466356 -0.0236876,0.04678 0.0220263,1.7685e-4 z m 0.0912578,0.0291322 c -0.002813,-0.002334 -0.008421,-0.002477 -0.0124629,-3.1161e-4 -0.004042,0.002157 -0.001742,0.004069 0.005115,0.004245 0.006855,1.7685e-4 0.0101617,-0.001593 0.007349,-0.003925 z m 0.32707278,-0.007192 c 0.004207,-0.0103946 0.004008,-0.0127803 -0.001065,-0.0127803 -0.003429,0 -0.008558,0.005752 -0.0114027,0.0127803 -0.004207,0.0103944 -0.004008,0.0127803 0.001065,0.0127803 0.003429,0 0.008559,-0.005752 0.0114027,-0.0127803 z M 0.19816576,0.32028251 c 0.0300693,-0.0305805 0.0306723,-0.0317828 0.0172671,-0.0344168 -0.007997,-0.001572 -0.0168093,0.002535 -0.0207715,0.009679 -0.003785,0.006824 -0.0166959,0.0224956 -0.0286917,0.0348237 -0.0119953,0.0123286 -0.02181,0.0246834 -0.02181,0.0274559 0,0.009876 0.0233215,-0.006336 0.0540058,-0.0375425 z m 0.0159202,0.019419 c 0.0121837,-0.0116325 0.0269236,-0.0288482 0.0327564,-0.0382579 0.0186982,-0.0301661 -0.002897,-0.0210968 -0.0302729,0.0127132 -0.0132803,0.0164014 -0.0264826,0.0298209 -0.0293383,0.0298209 -0.002854,0 -0.006347,0.003835 -0.007761,0.00852 -0.004525,0.0150175 0.011807,0.00898 0.0346144,-0.0127964 z m 0.37261757,0.005921 c -0.001278,-0.002627 -0.004631,-5.48e-6 -0.00745,0.005818 -0.004073,0.008414 -0.003595,0.009394 0.002329,0.004768 0.004097,-0.003202 0.006402,-0.007964 0.005123,-0.0105873 z m 0.1372268,0.002147 c 0.007604,-0.0124937 0.007471,-0.0126712 -0.002321,-0.003106 -0.0127164,0.0124213 -0.0150733,0.0163566 -0.009795,0.0163566 0.002229,0 0.007682,-0.005963 0.0121165,-0.0132507 z m 0.0288358,-0.003788 c 0.0103301,-0.0140315 0.0110416,-0.0169053 0.004154,-0.016795 -0.009868,1.6001e-4 -0.0324698,0.0333839 -0.0228485,0.0335901 0.003428,7.671e-5 0.0118398,-0.007485 0.0186944,-0.0167951 z m 0.023441,0.003632 c 0.006953,-0.007376 0.0115932,-0.0155592 0.0103126,-0.0181874 -0.003188,-0.006533 -0.0275224,0.0147864 -0.0275224,0.0241097 0,0.010403 0.00269,0.009478 0.0172096,-0.005922 z m 0.18329272,0.007412 c -0.005111,-0.002024 -0.0144565,-0.002072 -0.0207716,-1.1794e-4 -0.006314,0.001955 -0.002132,0.003617 0.00929,0.003676 0.0114238,5.966e-5 0.0165909,-0.00154 0.011481,-0.003558 z M 0.25884866,0.3264207 c 0.0252978,-0.0296857 0.0307862,-0.0420792 0.0186346,-0.0420792 -0.004627,0 -0.0199832,0.0153365 -0.0341238,0.0340812 -0.0194441,0.0257752 -0.0233985,0.0340812 -0.0162247,0.0340812 0.005217,0 0.0194883,-0.0117374 0.0317137,-0.0260832 z m 0.0424917,-0.008803 c 0.0167607,-0.0190626 0.0295704,-0.0365129 0.028466,-0.0387778 -0.005068,-0.0103944 -0.0330818,0.0100248 -0.0552797,0.0402937 -0.0203698,0.0277766 -0.0227051,0.0333014 -0.0140462,0.0332301 0.005712,-4.262e-5 0.0240992,-0.0156823 0.0408599,-0.0347454 z m 0.50958593,0.0178449 c 0.006855,-0.00931 0.0100336,-0.0169538 0.007063,-0.0169847 -0.006109,-5.966e-5 -0.0299123,0.0237959 -0.0299123,0.0299834 0,0.009203 0.0111901,0.002839 0.0228484,-0.0129993 z M 0.34556286,0.3068563 c 0.0216273,-0.0233069 0.0234626,-0.027107 0.0141717,-0.0293384 -0.006747,-0.001621 -0.0212349,0.0103116 -0.039385,0.0324381 -0.0248725,0.0303211 -0.0267671,0.0342442 -0.0141717,0.0293383 0.007996,-0.003116 0.0257204,-0.0177118 0.039385,-0.032438 z m 0.0281227,0.0314844 c -0.002855,-0.002365 -0.00753,-0.002365 -0.0103861,0 -0.002854,0.002365 -5.1445e-4,0.004299 0.005193,0.004299 0.005712,0 0.008049,-0.001934 0.005193,-0.004299 z m 0.17657893,-0.009268 c 0.002329,-0.0144929 -0.004001,-0.0133982 -0.013767,0.002381 -0.007809,0.0126189 -0.007746,0.0129555 0.001998,0.0106502 0.005533,-0.00131 0.0108301,-0.007173 0.0117706,-0.0130312 z m 0.0622072,0.009763 c -0.001383,-0.002828 -0.004964,-0.003132 -0.007962,-6.7649e-4 -0.003314,0.002722 -0.002332,0.00474 0.002508,0.005146 0.004379,3.7026e-4 0.006833,-0.001641 0.005453,-0.004475 z M 0.8462379,0.3269428 C 0.8557549,0.311676 0.8559289,0.3102697 0.8483179,0.3101477 0.8437449,0.310071 0.8344007,0.3176327 0.8275463,0.3269428 0.8151022,0.3438455 0.8150991,0.343871 0.8254663,0.3437379 0.8311783,0.34366119 0.8405259,0.3361069 0.8462379,0.3269428 Z m 0.0264752,-3.9588e-4 c 0.0105731,-0.009592 0.0192221,-0.0191766 0.0192221,-0.0213003 0,-0.0120265 -0.0205135,-7.1377e-4 -0.0311571,0.0171754 -0.0153188,0.0257529 -0.0128465,0.0266079 0.0119351,0.004128 z M 0.57413072,0.3269428 c 0.001411,-0.004687 -2.2226e-4,-0.00852 -0.003663,-0.00852 -0.003429,0 -0.007388,0.003835 -0.008799,0.00852 -0.00141,0.004687 2.2226e-4,0.00852 0.003663,0.00852 0.003429,0 0.007388,-0.003835 0.008799,-0.00852 z m 0.073739,0.002876 c -0.002854,-0.002365 -0.00753,-0.002365 -0.010385,0 -0.002854,0.002365 -5.1447e-4,0.004299 0.005191,0.004299 0.005712,0 0.008049,-0.001934 0.005193,-0.004299 z M 0.9106298,0.3184212 c 0.009236,-0.0125459 0.0105287,-0.0169431 0.004985,-0.0169847 -0.007672,-5.96e-5 -0.0319896,0.022736 -0.0319896,0.0299834 0,0.009948 0.015658,0.002413 0.027003,-0.0129993 z M 0.37930369,0.3041422 c 0.0133534,-0.0125379 0.0219117,-0.0244149 0.0190181,-0.0263929 -0.007986,-0.005459 -0.0218119,0.003981 -0.0402152,0.0274587 -0.0220898,0.0281804 -0.009263,0.0275352 0.0211973,-0.001065 z m 0.0430602,-0.009669 c 0.0177322,-0.0175053 0.0209297,-0.0233151 0.0139962,-0.0254288 -0.008597,-0.002621 -0.0595592,0.044168 -0.0595592,0.0546802 0,0.00841 0.0212017,-0.005198 0.0455631,-0.0292514 z m 0.0614848,0.0263772 c -0.006241,-0.001944 -0.0174593,-0.001981 -0.024926,-8.426e-5 -0.007467,0.001896 -0.002359,0.003484 0.0113502,0.003532 0.0137092,5.114e-5 0.0198184,-0.001502 0.0135761,-0.003452 z m 0.1110239,-0.002334 c 0.001454,-0.004831 -2.2224e-4,-0.006258 -0.00391,-0.00335 -0.007196,0.005664 -0.008513,0.0117714 -0.002539,0.0117714 0.002148,0 0.005051,-0.003793 0.006448,-0.008423 z m 0.0209715,-6.6585e-4 c 0.004472,-0.0148375 -6.198e-4,-0.0179797 -0.00632,-0.003899 -0.003277,0.008098 -0.003591,0.0129865 -8.4242e-4,0.0129865 0.002431,0 0.00565,-0.004091 0.007155,-0.009087 z M 0.46104412,0.2909022 c 0.0226482,-0.0241125 0.0245038,-0.0278576 0.0149957,-0.0302736 -0.006878,-0.001748 -0.0198043,0.008317 -0.0353115,0.0274946 -0.0320929,0.0396892 -0.0163733,0.041839 0.020316,0.00278 z m 0.23356131,0.0143857 0.0207714,-0.0114945 -0.0186944,0.005023 c -0.0102826,0.002764 -0.0294543,0.004874 -0.0426053,0.004682 -0.0131511,-1.8521e-4 -0.0249455,0.00309 -0.0262097,0.007288 -0.003451,0.011454 0.0430203,0.007623 0.0667376,-0.005501 z M 0.8046946,0.2767239 C 0.8332555,0.2574767 0.8594275,0.237754 0.8628549,0.2328959 0.8732901,0.2181053 0.839997,0.23286178 0.7943088,0.2632867 0.7714602,0.2785003 0.7420165,0.2954832 0.7288784,0.3010268 0.7157405,0.3065698 0.704991,0.3132835 0.704991,0.3159458 c 0,0.0130051 0.0533423,-0.007979 0.0997035,-0.0392216 z m 0.0373885,0.004239 C 0.8637891,0.2651518 0.8880918,0.2463362 0.8960891,0.2391505 0.9098888,0.2267506 0.9100733,0.2260502 0.8997101,0.2253903 0.8937051,0.22501274 0.881554,0.2309823 0.8727071,0.2386659 0.8638591,0.2463509 0.8388612,0.2653124 0.8171553,0.2808054 0.7896239,0.3004561 0.7814584,0.3090859 0.7901523,0.3093421 0.7970073,0.30954424 0.820375,0.2967737 0.8420811,0.2809626 Z M 0.50277434,0.2729179 c 0.008736,-0.009891 0.0138789,-0.0193549 0.0114273,-0.0210305 -0.00245,-0.001676 -0.0142725,0.008993 -0.0262697,0.0237085 -0.0236476,0.0290038 -0.0111492,0.0267488 0.0148422,-0.002679 z M 0.86752537,0.2884324 C 0.89991577,0.265365 0.93883357,0.2297768 0.93473347,0.2269739 0.93253947,0.2254719 0.90938917,0.2413916 0.88329547,0.262351 0.83886757,0.2980364 0.82739337,0.3170129 0.86752557,0.2884326 Z M 0.53218838,0.27155716 c 0.0233341,-0.025446 0.0291845,-0.0271141 0.0149392,-0.004259 l -0.0103849,0.0166618 0.0136488,-0.007823 c 0.007506,-0.004303 0.0205925,-0.0166787 0.0290798,-0.027502 0.0143194,-0.0182608 0.0147327,-0.0198817 0.005741,-0.0224934 -0.00533,-0.001547 -0.0135475,0.004204 -0.0182627,0.0127804 -0.005651,0.0102801 -0.009145,0.0122551 -0.0102506,0.005796 -0.001005,-0.00585 -0.005361,-0.00752 -0.0108185,-0.004144 -0.0116178,0.007189 -0.0444509,0.0427893 -0.0444509,0.0481986 0,0.009646 0.0125889,0.0026 0.0307584,-0.0172139 z m 0.0523279,0.0127804 c 0,-0.004687 -0.001869,-0.00852 -0.004154,-0.00852 -0.002287,0 -0.004155,0.003834 -0.004155,0.00852 0,0.004687 0.001869,0.00852 0.004155,0.00852 0.002287,0 0.004154,-0.003835 0.004154,-0.00852 z m 0.11008904,0 0.0124629,-0.006504 -0.0145402,-3.7755e-4 c -0.007996,-2.1055e-4 -0.0229526,0.002694 -0.0332344,0.006445 l -0.0186947,0.006822 0.0207714,5.96e-5 c 0.0114238,3.415e-5 0.02638,-0.002871 0.0332345,-0.006445 z m 0.0810091,-0.0207144 c 0.0252382,-0.0167113 0.0276908,-0.0196969 0.0129104,-0.0157158 -0.0100357,0.002705 -0.0305996,0.0140079 -0.0456975,0.0251223 -0.0356306,0.0262289 -0.00987,0.0188385 0.0327869,-0.009407 z m 0.15578649,0.008782 c 0.0114238,-0.0111572 0.0245102,-0.0263342 0.0290803,-0.0337269 0.0142417,-0.0230395 -0.002378,-0.0169954 -0.0318229,0.0115711 -0.0144858,0.0140549 -0.0286743,0.025557 -0.0315303,0.0255607 -0.002853,3.69e-6 -0.005194,0.003841 -0.005194,0.008527 0,0.0146053 0.0178048,0.009223 0.0394659,-0.0119318 z M 0.6266275,0.26670216 c 0.009269,-0.009699 0.0160414,-0.0193017 0.0150482,-0.0213391 -0.002467,-0.005064 -0.0282868,0.0134662 -0.0383508,0.0275262 -0.0136969,0.0191354 0.003451,0.0145821 0.0233025,-0.006187 z M 0.22962701,0.25410883 c 0.0295362,-0.0119395 0.0723963,-0.032069 0.095245,-0.0447315 l 0.0415433,-0.0230231 -0.0236672,-0.00254 c -0.0164849,-0.001771 -0.0343053,0.004113 -0.0587242,0.0193897 -0.0192823,0.0120623 -0.0609763,0.0330066 -0.0926538,0.0465425 -0.0482799,0.0206306 -0.0541873,0.0247294 -0.0365204,0.0253418 0.0115909,4.0322e-4 0.0452411,-0.009038 0.0747774,-0.0209777 z m 0.039162,0.005171 c 0.0773178,-0.0320843 0.15202474,-0.072373 0.13991289,-0.0754536 -0.006446,-0.001638 -0.0363568,0.0105777 -0.066469,0.0271494 -0.0301122,0.0165718 -0.0697049,0.0375142 -0.0879838,0.0465393 -0.0435375,0.0214963 -0.0353919,0.0224853 0.0145399,0.001767 z m 0.060744,-2.9451e-4 c 0.0536432,-0.0198109 0.13909459,-0.0631054 0.14983021,-0.0759127 0.0150706,-0.0179788 -0.0153922,-0.0101254 -0.0626571,0.0161537 -0.0253752,0.0141084 -0.0685695,0.0367153 -0.0959879,0.0502378 -0.058806,0.0290023 -0.0550172,0.0330949 0.008816,0.009521 z m 0.33345086,-0.005956 c 0.0104282,-0.0125337 0.0166012,-0.0244013 0.0137185,-0.0263719 -0.002881,-0.001972 -0.0140547,0.008239 -0.0248264,0.0226884 -0.0240294,0.0322331 -0.0151067,0.035192 0.0111083,0.003684 z m 0.0596633,0.017146 c -0.002854,-0.002364 -0.00753,-0.002364 -0.010385,0 -0.002854,0.002364 -5.1445e-4,0.004298 0.005193,0.004298 0.005712,0 0.008049,-0.001936 0.005193,-0.004298 z M 0.42891795,0.24938376 c 0.0486284,-0.0210605 0.11179618,-0.0541147 0.12651824,-0.0662041 0.008569,-0.007036 0.005606,-0.008623 -0.016928,-0.009069 -0.0185545,-3.7023e-4 -0.0367853,0.006067 -0.0568488,0.0200623 -0.016244,0.0113314 -0.0502213,0.0309252 -0.0755051,0.0435416 -0.0252836,0.0126166 -0.0459703,0.0244332 -0.0459703,0.026259 0,0.00834 0.0309661,0.001767 0.0687341,-0.0145904 z m 0.27058183,-0.007553 c 0.0252141,-0.0296589 0.0306326,-0.0425893 0.014748,-0.0351945 -0.0101586,0.004729 -0.0466454,0.0497309 -0.0466454,0.0575301 0,0.009106 0.0127703,1.6001e-4 0.0318973,-0.0223354 z m -0.081749,-0.0132648 c 0.0183201,-0.0239119 0.0203848,-0.0286545 0.0104176,-0.0239266 -0.0137522,0.006524 -0.0483306,0.0542482 -0.0390832,0.0539422 0.003201,-1.0945e-4 0.016098,-0.0136128 0.0286649,-0.0300155 z m 0.12081125,-0.001081 c 0.008955,-0.0121535 0.016281,-0.023505 0.016281,-0.0252253 0,-0.0121964 -0.0179411,0.001887 -0.0353249,0.0277333 -0.0174678,0.0259695 -0.0188939,0.0299679 -0.008997,0.0252258 0.006469,-0.003101 0.019087,-0.0155798 0.0280415,-0.0277334 z m -0.26318268,0.0176207 c -0.001381,-0.00283 -0.004964,-0.003134 -0.007962,-6.7435e-4 -0.003314,0.00272 -0.002333,0.004738 0.002508,0.005147 0.004379,3.7023e-4 0.006833,-0.001642 0.005453,-0.004476 z m 0.29319034,-0.0202254 c 0.0107296,-0.0139552 0.0195078,-0.0273748 0.0195078,-0.0298212 0,-0.0131748 -0.0170583,-8.1776e-4 -0.0350175,0.0253734 -0.0259675,0.0378651 -0.0130342,0.0415741 0.0155099,0.004447 z m -0.18820755,-0.021095 c 0.0475366,-0.0265236 0.0501719,-0.0290001 0.0311575,-0.0292757 -0.0124688,-1.7686e-4 -0.0431897,0.0132822 -0.076855,0.0336814 -0.0499561,0.0302699 -0.0533599,0.0334684 -0.0311575,0.0292757 0.0137092,-0.002587 0.048294,-0.0177454 0.0768549,-0.033681 z m 0.22908668,0.003453 c 0.0117763,-0.0206591 0.0126504,-0.0244732 0.005632,-0.0245651 -0.008956,-1.1792e-4 -0.0407646,0.0450349 -0.0370677,0.052617 0.004118,0.008449 0.0173701,-0.003376 0.0314362,-0.0280518 z m -0.14184627,-0.002265 c 0.0112579,-0.0142384 0.0128729,-0.0190478 0.007154,-0.0213068 -0.007032,-0.002779 -0.0445429,0.0364353 -0.0445429,0.0465673 0,0.00873 0.0225687,-0.006518 0.0373885,-0.0252601 z m 0.16688372,0.005616 c 0.004181,-0.007756 0.007598,-0.0173407 0.007598,-0.0213005 0,-0.0143467 -0.0112345,-0.00672 -0.0207716,0.014101 -0.008776,0.0191584 -0.008986,0.0213006 -0.002091,0.0213006 0.004217,0 0.011086,-0.006345 0.0152645,-0.014101 z m 0.0244209,-0.007418 c 0.014939,-0.015844 0.0154395,-0.0210818 0.002017,-0.0210818 -0.005989,0 -0.0120861,0.007075 -0.014686,0.0170406 -0.005338,0.0204561 -0.003391,0.0210762 0.0126693,0.004042 z m 0.0241491,-0.004533 c 0.007683,-0.009607 0.0129697,-0.0195191 0.0117474,-0.0220264 -0.001222,-0.002508 -0.009347,0.005367 -0.0180504,0.0174998 -0.0187497,0.0261304 -0.0138111,0.0296768 0.006303,0.004528 z m -0.1789573,-0.0122906 c 0.008406,-0.0117155 0.0124089,-0.0213006 0.008895,-0.0213006 -0.003514,0 -0.0127233,0.009585 -0.0204658,0.0213006 -0.007743,0.0117155 -0.0117453,0.0213005 -0.008895,0.0213005 0.002849,0 0.0120598,-0.009585 0.0204658,-0.0213005 z m 0.24224445,0.003339 c 0.009727,-0.0153382 0.009758,-0.0157469 0.001145,-0.0159317 -0.00486,-1.0107e-4 -0.0111655,0.005562 -0.0140103,0.0125908 -0.002847,0.007029 -0.007041,0.0127804 -0.009326,0.0127804 -0.002315,0 -0.001871,-0.005651 0.001019,-0.0127804 0.004353,-0.010754 0.003611,-0.0127504 -0.004682,-0.0125908 -0.005421,1.0108e-4 -0.0144723,0.007465 -0.0201153,0.0163579 l -0.0102588,0.0161684 0.0231244,-4.2887e-4 c 0.0158665,-2.9479e-4 0.0262572,-0.005366 0.0331074,-0.0161684 z M 0.73639321,0.17809685 c 0.0108734,-0.0168678 -4.573e-4,-0.0170752 -0.0147845,-2.6953e-4 -0.009494,0.0111316 -0.009652,0.0122027 -0.001833,0.0124787 0.004704,1.6844e-4 0.0121818,-0.005327 0.0166173,-0.0122074 z m -0.0729449,-0.00453 c 0.007594,-0.0100653 0.001029,-0.0100653 -0.0103849,0 -0.00548,0.004828 -0.006186,0.007482 -0.002076,0.007791 0.003429,2.6106e-4 0.009036,-0.003247 0.0124629,-0.007791 z m 0.10385774,0 c 0.00516,-0.006839 0.004803,-0.008259 -0.002079,-0.008259 -0.004571,0 -0.0111129,0.003716 -0.0145402,0.008259 -0.00516,0.006839 -0.004803,0.008259 0.002079,0.008259 0.004569,0 0.0111129,-0.003716 0.0145402,-0.008259 z m 0.0314017,-0.00399 c 0.007932,-0.0123053 0.007924,-0.0125139 -4.904e-4,-0.0127804 -0.004704,-1.516e-4 -0.0121817,0.005358 -0.0166176,0.0122386 -0.007932,0.0123053 -0.007924,0.0125139 4.9041e-4,0.0127804 0.004704,1.5157e-4 0.0121822,-0.005358 0.0166175,-0.0122387 z m 0.024791,-0.011406 c -0.001281,-0.002625 -0.004629,-5.39e-6 -0.00745,0.005818 -0.004072,0.008415 -0.003595,0.009393 0.002326,0.00477 0.004097,-0.0032 0.006402,-0.007964 0.005122,-0.0105873 z m 0.0248159,0.006875 c 0.00141,-0.004686 -2.3396e-4,-0.008521 -0.003663,-0.008521 -0.003429,0 -0.007388,0.003833 -0.008799,0.008521 -0.00141,0.004686 2.3397e-4,0.008521 0.003663,0.008521 0.003429,0 0.007387,-0.003834 0.008799,-0.008521 z m 0.0238874,-0.005643 c -0.002853,-0.002364 -0.007529,-0.002364 -0.0103861,0 -0.002853,0.002364 -5.1449e-4,0.004298 0.005194,0.004298 0.005712,0 0.008049,-0.001935 0.005195,-0.004298 z m 0.0269163,4.9851e-4 c -0.00138,-0.00283 -0.004965,-0.003134 -0.007962,-6.7435e-4 -0.003313,0.00272 -0.002332,0.004739 0.002508,0.005147 0.004379,3.7022e-4 0.006833,-0.001643 0.005453,-0.004475 z m 0.0249257,0 c -0.00138,-0.00283 -0.004965,-0.003134 -0.007962,-6.7435e-4 -0.003313,0.00272 -0.002332,0.004739 0.002508,0.005147 0.004379,3.7022e-4 0.006833,-0.001643 0.005453,-0.004475 z" id="path4941" inkscape:connector-curvature="0" sodipodi:nodetypes="csssssssssssssssssssscssscsssssssccsccscccccscccccccsccsscccsssscsccscsccccssscssscssscsscscsscsssssscscssssssssccsscssssssssssscssssssssssssssssssssssssscssscscccsscssssssscscsssssssscssccssssssssscsssssssscsscssscssssssssscssssscsscssssssssccsccsscssscsssscsssssscscsssccssssssssssscssssssssssssssssscsssccsccsscssssssssssssscscssssscsscsscscccccsccssssssssssssssssscsscccccsssssssssssscsssssssssscsssscssssccsscscsscssssssssssssssssssssssssssssssssssssssssssssssssssssssssssssssssssccsccsscssssssscssssssssssssssssssscsssssssssscssscccccccssssssssssssssssscsscsssssccsscsscccccsssssssscsscssssssssssscssccccccscscssssssscssssssscsssssssssssscsssssssssssssscsscssscssssscsscssssssssssscsssssssssssssccssccccsssssssssssssssscssscsssssssssssssssssssssssssssssscscccssssscccccsssssssssssssssssssssssscsssssssssscccsscscsccsscssscssssssssssscsscssssssssscccccccccc" />
    </pattern>
  </defs>
  <sodipodi:namedview pagecolor="#ffffff" bordercolor="#666666" borderopacity="1" objecttolerance="10" gridtolerance="10" guidetolerance="10" inkscape:pageopacity="0" inkscape:pageshadow="2" inkscape:window-width="1600" inkscape:window-height="838" id="namedview4" showgrid="false" inkscape:zoom="256" inkscape:cx="0.12647929" inkscape:cy="0.4637574" inkscape:window-x="-8" inkscape:window-y="-8" inkscape:window-maximized="1" inkscape:current-layer="svg2" />
  <path style="fill:#000000" d="m 0.0218154,0.86474332 c 0.0021723,-0.004115 0.01142377,-0.0122158 0.02056384,-0.01799 0.0091393,-0.005776 0.02129081,-0.0165923 0.02700304,-0.0240398 0.0057119,-0.007445 0.01708507,-0.0139223 0.02527313,-0.0143882 0.01622524,-9.2086e-4 0.04830307,-0.049496 0.06842954,-0.10361487 0.00583,-0.0156771 0.0203148,-0.0412746 0.0321874,-0.0568838 0.0118731,-0.0156091 0.0241533,-0.0347665 0.0272891,-0.0425719 0.005113,-0.012724 0.004319,-0.0141912 -0.007678,-0.0141912 -0.0114671,0 -0.0211219,0.0152218 -0.0675489,0.10650361 -0.0297935,0.0585767 -0.05595395,0.10650368 -0.05813435,0.10650368 -0.0021782,0 0.01910748,-0.0458413 0.04730712,-0.10186985 0.0475328,-0.0944401 0.0503943,-0.10189714 0.0392335,-0.10224334 -0.009557,-2.9479e-4 -0.0194059,0.0141881 -0.0477742,0.0702594 -0.03543217,0.0700336 -0.09876658,0.1735665 -0.10205303,0.16682658 -9.3545e-4,-0.001926 0.01546592,-0.0311331 0.03645804,-0.064899 0.0340118,-0.0547084 0.08594195,-0.15180328 0.08594195,-0.16068681 0,-0.001843 -0.004567,-0.003352 -0.0101514,-0.003352 -0.006847,0 -0.0186553,0.0171193 -0.0362841,0.0526077 -0.02699522,0.0543437 -0.07195483,0.12631823 -0.07890621,0.12631823 -0.0021747,0 0.01064903,-0.0226775 0.02849856,-0.0503938 0.01784837,-0.027717 0.03984136,-0.0660581 0.04887334,-0.085203 l 0.0164215,-0.034808 -0.0131488,0 c -0.01008816,0 -0.01919828,0.0110704 -0.03913251,0.0475501 -0.03593233,0.0657576 -0.04904467,0.0768311 -0.015874,0.0134066 0.02398432,-0.0458602 0.02586125,-0.0516766 0.01679269,-0.0520339 -0.0063488,-2.5266e-4 -0.01617021,0.0115324 -0.02596478,0.0311481 -0.0086648,0.017352 -0.01575386,0.027073 -0.01575386,0.0216001 0,-0.005474 0.0037394,-0.0140537 0.0083084,-0.0190697 0.01039662,-0.0114124 0.0107799,-0.0255612 6.8877e-4,-0.0255612 -0.01873201,0 -0.0097095,-0.0150987 0.03903296,-0.0653181 0.02873718,-0.0296078 0.05627355,-0.0596134 0.06119222,-0.0666795 0.008925,-0.0128222 0.008922,-0.0128471 -0.002146,-0.0128471 -0.006097,0 -0.0224969,0.0137139 -0.03644169,0.0304769 -0.0254131,0.040928 -0.11466357,0.10032268 -0.04051665,0.0310402 0.01656284,-0.0153706 0.03478806,-0.0354136 0.04050019,-0.0445426 0.01822078,-0.0291162 -0.0012153,-0.0201963 -0.037481,0.0172016 -0.02769109,0.032647 -0.0486152,0.0362412 -0.01133262,2.5265e-4 C 0.05902277,0.5103119 0.06465893,0.5012501 0.0603423,0.4993692 0.0565152,0.4977012 0.04584149,0.5042322 0.03662067,0.5138804 0.0023086,0.5339416 0.02471842,0.4954284 0.04860494,0.4632601 0.06724487,0.4378464 0.06726287,0.437773 0.05483564,0.4380068 0.04798094,0.43813309 0.03874362,0.4438708 0.03430872,0.4507509 0.01271386,0.4831478 0.02258721,0.4302916 0.02854072,0.4298511 0.09482736,0.4258341 0.26510451,0.3919959 0.32901981,0.3701426 l 0.0207714,-0.007102 -0.0166425,-0.001012 C 0.32399571,0.3614693 0.29314941,0.3665616 0.26460251,0.3733334 0.15023141,0.4098862 -0.07882843,0.4097701 0.12130466,0.3862602 0.16700206,0.3809442 0.20516926,0.375007 0.20612156,0.373066 0.20879856,0.367607 0.18980096,0.368725 0.10846756,0.378805 0.10166456,0.37790493 -0.01093795,0.398298 0.02990981,0.370611 0.05607466,0.3529876 0.11091872,0.2994356 0.11091872,0.2915105 c 0,-0.0158382 -0.02191623,-0.00559 -0.04659303,0.0217883 C 0.04782537,0.3438964 -0.00192765,0.360659 0.04029533,0.3267838 0.04829173,0.3205118 0.05843011,0.3104463 0.06282281,0.3044149 0.07028281,0.2941738 0.07032841,0.293069 0.06352363,0.2877125 0.05921283,0.2843195 0.04977945,0.2894215 0.04043044,0.3001961 0.00380564,0.3329078 0.02586735,0.311828 0.03198884,0.2937211 0.012379,0.2677997 0.03902234,0.2773629 0.05022142,0.2769739 0.09417527,0.2755919 0.16745901,0.251396 0.2417811,0.2137244 0.2894899,0.1895423 0.2936797,0.1860403 0.2777133,0.1836887 0.2677045,0.1822157 0.2352626,0.1925457 0.2050132,0.2068404 0.10131521,0.2558425 0.04139819,0.2757992 0.04624248,0.2597224 0.04780948,0.2545144 0.05599638,0.2502194 0.06442962,0.2501784 0.0797809,0.25010168 0.20234803,0.2019038 0.20594497,0.1945266 0.21173597,0.1826502 0.14274327,0.1925176 0.12299537,0.2063884 0.10472497,0.233272 -0.02758364,0.2634179 0.05504073,0.2310089 0.07571617,0.2230109 0.10001869,0.2109186 0.10904646,0.2041385 l 0.016414,-0.0123273 -0.02908015,-5.3906e-4 c -0.01741903,-3.2004e-4 -0.03949196,0.005959 -0.05504458,0.0156593 -0.01478512,0.0164811 -0.04076509,0.009554 -0.01246309,-0.004343 l 0.01350169,-0.006413 c -0.01037908,-0.005306 -0.02289942,-0.009992 -0.03114988,-0.0213242 4.2e-6,-0.00305 0.07805305,-0.006389 0.1734424,-0.007423 0.0953889,-0.001034 0.25195125,-0.006028 0.34791575,-0.0110972 0.0959645,-0.005069 0.23623916,-0.0114435 0.31172144,-0.0141641 l 0.13724051,-0.004947 0,0.0181738 c 0,0.0121 -0.002609,0.0181738 -0.007801,0.0181738 -0.004291,0 -0.0125548,0.007668 -0.0183645,0.0170406 l -0.0105626,0.0170406 0.0192545,0 c 0.0105894,0 0.0192545,0.003526 0.0192545,0.007835 0,0.00431 -0.0107496,0.0214604 -0.0238874,0.0381133 -0.019601,0.0248449 -0.0220237,0.0302648 -0.0135013,0.0302043 0.005712,-4.256e-5 0.0150596,-0.005553 0.0207716,-0.0122503 0.0135932,-0.0159367 0.020957,-0.0157491 0.0106303,2.695e-4 -0.007983,0.012383 -0.007983,0.0125113 0,0.0126967 0.004718,1.0952e-4 5.4873e-4,0.007183 -0.010045,0.0170406 -0.0206613,0.0192283 -0.0228468,0.0201732 -0.0192791,0.008333 0.003783,-0.0125635 -0.0153951,-0.009881 -0.0238874,0.003339 -0.0101349,0.0157782 -0.009072,0.0245634 0.00208,0.017169 0.005143,-0.00341 0.016825,-0.0068 0.0259647,-0.007533 0.009139,-7.3509e-4 0.0196093,-0.004144 0.0232665,-0.007579 0.00567,-0.005326 0.006276,-0.001524 0.004113,0.0257898 -0.002169,0.02736 -0.007575,0.040477 -0.0370436,0.0898862 -0.0303147,0.0508268 -0.0331525,0.0578516 -0.0233695,0.0578516 0.007308,0 0.019183,-0.0141412 0.0345483,-0.0411427 0.0319928,-0.0562201 0.0411653,-0.0639248 0.0130273,-0.0109427 -0.0177223,0.0333696 -0.0209843,0.0430764 -0.0145402,0.0432617 0.004573,1.3478e-4 0.0140851,-0.006985 0.0211452,-0.0158146 l 0.0128366,-0.0160541 -0.00175,0.0187851 c -0.001416,0.0151999 -0.006292,0.0207083 -0.0255491,0.0288662 -0.0130889,0.005543 -0.0321359,0.0100811 -0.0423265,0.0100811 -0.0101896,0 -0.0325111,0.007956 -0.0496016,0.0176781 -0.0170904,0.009722 -0.0537063,0.0231178 -0.0813681,0.0297656 -0.0635873,0.0152815 -0.1517318,0.042195 -0.19480952,0.0594813 -0.0182789,0.007332 -0.0575375,0.0224895 -0.0872408,0.0336776 -0.13162757,0.049579 -0.38226166,0.16633595 -0.44658766,0.20804427 -0.02906951,0.0188485 -0.04155983,0.022491 -0.03510415,0.0102375 z m 0.14311606,-0.0994964 c 0.007996,-0.011389 0.0248218,-0.0397373 0.0373888,-0.0629947 l 0.0228486,-0.0422872 -0.0161312,-3.7023e-4 c -0.0147238,-3.3691e-4 -0.0190729,0.005648 -0.0498517,0.068605 -0.0300609,0.0614891 -0.0323679,0.0683656 -0.0212574,0.0633639 0.006855,-0.003081 0.019006,-0.0149289 0.027003,-0.0263178 z m 0.034546,-0.005082 c 0.007577,-0.008205 0.0292173,-0.0414234 0.0643123,-0.0987192 0.008934,-0.0145875 0.004599,-0.020373 -0.0105941,-0.0141398 -0.009628,0.003949 -0.0561319,0.0736513 -0.0796085,0.11931865 -0.004067,0.007911 0.0176173,0.0025 0.0258914,-0.006456 z m 0.0651571,-0.0461004 c 0.0102826,-0.015351 0.0252375,-0.0421551 0.0332347,-0.0595643 l 0.0145398,-0.0316533 -0.0140925,0.005437 c -0.007751,0.00299 -0.0161637,0.0105078 -0.0186944,0.0167025 -0.002533,0.006191 -0.0158182,0.0299641 -0.0295275,0.0528207 -0.0137092,0.0228572 -0.0267367,0.0446854 -0.0289505,0.0485091 -0.0120123,0.0207498 0.0277311,-0.008726 0.0434903,-0.0322551 z m 0.040289,-0.0278753 c 0.0132564,-0.0226609 0.0266685,-0.0475826 0.0298043,-0.0553819 0.004965,-0.0123471 0.004697,-0.0141329 -0.002076,-0.013812 -0.009452,4.4716e-4 -0.0675345,0.1103957 -0.0583192,0.1103957 0.003568,0 0.0173354,-0.0185404 0.0305921,-0.0412021 z m 0.015758,0.0156688 c 0.0116189,-0.00906 0.0561194,-0.0912287 0.0561194,-0.10362211 0,-0.0163031 -0.0283942,0.0193401 -0.0512684,0.0643584 -0.0242987,0.0478212 -0.0252018,0.0551328 -0.00485,0.0392638 z m 0.0600372,-0.0604281 c 0.0161239,-0.0285333 0.0293169,-0.0553721 0.0293169,-0.0596421 0,-0.0111927 -0.009818,-0.009545 -0.0171975,0.002885 -0.0145026,0.0244308 -0.050124,0.10863371 -0.0459563,0.10863371 0.002488,0 0.0177131,-0.0233458 0.0338372,-0.0518791 z m 0.0367982,-0.0273017 c 0.012112,-0.0188795 0.0239563,-0.0417397 0.0263208,-0.0508015 0.009193,-0.0352309 -0.0151031,-0.004689 -0.0441881,0.0555473 -0.0299018,0.061927 -0.0238814,0.0603285 0.0178673,-0.004749 z m 0.0210558,0.018813 c 0.0117227,-0.019143 0.0213142,-0.0360381 0.0213142,-0.0375437 0,-0.00151 -0.004207,-6.2853e-4 -0.009348,0.001933 -0.008026,0.004009 -0.048813,0.0607513 -0.048813,0.0679043 0,0.001382 0.003493,0.002507 0.007766,0.002507 0.004271,0 0.0173574,-0.0156628 0.02908,-0.0348066 z m 0.0308223,-0.016103 c 0.0229045,-0.0443402 0.010947,-0.0442292 -0.0136626,1.2633e-4 -0.0131966,0.0237861 -0.016509,0.0337018 -0.0112638,0.0337177 0.004088,1.707e-5 0.0153039,-0.015218 0.024926,-0.0338453 z m -0.23055921,0.00873 c 0.008478,-0.00914 0.0210214,-0.0247412 0.0278758,-0.0346691 l 0.0124629,-0.0180504 -0.0186944,0.005626 c -0.0134038,0.004039 -0.0227896,0.0138468 -0.0331652,0.0346691 -0.0161919,0.0324937 -0.0116435,0.037398 0.0115208,0.0124219 z m 0.0445394,-0.0175165 c 0.0261606,-0.0306981 0.0367512,-0.0523192 0.0220013,-0.0449164 -0.009235,0.004636 -0.0573591,0.061252 -0.0573591,0.0674829 0,0.0100827 0.0165189,-4.6182e-4 0.0353577,-0.0225658 z m 0.20343093,0.0173738 c 0.001366,-0.00453 0.007792,-0.006064 0.0142815,-0.003405 0.006671,0.002733 0.01303,7.4573e-4 0.0146335,-0.004569 0.001565,-0.005195 0.007294,-0.007113 0.0127869,-0.004289 0.008016,0.004131 0.0144292,-0.003564 0.0329798,-0.0395463 0.0126658,-0.0245675 0.0230288,-0.0478265 0.0230288,-0.0516858 0,-0.007922 -0.0118022,-7.4044e-4 -0.0198728,0.0120927 -0.002936,0.004659 -0.0106724,0.00934 -0.0171976,0.010393 -0.007918,0.001276 -0.0170147,0.0136052 -0.0273466,0.0370597 -0.008515,0.0193302 -0.0175003,0.0351463 -0.0199673,0.0351463 -0.002467,0 0.001901,-0.0135145 0.009707,-0.0300321 l 0.0141924,-0.0300321 -0.0127417,0.009109 c -0.0157506,0.0112614 -0.0439259,0.0679941 -0.0337677,0.0679941 0.00374,0 0.007919,-0.003707 0.009285,-0.008241 z m 0.0517289,-0.0459441 c 0.007841,-0.0169193 0.0151513,-0.0289259 0.0162454,-0.0266818 0.002742,0.005626 -0.0119615,0.0379167 -0.0221467,0.0486443 -0.00515,0.005421 -0.002885,-0.003005 0.005901,-0.0219625 z M 0.11433781,0.56165716 c 0.0289692,-0.0302329 0.0564095,-0.0607838 0.0609793,-0.0678914 0.008013,-0.0124635 0.007862,-0.0129324 -0.004269,-0.0131944 -0.006918,-1.5155e-4 -0.0171995,0.00638 -0.0228489,0.0145052 -0.005649,0.008128 -0.032705,0.0387028 -0.06012334,0.0679466 -0.0378124,0.0403292 -0.04702094,0.0532223 -0.03813047,0.0533862 0.006447,1.1794e-4 0.03542304,-0.02452 0.0643916,-0.0547522 z m 0.21823549,0.0230173 c 0.0286165,-0.0307977 0.0292022,-0.0320474 0.0162298,-0.0346147 -0.0103359,-0.002046 -0.0189245,0.005369 -0.0370263,0.0319508 -0.0298557,0.0438472 -0.0187871,0.0452645 0.0207964,0.002666 z m -0.17711421,0.009213 c 0.0164967,-0.002899 0.0291898,-0.007946 0.0282073,-0.011207 -9.8405e-4,-0.003262 -0.0134644,-0.00265 -0.0277377,0.001352 -0.0142731,0.004002 -0.0278653,0.005972 -0.0302052,0.004372 -0.002337,-0.001601 0.0134701,-0.0202408 0.0351326,-0.0414248 0.0216629,-0.021184 0.0440606,-0.0466977 0.0497729,-0.0566965 l 0.010385,-0.0181803 -0.0145399,0.005369 c -0.007996,0.002952 -0.0198437,0.0129634 -0.0263257,0.0222487 -0.006482,0.009286 -0.0307846,0.0377521 -0.0540059,0.0632582 l -0.04222066,0.0463752 0.0207715,-0.005089 c 0.0114238,-0.002801 0.0342688,-0.007468 0.0507652,-0.0103696 z m 0.43777539,-0.0425726 c 0.0291157,-0.0576502 0.0334906,-0.0729429 0.0150219,-0.0525095 -0.0130504,0.0144388 -0.055299,0.10930053 -0.0486786,0.10930053 0.002738,0 0.0178818,-0.0255552 0.0336568,-0.0567909 z m -0.20777464,0.0129377 c 0.0112321,-0.0141737 0.0204215,-0.0277857 0.0204215,-0.0302481 0,-0.0125979 -0.0315671,0.0103651 -0.0507831,0.0369419 l -0.0219174,0.0303122 0.0159293,-0.005618 c 0.008761,-0.003088 0.0251185,-0.0172145 0.0363498,-0.0313882 z m 0.21137359,0.0209514 c 0.006499,-0.009336 0.0105461,-0.0110862 0.0115371,-0.004991 0.004206,0.0258746 0.0562032,-0.0425175 0.0924659,-0.12161873 l 0.01454,-0.0317167 -0.0138535,0.005341 c -0.009445,0.003638 -0.0254377,0.0270559 -0.0502532,0.0735725 -0.0200196,0.0375271 -0.0380883,0.0681784 -0.0401525,0.0681149 -0.002067,-5.965e-5 0.0112029,-0.0286427 0.0294815,-0.0635074 0.0289773,-0.0552707 0.0319041,-0.0634073 0.022849,-0.063515 -0.0122357,-1.4318e-4 -0.0135877,0.002041 -0.0539021,0.0871451 -0.0295404,0.0623611 -0.0345567,0.0825523 -0.0127128,0.051173 z m -0.1322608,-0.0387754 c 0.002151,-0.008254 0.002994,-0.0150059 0.00186,-0.0150059 -0.003504,0 -0.0231633,0.0462424 -0.0231633,0.0544856 0,0.0100894 0.0162045,-0.0199419 0.0213027,-0.039479 z m -0.25077995,0.0302617 c -0.003972,-0.002129 -0.0114495,-0.002212 -0.0166173,-1.6846e-4 -0.005168,0.002039 -0.001916,0.003783 0.007223,0.003881 0.009139,9.264e-5 0.0133675,-0.001571 0.009395,-0.003707 z m 0.005188,-0.0468539 c 0.0171597,-0.01848 0.0358541,-0.0412338 0.0415431,-0.0505644 l 0.0103428,-0.0169653 -0.0186944,0.005776 c -0.0102826,0.003179 -0.0234569,0.0126847 -0.0292778,0.0211296 -0.005821,0.008444 -0.0245153,0.0310379 -0.041543,0.050208 l -0.0309601,0.0348541 0.0186944,-0.005421 c 0.0102826,-0.002975 0.0327347,-0.0205384 0.0498946,-0.0390184 z m 0.0693632,0.0272413 c 0.0172387,-0.0106211 0.003405,-0.008838 -0.0340941,0.004394 l -0.0332346,0.011728 0.0278629,-0.004486 c 0.0153245,-0.002469 0.0330842,-0.007704 0.0394658,-0.0116359 z m 0.19733333,-0.0146035 c 0.0161367,-0.0323162 0.0192946,-0.0451324 0.0111211,-0.0451324 -0.005115,0 -0.0327562,0.0589217 -0.0327562,0.0698275 0,0.0133922 0.006085,0.006449 0.021635,-0.0246951 z m 0.17492921,0.0216801 c 0.0139456,-0.0151691 0.0701503,-0.10466504 0.0814597,-0.12971107 l 0.0100718,-0.0223044 -0.009197,0 c -0.005539,0 -0.0202858,0.0211821 -0.0370744,0.0532521 -0.0153323,0.029289 -0.0353549,0.0655839 -0.0444944,0.080657 -0.0168811,0.0278409 -0.0172265,0.0360109 -7.609e-4,0.018107 z M 0.43575329,0.54330551 c 0.0306841,-0.0224314 0.0485671,-0.0443607 0.0282892,-0.0346902 -0.005712,0.002718 -0.0182115,0.007506 -0.0277765,0.0106225 -0.0102423,0.003338 -0.0212119,0.0140122 -0.0266883,0.0259682 -0.0115756,0.0252713 -0.0109294,0.0252245 0.0261757,-0.001896 z m 0.077276,-0.0143354 c 0.019479,-0.0407068 0.0213151,-0.0491298 0.009305,-0.0426881 -0.0101638,0.005452 -0.0403645,0.0792219 -0.0324321,0.0792219 0.003106,0 0.0135116,-0.0164405 0.0231268,-0.0365334 z m 0.20493152,-0.004674 c 0.0168586,-0.0226647 0.039999,-0.0589369 0.0514232,-0.0806058 l 0.0207714,-0.0393983 -0.0127775,-3.369e-4 c -0.008563,-2.274e-4 -0.0160989,0.006982 -0.0228488,0.021856 -0.005539,0.0122073 -0.0254942,0.0473331 -0.0443444,0.0780579 -0.0188503,0.0307253 -0.034273,0.0571617 -0.034273,0.0587481 0,0.0113285 0.0158841,-0.003149 0.0420485,-0.0383215 z M 0.27250692,0.50799157 c 0.0377262,-0.0419519 0.0423942,-0.0493835 0.032484,-0.0517174 -0.008282,-0.001949 -0.0235462,0.011981 -0.0536784,0.0489916 -0.0551726,0.0677676 -0.0391491,0.0698283 0.0211945,0.002726 z m 0.48414778,0.004938 c 0.0240634,-0.0391717 0.0542806,-0.0955541 0.0582245,-0.10864224 0.00699,-0.0231977 -0.0119533,-0.005462 -0.0307642,0.028803 -0.0114717,0.020896 -0.0316304,0.0540372 -0.0447975,0.0736474 -0.0333778,0.0497104 -0.0346819,0.0530841 -0.0177085,0.0458067 0.007996,-0.003428 0.0237676,-0.0212557 0.0350456,-0.0396149 z m -0.45097843,-0.003239 c 0.0196974,-0.0213252 0.040487,-0.046468 0.0461992,-0.0558733 l 0.0103861,-0.0171002 -0.0134096,0.005386 c -0.0190238,0.007643 -0.10144932,0.10635946 -0.0888067,0.10635946 0.0054,0 0.0259335,-0.0174478 0.0456309,-0.0387729 z m 0.23522051,0.004689 c 0.0133416,-0.0280228 0.014784,-0.0340537 0.008112,-0.0339276 -0.004462,8.427e-5 -0.0142941,0.0154211 -0.0218491,0.0340817 -0.0180912,0.0446845 -0.007556,0.044566 0.0137364,-1.5162e-4 z M 0.34586382,0.49799348 c 0.0181582,-0.0183856 0.0404924,-0.0434758 0.049632,-0.0557561 l 0.0166169,-0.0223279 -0.01454,0.005497 c -0.0154189,0.005829 -0.10127079,0.10601491 -0.0908473,0.10601491 0.003368,0 0.0209803,-0.0150428 0.0391381,-0.0334285 z m 0.0257449,0.0275547 c -0.003999,-0.002145 -0.0105427,-0.002145 -0.0145402,0 -0.003999,0.002145 -7.2485e-4,0.003896 0.00727,0.003896 0.007996,0 0.0112684,-0.001751 0.00727,-0.003896 z m 0.40402721,-0.00265 c 0.001923,0 0.009209,-0.00986 0.0161925,-0.0219111 0.006983,-0.0120512 0.0146228,-0.0194699 0.0169776,-0.0164851 0.006199,0.007858 0.0365362,-0.025574 0.0582039,-0.0641427 0.0174426,-0.0310493 0.0179992,-0.0332913 0.008308,-0.0334926 -0.006807,-1.4318e-4 -0.0192054,0.0159209 -0.0359775,0.0466075 -0.0140756,0.0257529 -0.0271614,0.0466575 -0.0290803,0.0464545 -0.001917,-2.0206e-4 0.006794,-0.019331 0.0193606,-0.0425075 0.0227564,-0.041969 0.0227987,-0.0421373 0.0103861,-0.0418401 -0.00983,2.358e-4 -0.0199235,0.0149136 -0.0477746,0.0694721 -0.0194212,0.0380451 -0.0318871,0.0666244 -0.0277018,0.0635097 0.004186,-0.003119 0.009182,-0.005663 0.011106,-0.005663 z m 0.0228278,0 c 0.003251,-0.0107834 -0.002252,-0.0107834 -0.010385,0 -0.005371,0.007121 -0.005261,0.008277 7.9435e-4,0.00839 0.003862,6.818e-5 0.00818,-0.0037 0.009592,-0.00839 z m 0.0437939,-0.0306709 0.0185208,-0.0391917 -0.0146765,0.0158251 c -0.008071,0.008703 -0.0211578,0.0262975 -0.0290804,0.0390969 -0.0141597,0.0228784 -0.0142251,0.023274 -0.003847,0.023367 0.007131,6.818e-5 0.0165725,-0.0126303 0.0290804,-0.0390977 z m -0.43941249,0.0250825 c -0.002813,-0.002334 -0.008421,-0.002477 -0.0124631,-3.1163e-4 -0.004042,0.002159 -0.001742,0.00407 0.005114,0.004244 0.006855,1.7684e-4 0.0101617,-0.001593 0.007351,-0.003926 z m 0.16344447,-0.0159777 c 0.003788,-0.0118624 0.005702,-0.0240034 0.00425,-0.0269815 -0.001451,-0.002975 -0.00311,-0.00382 -0.003679,-0.001865 -5.7484e-4,0.001956 -0.005571,0.0140937 -0.0111106,0.0269808 -0.008218,0.0191226 -0.008809,0.0234304 -0.003212,0.0234304 0.003773,0 0.00996,-0.009704 0.0137499,-0.0215668 z m 0.3183759,-0.0354208 c 0.0154228,-0.0252933 0.0280414,-0.0475561 0.0280414,-0.0494727 0,-0.001917 -0.008414,0.002909 -0.0186947,0.0107253 -0.0214536,0.0163076 -0.0649268,0.0986533 -0.0474083,0.0897995 0.005511,-0.002786 0.0226389,-0.025759 0.0380612,-0.0510522 z M 0.40726798,0.46539081 c 0.0381419,-0.0405548 0.0441415,-0.0494552 0.0348383,-0.0516817 -0.0072,-0.001721 -0.0198334,0.007891 -0.0351562,0.0267549 -0.0131545,0.0161947 -0.0323294,0.0394154 -0.0426114,0.0516013 -0.0362542,0.0429675 -0.003326,0.0225084 0.0429292,-0.0266742 z m 0.0207297,0.0177446 c 0.006609,-0.007007 0.0225643,-0.0266841 0.0354549,-0.0437193 0.0331868,-0.0438579 0.0171523,-0.0464701 -0.0189925,-0.003095 -0.0155062,0.0186088 -0.0356707,0.0420281 -0.0448101,0.0520439 l -0.0166169,0.0182105 0.0164734,-0.005346 c 0.009061,-0.002937 0.0218814,-0.0110824 0.0284909,-0.0180926 z m 0.022456,0.0175792 c -0.001381,-0.002832 -0.004964,-0.003134 -0.007962,-6.7648e-4 -0.003314,0.002718 -0.002332,0.004742 0.002508,0.005142 0.004379,3.7021e-4 0.006833,-0.001638 0.005453,-0.004477 z m 0.1422254,-0.0113331 c 0.006367,-0.0243983 0.005256,-0.0335583 -0.0035,-0.0288609 -0.004291,0.002303 -0.009859,0.0134451 -0.012374,0.0247631 -0.003981,0.0179152 -0.003527,0.0205784 0.003501,0.0205784 0.00444,0 0.0100088,-0.007415 0.0123734,-0.0164805 z m -0.0827064,-0.009585 c 0.0234709,-0.009651 0.0483338,-0.0235474 0.0552507,-0.0308842 0.0241542,-0.0256182 0.0384251,-0.0308676 0.10030183,-0.0368979 0.0342731,-0.003339 0.0791396,-0.0102976 0.0997034,-0.0154608 0.0205638,-0.005162 0.0654304,-0.0143123 0.0997034,-0.0203319 0.0342729,-0.006019 0.053902,-0.0119898 0.04362,-0.0132683 -0.0102826,-0.001279 -0.0663651,0.006861 -0.12462929,0.0180878 -0.0582641,0.0112265 -0.10686956,0.0176004 -0.10801194,0.0141636 -0.003882,-0.0116815 -0.0779794,0.0151912 -0.12528129,0.0454361 -0.0259175,0.0165719 -0.057872,0.0344632 -0.0710097,0.0397594 -0.0131381,0.005293 -0.0238877,0.0112742 -0.0238877,0.013285 0,0.006675 0.0111714,0.00382 0.05424,-0.0138898 z m 0.41536037,-0.0341037 c 0.0328613,-0.0496261 0.0455776,-0.0761547 0.0365043,-0.0761547 -0.008509,0 -0.0387797,0.0425049 -0.0636706,0.0894014 -0.016777,0.0316087 -0.0187742,0.0380428 -0.0103861,0.0334571 0.005712,-0.003119 0.0226106,-0.0241394 0.0375522,-0.0467038 z m -0.8564153,0.0203405 c 0.01042818,-0.0125337 0.01679772,-0.0242673 0.01415516,-0.0260735 -0.0042547,-0.002909 -0.03861659,0.0377864 -0.03861659,0.0457344 0,0.007143 0.006531,0.001887 0.02446167,-0.019661 z m 0.40550944,-0.004984 c 0.009139,-0.009383 0.0218657,-0.024646 0.0282807,-0.0339177 0.006416,-0.009272 0.0126358,-0.0148625 0.0138248,-0.012425 0.001188,0.00244 -0.004961,0.0143581 -0.0136668,0.0264901 -0.008706,0.0121321 -0.013881,0.0220584 -0.0115021,0.0220584 0.004594,0 0.0509756,-0.0553079 0.057634,-0.0687281 0.007408,-0.0149302 -0.0113969,-0.008326 -0.0198047,0.006956 -0.005553,0.0100915 -0.008754,0.0117038 -0.009902,0.004991 -0.002747,-0.0160439 -0.0223163,-5.961e-5 -0.0536826,0.0438349 -0.0280698,0.0392878 -0.0239133,0.0443508 0.008821,0.0107452 z m 0.14456833,0.0129731 0.0132953,-0.0147937 -0.0120122,-0.00293 c -0.0108746,-0.002652 -0.0189048,0.008343 -0.0190815,0.0261261 -7.59e-5,0.009466 0.003091,0.007963 0.0177985,-0.008404 z M 0.10053909,0.45473592 c 0.011585,-0.0140944 0.0175172,-0.0253343 0.0134129,-0.0254158 -0.006552,-1.2635e-4 -0.04041547,0.0399619 -0.04041547,0.0478486 0,0.00749 0.0075898,0.001186 0.0270027,-0.0224329 z m 0.0237566,0.002424 c 0.0113993,-0.0127244 0.0188026,-0.024451 0.0164512,-0.0260587 -0.003964,-0.002711 -0.0278301,0.0199889 -0.0422846,0.0402144 -0.01357485,0.0189943 0.005499,0.008542 0.0258333,-0.0141557 z m 0.0376578,-0.008341 c 0.0139689,-0.014797 0.0192073,-0.0240575 0.0147376,-0.0260528 -0.006527,-0.002914 -0.0491487,0.0360158 -0.0491487,0.0448934 0,0.0101869 0.0145062,0.002251 0.0344112,-0.0188405 z m 0.036212,-0.004421 c 0.0149686,-0.0178327 0.0204639,-0.0282565 0.015934,-0.0302258 -0.006105,-0.002653 -0.0533227,0.0453066 -0.0533227,0.0541587 0,0.0109412 0.0175383,-2.8625e-4 0.0373885,-0.0239334 z m 0.0343916,-0.008345 c 0.0170348,-0.0179307 0.0233672,-0.0283098 0.0185756,-0.0304457 -0.006408,-0.002855 -0.052967,0.0446254 -0.052967,0.0540163 0,0.00883 0.0103463,0.001744 0.0343916,-0.0235706 z m 0.018714,0.006585 c 0.0107776,-0.0113416 0.0233335,-0.0265562 0.0279032,-0.0338101 0.008261,-0.0131138 0.008258,-0.0131904 -5.265e-4,-0.01346 -0.004861,-1.5155e-4 -0.0112789,0.005761 -0.0142626,0.0131324 -0.002985,0.007371 -0.0125587,0.0208694 -0.0212799,0.0299941 -0.008721,0.009126 -0.0158568,0.0184303 -0.0158568,0.0206782 0,0.007264 0.004076,0.004455 0.0240255,-0.0165341 z m 0.0369519,-0.0133626 c 0.0118313,-0.013917 0.0226908,-0.0292174 0.0241322,-0.0340013 0.005484,-0.0181996 -0.008135,-0.007427 -0.0320918,0.0253833 -0.0289682,0.0396736 -0.0234873,0.0456081 0.007959,0.008618 z m 0.019266,0.007157 c 0.00499,-0.005382 0.01445,-0.0189593 0.0210203,-0.0301714 0.0157418,-0.0268625 0.019481,-0.0182876 0.004112,0.00943 -0.017648,0.031828 -0.004537,0.0265061 0.0225691,-0.009162 0.0232322,-0.0305699 0.0239794,-0.0448087 0.0017,-0.0323873 -0.006186,0.003452 -0.0153885,0.007381 -0.0204513,0.00874 -0.0100295,0.00269 -0.0512487,0.0633369 -0.0430476,0.0633369 0.002765,0 0.009108,-0.004405 0.0140988,-0.009786 z m 0.25145676,-0.0241091 c 0.0140633,-0.0186423 0.02557,-0.035896 0.02557,-0.0383415 0,-0.0126445 -0.0130212,-7.404e-4 -0.0333462,0.0304841 -0.0274762,0.0422108 -0.0272347,0.0417528 -0.0219963,0.0417528 0.002314,0 0.0157089,-0.015253 0.0297724,-0.0338953 z m 0.0485217,0.0250338 c 0.001752,-0.005813 -0.00138,-0.006865 -0.009102,-0.003063 -0.0159166,0.007842 -0.0174233,0.0119233 -0.004401,0.0119233 0.005957,0 0.0120345,-0.00399 0.0135034,-0.008862 z m 0.0445558,-0.0053 c -0.002854,-0.002365 -0.00753,-0.002365 -0.010385,0 -0.002854,0.002365 -5.1445e-4,0.004299 0.005191,0.004299 0.005712,0 0.008049,-0.001934 0.005193,-0.004299 z M 0.38354819,0.39753682 c 0.0127798,-0.0174033 0.0210931,-0.0331075 0.0184742,-0.0348978 -0.004083,-0.002792 -0.0501471,0.0557188 -0.0501471,0.0636964 0,0.009231 0.011273,-0.001017 0.031673,-0.0287988 z m 0.51242492,0.0147235 c 0.008894,-0.009305 0.0175222,-0.0214063 0.019175,-0.0268907 0.00509,-0.0168845 -0.0219402,-0.001401 -0.0313918,0.0179823 -0.0149012,0.0305614 -0.0111153,0.0333216 0.0122168,0.008908 z M 0.41649236,0.38492587 c 0.0142412,-0.0188618 0.0184218,-0.0281628 0.0136235,-0.0303083 -0.003807,-0.001704 -0.0156344,0.0105431 -0.0262826,0.027213 -0.0240776,0.0376943 -0.0151178,0.0398852 0.012659,0.003095 z m 0.18012208,0.004075 c 0.0138936,-0.0168664 0.0170571,-0.023976 0.0116727,-0.0262319 -0.004064,-0.001699 -0.0139427,0.008709 -0.021955,0.0231375 -0.0179733,0.032366 -0.0146528,0.0333653 0.0102836,0.003095 z M 0.44950147,0.37394811 c 0.0228389,-0.0269898 0.0238823,-0.0294486 0.0124629,-0.0293596 -0.008263,6.819e-5 -0.0179449,0.0100248 -0.0287338,0.0295631 -0.0206096,0.0373241 -0.0154298,0.0372597 0.016271,-2.0215e-4 z m 0.0332343,0.0126291 c 0.003037,-0.0100776 -0.001029,-0.0100776 -0.0124628,0 -0.008011,0.007061 -0.007983,0.007344 7.9433e-4,0.007922 0.005004,3.2839e-4 0.0102578,-0.003239 0.0116704,-0.007922 z m 0.0317356,-0.008237 c 0.007687,-0.0131361 0.008335,-0.0168184 0.002996,-0.0170406 -0.003743,-1.6001e-4 -0.0112227,0.007257 -0.016617,0.0164733 -0.007689,0.0131361 -0.008335,0.0168184 -0.003,0.0170405 0.003747,1.6003e-4 0.0112228,-0.007257 0.0166169,-0.0164738 z m 0.11881938,-0.005294 c 0.0100904,-0.0121289 0.0177326,-0.0232926 0.016982,-0.0248086 -0.003591,-0.007257 -0.0234506,0.007774 -0.0345992,0.0261892 -0.0165153,0.0272801 -0.005511,0.0264178 0.0176174,-0.00138 z m -0.14493163,-0.015645 c 0.006489,-0.006882 0.0154867,-0.0105352 0.0199947,-0.008117 0.004857,0.002605 0.0106175,-0.001625 0.0141382,-0.0103711 0.005425,-0.0134834 0.005187,-0.0139437 -0.002735,-0.00529 -0.004771,0.005215 -0.0125521,0.007399 -0.0172906,0.004858 -0.007315,-0.003921 -0.0467343,0.0335582 -0.0467343,0.0444358 0,0.004197 0.0175644,-0.00954 0.0326264,-0.0255143 z m 0.0480794,0.0162123 c 0.004403,-0.006832 0.006687,-0.0151235 0.005078,-0.0184266 -0.00161,-0.003303 -0.00703,0.002408 -0.012044,0.0126924 -0.0102082,0.0209376 -0.00539,0.0249049 0.006965,0.005733 z m 0.13531837,-0.0125977 c 0.0119975,-0.0163572 0.0159828,-0.025501 0.0111258,-0.0255245 -0.007062,-3.413e-5 -0.0443602,0.0400168 -0.0443602,0.0476345 0,0.0112271 0.0171528,-1.8532e-4 0.0332346,-0.0221105 z m 0.0602374,0.0175296 c 0.0218707,-0.009278 0.00222,-0.0100723 -0.0228485,-9.2086e-4 -0.0140187,0.005119 -0.0155773,0.006966 -0.006232,0.007398 0.006855,3.2003e-4 0.0199406,-0.002594 0.0290801,-0.006474 z m -0.029366,-0.027082 c 0.007012,-0.00877 0.009945,-0.0159391 0.006517,-0.0159327 -0.003428,6.44e-6 -0.0137092,0.009763 -0.0228486,0.0216802 -0.0194297,0.0253358 -0.00425,0.0199937 0.0163315,-0.005748 z m -0.58884893,-0.015224 c 0.0184646,-0.0183137 0.0348337,-0.0374839 0.0363757,-0.0426012 0.006319,-0.0209649 -0.0173507,-0.007053 -0.05665029,0.0332971 -0.03642042,0.0373944 -0.03976879,0.0426013 -0.0273944,0.0426013 0.0078947,0 0.02886771,-0.01465 0.04766915,-0.0332972 z m 0.0357894,-0.001423 c 0.0411402,-0.0419423 0.0461284,-0.0504821 0.0294872,-0.0504821 -0.006855,0 -0.0142387,0.003521 -0.0164094,0.007825 -0.002173,0.004304 -0.0179678,0.0234209 -0.0351041,0.0424819 -0.04192805,0.0466356 -0.0236876,0.04678 0.0220263,1.7685e-4 z m 0.0912578,0.0291322 c -0.002813,-0.002334 -0.008421,-0.002477 -0.0124629,-3.1161e-4 -0.004042,0.002157 -0.001742,0.004069 0.005115,0.004245 0.006855,1.7685e-4 0.0101617,-0.001593 0.007349,-0.003925 z m 0.32707278,-0.007192 c 0.004207,-0.0103946 0.004008,-0.0127803 -0.001065,-0.0127803 -0.003429,0 -0.008558,0.005752 -0.0114027,0.0127803 -0.004207,0.0103944 -0.004008,0.0127803 0.001065,0.0127803 0.003429,0 0.008559,-0.005752 0.0114027,-0.0127803 z M 0.19816576,0.32028251 c 0.0300693,-0.0305805 0.0306723,-0.0317828 0.0172671,-0.0344168 -0.007997,-0.001572 -0.0168093,0.002535 -0.0207715,0.009679 -0.003785,0.006824 -0.0166959,0.0224956 -0.0286917,0.0348237 -0.0119953,0.0123286 -0.02181,0.0246834 -0.02181,0.0274559 0,0.009876 0.0233215,-0.006336 0.0540058,-0.0375425 z m 0.0159202,0.019419 c 0.0121837,-0.0116325 0.0269236,-0.0288482 0.0327564,-0.0382579 0.0186982,-0.0301661 -0.002897,-0.0210968 -0.0302729,0.0127132 -0.0132803,0.0164014 -0.0264826,0.0298209 -0.0293383,0.0298209 -0.002854,0 -0.006347,0.003835 -0.007761,0.00852 -0.004525,0.0150175 0.011807,0.00898 0.0346144,-0.0127964 z m 0.37261757,0.005921 c -0.001278,-0.002627 -0.004631,-5.48e-6 -0.00745,0.005818 -0.004073,0.008414 -0.003595,0.009394 0.002329,0.004768 0.004097,-0.003202 0.006402,-0.007964 0.005123,-0.0105873 z m 0.1372268,0.002147 c 0.007604,-0.0124937 0.007471,-0.0126712 -0.002321,-0.003106 -0.0127164,0.0124213 -0.0150733,0.0163566 -0.009795,0.0163566 0.002229,0 0.007682,-0.005963 0.0121165,-0.0132507 z m 0.0288358,-0.003788 c 0.0103301,-0.0140315 0.0110416,-0.0169053 0.004154,-0.016795 -0.009868,1.6001e-4 -0.0324698,0.0333839 -0.0228485,0.0335901 0.003428,7.671e-5 0.0118398,-0.007485 0.0186944,-0.0167951 z m 0.023441,0.003632 c 0.006953,-0.007376 0.0115932,-0.0155592 0.0103126,-0.0181874 -0.003188,-0.006533 -0.0275224,0.0147864 -0.0275224,0.0241097 0,0.010403 0.00269,0.009478 0.0172096,-0.005922 z m 0.18329272,0.007412 c -0.005111,-0.002024 -0.0144565,-0.002072 -0.0207716,-1.1794e-4 -0.006314,0.001955 -0.002132,0.003617 0.00929,0.003676 0.0114238,5.966e-5 0.0165909,-0.00154 0.011481,-0.003558 z M 0.25884866,0.3264207 c 0.0252978,-0.0296857 0.0307862,-0.0420792 0.0186346,-0.0420792 -0.004627,0 -0.0199832,0.0153365 -0.0341238,0.0340812 -0.0194441,0.0257752 -0.0233985,0.0340812 -0.0162247,0.0340812 0.005217,0 0.0194883,-0.0117374 0.0317137,-0.0260832 z m 0.0424917,-0.008803 c 0.0167607,-0.0190626 0.0295704,-0.0365129 0.028466,-0.0387778 -0.005068,-0.0103944 -0.0330818,0.0100248 -0.0552797,0.0402937 -0.0203698,0.0277766 -0.0227051,0.0333014 -0.0140462,0.0332301 0.005712,-4.262e-5 0.0240992,-0.0156823 0.0408599,-0.0347454 z m 0.50958593,0.0178449 c 0.006855,-0.00931 0.0100336,-0.0169538 0.007063,-0.0169847 -0.006109,-5.966e-5 -0.0299123,0.0237959 -0.0299123,0.0299834 0,0.009203 0.0111901,0.002839 0.0228484,-0.0129993 z M 0.34556286,0.3068563 c 0.0216273,-0.0233069 0.0234626,-0.027107 0.0141717,-0.0293384 -0.006747,-0.001621 -0.0212349,0.0103116 -0.039385,0.0324381 -0.0248725,0.0303211 -0.0267671,0.0342442 -0.0141717,0.0293383 0.007996,-0.003116 0.0257204,-0.0177118 0.039385,-0.032438 z m 0.0281227,0.0314844 c -0.002855,-0.002365 -0.00753,-0.002365 -0.0103861,0 -0.002854,0.002365 -5.1445e-4,0.004299 0.005193,0.004299 0.005712,0 0.008049,-0.001934 0.005193,-0.004299 z m 0.17657893,-0.009268 c 0.002329,-0.0144929 -0.004001,-0.0133982 -0.013767,0.002381 -0.007809,0.0126189 -0.007746,0.0129555 0.001998,0.0106502 0.005533,-0.00131 0.0108301,-0.007173 0.0117706,-0.0130312 z m 0.0622072,0.009763 c -0.001383,-0.002828 -0.004964,-0.003132 -0.007962,-6.7649e-4 -0.003314,0.002722 -0.002332,0.00474 0.002508,0.005146 0.004379,3.7026e-4 0.006833,-0.001641 0.005453,-0.004475 z M 0.8462379,0.3269428 C 0.8557549,0.311676 0.8559289,0.3102697 0.8483179,0.3101477 0.8437449,0.310071 0.8344007,0.3176327 0.8275463,0.3269428 0.8151022,0.3438455 0.8150991,0.343871 0.8254663,0.3437379 0.8311783,0.34366119 0.8405259,0.3361069 0.8462379,0.3269428 Z m 0.0264752,-3.9588e-4 c 0.0105731,-0.009592 0.0192221,-0.0191766 0.0192221,-0.0213003 0,-0.0120265 -0.0205135,-7.1377e-4 -0.0311571,0.0171754 -0.0153188,0.0257529 -0.0128465,0.0266079 0.0119351,0.004128 z M 0.57413072,0.3269428 c 0.001411,-0.004687 -2.2226e-4,-0.00852 -0.003663,-0.00852 -0.003429,0 -0.007388,0.003835 -0.008799,0.00852 -0.00141,0.004687 2.2226e-4,0.00852 0.003663,0.00852 0.003429,0 0.007388,-0.003835 0.008799,-0.00852 z m 0.073739,0.002876 c -0.002854,-0.002365 -0.00753,-0.002365 -0.010385,0 -0.002854,0.002365 -5.1447e-4,0.004299 0.005191,0.004299 0.005712,0 0.008049,-0.001934 0.005193,-0.004299 z M 0.9106298,0.3184212 c 0.009236,-0.0125459 0.0105287,-0.0169431 0.004985,-0.0169847 -0.007672,-5.96e-5 -0.0319896,0.022736 -0.0319896,0.0299834 0,0.009948 0.015658,0.002413 0.027003,-0.0129993 z M 0.37930369,0.3041422 c 0.0133534,-0.0125379 0.0219117,-0.0244149 0.0190181,-0.0263929 -0.007986,-0.005459 -0.0218119,0.003981 -0.0402152,0.0274587 -0.0220898,0.0281804 -0.009263,0.0275352 0.0211973,-0.001065 z m 0.0430602,-0.009669 c 0.0177322,-0.0175053 0.0209297,-0.0233151 0.0139962,-0.0254288 -0.008597,-0.002621 -0.0595592,0.044168 -0.0595592,0.0546802 0,0.00841 0.0212017,-0.005198 0.0455631,-0.0292514 z m 0.0614848,0.0263772 c -0.006241,-0.001944 -0.0174593,-0.001981 -0.024926,-8.426e-5 -0.007467,0.001896 -0.002359,0.003484 0.0113502,0.003532 0.0137092,5.114e-5 0.0198184,-0.001502 0.0135761,-0.003452 z m 0.1110239,-0.002334 c 0.001454,-0.004831 -2.2224e-4,-0.006258 -0.00391,-0.00335 -0.007196,0.005664 -0.008513,0.0117714 -0.002539,0.0117714 0.002148,0 0.005051,-0.003793 0.006448,-0.008423 z m 0.0209715,-6.6585e-4 c 0.004472,-0.0148375 -6.198e-4,-0.0179797 -0.00632,-0.003899 -0.003277,0.008098 -0.003591,0.0129865 -8.4242e-4,0.0129865 0.002431,0 0.00565,-0.004091 0.007155,-0.009087 z M 0.46104412,0.2909022 c 0.0226482,-0.0241125 0.0245038,-0.0278576 0.0149957,-0.0302736 -0.006878,-0.001748 -0.0198043,0.008317 -0.0353115,0.0274946 -0.0320929,0.0396892 -0.0163733,0.041839 0.020316,0.00278 z m 0.23356131,0.0143857 0.0207714,-0.0114945 -0.0186944,0.005023 c -0.0102826,0.002764 -0.0294543,0.004874 -0.0426053,0.004682 -0.0131511,-1.8521e-4 -0.0249455,0.00309 -0.0262097,0.007288 -0.003451,0.011454 0.0430203,0.007623 0.0667376,-0.005501 z M 0.8046946,0.2767239 C 0.8332555,0.2574767 0.8594275,0.237754 0.8628549,0.2328959 0.8732901,0.2181053 0.839997,0.23286178 0.7943088,0.2632867 0.7714602,0.2785003 0.7420165,0.2954832 0.7288784,0.3010268 0.7157405,0.3065698 0.704991,0.3132835 0.704991,0.3159458 c 0,0.0130051 0.0533423,-0.007979 0.0997035,-0.0392216 z m 0.0373885,0.004239 C 0.8637891,0.2651518 0.8880918,0.2463362 0.8960891,0.2391505 0.9098888,0.2267506 0.9100733,0.2260502 0.8997101,0.2253903 0.8937051,0.22501274 0.881554,0.2309823 0.8727071,0.2386659 0.8638591,0.2463509 0.8388612,0.2653124 0.8171553,0.2808054 0.7896239,0.3004561 0.7814584,0.3090859 0.7901523,0.3093421 0.7970073,0.30954424 0.820375,0.2967737 0.8420811,0.2809626 Z M 0.50277434,0.2729179 c 0.008736,-0.009891 0.0138789,-0.0193549 0.0114273,-0.0210305 -0.00245,-0.001676 -0.0142725,0.008993 -0.0262697,0.0237085 -0.0236476,0.0290038 -0.0111492,0.0267488 0.0148422,-0.002679 z M 0.86752537,0.2884324 C 0.89991577,0.265365 0.93883357,0.2297768 0.93473347,0.2269739 0.93253947,0.2254719 0.90938917,0.2413916 0.88329547,0.262351 0.83886757,0.2980364 0.82739337,0.3170129 0.86752557,0.2884326 Z M 0.53218838,0.27155716 c 0.0233341,-0.025446 0.0291845,-0.0271141 0.0149392,-0.004259 l -0.0103849,0.0166618 0.0136488,-0.007823 c 0.007506,-0.004303 0.0205925,-0.0166787 0.0290798,-0.027502 0.0143194,-0.0182608 0.0147327,-0.0198817 0.005741,-0.0224934 -0.00533,-0.001547 -0.0135475,0.004204 -0.0182627,0.0127804 -0.005651,0.0102801 -0.009145,0.0122551 -0.0102506,0.005796 -0.001005,-0.00585 -0.005361,-0.00752 -0.0108185,-0.004144 -0.0116178,0.007189 -0.0444509,0.0427893 -0.0444509,0.0481986 0,0.009646 0.0125889,0.0026 0.0307584,-0.0172139 z m 0.0523279,0.0127804 c 0,-0.004687 -0.001869,-0.00852 -0.004154,-0.00852 -0.002287,0 -0.004155,0.003834 -0.004155,0.00852 0,0.004687 0.001869,0.00852 0.004155,0.00852 0.002287,0 0.004154,-0.003835 0.004154,-0.00852 z m 0.11008904,0 0.0124629,-0.006504 -0.0145402,-3.7755e-4 c -0.007996,-2.1055e-4 -0.0229526,0.002694 -0.0332344,0.006445 l -0.0186947,0.006822 0.0207714,5.96e-5 c 0.0114238,3.415e-5 0.02638,-0.002871 0.0332345,-0.006445 z m 0.0810091,-0.0207144 c 0.0252382,-0.0167113 0.0276908,-0.0196969 0.0129104,-0.0157158 -0.0100357,0.002705 -0.0305996,0.0140079 -0.0456975,0.0251223 -0.0356306,0.0262289 -0.00987,0.0188385 0.0327869,-0.009407 z m 0.15578649,0.008782 c 0.0114238,-0.0111572 0.0245102,-0.0263342 0.0290803,-0.0337269 0.0142417,-0.0230395 -0.002378,-0.0169954 -0.0318229,0.0115711 -0.0144858,0.0140549 -0.0286743,0.025557 -0.0315303,0.0255607 -0.002853,3.69e-6 -0.005194,0.003841 -0.005194,0.008527 0,0.0146053 0.0178048,0.009223 0.0394659,-0.0119318 z M 0.6266275,0.26670216 c 0.009269,-0.009699 0.0160414,-0.0193017 0.0150482,-0.0213391 -0.002467,-0.005064 -0.0282868,0.0134662 -0.0383508,0.0275262 -0.0136969,0.0191354 0.003451,0.0145821 0.0233025,-0.006187 z M 0.22962701,0.25410883 c 0.0295362,-0.0119395 0.0723963,-0.032069 0.095245,-0.0447315 l 0.0415433,-0.0230231 -0.0236672,-0.00254 c -0.0164849,-0.001771 -0.0343053,0.004113 -0.0587242,0.0193897 -0.0192823,0.0120623 -0.0609763,0.0330066 -0.0926538,0.0465425 -0.0482799,0.0206306 -0.0541873,0.0247294 -0.0365204,0.0253418 0.0115909,4.0322e-4 0.0452411,-0.009038 0.0747774,-0.0209777 z m 0.039162,0.005171 c 0.0773178,-0.0320843 0.15202474,-0.072373 0.13991289,-0.0754536 -0.006446,-0.001638 -0.0363568,0.0105777 -0.066469,0.0271494 -0.0301122,0.0165718 -0.0697049,0.0375142 -0.0879838,0.0465393 -0.0435375,0.0214963 -0.0353919,0.0224853 0.0145399,0.001767 z m 0.060744,-2.9451e-4 c 0.0536432,-0.0198109 0.13909459,-0.0631054 0.14983021,-0.0759127 0.0150706,-0.0179788 -0.0153922,-0.0101254 -0.0626571,0.0161537 -0.0253752,0.0141084 -0.0685695,0.0367153 -0.0959879,0.0502378 -0.058806,0.0290023 -0.0550172,0.0330949 0.008816,0.009521 z m 0.33345086,-0.005956 c 0.0104282,-0.0125337 0.0166012,-0.0244013 0.0137185,-0.0263719 -0.002881,-0.001972 -0.0140547,0.008239 -0.0248264,0.0226884 -0.0240294,0.0322331 -0.0151067,0.035192 0.0111083,0.003684 z m 0.0596633,0.017146 c -0.002854,-0.002364 -0.00753,-0.002364 -0.010385,0 -0.002854,0.002364 -5.1445e-4,0.004298 0.005193,0.004298 0.005712,0 0.008049,-0.001936 0.005193,-0.004298 z M 0.42891795,0.24938376 c 0.0486284,-0.0210605 0.11179618,-0.0541147 0.12651824,-0.0662041 0.008569,-0.007036 0.005606,-0.008623 -0.016928,-0.009069 -0.0185545,-3.7023e-4 -0.0367853,0.006067 -0.0568488,0.0200623 -0.016244,0.0113314 -0.0502213,0.0309252 -0.0755051,0.0435416 -0.0252836,0.0126166 -0.0459703,0.0244332 -0.0459703,0.026259 0,0.00834 0.0309661,0.001767 0.0687341,-0.0145904 z m 0.27058183,-0.007553 c 0.0252141,-0.0296589 0.0306326,-0.0425893 0.014748,-0.0351945 -0.0101586,0.004729 -0.0466454,0.0497309 -0.0466454,0.0575301 0,0.009106 0.0127703,1.6001e-4 0.0318973,-0.0223354 z m -0.081749,-0.0132648 c 0.0183201,-0.0239119 0.0203848,-0.0286545 0.0104176,-0.0239266 -0.0137522,0.006524 -0.0483306,0.0542482 -0.0390832,0.0539422 0.003201,-1.0945e-4 0.016098,-0.0136128 0.0286649,-0.0300155 z m 0.12081125,-0.001081 c 0.008955,-0.0121535 0.016281,-0.023505 0.016281,-0.0252253 0,-0.0121964 -0.0179411,0.001887 -0.0353249,0.0277333 -0.0174678,0.0259695 -0.0188939,0.0299679 -0.008997,0.0252258 0.006469,-0.003101 0.019087,-0.0155798 0.0280415,-0.0277334 z m -0.26318268,0.0176207 c -0.001381,-0.00283 -0.004964,-0.003134 -0.007962,-6.7435e-4 -0.003314,0.00272 -0.002333,0.004738 0.002508,0.005147 0.004379,3.7023e-4 0.006833,-0.001642 0.005453,-0.004476 z m 0.29319034,-0.0202254 c 0.0107296,-0.0139552 0.0195078,-0.0273748 0.0195078,-0.0298212 0,-0.0131748 -0.0170583,-8.1776e-4 -0.0350175,0.0253734 -0.0259675,0.0378651 -0.0130342,0.0415741 0.0155099,0.004447 z m -0.18820755,-0.021095 c 0.0475366,-0.0265236 0.0501719,-0.0290001 0.0311575,-0.0292757 -0.0124688,-1.7686e-4 -0.0431897,0.0132822 -0.076855,0.0336814 -0.0499561,0.0302699 -0.0533599,0.0334684 -0.0311575,0.0292757 0.0137092,-0.002587 0.048294,-0.0177454 0.0768549,-0.033681 z m 0.22908668,0.003453 c 0.0117763,-0.0206591 0.0126504,-0.0244732 0.005632,-0.0245651 -0.008956,-1.1792e-4 -0.0407646,0.0450349 -0.0370677,0.052617 0.004118,0.008449 0.0173701,-0.003376 0.0314362,-0.0280518 z m -0.14184627,-0.002265 c 0.0112579,-0.0142384 0.0128729,-0.0190478 0.007154,-0.0213068 -0.007032,-0.002779 -0.0445429,0.0364353 -0.0445429,0.0465673 0,0.00873 0.0225687,-0.006518 0.0373885,-0.0252601 z m 0.16688372,0.005616 c 0.004181,-0.007756 0.007598,-0.0173407 0.007598,-0.0213005 0,-0.0143467 -0.0112345,-0.00672 -0.0207716,0.014101 -0.008776,0.0191584 -0.008986,0.0213006 -0.002091,0.0213006 0.004217,0 0.011086,-0.006345 0.0152645,-0.014101 z m 0.0244209,-0.007418 c 0.014939,-0.015844 0.0154395,-0.0210818 0.002017,-0.0210818 -0.005989,0 -0.0120861,0.007075 -0.014686,0.0170406 -0.005338,0.0204561 -0.003391,0.0210762 0.0126693,0.004042 z m 0.0241491,-0.004533 c 0.007683,-0.009607 0.0129697,-0.0195191 0.0117474,-0.0220264 -0.001222,-0.002508 -0.009347,0.005367 -0.0180504,0.0174998 -0.0187497,0.0261304 -0.0138111,0.0296768 0.006303,0.004528 z m -0.1789573,-0.0122906 c 0.008406,-0.0117155 0.0124089,-0.0213006 0.008895,-0.0213006 -0.003514,0 -0.0127233,0.009585 -0.0204658,0.0213006 -0.007743,0.0117155 -0.0117453,0.0213005 -0.008895,0.0213005 0.002849,0 0.0120598,-0.009585 0.0204658,-0.0213005 z m 0.24224445,0.003339 c 0.009727,-0.0153382 0.009758,-0.0157469 0.001145,-0.0159317 -0.00486,-1.0107e-4 -0.0111655,0.005562 -0.0140103,0.0125908 -0.002847,0.007029 -0.007041,0.0127804 -0.009326,0.0127804 -0.002315,0 -0.001871,-0.005651 0.001019,-0.0127804 0.004353,-0.010754 0.003611,-0.0127504 -0.004682,-0.0125908 -0.005421,1.0108e-4 -0.0144723,0.007465 -0.0201153,0.0163579 l -0.0102588,0.0161684 0.0231244,-4.2887e-4 c 0.0158665,-2.9479e-4 0.0262572,-0.005366 0.0331074,-0.0161684 z M 0.73639321,0.17809685 c 0.0108734,-0.0168678 -4.573e-4,-0.0170752 -0.0147845,-2.6953e-4 -0.009494,0.0111316 -0.009652,0.0122027 -0.001833,0.0124787 0.004704,1.6844e-4 0.0121818,-0.005327 0.0166173,-0.0122074 z m -0.0729449,-0.00453 c 0.007594,-0.0100653 0.001029,-0.0100653 -0.0103849,0 -0.00548,0.004828 -0.006186,0.007482 -0.002076,0.007791 0.003429,2.6106e-4 0.009036,-0.003247 0.0124629,-0.007791 z m 0.10385774,0 c 0.00516,-0.006839 0.004803,-0.008259 -0.002079,-0.008259 -0.004571,0 -0.0111129,0.003716 -0.0145402,0.008259 -0.00516,0.006839 -0.004803,0.008259 0.002079,0.008259 0.004569,0 0.0111129,-0.003716 0.0145402,-0.008259 z m 0.0314017,-0.00399 c 0.007932,-0.0123053 0.007924,-0.0125139 -4.904e-4,-0.0127804 -0.004704,-1.516e-4 -0.0121817,0.005358 -0.0166176,0.0122386 -0.007932,0.0123053 -0.007924,0.0125139 4.9041e-4,0.0127804 0.004704,1.5157e-4 0.0121822,-0.005358 0.0166175,-0.0122387 z m 0.024791,-0.011406 c -0.001281,-0.002625 -0.004629,-5.39e-6 -0.00745,0.005818 -0.004072,0.008415 -0.003595,0.009393 0.002326,0.00477 0.004097,-0.0032 0.006402,-0.007964 0.005122,-0.0105873 z m 0.0248159,0.006875 c 0.00141,-0.004686 -2.3396e-4,-0.008521 -0.003663,-0.008521 -0.003429,0 -0.007388,0.003833 -0.008799,0.008521 -0.00141,0.004686 2.3397e-4,0.008521 0.003663,0.008521 0.003429,0 0.007387,-0.003834 0.008799,-0.008521 z m 0.0238874,-0.005643 c -0.002853,-0.002364 -0.007529,-0.002364 -0.0103861,0 -0.002853,0.002364 -5.1449e-4,0.004298 0.005194,0.004298 0.005712,0 0.008049,-0.001935 0.005195,-0.004298 z m 0.0269163,4.9851e-4 c -0.00138,-0.00283 -0.004965,-0.003134 -0.007962,-6.7435e-4 -0.003313,0.00272 -0.002332,0.004739 0.002508,0.005147 0.004379,3.7022e-4 0.006833,-0.001643 0.005453,-0.004475 z m 0.0249257,0 c -0.00138,-0.00283 -0.004965,-0.003134 -0.007962,-6.7435e-4 -0.003313,0.00272 -0.002332,0.004739 0.002508,0.005147 0.004379,3.7022e-4 0.006833,-0.001643 0.005453,-0.004475 z" id="path4941" inkscape:connector-curvature="0" sodipodi:nodetypes="csssssssssssssssssssscssscsssssssccsccscccccscccccccsccsscccsssscsccscsccccssscssscssscsscscsscsssssscscssssssssccsscssssssssssscssssssssssssssssssssssssscssscscccsscssssssscscsssssssscssccssssssssscsssssssscsscssscssssssssscssssscsscssssssssccsccsscssscsssscsssssscscsssccssssssssssscssssssssssssssssscsssccsccsscssssssssssssscscssssscsscsscscccccsccssssssssssssssssscsscccccsssssssssssscsssssssssscsssscssssccsscscsscssssssssssssssssssssssssssssssssssssssssssssssssssssssssssssssssssccsccsscssssssscssssssssssssssssssscsssssssssscssscccccccssssssssssssssssscsscsssssccsscsscccccsssssssscsscssssssssssscssccccccscscssssssscssssssscsssssssssssscsssssssssssssscsscssscssssscsscssssssssssscsssssssssssssccssccccsssssssssssssssscssscsssssssssssssssssssssssssssssscscccssssscccccsssssssssssssssssssssssscsssssssssscccsscscsccsscssscssssssssssscsscssssssssscccccccccc" />
</svg>