<?xml version="1.0" encoding="UTF-8" standalone="no"?>
<svg
   xmlns:dc="http://purl.org/dc/elements/1.1/"
   xmlns:cc="http://creativecommons.org/ns#"
   xmlns:rdf="http://www.w3.org/1999/02/22-rdf-syntax-ns#"
   xmlns:svg="http://www.w3.org/2000/svg"
   xmlns="http://www.w3.org/2000/svg"
   xmlns:xlink="http://www.w3.org/1999/xlink"
   xmlns:sodipodi="http://sodipodi.sourceforge.net/DTD/sodipodi-0.dtd"
   xmlns:inkscape="http://www.inkscape.org/namespaces/inkscape"
   xlink:href=""
   version="1.1"
   height="300px"
   width="200px"
   viewBox="0 0 200 300"
   id="svg2"
   inkscape:version="0.91 r13725"
   sodipodi:docname="豹纹灰岩.svg">
  <metadata
     id="metadata50">
    <rdf:RDF>
      <cc:Work
         rdf:about="">
        <dc:format>image/svg+xml</dc:format>
        <dc:type
           rdf:resource="http://purl.org/dc/dcmitype/StillImage" />
        <dc:title></dc:title>
      </cc:Work>
    </rdf:RDF>
  </metadata>
  <sodipodi:namedview
     pagecolor="#ffffff"
     bordercolor="#666666"
     borderopacity="1"
     objecttolerance="10"
     gridtolerance="10"
     guidetolerance="10"
     inkscape:pageopacity="0"
     inkscape:pageshadow="2"
     inkscape:window-width="1600"
     inkscape:window-height="838"
     id="namedview48"
     showgrid="false"
     inkscape:zoom="4.6805231"
     inkscape:cx="55.936455"
     inkscape:cy="259.36455"
     inkscape:window-x="-8"
     inkscape:window-y="-8"
     inkscape:window-maximized="1"
     inkscape:current-layer="svg2" />
  <defs
     id="defs4">
    <pattern
       patternUnits="userSpaceOnUse"
       width="60.178154"
       height="20.390769"
       patternTransform="translate(-0.17815378,0)"
       id="豹纹灰岩">
      <g
         id="g4182"
         transform="translate(0.17815378,0)">
        <path
           d="M 7.5,10 7.5,0"
           id="path28"
           inkscape:connector-curvature="0"
           style="fill:none;stroke:#000000;stroke-width:1" />
        <path
           d="m 37.5,10 0,-10"
           id="path32"
           inkscape:connector-curvature="0"
           style="fill:none;stroke:#000000;stroke-width:1" />
        <path
           d="m 22.5,20 0,-10"
           id="path38"
           inkscape:connector-curvature="0"
           style="fill:none;stroke:#000000;stroke-width:1" />
        <path
           d="m 52.5,20 0,-10"
           id="path42"
           inkscape:connector-curvature="0"
           style="fill:none;stroke:#000000;stroke-width:1" />
        <path
           d="m -0.17815378,10.287385 59.99999978,0"
           id="path44"
           inkscape:connector-curvature="0"
           style="fill:none;stroke:#000000;stroke-width:1" />
        <path
           d="m 0,19.890769 60,0"
           id="path46"
           inkscape:connector-curvature="0"
           style="fill:none;stroke:#000000;stroke-width:1" />
        <path
           style="opacity:0.9906977;fill:none;fill-opacity:1;stroke:#000000;stroke-width:1.40887797;stroke-miterlimit:4;stroke-dasharray:none;stroke-opacity:1"
           id="path4153"
           sodipodi:type="arc"
           sodipodi:cx="-19.830845"
           sodipodi:cy="10.832093"
           sodipodi:rx="3.0230589"
           sodipodi:ry="3.056633"
           sodipodi:start="0.17847013"
           sodipodi:end="5.6063483"
           d="m -16.855803,11.37472 a 3.0230589,3.056633 0 0 1 -2.868179,2.512096 3.0230589,3.056633 0 0 1 -3.036552,-2.300918 3.0230589,3.056633 0 0 1 1.57946,-3.4886112 3.0230589,3.056633 0 0 1 3.706878,0.8203442"
           sodipodi:open="true"
           transform="matrix(-0.95319927,0.30234276,0.31169562,0.950182,0,0)" />
        <path
           style="opacity:0.9906977;fill:none;fill-opacity:1;stroke:#000000;stroke-width:1.40887797;stroke-miterlimit:4;stroke-dasharray:none;stroke-opacity:1"
           id="path4153-2"
           sodipodi:type="arc"
           sodipodi:cx="-47.948486"
           sodipodi:cy="20.239084"
           sodipodi:rx="3.0230589"
           sodipodi:ry="3.056633"
           sodipodi:start="0.17847013"
           sodipodi:end="5.6063483"
           d="m -44.973444,20.781711 a 3.0230589,3.056633 0 0 1 -2.868179,2.512096 3.0230589,3.056633 0 0 1 -3.036552,-2.300918 3.0230589,3.056633 0 0 1 1.579459,-3.488611 3.0230589,3.056633 0 0 1 3.706878,0.820344"
           sodipodi:open="true"
           transform="matrix(-0.95319927,0.30234276,0.31169562,0.950182,0,0)" />
        <path
           style="opacity:0.9906977;fill:none;fill-opacity:1;stroke:#000000;stroke-width:1.40887797;stroke-miterlimit:4;stroke-dasharray:none;stroke-opacity:1"
           id="path4153-3"
           sodipodi:type="arc"
           sodipodi:cx="-2.3909836"
           sodipodi:cy="16.985588"
           sodipodi:rx="3.0230589"
           sodipodi:ry="3.056633"
           sodipodi:start="0.17847013"
           sodipodi:end="5.6063483"
           d="m 0.58405835,17.528214 a 3.0230589,3.056633 0 0 1 -2.86817895,2.512097 3.0230589,3.056633 0 0 1 -3.036552,-2.300918 3.0230589,3.056633 0 0 1 1.5794597,-3.488611 3.0230589,3.056633 0 0 1 3.70687814,0.820344"
           sodipodi:open="true"
           transform="matrix(-0.95319927,0.30234276,0.31169562,0.950182,0,0)" />
        <path
           style="opacity:0.9906977;fill:none;fill-opacity:1;stroke:#000000;stroke-width:1.40887797;stroke-miterlimit:4;stroke-dasharray:none;stroke-opacity:1"
           id="path4153-25"
           sodipodi:type="arc"
           sodipodi:cx="-30.946623"
           sodipodi:cy="25.622131"
           sodipodi:rx="3.0230589"
           sodipodi:ry="3.056633"
           sodipodi:start="0.17847013"
           sodipodi:end="5.6063483"
           d="m -27.971581,26.164758 a 3.0230589,3.056633 0 0 1 -2.868179,2.512096 3.0230589,3.056633 0 0 1 -3.036552,-2.300918 3.0230589,3.056633 0 0 1 1.57946,-3.488611 3.0230589,3.056633 0 0 1 3.706878,0.820344"
           sodipodi:open="true"
           transform="matrix(-0.95319927,0.30234276,0.31169562,0.950182,0,0)" />
      </g>
    </pattern>
  </defs>
  <g
     transform="translate(0,0)"
     id="BaseLayer"
     inkscape:label="BaseLayer"
     inkscape:groupmode="layer"
     xml:space="preserve" />  <rect
     style="stroke:none;fill:url(#豹纹灰岩)"
     width="60.178154"
     height="20.390769"
     x="-0.17815378"
     y="0"
     id="rect4207" />
</svg>
