<?xml version="1.0" encoding="utf-8" standalone="no"?>
<svg xmlns:dc="http://purl.org/dc/elements/1.1/" xmlns:cc="http://creativecommons.org/ns#" xmlns:rdf="http://www.w3.org/1999/02/22-rdf-syntax-ns#" xmlns:svg="http://www.w3.org/2000/svg" xmlns="http://www.w3.org/2000/svg" xmlns:sodipodi="http://sodipodi.sourceforge.net/DTD/sodipodi-0.dtd" xmlns:inkscape="http://www.inkscape.org/namespaces/inkscape" height="1" version="1.1" width="1" id="svg2" inkscape:version="0.91 r13725" sodipodi:docname="GarbenInGarbenNormalFault.svg">
  <metadata id="metadata8">
    <rdf:RDF>
      <cc:Work rdf:about="">
        <dc:format>image/svg+xml</dc:format>
        <dc:type rdf:resource="http://purl.org/dc/dcmitype/StillImage" />
        <dc:title></dc:title>
      </cc:Work>
    </rdf:RDF>
  </metadata>
  <defs id="defs6">
    <pattern width="1" height="1" id="GarbenInGarbenNormalFault" patternContentUnits="objectBoundingBox">
      <path style="fill:#000000" d="M 0.33448975,0.7005962 C 0.31472945,0.6556591 0.29704555,0.6188588 0.29519335,0.6188178 c -0.001855,-4.046e-5 -0.003371,0.0278799 -0.003371,0.0620463 0,0.0341664 -0.001515,0.0621208 -0.003371,0.0621209 -0.001855,1.3e-7 -0.002658,-0.0302202 -0.001786,-0.0671563 l 0.001578,-0.0671564 -0.0554734,-0.002411 c -0.0305101,-0.001326 -0.0569892,-0.001451 -0.0588415,-2.7931e-4 -0.001855,0.001173 -0.003772,0.0305721 -0.004263,0.0653317 l -8.9957e-4,0.0631993 -0.002471,-0.0649445 -0.002471,-0.0649445 -0.0580316,-0.001587 c -0.04340987,-0.001188 -0.05895155,2.3386e-4 -0.06168277,0.005647 -0.002007,0.003979 -0.0038829,0.0212123 -0.0041667,0.0382956 -2.8474e-4,0.0170833 -0.002208,0.0374137 -0.0042779,0.0451788 -0.0022356,0.008384 -0.0026996,-0.006185 -0.0011419,-0.0358659 0.0020622,-0.0393324 0.0012808,-0.0510478 -0.0036543,-0.0549751 -0.0037242,-0.002967 0.04039696,-0.005026 0.10875711,-0.005078 l 0.1150254,-8.77e-5 0.002956,-0.0316194 c 0.002443,-0.0261445 0.001384,-0.0348174 -0.006118,-0.050088 -0.0110613,-0.0225067 -0.02205,-0.0254435 -0.0955221,-0.02553 l -0.0527699,-6.264e-5 0,0.0476691 c 0,0.0290046 -0.001966,0.049195 -0.005011,0.0515662 -0.0036405,0.002829 -0.0041252,-0.010237 -0.0017646,-0.0476691 l 0.0032464,-0.0515661 -0.03640453,0 c -0.02002262,0 -0.03640461,-0.002329 -0.03640461,-0.005177 0,-0.002848 0.0017646,-0.006024 0.0039174,-0.007059 0.0021528,-0.001035 0.0053569,-0.0215776 0.0071198,-0.0456494 l 0.003205,-0.0437669 -0.0161016,0 c -0.0088555,0 -0.0161016,-0.002658 -0.0161016,-0.005908 0,-0.003417 0.0083782,-0.005362 0.01986694,-0.004613 0.01683109,0.001096 0.0228363,-0.001728 0.03929643,-0.0184928 0.02911759,-0.0296524 0.03594017,-0.0317343 0.0109707,-0.003347 l -0.02193164,0.0249327 0.0396127,0.003831 0.0396134,0.003831 0.0161902,-0.0198798 c 0.009647,-0.0118449 0.0206587,-0.0198798 0.0272467,-0.0198798 0.006395,0 0.0286982,-0.0156903 0.0529145,-0.0372281 0.0230224,-0.0204755 0.0427308,-0.0361312 0.0437975,-0.0347898 0.003966,0.00499 -0.0828614,0.0776742 -0.0930554,0.0778949 -0.005828,1.2527e-4 -0.0172534,0.007388 -0.0253834,0.016138 l -0.014783,0.0159087 0.0293259,0.003779 0.0293259,0.003778 0.10671476,-0.0783212 c 0.0586933,-0.0430766 0.12035624,-0.0878358 0.13702914,-0.099465 0.0166727,-0.011629 0.0303143,-0.022368 0.0303143,-0.0238637 0,-0.001495 -0.0146522,-0.002283 -0.0325597,-0.001751 -0.0179082,5.3163e-4 -0.0573548,-9.5909e-4 -0.0876599,-0.003314 l -0.055102,-0.004282 -0.0399532,0.0347579 c -0.0272895,0.0237408 -0.0442349,0.0347579 -0.053462,0.0347579 -0.007429,0 -0.0289259,0.0104571 -0.047769,0.0232377 -0.0188432,0.0127806 -0.0353753,0.0218359 -0.0367375,0.0201228 -0.004049,-0.005091 0.0691096,-0.0490078 0.0816391,-0.0490078 0.00652,0 0.0265614,-0.0128797 0.0461328,-0.0296486 l 0.0346022,-0.0296486 -0.0639966,-0.001567 c -0.0386458,-9.4467e-4 -0.0639973,-0.003792 -0.0639973,-0.007189 0,-0.005125 0.31679994,-0.002103 0.33070138,0.003157 0.002803,0.001064 0.020989,0.0387405 0.0404059,0.0837316 l 0.0353026,0.0818019 0.0269595,0.003266 c 0.0148281,0.001795 0.0613159,0.003779 0.10330678,0.004401 l 0.0763473,0.001139 0.0824221,-0.0578212 c 0.0453321,-0.0318017 0.0845777,-0.0569176 0.0872125,-0.0558132 0.002639,0.001106 -0.0420874,0.0349013 -0.0993822,0.0751046 -0.087879,0.0616637 -0.10208805,0.0733696 -0.0908457,0.0748415 0.009403,0.001231 0.023626,-0.005837 0.0483033,-0.0240012 0.019237,-0.0141605 0.0386224,-0.0257458 0.0430789,-0.0257458 0.004456,0 0.0176348,-0.006024 0.0292856,-0.0133867 0.0367679,-0.0232362 0.0451916,-0.0218264 0.009956,0.001666 -0.0185255,0.012351 -0.0380955,0.0225826 -0.043489,0.0227364 -0.00918,2.6269e-4 -0.0553134,0.0325061 -0.0553134,0.0386612 0,0.001545 0.0193761,0.001356 0.0430581,-4.2118e-4 0.0351979,-0.00264 0.0460605,-0.00571 0.059506,-0.0168167 0.009047,-0.007473 0.0225106,-0.0180248 0.029921,-0.0234493 l 0.0134728,-0.009863 -0.0129735,0.0131437 c -0.0355439,0.0360096 -0.0351588,0.0325123 -0.003605,0.0327216 0.0177119,1.1748e-4 0.0272933,0.002307 0.0255588,0.005836 -0.001527,0.003106 -0.0175972,0.005647 -0.0357128,0.005647 -0.0258914,0 -0.0335201,0.001911 -0.0356631,0.008933 -0.004663,0.0152771 -0.002996,0.0362417 0.002888,0.0363323 0.003938,6.264e-5 0.003708,0.001604 -7.6829e-4,0.005167 -0.003511,0.002795 -0.007933,0.0160974 -0.009825,0.0295622 -0.002097,0.0149161 -0.002488,0.004072 -0.001003,-0.0277567 l 0.002443,-0.0522379 -0.0245506,0 c -0.0135029,0 -0.033927,0.001616 -0.0453869,0.003591 l -0.0208364,0.003591 0,0.031234 c 0,0.0171786 -0.001394,0.0294805 -0.003099,0.0273373 -0.001704,-0.002144 -0.002565,-0.0165439 -0.001912,-0.0320015 l 0.001187,-0.028105 -0.0221641,0 -0.0221641,0 0.004751,0.0223768 c 0.004404,0.0207493 0.003716,0.0241866 -0.009461,0.0472598 l -0.0142107,0.024883 0.0206913,0.003566 c 0.0113803,0.001961 0.0562813,0.003713 0.09978,0.003892 0.0434989,1.7955e-4 0.0871726,0.002578 0.0970527,0.005332 0.0135341,0.003771 0.005227,0.004736 -0.0336825,0.00391 l -0.0516467,-0.001096 -0.001305,0.025413 c -7.1706e-4,0.0139772 3.7964e-4,0.0355783 0.002444,0.0480025 0.003519,0.0212065 0.005022,0.0229351 0.0245371,0.0282367 0.0211675,0.00575 0.033238,0.0141184 0.0203654,0.0141184 -0.00561,0 -0.007724,0.009197 -0.0100621,0.0437669 -0.001628,0.0240717 -0.004806,0.0501201 -0.007062,0.0578853 -0.004243,0.0146066 -0.003747,3.8792e-4 0.002593,-0.0742867 l 0.002711,-0.0319316 -0.0229457,-0.006188 c -0.0260797,-0.007033 -0.0805964,-0.00834 -0.081458,-0.001952 -3.1651e-4,0.002329 -0.002084,0.0321898 -0.003933,0.0663563 l -0.003361,0.0621208 5.696e-4,-0.0656252 5.696e-4,-0.0656252 -0.0471556,-0.003104 c -0.0259356,-0.001707 -0.0489326,-9.4557e-4 -0.0511042,0.001693 -0.002171,0.002638 -0.005538,0.0373777 -0.00748,0.0771995 l -0.003532,0.0724034 0.001076,-0.0770925 c 0.001226,-0.0877869 3.902e-4,-0.0890414 -0.0282961,-0.0422907 -0.0163418,0.026636 -0.0184621,0.0340462 -0.0232919,0.0814025 -0.002921,0.0286545 -0.006734,0.052099 -0.008474,0.052099 -0.001737,0 -0.001446,-0.0157737 6.5381e-4,-0.0350527 0.002098,-0.0192789 0.003114,-0.0376841 0.002263,-0.0409006 -8.5135e-4,-0.003216 -0.0112828,0.0125573 -0.0231782,0.0350527 -0.0118954,0.0224954 -0.0235852,0.0409006 -0.0259766,0.0409006 -0.004555,0 0.001841,-0.0140634 0.0257274,-0.0565552 0.0158323,-0.0281629 0.020474,-0.0642549 0.008978,-0.0698023 -0.005018,-0.00242 -0.006693,0.001825 -0.007031,0.0178233 -2.426e-4,0.0115502 -0.00207,0.0273535 -0.004042,0.0351187 -0.002665,0.0104495 -0.00371,0.004823 -0.004042,-0.0216481 -5.5905e-4,-0.0447884 -0.0109685,-0.0463132 -0.0130325,-0.001909 -7.4753e-4,0.0160626 -0.003128,0.0292047 -0.005288,0.0292047 -0.00216,0 -0.002782,-0.0139772 -0.001384,-0.0310605 0.00216,-0.0263252 0.001426,-0.0310604 -0.004817,-0.0310604 -0.00616,0 -0.007419,0.007138 -0.007699,0.0437669 -1.7927e-4,0.0240718 -0.002118,0.0552028 -0.004299,0.06918 -0.002796,0.0178971 -0.003322,0.004953 -0.001785,-0.0437669 0.001778,-0.056461 0.001032,-0.06918 -0.004036,-0.06918 -0.006153,0 -0.011894,0.0465558 -0.0119715,0.0970834 -1.716e-5,0.0114644 -0.002277,0.0225899 -0.005025,0.0247234 -0.00353,0.00274 -0.004229,-0.004208 -0.002402,-0.023668 0.008849,-0.0940246 0.008828,-0.0981389 -5.0561e-4,-0.0981389 -0.007451,0 -0.009221,0.005263 -0.0116683,0.0347125 -0.001585,0.0190919 -0.002886,0.0470463 -0.002886,0.0621208 0,0.0155255 -0.002062,0.0274084 -0.004755,0.0274084 -0.002617,0 -0.003835,-0.001906 -0.0027,-0.004236 0.001128,-0.002329 0.002762,-0.0309192 0.003634,-0.0635326 l 0.001578,-0.0592971 -0.0112274,0 -0.0112275,0 8.2366e-4,0.0649445 c 6.3415e-4,0.0499033 -6.88e-5,0.0590588 -0.003032,0.0395314 -0.002125,-0.0139772 -0.004008,-0.0440493 -0.004194,-0.0668269 -2.4253e-4,-0.0304708 -0.001814,-0.040797 -0.005946,-0.0390793 -0.003786,0.001576 -0.006423,0.0214644 -0.008102,0.0611795 l -0.002485,0.0588451 -8.7197e-4,-0.0607089 c -6.8558e-4,-0.0472098 -0.002249,-0.060709 -0.007054,-0.060709 -0.007537,0 -0.0116856,0.0239488 -0.0121044,0.0698859 -1.7927e-4,0.0190244 -0.002187,0.0396725 -0.004471,0.0458846 -0.002803,0.007622 -0.003447,-0.001559 -0.001972,-0.0282368 0.005212,-0.0942686 0.00551,-0.0903575 -0.006804,-0.0903575 -0.009331,0 -0.0113714,0.00304 -0.0125689,0.0187228 -7.8906e-4,0.0102975 9.8323e-4,0.0223687 0.003917,0.0268249 0.0038,0.005762 0.00389,0.008102 3.0566e-4,0.008102 -0.002983,0 -0.005039,0.0103878 -0.005039,0.025413 0,0.0144242 -0.002098,0.0254131 -0.004845,0.0254131 -0.003052,0 -0.003752,-0.006283 -0.00189,-0.016942 0.001904,-0.0108899 0.001176,-0.016942 -0.002028,-0.016942 -0.008201,0 -0.0103394,0.0152459 -0.004997,0.0356129 0.004727,0.0180161 0.002844,0.0379343 -0.003565,0.0376945 -0.001585,-5.846e-5 -0.019055,-0.0368749 -0.038816,-0.081812 z m 0.0371853,0.0449252 c -0.006347,-0.0272927 -0.006264,-0.0271377 -0.0122886,-0.0224546 -0.003288,0.002555 -0.001654,0.0110522 0.00499,0.0259154 0.012047,0.0269525 0.0141407,0.0259594 0.007298,-0.00346 z M 0.36349875,0.7099085 C 0.36339819,0.7079115 0.35733875,0.6974786 0.35002525,0.6867247 0.33994545,0.671895 0.33673445,0.6696385 0.33673445,0.6773827 c 0,0.015879 0.0141705,0.0423222 0.0209307,0.0390599 0.003308,-0.001597 0.005932,-0.004537 0.005835,-0.006533 z m 0.0214242,-0.015995 c 8.7197e-4,-0.003305 -0.001523,-0.007514 -0.005336,-0.009353 -0.004852,-0.002343 -0.006927,1.2524e-4 -0.006927,0.008246 0,0.0116186 0.009251,0.0124538 0.0122594,0.001106 z M 0.35384035,0.655948 c -0.005704,-0.0110675 -0.0118843,-0.0201542 -0.0137372,-0.0201927 -0.007218,-1.5074e-4 -0.002789,0.0185768 0.008982,0.0379902 0.0158385,0.026116 0.0197804,0.0113623 0.004755,-0.0177975 z m 0.0322959,0.002327 c 0,-0.0188245 -0.001495,-0.0225894 -0.008982,-0.0225894 -0.006846,0 -0.008982,0.003764 -0.008982,0.0158126 0,0.0152419 0.006915,0.0293662 0.0143712,0.0293662 0.001979,0 0.003592,-0.0101652 0.003592,-0.0225895 z M 0.60156217,0.656862 c 7.932e-5,-0.002329 -0.002886,-0.004236 -0.006596,-0.004236 -0.004319,0 -0.006734,0.005453 -0.006734,0.0151977 0,0.0145756 2.7416e-4,0.014749 0.006596,0.004236 0.003627,-0.006029 0.006658,-0.0128682 0.006734,-0.0151977 z M 0.33224411,0.65245 c 0,-0.0156962 -0.0100597,-0.0285858 -0.0162435,-0.0208109 -0.002506,0.00315 0.0104363,0.0379302 0.0141131,0.0379302 0.00117,0 0.002132,-0.007703 0.002132,-0.0171192 z m 0.031437,-0.00547 c 0,-0.006303 -0.002997,-0.0112946 -0.006777,-0.0112946 -0.005648,0 -0.005842,0.001874 -0.001163,0.0112946 0.003087,0.006212 0.006132,0.0112947 0.006777,0.0112947 6.4273e-4,0 0.001163,-0.005083 0.001163,-0.0112947 z M 0.60619602,0.633195 c 0,-0.0136401 -0.007492,-0.0149735 -0.0186189,-0.003314 l -0.0105727,0.0110765 0.0145954,1.8841e-4 c 0.009784,1.2525e-4 0.0145954,-0.002495 0.0145954,-0.007949 z M 0.51188462,0.630038 c 0,-0.003106 -0.002914,-0.005647 -0.006472,-0.005647 -0.003558,0 -0.007721,0.002541 -0.009247,0.005647 -0.00153,0.003106 0.001384,0.005647 0.006472,0.005647 0.005087,0 0.009247,-0.002541 0.009247,-0.005647 z m 0.055009,-0.0188913 c 0.00926,-0.0129051 0.0168381,-0.0253697 0.0168415,-0.0276992 1.44e-5,-0.009872 -0.008543,-0.002905 -0.0181995,0.0148161 -0.0109014,0.020006 -0.0267047,0.035693 -0.0267047,0.0265084 0,-0.002949 0.002021,-0.006933 0.004492,-0.008852 0.002471,-0.00192 0.00443,-0.007787 0.004347,-0.0130398 -1.0548e-4,-0.007334 -0.002713,-0.005874 -0.0112275,0.006295 -0.0141975,0.0202937 -0.0139594,0.0250589 0.001267,0.0252666 0.008886,1.2082e-4 0.0170727,-0.006413 0.0291854,-0.0232953 z m 0.0299807,-3.5468e-4 0.0108875,-0.0146369 -0.0112274,0 c -0.0126186,0 -0.0333072,0.0241271 -0.0287099,0.0334814 0.003779,0.007685 0.0144806,7.4144e-4 0.0290497,-0.0188444 z m 0.0261362,-0.005595 c -0.006286,-0.007904 -0.00722,-0.007901 -0.009641,3.621e-5 -0.001474,0.004833 -0.002679,0.0142273 -0.002679,0.0208755 l 0,0.0120878 0.009641,-0.0121239 c 0.008708,-0.0109496 0.008967,-0.0129715 0.002682,-0.0208755 z M 0.3987114,0.62326262 c 0.009428,-0.0118559 0.005842,-0.016832 -0.009207,-0.0127735 -0.0212769,0.005738 -0.0249598,0.0100815 -0.0123051,0.0145107 0.016087,0.00563 0.0156226,0.005668 0.0215114,-0.001737 z m 0.03009,-0.004518 c 0.007872,-0.010937 0.007844,-0.0112946 -8.5135e-4,-0.0112946 -0.004942,0 -0.0126401,0.005083 -0.0171108,0.0112946 -0.007872,0.010937 -0.007844,0.0112947 8.5135e-4,0.0112947 0.004942,0 0.0126401,-0.005083 0.0171108,-0.0112947 z m 0.0336824,0.004478 c 0,-0.003128 -0.00326,-0.004116 -0.007236,-0.002195 -0.005177,0.002499 -0.006493,0.001065 -0.004631,-0.005043 0.003766,-0.0123301 -0.007428,-0.0105443 -0.0137545,0.002195 -0.004845,0.009762 -0.003931,0.0107299 0.0101477,0.0107299 0.008512,0 0.0154759,-0.002559 0.0154759,-0.005687 z m 0.0298873,-0.001898 c 0.00146,-0.004793 0.001446,-0.0102377 -3.169e-5,-0.0120995 -0.003883,-0.004883 -0.0167557,0.009838 -0.0138216,0.0158066 0.003835,0.007799 0.0109222,0.005902 0.0138541,-0.003707 z m -0.12875851,-0.001168 c -3.44e-5,-0.002329 -0.001793,-0.007652 -0.003897,-0.0118273 -0.003156,-0.006266 -0.006285,-0.005994 -0.017895,0.001557 -0.007737,0.005032 -0.0140687,0.010354 -0.0140687,0.0118273 0,0.001474 0.008084,0.002679 0.0179642,0.002679 0.00988,0 0.017933,-0.001906 0.017895,-0.004236 z M 0.3479629,0.59437245 c 0.0290602,-0.0195425 0.0374809,-0.0282747 0.0440508,-0.0456828 0.004464,-0.0118371 0.007429,-0.0223941 0.006582,-0.02346 -0.001246,-0.00157 -0.0913551,0.0670944 -0.0972205,0.0740861 -0.0027,0.003217 0.003302,0.019439 0.007151,0.0193231 0.001931,-5.847e-5 0.0196773,-0.010978 0.0394376,-0.0242664 z m 0.14146697,-0.004849 c 0,-0.009131 -0.0132361,-0.004477 -0.0178057,0.00626 -0.00828,0.019454 -0.004977,0.0253145 0.006576,0.0116659 0.006174,-0.007295 0.0112275,-0.0153618 0.0112275,-0.0179264 z m 0.0446045,0.0128192 c 0.0113375,-0.0200216 0.0116178,-0.0238091 0.001426,-0.019287 -0.009638,0.004278 -0.028069,0.0246495 -0.028069,0.031026 0,0.0112171 0.0181767,0.003208 0.0266404,-0.011739 z m -0.0176583,-0.01271 c 0,-0.002625 -0.003876,-0.004772 -0.008608,-0.004772 -0.009228,0 -0.0138604,0.009556 -0.0103851,0.0214213 0.001634,0.005588 0.004118,0.005051 0.0105657,-0.002288 0.004638,-0.005274 0.008427,-0.0117375 0.008427,-0.0143621 z m -0.13845242,0.008471 c 0.012701,-0.0144532 0.009714,-0.0201564 -0.005406,-0.0103239 -0.007492,0.004871 -0.0124242,0.0112896 -0.0109623,0.0142634 0.003724,0.007572 0.006934,0.006798 0.0163695,-0.003939 z m 0.0430181,-0.003309 c 0.0102301,-0.0103312 0.005835,-0.0162865 -0.0107159,-0.0145104 -0.0103914,0.001116 -0.0185366,0.005958 -0.0223995,0.0133171 -0.0058,0.0110514 -0.005322,0.0114601 0.0107159,0.009214 0.009232,-0.001293 0.0193125,-0.004902 0.0223995,-0.008021 z m 0.3199849,-0.035347 0,-0.0480025 -0.0244356,0 c -0.0134395,0 -0.0256846,0.002541 -0.0272111,0.005647 -0.001527,0.003106 -0.004796,0.005647 -0.007266,0.005647 -0.00247,0 -0.003242,-0.002541 -0.001715,-0.005647 0.001527,-0.003106 0.001559,-0.005647 7.404e-5,-0.005647 -0.004054,0 -0.0292582,0.0691255 -0.0292623,0.0802548 -2.96e-6,0.00824 0.005784,0.00994 0.0392928,0.0115452 0.021613,0.001036 0.0418226,0.002405 0.0449102,0.003044 0.004124,8.5251e-4 0.005614,-0.0115847 0.005614,-0.0468411 z m 0.0853293,0 0,-0.0480025 -0.0404191,0 -0.0404191,0 0,0.0480025 0,0.0480024 0.0404191,0 0.0404191,0 0,-0.0480024 z M 0.4445196,0.59333175 c 0.004658,-0.007053 0.004077,-0.008471 -0.003461,-0.008471 -0.004977,0 -0.0102148,0.003812 -0.0116365,0.008471 -0.001508,0.004944 -6.873e-5,0.008471 0.003461,0.008471 0.003322,0 0.008561,-0.003812 0.0116365,-0.008471 z m 0.0228847,-6.5172e-4 c 0.005212,-0.007893 0.00488,-0.008845 -0.002443,-0.007059 -0.004658,0.001135 -0.009308,0.00524 -0.0103366,0.009122 -0.002665,0.0100742 0.005662,0.00873 0.0127827,-0.002063 z m 0.17471971,0.003475 c 0,-0.003106 -8.9612e-4,-0.005647 -0.00198,-0.005647 -0.001089,0 -0.00323,0.002541 -0.004757,0.005647 -0.001527,0.003106 -6.3273e-4,0.005647 0.00198,0.005647 0.002616,0 0.004757,-0.002541 0.004757,-0.005647 z M 0.27835194,0.58448943 c 0,-0.006416 -0.00234,-0.0171602 -0.005198,-0.0238753 -0.00508,-0.0119326 -0.005274,-0.0119561 -0.008666,-0.001041 -0.0067,0.0215639 -0.004693,0.0365818 0.00488,0.0365818 0.006084,0 0.008982,-0.003764 0.008982,-0.0116659 z m 0.28742511,3.791e-5 c 0,-0.002922 -0.002021,-0.005314 -0.004492,-0.005314 -0.002471,0 -0.004492,0.003962 -0.004492,0.008804 0,0.004842 0.002021,0.007234 0.004492,0.005314 0.002471,-0.00192 0.004492,-0.005882 0.004492,-0.008804 z M 0.35341467,0.54998159 c 0.0491527,-0.0385828 0.0521532,-0.0420371 0.0625417,-0.0720036 0.0108336,-0.0312508 0.0113769,-0.0318134 0.075679,-0.0784247 l 0.064767,-0.046948 -0.009737,-0.0252009 c -0.005357,-0.0138605 -0.0120781,-0.0240712 -0.0149402,-0.0226899 -0.0135033,0.006516 -0.0870678,0.0786936 -0.0893264,0.0876426 -0.002602,0.0102964 -0.0915729,0.0795575 -0.10220095,0.0795575 -0.004375,0 -0.0584892,0.0417824 -0.0703098,0.0542844 -0.002284,0.002419 0.008865,0.0360731 0.0119528,0.0360731 0.001322,0 0.009449,-0.006761 0.0180652,-0.0150252 0.008616,-0.008264 0.0229533,-0.016824 0.0318612,-0.0190225 0.008907,-0.002199 0.0222583,-0.005646 0.0296685,-0.007661 0.0102058,-0.002775 0.008645,-8.5014e-4 -0.006437,0.007935 -0.0109499,0.006379 -0.0224293,0.0103823 -0.0255101,0.008896 -0.004894,-0.002361 -0.0421557,0.0267406 -0.0421557,0.0329217 0,0.007732 0.006139,0.0201921 0.009951,0.0201921 0.002478,0 0.0277325,-0.0182371 0.0561289,-0.0405271 z m 0.1652067,0.0238449 0.0224549,-0.004398 -0.0278038,-7.5472e-4 c -0.0156351,-4.245e-4 -0.0292145,-0.003625 -0.0310272,-0.007312 -0.002402,-0.004884 0.007566,-0.005751 0.0390313,-0.003399 0.0430271,0.003217 0.0534821,0.00176 0.0534821,-0.007456 0,-0.002848 -0.0219946,-0.005177 -0.0488772,-0.005177 -0.0450156,0 -0.049062,8.8764e-4 -0.051214,0.0112361 -0.002222,0.0107016 -0.003239,0.010836 -0.0212983,0.002823 -0.0220811,-0.009797 -0.0519261,-0.0110658 -0.0561905,-0.00239 -0.004548,0.009253 -0.001453,0.0106873 0.0342935,0.0158995 0.0424547,0.00619 0.0593571,0.00637 0.0871483,9.2664e-4 z m 0.1177534,-0.017635 c -0.007953,-0.001791 -0.0190072,-0.005139 -0.0245649,-0.00744 -0.005773,-0.00239 -0.0101041,-0.001859 -0.0101041,0.001241 0,0.007228 0.0112364,0.0122794 0.0273134,0.0122794 0.007454,0 0.0131353,0.003045 0.0131744,0.007059 4.503e-5,0.004692 0.001507,0.004218 0.004356,-0.001412 0.003409,-0.006737 0.001327,-0.009138 -0.0101739,-0.0117279 z M 0.46845163,0.53883775 c 0.002374,-0.0113947 0.004471,-0.0119345 0.0342063,-0.008799 0.017425,0.001837 0.031682,0.001158 0.031682,-0.001509 0,-0.002666 -0.002526,-0.005983 -0.005613,-0.007369 -0.0119992,-0.005389 -1.44e-5,-0.00834 0.0225255,-0.005545 0.0205978,0.002554 0.0229144,0.004048 0.0179642,0.0115864 -0.004935,0.007514 -0.003952,0.008241 0.007445,0.005517 0.007222,-0.001726 0.0211162,4.0456e-4 0.0308791,0.004737 0.009763,0.004331 0.0245282,0.007875 0.0328127,0.007875 0.0128853,0 0.0163051,-0.003063 0.0236575,-0.0211851 l 0.008595,-0.0211851 -0.0253448,-0.009534 c -0.0139396,-0.005243 -0.035806,-0.0105673 -0.0485917,-0.01183 -0.0204289,-0.002017 -0.0231706,-0.001032 -0.0226224,0.00813 7.0601e-4,0.0117512 0.0101684,0.0132579 0.0284323,0.004526 0.0106024,-0.005069 0.0138846,-0.003957 0.0233094,0.007894 l 0.0109694,0.0137938 -0.009897,0.00666 c -0.00788,0.005304 -0.0134997,0.004847 -0.0275979,-0.002246 -0.009737,-0.004899 -0.0228584,-0.008907 -0.0291598,-0.008907 -0.0105443,0 -0.0277589,-0.0144608 -0.023536,-0.0197709 0.001004,-0.00126 0.006797,-0.00479 0.0128852,-0.007844 0.008298,-0.004164 -0.001288,-0.005621 -0.0383378,-0.005825 -0.0334623,-1.8399e-4 -0.0472278,0.001495 -0.0426644,0.005203 0.003703,0.003011 0.0153257,0.005513 0.0258236,0.005561 0.0104979,4.593e-5 0.0190868,0.002628 0.0190868,0.005734 0,0.003106 -0.00407,0.005647 -0.009043,0.005647 -0.004977,0 -0.0125522,0.002378 -0.0168415,0.005284 -0.0328746,0.0222754 -0.0365444,0.0229326 -0.0487339,0.008726 l -0.0115624,-0.0134744 0.0166006,0.003387 c 0.014592,0.002977 0.0164041,0.002091 0.0149755,-0.007327 -9.6943e-4,-0.006373 -0.00616,-0.0115064 -0.0128069,-0.0126679 -0.0135157,-0.002361 -0.0241327,-0.0123679 -0.0192315,-0.0181263 0.006153,-0.007226 0.18144578,0.005651 0.20013143,0.0147018 0.009312,0.004511 0.0228349,0.008201 0.0300492,0.008201 0.0135775,0 0.0215606,-0.007968 0.0139267,-0.0139012 -0.008613,-0.006694 -0.0804485,-0.0137571 -0.16487876,-0.0162121 l -0.0860065,-0.0025 -0.0139186,0.039626 c -0.007655,0.0217943 -0.0139186,0.0417062 -0.0139186,0.0442487 0,0.002542 0.01061,0.005556 0.0235775,0.006697 0.0129675,0.001141 0.0268791,0.002545 0.0309137,0.003119 0.004153,5.9191e-4 0.008431,-0.004222 0.00986,-0.0110949 z m 0.17367262,-0.005126 c 0,-0.003336 0.002238,-0.0113253 0.004974,-0.0177528 0.00399,-0.009373 0.005754,-0.0101382 0.008914,-0.003864 0.00557,0.0110592 0.005177,0.0127127 -0.004905,0.0206299 -0.005914,0.004645 -0.008982,0.004982 -0.008982,9.8704e-4 z m -0.22010077,-0.008086 c 0.003052,-0.004625 0.007558,-0.006849 0.0100114,-0.004941 0.002713,0.002107 0.00207,0.005373 -0.001634,0.008323 -0.009687,0.007719 -0.0144398,0.005801 -0.00838,-0.003381 z m -0.12074011,-0.033946 c 0.0171827,-0.0139772 0.0335653,-0.025413 0.0364053,-0.025413 0.0103249,0 0.0975519,-0.0689903 0.10012739,-0.0791939 0.001453,-0.005769 0.0227594,-0.0285454 0.0473399,-0.0506137 0.042454,-0.0381148 0.0479628,-0.0449127 0.0422325,-0.0521183 -0.002194,-0.002753 -0.26366904,0.19294069 -0.27303071,0.20434152 -0.004526,0.005508 0.004354,0.0284105 0.0110149,0.0284105 0.002568,0 0.0187276,-0.0114359 0.0359104,-0.0254131 z m 0.40708335,-0.0215656 c 0.0102635,-0.0189583 0.0135733,-0.0433788 0.005879,-0.0433788 -0.005736,0 -0.008526,0.006486 -0.0157112,0.0365085 -0.007253,0.0303073 -0.004062,0.0325366 0.009832,0.00687 z M 0.2237477,0.45073655 c -0.0189311,-0.0431036 -0.0256035,-0.0522379 -0.0381578,-0.0522379 -0.0100307,0 -0.0105567,0.001946 -0.01106,0.0409432 l -5.2842e-4,0.0409432 -0.003952,-0.0282367 c -0.002173,-0.0155301 -0.002907,-0.0339547 -0.001634,-0.0409432 0.001972,-0.0107844 4.427e-4,-0.0127437 -0.010113,-0.0129527 -0.006839,-1.3411e-4 -0.0336561,-0.002486 -0.05959177,-0.005225 -0.02593572,-0.002738 -0.04849171,-0.003262 -0.05012378,-0.001166 -0.0016335,0.002097 -0.0043952,0.0235075 -0.0061391,0.0475794 l -0.0031705,0.0437669 0.09936844,0 0.0993684,0 -0.0142618,-0.0324722 z m -0.0887524,0.0240012 c -0.001737,-0.008502 1.477e-4,-0.0617744 0.002277,-0.0644739 0.003731,-0.004724 0.004049,0.00304 0.001488,0.0362371 -0.001439,0.0186362 -0.003135,0.0313427 -0.003766,0.0282367 z m 0.25114103,-0.0961116 c 0.0728667,-0.0551291 0.13333297,-0.10117238 0.13436933,-0.10231838 0.002533,-0.002801 -0.0161785,-0.052516 -0.0257101,-0.0683168 l -0.007611,-0.0126164 -0.11676638,0.0852293 c -0.0642216,0.0468759 -0.12633679,0.0919436 -0.13803401,0.10015012 -0.0225158,0.0157967 -0.0247951,0.0210652 -0.0157832,0.0364884 0.005191,0.008887 0.008815,0.008066 0.0482785,-0.0109348 0.0234655,-0.0112985 0.0517586,-0.024845 0.062874,-0.0301036 0.0129675,-0.006135 0.0239403,-0.0165015 0.0306202,-0.0289289 0.007794,-0.0145013 0.0252872,-0.0290619 0.0696107,-0.0579431 0.0325604,-0.021216 0.0551585,-0.0344389 0.0502186,-0.0293841 -0.004942,0.005055 -0.031718,0.0244224 -0.0595059,0.0430396 -0.0277879,0.0186167 -0.0505342,0.0356517 -0.050546,0.0378552 -1.37e-5,0.002202 -0.004562,0.0110328 -0.0101055,0.0196206 -0.007043,0.010908 -0.0219461,0.0206582 -0.0494413,0.032349 -0.0216471,0.009204 -0.0493728,0.0221517 -0.0616121,0.0287725 l -0.0222527,0.0120378 0.007159,0.0177339 c 0.009145,0.022657 0.0152862,0.0322816 0.0188951,0.0296163 0.001571,-0.001162 0.062477,-0.0472174 0.13534399,-0.10234655 z m 0.30944078,0.0698559 c 0.005946,-0.021447 0.005959,-0.0217466 9.5994e-4,-0.0217466 -0.006039,0 -0.0192288,0.0277931 -0.0161567,0.0340436 0.004912,0.009996 0.0102087,0.005712 0.0152007,-0.0122969 z m -0.0186945,-0.003026 c 0.007977,-0.0216027 0.002612,-0.0239322 -0.0100948,-0.004383 -0.005977,0.009197 -0.0109399,0.014053 -0.0110288,0.0107917 -8.985e-5,-0.003261 0.00223,-0.008937 0.005153,-0.0126123 0.010523,-0.0132326 -0.001126,-0.0141289 -0.0122864,-9.4557e-4 -0.0104376,0.0123301 -0.0107278,0.0138473 -0.003351,0.0175085 0.016205,0.008042 0.0259976,0.004832 0.031608,-0.0103604 z m -0.0406616,-0.002764 c 0.0137038,-0.0161888 0.0131126,-0.0216049 -0.002358,-0.0216049 -0.009102,0 -0.0141577,0.003879 -0.0176636,0.0135549 -0.008345,0.0230305 0.003358,0.0277358 0.0200216,0.00805 z m -0.0908357,-0.009868 c 0.004866,-0.0118311 0.005315,-0.0171153 0.001592,-0.0186762 -0.002858,-0.001197 0.004249,-0.0120999 0.0157853,-0.024228 0.0216914,-0.0228005 0.0255495,-0.0309539 0.014646,-0.0309539 -0.003482,0 -0.0200864,0.0193235 -0.0368953,0.0429409 -0.0168097,0.0236176 -0.0312688,0.0402789 -0.0321312,0.0370253 -8.6507e-4,-0.003253 -0.008266,-0.008696 -0.0164532,-0.0120931 -0.0126775,-0.005261 -0.0172976,-0.004388 -0.031147,0.005888 -0.008944,0.006636 -0.0162615,0.0130847 -0.0162615,0.0143309 0,0.001246 0.0211682,0.002266 0.0470402,0.002266 l 0.0470402,0 0.006783,-0.0164994 z m -0.0132659,-0.006125 c 0.004485,-0.006231 0.009127,-0.0101045 0.0103187,-0.008607 0.003018,0.003795 -0.008184,0.0199368 -0.0138348,0.0199368 -0.002554,0 -9.6944e-4,-0.005098 0.003516,-0.0113294 z m 0.0404225,0.005645 c 0.0132077,-0.0173356 0.0121619,-0.0254873 -0.003738,-0.0291393 -0.006084,-0.001397 -0.009836,0.003954 -0.0145283,0.0207055 -0.007713,0.0275436 -0.007667,0.0254131 -5.6957e-4,0.0254131 0.003246,0 0.0117175,-0.00764 0.0188328,-0.0169793 z m 0.0190584,0.006003 c 0.012148,-0.0127433 0.0127495,-0.0173205 0.002242,-0.0170833 -0.004326,9.606e-5 -0.0114904,0.00645 -0.0159279,0.0141184 -0.009874,0.0170599 -0.001488,0.0188776 0.0136825,0.002966 z m 0.0192925,-8.0267e-4 c 0.007366,-0.0173093 0.002844,-0.0184477 -0.009205,-0.002318 -0.008546,0.0114406 -0.009145,0.0140961 -0.00317,0.0140961 0.004049,0 0.009617,-0.0053 0.0123743,-0.0117784 z m -0.0904553,-0.0186312 c 0.004111,-0.00623 0.002928,-0.008526 -0.005828,-0.0112897 -0.011858,-0.003743 -0.0251785,5.041e-4 -0.0251785,0.008027 0,0.002557 0.004548,0.005752 0.0101055,0.007098 0.005558,0.001346 0.0113728,0.002793 0.0129232,0.003216 0.001551,4.2339e-4 0.005143,-0.00275 0.007981,-0.007052 z m 0.13965071,-0.0118642 c 0,-0.004248 -0.003537,-0.008886 -0.007859,-0.0103062 -0.005132,-0.001687 -0.003815,-0.00281 0.003794,-0.003238 0.00641,-3.591e-4 0.0153121,-0.005737 0.0197829,-0.0119498 0.00447,-0.006212 0.0101887,-0.0112948 0.0127065,-0.0112948 0.002518,0 3.163e-5,0.006085 -0.005525,0.0135224 -0.0133746,0.0179023 -0.004565,0.0248204 0.0123348,0.009688 0.0266455,-0.0238585 0.0258013,-0.0270938 -0.00727,-0.0278618 -0.0292985,-6.7878e-4 -0.030822,-3.119e-5 -0.0422532,0.0179829 -0.0119105,0.0187702 -0.0116915,0.0276627 8.1189e-4,0.033062 0.008583,0.003706 0.013473,2.2167e-4 0.013473,-0.009605 z m 0.0138098,0.006837 c -5.5902e-4,-0.006752 -0.006714,-0.005444 -0.008645,0.001835 -9.91e-4,0.003727 6.3271e-4,0.00576 0.003593,0.004518 0.002964,-0.001242 0.005238,-0.004101 0.005052,-0.006353 z m -0.0658238,-0.001875 c 0.00391,-0.001886 0.007103,-0.00546 0.007103,-0.007942 0,-0.005674 -0.0172513,-2.9704e-4 -0.0205445,0.006404 -0.002831,0.005762 0.003246,0.006458 0.0134409,0.001538 z m 0.10498033,-0.006189 c -8.7542e-4,-0.006378 0.005486,-0.0144561 0.0188899,-0.0239876 0.017217,-0.0122433 0.0187268,-0.0146379 0.0101961,-0.016174 -0.0127748,-0.002302 -0.0533319,0.0384687 -0.0449378,0.045173 0.009437,0.007537 0.0172349,0.005071 0.0158514,-0.005011 z m -0.16778259,-0.0214592 0.0119985,-0.0197811 -0.0114655,0.006569 c -0.006306,0.003612 -0.0114655,0.008427 -0.0114655,0.0106977 0,0.002269 -0.005558,0.005966 -0.0123501,0.008212 -0.0113583,0.003755 -0.0116289,0.004453 -0.003371,0.008687 0.0135649,0.006953 0.0137794,0.006836 0.0266507,-0.0143836 z m 0.0584497,8.9239e-4 c 0.0140874,-0.0232248 0.014212,-0.0262917 0.001066,-0.0262917 -0.009161,0 -0.0345226,0.0258531 -0.0345226,0.0351909 0,0.003032 0.008263,0.007122 0.0188584,0.009333 0.001723,3.591e-4 0.008294,-0.007844 0.0145954,-0.0182318 z m 0.0350339,-2.6715e-4 c 0.0117475,-0.0112137 0.009982,-0.0260225 -0.003103,-0.0260225 -0.00603,0 -0.0122115,0.002539 -0.0137381,0.005647 -0.001527,0.003104 0.001386,0.005647 0.006471,0.005647 0.005087,0 0.009247,0.002839 0.009247,0.006305 0,0.003679 -0.00467,0.005183 -0.011199,0.003612 -0.006371,-0.001533 -0.0133843,6.1707e-4 -0.0162684,0.004989 -0.004077,0.006177 -0.002547,0.007646 0.00783,0.007501 0.007096,-1.0023e-4 0.0164368,-0.003556 0.0207594,-0.007682 z m -0.40980516,0.1865411 c 0,-0.0104375 -0.001295,-0.0314034 -0.002879,-0.0465905 -0.001585,-0.0151873 -0.001253,-0.0257167 7.2677e-4,-0.0233987 0.004818,0.00562 0.010093,0.0889668 0.005635,0.0889668 -0.001917,0 -0.003489,-0.00854 -0.003489,-0.0189775 z m 0.0673951,-0.29544749 c 3.441e-5,-0.005454 0.059409,-0.047005 0.0671674,-0.047005 0.002907,0 0.0143815,-0.007869 0.0254976,-0.0174864 0.0111167,-0.009617 0.0210768,-0.0163986 0.0221344,-0.015069 0.003454,0.004343 -0.0374767,0.0382026 -0.0461772,0.0382026 -0.004658,0 -0.010392,0.00216 -0.0127391,0.0048 -0.009246,0.0104015 -0.0559108,0.0409296 -0.0558831,0.0365575 z" id="path4221" inkscape:connector-curvature="0" />
    </pattern>
  </defs>
  <sodipodi:namedview pagecolor="#ffffff" bordercolor="#666666" borderopacity="1" objecttolerance="10" gridtolerance="10" guidetolerance="10" inkscape:pageopacity="0" inkscape:pageshadow="2" inkscape:window-width="1600" inkscape:window-height="838" id="namedview4" showgrid="false" inkscape:zoom="256" inkscape:cx="0.5" inkscape:cy="0.5" inkscape:window-x="-8" inkscape:window-y="-8" inkscape:window-maximized="1" inkscape:current-layer="svg2" />
  <path style="fill:#000000" d="M 0.33448975,0.7005962 C 0.31472945,0.6556591 0.29704555,0.6188588 0.29519335,0.6188178 c -0.001855,-4.046e-5 -0.003371,0.0278799 -0.003371,0.0620463 0,0.0341664 -0.001515,0.0621208 -0.003371,0.0621209 -0.001855,1.3e-7 -0.002658,-0.0302202 -0.001786,-0.0671563 l 0.001578,-0.0671564 -0.0554734,-0.002411 c -0.0305101,-0.001326 -0.0569892,-0.001451 -0.0588415,-2.7931e-4 -0.001855,0.001173 -0.003772,0.0305721 -0.004263,0.0653317 l -8.9957e-4,0.0631993 -0.002471,-0.0649445 -0.002471,-0.0649445 -0.0580316,-0.001587 c -0.04340987,-0.001188 -0.05895155,2.3386e-4 -0.06168277,0.005647 -0.002007,0.003979 -0.0038829,0.0212123 -0.0041667,0.0382956 -2.8474e-4,0.0170833 -0.002208,0.0374137 -0.0042779,0.0451788 -0.0022356,0.008384 -0.0026996,-0.006185 -0.0011419,-0.0358659 0.0020622,-0.0393324 0.0012808,-0.0510478 -0.0036543,-0.0549751 -0.0037242,-0.002967 0.04039696,-0.005026 0.10875711,-0.005078 l 0.1150254,-8.77e-5 0.002956,-0.0316194 c 0.002443,-0.0261445 0.001384,-0.0348174 -0.006118,-0.050088 -0.0110613,-0.0225067 -0.02205,-0.0254435 -0.0955221,-0.02553 l -0.0527699,-6.264e-5 0,0.0476691 c 0,0.0290046 -0.001966,0.049195 -0.005011,0.0515662 -0.0036405,0.002829 -0.0041252,-0.010237 -0.0017646,-0.0476691 l 0.0032464,-0.0515661 -0.03640453,0 c -0.02002262,0 -0.03640461,-0.002329 -0.03640461,-0.005177 0,-0.002848 0.0017646,-0.006024 0.0039174,-0.007059 0.0021528,-0.001035 0.0053569,-0.0215776 0.0071198,-0.0456494 l 0.003205,-0.0437669 -0.0161016,0 c -0.0088555,0 -0.0161016,-0.002658 -0.0161016,-0.005908 0,-0.003417 0.0083782,-0.005362 0.01986694,-0.004613 0.01683109,0.001096 0.0228363,-0.001728 0.03929643,-0.0184928 0.02911759,-0.0296524 0.03594017,-0.0317343 0.0109707,-0.003347 l -0.02193164,0.0249327 0.0396127,0.003831 0.0396134,0.003831 0.0161902,-0.0198798 c 0.009647,-0.0118449 0.0206587,-0.0198798 0.0272467,-0.0198798 0.006395,0 0.0286982,-0.0156903 0.0529145,-0.0372281 0.0230224,-0.0204755 0.0427308,-0.0361312 0.0437975,-0.0347898 0.003966,0.00499 -0.0828614,0.0776742 -0.0930554,0.0778949 -0.005828,1.2527e-4 -0.0172534,0.007388 -0.0253834,0.016138 l -0.014783,0.0159087 0.0293259,0.003779 0.0293259,0.003778 0.10671476,-0.0783212 c 0.0586933,-0.0430766 0.12035624,-0.0878358 0.13702914,-0.099465 0.0166727,-0.011629 0.0303143,-0.022368 0.0303143,-0.0238637 0,-0.001495 -0.0146522,-0.002283 -0.0325597,-0.001751 -0.0179082,5.3163e-4 -0.0573548,-9.5909e-4 -0.0876599,-0.003314 l -0.055102,-0.004282 -0.0399532,0.0347579 c -0.0272895,0.0237408 -0.0442349,0.0347579 -0.053462,0.0347579 -0.007429,0 -0.0289259,0.0104571 -0.047769,0.0232377 -0.0188432,0.0127806 -0.0353753,0.0218359 -0.0367375,0.0201228 -0.004049,-0.005091 0.0691096,-0.0490078 0.0816391,-0.0490078 0.00652,0 0.0265614,-0.0128797 0.0461328,-0.0296486 l 0.0346022,-0.0296486 -0.0639966,-0.001567 c -0.0386458,-9.4467e-4 -0.0639973,-0.003792 -0.0639973,-0.007189 0,-0.005125 0.31679994,-0.002103 0.33070138,0.003157 0.002803,0.001064 0.020989,0.0387405 0.0404059,0.0837316 l 0.0353026,0.0818019 0.0269595,0.003266 c 0.0148281,0.001795 0.0613159,0.003779 0.10330678,0.004401 l 0.0763473,0.001139 0.0824221,-0.0578212 c 0.0453321,-0.0318017 0.0845777,-0.0569176 0.0872125,-0.0558132 0.002639,0.001106 -0.0420874,0.0349013 -0.0993822,0.0751046 -0.087879,0.0616637 -0.10208805,0.0733696 -0.0908457,0.0748415 0.009403,0.001231 0.023626,-0.005837 0.0483033,-0.0240012 0.019237,-0.0141605 0.0386224,-0.0257458 0.0430789,-0.0257458 0.004456,0 0.0176348,-0.006024 0.0292856,-0.0133867 0.0367679,-0.0232362 0.0451916,-0.0218264 0.009956,0.001666 -0.0185255,0.012351 -0.0380955,0.0225826 -0.043489,0.0227364 -0.00918,2.6269e-4 -0.0553134,0.0325061 -0.0553134,0.0386612 0,0.001545 0.0193761,0.001356 0.0430581,-4.2118e-4 0.0351979,-0.00264 0.0460605,-0.00571 0.059506,-0.0168167 0.009047,-0.007473 0.0225106,-0.0180248 0.029921,-0.0234493 l 0.0134728,-0.009863 -0.0129735,0.0131437 c -0.0355439,0.0360096 -0.0351588,0.0325123 -0.003605,0.0327216 0.0177119,1.1748e-4 0.0272933,0.002307 0.0255588,0.005836 -0.001527,0.003106 -0.0175972,0.005647 -0.0357128,0.005647 -0.0258914,0 -0.0335201,0.001911 -0.0356631,0.008933 -0.004663,0.0152771 -0.002996,0.0362417 0.002888,0.0363323 0.003938,6.264e-5 0.003708,0.001604 -7.6829e-4,0.005167 -0.003511,0.002795 -0.007933,0.0160974 -0.009825,0.0295622 -0.002097,0.0149161 -0.002488,0.004072 -0.001003,-0.0277567 l 0.002443,-0.0522379 -0.0245506,0 c -0.0135029,0 -0.033927,0.001616 -0.0453869,0.003591 l -0.0208364,0.003591 0,0.031234 c 0,0.0171786 -0.001394,0.0294805 -0.003099,0.0273373 -0.001704,-0.002144 -0.002565,-0.0165439 -0.001912,-0.0320015 l 0.001187,-0.028105 -0.0221641,0 -0.0221641,0 0.004751,0.0223768 c 0.004404,0.0207493 0.003716,0.0241866 -0.009461,0.0472598 l -0.0142107,0.024883 0.0206913,0.003566 c 0.0113803,0.001961 0.0562813,0.003713 0.09978,0.003892 0.0434989,1.7955e-4 0.0871726,0.002578 0.0970527,0.005332 0.0135341,0.003771 0.005227,0.004736 -0.0336825,0.00391 l -0.0516467,-0.001096 -0.001305,0.025413 c -7.1706e-4,0.0139772 3.7964e-4,0.0355783 0.002444,0.0480025 0.003519,0.0212065 0.005022,0.0229351 0.0245371,0.0282367 0.0211675,0.00575 0.033238,0.0141184 0.0203654,0.0141184 -0.00561,0 -0.007724,0.009197 -0.0100621,0.0437669 -0.001628,0.0240717 -0.004806,0.0501201 -0.007062,0.0578853 -0.004243,0.0146066 -0.003747,3.8792e-4 0.002593,-0.0742867 l 0.002711,-0.0319316 -0.0229457,-0.006188 c -0.0260797,-0.007033 -0.0805964,-0.00834 -0.081458,-0.001952 -3.1651e-4,0.002329 -0.002084,0.0321898 -0.003933,0.0663563 l -0.003361,0.0621208 5.696e-4,-0.0656252 5.696e-4,-0.0656252 -0.0471556,-0.003104 c -0.0259356,-0.001707 -0.0489326,-9.4557e-4 -0.0511042,0.001693 -0.002171,0.002638 -0.005538,0.0373777 -0.00748,0.0771995 l -0.003532,0.0724034 0.001076,-0.0770925 c 0.001226,-0.0877869 3.902e-4,-0.0890414 -0.0282961,-0.0422907 -0.0163418,0.026636 -0.0184621,0.0340462 -0.0232919,0.0814025 -0.002921,0.0286545 -0.006734,0.052099 -0.008474,0.052099 -0.001737,0 -0.001446,-0.0157737 6.5381e-4,-0.0350527 0.002098,-0.0192789 0.003114,-0.0376841 0.002263,-0.0409006 -8.5135e-4,-0.003216 -0.0112828,0.0125573 -0.0231782,0.0350527 -0.0118954,0.0224954 -0.0235852,0.0409006 -0.0259766,0.0409006 -0.004555,0 0.001841,-0.0140634 0.0257274,-0.0565552 0.0158323,-0.0281629 0.020474,-0.0642549 0.008978,-0.0698023 -0.005018,-0.00242 -0.006693,0.001825 -0.007031,0.0178233 -2.426e-4,0.0115502 -0.00207,0.0273535 -0.004042,0.0351187 -0.002665,0.0104495 -0.00371,0.004823 -0.004042,-0.0216481 -5.5905e-4,-0.0447884 -0.0109685,-0.0463132 -0.0130325,-0.001909 -7.4753e-4,0.0160626 -0.003128,0.0292047 -0.005288,0.0292047 -0.00216,0 -0.002782,-0.0139772 -0.001384,-0.0310605 0.00216,-0.0263252 0.001426,-0.0310604 -0.004817,-0.0310604 -0.00616,0 -0.007419,0.007138 -0.007699,0.0437669 -1.7927e-4,0.0240718 -0.002118,0.0552028 -0.004299,0.06918 -0.002796,0.0178971 -0.003322,0.004953 -0.001785,-0.0437669 0.001778,-0.056461 0.001032,-0.06918 -0.004036,-0.06918 -0.006153,0 -0.011894,0.0465558 -0.0119715,0.0970834 -1.716e-5,0.0114644 -0.002277,0.0225899 -0.005025,0.0247234 -0.00353,0.00274 -0.004229,-0.004208 -0.002402,-0.023668 0.008849,-0.0940246 0.008828,-0.0981389 -5.0561e-4,-0.0981389 -0.007451,0 -0.009221,0.005263 -0.0116683,0.0347125 -0.001585,0.0190919 -0.002886,0.0470463 -0.002886,0.0621208 0,0.0155255 -0.002062,0.0274084 -0.004755,0.0274084 -0.002617,0 -0.003835,-0.001906 -0.0027,-0.004236 0.001128,-0.002329 0.002762,-0.0309192 0.003634,-0.0635326 l 0.001578,-0.0592971 -0.0112274,0 -0.0112275,0 8.2366e-4,0.0649445 c 6.3415e-4,0.0499033 -6.88e-5,0.0590588 -0.003032,0.0395314 -0.002125,-0.0139772 -0.004008,-0.0440493 -0.004194,-0.0668269 -2.4253e-4,-0.0304708 -0.001814,-0.040797 -0.005946,-0.0390793 -0.003786,0.001576 -0.006423,0.0214644 -0.008102,0.0611795 l -0.002485,0.0588451 -8.7197e-4,-0.0607089 c -6.8558e-4,-0.0472098 -0.002249,-0.060709 -0.007054,-0.060709 -0.007537,0 -0.0116856,0.0239488 -0.0121044,0.0698859 -1.7927e-4,0.0190244 -0.002187,0.0396725 -0.004471,0.0458846 -0.002803,0.007622 -0.003447,-0.001559 -0.001972,-0.0282368 0.005212,-0.0942686 0.00551,-0.0903575 -0.006804,-0.0903575 -0.009331,0 -0.0113714,0.00304 -0.0125689,0.0187228 -7.8906e-4,0.0102975 9.8323e-4,0.0223687 0.003917,0.0268249 0.0038,0.005762 0.00389,0.008102 3.0566e-4,0.008102 -0.002983,0 -0.005039,0.0103878 -0.005039,0.025413 0,0.0144242 -0.002098,0.0254131 -0.004845,0.0254131 -0.003052,0 -0.003752,-0.006283 -0.00189,-0.016942 0.001904,-0.0108899 0.001176,-0.016942 -0.002028,-0.016942 -0.008201,0 -0.0103394,0.0152459 -0.004997,0.0356129 0.004727,0.0180161 0.002844,0.0379343 -0.003565,0.0376945 -0.001585,-5.846e-5 -0.019055,-0.0368749 -0.038816,-0.081812 z m 0.0371853,0.0449252 c -0.006347,-0.0272927 -0.006264,-0.0271377 -0.0122886,-0.0224546 -0.003288,0.002555 -0.001654,0.0110522 0.00499,0.0259154 0.012047,0.0269525 0.0141407,0.0259594 0.007298,-0.00346 z M 0.36349875,0.7099085 C 0.36339819,0.7079115 0.35733875,0.6974786 0.35002525,0.6867247 0.33994545,0.671895 0.33673445,0.6696385 0.33673445,0.6773827 c 0,0.015879 0.0141705,0.0423222 0.0209307,0.0390599 0.003308,-0.001597 0.005932,-0.004537 0.005835,-0.006533 z m 0.0214242,-0.015995 c 8.7197e-4,-0.003305 -0.001523,-0.007514 -0.005336,-0.009353 -0.004852,-0.002343 -0.006927,1.2524e-4 -0.006927,0.008246 0,0.0116186 0.009251,0.0124538 0.0122594,0.001106 z M 0.35384035,0.655948 c -0.005704,-0.0110675 -0.0118843,-0.0201542 -0.0137372,-0.0201927 -0.007218,-1.5074e-4 -0.002789,0.0185768 0.008982,0.0379902 0.0158385,0.026116 0.0197804,0.0113623 0.004755,-0.0177975 z m 0.0322959,0.002327 c 0,-0.0188245 -0.001495,-0.0225894 -0.008982,-0.0225894 -0.006846,0 -0.008982,0.003764 -0.008982,0.0158126 0,0.0152419 0.006915,0.0293662 0.0143712,0.0293662 0.001979,0 0.003592,-0.0101652 0.003592,-0.0225895 z M 0.60156217,0.656862 c 7.932e-5,-0.002329 -0.002886,-0.004236 -0.006596,-0.004236 -0.004319,0 -0.006734,0.005453 -0.006734,0.0151977 0,0.0145756 2.7416e-4,0.014749 0.006596,0.004236 0.003627,-0.006029 0.006658,-0.0128682 0.006734,-0.0151977 z M 0.33224411,0.65245 c 0,-0.0156962 -0.0100597,-0.0285858 -0.0162435,-0.0208109 -0.002506,0.00315 0.0104363,0.0379302 0.0141131,0.0379302 0.00117,0 0.002132,-0.007703 0.002132,-0.0171192 z m 0.031437,-0.00547 c 0,-0.006303 -0.002997,-0.0112946 -0.006777,-0.0112946 -0.005648,0 -0.005842,0.001874 -0.001163,0.0112946 0.003087,0.006212 0.006132,0.0112947 0.006777,0.0112947 6.4273e-4,0 0.001163,-0.005083 0.001163,-0.0112947 z M 0.60619602,0.633195 c 0,-0.0136401 -0.007492,-0.0149735 -0.0186189,-0.003314 l -0.0105727,0.0110765 0.0145954,1.8841e-4 c 0.009784,1.2525e-4 0.0145954,-0.002495 0.0145954,-0.007949 z M 0.51188462,0.630038 c 0,-0.003106 -0.002914,-0.005647 -0.006472,-0.005647 -0.003558,0 -0.007721,0.002541 -0.009247,0.005647 -0.00153,0.003106 0.001384,0.005647 0.006472,0.005647 0.005087,0 0.009247,-0.002541 0.009247,-0.005647 z m 0.055009,-0.0188913 c 0.00926,-0.0129051 0.0168381,-0.0253697 0.0168415,-0.0276992 1.44e-5,-0.009872 -0.008543,-0.002905 -0.0181995,0.0148161 -0.0109014,0.020006 -0.0267047,0.035693 -0.0267047,0.0265084 0,-0.002949 0.002021,-0.006933 0.004492,-0.008852 0.002471,-0.00192 0.00443,-0.007787 0.004347,-0.0130398 -1.0548e-4,-0.007334 -0.002713,-0.005874 -0.0112275,0.006295 -0.0141975,0.0202937 -0.0139594,0.0250589 0.001267,0.0252666 0.008886,1.2082e-4 0.0170727,-0.006413 0.0291854,-0.0232953 z m 0.0299807,-3.5468e-4 0.0108875,-0.0146369 -0.0112274,0 c -0.0126186,0 -0.0333072,0.0241271 -0.0287099,0.0334814 0.003779,0.007685 0.0144806,7.4144e-4 0.0290497,-0.0188444 z m 0.0261362,-0.005595 c -0.006286,-0.007904 -0.00722,-0.007901 -0.009641,3.621e-5 -0.001474,0.004833 -0.002679,0.0142273 -0.002679,0.0208755 l 0,0.0120878 0.009641,-0.0121239 c 0.008708,-0.0109496 0.008967,-0.0129715 0.002682,-0.0208755 z M 0.3987114,0.62326262 c 0.009428,-0.0118559 0.005842,-0.016832 -0.009207,-0.0127735 -0.0212769,0.005738 -0.0249598,0.0100815 -0.0123051,0.0145107 0.016087,0.00563 0.0156226,0.005668 0.0215114,-0.001737 z m 0.03009,-0.004518 c 0.007872,-0.010937 0.007844,-0.0112946 -8.5135e-4,-0.0112946 -0.004942,0 -0.0126401,0.005083 -0.0171108,0.0112946 -0.007872,0.010937 -0.007844,0.0112947 8.5135e-4,0.0112947 0.004942,0 0.0126401,-0.005083 0.0171108,-0.0112947 z m 0.0336824,0.004478 c 0,-0.003128 -0.00326,-0.004116 -0.007236,-0.002195 -0.005177,0.002499 -0.006493,0.001065 -0.004631,-0.005043 0.003766,-0.0123301 -0.007428,-0.0105443 -0.0137545,0.002195 -0.004845,0.009762 -0.003931,0.0107299 0.0101477,0.0107299 0.008512,0 0.0154759,-0.002559 0.0154759,-0.005687 z m 0.0298873,-0.001898 c 0.00146,-0.004793 0.001446,-0.0102377 -3.169e-5,-0.0120995 -0.003883,-0.004883 -0.0167557,0.009838 -0.0138216,0.0158066 0.003835,0.007799 0.0109222,0.005902 0.0138541,-0.003707 z m -0.12875851,-0.001168 c -3.44e-5,-0.002329 -0.001793,-0.007652 -0.003897,-0.0118273 -0.003156,-0.006266 -0.006285,-0.005994 -0.017895,0.001557 -0.007737,0.005032 -0.0140687,0.010354 -0.0140687,0.0118273 0,0.001474 0.008084,0.002679 0.0179642,0.002679 0.00988,0 0.017933,-0.001906 0.017895,-0.004236 z M 0.3479629,0.59437245 c 0.0290602,-0.0195425 0.0374809,-0.0282747 0.0440508,-0.0456828 0.004464,-0.0118371 0.007429,-0.0223941 0.006582,-0.02346 -0.001246,-0.00157 -0.0913551,0.0670944 -0.0972205,0.0740861 -0.0027,0.003217 0.003302,0.019439 0.007151,0.0193231 0.001931,-5.847e-5 0.0196773,-0.010978 0.0394376,-0.0242664 z m 0.14146697,-0.004849 c 0,-0.009131 -0.0132361,-0.004477 -0.0178057,0.00626 -0.00828,0.019454 -0.004977,0.0253145 0.006576,0.0116659 0.006174,-0.007295 0.0112275,-0.0153618 0.0112275,-0.0179264 z m 0.0446045,0.0128192 c 0.0113375,-0.0200216 0.0116178,-0.0238091 0.001426,-0.019287 -0.009638,0.004278 -0.028069,0.0246495 -0.028069,0.031026 0,0.0112171 0.0181767,0.003208 0.0266404,-0.011739 z m -0.0176583,-0.01271 c 0,-0.002625 -0.003876,-0.004772 -0.008608,-0.004772 -0.009228,0 -0.0138604,0.009556 -0.0103851,0.0214213 0.001634,0.005588 0.004118,0.005051 0.0105657,-0.002288 0.004638,-0.005274 0.008427,-0.0117375 0.008427,-0.0143621 z m -0.13845242,0.008471 c 0.012701,-0.0144532 0.009714,-0.0201564 -0.005406,-0.0103239 -0.007492,0.004871 -0.0124242,0.0112896 -0.0109623,0.0142634 0.003724,0.007572 0.006934,0.006798 0.0163695,-0.003939 z m 0.0430181,-0.003309 c 0.0102301,-0.0103312 0.005835,-0.0162865 -0.0107159,-0.0145104 -0.0103914,0.001116 -0.0185366,0.005958 -0.0223995,0.0133171 -0.0058,0.0110514 -0.005322,0.0114601 0.0107159,0.009214 0.009232,-0.001293 0.0193125,-0.004902 0.0223995,-0.008021 z m 0.3199849,-0.035347 0,-0.0480025 -0.0244356,0 c -0.0134395,0 -0.0256846,0.002541 -0.0272111,0.005647 -0.001527,0.003106 -0.004796,0.005647 -0.007266,0.005647 -0.00247,0 -0.003242,-0.002541 -0.001715,-0.005647 0.001527,-0.003106 0.001559,-0.005647 7.404e-5,-0.005647 -0.004054,0 -0.0292582,0.0691255 -0.0292623,0.0802548 -2.96e-6,0.00824 0.005784,0.00994 0.0392928,0.0115452 0.021613,0.001036 0.0418226,0.002405 0.0449102,0.003044 0.004124,8.5251e-4 0.005614,-0.0115847 0.005614,-0.0468411 z m 0.0853293,0 0,-0.0480025 -0.0404191,0 -0.0404191,0 0,0.0480025 0,0.0480024 0.0404191,0 0.0404191,0 0,-0.0480024 z M 0.4445196,0.59333175 c 0.004658,-0.007053 0.004077,-0.008471 -0.003461,-0.008471 -0.004977,0 -0.0102148,0.003812 -0.0116365,0.008471 -0.001508,0.004944 -6.873e-5,0.008471 0.003461,0.008471 0.003322,0 0.008561,-0.003812 0.0116365,-0.008471 z m 0.0228847,-6.5172e-4 c 0.005212,-0.007893 0.00488,-0.008845 -0.002443,-0.007059 -0.004658,0.001135 -0.009308,0.00524 -0.0103366,0.009122 -0.002665,0.0100742 0.005662,0.00873 0.0127827,-0.002063 z m 0.17471971,0.003475 c 0,-0.003106 -8.9612e-4,-0.005647 -0.00198,-0.005647 -0.001089,0 -0.00323,0.002541 -0.004757,0.005647 -0.001527,0.003106 -6.3273e-4,0.005647 0.00198,0.005647 0.002616,0 0.004757,-0.002541 0.004757,-0.005647 z M 0.27835194,0.58448943 c 0,-0.006416 -0.00234,-0.0171602 -0.005198,-0.0238753 -0.00508,-0.0119326 -0.005274,-0.0119561 -0.008666,-0.001041 -0.0067,0.0215639 -0.004693,0.0365818 0.00488,0.0365818 0.006084,0 0.008982,-0.003764 0.008982,-0.0116659 z m 0.28742511,3.791e-5 c 0,-0.002922 -0.002021,-0.005314 -0.004492,-0.005314 -0.002471,0 -0.004492,0.003962 -0.004492,0.008804 0,0.004842 0.002021,0.007234 0.004492,0.005314 0.002471,-0.00192 0.004492,-0.005882 0.004492,-0.008804 z M 0.35341467,0.54998159 c 0.0491527,-0.0385828 0.0521532,-0.0420371 0.0625417,-0.0720036 0.0108336,-0.0312508 0.0113769,-0.0318134 0.075679,-0.0784247 l 0.064767,-0.046948 -0.009737,-0.0252009 c -0.005357,-0.0138605 -0.0120781,-0.0240712 -0.0149402,-0.0226899 -0.0135033,0.006516 -0.0870678,0.0786936 -0.0893264,0.0876426 -0.002602,0.0102964 -0.0915729,0.0795575 -0.10220095,0.0795575 -0.004375,0 -0.0584892,0.0417824 -0.0703098,0.0542844 -0.002284,0.002419 0.008865,0.0360731 0.0119528,0.0360731 0.001322,0 0.009449,-0.006761 0.0180652,-0.0150252 0.008616,-0.008264 0.0229533,-0.016824 0.0318612,-0.0190225 0.008907,-0.002199 0.0222583,-0.005646 0.0296685,-0.007661 0.0102058,-0.002775 0.008645,-8.5014e-4 -0.006437,0.007935 -0.0109499,0.006379 -0.0224293,0.0103823 -0.0255101,0.008896 -0.004894,-0.002361 -0.0421557,0.0267406 -0.0421557,0.0329217 0,0.007732 0.006139,0.0201921 0.009951,0.0201921 0.002478,0 0.0277325,-0.0182371 0.0561289,-0.0405271 z m 0.1652067,0.0238449 0.0224549,-0.004398 -0.0278038,-7.5472e-4 c -0.0156351,-4.245e-4 -0.0292145,-0.003625 -0.0310272,-0.007312 -0.002402,-0.004884 0.007566,-0.005751 0.0390313,-0.003399 0.0430271,0.003217 0.0534821,0.00176 0.0534821,-0.007456 0,-0.002848 -0.0219946,-0.005177 -0.0488772,-0.005177 -0.0450156,0 -0.049062,8.8764e-4 -0.051214,0.0112361 -0.002222,0.0107016 -0.003239,0.010836 -0.0212983,0.002823 -0.0220811,-0.009797 -0.0519261,-0.0110658 -0.0561905,-0.00239 -0.004548,0.009253 -0.001453,0.0106873 0.0342935,0.0158995 0.0424547,0.00619 0.0593571,0.00637 0.0871483,9.2664e-4 z m 0.1177534,-0.017635 c -0.007953,-0.001791 -0.0190072,-0.005139 -0.0245649,-0.00744 -0.005773,-0.00239 -0.0101041,-0.001859 -0.0101041,0.001241 0,0.007228 0.0112364,0.0122794 0.0273134,0.0122794 0.007454,0 0.0131353,0.003045 0.0131744,0.007059 4.503e-5,0.004692 0.001507,0.004218 0.004356,-0.001412 0.003409,-0.006737 0.001327,-0.009138 -0.0101739,-0.0117279 z M 0.46845163,0.53883775 c 0.002374,-0.0113947 0.004471,-0.0119345 0.0342063,-0.008799 0.017425,0.001837 0.031682,0.001158 0.031682,-0.001509 0,-0.002666 -0.002526,-0.005983 -0.005613,-0.007369 -0.0119992,-0.005389 -1.44e-5,-0.00834 0.0225255,-0.005545 0.0205978,0.002554 0.0229144,0.004048 0.0179642,0.0115864 -0.004935,0.007514 -0.003952,0.008241 0.007445,0.005517 0.007222,-0.001726 0.0211162,4.0456e-4 0.0308791,0.004737 0.009763,0.004331 0.0245282,0.007875 0.0328127,0.007875 0.0128853,0 0.0163051,-0.003063 0.0236575,-0.0211851 l 0.008595,-0.0211851 -0.0253448,-0.009534 c -0.0139396,-0.005243 -0.035806,-0.0105673 -0.0485917,-0.01183 -0.0204289,-0.002017 -0.0231706,-0.001032 -0.0226224,0.00813 7.0601e-4,0.0117512 0.0101684,0.0132579 0.0284323,0.004526 0.0106024,-0.005069 0.0138846,-0.003957 0.0233094,0.007894 l 0.0109694,0.0137938 -0.009897,0.00666 c -0.00788,0.005304 -0.0134997,0.004847 -0.0275979,-0.002246 -0.009737,-0.004899 -0.0228584,-0.008907 -0.0291598,-0.008907 -0.0105443,0 -0.0277589,-0.0144608 -0.023536,-0.0197709 0.001004,-0.00126 0.006797,-0.00479 0.0128852,-0.007844 0.008298,-0.004164 -0.001288,-0.005621 -0.0383378,-0.005825 -0.0334623,-1.8399e-4 -0.0472278,0.001495 -0.0426644,0.005203 0.003703,0.003011 0.0153257,0.005513 0.0258236,0.005561 0.0104979,4.593e-5 0.0190868,0.002628 0.0190868,0.005734 0,0.003106 -0.00407,0.005647 -0.009043,0.005647 -0.004977,0 -0.0125522,0.002378 -0.0168415,0.005284 -0.0328746,0.0222754 -0.0365444,0.0229326 -0.0487339,0.008726 l -0.0115624,-0.0134744 0.0166006,0.003387 c 0.014592,0.002977 0.0164041,0.002091 0.0149755,-0.007327 -9.6943e-4,-0.006373 -0.00616,-0.0115064 -0.0128069,-0.0126679 -0.0135157,-0.002361 -0.0241327,-0.0123679 -0.0192315,-0.0181263 0.006153,-0.007226 0.18144578,0.005651 0.20013143,0.0147018 0.009312,0.004511 0.0228349,0.008201 0.0300492,0.008201 0.0135775,0 0.0215606,-0.007968 0.0139267,-0.0139012 -0.008613,-0.006694 -0.0804485,-0.0137571 -0.16487876,-0.0162121 l -0.0860065,-0.0025 -0.0139186,0.039626 c -0.007655,0.0217943 -0.0139186,0.0417062 -0.0139186,0.0442487 0,0.002542 0.01061,0.005556 0.0235775,0.006697 0.0129675,0.001141 0.0268791,0.002545 0.0309137,0.003119 0.004153,5.9191e-4 0.008431,-0.004222 0.00986,-0.0110949 z m 0.17367262,-0.005126 c 0,-0.003336 0.002238,-0.0113253 0.004974,-0.0177528 0.00399,-0.009373 0.005754,-0.0101382 0.008914,-0.003864 0.00557,0.0110592 0.005177,0.0127127 -0.004905,0.0206299 -0.005914,0.004645 -0.008982,0.004982 -0.008982,9.8704e-4 z m -0.22010077,-0.008086 c 0.003052,-0.004625 0.007558,-0.006849 0.0100114,-0.004941 0.002713,0.002107 0.00207,0.005373 -0.001634,0.008323 -0.009687,0.007719 -0.0144398,0.005801 -0.00838,-0.003381 z m -0.12074011,-0.033946 c 0.0171827,-0.0139772 0.0335653,-0.025413 0.0364053,-0.025413 0.0103249,0 0.0975519,-0.0689903 0.10012739,-0.0791939 0.001453,-0.005769 0.0227594,-0.0285454 0.0473399,-0.0506137 0.042454,-0.0381148 0.0479628,-0.0449127 0.0422325,-0.0521183 -0.002194,-0.002753 -0.26366904,0.19294069 -0.27303071,0.20434152 -0.004526,0.005508 0.004354,0.0284105 0.0110149,0.0284105 0.002568,0 0.0187276,-0.0114359 0.0359104,-0.0254131 z m 0.40708335,-0.0215656 c 0.0102635,-0.0189583 0.0135733,-0.0433788 0.005879,-0.0433788 -0.005736,0 -0.008526,0.006486 -0.0157112,0.0365085 -0.007253,0.0303073 -0.004062,0.0325366 0.009832,0.00687 z M 0.2237477,0.45073655 c -0.0189311,-0.0431036 -0.0256035,-0.0522379 -0.0381578,-0.0522379 -0.0100307,0 -0.0105567,0.001946 -0.01106,0.0409432 l -5.2842e-4,0.0409432 -0.003952,-0.0282367 c -0.002173,-0.0155301 -0.002907,-0.0339547 -0.001634,-0.0409432 0.001972,-0.0107844 4.427e-4,-0.0127437 -0.010113,-0.0129527 -0.006839,-1.3411e-4 -0.0336561,-0.002486 -0.05959177,-0.005225 -0.02593572,-0.002738 -0.04849171,-0.003262 -0.05012378,-0.001166 -0.0016335,0.002097 -0.0043952,0.0235075 -0.0061391,0.0475794 l -0.0031705,0.0437669 0.09936844,0 0.0993684,0 -0.0142618,-0.0324722 z m -0.0887524,0.0240012 c -0.001737,-0.008502 1.477e-4,-0.0617744 0.002277,-0.0644739 0.003731,-0.004724 0.004049,0.00304 0.001488,0.0362371 -0.001439,0.0186362 -0.003135,0.0313427 -0.003766,0.0282367 z m 0.25114103,-0.0961116 c 0.0728667,-0.0551291 0.13333297,-0.10117238 0.13436933,-0.10231838 0.002533,-0.002801 -0.0161785,-0.052516 -0.0257101,-0.0683168 l -0.007611,-0.0126164 -0.11676638,0.0852293 c -0.0642216,0.0468759 -0.12633679,0.0919436 -0.13803401,0.10015012 -0.0225158,0.0157967 -0.0247951,0.0210652 -0.0157832,0.0364884 0.005191,0.008887 0.008815,0.008066 0.0482785,-0.0109348 0.0234655,-0.0112985 0.0517586,-0.024845 0.062874,-0.0301036 0.0129675,-0.006135 0.0239403,-0.0165015 0.0306202,-0.0289289 0.007794,-0.0145013 0.0252872,-0.0290619 0.0696107,-0.0579431 0.0325604,-0.021216 0.0551585,-0.0344389 0.0502186,-0.0293841 -0.004942,0.005055 -0.031718,0.0244224 -0.0595059,0.0430396 -0.0277879,0.0186167 -0.0505342,0.0356517 -0.050546,0.0378552 -1.37e-5,0.002202 -0.004562,0.0110328 -0.0101055,0.0196206 -0.007043,0.010908 -0.0219461,0.0206582 -0.0494413,0.032349 -0.0216471,0.009204 -0.0493728,0.0221517 -0.0616121,0.0287725 l -0.0222527,0.0120378 0.007159,0.0177339 c 0.009145,0.022657 0.0152862,0.0322816 0.0188951,0.0296163 0.001571,-0.001162 0.062477,-0.0472174 0.13534399,-0.10234655 z m 0.30944078,0.0698559 c 0.005946,-0.021447 0.005959,-0.0217466 9.5994e-4,-0.0217466 -0.006039,0 -0.0192288,0.0277931 -0.0161567,0.0340436 0.004912,0.009996 0.0102087,0.005712 0.0152007,-0.0122969 z m -0.0186945,-0.003026 c 0.007977,-0.0216027 0.002612,-0.0239322 -0.0100948,-0.004383 -0.005977,0.009197 -0.0109399,0.014053 -0.0110288,0.0107917 -8.985e-5,-0.003261 0.00223,-0.008937 0.005153,-0.0126123 0.010523,-0.0132326 -0.001126,-0.0141289 -0.0122864,-9.4557e-4 -0.0104376,0.0123301 -0.0107278,0.0138473 -0.003351,0.0175085 0.016205,0.008042 0.0259976,0.004832 0.031608,-0.0103604 z m -0.0406616,-0.002764 c 0.0137038,-0.0161888 0.0131126,-0.0216049 -0.002358,-0.0216049 -0.009102,0 -0.0141577,0.003879 -0.0176636,0.0135549 -0.008345,0.0230305 0.003358,0.0277358 0.0200216,0.00805 z m -0.0908357,-0.009868 c 0.004866,-0.0118311 0.005315,-0.0171153 0.001592,-0.0186762 -0.002858,-0.001197 0.004249,-0.0120999 0.0157853,-0.024228 0.0216914,-0.0228005 0.0255495,-0.0309539 0.014646,-0.0309539 -0.003482,0 -0.0200864,0.0193235 -0.0368953,0.0429409 -0.0168097,0.0236176 -0.0312688,0.0402789 -0.0321312,0.0370253 -8.6507e-4,-0.003253 -0.008266,-0.008696 -0.0164532,-0.0120931 -0.0126775,-0.005261 -0.0172976,-0.004388 -0.031147,0.005888 -0.008944,0.006636 -0.0162615,0.0130847 -0.0162615,0.0143309 0,0.001246 0.0211682,0.002266 0.0470402,0.002266 l 0.0470402,0 0.006783,-0.0164994 z m -0.0132659,-0.006125 c 0.004485,-0.006231 0.009127,-0.0101045 0.0103187,-0.008607 0.003018,0.003795 -0.008184,0.0199368 -0.0138348,0.0199368 -0.002554,0 -9.6944e-4,-0.005098 0.003516,-0.0113294 z m 0.0404225,0.005645 c 0.0132077,-0.0173356 0.0121619,-0.0254873 -0.003738,-0.0291393 -0.006084,-0.001397 -0.009836,0.003954 -0.0145283,0.0207055 -0.007713,0.0275436 -0.007667,0.0254131 -5.6957e-4,0.0254131 0.003246,0 0.0117175,-0.00764 0.0188328,-0.0169793 z m 0.0190584,0.006003 c 0.012148,-0.0127433 0.0127495,-0.0173205 0.002242,-0.0170833 -0.004326,9.606e-5 -0.0114904,0.00645 -0.0159279,0.0141184 -0.009874,0.0170599 -0.001488,0.0188776 0.0136825,0.002966 z m 0.0192925,-8.0267e-4 c 0.007366,-0.0173093 0.002844,-0.0184477 -0.009205,-0.002318 -0.008546,0.0114406 -0.009145,0.0140961 -0.00317,0.0140961 0.004049,0 0.009617,-0.0053 0.0123743,-0.0117784 z m -0.0904553,-0.0186312 c 0.004111,-0.00623 0.002928,-0.008526 -0.005828,-0.0112897 -0.011858,-0.003743 -0.0251785,5.041e-4 -0.0251785,0.008027 0,0.002557 0.004548,0.005752 0.0101055,0.007098 0.005558,0.001346 0.0113728,0.002793 0.0129232,0.003216 0.001551,4.2339e-4 0.005143,-0.00275 0.007981,-0.007052 z m 0.13965071,-0.0118642 c 0,-0.004248 -0.003537,-0.008886 -0.007859,-0.0103062 -0.005132,-0.001687 -0.003815,-0.00281 0.003794,-0.003238 0.00641,-3.591e-4 0.0153121,-0.005737 0.0197829,-0.0119498 0.00447,-0.006212 0.0101887,-0.0112948 0.0127065,-0.0112948 0.002518,0 3.163e-5,0.006085 -0.005525,0.0135224 -0.0133746,0.0179023 -0.004565,0.0248204 0.0123348,0.009688 0.0266455,-0.0238585 0.0258013,-0.0270938 -0.00727,-0.0278618 -0.0292985,-6.7878e-4 -0.030822,-3.119e-5 -0.0422532,0.0179829 -0.0119105,0.0187702 -0.0116915,0.0276627 8.1189e-4,0.033062 0.008583,0.003706 0.013473,2.2167e-4 0.013473,-0.009605 z m 0.0138098,0.006837 c -5.5902e-4,-0.006752 -0.006714,-0.005444 -0.008645,0.001835 -9.91e-4,0.003727 6.3271e-4,0.00576 0.003593,0.004518 0.002964,-0.001242 0.005238,-0.004101 0.005052,-0.006353 z m -0.0658238,-0.001875 c 0.00391,-0.001886 0.007103,-0.00546 0.007103,-0.007942 0,-0.005674 -0.0172513,-2.9704e-4 -0.0205445,0.006404 -0.002831,0.005762 0.003246,0.006458 0.0134409,0.001538 z m 0.10498033,-0.006189 c -8.7542e-4,-0.006378 0.005486,-0.0144561 0.0188899,-0.0239876 0.017217,-0.0122433 0.0187268,-0.0146379 0.0101961,-0.016174 -0.0127748,-0.002302 -0.0533319,0.0384687 -0.0449378,0.045173 0.009437,0.007537 0.0172349,0.005071 0.0158514,-0.005011 z m -0.16778259,-0.0214592 0.0119985,-0.0197811 -0.0114655,0.006569 c -0.006306,0.003612 -0.0114655,0.008427 -0.0114655,0.0106977 0,0.002269 -0.005558,0.005966 -0.0123501,0.008212 -0.0113583,0.003755 -0.0116289,0.004453 -0.003371,0.008687 0.0135649,0.006953 0.0137794,0.006836 0.0266507,-0.0143836 z m 0.0584497,8.9239e-4 c 0.0140874,-0.0232248 0.014212,-0.0262917 0.001066,-0.0262917 -0.009161,0 -0.0345226,0.0258531 -0.0345226,0.0351909 0,0.003032 0.008263,0.007122 0.0188584,0.009333 0.001723,3.591e-4 0.008294,-0.007844 0.0145954,-0.0182318 z m 0.0350339,-2.6715e-4 c 0.0117475,-0.0112137 0.009982,-0.0260225 -0.003103,-0.0260225 -0.00603,0 -0.0122115,0.002539 -0.0137381,0.005647 -0.001527,0.003104 0.001386,0.005647 0.006471,0.005647 0.005087,0 0.009247,0.002839 0.009247,0.006305 0,0.003679 -0.00467,0.005183 -0.011199,0.003612 -0.006371,-0.001533 -0.0133843,6.1707e-4 -0.0162684,0.004989 -0.004077,0.006177 -0.002547,0.007646 0.00783,0.007501 0.007096,-1.0023e-4 0.0164368,-0.003556 0.0207594,-0.007682 z m -0.40980516,0.1865411 c 0,-0.0104375 -0.001295,-0.0314034 -0.002879,-0.0465905 -0.001585,-0.0151873 -0.001253,-0.0257167 7.2677e-4,-0.0233987 0.004818,0.00562 0.010093,0.0889668 0.005635,0.0889668 -0.001917,0 -0.003489,-0.00854 -0.003489,-0.0189775 z m 0.0673951,-0.29544749 c 3.441e-5,-0.005454 0.059409,-0.047005 0.0671674,-0.047005 0.002907,0 0.0143815,-0.007869 0.0254976,-0.0174864 0.0111167,-0.009617 0.0210768,-0.0163986 0.0221344,-0.015069 0.003454,0.004343 -0.0374767,0.0382026 -0.0461772,0.0382026 -0.004658,0 -0.010392,0.00216 -0.0127391,0.0048 -0.009246,0.0104015 -0.0559108,0.0409296 -0.0558831,0.0365575 z" id="path4221" inkscape:connector-curvature="0" />
</svg>