<?xml version="1.0" encoding="utf-8" standalone="no"?>
<svg xmlns:dc="http://purl.org/dc/elements/1.1/" xmlns:cc="http://creativecommons.org/ns#" xmlns:rdf="http://www.w3.org/1999/02/22-rdf-syntax-ns#" xmlns:svg="http://www.w3.org/2000/svg" xmlns="http://www.w3.org/2000/svg" xmlns:sodipodi="http://sodipodi.sourceforge.net/DTD/sodipodi-0.dtd" xmlns:inkscape="http://www.inkscape.org/namespaces/inkscape" height="1" version="1.1" width="1" id="svg2" inkscape:version="0.91 r13725" sodipodi:docname="AsymmetricForm.svg">
  <metadata id="metadata8">
    <rdf:RDF>
      <cc:Work rdf:about="">
        <dc:format>image/svg+xml</dc:format>
        <dc:type rdf:resource="http://purl.org/dc/dcmitype/StillImage" />
        <dc:title></dc:title>
      </cc:Work>
    </rdf:RDF>
  </metadata>
  <defs id="defs6">
    <pattern width="1" height="1" id="AsymmetricForm" patternContentUnits="objectBoundingBox">
      <path style="fill:#000000" d="m 0.66440616,0.69897209 c -0.0425114,-0.007292 -0.1604363,-0.0532435 -0.2120331,-0.0826226 -0.017172,-0.009778 -0.0553235,-0.0308356 -0.0847807,-0.0467953 -0.0294573,-0.0159597 -0.0589942,-0.0338984 -0.065638,-0.0398637 -0.006644,-0.005966 -0.0144752,-0.010846 -0.0174028,-0.010846 -0.002926,0 -0.0267585,-0.0135119 -0.0529561,-0.0300265 -0.11105977,-0.0700094 -0.14239963,-0.0879739 -0.15347498,-0.0879739 -0.01151464,0 -0.02555643,-0.0287911 -0.0178868,-0.0366761 0.005518,-0.005671 0.78153819,-0.003367 0.82573116,0.002451 l 0.0363431,0.004785 0,0.0583367 c 0,0.0726251 -0.0189067,0.15255043 -0.0473955,0.20035533 -0.0165453,0.0277639 -0.0318647,0.0414361 -0.0639052,0.0570335 -0.0444085,0.0216185 -0.0751356,0.0241006 -0.14660103,0.0118423 z m 0.1211576,-0.041761 c 0.0229852,-0.009889 0.0602311,-0.0498751 0.0602311,-0.0646617 0,-0.003079 0.005333,-0.0116594 0.011854,-0.0190667 0.006517,-0.007407 0.0128614,-0.0253858 0.0140918,-0.0399529 0.00123,-0.014567 0.006228,-0.0364509 0.0110997,-0.0486309 0.004873,-0.0121799 0.008862,-0.0342376 0.008862,-0.049017 0,-0.0215526 -0.003406,-0.027586 -0.0172154,-0.0304815 -0.0380279,-0.007975 -0.41125447,-0.0119934 -0.41125447,-0.004429 0,0.004256 -0.005162,0.007739 -0.0114771,0.007739 -0.006313,0 -0.0114765,-0.00354 -0.0114765,-0.007867 0,-0.0119299 -0.13998603,-0.010124 -0.15245116,0.001967 -0.00811,0.007867 -0.0108393,0.007867 -0.0136446,0 -0.002092,-0.005865 -0.0173272,-0.009833 -0.0377517,-0.009833 -0.0208815,0 -0.0323994,0.00307 -0.0295159,0.007867 0.002598,0.004327 0.001368,0.007867 -0.002736,0.007867 -0.004104,0 -0.008725,-0.003887 -0.0102659,-0.008638 -0.001539,-0.004751 -0.0112956,-0.007406 -0.0216785,-0.0059 -0.0165427,0.002399 -0.01345,0.0059 0.0250008,0.0283046 0.0241334,0.0140617 0.048562,0.0255668 0.0542858,0.0255668 0.005721,0 0.0163539,0.006756 0.0236231,0.0150146 0.007268,0.008258 0.024157,0.019451 0.0375294,0.0248732 0.0133724,0.005422 0.0311993,0.015823 0.039616,0.0231127 0.008416,0.007289 0.045758,0.0300966 0.0829819,0.0506821 0.0483174,0.0267206 0.0700353,0.0350058 0.0759144,0.0289613 0.005879,-0.006045 0.0106322,-0.003523 0.016615,0.008815 0.008258,0.0170315 0.0495005,0.0367352 0.11906168,0.0568831 0.0474342,0.0137389 0.10784955,0.0140981 0.13870087,8.2467e-4 z M 0.70807285,0.6329116 c 0,-0.00649 0.005162,-0.0118002 0.0114765,-0.0118002 0.006313,0 0.0114771,0.00531 0.0114771,0.0118002 0,0.00649 -0.005162,0.0118 -0.0114771,0.0118 -0.006313,0 -0.0114765,-0.00531 -0.0114765,-0.0118 z M 0.58190438,0.62123974 c -0.005642,-0.009388 0.001519,-0.0237284 0.0118513,-0.0237284 0.00931,0 0.00937,0.0212922 7.582e-5,0.0271976 -0.003919,0.002489 -0.009285,9.2794e-4 -0.0119283,-0.003469 z m 0.0726097,-0.004062 c 0,-0.00649 0.005162,-0.0118 0.0114765,-0.0118 0.006313,0 0.0114771,0.00531 0.0114771,0.0118 0,0.00649 -0.005162,0.0118002 -0.0114771,0.0118002 -0.006313,0 -0.0114765,-0.00531 -0.0114765,-0.0118002 z m 0.13496406,0.006342 c -0.008617,-0.008859 -0.005248,-0.0181418 0.006584,-0.0181418 0.006313,0 0.0114765,0.003331 0.0114765,0.007402 0,0.00992 -0.011948,0.0170244 -0.0180611,0.0107393 z m -0.0837478,-0.023172 c -0.006115,-0.006285 7.9571e-4,-0.0185694 0.0104454,-0.0185694 0.003959,0 0.0072,0.00531 0.0072,0.0117999 0,0.0121651 -0.009028,0.0156287 -0.0176449,0.006769 z M 0.58331047,0.58461434 c -0.006115,-0.006285 7.957e-4,-0.0185695 0.0104454,-0.0185695 0.003959,0 0.0072,0.00531 0.0072,0.0118002 0,0.0121651 -0.009028,0.0156288 -0.0176448,0.006769 z M 0.7922365,0.56997824 c 0,-0.007211 0.003702,-0.0118427 0.008225,-0.0102923 0.004525,0.001551 0.008225,0.006182 0.008225,0.0102923 0,0.004111 -0.003702,0.008742 -0.008225,0.0102923 -0.004525,0.001551 -0.008225,-0.003081 -0.008225,-0.0102923 z m -0.31370109,-0.007867 c 0,-0.00649 0.003446,-0.0117999 0.007651,-0.0117999 0.004209,0 0.007651,0.00531 0.007651,0.0117999 0,0.00649 -0.003446,0.0118002 -0.007651,0.0118002 -0.004209,0 -0.007651,-0.00531 -0.007651,-0.0118002 z m 0.19479218,-0.0123234 c -0.007041,-0.0117147 0.001124,-0.0180839 0.0157719,-0.0123041 0.006761,0.002667 0.0101488,0.008415 0.00753,0.0127719 -0.006201,0.0103174 -0.0169484,0.0101017 -0.0233022,-4.6774e-4 z m 0.0630076,0.00336 c -0.006115,-0.006285 7.957e-4,-0.0185695 0.0104454,-0.0185695 0.003959,0 0.0072,0.00531 0.0072,0.0118002 0,0.0121651 -0.009028,0.0156287 -0.0176448,0.006769 z m -0.21954348,-0.010703 c 0,-0.004327 0.003242,-0.007867 0.0072,-0.007867 0.003959,0 0.009327,0.00354 0.0119283,0.007867 0.002597,0.004327 -6.3991e-4,0.007867 -0.0072,0.007867 -0.006563,0 -0.0119283,-0.00354 -0.0119283,-0.007867 z m -0.0995301,-0.016061 c -0.0101166,-0.006683 -0.0101166,-0.008396 0,-0.0150782 0.007278,-0.004808 0.0140694,-0.004808 0.0187456,0 0.0112075,0.0115232 -0.004728,0.0243395 -0.0187456,0.0150782 z m 0.38262619,-0.003606 c 0,-0.00649 0.005162,-0.0118002 0.0114771,-0.0118002 0.006313,0 0.0114765,0.00531 0.0114765,0.0118002 0,0.00649 -0.005162,0.0117999 -0.0114765,0.0117999 -0.006313,0 -0.0114771,-0.00531 -0.0114771,-0.0117999 z m -0.1683274,-0.007867 c 0,-0.00649 0.003446,-0.0118001 0.007651,-0.0118001 0.004209,0 0.007651,0.00531 0.007651,0.0118001 0,0.00649 -0.003446,0.0118002 -0.007651,0.0118002 -0.004209,0 -0.007651,-0.00531 -0.007651,-0.0118002 z m -0.0712037,-0.001096 c -0.00714,-0.007341 0.001486,-0.0185695 0.0142706,-0.0185695 0.006063,0 0.0110253,0.00531 0.0110253,0.0118 0,0.0118492 -0.0161514,0.0161714 -0.0252961,0.006769 z m 0.10690951,-0.0159473 c -0.008804,-0.009052 -0.00557,-0.0183556 0.006378,-0.0183556 0.006313,0 0.0114771,0.00531 0.0114771,0.0118001 0,0.0122844 -0.009049,0.0156074 -0.0178526,0.006556 z M 0.38672046,0.48344529 c 0,-0.00649 0.005162,-0.0118 0.0114771,-0.0118 0.006313,0 0.0114771,0.00531 0.0114771,0.0118 0,0.00649 -0.005162,0.0118001 -0.0114771,0.0118001 -0.006313,0 -0.0114771,-0.00531 -0.0114771,-0.0118001 z m 0.0612097,0 c 0,-0.00649 0.005583,-0.0118 0.0124135,-0.0118 0.0101672,0 0.01069,0.002136 0.002887,0.0118 -0.005241,0.00649 -0.0108248,0.0118001 -0.0124135,0.0118001 -0.001592,0 -0.002887,-0.00531 -0.002887,-0.0118001 z m 0.30604983,8.4201e-4 c 0,-0.0148685 0.0207119,-0.0221289 0.0256189,-0.008981 0.004629,0.0124056 -0.001196,0.0199391 -0.0154175,0.0199391 -0.00561,0 -0.0102014,-0.004931 -0.0102014,-0.0109584 z M 0.49383764,0.4751143 c 0,-0.006745 0.003498,-0.0100407 0.007776,-0.007323 0.004274,0.002717 0.005793,0.008237 0.003373,0.0122644 -0.006557,0.0109114 -0.0111503,0.008877 -0.0111503,-0.004941 z m 0.34430607,-1.9375e-4 c 0,-0.013892 0.016471,-0.0114727 0.0212005,0.003114 0.001664,0.005138 -0.00242,0.009342 -0.009086,0.009342 -0.006663,0 -0.0121144,-0.005605 -0.0121144,-0.0124555 z M 0.57210353,0.4701681 c 0.004728,-0.0145866 0.0212005,-0.0170059 0.0212005,-0.003114 0,0.006851 -0.005451,0.0124556 -0.0121144,0.0124556 -0.006663,0 -0.0107518,-0.004204 -0.009086,-0.009342 z M 0.37631054,0.45045135 c -0.008617,-0.008859 -0.005248,-0.0181418 0.006584,-0.0181418 0.006313,0 0.0114771,0.003331 0.0114771,0.007402 0,0.00992 -0.011948,0.0170243 -0.018061,0.0107394 z m 0.1557833,-0.006342 c 0,-0.00649 0.005162,-0.0118001 0.0114771,-0.0118001 0.006313,0 0.0114765,0.00531 0.0114765,0.0118001 0,0.00649 -0.005162,0.0118 -0.0114765,0.0118 -0.006313,0 -0.0114771,-0.00531 -0.0114771,-0.0118 z m 0.24483993,0 c 0,-0.00649 0.003446,-0.0118001 0.007651,-0.0118001 0.004209,0 0.007651,0.00531 0.007651,0.0118001 0,0.00649 -0.003446,0.0118 -0.007651,0.0118 -0.004209,0 -0.007651,-0.00531 -0.007651,-0.0118 z m -0.15871805,-0.007374 c -0.009443,-0.00537 -0.014925,-0.0120726 -0.0121808,-0.0148938 0.002742,-0.002822 0.008749,-0.001921 0.0133441,0.002 0.008359,0.007133 0.0127614,0.008467 0.027935,0.008467 0.004458,0 0.005977,0.00354 0.003373,0.007867 -0.005767,0.009593 -0.0104217,0.0091 -0.0324724,-0.00344 z M 0.84579493,0.4362427 c 0,-0.00649 0.005162,-0.0118001 0.0114765,-0.0118001 0.006313,0 0.0114771,0.00531 0.0114771,0.0118001 0,0.00649 -0.005162,0.0118 -0.0114771,0.0118 -0.006313,0 -0.0114765,-0.00531 -0.0114765,-0.0118 z M 0.68511882,0.42444262 c 0,-0.004327 0.005162,-0.007867 0.0114771,-0.007867 0.006313,0 0.0114771,0.00354 0.0114771,0.007867 0,0.004327 -0.005162,0.007867 -0.0114771,0.007867 -0.006313,0 -0.0114771,-0.00354 -0.0114771,-0.007867 z m -0.34048049,-0.007867 c -0.002597,-0.004327 -0.001085,-0.007867 0.003373,-0.007867 0.004458,0 0.008103,0.00354 0.008103,0.007867 0,0.004327 -0.001519,0.007867 -0.003373,0.007867 -0.001855,0 -0.005504,-0.00354 -0.008103,-0.007867 z m 0.12624561,0 c 0,-0.004327 0.005162,-0.007867 0.0114765,-0.007867 0.006313,0 0.0114771,0.00354 0.0114771,0.007867 0,0.004327 -0.005162,0.007867 -0.0114771,0.007867 -0.006313,0 -0.0114765,-0.00354 -0.0114765,-0.007867 z" id="path4398" inkscape:connector-curvature="0" />
    </pattern>
  </defs>
  <sodipodi:namedview pagecolor="#ffffff" bordercolor="#666666" borderopacity="1" objecttolerance="10" gridtolerance="10" guidetolerance="10" inkscape:pageopacity="0" inkscape:pageshadow="2" inkscape:window-width="1680" inkscape:window-height="988" id="namedview4" showgrid="false" inkscape:zoom="256" inkscape:cx="1.6362388" inkscape:cy="0.090323163" inkscape:window-x="-8" inkscape:window-y="-8" inkscape:window-maximized="1" inkscape:current-layer="svg2" />
  <path style="fill:#000000" d="m 0.66440616,0.69897209 c -0.0425114,-0.007292 -0.1604363,-0.0532435 -0.2120331,-0.0826226 -0.017172,-0.009778 -0.0553235,-0.0308356 -0.0847807,-0.0467953 -0.0294573,-0.0159597 -0.0589942,-0.0338984 -0.065638,-0.0398637 -0.006644,-0.005966 -0.0144752,-0.010846 -0.0174028,-0.010846 -0.002926,0 -0.0267585,-0.0135119 -0.0529561,-0.0300265 -0.11105977,-0.0700094 -0.14239963,-0.0879739 -0.15347498,-0.0879739 -0.01151464,0 -0.02555643,-0.0287911 -0.0178868,-0.0366761 0.005518,-0.005671 0.78153819,-0.003367 0.82573116,0.002451 l 0.0363431,0.004785 0,0.0583367 c 0,0.0726251 -0.0189067,0.15255043 -0.0473955,0.20035533 -0.0165453,0.0277639 -0.0318647,0.0414361 -0.0639052,0.0570335 -0.0444085,0.0216185 -0.0751356,0.0241006 -0.14660103,0.0118423 z m 0.1211576,-0.041761 c 0.0229852,-0.009889 0.0602311,-0.0498751 0.0602311,-0.0646617 0,-0.003079 0.005333,-0.0116594 0.011854,-0.0190667 0.006517,-0.007407 0.0128614,-0.0253858 0.0140918,-0.0399529 0.00123,-0.014567 0.006228,-0.0364509 0.0110997,-0.0486309 0.004873,-0.0121799 0.008862,-0.0342376 0.008862,-0.049017 0,-0.0215526 -0.003406,-0.027586 -0.0172154,-0.0304815 -0.0380279,-0.007975 -0.41125447,-0.0119934 -0.41125447,-0.004429 0,0.004256 -0.005162,0.007739 -0.0114771,0.007739 -0.006313,0 -0.0114765,-0.00354 -0.0114765,-0.007867 0,-0.0119299 -0.13998603,-0.010124 -0.15245116,0.001967 -0.00811,0.007867 -0.0108393,0.007867 -0.0136446,0 -0.002092,-0.005865 -0.0173272,-0.009833 -0.0377517,-0.009833 -0.0208815,0 -0.0323994,0.00307 -0.0295159,0.007867 0.002598,0.004327 0.001368,0.007867 -0.002736,0.007867 -0.004104,0 -0.008725,-0.003887 -0.0102659,-0.008638 -0.001539,-0.004751 -0.0112956,-0.007406 -0.0216785,-0.0059 -0.0165427,0.002399 -0.01345,0.0059 0.0250008,0.0283046 0.0241334,0.0140617 0.048562,0.0255668 0.0542858,0.0255668 0.005721,0 0.0163539,0.006756 0.0236231,0.0150146 0.007268,0.008258 0.024157,0.019451 0.0375294,0.0248732 0.0133724,0.005422 0.0311993,0.015823 0.039616,0.0231127 0.008416,0.007289 0.045758,0.0300966 0.0829819,0.0506821 0.0483174,0.0267206 0.0700353,0.0350058 0.0759144,0.0289613 0.005879,-0.006045 0.0106322,-0.003523 0.016615,0.008815 0.008258,0.0170315 0.0495005,0.0367352 0.11906168,0.0568831 0.0474342,0.0137389 0.10784955,0.0140981 0.13870087,8.2467e-4 z M 0.70807285,0.6329116 c 0,-0.00649 0.005162,-0.0118002 0.0114765,-0.0118002 0.006313,0 0.0114771,0.00531 0.0114771,0.0118002 0,0.00649 -0.005162,0.0118 -0.0114771,0.0118 -0.006313,0 -0.0114765,-0.00531 -0.0114765,-0.0118 z M 0.58190438,0.62123974 c -0.005642,-0.009388 0.001519,-0.0237284 0.0118513,-0.0237284 0.00931,0 0.00937,0.0212922 7.582e-5,0.0271976 -0.003919,0.002489 -0.009285,9.2794e-4 -0.0119283,-0.003469 z m 0.0726097,-0.004062 c 0,-0.00649 0.005162,-0.0118 0.0114765,-0.0118 0.006313,0 0.0114771,0.00531 0.0114771,0.0118 0,0.00649 -0.005162,0.0118002 -0.0114771,0.0118002 -0.006313,0 -0.0114765,-0.00531 -0.0114765,-0.0118002 z m 0.13496406,0.006342 c -0.008617,-0.008859 -0.005248,-0.0181418 0.006584,-0.0181418 0.006313,0 0.0114765,0.003331 0.0114765,0.007402 0,0.00992 -0.011948,0.0170244 -0.0180611,0.0107393 z m -0.0837478,-0.023172 c -0.006115,-0.006285 7.9571e-4,-0.0185694 0.0104454,-0.0185694 0.003959,0 0.0072,0.00531 0.0072,0.0117999 0,0.0121651 -0.009028,0.0156287 -0.0176449,0.006769 z M 0.58331047,0.58461434 c -0.006115,-0.006285 7.957e-4,-0.0185695 0.0104454,-0.0185695 0.003959,0 0.0072,0.00531 0.0072,0.0118002 0,0.0121651 -0.009028,0.0156288 -0.0176448,0.006769 z M 0.7922365,0.56997824 c 0,-0.007211 0.003702,-0.0118427 0.008225,-0.0102923 0.004525,0.001551 0.008225,0.006182 0.008225,0.0102923 0,0.004111 -0.003702,0.008742 -0.008225,0.0102923 -0.004525,0.001551 -0.008225,-0.003081 -0.008225,-0.0102923 z m -0.31370109,-0.007867 c 0,-0.00649 0.003446,-0.0117999 0.007651,-0.0117999 0.004209,0 0.007651,0.00531 0.007651,0.0117999 0,0.00649 -0.003446,0.0118002 -0.007651,0.0118002 -0.004209,0 -0.007651,-0.00531 -0.007651,-0.0118002 z m 0.19479218,-0.0123234 c -0.007041,-0.0117147 0.001124,-0.0180839 0.0157719,-0.0123041 0.006761,0.002667 0.0101488,0.008415 0.00753,0.0127719 -0.006201,0.0103174 -0.0169484,0.0101017 -0.0233022,-4.6774e-4 z m 0.0630076,0.00336 c -0.006115,-0.006285 7.957e-4,-0.0185695 0.0104454,-0.0185695 0.003959,0 0.0072,0.00531 0.0072,0.0118002 0,0.0121651 -0.009028,0.0156287 -0.0176448,0.006769 z m -0.21954348,-0.010703 c 0,-0.004327 0.003242,-0.007867 0.0072,-0.007867 0.003959,0 0.009327,0.00354 0.0119283,0.007867 0.002597,0.004327 -6.3991e-4,0.007867 -0.0072,0.007867 -0.006563,0 -0.0119283,-0.00354 -0.0119283,-0.007867 z m -0.0995301,-0.016061 c -0.0101166,-0.006683 -0.0101166,-0.008396 0,-0.0150782 0.007278,-0.004808 0.0140694,-0.004808 0.0187456,0 0.0112075,0.0115232 -0.004728,0.0243395 -0.0187456,0.0150782 z m 0.38262619,-0.003606 c 0,-0.00649 0.005162,-0.0118002 0.0114771,-0.0118002 0.006313,0 0.0114765,0.00531 0.0114765,0.0118002 0,0.00649 -0.005162,0.0117999 -0.0114765,0.0117999 -0.006313,0 -0.0114771,-0.00531 -0.0114771,-0.0117999 z m -0.1683274,-0.007867 c 0,-0.00649 0.003446,-0.0118001 0.007651,-0.0118001 0.004209,0 0.007651,0.00531 0.007651,0.0118001 0,0.00649 -0.003446,0.0118002 -0.007651,0.0118002 -0.004209,0 -0.007651,-0.00531 -0.007651,-0.0118002 z m -0.0712037,-0.001096 c -0.00714,-0.007341 0.001486,-0.0185695 0.0142706,-0.0185695 0.006063,0 0.0110253,0.00531 0.0110253,0.0118 0,0.0118492 -0.0161514,0.0161714 -0.0252961,0.006769 z m 0.10690951,-0.0159473 c -0.008804,-0.009052 -0.00557,-0.0183556 0.006378,-0.0183556 0.006313,0 0.0114771,0.00531 0.0114771,0.0118001 0,0.0122844 -0.009049,0.0156074 -0.0178526,0.006556 z M 0.38672046,0.48344529 c 0,-0.00649 0.005162,-0.0118 0.0114771,-0.0118 0.006313,0 0.0114771,0.00531 0.0114771,0.0118 0,0.00649 -0.005162,0.0118001 -0.0114771,0.0118001 -0.006313,0 -0.0114771,-0.00531 -0.0114771,-0.0118001 z m 0.0612097,0 c 0,-0.00649 0.005583,-0.0118 0.0124135,-0.0118 0.0101672,0 0.01069,0.002136 0.002887,0.0118 -0.005241,0.00649 -0.0108248,0.0118001 -0.0124135,0.0118001 -0.001592,0 -0.002887,-0.00531 -0.002887,-0.0118001 z m 0.30604983,8.4201e-4 c 0,-0.0148685 0.0207119,-0.0221289 0.0256189,-0.008981 0.004629,0.0124056 -0.001196,0.0199391 -0.0154175,0.0199391 -0.00561,0 -0.0102014,-0.004931 -0.0102014,-0.0109584 z M 0.49383764,0.4751143 c 0,-0.006745 0.003498,-0.0100407 0.007776,-0.007323 0.004274,0.002717 0.005793,0.008237 0.003373,0.0122644 -0.006557,0.0109114 -0.0111503,0.008877 -0.0111503,-0.004941 z m 0.34430607,-1.9375e-4 c 0,-0.013892 0.016471,-0.0114727 0.0212005,0.003114 0.001664,0.005138 -0.00242,0.009342 -0.009086,0.009342 -0.006663,0 -0.0121144,-0.005605 -0.0121144,-0.0124555 z M 0.57210353,0.4701681 c 0.004728,-0.0145866 0.0212005,-0.0170059 0.0212005,-0.003114 0,0.006851 -0.005451,0.0124556 -0.0121144,0.0124556 -0.006663,0 -0.0107518,-0.004204 -0.009086,-0.009342 z M 0.37631054,0.45045135 c -0.008617,-0.008859 -0.005248,-0.0181418 0.006584,-0.0181418 0.006313,0 0.0114771,0.003331 0.0114771,0.007402 0,0.00992 -0.011948,0.0170243 -0.018061,0.0107394 z m 0.1557833,-0.006342 c 0,-0.00649 0.005162,-0.0118001 0.0114771,-0.0118001 0.006313,0 0.0114765,0.00531 0.0114765,0.0118001 0,0.00649 -0.005162,0.0118 -0.0114765,0.0118 -0.006313,0 -0.0114771,-0.00531 -0.0114771,-0.0118 z m 0.24483993,0 c 0,-0.00649 0.003446,-0.0118001 0.007651,-0.0118001 0.004209,0 0.007651,0.00531 0.007651,0.0118001 0,0.00649 -0.003446,0.0118 -0.007651,0.0118 -0.004209,0 -0.007651,-0.00531 -0.007651,-0.0118 z m -0.15871805,-0.007374 c -0.009443,-0.00537 -0.014925,-0.0120726 -0.0121808,-0.0148938 0.002742,-0.002822 0.008749,-0.001921 0.0133441,0.002 0.008359,0.007133 0.0127614,0.008467 0.027935,0.008467 0.004458,0 0.005977,0.00354 0.003373,0.007867 -0.005767,0.009593 -0.0104217,0.0091 -0.0324724,-0.00344 z M 0.84579493,0.4362427 c 0,-0.00649 0.005162,-0.0118001 0.0114765,-0.0118001 0.006313,0 0.0114771,0.00531 0.0114771,0.0118001 0,0.00649 -0.005162,0.0118 -0.0114771,0.0118 -0.006313,0 -0.0114765,-0.00531 -0.0114765,-0.0118 z M 0.68511882,0.42444262 c 0,-0.004327 0.005162,-0.007867 0.0114771,-0.007867 0.006313,0 0.0114771,0.00354 0.0114771,0.007867 0,0.004327 -0.005162,0.007867 -0.0114771,0.007867 -0.006313,0 -0.0114771,-0.00354 -0.0114771,-0.007867 z m -0.34048049,-0.007867 c -0.002597,-0.004327 -0.001085,-0.007867 0.003373,-0.007867 0.004458,0 0.008103,0.00354 0.008103,0.007867 0,0.004327 -0.001519,0.007867 -0.003373,0.007867 -0.001855,0 -0.005504,-0.00354 -0.008103,-0.007867 z m 0.12624561,0 c 0,-0.004327 0.005162,-0.007867 0.0114765,-0.007867 0.006313,0 0.0114771,0.00354 0.0114771,0.007867 0,0.004327 -0.005162,0.007867 -0.0114771,0.007867 -0.006313,0 -0.0114765,-0.00354 -0.0114765,-0.007867 z" id="path4398" inkscape:connector-curvature="0" />
</svg>