<?xml version="1.0" encoding="utf-8" standalone="no"?>
<svg xmlns:dc="http://purl.org/dc/elements/1.1/" xmlns:cc="http://creativecommons.org/ns#" xmlns:rdf="http://www.w3.org/1999/02/22-rdf-syntax-ns#" xmlns:svg="http://www.w3.org/2000/svg" xmlns="http://www.w3.org/2000/svg" xmlns:sodipodi="http://sodipodi.sourceforge.net/DTD/sodipodi-0.dtd" xmlns:inkscape="http://www.inkscape.org/namespaces/inkscape" height="1" version="1.1" width="1" id="svg2" inkscape:version="0.91 r13725" sodipodi:docname="Mutilateral.svg">
  <metadata id="metadata8">
    <rdf:RDF>
      <cc:Work rdf:about="">
        <dc:format>image/svg+xml</dc:format>
        <dc:type rdf:resource="http://purl.org/dc/dcmitype/StillImage" />
        <dc:title></dc:title>
      </cc:Work>
    </rdf:RDF>
  </metadata>
  <defs id="defs6">
    <pattern width="1" height="1" id="Mutilateral" patternContentUnits="objectBoundingBox">
      <path style="fill:#000000" d="m 0.72731121,0.57716837 c -0.0176327,-0.00594 -0.0411704,-0.0158601 -0.0523052,-0.0220448 -0.0258734,-0.0143708 -0.0379888,-0.0136021 -0.0691733,0.00439 -0.0232595,0.0134192 -0.030905,0.0144853 -0.0944807,0.0131757 -0.0380454,-7.8346e-4 -0.0752472,-0.004085 -0.0826707,-0.007336 -0.007423,-0.003251 -0.0834494,-0.005982 -0.16894665,-0.006068 -0.17334489,-1.7483e-4 -0.16963674,6.0435e-4 -0.21830569,-0.0458737 -0.02670358,-0.0255014 -0.05460379,-0.0706637 -0.0521815,-0.0844668 0.0017112,-0.009745 0.99059097,-0.0144097 0.99570464,-0.004697 0.005081,0.00965 -0.0166027,0.0867896 -0.0305203,0.10858022 -0.0275072,0.0430657 -0.15627806,0.068206 -0.22712041,0.0443415 z m 0.15858917,-0.022078 c 0.0453774,-0.0121847 0.0610757,-0.0263592 0.0760898,-0.0687051 0.006402,-0.0180598 0.0116423,-0.0364796 0.0116423,-0.0409328 0,-0.006431 -0.0406167,-0.008097 -0.19739721,-0.008097 -0.10856852,0 -0.19739717,0.002334 -0.19739717,0.005187 0,0.007846 0.0515708,0.064476 0.0734955,0.080706 0.0230512,0.0170637 0.0599682,0.0345122 0.0891749,0.0421478 0.027083,0.00708 0.0986727,0.001971 0.14439182,-0.0103059 z m -0.3122409,6.7557e-4 c 0.0337964,-0.0122835 0.0524189,-0.0227878 0.0524189,-0.0295677 0,-0.002896 -0.006375,-0.0114419 -0.0141672,-0.0189922 -0.020263,-0.0196344 -0.0499446,-0.0578763 -0.0499446,-0.0643486 0,-0.003026 -0.0516271,-0.005502 -0.11472659,-0.005502 -0.0664232,0 -0.11472665,0.002448 -0.11472665,0.005815 0,0.0112978 0.0343641,0.0643094 0.0516533,0.0796824 0.026112,0.0232184 0.0492103,0.0307712 0.10525234,0.0344166 0.0278381,0.001811 0.0512472,0.004412 0.0520205,0.00578 0.002032,0.003595 0.00271,0.003442 0.03222,-0.007284 z M 0.36906553,0.53123918 c -0.0210167,-0.024196 -0.0323432,-0.0428397 -0.0418396,-0.0688669 l -0.009128,-0.0250165 -0.15707783,0 -0.15707769,0 0.009846,0.0195201 c 0.0088479,0.0175402 0.04749145,0.0568924 0.07408728,0.075445 0.01525545,0.0106422 0.02023438,0.011015 0.16196684,0.0121305 l 0.13159811,0.001035 -0.0123753,-0.0142477 z" id="path4220" inkscape:connector-curvature="0" />
    </pattern>
  </defs>
  <sodipodi:namedview pagecolor="#ffffff" bordercolor="#666666" borderopacity="1" objecttolerance="10" gridtolerance="10" guidetolerance="10" inkscape:pageopacity="0" inkscape:pageshadow="2" inkscape:window-width="1680" inkscape:window-height="988" id="namedview4" showgrid="false" inkscape:zoom="256" inkscape:cx="0.5" inkscape:cy="0.5" inkscape:window-x="-8" inkscape:window-y="-8" inkscape:window-maximized="1" inkscape:current-layer="svg2" />
  <path style="fill:#000000" d="m 0.72731121,0.57716837 c -0.0176327,-0.00594 -0.0411704,-0.0158601 -0.0523052,-0.0220448 -0.0258734,-0.0143708 -0.0379888,-0.0136021 -0.0691733,0.00439 -0.0232595,0.0134192 -0.030905,0.0144853 -0.0944807,0.0131757 -0.0380454,-7.8346e-4 -0.0752472,-0.004085 -0.0826707,-0.007336 -0.007423,-0.003251 -0.0834494,-0.005982 -0.16894665,-0.006068 -0.17334489,-1.7483e-4 -0.16963674,6.0435e-4 -0.21830569,-0.0458737 -0.02670358,-0.0255014 -0.05460379,-0.0706637 -0.0521815,-0.0844668 0.0017112,-0.009745 0.99059097,-0.0144097 0.99570464,-0.004697 0.005081,0.00965 -0.0166027,0.0867896 -0.0305203,0.10858022 -0.0275072,0.0430657 -0.15627806,0.068206 -0.22712041,0.0443415 z m 0.15858917,-0.022078 c 0.0453774,-0.0121847 0.0610757,-0.0263592 0.0760898,-0.0687051 0.006402,-0.0180598 0.0116423,-0.0364796 0.0116423,-0.0409328 0,-0.006431 -0.0406167,-0.008097 -0.19739721,-0.008097 -0.10856852,0 -0.19739717,0.002334 -0.19739717,0.005187 0,0.007846 0.0515708,0.064476 0.0734955,0.080706 0.0230512,0.0170637 0.0599682,0.0345122 0.0891749,0.0421478 0.027083,0.00708 0.0986727,0.001971 0.14439182,-0.0103059 z m -0.3122409,6.7557e-4 c 0.0337964,-0.0122835 0.0524189,-0.0227878 0.0524189,-0.0295677 0,-0.002896 -0.006375,-0.0114419 -0.0141672,-0.0189922 -0.020263,-0.0196344 -0.0499446,-0.0578763 -0.0499446,-0.0643486 0,-0.003026 -0.0516271,-0.005502 -0.11472659,-0.005502 -0.0664232,0 -0.11472665,0.002448 -0.11472665,0.005815 0,0.0112978 0.0343641,0.0643094 0.0516533,0.0796824 0.026112,0.0232184 0.0492103,0.0307712 0.10525234,0.0344166 0.0278381,0.001811 0.0512472,0.004412 0.0520205,0.00578 0.002032,0.003595 0.00271,0.003442 0.03222,-0.007284 z M 0.36906553,0.53123918 c -0.0210167,-0.024196 -0.0323432,-0.0428397 -0.0418396,-0.0688669 l -0.009128,-0.0250165 -0.15707783,0 -0.15707769,0 0.009846,0.0195201 c 0.0088479,0.0175402 0.04749145,0.0568924 0.07408728,0.075445 0.01525545,0.0106422 0.02023438,0.011015 0.16196684,0.0121305 l 0.13159811,0.001035 -0.0123753,-0.0142477 z" id="path4220" inkscape:connector-curvature="0" />
</svg>