<?xml version="1.0" encoding="utf-8" standalone="no"?>
<svg xmlns:dc="http://purl.org/dc/elements/1.1/" xmlns:cc="http://creativecommons.org/ns#" xmlns:rdf="http://www.w3.org/1999/02/22-rdf-syntax-ns#" xmlns:svg="http://www.w3.org/2000/svg" xmlns="http://www.w3.org/2000/svg" xmlns:sodipodi="http://sodipodi.sourceforge.net/DTD/sodipodi-0.dtd" xmlns:inkscape="http://www.inkscape.org/namespaces/inkscape" height="1" version="1.1" width="1" id="svg2" inkscape:version="0.91 r13725" sodipodi:docname="石英脉.svg">
  <metadata id="metadata8">
    <rdf:RDF>
      <cc:Work rdf:about="">
        <dc:format>image/svg+xml</dc:format>
        <dc:type rdf:resource="http://purl.org/dc/dcmitype/StillImage" />
        <dc:title />
      </cc:Work>
    </rdf:RDF>
  </metadata>
  <defs id="defs6">
    <inkscape:path-effect effect="skeletal" id="path-effect4197" is_visible="true" pattern="m -0.015625,4.9765625 c 0,-2.76 2.24,-5 5,-5 2.76,0 5,2.24 5,5 0,2.76 -2.24,5 -5,5 -2.76,0 -5,-2.24 -5,-5 z" copytype="single_stretched" prop_scale="1" scale_y_rel="false" spacing="0" normal_offset="0" tang_offset="0" prop_units="false" vertical_pattern="false" fuse_tolerance="0" />
    <inkscape:path-effect effect="spiro" id="path-effect4195" is_visible="true" />
    <inkscape:path-effect effect="skeletal" id="path-effect4190" is_visible="true" pattern="M 0,5 C 0,2.24 2.24,0 5,0 7.76,0 10,2.24 10,5 10,7.76 7.76,10 5,10 2.24,10 0,7.76 0,5 Z" copytype="single_stretched" prop_scale="1" scale_y_rel="false" spacing="0" normal_offset="0" tang_offset="0" prop_units="false" vertical_pattern="false" fuse_tolerance="0" />
    <inkscape:path-effect effect="spiro" id="path-effect4188" is_visible="true" />
    <pattern y="0" x="0" height="6" width="6" patternUnits="userSpaceOnUse" id="EMFhbasepattern" />
    <pattern width="1" height="1" id="石英脉" patternContentUnits="objectBoundingBox">
      <path style="fill:#000000" d="M 0.64991419,0.6510669 C 0.52864603,0.50518353 0.42844744,0.38634533 0.42725116,0.38698208 0.42607116,0.38762013 0.36419696,0.49293492 0.28978987,0.62101781 0.21538277,0.7491008 0.1528548,0.8538959 0.15083893,0.8538959 c -0.006621,0 -0.0180127,-0.020093 -0.0147328,-0.025985 0.004501,-0.00809 0.38565102,-0.66487045 0.38791763,-0.66844872 0.001065,-0.00171 0.006598,0.002223 0.0122558,0.008748 l 0.0102848,0.0118575 -0.0118715,0.0204924 c -0.006529,0.0112709 -0.009094,0.0172346 -0.0057,0.0132526 0.006031,-0.007075 0.0111599,-0.001242 0.22528618,0.25621628 0.12051249,0.14490085 0.2210033,0.26596995 0.22331329,0.26904225 0.003577,0.00475 0.00312,0.00748 -0.003006,0.018211 -0.003972,0.00694 -0.008812,0.011905 -0.010749,0.011027 C 0.96071733,0.76689921 0.54893531,0.27371016 0.525555,0.24338704 L 0.51629,0.23137014 0.4832097,0.28847984 c -0.0181952,0.0314104 -0.0341304,0.0595355 -0.0354126,0.0625004 -0.001636,0.003747 0.0650556,0.08649 0.21853883,0.27120882 0.12147745,0.14619996 0.22086824,0.26719026 0.22086824,0.26886716 0,0.00168 -0.003767,0.00805 -0.00839,0.014152 l -0.00839,0.011102 -0.22048774,-0.2652425 z m -0.62294562,0.064592 c -0.004653,-0.00506 -0.007549,-0.01152 -0.006632,-0.014814 0.001408,-0.005 0.37685738,-0.65351356 0.38744505,-0.66920155 0.00312,-0.00465 0.005456,-0.003556 0.0135038,0.006377 l 0.009718,0.0119895 -0.19545797,0.33615224 C 0.12804287,0.57104584 0.03899356,0.72283503 0.03765764,0.72347133 c -0.001332,6.41e-4 -0.006145,-0.00288 -0.0106881,-0.00781 z m 0.74073834,-0.033895 c -0.009676,-0.00766 -0.0134125,-0.016849 -0.0135152,-0.033222 -8.524e-5,-0.012039 0.001902,-0.017594 0.009212,-0.0261075 0.0175409,-0.020383 0.0404539,-0.008198 0.0441021,0.0234536 0.001522,0.013367 5.3269e-4,0.017201 -0.007431,0.028196 -0.009817,0.013558 -0.0214562,0.016319 -0.032365,0.00768 z M 0.19286506,0.58048012 c -0.0103152,-0.0142482 -0.0103152,-0.0404347 0,-0.0546831 0.008234,-0.0113695 0.0266613,-0.0139356 0.0351844,-0.004899 0.0134733,0.0142843 0.0155699,0.0421689 0.004421,0.0587821 -0.0101364,0.015104 -0.0289709,0.0154844 -0.0396039,7.992e-4 z m 0.47461357,-0.0238727 c -0.0140555,-0.009399 -0.0171261,-0.03847 -0.005959,-0.0564001 0.005787,-0.009293 0.009798,-0.0116252 0.0199836,-0.0116252 0.0101859,0 0.0141925,0.002332 0.0199798,0.0116252 0.019527,0.0313483 -0.006621,0.0747122 -0.0340049,0.0564001 z M 0.28450174,0.43166567 c -0.008321,-0.006694 -0.0149915,-0.028014 -0.0128912,-0.0412176 0.002778,-0.0175807 0.0148622,-0.0311307 0.0277229,-0.0311307 0.008523,0 0.0128455,0.003026 0.0199075,0.0139404 0.007591,0.0117351 0.008744,0.016328 0.007283,0.0290314 -0.00312,0.0269425 -0.0255427,0.04263 -0.0420208,0.0293766 z m 0.26830957,-0.009918 c -0.0163385,-0.0225627 -0.004802,-0.060759 0.0183475,-0.060759 0.0143903,0 0.0209805,0.00532 0.0255769,0.0206453 0.007774,0.0259112 -0.00401,0.0503669 -0.0242642,0.0503669 -0.008961,0 -0.0142267,-0.002749 -0.0196602,-0.0102531 z M 0.37475722,0.26041533 c -0.0106082,-0.0174083 -0.010262,-0.0345609 0.001027,-0.050127 0.0144626,-0.0199745 0.0349409,-0.0157619 0.0442524,0.009104 0.009748,0.0260293 -0.003691,0.0538746 -0.0260107,0.0538746 -0.009041,0 -0.0130548,-0.002679 -0.0192531,-0.0128518 z" id="path4194" inkscape:connector-curvature="0" />
    </pattern>
  </defs>
  <sodipodi:namedview pagecolor="#ffffff" bordercolor="#666666" borderopacity="1" objecttolerance="10" gridtolerance="10" guidetolerance="10" inkscape:pageopacity="0" inkscape:pageshadow="2" inkscape:window-width="1680" inkscape:window-height="988" id="namedview4" showgrid="false" inkscape:zoom="256" inkscape:cx="0.5" inkscape:cy="0.5" inkscape:window-x="-8" inkscape:window-y="-8" inkscape:window-maximized="1" inkscape:current-layer="svg2" />
  <path style="fill:#000000" d="M 0.64991419,0.6510669 C 0.52864603,0.50518353 0.42844744,0.38634533 0.42725116,0.38698208 0.42607116,0.38762013 0.36419696,0.49293492 0.28978987,0.62101781 0.21538277,0.7491008 0.1528548,0.8538959 0.15083893,0.8538959 c -0.006621,0 -0.0180127,-0.020093 -0.0147328,-0.025985 0.004501,-0.00809 0.38565102,-0.66487045 0.38791763,-0.66844872 0.001065,-0.00171 0.006598,0.002223 0.0122558,0.008748 l 0.0102848,0.0118575 -0.0118715,0.0204924 c -0.006529,0.0112709 -0.009094,0.0172346 -0.0057,0.0132526 0.006031,-0.007075 0.0111599,-0.001242 0.22528618,0.25621628 0.12051249,0.14490085 0.2210033,0.26596995 0.22331329,0.26904225 0.003577,0.00475 0.00312,0.00748 -0.003006,0.018211 -0.003972,0.00694 -0.008812,0.011905 -0.010749,0.011027 C 0.96071733,0.76689921 0.54893531,0.27371016 0.525555,0.24338704 L 0.51629,0.23137014 0.4832097,0.28847984 c -0.0181952,0.0314104 -0.0341304,0.0595355 -0.0354126,0.0625004 -0.001636,0.003747 0.0650556,0.08649 0.21853883,0.27120882 0.12147745,0.14619996 0.22086824,0.26719026 0.22086824,0.26886716 0,0.00168 -0.003767,0.00805 -0.00839,0.014152 l -0.00839,0.011102 -0.22048774,-0.2652425 z m -0.62294562,0.064592 c -0.004653,-0.00506 -0.007549,-0.01152 -0.006632,-0.014814 0.001408,-0.005 0.37685738,-0.65351356 0.38744505,-0.66920155 0.00312,-0.00465 0.005456,-0.003556 0.0135038,0.006377 l 0.009718,0.0119895 -0.19545797,0.33615224 C 0.12804287,0.57104584 0.03899356,0.72283503 0.03765764,0.72347133 c -0.001332,6.41e-4 -0.006145,-0.00288 -0.0106881,-0.00781 z m 0.74073834,-0.033895 c -0.009676,-0.00766 -0.0134125,-0.016849 -0.0135152,-0.033222 -8.524e-5,-0.012039 0.001902,-0.017594 0.009212,-0.0261075 0.0175409,-0.020383 0.0404539,-0.008198 0.0441021,0.0234536 0.001522,0.013367 5.3269e-4,0.017201 -0.007431,0.028196 -0.009817,0.013558 -0.0214562,0.016319 -0.032365,0.00768 z M 0.19286506,0.58048012 c -0.0103152,-0.0142482 -0.0103152,-0.0404347 0,-0.0546831 0.008234,-0.0113695 0.0266613,-0.0139356 0.0351844,-0.004899 0.0134733,0.0142843 0.0155699,0.0421689 0.004421,0.0587821 -0.0101364,0.015104 -0.0289709,0.0154844 -0.0396039,7.992e-4 z m 0.47461357,-0.0238727 c -0.0140555,-0.009399 -0.0171261,-0.03847 -0.005959,-0.0564001 0.005787,-0.009293 0.009798,-0.0116252 0.0199836,-0.0116252 0.0101859,0 0.0141925,0.002332 0.0199798,0.0116252 0.019527,0.0313483 -0.006621,0.0747122 -0.0340049,0.0564001 z M 0.28450174,0.43166567 c -0.008321,-0.006694 -0.0149915,-0.028014 -0.0128912,-0.0412176 0.002778,-0.0175807 0.0148622,-0.0311307 0.0277229,-0.0311307 0.008523,0 0.0128455,0.003026 0.0199075,0.0139404 0.007591,0.0117351 0.008744,0.016328 0.007283,0.0290314 -0.00312,0.0269425 -0.0255427,0.04263 -0.0420208,0.0293766 z m 0.26830957,-0.009918 c -0.0163385,-0.0225627 -0.004802,-0.060759 0.0183475,-0.060759 0.0143903,0 0.0209805,0.00532 0.0255769,0.0206453 0.007774,0.0259112 -0.00401,0.0503669 -0.0242642,0.0503669 -0.008961,0 -0.0142267,-0.002749 -0.0196602,-0.0102531 z M 0.37475722,0.26041533 c -0.0106082,-0.0174083 -0.010262,-0.0345609 0.001027,-0.050127 0.0144626,-0.0199745 0.0349409,-0.0157619 0.0442524,0.009104 0.009748,0.0260293 -0.003691,0.0538746 -0.0260107,0.0538746 -0.009041,0 -0.0130548,-0.002679 -0.0192531,-0.0128518 z" id="path4194" inkscape:connector-curvature="0" />
</svg>