<?xml version="1.0" encoding="utf-8" standalone="no"?>
<svg xmlns:dc="http://purl.org/dc/elements/1.1/" xmlns:cc="http://creativecommons.org/ns#" xmlns:rdf="http://www.w3.org/1999/02/22-rdf-syntax-ns#" xmlns:svg="http://www.w3.org/2000/svg" xmlns="http://www.w3.org/2000/svg" xmlns:sodipodi="http://sodipodi.sourceforge.net/DTD/sodipodi-0.dtd" xmlns:inkscape="http://www.inkscape.org/namespaces/inkscape" height="1" version="1.1" width="1" id="svg2" inkscape:version="0.91 r13725" sodipodi:docname="石膏.svg">
  <metadata id="metadata8">
    <rdf:RDF>
      <cc:Work rdf:about="">
        <dc:format>image/svg+xml</dc:format>
        <dc:type rdf:resource="http://purl.org/dc/dcmitype/StillImage" />
        <dc:title />
      </cc:Work>
    </rdf:RDF>
  </metadata>
  <defs id="defs6">
    <inkscape:path-effect effect="skeletal" id="path-effect4197" is_visible="true" pattern="m -0.015625,4.9765625 c 0,-2.76 2.24,-5 5,-5 2.76,0 5,2.24 5,5 0,2.76 -2.24,5 -5,5 -2.76,0 -5,-2.24 -5,-5 z" copytype="single_stretched" prop_scale="1" scale_y_rel="false" spacing="0" normal_offset="0" tang_offset="0" prop_units="false" vertical_pattern="false" fuse_tolerance="0" />
    <inkscape:path-effect effect="spiro" id="path-effect4195" is_visible="true" />
    <inkscape:path-effect effect="skeletal" id="path-effect4190" is_visible="true" pattern="M 0,5 C 0,2.24 2.24,0 5,0 7.76,0 10,2.24 10,5 10,7.76 7.76,10 5,10 2.24,10 0,7.76 0,5 Z" copytype="single_stretched" prop_scale="1" scale_y_rel="false" spacing="0" normal_offset="0" tang_offset="0" prop_units="false" vertical_pattern="false" fuse_tolerance="0" />
    <inkscape:path-effect effect="spiro" id="path-effect4188" is_visible="true" />
    <pattern width="1" height="1" id="石膏" patternContentUnits="objectBoundingBox">
      <path style="fill:#000000" d="m 0.21600866,0.80169578 c 0,-0.0104304 0.003446,-0.0110712 0.0594945,-0.0110712 l 0.0594944,0 -0.001337,-0.29754112 -0.001337,-0.29754108 -0.0581571,-0.001566 c -0.0538926,-0.001451 -0.058157,-0.002364 -0.058157,-0.0124553 0,-0.0106939 0.004982,-0.0108901 0.27656975,-0.0108901 0.27312337,0 0.2765698,1.3597e-4 0.2765698,0.0110714 0,0.0103337 -0.003445,0.0110711 -0.0517403,0.0110711 l -0.0517402,0 0.001335,0.29754113 0.001335,0.29754107 0.0555724,0.001568 c 0.0513099,0.00145 0.0555724,0.002407 0.0555724,0.0124551 0,0.0106881 -0.005063,0.0108839 -0.28173928,0.0108839 -0.2782929,0 -0.28173927,-1.3598e-4 -0.28173927,-0.0110712 z m 0.2222897,-0.30999635 0,-0.29892499 -0.0413562,0 -0.0413562,0 0,0.29892499 0,0.29892502 0.0413562,0 0.0413562,0 0,-0.29892502 z m 0.10339054,0 0,-0.29892499 -0.0413562,0 -0.0413562,0 0,0.29892499 0,0.29892502 0.0413562,0 0.0413562,0 0,-0.29892502 z m 0.10339059,0 0,-0.29892499 -0.0413562,0 -0.0413562,0 0,0.29892499 0,0.29892502 0.0413562,0 0.0413562,0 0,-0.29892502 z" id="path4238" inkscape:connector-curvature="0" />
    </pattern>
  </defs>
  <sodipodi:namedview pagecolor="#ffffff" bordercolor="#666666" borderopacity="1" objecttolerance="10" gridtolerance="10" guidetolerance="10" inkscape:pageopacity="0" inkscape:pageshadow="2" inkscape:window-width="1680" inkscape:window-height="988" id="namedview4" showgrid="false" inkscape:zoom="249.38129" inkscape:cx="1.1300156" inkscape:cy="0.16905745" inkscape:window-x="-8" inkscape:window-y="-8" inkscape:window-maximized="1" inkscape:current-layer="svg2" showguides="false" />
  <path style="fill:#000000" d="m 0.21600866,0.80169578 c 0,-0.0104304 0.003446,-0.0110712 0.0594945,-0.0110712 l 0.0594944,0 -0.001337,-0.29754112 -0.001337,-0.29754108 -0.0581571,-0.001566 c -0.0538926,-0.001451 -0.058157,-0.002364 -0.058157,-0.0124553 0,-0.0106939 0.004982,-0.0108901 0.27656975,-0.0108901 0.27312337,0 0.2765698,1.3597e-4 0.2765698,0.0110714 0,0.0103337 -0.003445,0.0110711 -0.0517403,0.0110711 l -0.0517402,0 0.001335,0.29754113 0.001335,0.29754107 0.0555724,0.001568 c 0.0513099,0.00145 0.0555724,0.002407 0.0555724,0.0124551 0,0.0106881 -0.005063,0.0108839 -0.28173928,0.0108839 -0.2782929,0 -0.28173927,-1.3598e-4 -0.28173927,-0.0110712 z m 0.2222897,-0.30999635 0,-0.29892499 -0.0413562,0 -0.0413562,0 0,0.29892499 0,0.29892502 0.0413562,0 0.0413562,0 0,-0.29892502 z m 0.10339054,0 0,-0.29892499 -0.0413562,0 -0.0413562,0 0,0.29892499 0,0.29892502 0.0413562,0 0.0413562,0 0,-0.29892502 z m 0.10339059,0 0,-0.29892499 -0.0413562,0 -0.0413562,0 0,0.29892499 0,0.29892502 0.0413562,0 0.0413562,0 0,-0.29892502 z" id="path4238" inkscape:connector-curvature="0" />
</svg>