<?xml version="1.0" encoding="utf-8" standalone="no"?>
<svg xmlns:dc="http://purl.org/dc/elements/1.1/" xmlns:cc="http://creativecommons.org/ns#" xmlns:rdf="http://www.w3.org/1999/02/22-rdf-syntax-ns#" xmlns:svg="http://www.w3.org/2000/svg" xmlns="http://www.w3.org/2000/svg" xmlns:sodipodi="http://sodipodi.sourceforge.net/DTD/sodipodi-0.dtd" xmlns:inkscape="http://www.inkscape.org/namespaces/inkscape" height="1" version="1.1" width="1" id="svg2" inkscape:version="0.91 r13725" sodipodi:docname="磷灰石.svg">
  <metadata id="metadata8">
    <rdf:RDF>
      <cc:Work rdf:about="">
        <dc:format>image/svg+xml</dc:format>
        <dc:type rdf:resource="http://purl.org/dc/dcmitype/StillImage" />
        <dc:title></dc:title>
      </cc:Work>
    </rdf:RDF>
  </metadata>
  <defs id="defs6">
    <pattern width="1" height="1" id="磷灰石" patternContentUnits="objectBoundingBox">
      <path style="fill:#000000" d="M 0.42378691,0.8808279 C 0.34527753,0.86440987 0.28789464,0.83369362 0.22902014,0.77657184 0.16641284,0.71582847 0.13305242,0.65649186 0.11784882,0.57883659 0.07148765,0.34203857 0.25586069,0.1234712 0.50197352,0.1234712 c 0.14976739,0 0.28203399,0.0799758 0.34846695,0.21070266 0.0335931,0.0661041 0.0399673,0.0934315 0.0399673,0.17134069 0,0.0779091 -0.006374,0.1052366 -0.0399673,0.17134062 -0.0390173,0.0767784 -0.094927,0.1314304 -0.17313945,0.16924508 -0.0260623,0.012601 -0.06018,0.0262375 -0.0758174,0.0303035 -0.0391836,0.0101897 -0.13832445,0.0126578 -0.17769678,0.004421 z M 0.60682798,0.861794 C 0.73383593,0.8258476 0.82839551,0.73345477 0.86719539,0.60739257 c 0.0110993,-0.036063 0.0128279,-0.0497872 0.0128279,-0.10187818 0,-0.052091 -0.00173,-0.0658153 -0.0128279,-0.10187829 C 0.82826913,0.27716336 0.73562518,0.1866723 0.60604588,0.14855487 0.56932674,0.13775357 0.55523255,0.1360616 0.50197352,0.1360616 c -0.0532591,0 -0.0673532,0.001693 -0.1040724,0.0124933 C 0.192223,0.2090576 0.07871961,0.41005808 0.13777391,0.60920798 0.17895461,0.74808255 0.29892635,0.85054906 0.44747732,0.873722 0.48987402,0.880336 0.55981314,0.875096 0.60682798,0.8617939 Z m -0.23516546,-0.34277239 0,-0.21108782 0.10543343,0.001616 c 0.0985093,0.001509 0.10706007,0.002329 0.13020224,0.0124867 0.0292612,0.0128438 0.0591003,0.0427236 0.0680049,0.0680979 0.0035,0.009974 0.006297,0.0307688 0.006217,0.0462116 -2.6561e-4,0.0507244 -0.0305521,0.0916603 -0.086575,0.11701825 -0.0238695,0.0108042 -0.0336324,0.0122429 -0.0941557,0.0138757 l -0.0675248,0.001821 0,0.0805246 0,0.0805245 -0.0308007,0 -0.0308007,0 0,-0.2110878 z m 0.19184785,-0.003832 c 0.044237,-0.0182706 0.0658046,-0.0588056 0.0541446,-0.10176095 -0.0118236,-0.0435575 -0.0438384,-0.0593085 -0.12634322,-0.0621592 l -0.0580476,-0.002006 0,0.0891805 0,0.0891805 0.0556783,-0.002317 c 0.0368692,-0.001534 0.0620595,-0.004953 0.074568,-0.0101184 z" id="path4254" inkscape:connector-curvature="0" />
    </pattern>
  </defs>
  <sodipodi:namedview pagecolor="#ffffff" bordercolor="#666666" borderopacity="1" objecttolerance="10" gridtolerance="10" guidetolerance="10" inkscape:pageopacity="0" inkscape:pageshadow="2" inkscape:window-width="1680" inkscape:window-height="988" id="namedview4" showgrid="false" inkscape:zoom="256" inkscape:cx="0.5" inkscape:cy="0.5" inkscape:window-x="-8" inkscape:window-y="-8" inkscape:window-maximized="1" inkscape:current-layer="svg2" />
  <path style="fill:#000000" d="M 0.42378691,0.8808279 C 0.34527753,0.86440987 0.28789464,0.83369362 0.22902014,0.77657184 0.16641284,0.71582847 0.13305242,0.65649186 0.11784882,0.57883659 0.07148765,0.34203857 0.25586069,0.1234712 0.50197352,0.1234712 c 0.14976739,0 0.28203399,0.0799758 0.34846695,0.21070266 0.0335931,0.0661041 0.0399673,0.0934315 0.0399673,0.17134069 0,0.0779091 -0.006374,0.1052366 -0.0399673,0.17134062 -0.0390173,0.0767784 -0.094927,0.1314304 -0.17313945,0.16924508 -0.0260623,0.012601 -0.06018,0.0262375 -0.0758174,0.0303035 -0.0391836,0.0101897 -0.13832445,0.0126578 -0.17769678,0.004421 z M 0.60682798,0.861794 C 0.73383593,0.8258476 0.82839551,0.73345477 0.86719539,0.60739257 c 0.0110993,-0.036063 0.0128279,-0.0497872 0.0128279,-0.10187818 0,-0.052091 -0.00173,-0.0658153 -0.0128279,-0.10187829 C 0.82826913,0.27716336 0.73562518,0.1866723 0.60604588,0.14855487 0.56932674,0.13775357 0.55523255,0.1360616 0.50197352,0.1360616 c -0.0532591,0 -0.0673532,0.001693 -0.1040724,0.0124933 C 0.192223,0.2090576 0.07871961,0.41005808 0.13777391,0.60920798 0.17895461,0.74808255 0.29892635,0.85054906 0.44747732,0.873722 0.48987402,0.880336 0.55981314,0.875096 0.60682798,0.8617939 Z m -0.23516546,-0.34277239 0,-0.21108782 0.10543343,0.001616 c 0.0985093,0.001509 0.10706007,0.002329 0.13020224,0.0124867 0.0292612,0.0128438 0.0591003,0.0427236 0.0680049,0.0680979 0.0035,0.009974 0.006297,0.0307688 0.006217,0.0462116 -2.6561e-4,0.0507244 -0.0305521,0.0916603 -0.086575,0.11701825 -0.0238695,0.0108042 -0.0336324,0.0122429 -0.0941557,0.0138757 l -0.0675248,0.001821 0,0.0805246 0,0.0805245 -0.0308007,0 -0.0308007,0 0,-0.2110878 z m 0.19184785,-0.003832 c 0.044237,-0.0182706 0.0658046,-0.0588056 0.0541446,-0.10176095 -0.0118236,-0.0435575 -0.0438384,-0.0593085 -0.12634322,-0.0621592 l -0.0580476,-0.002006 0,0.0891805 0,0.0891805 0.0556783,-0.002317 c 0.0368692,-0.001534 0.0620595,-0.004953 0.074568,-0.0101184 z" id="path4254" inkscape:connector-curvature="0" />
</svg>