<?xml version="1.0" encoding="utf-8" standalone="no"?>
<svg xmlns:dc="http://purl.org/dc/elements/1.1/" xmlns:cc="http://creativecommons.org/ns#" xmlns:rdf="http://www.w3.org/1999/02/22-rdf-syntax-ns#" xmlns:svg="http://www.w3.org/2000/svg" xmlns="http://www.w3.org/2000/svg" xmlns:sodipodi="http://sodipodi.sourceforge.net/DTD/sodipodi-0.dtd" xmlns:inkscape="http://www.inkscape.org/namespaces/inkscape" height="1" version="1.1" width="1" id="svg2" inkscape:version="0.91 r13725" sodipodi:docname="ConcentricFill.svg">
  <metadata id="metadata8">
    <rdf:RDF>
      <cc:Work rdf:about="">
        <dc:format>image/svg+xml</dc:format>
        <dc:type rdf:resource="http://purl.org/dc/dcmitype/StillImage" />
        <dc:title></dc:title>
      </cc:Work>
    </rdf:RDF>
  </metadata>
  <defs id="defs6">
    <pattern width="1" height="1" id="ConcentricFill" patternContentUnits="objectBoundingBox">
      <path style="fill:#000000" d="M 0.43257176,0.71301812 C 0.35262057,0.69666731 0.28275675,0.65590664 0.19611389,0.57506164 0.15274673,0.53459642 0.04831158,0.40683362 0.04831158,0.39424476 c 0,-0.004269 -0.005895,-0.0124045 -0.0131,-0.0180787 -0.007205,-0.005674 -0.0131,-0.0154541 -0.0131,-0.021733 0,-0.009557 0.0775116,-0.0114162 0.4759742,-0.0114162 0.33921079,0 0.4759743,0.002609 0.4759743,0.00908 0,0.0155998 -0.0261229,0.0561619 -0.1089022,0.16909674 -0.0323219,0.0440962 -0.13858584,0.13362194 -0.18981426,0.15991557 -0.0481137,0.0246949 -0.12596745,0.0438652 -0.17231179,0.0424291 -0.012327,-3.8216e-4 -0.0440339,-0.005116 -0.07046,-0.0105205 z m 0.21639238,-0.0455666 c 0.0725007,-0.0351148 0.17194481,-0.12599892 0.23275988,-0.21272433 0.0600432,-0.0856247 0.0644226,-0.0952616 0.0430526,-0.0947394 -0.009477,2.2987e-4 -0.0398144,0.0281552 -0.0729856,0.0671781 -0.0512838,0.0603307 -0.11079691,0.11098932 -0.176624,0.15034556 -0.075816,0.0566352 -0.1817024,0.0297576 -0.24364777,0.0224122 -0.0237969,0 -0.104903,-0.0384637 -0.1327235,-0.0629425 -0.012458,-0.0109619 -0.0242206,-0.0199306 -0.026138,-0.0199306 -0.001918,0 -0.0305823,-0.0264106 -0.0636988,-0.0586901 -0.0331165,-0.0322795 -0.0699972,-0.0677078 -0.0819566,-0.0787295 -0.0230453,-0.021238 -0.0612235,-0.0271822 -0.0612235,-0.009532 0,0.0296831 0.13315355,0.18374158 0.2053266,0.23756268 0.099545,0.0742329 0.1502477,0.0923531 0.24881398,0.0889215 0.0631586,-0.002199 0.0824122,-0.006545 0.12904468,-0.0291315 z M 0.65352114,0.5649773 C 0.72204484,0.530557 0.86925708,0.39496383 0.86925708,0.36626876 c 0,-0.003672 -0.0102051,-0.006677 -0.0226781,-0.006677 -0.0156366,0 -0.0407198,0.0157866 -0.0807846,0.0508433 -0.1600528,0.14004717 -0.32656778,0.13965385 -0.47859375,-0.001131 -0.0498694,-0.0461818 -0.0565378,-0.0497128 -0.0938848,-0.0497128 -0.0227663,0 -0.0402024,0.003851 -0.0402024,0.008879 0,0.004884 0.0324229,0.0396134 0.0720512,0.0771774 0.0754932,0.0715609 0.18792234,0.12613724 0.24301839,0.13719532 0.0615875,0.012361 0.12708212,0.011397 0.18533823,-0.0178663 z M 0.57231994,0.4922106 C 0.58913184,0.4888066 0.61399224,0.4818004 0.62756494,0.476641 0.67396044,0.4590045 0.7819233,0.3819749 0.7819233,0.36650906 c 0,-0.003804 -0.0239014,-0.006917 -0.0531144,-0.006917 -0.0472964,0 -0.057102,0.003061 -0.0895182,0.0279414 -0.0502485,0.0385677 -0.11285175,0.052851 -0.16773534,0.0382696 -0.0228553,-0.006072 -0.0586927,-0.0234537 -0.0796391,-0.0386256 -0.0300928,-0.0217968 -0.0463154,-0.0275853 -0.0773094,-0.0275853 -0.0215736,0 -0.0392252,0.003648 -0.0392252,0.008105 0,0.0147451 0.11383513,0.0975075 0.15113812,0.10988312 0.0201476,0.006684 0.0484217,0.0160296 0.062832,0.0207677 0.0144101,0.004738 0.0320955,0.006688 0.0393006,0.004334 0.007205,-0.002355 0.0268553,-0.007066 0.0436676,-0.0104703 z m 0.0136411,-0.095928 c 0.0261215,-0.011726 0.0474933,-0.0247786 0.0474933,-0.0290055 0,-0.0102317 -0.21580484,-0.00999 -0.22247363,2.49e-4 -0.008137,0.0124936 0.0711386,0.0475404 0.11166271,0.0493645 0.008703,3.9234e-4 0.0371965,-0.008882 0.0633176,-0.020608 z" id="path4478" inkscape:connector-curvature="0" sodipodi:nodetypes="ssssssssscssscsccsssssscsssssssssssssssssssssscsssscs" />
    </pattern>
  </defs>
  <sodipodi:namedview pagecolor="#ffffff" bordercolor="#666666" borderopacity="1" objecttolerance="10" gridtolerance="10" guidetolerance="10" inkscape:pageopacity="0" inkscape:pageshadow="2" inkscape:window-width="1680" inkscape:window-height="988" id="namedview4" showgrid="false" inkscape:zoom="256" inkscape:cx="0.5" inkscape:cy="0.5" inkscape:window-x="-8" inkscape:window-y="-8" inkscape:window-maximized="1" inkscape:current-layer="svg2" />
  <path style="fill:#000000" d="M 0.43257176,0.71301812 C 0.35262057,0.69666731 0.28275675,0.65590664 0.19611389,0.57506164 0.15274673,0.53459642 0.04831158,0.40683362 0.04831158,0.39424476 c 0,-0.004269 -0.005895,-0.0124045 -0.0131,-0.0180787 -0.007205,-0.005674 -0.0131,-0.0154541 -0.0131,-0.021733 0,-0.009557 0.0775116,-0.0114162 0.4759742,-0.0114162 0.33921079,0 0.4759743,0.002609 0.4759743,0.00908 0,0.0155998 -0.0261229,0.0561619 -0.1089022,0.16909674 -0.0323219,0.0440962 -0.13858584,0.13362194 -0.18981426,0.15991557 -0.0481137,0.0246949 -0.12596745,0.0438652 -0.17231179,0.0424291 -0.012327,-3.8216e-4 -0.0440339,-0.005116 -0.07046,-0.0105205 z m 0.21639238,-0.0455666 c 0.0725007,-0.0351148 0.17194481,-0.12599892 0.23275988,-0.21272433 0.0600432,-0.0856247 0.0644226,-0.0952616 0.0430526,-0.0947394 -0.009477,2.2987e-4 -0.0398144,0.0281552 -0.0729856,0.0671781 -0.0512838,0.0603307 -0.11079691,0.11098932 -0.176624,0.15034556 -0.075816,0.0566352 -0.1817024,0.0297576 -0.24364777,0.0224122 -0.0237969,0 -0.104903,-0.0384637 -0.1327235,-0.0629425 -0.012458,-0.0109619 -0.0242206,-0.0199306 -0.026138,-0.0199306 -0.001918,0 -0.0305823,-0.0264106 -0.0636988,-0.0586901 -0.0331165,-0.0322795 -0.0699972,-0.0677078 -0.0819566,-0.0787295 -0.0230453,-0.021238 -0.0612235,-0.0271822 -0.0612235,-0.009532 0,0.0296831 0.13315355,0.18374158 0.2053266,0.23756268 0.099545,0.0742329 0.1502477,0.0923531 0.24881398,0.0889215 0.0631586,-0.002199 0.0824122,-0.006545 0.12904468,-0.0291315 z M 0.65352114,0.5649773 C 0.72204484,0.530557 0.86925708,0.39496383 0.86925708,0.36626876 c 0,-0.003672 -0.0102051,-0.006677 -0.0226781,-0.006677 -0.0156366,0 -0.0407198,0.0157866 -0.0807846,0.0508433 -0.1600528,0.14004717 -0.32656778,0.13965385 -0.47859375,-0.001131 -0.0498694,-0.0461818 -0.0565378,-0.0497128 -0.0938848,-0.0497128 -0.0227663,0 -0.0402024,0.003851 -0.0402024,0.008879 0,0.004884 0.0324229,0.0396134 0.0720512,0.0771774 0.0754932,0.0715609 0.18792234,0.12613724 0.24301839,0.13719532 0.0615875,0.012361 0.12708212,0.011397 0.18533823,-0.0178663 z M 0.57231994,0.4922106 C 0.58913184,0.4888066 0.61399224,0.4818004 0.62756494,0.476641 0.67396044,0.4590045 0.7819233,0.3819749 0.7819233,0.36650906 c 0,-0.003804 -0.0239014,-0.006917 -0.0531144,-0.006917 -0.0472964,0 -0.057102,0.003061 -0.0895182,0.0279414 -0.0502485,0.0385677 -0.11285175,0.052851 -0.16773534,0.0382696 -0.0228553,-0.006072 -0.0586927,-0.0234537 -0.0796391,-0.0386256 -0.0300928,-0.0217968 -0.0463154,-0.0275853 -0.0773094,-0.0275853 -0.0215736,0 -0.0392252,0.003648 -0.0392252,0.008105 0,0.0147451 0.11383513,0.0975075 0.15113812,0.10988312 0.0201476,0.006684 0.0484217,0.0160296 0.062832,0.0207677 0.0144101,0.004738 0.0320955,0.006688 0.0393006,0.004334 0.007205,-0.002355 0.0268553,-0.007066 0.0436676,-0.0104703 z m 0.0136411,-0.095928 c 0.0261215,-0.011726 0.0474933,-0.0247786 0.0474933,-0.0290055 0,-0.0102317 -0.21580484,-0.00999 -0.22247363,2.49e-4 -0.008137,0.0124936 0.0711386,0.0475404 0.11166271,0.0493645 0.008703,3.9234e-4 0.0371965,-0.008882 0.0633176,-0.020608 z" id="path4478" inkscape:connector-curvature="0" sodipodi:nodetypes="ssssssssscssscsccsssssscsssssssssssssssssssssscsssscs" />
</svg>