<?xml version="1.0" encoding="utf-8" standalone="no"?>
<svg xmlns:dc="http://purl.org/dc/elements/1.1/" xmlns:cc="http://creativecommons.org/ns#" xmlns:rdf="http://www.w3.org/1999/02/22-rdf-syntax-ns#" xmlns:svg="http://www.w3.org/2000/svg" xmlns="http://www.w3.org/2000/svg" xmlns:sodipodi="http://sodipodi.sourceforge.net/DTD/sodipodi-0.dtd" xmlns:inkscape="http://www.inkscape.org/namespaces/inkscape" height="1" version="1.1" width="1" id="svg2" inkscape:version="0.91 r13725" sodipodi:docname="ErosionDominated.svg">
  <metadata id="metadata8">
    <rdf:RDF>
      <cc:Work rdf:about="">
        <dc:format>image/svg+xml</dc:format>
        <dc:type rdf:resource="http://purl.org/dc/dcmitype/StillImage" />
        <dc:title></dc:title>
      </cc:Work>
    </rdf:RDF>
  </metadata>
  <defs id="defs6">
    <pattern width="1" height="1" id="ErosionDominated" patternContentUnits="objectBoundingBox">
      <path style="fill:#000000" d="m 0.63551271,0.64755287 c -0.008766,-0.001776 -0.0517953,-0.005532 -0.0956216,-0.008349 -0.14596061,-0.009372 -0.18529294,-0.0159021 -0.20363848,-0.0338068 -0.0113851,-0.011111 -0.0195769,-0.0205034 -0.0637478,-0.0730888 -0.0727029,-0.0865524 -0.0995331,-0.10722013 -0.18238932,-0.1404998 -0.0528111,-0.021212 -0.0574896,-0.0236819 -0.0548848,-0.0289785 0.002871,-0.005832 0.90713549,-0.006144 0.91000295,-3.1293e-4 0.003201,0.006503 -0.007903,0.0834181 -0.0179533,0.12434729 -0.0163213,0.0664901 -0.0291534,0.0852958 -0.0830267,0.12167368 -0.0301244,0.020342 -0.0518173,0.0294075 -0.0887028,0.0370703 -0.031634,0.006572 -0.0923692,0.007556 -0.12003819,0.001944 z m 0.0903093,-0.009331 c 0.0414047,-0.006384 0.0399612,-0.006074 0.0580815,-0.0124671 0.0208814,-0.007368 0.0550435,-0.0265619 0.0526431,-0.0295784 -0.001057,-0.001331 -0.0120604,9.096e-4 -0.0244496,0.004972 -0.0141323,0.004639 -0.0298583,0.006573 -0.0422044,0.0052 -0.012004,-0.001338 -0.0251252,1.9222e-4 -0.0336446,0.003918 -0.0159833,0.006991 -0.0228201,0.007791 -0.0228201,0.00267 0,-0.007972 0.0358298,-0.0197576 0.0524421,-0.01725 0.00914,0.001377 0.0229931,8.4942e-4 0.0307838,-0.001171 0.0126733,-0.003296 0.0130469,-0.00374 0.003539,-0.004211 -0.005843,-2.9163e-4 -0.0156557,-0.004384 -0.0218044,-0.009094 -0.0135812,-0.0104063 -0.0455143,-0.0115216 -0.0632522,-0.002208 -0.0123148,0.006466 -0.0332213,0.008867 -0.028797,0.003307 0.006501,-0.008167 0.0319557,-0.0153743 0.0605444,-0.0171417 0.0275908,-0.001703 0.032628,-8.5868e-4 0.0389571,0.006526 0.00814,0.009504 0.0207912,0.009599 0.0656307,4.9531e-4 0.0217409,-0.004411 0.0285192,-0.007873 0.0378173,-0.0192965 0.0119104,-0.0146325 0.0123433,-0.0231503 9.4428e-4,-0.0186049 -0.003714,0.001481 -0.008653,0.001215 -0.0109774,-5.8789e-4 -0.005151,-0.004001 0.005175,-0.009846 0.0183264,-0.0103773 0.006924,-2.8006e-4 0.0102057,-0.004401 0.0150436,-0.0188646 0.003401,-0.0101788 0.005505,-0.0193692 0.00466,-0.0204241 -8.3981e-4,-0.001055 -0.006814,1.0105e-4 -0.0132729,0.00257 -0.017744,0.006773 -0.1204788,4.7216e-4 -0.12258528,-0.007518 -0.001316,-0.005006 0.002244,-0.005532 0.0191938,-0.002836 0.0347296,0.005527 0.0836642,0.006147 0.0998452,0.001265 0.0158625,-0.004789 0.0231832,-0.0143334 0.0273593,-0.0356735 0.002001,-0.0102453 0.001249,-0.012238 -0.004619,-0.012238 -0.003857,0 -0.0146968,0.004267 -0.0240832,0.009486 -0.0143571,0.00798 -0.0188253,0.008687 -0.0281486,0.00445 -0.0165996,-0.007542 -0.0357645,-0.006099 -0.0513073,0.003862 -0.009298,0.00596 -0.0208731,0.0089 -0.0350434,0.0089 -0.022434,0 -0.0393286,0.005687 -0.0393286,0.0132402 0,0.002508 0.006375,0.004561 0.0141662,0.004561 0.007794,0 0.0141662,0.001887 0.0141662,0.004189 0,0.006211 -0.00651,0.0101305 -0.0110187,0.006632 -0.00216,-0.00168 -0.009971,-0.003623 -0.0173462,-0.004311 -0.00738,-6.9436e-4 -0.0166564,-0.003441 -0.0206224,-0.006106 -0.0104422,-0.007022 -0.0336742,-0.005952 -0.0501033,0.002308 -0.009129,0.004589 -0.0177319,0.00599 -0.0239766,0.003901 -0.005353,-0.001793 -0.007683,-0.004206 -0.005167,-0.005366 0.003514,-0.00162 0.003623,-0.003557 4.5125e-4,-0.008351 -0.003384,-0.005128 -0.002168,-0.006243 0.006823,-0.006243 0.008807,0 0.0105662,0.001521 0.008999,0.007788 -0.001859,0.007417 -0.001705,0.007417 0.003159,0 0.004179,-0.006368 0.0109352,-0.007788 0.0370707,-0.007788 0.0214659,0 0.0352962,-0.002181 0.0421081,-0.006648 0.006264,-0.004101 0.0199722,-0.006658 0.0358206,-0.006675 0.0204527,-2.219e-5 0.0256763,-0.001387 0.0256763,-0.006702 0,-0.004478 -0.003564,-0.006675 -0.0108337,-0.006675 -0.006721,0 -0.009954,-0.001787 -0.008517,-0.004711 0.001404,-0.002852 0.00673,-0.003463 0.0134893,-0.001543 0.006147,0.001743 0.0215315,0.002874 0.0341936,0.00252 0.0126607,-3.5689e-4 0.0278009,0.001049 0.0336445,0.003118 0.007683,0.002719 0.015319,0.001476 0.0275778,-0.004484 0.009324,-0.004534 0.0208037,-0.008247 0.0255092,-0.008247 0.006864,0 0.009277,-0.00328 0.0121941,-0.0165541 0.00211,-0.009624 0.002323,-0.0182056 4.972e-4,-0.0204995 -0.003689,-0.004639 -0.0503151,-0.001648 -0.0905701,0.005809 -0.0155822,0.002886 -0.038691,0.004273 -0.051352,0.003074 -0.0256383,-0.00242 -0.0290615,-0.003368 -0.0442689,-0.0123113 -0.0164588,-0.009677 -0.13387264,-0.008217 -0.1426581,0.001776 -0.0175259,0.0199301 -0.0742565,0.0471241 -0.0834354,0.0399951 -0.004003,-0.003113 0.004703,-0.0100328 0.0127276,-0.0101205 0.007785,-8.673e-5 0.062689,-0.0322536 0.0627819,-0.0367823 3.798e-5,-0.001837 -0.0686703,-0.003335 -0.15268496,-0.003335 -0.1446636,0 -0.15333863,4.5457e-4 -0.1638002,0.008579 -0.009055,0.007032 -0.0151061,0.008116 -0.033566,0.006013 -0.0168109,-0.001915 -0.0209937,-0.00364 -0.0164993,-0.006799 0.00331,-0.00233 0.0129066,-0.002936 0.0213239,-0.001349 0.009336,0.001759 0.0161987,0.001065 0.0175977,-0.001781 0.002635,-0.00536 0.006349,-0.005038 -0.0769238,-0.006582 -0.0345742,-6.3811e-4 -0.0628621,5.3049e-4 -0.0628621,0.002602 0,0.00207 0.008672,0.003768 0.0192695,0.003768 0.0231223,0 0.0297301,0.007803 0.008258,0.009752 -0.0151323,0.001376 -0.0426502,-0.005022 -0.047425,-0.01102 -0.003757,-0.004722 -0.0233528,-0.003863 -0.0209988,9.2696e-4 0.001106,0.002258 0.007126,0.005516 0.0133735,0.007241 0.006248,0.001726 0.0137957,0.004656 0.0167822,0.006512 0.0195895,0.0121919 0.0553542,0.0266407 0.0659431,0.0266407 0.0109519,0 0.0122758,0.001143 0.0103162,0.0089 -0.001275,0.005033 -6.3676e-4,0.0089 0.00146,0.0089 0.002043,0 0.0121079,0.008002 0.0223734,0.0177816 0.0116958,0.0111421 0.0224629,0.0177888 0.0288377,0.017801 0.008771,1.781e-5 0.009547,9.6538e-4 0.005631,0.006892 -0.003833,0.005809 -0.002423,0.009596 0.009124,0.0244566 0.007515,0.00967 0.0161363,0.018635 0.0191573,0.0199207 0.003023,0.001287 0.009478,0.009364 0.0143479,0.017952 0.008534,0.0150519 0.00962,0.0155908 0.0301034,0.0149705 0.02729,-8.2628e-4 0.0294329,-3.7958e-4 0.0230201,0.004828 -0.002921,0.002375 -0.0104918,0.004345 -0.0168227,0.004384 -0.0139798,8.172e-5 -0.0142542,0.002658 -0.001992,0.0187376 0.008458,0.0110944 0.0120015,0.0124817 0.031874,0.0124817 0.0125444,0 0.0223574,0.001953 0.0223574,0.004451 0,0.002448 -0.004872,0.004451 -0.0108337,0.004451 -0.005961,0 -0.009978,0.001743 -0.008934,0.003862 0.00304,0.006182 0.0616758,0.0139433 0.14194989,0.0187899 0.0834767,0.005038 0.1045218,0.006832 0.14520304,0.0123623 0.0402052,0.005466 0.03924,0.005466 0.0743722,4.816e-5 z M 0.59183398,0.61188697 c -0.009654,-0.006502 -0.0167872,-0.008235 -0.0254654,-0.00619 -0.00754,0.001775 -0.0193902,-5.798e-5 -0.0316545,-0.004906 -0.0144307,-0.005703 -0.0240376,-0.006837 -0.0364293,-0.004295 -0.0258267,0.005294 -0.0442477,0.005011 -0.0543106,-8.3091e-4 -0.007312,-0.004251 -0.0128011,-0.003967 -0.0273407,0.001386 -0.013062,0.004811 -0.0199704,0.0054 -0.0244961,0.002092 -0.005716,-0.004184 -0.005581,-0.004623 0.001536,-0.004745 0.004315,-7.453e-5 0.0156136,-0.003984 0.0251184,-0.008694 0.0170338,-0.008436 0.017428,-0.008437 0.0275779,-3.129e-5 0.0103289,0.008556 0.0298223,0.0114978 0.0347919,0.00525 0.001462,-0.001838 0.006105,-0.003673 0.0103298,-0.00409 0.0257845,-0.002525 0.0484028,-0.007715 0.0484028,-0.0111032 0,-0.002164 -0.005978,-0.003812 -0.0132808,-0.003663 -0.007303,1.4917e-4 -0.0268274,-9.6052e-4 -0.043384,-0.002464 -0.0440223,-0.004001 -0.0482702,-0.004017 -0.0833746,-3.8421e-4 -0.0296558,0.003068 -0.0325097,0.002636 -0.0386202,-0.005846 -0.006451,-0.008953 -0.006442,-0.009162 3.5851e-4,-0.009162 0.003825,0 0.0100257,0.002819 0.0137788,0.006271 0.004163,0.003823 0.008934,0.00485 0.012237,0.00263 0.002981,-0.002002 0.009374,-0.00364 0.0142162,-0.00364 0.0181695,4e-6 0.0344162,-0.004883 0.0619275,-0.0186239 0.024338,-0.012157 0.0298662,-0.0134677 0.0392087,-0.009296 0.005978,0.002669 0.0199263,0.004856 0.0309881,0.004856 0.0127995,0 0.0201122,0.001865 0.0201122,0.005116 0,0.003707 -0.009629,0.004328 -0.0349026,0.002247 -0.0286729,-0.002358 -0.0370034,-0.00156 -0.0466702,0.0045 -0.010443,0.006545 -0.0109924,0.007737 -0.004881,0.0105778 0.00379,0.001759 0.0152605,0.002697 0.0254941,0.002076 0.0102333,-6.1566e-4 0.0194412,5.7169e-4 0.0204594,0.002642 0.001024,0.002069 0.008933,0.002547 0.0175852,0.001055 0.009513,-0.001636 0.0176061,-7.5916e-4 0.0204711,0.002231 0.003284,0.003424 0.0108144,0.003696 0.0245595,8.8877e-4 0.0214321,-0.004384 0.0384858,-9.2117e-4 0.0409347,0.008313 0.001141,0.004306 -6.142e-4,0.004839 -0.006856,0.002085 -0.0138023,-0.006093 -0.0503085,-6.3186e-4 -0.0633189,0.009473 -0.007371,0.005725 0.006231,0.0108113 0.0215315,0.008048 0.008631,-0.00156 0.0167705,4.9762e-4 0.0256613,0.006487 0.0107856,0.007264 0.015883,0.008097 0.0296895,0.004856 0.0176621,-0.004145 0.0516577,-5.9483e-4 0.0488536,0.005106 -9.1085e-4,0.001859 -0.0132349,0.003302 -0.0273794,0.003202 -0.0141445,-9.612e-5 -0.0289424,0.001127 -0.0328837,0.002714 -0.004323,0.001743 -0.0124836,-6.8741e-4 -0.0205764,-0.006139 z m 0.087948,0.004623 c -0.001324,-0.002686 0.003506,-0.004451 0.0121861,-0.004451 0.007903,0 0.0143751,0.002002 0.0143751,0.004451 0,0.002448 -0.00548,0.004451 -0.0121862,0.004451 -0.006704,0 -0.0131718,-0.002002 -0.0143751,-0.004451 z m -0.0458047,-0.0351465 c -0.0110518,-0.005438 -6.142e-4,-0.009892 0.0155655,-0.006641 0.007953,0.001599 0.0153156,0.004645 0.0163606,0.006771 0.002306,0.004684 -0.0223446,0.004584 -0.0319261,-1.2985e-4 z m -0.0728363,-0.0360564 c -0.003773,-0.003068 4.5125e-4,-0.004334 0.014645,-0.004384 0.0109766,-3.606e-5 0.0282772,-0.003446 0.0384462,-0.007571 0.0158483,-0.006432 0.0176571,-0.008268 0.0126641,-0.0128545 -0.005117,-0.004706 -0.004458,-0.00595 0.005463,-0.0102975 0.006206,-0.002719 0.0159327,-0.004944 0.0216067,-0.004944 0.0112711,0 0.0450432,0.0123523 0.0504266,0.0184436 0.004492,0.005083 -0.0109916,0.004906 -0.0254173,-2.9394e-4 -0.0111312,-0.004012 -0.0206102,-9.2581e-4 -0.0658309,0.0214245 -0.0122446,0.006052 -0.0447746,0.006351 -0.0520031,4.7679e-4 z M 0.8466397,0.53126217 c -0.004281,-0.003118 -0.0160155,-0.003812 -0.0326439,-0.001914 -0.0258426,0.002941 -0.0637436,-6.4343e-4 -0.0597558,-0.005654 0.00434,-0.005454 0.0890106,-0.004561 0.10205775,0.001076 0.00716,0.003096 0.0119451,0.006979 0.0106293,0.008633 -0.003506,0.004401 -0.0126466,0.003441 -0.0202873,-0.002141 z m -0.53569531,-0.007153 c 0.001301,-0.002642 0.0126964,-0.006196 0.025326,-0.007895 0.0126297,-0.001699 0.0288731,-0.005643 0.0360965,-0.008764 0.0124946,-0.0054 0.0223219,-0.004661 0.0223219,0.001676 0,0.0045 -0.0344179,0.0140248 -0.0616471,0.0170595 -0.0170979,0.001909 -0.0237488,0.001282 -0.0220973,-0.002076 z m 0.23957196,-0.001398 c -0.004872,-0.001771 -0.0168227,-0.003429 -0.0265612,-0.00369 -0.009739,-2.5922e-4 -0.0222138,-0.003424 -0.0277215,-0.007034 -0.007641,-0.005011 -0.019147,-0.006114 -0.0486054,-0.004661 -0.021225,0.001048 -0.039413,2.3145e-4 -0.040417,-0.00181 -0.001891,-0.003851 0.0290411,-0.0118612 0.0352884,-0.00914 0.0110854,0.004828 0.0315641,0.00212 0.0384227,-0.005078 0.00759,-0.00797 0.007573,-0.007999 -0.006552,-0.008943 -0.007794,-5.2076e-4 -0.0197441,-4.305e-4 -0.0265613,1.9998e-4 -0.0174922,0.00162 -0.0814554,-0.008697 -0.0814554,-0.0131364 0,-0.00755 0.006408,-0.008075 0.0268323,-0.002198 0.0122084,0.003513 0.0408543,0.005987 0.0685243,0.005924 0.0424104,-9.889e-5 0.0480726,7.8785e-4 0.0524243,0.008215 0.004458,0.007613 0.003953,0.008444 -0.005936,0.009719 -0.005944,7.661e-4 -0.0108119,0.00303 -0.0108119,0.005022 0,0.004545 0.0171072,0.0133878 0.0265613,0.0137324 0.0383948,0.001398 0.0945114,0.00742 0.0903092,0.009686 -0.008308,0.004484 -0.0539129,0.006767 -0.0637406,0.003192 z m 0.17707697,8.2165e-4 c 0,-0.005626 0.009632,-0.009576 0.0159369,-0.006535 0.009,0.004339 0.005885,0.0105095 -0.005311,0.0105095 -0.005843,0 -0.0106243,-0.001787 -0.0106256,-0.003974 z m -0.15405703,-0.033827 c -0.006823,-0.006948 -0.006645,-0.007149 0.004829,-0.005427 0.006552,9.8135e-4 0.017706,-8.1471e-4 0.024791,-0.003995 0.0171239,-0.007688 0.0288183,-0.007666 0.0288183,5.295e-5 0,0.003984 -0.005421,0.007086 -0.0150511,0.008613 -0.008275,0.001315 -0.0198327,0.003646 -0.0256763,0.005183 -0.007227,0.001903 -0.0128881,4.8836e-4 -0.017711,-0.004426 z m -0.0354149,-0.002247 c 0.001199,-0.002448 0.007768,-0.004451 0.0145844,-0.004451 0.007363,0 0.0115068,0.001803 0.0102065,0.004451 -0.001199,0.002448 -0.007768,0.004451 -0.0145844,0.004451 -0.007363,0 -0.0115068,-0.001803 -0.0102065,-0.004451 z m -0.25587652,-0.007669 c -0.0119035,-0.001853 -0.0162831,-0.0101693 -0.005311,-0.0100822 0.0139646,1.1048e-4 0.0324928,0.005793 0.0307088,0.009419 -0.001917,0.003901 -0.004231,0.003962 -0.0253976,6.6311e-4 z m 0.0438071,-3.7148e-4 c -9.7102e-4,-0.001975 0.005268,-0.006867 0.0138725,-0.0108729 0.0190129,-0.008855 0.0256309,-0.001731 0.00732,0.007881 -0.014255,0.007484 -0.0186777,0.008108 -0.0211926,0.002992 z m 0.18727864,-0.015017 c -0.007794,-0.002386 -0.0250972,-0.00842 -0.0384583,-0.0134116 -0.0149701,-0.005592 -0.0295115,-0.008195 -0.0378924,-0.006782 -0.0100908,0.001703 -0.0177177,-4.6198e-4 -0.0295546,-0.00838 -0.008775,-0.005869 -0.0200903,-0.010672 -0.0251454,-0.010672 -0.005058,0 -0.0140575,-0.003163 -0.0200042,-0.007026 -0.008283,-0.005382 -0.0130088,-0.005948 -0.0201883,-0.002425 -0.0140304,0.006885 -0.0202043,0.007731 -0.0202584,0.002774 -5.42e-5,-0.005056 0.021437,-0.015416 0.0321315,-0.015492 0.003892,-2.646e-5 0.0123012,0.003945 0.0186786,0.008834 0.0150124,0.0115016 0.0183172,0.0112281 0.0348359,-0.002886 0.0131658,-0.0112486 0.0146595,-0.0115405 0.0337728,-0.006595 0.0109984,0.002846 0.0293265,0.006347 0.0407277,0.007781 0.0322177,0.004051 0.036388,0.0116237 0.004796,0.008703 -0.0146087,-0.001354 -0.0305456,-0.003685 -0.0354149,-0.005188 -0.0234677,-0.007239 -0.0287735,-0.007159 -0.0355426,5.3766e-4 -0.0109663,0.0124711 -0.002812,0.0198813 0.0218846,0.0198813 0.0114899,0 0.0327276,0.004378 0.0471945,0.009724 0.0257703,0.009527 0.0265504,0.009558 0.038378,0.001553 0.011668,-0.007896 0.0301825,-0.008076 0.045169,-4.3999e-4 0.003184,0.00162 0.0112544,-0.00207 0.0190317,-0.008702 0.0293519,-0.0250293 0.0697258,-0.0319939 0.10116762,-0.0174519 0.008765,0.004057 0.0314393,0.008422 0.0503862,0.009708 0.0218244,0.001481 0.0336404,0.003979 0.0322419,0.006823 -0.003092,0.006283 -0.0681772,4.1545e-4 -0.087056,-0.007849 -0.0274646,-0.0120221 -0.0505499,-0.008823 -0.082022,0.0113679 -0.0272544,0.0174853 -0.0284669,0.0178271 -0.0447003,0.0125987 -0.0169401,-0.005454 -0.0282187,-0.003546 -0.0282187,0.004778 0,0.002525 0.006468,0.004589 0.0143751,0.004589 0.008681,0 0.0135077,0.001765 0.0121866,0.00445 -0.002678,0.005438 -0.0233754,0.00505 -0.0425016,-8.0267e-4 z m 0.0495814,8.0499e-4 c -0.001396,-0.002836 0.008818,-0.00445 0.0281235,-0.00445 0.0178468,0 0.030312,0.001831 0.030312,0.00445 0,0.002592 -0.0117357,0.00445 -0.0281235,0.00445 -0.0154677,0 -0.0291087,-0.002003 -0.030312,-0.00445 z M 0.27326894,0.41861153 c -0.0112669,-0.003096 -0.0214294,-0.006817 -0.0225836,-0.008267 -0.001157,-0.001448 -0.00678,4.0805e-4 -0.012508,0.004129 -0.005724,0.003718 -0.0146873,0.006144 -0.0199147,0.005382 -0.008198,-0.001187 -0.006881,-0.002647 0.00967,-0.0106282 0.0203529,-0.009817 0.0168447,-0.010066 0.0703945,0.005 0.004466,0.001254 0.00716,0.004229 0.005986,0.006603 -0.00255,0.005178 -0.004678,0.005022 -0.0310445,-0.002218 z m 0.59403838,-0.0428847 c 0.001985,-0.002342 -0.0190188,-0.003973 -0.0511756,-0.003973 -0.0497309,0 -0.0624315,0.00323 -0.0407279,0.0103641 0.0107334,0.003529 0.0880592,-0.001848 0.0919034,-0.006391 z" id="path4189" inkscape:connector-curvature="0" sodipodi:nodetypes="cccsscccsscccccccsccccccccccccccccccccscscsssscccccccsccscssscccccscccccccccsscccscsscccccscsccccccccccsssccsccccccccccccccsccccscccccsscccccccccccccccccccsssccscccccccsccsccccccccccscccccccccccsccccscccccsccccsccccscscccccccccccccscccccscccccsccccccccccsscccsssccccccccccscc" />
    </pattern>
  </defs>
  <sodipodi:namedview pagecolor="#ffffff" bordercolor="#666666" borderopacity="1" objecttolerance="10" gridtolerance="10" guidetolerance="10" inkscape:pageopacity="0" inkscape:pageshadow="2" inkscape:window-width="1680" inkscape:window-height="988" id="namedview4" showgrid="false" inkscape:zoom="256" inkscape:cx="0.15234375" inkscape:cy="0.55078125" inkscape:window-x="-8" inkscape:window-y="-8" inkscape:window-maximized="1" inkscape:current-layer="svg2" />
  <path style="fill:#000000" d="m 0.63551271,0.64755287 c -0.008766,-0.001776 -0.0517953,-0.005532 -0.0956216,-0.008349 -0.14596061,-0.009372 -0.18529294,-0.0159021 -0.20363848,-0.0338068 -0.0113851,-0.011111 -0.0195769,-0.0205034 -0.0637478,-0.0730888 -0.0727029,-0.0865524 -0.0995331,-0.10722013 -0.18238932,-0.1404998 -0.0528111,-0.021212 -0.0574896,-0.0236819 -0.0548848,-0.0289785 0.002871,-0.005832 0.90713549,-0.006144 0.91000295,-3.1293e-4 0.003201,0.006503 -0.007903,0.0834181 -0.0179533,0.12434729 -0.0163213,0.0664901 -0.0291534,0.0852958 -0.0830267,0.12167368 -0.0301244,0.020342 -0.0518173,0.0294075 -0.0887028,0.0370703 -0.031634,0.006572 -0.0923692,0.007556 -0.12003819,0.001944 z m 0.0903093,-0.009331 c 0.0414047,-0.006384 0.0399612,-0.006074 0.0580815,-0.0124671 0.0208814,-0.007368 0.0550435,-0.0265619 0.0526431,-0.0295784 -0.001057,-0.001331 -0.0120604,9.096e-4 -0.0244496,0.004972 -0.0141323,0.004639 -0.0298583,0.006573 -0.0422044,0.0052 -0.012004,-0.001338 -0.0251252,1.9222e-4 -0.0336446,0.003918 -0.0159833,0.006991 -0.0228201,0.007791 -0.0228201,0.00267 0,-0.007972 0.0358298,-0.0197576 0.0524421,-0.01725 0.00914,0.001377 0.0229931,8.4942e-4 0.0307838,-0.001171 0.0126733,-0.003296 0.0130469,-0.00374 0.003539,-0.004211 -0.005843,-2.9163e-4 -0.0156557,-0.004384 -0.0218044,-0.009094 -0.0135812,-0.0104063 -0.0455143,-0.0115216 -0.0632522,-0.002208 -0.0123148,0.006466 -0.0332213,0.008867 -0.028797,0.003307 0.006501,-0.008167 0.0319557,-0.0153743 0.0605444,-0.0171417 0.0275908,-0.001703 0.032628,-8.5868e-4 0.0389571,0.006526 0.00814,0.009504 0.0207912,0.009599 0.0656307,4.9531e-4 0.0217409,-0.004411 0.0285192,-0.007873 0.0378173,-0.0192965 0.0119104,-0.0146325 0.0123433,-0.0231503 9.4428e-4,-0.0186049 -0.003714,0.001481 -0.008653,0.001215 -0.0109774,-5.8789e-4 -0.005151,-0.004001 0.005175,-0.009846 0.0183264,-0.0103773 0.006924,-2.8006e-4 0.0102057,-0.004401 0.0150436,-0.0188646 0.003401,-0.0101788 0.005505,-0.0193692 0.00466,-0.0204241 -8.3981e-4,-0.001055 -0.006814,1.0105e-4 -0.0132729,0.00257 -0.017744,0.006773 -0.1204788,4.7216e-4 -0.12258528,-0.007518 -0.001316,-0.005006 0.002244,-0.005532 0.0191938,-0.002836 0.0347296,0.005527 0.0836642,0.006147 0.0998452,0.001265 0.0158625,-0.004789 0.0231832,-0.0143334 0.0273593,-0.0356735 0.002001,-0.0102453 0.001249,-0.012238 -0.004619,-0.012238 -0.003857,0 -0.0146968,0.004267 -0.0240832,0.009486 -0.0143571,0.00798 -0.0188253,0.008687 -0.0281486,0.00445 -0.0165996,-0.007542 -0.0357645,-0.006099 -0.0513073,0.003862 -0.009298,0.00596 -0.0208731,0.0089 -0.0350434,0.0089 -0.022434,0 -0.0393286,0.005687 -0.0393286,0.0132402 0,0.002508 0.006375,0.004561 0.0141662,0.004561 0.007794,0 0.0141662,0.001887 0.0141662,0.004189 0,0.006211 -0.00651,0.0101305 -0.0110187,0.006632 -0.00216,-0.00168 -0.009971,-0.003623 -0.0173462,-0.004311 -0.00738,-6.9436e-4 -0.0166564,-0.003441 -0.0206224,-0.006106 -0.0104422,-0.007022 -0.0336742,-0.005952 -0.0501033,0.002308 -0.009129,0.004589 -0.0177319,0.00599 -0.0239766,0.003901 -0.005353,-0.001793 -0.007683,-0.004206 -0.005167,-0.005366 0.003514,-0.00162 0.003623,-0.003557 4.5125e-4,-0.008351 -0.003384,-0.005128 -0.002168,-0.006243 0.006823,-0.006243 0.008807,0 0.0105662,0.001521 0.008999,0.007788 -0.001859,0.007417 -0.001705,0.007417 0.003159,0 0.004179,-0.006368 0.0109352,-0.007788 0.0370707,-0.007788 0.0214659,0 0.0352962,-0.002181 0.0421081,-0.006648 0.006264,-0.004101 0.0199722,-0.006658 0.0358206,-0.006675 0.0204527,-2.219e-5 0.0256763,-0.001387 0.0256763,-0.006702 0,-0.004478 -0.003564,-0.006675 -0.0108337,-0.006675 -0.006721,0 -0.009954,-0.001787 -0.008517,-0.004711 0.001404,-0.002852 0.00673,-0.003463 0.0134893,-0.001543 0.006147,0.001743 0.0215315,0.002874 0.0341936,0.00252 0.0126607,-3.5689e-4 0.0278009,0.001049 0.0336445,0.003118 0.007683,0.002719 0.015319,0.001476 0.0275778,-0.004484 0.009324,-0.004534 0.0208037,-0.008247 0.0255092,-0.008247 0.006864,0 0.009277,-0.00328 0.0121941,-0.0165541 0.00211,-0.009624 0.002323,-0.0182056 4.972e-4,-0.0204995 -0.003689,-0.004639 -0.0503151,-0.001648 -0.0905701,0.005809 -0.0155822,0.002886 -0.038691,0.004273 -0.051352,0.003074 -0.0256383,-0.00242 -0.0290615,-0.003368 -0.0442689,-0.0123113 -0.0164588,-0.009677 -0.13387264,-0.008217 -0.1426581,0.001776 -0.0175259,0.0199301 -0.0742565,0.0471241 -0.0834354,0.0399951 -0.004003,-0.003113 0.004703,-0.0100328 0.0127276,-0.0101205 0.007785,-8.673e-5 0.062689,-0.0322536 0.0627819,-0.0367823 3.798e-5,-0.001837 -0.0686703,-0.003335 -0.15268496,-0.003335 -0.1446636,0 -0.15333863,4.5457e-4 -0.1638002,0.008579 -0.009055,0.007032 -0.0151061,0.008116 -0.033566,0.006013 -0.0168109,-0.001915 -0.0209937,-0.00364 -0.0164993,-0.006799 0.00331,-0.00233 0.0129066,-0.002936 0.0213239,-0.001349 0.009336,0.001759 0.0161987,0.001065 0.0175977,-0.001781 0.002635,-0.00536 0.006349,-0.005038 -0.0769238,-0.006582 -0.0345742,-6.3811e-4 -0.0628621,5.3049e-4 -0.0628621,0.002602 0,0.00207 0.008672,0.003768 0.0192695,0.003768 0.0231223,0 0.0297301,0.007803 0.008258,0.009752 -0.0151323,0.001376 -0.0426502,-0.005022 -0.047425,-0.01102 -0.003757,-0.004722 -0.0233528,-0.003863 -0.0209988,9.2696e-4 0.001106,0.002258 0.007126,0.005516 0.0133735,0.007241 0.006248,0.001726 0.0137957,0.004656 0.0167822,0.006512 0.0195895,0.0121919 0.0553542,0.0266407 0.0659431,0.0266407 0.0109519,0 0.0122758,0.001143 0.0103162,0.0089 -0.001275,0.005033 -6.3676e-4,0.0089 0.00146,0.0089 0.002043,0 0.0121079,0.008002 0.0223734,0.0177816 0.0116958,0.0111421 0.0224629,0.0177888 0.0288377,0.017801 0.008771,1.781e-5 0.009547,9.6538e-4 0.005631,0.006892 -0.003833,0.005809 -0.002423,0.009596 0.009124,0.0244566 0.007515,0.00967 0.0161363,0.018635 0.0191573,0.0199207 0.003023,0.001287 0.009478,0.009364 0.0143479,0.017952 0.008534,0.0150519 0.00962,0.0155908 0.0301034,0.0149705 0.02729,-8.2628e-4 0.0294329,-3.7958e-4 0.0230201,0.004828 -0.002921,0.002375 -0.0104918,0.004345 -0.0168227,0.004384 -0.0139798,8.172e-5 -0.0142542,0.002658 -0.001992,0.0187376 0.008458,0.0110944 0.0120015,0.0124817 0.031874,0.0124817 0.0125444,0 0.0223574,0.001953 0.0223574,0.004451 0,0.002448 -0.004872,0.004451 -0.0108337,0.004451 -0.005961,0 -0.009978,0.001743 -0.008934,0.003862 0.00304,0.006182 0.0616758,0.0139433 0.14194989,0.0187899 0.0834767,0.005038 0.1045218,0.006832 0.14520304,0.0123623 0.0402052,0.005466 0.03924,0.005466 0.0743722,4.816e-5 z M 0.59183398,0.61188697 c -0.009654,-0.006502 -0.0167872,-0.008235 -0.0254654,-0.00619 -0.00754,0.001775 -0.0193902,-5.798e-5 -0.0316545,-0.004906 -0.0144307,-0.005703 -0.0240376,-0.006837 -0.0364293,-0.004295 -0.0258267,0.005294 -0.0442477,0.005011 -0.0543106,-8.3091e-4 -0.007312,-0.004251 -0.0128011,-0.003967 -0.0273407,0.001386 -0.013062,0.004811 -0.0199704,0.0054 -0.0244961,0.002092 -0.005716,-0.004184 -0.005581,-0.004623 0.001536,-0.004745 0.004315,-7.453e-5 0.0156136,-0.003984 0.0251184,-0.008694 0.0170338,-0.008436 0.017428,-0.008437 0.0275779,-3.129e-5 0.0103289,0.008556 0.0298223,0.0114978 0.0347919,0.00525 0.001462,-0.001838 0.006105,-0.003673 0.0103298,-0.00409 0.0257845,-0.002525 0.0484028,-0.007715 0.0484028,-0.0111032 0,-0.002164 -0.005978,-0.003812 -0.0132808,-0.003663 -0.007303,1.4917e-4 -0.0268274,-9.6052e-4 -0.043384,-0.002464 -0.0440223,-0.004001 -0.0482702,-0.004017 -0.0833746,-3.8421e-4 -0.0296558,0.003068 -0.0325097,0.002636 -0.0386202,-0.005846 -0.006451,-0.008953 -0.006442,-0.009162 3.5851e-4,-0.009162 0.003825,0 0.0100257,0.002819 0.0137788,0.006271 0.004163,0.003823 0.008934,0.00485 0.012237,0.00263 0.002981,-0.002002 0.009374,-0.00364 0.0142162,-0.00364 0.0181695,4e-6 0.0344162,-0.004883 0.0619275,-0.0186239 0.024338,-0.012157 0.0298662,-0.0134677 0.0392087,-0.009296 0.005978,0.002669 0.0199263,0.004856 0.0309881,0.004856 0.0127995,0 0.0201122,0.001865 0.0201122,0.005116 0,0.003707 -0.009629,0.004328 -0.0349026,0.002247 -0.0286729,-0.002358 -0.0370034,-0.00156 -0.0466702,0.0045 -0.010443,0.006545 -0.0109924,0.007737 -0.004881,0.0105778 0.00379,0.001759 0.0152605,0.002697 0.0254941,0.002076 0.0102333,-6.1566e-4 0.0194412,5.7169e-4 0.0204594,0.002642 0.001024,0.002069 0.008933,0.002547 0.0175852,0.001055 0.009513,-0.001636 0.0176061,-7.5916e-4 0.0204711,0.002231 0.003284,0.003424 0.0108144,0.003696 0.0245595,8.8877e-4 0.0214321,-0.004384 0.0384858,-9.2117e-4 0.0409347,0.008313 0.001141,0.004306 -6.142e-4,0.004839 -0.006856,0.002085 -0.0138023,-0.006093 -0.0503085,-6.3186e-4 -0.0633189,0.009473 -0.007371,0.005725 0.006231,0.0108113 0.0215315,0.008048 0.008631,-0.00156 0.0167705,4.9762e-4 0.0256613,0.006487 0.0107856,0.007264 0.015883,0.008097 0.0296895,0.004856 0.0176621,-0.004145 0.0516577,-5.9483e-4 0.0488536,0.005106 -9.1085e-4,0.001859 -0.0132349,0.003302 -0.0273794,0.003202 -0.0141445,-9.612e-5 -0.0289424,0.001127 -0.0328837,0.002714 -0.004323,0.001743 -0.0124836,-6.8741e-4 -0.0205764,-0.006139 z m 0.087948,0.004623 c -0.001324,-0.002686 0.003506,-0.004451 0.0121861,-0.004451 0.007903,0 0.0143751,0.002002 0.0143751,0.004451 0,0.002448 -0.00548,0.004451 -0.0121862,0.004451 -0.006704,0 -0.0131718,-0.002002 -0.0143751,-0.004451 z m -0.0458047,-0.0351465 c -0.0110518,-0.005438 -6.142e-4,-0.009892 0.0155655,-0.006641 0.007953,0.001599 0.0153156,0.004645 0.0163606,0.006771 0.002306,0.004684 -0.0223446,0.004584 -0.0319261,-1.2985e-4 z m -0.0728363,-0.0360564 c -0.003773,-0.003068 4.5125e-4,-0.004334 0.014645,-0.004384 0.0109766,-3.606e-5 0.0282772,-0.003446 0.0384462,-0.007571 0.0158483,-0.006432 0.0176571,-0.008268 0.0126641,-0.0128545 -0.005117,-0.004706 -0.004458,-0.00595 0.005463,-0.0102975 0.006206,-0.002719 0.0159327,-0.004944 0.0216067,-0.004944 0.0112711,0 0.0450432,0.0123523 0.0504266,0.0184436 0.004492,0.005083 -0.0109916,0.004906 -0.0254173,-2.9394e-4 -0.0111312,-0.004012 -0.0206102,-9.2581e-4 -0.0658309,0.0214245 -0.0122446,0.006052 -0.0447746,0.006351 -0.0520031,4.7679e-4 z M 0.8466397,0.53126217 c -0.004281,-0.003118 -0.0160155,-0.003812 -0.0326439,-0.001914 -0.0258426,0.002941 -0.0637436,-6.4343e-4 -0.0597558,-0.005654 0.00434,-0.005454 0.0890106,-0.004561 0.10205775,0.001076 0.00716,0.003096 0.0119451,0.006979 0.0106293,0.008633 -0.003506,0.004401 -0.0126466,0.003441 -0.0202873,-0.002141 z m -0.53569531,-0.007153 c 0.001301,-0.002642 0.0126964,-0.006196 0.025326,-0.007895 0.0126297,-0.001699 0.0288731,-0.005643 0.0360965,-0.008764 0.0124946,-0.0054 0.0223219,-0.004661 0.0223219,0.001676 0,0.0045 -0.0344179,0.0140248 -0.0616471,0.0170595 -0.0170979,0.001909 -0.0237488,0.001282 -0.0220973,-0.002076 z m 0.23957196,-0.001398 c -0.004872,-0.001771 -0.0168227,-0.003429 -0.0265612,-0.00369 -0.009739,-2.5922e-4 -0.0222138,-0.003424 -0.0277215,-0.007034 -0.007641,-0.005011 -0.019147,-0.006114 -0.0486054,-0.004661 -0.021225,0.001048 -0.039413,2.3145e-4 -0.040417,-0.00181 -0.001891,-0.003851 0.0290411,-0.0118612 0.0352884,-0.00914 0.0110854,0.004828 0.0315641,0.00212 0.0384227,-0.005078 0.00759,-0.00797 0.007573,-0.007999 -0.006552,-0.008943 -0.007794,-5.2076e-4 -0.0197441,-4.305e-4 -0.0265613,1.9998e-4 -0.0174922,0.00162 -0.0814554,-0.008697 -0.0814554,-0.0131364 0,-0.00755 0.006408,-0.008075 0.0268323,-0.002198 0.0122084,0.003513 0.0408543,0.005987 0.0685243,0.005924 0.0424104,-9.889e-5 0.0480726,7.8785e-4 0.0524243,0.008215 0.004458,0.007613 0.003953,0.008444 -0.005936,0.009719 -0.005944,7.661e-4 -0.0108119,0.00303 -0.0108119,0.005022 0,0.004545 0.0171072,0.0133878 0.0265613,0.0137324 0.0383948,0.001398 0.0945114,0.00742 0.0903092,0.009686 -0.008308,0.004484 -0.0539129,0.006767 -0.0637406,0.003192 z m 0.17707697,8.2165e-4 c 0,-0.005626 0.009632,-0.009576 0.0159369,-0.006535 0.009,0.004339 0.005885,0.0105095 -0.005311,0.0105095 -0.005843,0 -0.0106243,-0.001787 -0.0106256,-0.003974 z m -0.15405703,-0.033827 c -0.006823,-0.006948 -0.006645,-0.007149 0.004829,-0.005427 0.006552,9.8135e-4 0.017706,-8.1471e-4 0.024791,-0.003995 0.0171239,-0.007688 0.0288183,-0.007666 0.0288183,5.295e-5 0,0.003984 -0.005421,0.007086 -0.0150511,0.008613 -0.008275,0.001315 -0.0198327,0.003646 -0.0256763,0.005183 -0.007227,0.001903 -0.0128881,4.8836e-4 -0.017711,-0.004426 z m -0.0354149,-0.002247 c 0.001199,-0.002448 0.007768,-0.004451 0.0145844,-0.004451 0.007363,0 0.0115068,0.001803 0.0102065,0.004451 -0.001199,0.002448 -0.007768,0.004451 -0.0145844,0.004451 -0.007363,0 -0.0115068,-0.001803 -0.0102065,-0.004451 z m -0.25587652,-0.007669 c -0.0119035,-0.001853 -0.0162831,-0.0101693 -0.005311,-0.0100822 0.0139646,1.1048e-4 0.0324928,0.005793 0.0307088,0.009419 -0.001917,0.003901 -0.004231,0.003962 -0.0253976,6.6311e-4 z m 0.0438071,-3.7148e-4 c -9.7102e-4,-0.001975 0.005268,-0.006867 0.0138725,-0.0108729 0.0190129,-0.008855 0.0256309,-0.001731 0.00732,0.007881 -0.014255,0.007484 -0.0186777,0.008108 -0.0211926,0.002992 z m 0.18727864,-0.015017 c -0.007794,-0.002386 -0.0250972,-0.00842 -0.0384583,-0.0134116 -0.0149701,-0.005592 -0.0295115,-0.008195 -0.0378924,-0.006782 -0.0100908,0.001703 -0.0177177,-4.6198e-4 -0.0295546,-0.00838 -0.008775,-0.005869 -0.0200903,-0.010672 -0.0251454,-0.010672 -0.005058,0 -0.0140575,-0.003163 -0.0200042,-0.007026 -0.008283,-0.005382 -0.0130088,-0.005948 -0.0201883,-0.002425 -0.0140304,0.006885 -0.0202043,0.007731 -0.0202584,0.002774 -5.42e-5,-0.005056 0.021437,-0.015416 0.0321315,-0.015492 0.003892,-2.646e-5 0.0123012,0.003945 0.0186786,0.008834 0.0150124,0.0115016 0.0183172,0.0112281 0.0348359,-0.002886 0.0131658,-0.0112486 0.0146595,-0.0115405 0.0337728,-0.006595 0.0109984,0.002846 0.0293265,0.006347 0.0407277,0.007781 0.0322177,0.004051 0.036388,0.0116237 0.004796,0.008703 -0.0146087,-0.001354 -0.0305456,-0.003685 -0.0354149,-0.005188 -0.0234677,-0.007239 -0.0287735,-0.007159 -0.0355426,5.3766e-4 -0.0109663,0.0124711 -0.002812,0.0198813 0.0218846,0.0198813 0.0114899,0 0.0327276,0.004378 0.0471945,0.009724 0.0257703,0.009527 0.0265504,0.009558 0.038378,0.001553 0.011668,-0.007896 0.0301825,-0.008076 0.045169,-4.3999e-4 0.003184,0.00162 0.0112544,-0.00207 0.0190317,-0.008702 0.0293519,-0.0250293 0.0697258,-0.0319939 0.10116762,-0.0174519 0.008765,0.004057 0.0314393,0.008422 0.0503862,0.009708 0.0218244,0.001481 0.0336404,0.003979 0.0322419,0.006823 -0.003092,0.006283 -0.0681772,4.1545e-4 -0.087056,-0.007849 -0.0274646,-0.0120221 -0.0505499,-0.008823 -0.082022,0.0113679 -0.0272544,0.0174853 -0.0284669,0.0178271 -0.0447003,0.0125987 -0.0169401,-0.005454 -0.0282187,-0.003546 -0.0282187,0.004778 0,0.002525 0.006468,0.004589 0.0143751,0.004589 0.008681,0 0.0135077,0.001765 0.0121866,0.00445 -0.002678,0.005438 -0.0233754,0.00505 -0.0425016,-8.0267e-4 z m 0.0495814,8.0499e-4 c -0.001396,-0.002836 0.008818,-0.00445 0.0281235,-0.00445 0.0178468,0 0.030312,0.001831 0.030312,0.00445 0,0.002592 -0.0117357,0.00445 -0.0281235,0.00445 -0.0154677,0 -0.0291087,-0.002003 -0.030312,-0.00445 z M 0.27326894,0.41861153 c -0.0112669,-0.003096 -0.0214294,-0.006817 -0.0225836,-0.008267 -0.001157,-0.001448 -0.00678,4.0805e-4 -0.012508,0.004129 -0.005724,0.003718 -0.0146873,0.006144 -0.0199147,0.005382 -0.008198,-0.001187 -0.006881,-0.002647 0.00967,-0.0106282 0.0203529,-0.009817 0.0168447,-0.010066 0.0703945,0.005 0.004466,0.001254 0.00716,0.004229 0.005986,0.006603 -0.00255,0.005178 -0.004678,0.005022 -0.0310445,-0.002218 z m 0.59403838,-0.0428847 c 0.001985,-0.002342 -0.0190188,-0.003973 -0.0511756,-0.003973 -0.0497309,0 -0.0624315,0.00323 -0.0407279,0.0103641 0.0107334,0.003529 0.0880592,-0.001848 0.0919034,-0.006391 z" id="path4189" inkscape:connector-curvature="0" sodipodi:nodetypes="cccsscccsscccccccsccccccccccccccccccccscscsssscccccccsccscssscccccscccccccccsscccscsscccccscsccccccccccsssccsccccccccccccccsccccscccccsscccccccccccccccccccsssccscccccccsccsccccccccccscccccccccccsccccscccccsccccsccccscscccccccccccccscccccscccccsccccccccccsscccsssccccccccccscc" />
</svg>