<?xml version="1.0" encoding="utf-8" standalone="no"?>
<svg xmlns:dc="http://purl.org/dc/elements/1.1/" xmlns:cc="http://creativecommons.org/ns#" xmlns:rdf="http://www.w3.org/1999/02/22-rdf-syntax-ns#" xmlns:svg="http://www.w3.org/2000/svg" xmlns="http://www.w3.org/2000/svg" xmlns:sodipodi="http://sodipodi.sourceforge.net/DTD/sodipodi-0.dtd" xmlns:inkscape="http://www.inkscape.org/namespaces/inkscape" height="1" version="1.1" width="1" id="svg2" inkscape:version="0.91 r13725" sodipodi:docname="Mutistory.svg">
  <metadata id="metadata8">
    <rdf:RDF>
      <cc:Work rdf:about="">
        <dc:format>image/svg+xml</dc:format>
        <dc:type rdf:resource="http://purl.org/dc/dcmitype/StillImage" />
        <dc:title></dc:title>
      </cc:Work>
    </rdf:RDF>
  </metadata>
  <defs id="defs6">
    <pattern width="1" height="1" id="Mutistory" patternContentUnits="objectBoundingBox">
      <path style="fill:#000000" d="M 0.26461941,0.62885229 C 0.20434758,0.62039395 0.1525946,0.59616212 0.12136752,0.56177864 0.09701164,0.53496086 0.02219295,0.40366437 0.02219295,0.38774092 c 0,-0.007192 0.04593079,-0.007968 0.47225944,-0.007968 0.37571374,0 0.47225724,0.001302 0.47224931,0.006366 -1.87e-5,0.0121636 -0.0494455,0.11352497 -0.0726668,0.14902195 -0.0320913,0.0490555 -0.0797801,0.0846732 -0.12252369,0.0915099 -0.0256029,0.004095 -0.47934054,0.006047 -0.5068917,0.002181 z m 0.52893055,-0.0217266 c 0.0207253,-0.0109046 0.0629578,-0.0404213 0.0629688,-0.0440097 1.563e-5,-0.005228 -0.17818125,0.00406 -0.19205301,0.0100107 -0.0194629,0.008348 -0.054042,0.008859 -0.1007486,0.00149 -0.0376134,-0.005936 -0.15317478,-0.006006 -0.17030323,-1.0719e-4 -0.0429393,0.0147931 -0.17650008,0.0227781 -0.2025445,0.0121092 -0.008112,-0.003323 -0.008722,-0.002824 -0.005124,0.004188 0.002248,0.004377 0.008515,0.008063 0.0139306,0.008191 0.005415,1.3042e-4 0.0218894,0.004478 0.0366081,0.009666 0.0249581,0.008798 0.0440531,0.00937 0.28335558,0.008502 0.23701173,-8.6554e-4 0.2579157,-0.001625 0.27391037,-0.0100415 z M 0.36851642,0.56720933 c 0.0200038,-0.006491 0.15238454,-0.008427 0.24242659,-0.003546 0.0220985,0.001197 0.0454075,-7.112e-4 0.0598194,-0.00491 0.0133523,-0.003885 0.0619222,-0.008405 0.11176816,-0.0103983 0.0550798,-0.002203 0.0905176,-0.005663 0.094452,-0.009222 0.003464,-0.003133 0.0105215,-0.0128751 0.0156844,-0.0216497 l 0.009388,-0.015954 -0.0330006,0.003364 c -0.0207002,0.00211 -0.0464962,8.6554e-4 -0.0692073,-0.003329 -0.0450415,-0.008327 -0.0545973,-0.00839 -0.10547134,-7.1112e-4 -0.0225109,0.003401 -0.0834324,0.007231 -0.1353809,0.008514 -0.10209758,0.002521 -0.12068413,-1.3042e-4 -0.17177182,-0.0244752 -0.0477983,-0.0227798 -0.053241,-0.0226303 -0.0943609,0.002593 l -0.0361128,0.0221519 -0.0661163,-9.4848e-4 c -0.0363639,-5.219e-4 -0.0721377,-0.003142 -0.0794971,-0.005826 -0.007359,-0.002684 -0.01338067,-0.003378 -0.01338067,-0.001547 0,0.001831 0.0057423,0.0129009 0.01276097,0.0245977 0.01535,0.0255828 0.0393124,0.0399243 0.0785427,0.047008 0.0355313,0.006416 0.15366046,0.002652 0.17945845,-0.005719 z M 0.2680739,0.48858721 c 0.002427,-0.003176 0.0150425,-0.0119967 0.0280296,-0.0196008 0.020623,-0.0120751 0.0268021,-0.013488 0.0488001,-0.0111607 0.0138534,0.001466 0.0336878,0.007185 0.0440776,0.0127084 0.0505404,0.02687 0.0603521,0.0281971 0.18233179,0.024661 0.0624895,-0.001812 0.1214095,-0.005012 0.13093341,-0.007112 0.0193304,-0.004263 0.0554767,-0.003905 0.13156511,0.001299 0.0509589,0.003486 0.0569409,0.002404 0.0785925,-0.0142226 0.007683,-0.0059 0.0400324,-0.0743415 0.0372588,-0.0788279 -9.2414e-4,-0.001507 -0.009165,0.002297 -0.0182961,0.00845 -0.0208613,0.0140587 -0.0955096,0.0344341 -0.15076324,0.0411512 -0.10985433,0.0133551 -0.1305511,0.0126605 -0.31920919,-0.0107137 -0.0728071,-0.009021 -0.13202878,-0.009322 -0.17047163,-8.6472e-4 -0.0333669,0.007339 -0.0364601,0.007218 -0.0629679,-0.002466 -0.0153325,-0.005601 -0.0376488,-0.0161801 -0.0495912,-0.0235098 -0.0207081,-0.0127094 -0.0245442,-0.0133266 -0.08282011,-0.0133266 l -0.06110609,0 0.01355544,0.0262548 c 0.0074553,0.0144402 0.01663171,0.0311515 0.0203918,0.0371365 0.0057917,0.009219 0.03297837,0.0263316 0.05613134,0.0353321 0.01329,0.005167 0.13911721,6.1617e-4 0.14355813,-0.005188 z M 0.84235006,0.4213917 c 0.0138534,-0.005583 0.0336879,-0.011814 0.0440775,-0.0138464 0.0103901,-0.002032 0.0217238,-0.005528 0.0251871,-0.007771 0.003463,-0.002242 -0.15875789,-0.004035 -0.36049126,-0.003985 l -0.36678813,9.059e-5 0.0236131,0.0129452 c 0.0279866,0.0153429 0.0643189,0.0176899 0.10861977,0.007017 0.029024,-0.006993 0.062192,-0.005667 0.12593567,0.005033 0.0635825,0.0106734 0.1319104,0.0140281 0.25187167,0.0123676 0.1099275,-0.001522 0.12542544,-0.002763 0.14797467,-0.0118508 z" id="path4269" inkscape:connector-curvature="0" />
    </pattern>
  </defs>
  <sodipodi:namedview pagecolor="#ffffff" bordercolor="#666666" borderopacity="1" objecttolerance="10" gridtolerance="10" guidetolerance="10" inkscape:pageopacity="0" inkscape:pageshadow="2" inkscape:window-width="1680" inkscape:window-height="988" id="namedview4" showgrid="false" inkscape:zoom="256" inkscape:cx="0.5" inkscape:cy="0.5" inkscape:window-x="-8" inkscape:window-y="-8" inkscape:window-maximized="1" inkscape:current-layer="svg2" />
  <path style="fill:#000000" d="M 0.26461941,0.62885229 C 0.20434758,0.62039395 0.1525946,0.59616212 0.12136752,0.56177864 0.09701164,0.53496086 0.02219295,0.40366437 0.02219295,0.38774092 c 0,-0.007192 0.04593079,-0.007968 0.47225944,-0.007968 0.37571374,0 0.47225724,0.001302 0.47224931,0.006366 -1.87e-5,0.0121636 -0.0494455,0.11352497 -0.0726668,0.14902195 -0.0320913,0.0490555 -0.0797801,0.0846732 -0.12252369,0.0915099 -0.0256029,0.004095 -0.47934054,0.006047 -0.5068917,0.002181 z m 0.52893055,-0.0217266 c 0.0207253,-0.0109046 0.0629578,-0.0404213 0.0629688,-0.0440097 1.563e-5,-0.005228 -0.17818125,0.00406 -0.19205301,0.0100107 -0.0194629,0.008348 -0.054042,0.008859 -0.1007486,0.00149 -0.0376134,-0.005936 -0.15317478,-0.006006 -0.17030323,-1.0719e-4 -0.0429393,0.0147931 -0.17650008,0.0227781 -0.2025445,0.0121092 -0.008112,-0.003323 -0.008722,-0.002824 -0.005124,0.004188 0.002248,0.004377 0.008515,0.008063 0.0139306,0.008191 0.005415,1.3042e-4 0.0218894,0.004478 0.0366081,0.009666 0.0249581,0.008798 0.0440531,0.00937 0.28335558,0.008502 0.23701173,-8.6554e-4 0.2579157,-0.001625 0.27391037,-0.0100415 z M 0.36851642,0.56720933 c 0.0200038,-0.006491 0.15238454,-0.008427 0.24242659,-0.003546 0.0220985,0.001197 0.0454075,-7.112e-4 0.0598194,-0.00491 0.0133523,-0.003885 0.0619222,-0.008405 0.11176816,-0.0103983 0.0550798,-0.002203 0.0905176,-0.005663 0.094452,-0.009222 0.003464,-0.003133 0.0105215,-0.0128751 0.0156844,-0.0216497 l 0.009388,-0.015954 -0.0330006,0.003364 c -0.0207002,0.00211 -0.0464962,8.6554e-4 -0.0692073,-0.003329 -0.0450415,-0.008327 -0.0545973,-0.00839 -0.10547134,-7.1112e-4 -0.0225109,0.003401 -0.0834324,0.007231 -0.1353809,0.008514 -0.10209758,0.002521 -0.12068413,-1.3042e-4 -0.17177182,-0.0244752 -0.0477983,-0.0227798 -0.053241,-0.0226303 -0.0943609,0.002593 l -0.0361128,0.0221519 -0.0661163,-9.4848e-4 c -0.0363639,-5.219e-4 -0.0721377,-0.003142 -0.0794971,-0.005826 -0.007359,-0.002684 -0.01338067,-0.003378 -0.01338067,-0.001547 0,0.001831 0.0057423,0.0129009 0.01276097,0.0245977 0.01535,0.0255828 0.0393124,0.0399243 0.0785427,0.047008 0.0355313,0.006416 0.15366046,0.002652 0.17945845,-0.005719 z M 0.2680739,0.48858721 c 0.002427,-0.003176 0.0150425,-0.0119967 0.0280296,-0.0196008 0.020623,-0.0120751 0.0268021,-0.013488 0.0488001,-0.0111607 0.0138534,0.001466 0.0336878,0.007185 0.0440776,0.0127084 0.0505404,0.02687 0.0603521,0.0281971 0.18233179,0.024661 0.0624895,-0.001812 0.1214095,-0.005012 0.13093341,-0.007112 0.0193304,-0.004263 0.0554767,-0.003905 0.13156511,0.001299 0.0509589,0.003486 0.0569409,0.002404 0.0785925,-0.0142226 0.007683,-0.0059 0.0400324,-0.0743415 0.0372588,-0.0788279 -9.2414e-4,-0.001507 -0.009165,0.002297 -0.0182961,0.00845 -0.0208613,0.0140587 -0.0955096,0.0344341 -0.15076324,0.0411512 -0.10985433,0.0133551 -0.1305511,0.0126605 -0.31920919,-0.0107137 -0.0728071,-0.009021 -0.13202878,-0.009322 -0.17047163,-8.6472e-4 -0.0333669,0.007339 -0.0364601,0.007218 -0.0629679,-0.002466 -0.0153325,-0.005601 -0.0376488,-0.0161801 -0.0495912,-0.0235098 -0.0207081,-0.0127094 -0.0245442,-0.0133266 -0.08282011,-0.0133266 l -0.06110609,0 0.01355544,0.0262548 c 0.0074553,0.0144402 0.01663171,0.0311515 0.0203918,0.0371365 0.0057917,0.009219 0.03297837,0.0263316 0.05613134,0.0353321 0.01329,0.005167 0.13911721,6.1617e-4 0.14355813,-0.005188 z M 0.84235006,0.4213917 c 0.0138534,-0.005583 0.0336879,-0.011814 0.0440775,-0.0138464 0.0103901,-0.002032 0.0217238,-0.005528 0.0251871,-0.007771 0.003463,-0.002242 -0.15875789,-0.004035 -0.36049126,-0.003985 l -0.36678813,9.059e-5 0.0236131,0.0129452 c 0.0279866,0.0153429 0.0643189,0.0176899 0.10861977,0.007017 0.029024,-0.006993 0.062192,-0.005667 0.12593567,0.005033 0.0635825,0.0106734 0.1319104,0.0140281 0.25187167,0.0123676 0.1099275,-0.001522 0.12542544,-0.002763 0.14797467,-0.0118508 z" id="path4269" inkscape:connector-curvature="0" />
</svg>