<?xml version="1.0" encoding="utf-8" standalone="no"?>
<svg xmlns:dc="http://purl.org/dc/elements/1.1/" xmlns:cc="http://creativecommons.org/ns#" xmlns:rdf="http://www.w3.org/1999/02/22-rdf-syntax-ns#" xmlns:svg="http://www.w3.org/2000/svg" xmlns="http://www.w3.org/2000/svg" xmlns:sodipodi="http://sodipodi.sourceforge.net/DTD/sodipodi-0.dtd" xmlns:inkscape="http://www.inkscape.org/namespaces/inkscape" height="1" version="1.1" width="1" id="svg2" inkscape:version="0.91 r13725" sodipodi:docname="successionDominated.svg">
  <metadata id="metadata8">
    <rdf:RDF>
      <cc:Work rdf:about="">
        <dc:format>image/svg+xml</dc:format>
        <dc:type rdf:resource="http://purl.org/dc/dcmitype/StillImage" />
        <dc:title></dc:title>
      </cc:Work>
    </rdf:RDF>
  </metadata>
  <defs id="defs6">
    <pattern width="1" height="1" id="successionDominated" patternContentUnits="objectBoundingBox">
      <path style="fill:#000000" d="m 0.65718571,0.71633844 c -0.002592,-0.0041 -0.092464,-0.0142661 -0.18035437,-0.0204005 -0.0429357,-0.002997 -0.0887592,-0.009433 -0.1040692,-0.0146185 -0.0302494,-0.0102442 -0.039504,-0.0194835 -0.0778492,-0.0777176 -0.0136602,-0.0207457 -0.0333866,-0.0500562 -0.0438364,-0.0651342 -0.0104496,-0.0150782 -0.0272194,-0.0392961 -0.0372651,-0.0538178 -0.0228788,-0.0330725 -0.0780712,-0.0760306 -0.1333367,-0.10378117 -0.05430383,-0.0272675 -0.05930886,-0.0305812 -0.05661286,-0.0374812 0.0030811,-0.007885 0.9357104,-0.007952 0.93879072,-6.749e-5 0.003003,0.007691 -0.007974,0.1097426 -0.0167296,0.15550927 -0.0101355,0.0529776 -0.0272926,0.0989175 -0.044789,0.11992866 -0.0363804,0.0436879 -0.0876487,0.0787195 -0.13302395,0.0908949 -0.0301411,0.008087 -0.10710505,0.0127266 -0.11092393,0.006686 z m 0.0802168,-0.0151598 c 0.0345692,-0.006141 0.0746259,-0.0239699 0.10564804,-0.0470229 0.008539,-0.006346 0.0155258,-0.0119008 0.0155258,-0.0123453 8e-8,-4.4263e-4 -0.0300007,-8.8302e-4 -0.0666684,-9.7524e-4 -0.0620201,-1.5332e-4 -0.11253674,-0.00825 -0.12720356,-0.0203881 -0.003923,-0.003247 -0.0181648,0.005194 -0.0450173,0.0266818 -0.0216029,0.0172872 -0.0419524,0.0314314 -0.045221,0.0314314 -0.004139,0 -0.004783,0.001835 -0.002118,0.006048 0.002103,0.003327 0.016816,0.007377 0.0326949,0.009001 0.0158789,0.001622 0.0411999,0.005049 0.0562687,0.007612 0.0398006,0.006771 0.0377144,0.006772 0.0760916,-4.589e-5 z M 0.5619654,0.67238709 c 0.0173498,-0.0120916 0.0447408,-0.0339947 0.0806669,-0.0645047 0.0252715,-0.0214614 0.0734745,-0.0777765 0.0734745,-0.0858389 0,-0.003691 -0.004062,-0.004888 -0.0100461,-0.002961 -0.0723905,0.023309 -0.18840438,0.0182949 -0.31325,-0.0135382 -0.02411,-0.006148 -0.0567028,-0.012765 -0.0724284,-0.014705 -0.0242967,-0.002997 -0.0477165,-0.0110956 -0.10109181,-0.0349547 -0.006533,-0.00292 -8.1433e-4,0.008443 0.020092,0.0399228 0.0160735,0.0242029 0.0300446,0.0440203 0.0310474,0.0440389 0.001004,1.738e-5 0.0125098,0.0171978 0.0255714,0.0381761 0.0538783,0.0865331 0.0602202,0.0910593 0.14064646,0.10037419 0.0739365,0.008563 0.10666006,0.006995 0.12531772,-0.006009 z M 0.87071605,0.6188827 c 0.0199302,-0.007275 0.0379399,-0.0304805 0.048336,-0.0622812 0.008979,-0.0274667 0.005501,-0.0321625 -0.0263837,-0.0356206 -0.015737,-0.001706 -0.0458734,-0.007573 -0.0669698,-0.0130368 -0.0633701,-0.0164112 -0.0769753,-0.012951 -0.0996318,0.0253378 -0.008729,0.0147521 -0.0253132,0.0370998 -0.0368532,0.0496614 l -0.020982,0.0228398 0.0226909,0.007322 c 0.01248,0.004026 0.0244846,0.008401 0.0266773,0.009722 0.00929,0.005593 0.13592467,0.002331 0.15311627,-0.003943 z M 0.6448721,0.51660672 c 0.0395542,-0.005835 0.0965006,-0.0205456 0.0998124,-0.0257841 0.002219,-0.003513 -0.00253,-0.005572 -0.039537,-0.0171418 -0.017078,-0.005339 -0.0423655,-0.014944 -0.0561944,-0.0213443 -0.0138288,-0.0064 -0.0286237,-0.010005 -0.0328775,-0.00801 -0.0424956,0.0199299 -0.068344,0.0262525 -0.15696341,0.0383946 -0.0278283,0.003813 -0.0483765,0.008772 -0.0456629,0.0110197 0.006561,0.005436 0.0622292,0.0163109 0.10539228,0.0205887 0.0190872,0.00189 0.0353891,0.004513 0.0362262,0.005828 0.00275,0.004312 0.0488646,0.002491 0.0898044,-0.00355 z m 0.29119853,-0.0258441 c 0.006016,-0.0336829 0.0180823,-0.13099632 0.0165449,-0.13342899 -8.5812e-4,-0.001356 -0.0901606,-0.001793 -0.1984513,-9.6916e-4 l -0.19689228,0.001496 0.029188,0.0293258 c 0.0336005,0.0337591 0.0794278,0.061326 0.1150349,0.0691978 0.009042,0.001997 0.0213705,0.005756 0.0273979,0.008349 0.006027,0.002594 0.0273979,0.009028 0.0474898,0.014301 0.0200919,0.005273 0.0505036,0.0133077 0.0675816,0.0178559 0.0394246,0.0104994 0.0527119,0.0126633 0.0728165,0.0118588 0.0147301,-5.8832e-4 0.0164742,-0.002216 0.0192902,-0.0179834 z M 0.44212725,0.46999315 c 0.0958122,-0.0138293 0.11303969,-0.017125 0.13790304,-0.0263802 0.0145664,-0.005423 0.0264847,-0.0113379 0.0264847,-0.013146 0,-0.001807 -0.007468,-0.009554 -0.0165958,-0.0172135 -0.009128,-0.007659 -0.023723,-0.0238503 -0.0324343,-0.0359791 L 0.54164629,0.35522155 0.30923278,0.3536495 c -0.12782725,-8.6316e-4 -0.23241296,6.135e-5 -0.23241257,0.002062 4e-7,0.001997 0.004523,0.006293 0.01004716,0.009545 0.0055253,0.003252 0.02319713,0.0137612 0.0392705,0.0233541 0.032947,0.0196631 0.0985664,0.0534811 0.13151004,0.0677753 0.057582,0.0249849 0.0893917,0.0273309 0.1844796,0.0136061 z M 0.26974859,0.27590192 c 0.002637,-0.00167 0.005788,-0.001465 0.007002,4.5384e-4 0.001214,0.001919 -9.4571e-4,0.003286 -0.004797,0.003035 -0.004256,-2.7606e-4 -0.005122,-0.001647 -0.002209,-0.003491 z m 0.61736706,0 c 0.002637,-0.00167 0.005788,-0.001465 0.007002,4.5384e-4 0.001213,0.001919 -9.4366e-4,0.003286 -0.004795,0.003035 -0.004256,-2.7606e-4 -0.005122,-0.001647 -0.002206,-0.003491 z" id="path4158" inkscape:connector-curvature="0" />
    </pattern>
  </defs>
  <sodipodi:namedview pagecolor="#ffffff" bordercolor="#666666" borderopacity="1" objecttolerance="10" gridtolerance="10" guidetolerance="10" inkscape:pageopacity="0" inkscape:pageshadow="2" inkscape:window-width="1680" inkscape:window-height="988" id="namedview4" showgrid="false" inkscape:zoom="256" inkscape:cx="0.5" inkscape:cy="0.5" inkscape:window-x="-8" inkscape:window-y="-8" inkscape:window-maximized="1" inkscape:current-layer="svg2" />
  <path style="fill:#000000" d="m 0.65718571,0.71633844 c -0.002592,-0.0041 -0.092464,-0.0142661 -0.18035437,-0.0204005 -0.0429357,-0.002997 -0.0887592,-0.009433 -0.1040692,-0.0146185 -0.0302494,-0.0102442 -0.039504,-0.0194835 -0.0778492,-0.0777176 -0.0136602,-0.0207457 -0.0333866,-0.0500562 -0.0438364,-0.0651342 -0.0104496,-0.0150782 -0.0272194,-0.0392961 -0.0372651,-0.0538178 -0.0228788,-0.0330725 -0.0780712,-0.0760306 -0.1333367,-0.10378117 -0.05430383,-0.0272675 -0.05930886,-0.0305812 -0.05661286,-0.0374812 0.0030811,-0.007885 0.9357104,-0.007952 0.93879072,-6.749e-5 0.003003,0.007691 -0.007974,0.1097426 -0.0167296,0.15550927 -0.0101355,0.0529776 -0.0272926,0.0989175 -0.044789,0.11992866 -0.0363804,0.0436879 -0.0876487,0.0787195 -0.13302395,0.0908949 -0.0301411,0.008087 -0.10710505,0.0127266 -0.11092393,0.006686 z m 0.0802168,-0.0151598 c 0.0345692,-0.006141 0.0746259,-0.0239699 0.10564804,-0.0470229 0.008539,-0.006346 0.0155258,-0.0119008 0.0155258,-0.0123453 8e-8,-4.4263e-4 -0.0300007,-8.8302e-4 -0.0666684,-9.7524e-4 -0.0620201,-1.5332e-4 -0.11253674,-0.00825 -0.12720356,-0.0203881 -0.003923,-0.003247 -0.0181648,0.005194 -0.0450173,0.0266818 -0.0216029,0.0172872 -0.0419524,0.0314314 -0.045221,0.0314314 -0.004139,0 -0.004783,0.001835 -0.002118,0.006048 0.002103,0.003327 0.016816,0.007377 0.0326949,0.009001 0.0158789,0.001622 0.0411999,0.005049 0.0562687,0.007612 0.0398006,0.006771 0.0377144,0.006772 0.0760916,-4.589e-5 z M 0.5619654,0.67238709 c 0.0173498,-0.0120916 0.0447408,-0.0339947 0.0806669,-0.0645047 0.0252715,-0.0214614 0.0734745,-0.0777765 0.0734745,-0.0858389 0,-0.003691 -0.004062,-0.004888 -0.0100461,-0.002961 -0.0723905,0.023309 -0.18840438,0.0182949 -0.31325,-0.0135382 -0.02411,-0.006148 -0.0567028,-0.012765 -0.0724284,-0.014705 -0.0242967,-0.002997 -0.0477165,-0.0110956 -0.10109181,-0.0349547 -0.006533,-0.00292 -8.1433e-4,0.008443 0.020092,0.0399228 0.0160735,0.0242029 0.0300446,0.0440203 0.0310474,0.0440389 0.001004,1.738e-5 0.0125098,0.0171978 0.0255714,0.0381761 0.0538783,0.0865331 0.0602202,0.0910593 0.14064646,0.10037419 0.0739365,0.008563 0.10666006,0.006995 0.12531772,-0.006009 z M 0.87071605,0.6188827 c 0.0199302,-0.007275 0.0379399,-0.0304805 0.048336,-0.0622812 0.008979,-0.0274667 0.005501,-0.0321625 -0.0263837,-0.0356206 -0.015737,-0.001706 -0.0458734,-0.007573 -0.0669698,-0.0130368 -0.0633701,-0.0164112 -0.0769753,-0.012951 -0.0996318,0.0253378 -0.008729,0.0147521 -0.0253132,0.0370998 -0.0368532,0.0496614 l -0.020982,0.0228398 0.0226909,0.007322 c 0.01248,0.004026 0.0244846,0.008401 0.0266773,0.009722 0.00929,0.005593 0.13592467,0.002331 0.15311627,-0.003943 z M 0.6448721,0.51660672 c 0.0395542,-0.005835 0.0965006,-0.0205456 0.0998124,-0.0257841 0.002219,-0.003513 -0.00253,-0.005572 -0.039537,-0.0171418 -0.017078,-0.005339 -0.0423655,-0.014944 -0.0561944,-0.0213443 -0.0138288,-0.0064 -0.0286237,-0.010005 -0.0328775,-0.00801 -0.0424956,0.0199299 -0.068344,0.0262525 -0.15696341,0.0383946 -0.0278283,0.003813 -0.0483765,0.008772 -0.0456629,0.0110197 0.006561,0.005436 0.0622292,0.0163109 0.10539228,0.0205887 0.0190872,0.00189 0.0353891,0.004513 0.0362262,0.005828 0.00275,0.004312 0.0488646,0.002491 0.0898044,-0.00355 z m 0.29119853,-0.0258441 c 0.006016,-0.0336829 0.0180823,-0.13099632 0.0165449,-0.13342899 -8.5812e-4,-0.001356 -0.0901606,-0.001793 -0.1984513,-9.6916e-4 l -0.19689228,0.001496 0.029188,0.0293258 c 0.0336005,0.0337591 0.0794278,0.061326 0.1150349,0.0691978 0.009042,0.001997 0.0213705,0.005756 0.0273979,0.008349 0.006027,0.002594 0.0273979,0.009028 0.0474898,0.014301 0.0200919,0.005273 0.0505036,0.0133077 0.0675816,0.0178559 0.0394246,0.0104994 0.0527119,0.0126633 0.0728165,0.0118588 0.0147301,-5.8832e-4 0.0164742,-0.002216 0.0192902,-0.0179834 z M 0.44212725,0.46999315 c 0.0958122,-0.0138293 0.11303969,-0.017125 0.13790304,-0.0263802 0.0145664,-0.005423 0.0264847,-0.0113379 0.0264847,-0.013146 0,-0.001807 -0.007468,-0.009554 -0.0165958,-0.0172135 -0.009128,-0.007659 -0.023723,-0.0238503 -0.0324343,-0.0359791 L 0.54164629,0.35522155 0.30923278,0.3536495 c -0.12782725,-8.6316e-4 -0.23241296,6.135e-5 -0.23241257,0.002062 4e-7,0.001997 0.004523,0.006293 0.01004716,0.009545 0.0055253,0.003252 0.02319713,0.0137612 0.0392705,0.0233541 0.032947,0.0196631 0.0985664,0.0534811 0.13151004,0.0677753 0.057582,0.0249849 0.0893917,0.0273309 0.1844796,0.0136061 z M 0.26974859,0.27590192 c 0.002637,-0.00167 0.005788,-0.001465 0.007002,4.5384e-4 0.001214,0.001919 -9.4571e-4,0.003286 -0.004797,0.003035 -0.004256,-2.7606e-4 -0.005122,-0.001647 -0.002209,-0.003491 z m 0.61736706,0 c 0.002637,-0.00167 0.005788,-0.001465 0.007002,4.5384e-4 0.001213,0.001919 -9.4366e-4,0.003286 -0.004795,0.003035 -0.004256,-2.7606e-4 -0.005122,-0.001647 -0.002206,-0.003491 z" id="path4158" inkscape:connector-curvature="0" />
</svg>