<?xml version="1.0" encoding="UTF-8" standalone="no"?>
<svg
   xmlns:dc="http://purl.org/dc/elements/1.1/"
   xmlns:cc="http://creativecommons.org/ns#"
   xmlns:rdf="http://www.w3.org/1999/02/22-rdf-syntax-ns#"
   xmlns:svg="http://www.w3.org/2000/svg"
   xmlns="http://www.w3.org/2000/svg"
   xmlns:xlink="http://www.w3.org/1999/xlink"
   xmlns:sodipodi="http://sodipodi.sourceforge.net/DTD/sodipodi-0.dtd"
   xmlns:inkscape="http://www.inkscape.org/namespaces/inkscape"
   xlink:href=""
   version="1.1"
   height="300px"
   width="200px"
   viewBox="0 0 200 300"
   id="svg2"
   inkscape:version="0.91 r13725"
   sodipodi:docname="燧石条带灰岩.svg">
  <metadata
     id="metadata50">
    <rdf:RDF>
      <cc:Work
         rdf:about="">
        <dc:format>image/svg+xml</dc:format>
        <dc:type
           rdf:resource="http://purl.org/dc/dcmitype/StillImage" />
        <dc:title></dc:title>
      </cc:Work>
    </rdf:RDF>
  </metadata>
  <sodipodi:namedview
     pagecolor="#ffffff"
     bordercolor="#666666"
     borderopacity="1"
     objecttolerance="10"
     gridtolerance="10"
     guidetolerance="10"
     inkscape:pageopacity="0"
     inkscape:pageshadow="2"
     inkscape:window-width="1600"
     inkscape:window-height="838"
     id="namedview48"
     showgrid="false"
     inkscape:zoom="5.613128"
     inkscape:cx="-5.6586357"
     inkscape:cy="271.29743"
     inkscape:window-x="-8"
     inkscape:window-y="-8"
     inkscape:window-maximized="1"
     inkscape:current-layer="svg2" />
  <defs
     id="defs4">
    <pattern
       patternUnits="userSpaceOnUse"
       width="60.178154"
       height="20.390769"
       patternTransform="translate(-0.17815378,0)"
       id="燧石条带灰岩">
      <g
         id="g4196"
         transform="translate(0.17815378,0)">
        <path
           d="M 7.5,10 7.5,0"
           id="path28"
           inkscape:connector-curvature="0"
           style="fill:none;stroke:#000000;stroke-width:1" />
        <path
           d="m 37.5,10 0,-10"
           id="path32"
           inkscape:connector-curvature="0"
           style="fill:none;stroke:#000000;stroke-width:1" />
        <path
           d="m 22.5,20 0,-10"
           id="path38"
           inkscape:connector-curvature="0"
           style="fill:none;stroke:#000000;stroke-width:1" />
        <path
           d="m 52.5,20 0,-10"
           id="path42"
           inkscape:connector-curvature="0"
           style="fill:none;stroke:#000000;stroke-width:1" />
        <path
           d="m -0.17815378,10.287385 59.99999978,0"
           id="path44"
           inkscape:connector-curvature="0"
           style="fill:none;stroke:#000000;stroke-width:1" />
        <path
           d="m 0,19.890769 60,0"
           id="path46"
           inkscape:connector-curvature="0"
           style="fill:none;stroke:#000000;stroke-width:1" />
        <path
           style="opacity:0.9906977;fill:#000000;fill-opacity:1;stroke:#000000;stroke-width:0.80607271;stroke-miterlimit:4;stroke-dasharray:none;stroke-opacity:1"
           d="m 24.195123,3.0091855 a 5.0295154,1.8656226 0 0 0 -2.545292,0.258653 5.0295154,1.8656226 0 0 0 -1.929765,-0.143138 5.0295154,1.8656226 0 0 0 -5.030695,1.865818 5.0295154,1.8656226 0 0 0 5.030695,1.865817 5.0295154,1.8656226 0 0 0 2.545292,-0.258652 5.0295154,1.8656226 0 0 0 1.929765,0.143138 5.0295154,1.8656226 0 0 0 5.030695,-1.865818 5.0295154,1.8656226 0 0 0 -5.030695,-1.865818 z"
           id="path4143"
           inkscape:connector-curvature="0" />
        <path
           style="opacity:0.9906977;fill:#000000;fill-opacity:1;stroke:#000000;stroke-width:0.80607271;stroke-miterlimit:4;stroke-dasharray:none;stroke-opacity:1"
           d="M 54.08028,2.875603 A 5.0295154,1.8656226 0 0 0 51.534988,3.134256 5.0295154,1.8656226 0 0 0 49.605223,2.991118 5.0295154,1.8656226 0 0 0 44.574528,4.856936 5.0295154,1.8656226 0 0 0 49.605223,6.722753 5.0295154,1.8656226 0 0 0 52.150515,6.464101 5.0295154,1.8656226 0 0 0 54.08028,6.607239 5.0295154,1.8656226 0 0 0 59.110975,4.741421 5.0295154,1.8656226 0 0 0 54.08028,2.875603 Z"
           id="path4143-1"
           inkscape:connector-curvature="0" />
        <path
           style="opacity:0.9906977;fill:#000000;fill-opacity:1;stroke:#000000;stroke-width:0.80607271;stroke-miterlimit:4;stroke-dasharray:none;stroke-opacity:1"
           d="m 39.649824,13.030368 a 5.0295154,1.8656226 0 0 0 -2.545292,0.258653 5.0295154,1.8656226 0 0 0 -1.929765,-0.143138 5.0295154,1.8656226 0 0 0 -5.030695,1.865818 5.0295154,1.8656226 0 0 0 5.030695,1.865817 5.0295154,1.8656226 0 0 0 2.545292,-0.258652 5.0295154,1.8656226 0 0 0 1.929765,0.143138 5.0295154,1.8656226 0 0 0 5.030694,-1.865818 5.0295154,1.8656226 0 0 0 -5.030694,-1.865818 z"
           id="path4143-19"
           inkscape:connector-curvature="0" />
        <path
           style="opacity:0.9906977;fill:#000000;fill-opacity:1;stroke:#000000;stroke-width:0.80607271;stroke-miterlimit:4;stroke-dasharray:none;stroke-opacity:1"
           d="m 10.432603,13.56483 a 5.0295154,1.8656226 0 0 0 -2.5452924,0.258653 5.0295154,1.8656226 0 0 0 -1.929765,-0.143138 5.0295154,1.8656226 0 0 0 -5.03069497,1.865818 5.0295154,1.8656226 0 0 0 5.03069497,1.865817 5.0295154,1.8656226 0 0 0 2.545292,-0.258652 5.0295154,1.8656226 0 0 0 1.9297654,0.143138 5.0295154,1.8656226 0 0 0 5.030695,-1.865818 5.0295154,1.8656226 0 0 0 -5.030695,-1.865818 z"
           id="path4143-8"
           inkscape:connector-curvature="0" />
      </g>
    </pattern>
  </defs>
  <g
     transform="translate(0,0)"
     id="BaseLayer"
     inkscape:label="BaseLayer"
     inkscape:groupmode="layer"
     xml:space="preserve" />  <rect
     style="stroke:none;fill:url(#燧石条带灰岩)"
     width="60.178154"
     height="20.390769"
     x="-0.17815378"
     y="0"
     id="rect4221" />
</svg>
