<?xml version="1.0" encoding="utf-8" standalone="no"?>
<svg xmlns:dc="http://purl.org/dc/elements/1.1/" xmlns:cc="http://creativecommons.org/ns#" xmlns:rdf="http://www.w3.org/1999/02/22-rdf-syntax-ns#" xmlns:svg="http://www.w3.org/2000/svg" xmlns="http://www.w3.org/2000/svg" xmlns:sodipodi="http://sodipodi.sourceforge.net/DTD/sodipodi-0.dtd" xmlns:inkscape="http://www.inkscape.org/namespaces/inkscape" height="1" version="1.1" width="1" id="svg2" inkscape:version="0.91 r13725" sodipodi:docname="MonoclinalFlexure.svg">
  <metadata id="metadata8">
    <rdf:RDF>
      <cc:Work rdf:about="">
        <dc:format>image/svg+xml</dc:format>
        <dc:type rdf:resource="http://purl.org/dc/dcmitype/StillImage" />
        <dc:title></dc:title>
      </cc:Work>
    </rdf:RDF>
  </metadata>
  <defs id="defs6">
    <pattern width="1" height="1" id="MonoclinalFlexure" patternContentUnits="objectBoundingBox">
      <path style="fill:#000000" d="m 0.42992277,0.81809417 c 0,-0.002314 0.003748,-0.004207 0.008327,-0.004207 0.00458,0 0.008327,8.0153e-4 0.008327,0.00178 0,9.7891e-4 -0.003748,0.002872 -0.008327,0.004207 -0.00458,0.001335 -0.008327,5.3443e-4 -0.008327,-0.001779 z m 0.0277081,-7.2651e-4 c 0.001062,-0.001915 0.004519,-0.003482 0.007684,-0.003482 0.003166,0 0.006623,0.001567 0.007684,0.003482 0.001062,0.001914 -0.002396,0.003482 -0.007684,0.003482 -0.005287,0 -0.008746,-0.001567 -0.007684,-0.003482 z M 0.24386038,0.80112166 0.05987973,0.79986266 0.05665903,0.78946606 C 0.05166763,0.77336336 0.0545684,0.59095029 0.06085302,0.5256137 l 0.0056265,-0.0584862 0.08283251,-0.10790994 0.0828325,-0.1079098 0.0541293,0.003052 c 0.0694641,0.003917 0.15545156,0.0144946 0.18737034,0.0230498 0.0370135,0.009921 0.0514631,0.0180214 0.0791119,0.0443482 0.0384968,0.0366564 0.0579618,0.0493935 0.0841687,0.0550782 0.069731,0.0151259 0.14430825,0.0244307 0.217049,0.027081 0.0641837,0.002338 0.0810005,0.004281 0.0828194,0.009565 0.002332,0.006777 -0.00581,0.18131059 -0.0107341,0.23012811 l -0.00273,0.0270163 -0.0687024,0.0668296 -0.0687024,0.0668297 L 0.60688141,0.8033325 C 0.50840921,0.80280691 0.34504865,0.8018135 0.24385933,0.8011205 Z m 0.0320024,-0.011872 c 0,-0.0103714 -0.0163072,-0.1056017 -0.0188769,-0.11023741 -0.003748,-0.006764 -0.092385,-0.005597 -0.0961894,0.001266 -0.001725,0.003111 -0.003939,0.0291107 -0.004925,0.0577777 l -0.001789,0.0521217 0.0244573,0.001692 c 0.0633726,0.004385 0.0973234,0.00347 0.0973234,-0.00262 z m 0.0999308,0.001256 c 0,-0.002646 -0.004028,-0.0227188 -0.008953,-0.0446072 l -0.008953,-0.0397971 -0.0268273,-0.0134194 c -0.017487,-0.008747 -0.0337483,-0.0134192 -0.0467053,-0.0134192 l -0.0198778,0 0.008037,0.052224 c 0.004421,0.0287231 0.008797,0.054835 0.009726,0.0580266 0.002158,0.007414 0.0935535,0.008385 0.0935535,9.9264e-4 z m 0.0572496,-9.9264e-4 c -0.001066,-0.003192 -0.004402,-0.0166551 -0.007419,-0.0299193 -0.005306,-0.0233264 -0.006289,-0.0245055 -0.0300139,-0.0359766 -0.0134906,-0.006523 -0.0260871,-0.0118598 -0.0279923,-0.0118598 -0.002812,0 0.007343,0.0546195 0.0144584,0.0777556 0.001164,0.003796 0.0106238,0.005803 0.0273435,0.005803 0.0187026,0 0.0250402,-0.001555 0.0236245,-0.005803 z m 0.0343537,-5.8095e-4 c 0,-0.024233 -0.005562,-0.0350118 -0.021806,-0.0422582 -0.009189,-0.004099 -0.0172822,-0.006812 -0.017985,-0.006029 -7.0106e-4,7.8245e-4 0.001713,0.0134046 0.005369,0.028047 0.006391,0.0255997 0.00718,0.0266225 0.0205343,0.0266225 0.009008,0 0.0138882,-0.002243 0.0138882,-0.006383 z m 0.0374741,0.00212 c 0,-0.0113734 -0.006489,-0.0199067 -0.0198813,-0.0261454 -0.008089,-0.003768 -0.0153061,-0.006184 -0.0160373,-0.005369 -7.308e-4,8.1535e-4 5.8209e-4,0.009199 0.002919,0.0186294 0.003849,0.0155433 0.005591,0.0171469 0.0186244,0.0171469 0.007907,0 0.0143773,-0.001918 0.0143773,-0.004262 z m 0.020819,-0.002204 c 0,-0.006522 -0.0119741,-0.0142261 -0.0156834,-0.0100905 -0.001101,0.001228 -8.9212e-4,0.005453 4.6737e-4,0.009394 0.003072,0.008925 0.0152185,0.009481 0.0152185,6.9625e-4 z m 0.015697,-0.001657 c 2.3547e-4,-0.004468 -0.002387,-0.0232688 -0.005836,-0.0417792 -0.004961,-0.0266509 -0.007817,-0.0336554 -0.0137221,-0.0336554 -0.007096,0 -0.007059,0.001628 7.6904e-4,0.0336554 0.004524,0.0185105 0.009776,0.0343127 0.0116708,0.035116 0.001895,8.0286e-4 0.002414,0.004459 0.001152,0.008124 -0.001262,0.003665 -5.3111e-4,0.006664 0.001623,0.006664 0.002154,0 0.004109,-0.003656 0.004345,-0.008124 z m 0.0287002,-0.0301731 c -0.008719,-0.0370802 -0.009422,-0.0383427 -0.0221183,-0.0397174 l -0.0131137,-0.00142 0.008369,0.0371547 c 0.008281,0.0367652 0.0107509,0.0403264 0.0289445,0.0417416 0.006272,4.8787e-4 0.006075,-0.003065 -0.002082,-0.0377591 z m 0.0370071,0.0302723 c -0.001517,-0.004414 -0.008613,-0.0293355 -0.0157633,-0.0553812 -0.0101003,-0.0367911 -0.0148841,-0.0479051 -0.0214431,-0.0498171 -0.004643,-0.001354 -0.009125,-0.0017 -0.00996,-7.6995e-4 -8.3243e-4,9.2915e-4 0.004236,0.0262221 0.0112684,0.0562034 0.007032,0.0299813 0.0127861,0.0552493 0.0127861,0.0561507 0,9.0169e-4 0.005821,0.001639 0.0129369,0.001639 0.0105495,0 0.012427,-0.001481 0.0101748,-0.008025 z m 0.0422494,0.001776 c -0.001181,-0.003437 -0.007959,-0.0272338 -0.0150583,-0.0528816 l -0.0129076,-0.0466325 -0.0155746,-0.002177 c -0.008566,-0.001198 -0.0167804,-0.001437 -0.018254,-5.3442e-4 -0.001475,9.0256e-4 0.001831,0.0178461 0.007347,0.0376504 0.005514,0.0198044 0.0119448,0.0438417 0.0142902,0.0534162 0.004134,0.0168818 0.004839,0.0174079 0.0232863,0.0174079 0.0142319,0 0.0184804,-0.001574 0.016871,-0.006249 z m 0.0637368,-0.006516 c 2.236e-5,-0.0147512 -0.0197819,-0.0794948 -0.0270504,-0.0884301 -0.003319,-0.004079 -0.0136949,-0.005582 -0.0320461,-0.004642 l -0.0271392,0.00139 0.0146479,0.052224 0.0146479,0.052224 0.0284601,0 c 0.0282664,0 0.0284601,-9.397e-5 0.0284801,-0.0127658 z m 0.0682536,-0.004642 c 0.003943,-0.0287713 0.004552,-0.0727249 0.001097,-0.0789162 -0.00204,-0.00365 -0.01301,-0.005802 -0.0295729,-0.005802 -0.0308768,0 -0.03132,7.6468e-4 -0.0314114,0.0541652 -8.14e-5,0.0474167 2.7134e-4,0.0479615 0.0312512,0.0479615 l 0.0262533,0 z M 0.15094941,0.73999093 c 0,-0.0278761 0.001139,-0.0539881 0.002528,-0.0580266 0.002214,-0.006436 -0.003442,-0.007343 -0.0458016,-0.007343 l -0.04832902,0 3.726e-5,0.0336554 c 2.235e-5,0.0185105 0.0012192,0.0446224 0.0026644,0.0580266 l 0.0026254,0.0243711 0.04313977,0 0.0431398,0 0,-0.0506837 z M 0.8322465,0.72826724 c -0.001249,-0.0103565 -0.003493,-0.0308173 -0.00499,-0.0454685 l -0.002723,-0.0266384 -0.0163802,0.0151694 -0.0163802,0.0151693 -0.001415,0.0519975 -0.001415,0.0519975 0.0227811,-0.0216982 c 0.0219904,-0.0209452 0.0227021,-0.0223517 0.0205135,-0.0405283 z m -0.31078916,0.0333939 c -0.001959,-0.008298 -0.005607,-0.0238776 -0.008106,-0.0346217 -0.003535,-0.0151986 -0.006057,-0.0188876 -0.0113594,-0.0166192 -0.004559,0.001951 -0.005819,0.001118 -0.003802,-0.002515 0.001657,-0.002987 0.001028,-0.005431 -0.001398,-0.005431 -0.005825,0 -0.005511,0.006577 0.001776,0.0371108 0.005413,0.0226799 0.0145409,0.0371633 0.0234201,0.0371633 0.00167,0 0.001432,-0.006789 -5.311e-4,-0.015087 z m -0.0249136,-0.00388 c 0,-0.002772 -0.003161,-0.0182594 -0.007021,-0.0344158 -0.006456,-0.0270104 -0.008048,-0.0295499 -0.019778,-0.0315462 -0.0148646,-0.00253 -0.0168816,-0.001428 -0.0123493,0.006749 0.001827,0.003298 0.003544,0.0102254 0.003811,0.0153958 0.00178,0.0342602 0.002022,0.0349039 0.0155584,0.0415035 0.0169661,0.008272 0.019778,0.008601 0.019778,0.002315 z m 0.22068066,-0.0344172 0,-0.0301738 -0.0120914,0 -0.0120914,0 0.008094,0.0243711 c 0.004452,0.0134043 0.008897,0.0269824 0.009879,0.030174 0.003982,0.0129439 0.00621,0.004196 0.00621,-0.0243712 z m -0.26102497,0.005803 c -0.006671,-0.0378119 -0.006926,-0.0382025 -0.0258747,-0.0397448 -0.0155155,-0.001264 -0.0174951,-3.7417e-4 -0.0155351,0.006963 0.001237,0.004626 0.003442,0.0140071 0.004904,0.0208474 0.00184,0.008609 0.007347,0.0146078 0.0178941,0.0194898 0.0210255,0.009732 0.0216199,0.009491 0.0186121,-0.007556 z m 0.41819232,-0.0210489 0.0301721,-0.031175 0.002578,-0.0580266 0.002578,-0.0580266 -0.0403467,0.0441001 -0.0403463,0.0441003 0.002609,0.0278527 c 0.004049,0.0432146 0.00716,0.0626832 0.009986,0.0625095 0.001423,-9.358e-5 0.0161682,-0.0141882 0.0327626,-0.0313345 z m -0.45931727,0.007123 c -0.008316,-0.0297618 -0.007555,-0.0291201 -0.0325314,-0.0274231 -0.0128724,8.751e-4 -0.0234044,0.003615 -0.0234044,0.006089 0,0.004086 0.047385,0.0310612 0.0554508,0.031566 0.001873,1.0918e-4 0.002091,-0.004487 4.8437e-4,-0.0102318 z M 0.55686883,0.7013149 c -0.001479,-0.005745 -0.003544,-0.013875 -0.004582,-0.0180673 -0.002044,-0.008241 -0.018392,-0.0150652 -0.0230815,-0.009633 -0.005538,0.006415 0.001764,0.0296206 0.0105673,0.0335856 0.0155194,0.006989 0.0200164,0.005441 0.0170965,-0.005885 z M 0.34125986,0.6377973 0.32791036,0.5804483 0.28939526,0.5793723 c -0.0437573,-0.001223 -0.0414217,-0.004101 -0.0342402,0.0421751 0.007891,0.0508485 0.005751,0.0474228 0.0318937,0.0510644 0.0130177,0.001814 0.0331581,0.007999 0.0447564,0.0137477 0.0115986,0.005747 0.0214746,0.0100765 0.0219467,0.009619 4.7162e-4,-4.5775e-4 -0.005149,-0.0266384 -0.0124913,-0.0581803 z m 0.16361149,0.0547719 c 0,-0.0151529 -0.0102843,-0.0406448 -0.0172122,-0.0426647 -0.004295,-0.001253 -0.00777,1.562e-4 -0.00777,0.003133 0,0.0116644 0.008457,0.0373786 0.0134561,0.0409165 0.007424,0.005254 0.0115263,0.004762 0.0115263,-0.001386 z m 0.0159396,-0.0161807 c -8.7541e-4,-0.0085 -0.004142,-0.0138793 -0.009069,-0.0149214 -0.006699,-0.001419 -0.007313,3.8947e-4 -0.004715,0.0138866 0.001644,0.008534 0.003913,0.0172651 0.005049,0.0194026 0.004002,0.007541 0.0100834,-0.005247 0.008734,-0.0183679 z M 0.47580808,0.6610403 c -0.002592,-0.0107304 -0.007099,-0.0189137 -0.0104169,-0.0189137 -0.008832,0 -0.0178771,0.01729 -0.015697,0.0300058 0.001483,0.008654 0.004959,0.0115865 0.0150214,0.0126764 0.0160339,0.001736 0.0168369,1.36e-5 0.0110925,-0.0237687 z M 0.7807291,0.64240554 c -6.7982e-4,-0.0289221 -0.002804,-0.0450758 -0.006246,-0.0475109 -0.002868,-0.002029 -0.0138508,-0.003722 -0.0244097,-0.00376 l -0.019198,-7.8e-5 -0.002626,0.024371 c -0.001444,0.0134042 -0.002643,0.0354337 -0.002664,0.0489544 l -3.722e-5,0.0245833 0.0281053,-0.001373 0.0281058,-0.001373 -0.001032,-0.0438215 z M 0.4033225,0.67797264 C 0.40410004,0.6771044 0.4007645,0.66009424 0.3959085,0.64017324 0.3878195,0.60699554 0.3858854,0.60339784 0.3728869,0.59734274 0.3650819,0.59370674 0.3532516,0.58951874 0.3465966,0.58803474 l -0.0120999,-0.002699 0.0103196,0.043482 c 0.005676,0.0239151 0.0112599,0.0463789 0.0124092,0.0499196 0.001581,0.004871 0.00727,0.005753 0.0233853,0.003626 0.0117124,-0.001547 0.0219331,-0.003523 0.0227122,-0.004391 z m 0.0390687,-0.006833 c -1.491e-5,-0.007021 -0.002005,-0.0207314 -0.004433,-0.030467 -0.003697,-0.0148438 -0.007486,-0.0191715 -0.0234669,-0.0268091 -0.010482,-0.00501 -0.0195643,-0.008533 -0.0201829,-0.00783 -6.2033e-4,7.0282e-4 0.002728,0.017357 0.007439,0.0370103 0.008971,0.0374319 0.008165,0.0365187 0.0354614,0.0401665 0.003059,4.0853e-4 0.005195,-0.004569 0.005182,-0.0120703 z m 0.24056609,0.006963 c -0.001015,-0.003192 -0.007306,-0.0232698 -0.0139779,-0.0446186 -0.0132386,-0.0423637 -0.0146254,-0.0437104 -0.0502801,-0.0488306 -0.0201519,-0.002894 -0.0213573,-0.0025 -0.0192924,0.006303 0.001211,0.005165 0.003969,0.00939 0.006126,0.00939 0.002158,0 0.002881,0.001881 0.001606,0.004183 -0.001869,0.003371 0.00579,0.0375252 0.0164979,0.0735721 0.001164,0.003921 0.0113632,0.005803 0.0314463,0.005803 0.0219878,0 0.0292419,-0.001511 0.0278751,-0.005803 z m 0.038431,-0.0406185 0,-0.0464213 -0.0291463,0 c -0.0160305,0 -0.0291463,0.001948 -0.0291463,0.004326 0,0.004677 0.0237562,0.077907 0.027414,0.0845054 0.001224,0.002207 0.008671,0.004012 0.0165515,0.004012 l 0.0143276,0 z M 0.56079382,0.61971808 c -0.0115403,-0.0415987 -0.0174373,-0.0563437 -0.023206,-0.0580255 -0.004254,-0.001239 -0.007734,-0.00144 -0.007734,-4.467e-4 0,9.9693e-4 0.005621,0.0248573 0.0124913,0.0530273 0.00687,0.0281701 0.0124912,0.0522952 0.0124912,0.0536114 0,0.00283 0.0181256,0.0109076 0.0200831,0.00895 7.3931e-4,-7.3968e-4 -0.005617,-0.0264432 -0.0141258,-0.0571172 z m 0.0564997,0.0577137 c 0,-0.001009 -0.004096,-0.0161527 -0.009105,-0.0336554 -0.005007,-0.017503 -0.009329,-0.0328679 -0.009604,-0.0341444 -2.7583e-4,-0.001277 -0.001899,-0.008872 -0.003611,-0.0168783 -0.002294,-0.0107251 -0.006069,-0.0152781 -0.0143382,-0.017296 -0.006173,-0.001506 -0.0152997,-0.004037 -0.0202815,-0.005623 l -0.009058,-0.002884 0.008101,0.0294641 c 0.0125303,0.0455747 0.0111465,0.0430201 0.0194326,0.0358697 0.006772,-0.005843 0.006803,-0.005654 4.9287e-4,0.002959 -0.003709,0.005062 -0.005782,0.0123375 -0.004607,0.0161675 0.008464,0.0275856 0.008711,0.0278527 0.0258203,0.0278527 0.009217,0 0.0167584,-8.2457e-4 0.0167584,-0.001832 z m 0.19039123,-0.0132548 0.012982,-0.0150869 -0.00232,-0.0491193 -0.00232,-0.0491192 -0.015052,0.0189452 -0.015052,0.0189455 0.001326,0.0452608 c 7.308e-4,0.0248933 0.002703,0.0452607 0.004387,0.0452607 0.001682,0 0.008903,-0.006789 0.0160433,-0.0150869 z m -0.65106634,-0.023211 c -0.001028,-0.0159573 -0.002838,-0.0378915 -0.004024,-0.0487424 l -0.002154,-0.019729 -0.0434646,0 -0.04346463,0 0,0.0487424 0,0.0487424 0.04748871,0 0.0474887,0 z m 0.0942331,-0.0152613 c -0.003973,-0.0243511 -0.007934,-0.0449512 -0.008802,-0.045778 -8.6665e-4,-8.2524e-4 -0.0208873,-0.002757 -0.0444872,-0.00429 -0.0391762,-0.002544 -0.0427359,-0.002094 -0.0409233,0.00516 0.001092,0.004369 0.003237,0.0262236 0.004767,0.0485637 l 0.002783,0.0406187 0.0469437,0 0.0469437,0 z m 0.28480128,-0.0163804 c -0.0107143,-0.0459357 -0.0128455,-0.0509682 -0.0233088,-0.0550346 -0.0112259,-0.004363 -0.011463,-0.004102 -0.009402,0.0103524 0.00116,0.008156 0.006288,0.0325249 0.0113899,0.0541548 0.007513,0.0318504 0.0112552,0.0404277 0.0196858,0.0451179 0.007041,0.003917 0.0108979,0.004202 0.0119189,8.8025e-4 8.2846e-4,-0.002702 -0.003798,-0.0276627 -0.0102835,-0.0554703 z m 0.38714441,-0.0100457 c 0.002515,-0.0436395 0.002077,-0.0494732 -0.003502,-0.0470851 -0.005284,0.00226 -0.006311,0.0127621 -0.006016,0.0614165 4.1104e-4,0.0674631 0.005229,0.0602149 0.009517,-0.0143313 z M 0.514767,0.65048483 c -0.0017,-0.003063 -0.003348,-0.009852 -0.003662,-0.0150869 -0.001364,-0.0224825 -0.0119452,-0.062383 -0.0158329,-0.0597045 -0.002392,0.001651 -0.002881,5.4205e-4 -0.001143,-0.002595 0.007061,-0.012736 -0.008633,-0.0455377 -0.0172109,-0.0359744 -0.003323,0.003703 0.0238722,0.1114726 0.0290533,0.11514153 0.007703,0.005454 0.0122936,0.004525 0.008798,-0.001781 z m -0.060698,-0.009319 c 6.8407e-4,-0.003935 -0.001657,-0.008397 -0.005205,-0.009914 -0.004786,-0.002048 -0.00645,2.9682e-4 -0.00645,0.009087 0,0.0127654 0.00946,0.0134369 0.0116551,8.2786e-4 z m 0.0340262,-0.003863 c -0.003662,-0.002582 -0.004147,-0.004347 -0.001211,-0.004389 0.003624,-4.681e-5 0.003815,-0.004029 7.308e-4,-0.015158 -0.002298,-0.008298 -0.00695,-0.0297098 -0.0103319,-0.0475819 -0.003985,-0.0210672 -0.00921,-0.0353926 -0.0148532,-0.0407347 -0.004787,-0.004532 -0.009452,-0.007406 -0.0103655,-0.006387 -0.001729,0.001931 0.0153167,0.082616 0.0182658,0.0864458 9.2634e-4,0.001201 0.003429,-8.8797e-4 0.005557,-0.004642 0.002367,-0.00417 0.003896,-0.004676 0.003939,-0.001299 2.982e-5,0.003041 -0.00181,0.00682 -0.0041,0.008398 -0.00229,0.001579 -0.004164,0.005879 -0.004164,0.009558 0,0.008267 0.0163598,0.0271345 0.0200045,0.0230712 0.001462,-0.001628 -1.0171e-4,-0.004904 -0.003471,-0.007279 z m 0.38307634,-0.0417232 0.0375868,-0.0419047 0,-0.0390305 c 0,-0.0214667 -0.001926,-0.044689 -0.004289,-0.051605 l -0.004289,-0.0125745 -0.0370033,0.0436069 c -0.0366107,0.0431443 -0.0370339,0.0439139 -0.0399112,0.0725666 -0.003166,0.0315106 4.5888e-4,0.0708459 0.006522,0.0708459 0.002086,0 0.0207102,-0.018857 0.0413825,-0.0419046 z m -0.40388198,0.0314598 c -6.105e-5,-0.003191 -0.005304,-0.0286704 -0.0116567,-0.0566196 -0.0109314,-0.0480989 -0.0122622,-0.0511412 -0.0248754,-0.0568793 -0.0163844,-0.007454 -0.0163823,-0.007478 -0.004769,0.0481427 0.0120247,0.0575886 0.0116329,0.0565438 0.0239976,0.0640287 0.013915,0.008423 0.0174391,0.008694 0.017303,0.001326 z m -0.047551,-0.0701369 c -0.007512,-0.0360136 -0.0132446,-0.0541631 -0.0177122,-0.0560745 -0.007853,-0.00336 -0.006488,-0.004856 -0.0172125,0.0188627 -0.008533,0.0188709 -0.00855,0.0195794 -0.001181,0.0487424 0.007152,0.0283019 0.00828,0.0299266 0.0258429,0.0372328 0.0101008,0.004202 0.0190404,0.00693 0.0198668,0.006062 8.2845e-4,-8.691e-4 -0.003497,-0.0255392 -0.009605,-0.0548257 z M 0.373203,0.54899782 C 0.367297,0.52490032 0.3611226,0.49996132 0.3594809,0.49357842 c -0.001704,-0.006622 -0.006598,-0.0122 -0.0114005,-0.0129906 -0.007124,-0.001174 -0.009544,0.003263 -0.01577,0.0289062 -0.005412,0.0222899 -0.006376,0.0349177 -0.00365,0.0478063 0.003408,0.0161183 0.005685,0.0183072 0.0285417,0.0274453 0.0136609,0.005462 0.0252658,0.009511 0.0257884,0.008998 5.2261e-4,-5.1459e-4 -0.003879,-0.0206483 -0.009787,-0.0447461 z m 0.35590494,0.0135641 c -0.005392,-0.001688 -0.0184863,-0.003276 -0.0291009,-0.00353 -0.0161435,-3.8679e-4 -0.0203941,0.001403 -0.0259953,0.0109313 l -0.006696,0.011394 0.0280773,0.00137 c 0.0236403,0.001155 0.0292976,-9.357e-5 0.0357975,-0.007863 0.007549,-0.00903 0.007504,-0.009303 -0.002082,-0.012303 z m 0.066297,8.0351e-4 0.0178061,-0.0230516 -0.0168472,-0.009582 c -0.014625,-0.008318 -0.0171696,-0.008645 -0.0192923,-0.002479 -0.001347,0.003907 -0.00488,0.007104 -0.007855,0.007104 -0.004664,0 -0.0353374,0.042318 -0.0353374,0.048753 0,0.001272 0.009837,0.00231 0.0218599,0.00231 0.0210446,-2.18e-6 0.022524,-8.6309e-4 0.0396661,-0.0230538 z M 0.68129427,0.55209013 c 0.0184676,-0.0234517 0.0219951,-0.0302823 0.0167877,-0.03251 -0.003624,-0.001552 -0.008297,-0.001645 -0.0103804,-2.1095e-4 -0.002082,0.001435 -0.00379,6.317e-4 -0.00379,-0.00179 0,-0.007238 -0.0290248,-0.0113242 -0.0358137,-0.005043 -0.003319,0.003072 -0.0154837,0.0177434 -0.0270308,0.032604 l -0.0209953,0.0270193 0.0113198,0.003168 c 0.006379,0.001787 0.0146127,8.7681e-4 0.0188649,-0.002087 0.006138,-0.004273 0.007103,-0.003968 0.005172,0.001642 -0.001771,0.00515 7.7329e-4,0.006895 0.0100549,0.006895 0.0100626,0 0.0168786,-0.005651 0.0358085,-0.0296897 z m -0.0265269,-0.00167 c 0,-0.002554 0.002808,-0.007243 0.006246,-0.0104213 0.003484,-0.003224 0.006246,-0.003726 0.006246,-0.001136 0,0.002554 -0.002808,0.007243 -0.006246,0.010421 -0.003484,0.003223 -0.006246,0.003726 -0.006246,0.001136 z m -0.33055778,0.0207836 c 8.8416e-4,-9.8578e-4 -0.0192486,-0.09664 -0.0208691,-0.099157 -2.2872e-4,-3.513e-4 -0.0158708,-0.002137 -0.0347641,-0.003965 -0.0404156,-0.003911 -0.0385316,-0.008094 -0.0274651,0.0609799 l 0.006886,0.0429815 0.0191377,0.001936 c 0.0178818,0.001809 0.0545629,1.563e-5 0.0570748,-0.002775 z M 0.24093824,0.5597283 c -0.001253,-0.007021 -0.004309,-0.026344 -0.006792,-0.0429398 -0.007435,-0.0496711 -0.004506,-0.0464212 -0.0418389,-0.0464212 l -0.0330298,0 -3.722e-5,0.0243712 c -2.235e-5,0.013404 -0.001206,0.0352409 -0.002638,0.0485264 l -0.002605,0.0241554 0.0307443,0.001615 c 0.0169096,8.8797e-4 0.0369829,0.002029 0.0446077,0.002538 0.013035,8.6909e-4 0.0137272,1.6032e-4 0.011587,-0.0118435 z M 0.61513873,0.5398681 c -0.001007,-0.001816 -0.007546,-0.005942 -0.0145311,-0.009167 -0.0121823,-0.005626 -0.0132722,-0.005129 -0.0266981,0.0121614 l -0.013997,0.0180267 0.0151582,0.005076 c 0.0140803,0.004715 0.0161091,0.004086 0.0285285,-0.008859 0.007353,-0.007665 0.0125465,-0.0154211 0.0115399,-0.0172373 z m -0.46415327,0.003613 c 2.239e-5,-0.013404 0.001219,-0.0353381 0.002664,-0.0487422 l 0.002625,-0.0243712 -0.0292058,0 c -0.0160632,0 -0.03493451,0.001277 -0.04193625,0.002839 -0.01231235,0.002745 -0.01281586,0.00385 -0.0153473,0.0336554 -0.0014404,0.0169491 -0.0035605,0.0364272 -0.0047176,0.0432844 -0.0019458,0.0115372 -9.1361e-4,0.0126048 0.01378581,0.0143064 0.0087373,0.00101 0.02853362,0.002189 0.04399186,0.00262 l 0.0281053,7.818e-4 3.722e-5,-0.0243712 z m 0.4389193,-0.0290135 c 0.0347319,-0.0421034 0.0358413,-0.0441001 0.0245053,-0.0441001 -0.0162447,0 -0.0860956,0.0766329 -0.0762285,0.0836295 0.003433,0.002434 0.008293,0.00446 0.0107951,0.0045 0.002503,3.124e-5 0.0209197,-0.0197739 0.0409284,-0.0440292 z m 0.17613826,0.0162476 c 0.002473,0 0.008319,-0.006738 0.0129964,-0.0149734 0.010476,-0.0184469 0.006788,-0.0219944 -0.0229676,-0.0220924 -0.021181,-6.239e-5 -0.0219008,3.9748e-4 -0.0447464,0.0289423 l -0.0232192,0.0290133 0.0260094,0.002456 c 0.0244263,0.002306 0.0266616,0.001672 0.036722,-0.0104449 0.005892,-0.007095 0.0127342,-0.0129008 0.0152054,-0.0129008 z m -0.2289058,0.00586 c 0.005545,-0.009358 0.005437,-0.0106955 -0.001096,-0.0134903 -0.004895,-0.002094 -0.009877,5.2831e-4 -0.0153264,0.008066 l -0.008074,0.0111694 0.004917,-0.0116053 0.004917,-0.0116053 -0.009842,0.0105976 c -0.0084,0.009045 -0.008927,0.0112589 -0.003595,0.0151137 0.009434,0.006821 0.0212234,0.003361 0.0281024,-0.008247 z M 0.92687921,0.5202708 c 0.001448,-0.0134042 0.002642,-0.0420874 0.002666,-0.06374 l 3.724e-5,-0.0393687 -0.0126814,0.0141383 c -0.0112076,0.012495 -0.0121753,0.0156221 -0.008328,0.0269052 0.002395,0.007021 0.004353,0.0293425 0.004353,0.0496018 0,0.0279715 0.001361,0.0368347 0.005666,0.0368347 0.003724,0 0.006566,-0.008345 0.008291,-0.024371 z m -0.42028295,0.006242 c 0.006895,-0.008494 0.006667,-0.00897 -0.005771,-0.0120157 -0.0172091,-0.004214 -0.0287992,0.005106 -0.0178605,0.0143609 0.0100609,0.008513 0.0152343,0.007999 0.0236313,-0.002345 z M 0.64997829,0.5007102 c 0.0253139,-0.0319334 0.0255114,-0.032397 0.0162481,-0.038133 -0.005158,-0.003193 -0.0117354,-0.00588 -0.0146178,-0.005971 -0.002881,-9.36e-5 -0.0172478,0.0139361 -0.0319237,0.0311698 l -0.0266829,0.0313343 0.0131868,0.007918 c 0.007252,0.004355 0.0143068,0.007488 0.0156753,0.006963 0.001368,-5.2564e-4 0.0140204,-0.0155014 0.0281143,-0.0332809 z m 0.20641266,-0.009458 0.036383,-0.044105 -0.0194173,-0.009279 c -0.0106792,-0.005103 -0.0208551,-0.009279 -0.0226116,-0.009279 -0.003399,0 -0.0368682,0.0421459 -0.0558072,0.0702742 l -0.0113721,0.0168898 0.0136719,0.009418 c 0.00752,0.00518 0.0157191,0.009591 0.0182212,0.009802 0.002503,2.1094e-4 0.0209218,-0.0194627 0.0409322,-0.0437204 z M 0.38223954,0.5117154 c 0.00763,-0.0164477 0.007666,-0.0163416 -0.007144,-0.020486 l -0.0110912,-0.003103 0.00432,0.0189736 c 0.002375,0.0104354 0.00498,0.0189736 0.005788,0.0189736 8.0696e-4,0 0.004465,-0.006461 0.008128,-0.0143579 z m -0.052628,-0.011412 c 0.005581,-0.0247122 0.003709,-0.0299357 -0.0107263,-0.0299357 -0.00937,0 -0.0102945,0.001424 -0.00788,0.0121469 0.001504,0.006681 0.003815,0.0181702 0.005135,0.0255317 0.003437,0.0191652 0.007984,0.0165526 0.013471,-0.007743 z m 0.14998727,0.009866 c 0.009422,-0.011181 0.008801,-0.0212333 -0.001313,-0.0212333 -0.002902,0 -0.009768,0.005332 -0.0152594,0.0118499 -0.00842,0.009992 -0.009023,0.0125282 -0.003849,0.0161762 0.008711,0.006141 0.009837,0.005767 0.02042,-0.006793 z m 0.0914876,-0.0138121 c 0.0218481,-0.0246646 0.0220588,-0.0251651 0.0128889,-0.0306363 -0.008487,-0.005064 -0.0115289,-0.003129 -0.0339463,0.0215924 -0.0256155,0.0282475 -0.0256925,0.0290124 -0.003377,0.0336548 0.001224,2.5278e-4 0.0122193,-0.0108205 0.0244352,-0.0246112 z M 0.77120696,0.4370249 C 0.77139029,0.4330179 0.76186996,0.4299159 0.73776626,0.426132 L 0.71875216,0.423149 0.68884146,0.4601398 c -0.0164507,0.0203449 -0.0299107,0.0381861 -0.0299107,0.0396471 0,0.001459 0.007026,0.003933 0.0156141,0.005493 0.008588,0.001561 0.0193616,0.004651 0.0239419,0.00687 0.007005,0.003392 0.0134285,-0.002002 0.0404504,-0.0339608 0.0176676,-0.0208965 0.0321889,-0.0394194 0.0322692,-0.0411622 z m -0.0581466,0.0501586 c 0,-9.669e-4 0.00328,-0.00462 0.007287,-0.008124 0.006604,-0.005774 0.006752,-0.00561 0.001572,0.001754 -0.005439,0.007733 -0.008858,0.010192 -0.008858,0.006372 z M 0.74428866,0.451799 c 0.004147,-0.005106 0.008473,-0.009284 0.009618,-0.009284 0.001147,0 -0.001308,0.004178 -0.005455,0.009284 -0.004147,0.005106 -0.008473,0.009284 -0.009618,0.009284 -0.001147,0 0.001308,-0.004177 0.005455,-0.009284 z m -0.29837024,0.0412245 -0.009635,-0.008102 0.024925,-0.0256359 c 0.0318044,-0.032711 0.0241114,-0.0341541 -0.008716,-0.001634 -0.0369545,0.0366069 -0.0451982,0.041052 -0.0132008,0.007118 0.0154578,-0.0163936 0.0281053,-0.0312404 0.0281053,-0.0329931 0,-0.001754 -0.004491,-0.003185 -0.009981,-0.003185 -0.00712,0 -0.0173868,0.009313 -0.0358208,0.0324949 -0.0151582,0.0190618 -0.0232693,0.032495 -0.0196208,0.032495 0.00342,0 0.014334,0.004049 0.0242508,0.009 0.0136312,0.006804 0.0194092,0.007725 0.0236793,0.003774 0.004632,-0.004286 0.003913,-0.006684 -0.003985,-0.0133288 z M 0.5645286,0.4618853 C 0.6031244,0.4187217 0.6085791,0.4107989 0.6031549,0.4057802 c -0.003475,-0.003216 -0.008272,-0.004496 -0.010662,-0.002849 -0.006226,0.00429 -0.005393,0.0129516 8.5789e-4,0.008935 0.002863,-0.001839 6.6282e-4,0.002216 -0.00489,0.00901 -0.0103417,0.0126567 -0.0198379,0.0169568 -0.0144665,0.006551 0.001742,-0.003372 0.001406,-0.004182 -7.9453e-4,-0.001934 -0.003828,0.003906 -0.004408,0.006088 -0.005352,0.0201161 -2.848e-4,0.004255 -0.001704,0.006417 -0.003148,0.004805 -0.004928,-0.005493 -0.0181881,0.00632 -0.0186725,0.0166343 -3.6998e-4,0.007856 -9.3031e-4,0.008365 -0.002387,0.002157 -0.001045,-0.004467 -0.00283,-0.008124 -0.00396,-0.008124 -0.00113,0 -0.0123064,0.009867 -0.0248358,0.0219274 -0.0191314,0.0184144 -0.0215885,0.0224525 -0.0153362,0.0252054 0.015425,0.006791 0.0211992,0.002677 0.0650208,-0.0463307 z m -0.009692,-5.2831e-4 c 0,-0.002402 0.001853,-0.005644 0.004117,-0.007205 0.002358,-0.001626 0.003059,2.3821e-4 0.001635,0.004369 -0.002766,0.008042 -0.005752,0.009514 -0.005752,0.002836 z m -0.0712994,0.008379 c 0.0245146,-0.0231125 0.0283913,-0.0320212 0.0138016,-0.0317152 -0.0102716,2.1456e-4 -0.0527419,0.043586 -0.0491054,0.0501462 0.004825,0.008704 0.00863,0.006718 0.0353038,-0.0184311 z m 0.037989,-0.001688 0.0226163,-0.0255317 -0.0135513,0 c -0.009995,0 -0.0181099,0.004741 -0.0309266,0.0180695 -0.0150507,0.015652 -0.0166318,0.0190678 -0.0118203,0.0255316 0.003055,0.004104 0.006795,0.007462 0.00831,0.007462 0.001517,0 0.0129327,-0.0114893 0.0253717,-0.0255317 z m 0.2893705,-2.2312e-4 c 0.010855,-0.0141655 0.0190459,-0.0264975 0.0182021,-0.0274048 -8.4516e-4,-9.0856e-4 -0.0118399,-0.003064 -0.0244352,-0.004786 l -0.0229009,-0.00314 -0.019778,0.0255902 c -0.010878,0.0140748 -0.019778,0.0266648 -0.019778,0.0279785 0,0.001313 0.009837,0.003156 0.0218599,0.004093 0.0120226,9.3688e-4 0.0230373,0.002092 0.0244768,0.002563 0.00144,4.7376e-4 0.0114983,-0.0107312 0.0223533,-0.0248965 z m -0.39368096,-0.009542 c 0.014147,-0.0168606 0.0250649,-0.0313881 0.0242623,-0.0322832 -8.0299e-4,-8.9655e-4 -0.008436,-0.002151 -0.0169619,-0.002793 -0.0137752,-0.001034 -0.0180487,0.00164 -0.0383578,0.0240008 -0.0125707,0.0138408 -0.0228554,0.0266288 -0.0228554,0.0284182 0,0.002815 0.0179009,0.0118855 0.0255463,0.0129449 0.001457,2.0367e-4 0.0142201,-0.0134288 0.0283675,-0.0302891 z M 0.38203898,0.447159 c 0.0193378,-0.0217864 0.0229056,-0.0278527 0.0163828,-0.0278527 -0.009286,0 -0.0536515,0.0474235 -0.0491061,0.0524911 0.005046,0.005626 0.007503,0.003777 0.0327234,-0.0246384 z M 0.14754401,0.4619785 c 0.0126514,-0.002652 0.0190222,-0.008657 0.0364331,-0.0343428 0.0116053,-0.0171208 0.0211011,-0.0321178 0.0211011,-0.0333263 0,-0.001209 -0.0105065,-0.005603 -0.0233483,-0.009765 -0.0128417,-0.004163 -0.0223494,-0.008682 -0.0211279,-0.0100429 0.001224,-0.001362 0.0130393,0.001034 0.0262618,0.005316 l 0.0240409,0.007792 0.008463,-0.0131648 c 0.004655,-0.007241 0.0139664,-0.0183877 0.0206928,-0.0247702 0.0166959,-0.0158434 0.0399219,-0.04338 0.039946,-0.0473605 7.43e-6,-0.001792 -0.0116907,-0.004001 -0.0260039,-0.004908 l -0.0260238,-0.001648 0.0300806,-8.9226e-4 c 0.028761,-8.5419e-4 0.0303589,-0.001495 0.0364331,-0.0145903 0.003493,-0.007533 0.006353,-0.014844 0.006353,-0.0162474 0,-0.001404 -0.0154582,-0.002423 -0.0343512,-0.002262 l -0.0343512,2.941e-4 -0.0749481,0.0982748 c -0.0412216,0.054051 -0.07557277,0.0998764 -0.07633612,0.10183413 -0.0016999,0.004363 0.04561128,0.004228 0.06668557,-1.9095e-4 z M 0.36003635,0.4438521 c 0.0109565,-0.0120319 0.0199207,-0.0235209 0.0199207,-0.0255316 0,-0.00201 -0.00616,-0.003658 -0.013689,-0.003658 -0.0108733,0 -0.0178086,0.004663 -0.0337189,0.0226718 -0.0200891,0.0227386 -0.0201863,0.0271486 -6.2034e-4,0.028025 0.004502,2.0366e-4 0.0171488,-0.009478 0.0281058,-0.0215091 z m 0.25395844,0.004686 c 0.0160514,-0.017474 0.02044,-0.0275723 0.0100515,-0.023128 -0.003157,0.00135 -0.00796,6.88e-6 -0.0106756,-0.002987 -0.007626,-0.008403 -0.0360894,0.0273362 -0.0291718,0.0366291 0.007493,0.010065 0.0125209,0.00829 0.0297964,-0.010516 z m 0.0305578,0.002159 c 0.0101794,-0.0134879 0.010337,-0.0221057 4.0143e-4,-0.0221057 -0.002834,0 -0.0123587,0.008224 -0.0211627,0.0182767 l -0.016008,0.0182767 0.0132479,-4.1921e-4 c 0.009252,-2.9412e-4 0.0163454,-0.004524 0.0235183,-0.0140276 z m 0.069497,-0.0304337 c 0.006888,-0.00841 0.0118254,-0.0159998 0.0109723,-0.0168657 -8.5391e-4,-8.6566e-4 -0.007188,-0.002918 -0.0140773,-0.00456 -0.0112046,-0.002671 -0.014936,-2.2186e-4 -0.0353921,0.0232249 -0.0125766,0.0144156 -0.0207905,0.0270799 -0.0182527,0.0281422 0.002536,0.001064 0.008159,0.004942 0.0124912,0.008622 0.007146,0.006068 0.008985,0.005298 0.0198061,-0.008291 0.006561,-0.00824 0.0175648,-0.021862 0.0244526,-0.0302719 z M 0.25280498,0.4334102 C 0.26985818,0.414197 0.27554788,0.4050478 0.27141158,0.4034896 0.22268318,0.3851321 0.21773848,0.3865313 0.19091048,0.4262705 l -0.0235042,0.0348159 0.0304167,0 0.0304167,0 z M 0.33913328,0.4207253 0.37550398,0.3803641 0.35378888,0.3677715 0.33207378,0.3551792 0.29980458,0.3906156 c -0.0177479,0.01949 -0.0322692,0.0369432 -0.0322692,0.0387845 0,0.001843 0.009837,0.004115 0.0218599,0.005052 0.0210646,0.001644 0.0208636,0.001736 -0.00552,0.002564 -0.0232659,7.2848e-4 -0.0288489,0.002601 -0.0371588,0.0124641 l -0.009779,0.0116053 0.032913,0 0.0329125,0 z m 0.56960943,0.0102055 c 0.005372,-0.006373 0.008971,-0.0124709 0.008002,-0.0135512 -0.003422,-0.00382 -0.0524129,-0.004211 -0.057854,-4.6156e-4 -0.003939,0.002712 -2.6015e-4,0.006872 0.0128048,0.0144918 0.0232508,0.0135596 0.0252388,0.013534 0.0370472,-4.8064e-4 z M 0.53968031,0.410832 0.55575281,0.3923379 0.54501161,0.3844919 c -0.0106498,-0.00778 -0.0109548,-0.007639 -0.0358502,0.0165017 -0.0138101,0.0133914 -0.025109,0.0250197 -0.025109,0.0258405 0,0.004106 0.0278946,0.009203 0.0333102,0.006086 0.003437,-0.001976 0.0134782,-0.0119166 0.022318,-0.0220886 z m 0.0312733,0.006765 0.0178511,-0.0202785 -0.0117791,-0.002636 c -0.0100086,-0.002239 -0.0149012,8.0877e-4 -0.0325488,0.0202781 l -0.0207692,0.0229137 0.0146977,0 c 0.0118535,0 0.0181516,-0.003924 0.0325484,-0.0202781 z M 0.84285086,0.42555 c 0.0124755,-0.0125869 0.008981,-0.0155279 -0.0184486,-0.0155279 -0.021291,0 -0.0269875,0.001652 -0.031111,0.009012 -0.005299,0.009461 -0.004866,0.009633 0.0339454,0.0134185 0.0044,4.3105e-4 0.011426,-0.002678 0.0156141,-0.006902 z M 0.49224893,0.40982915 c 7.326e-5,-0.00138 -0.00999,-0.008048 -0.0223609,-0.0148127 l -0.0224917,-0.0122982 -0.0160233,0.0155367 c -0.0159897,0.0155039 -0.0160016,0.0155416 -0.005614,0.0179428 0.0443462,0.0102539 0.0479302,0.0104622 0.0571213,0.003323 0.005081,-0.003947 0.009296,-0.008307 0.009368,-0.009691 z m 0.18259382,0.003368 c 0.0134965,-0.0155245 0.013652,-0.0217449 5.4385e-4,-0.0217449 -0.009413,0 -0.0308671,0.0308495 -0.0236997,0.0340785 0.008673,0.003907 0.009351,0.003548 0.0231562,-0.0123336 z m 0.10838484,-0.004339 c -0.0130699,-0.00539 -0.0545921,-0.002319 -0.0565132,0.004177 -0.002367,0.008011 0.0390525,0.0133654 0.0469394,0.006068 0.005227,-0.004837 0.005759,-0.004355 0.003335,0.003029 -0.002766,0.008429 -0.002511,0.008417 0.006389,-3.0501e-4 l 0.009272,-0.009084 z m -0.13126277,-0.00264 c 0.0123438,-0.0143641 0.0110678,-0.0194073 -0.004909,-0.0194073 -0.0113176,0 -0.029762,0.016324 -0.029762,0.026341 0,0.0114703 0.0227692,0.006917 0.0346715,-0.006934 z m -0.21537057,-0.0195129 0.0261156,-0.0279585 -0.0132704,-0.00651 -0.0132704,-0.00651 -0.026382,0.0307865 c -0.0227344,0.0265295 -0.0253253,0.0312507 -0.018737,0.0341429 0.014651,0.006431 0.0195944,0.003832 0.0455451,-0.0239497 z m -0.0347922,-0.009276 c 0.0162256,-0.0216125 0.0223349,-0.0329669 0.0189813,-0.0352774 -0.004859,-0.003349 -0.0574811,0.055021 -0.0574811,0.0637572 0,0.0124389 0.0174976,-5.0733e-4 0.0384997,-0.0284798 z m 0.11541648,0.007225 c 0.0162378,-0.018446 0.0173638,-0.0210491 0.0102355,-0.0236647 -0.004405,-0.001617 -0.0151807,-0.005916 -0.0239453,-0.009554 -0.015516,-0.006441 -0.0163666,-0.006235 -0.0322692,0.007806 -0.008983,0.007933 -0.0163279,0.0158136 -0.0163212,0.0175138 1.487e-5,0.002671 0.0355494,0.026539 0.0417998,0.0280706 0.001241,3.0501e-4 0.0104662,-0.008774 0.0205007,-0.0201733 z m 0.10495176,0.0130435 c 0.004189,-0.004225 0.007614,-0.009448 0.007614,-0.0116054 0,-0.005457 -0.0114001,-0.004901 -0.0213616,0.001041 -0.006646,0.003965 -0.007327,0.006303 -0.003382,0.0116054 0.006271,0.008424 0.007838,0.008329 0.0171272,-0.001041 z m -0.30501985,-0.0360246 0.034858,-0.0390654 -0.028102,-0.009677 c -0.0154561,-0.005323 -0.0294276,-0.009677 -0.0310477,-0.009677 -0.003913,0 -0.0711252,0.0738468 -0.0711252,0.078147 0,0.001843 0.0126476,0.006682 0.0281058,0.0107528 0.0154578,0.004072 0.0290839,0.007669 0.0302795,0.007993 0.001194,3.2404e-4 0.01786,-0.0169885 0.0370317,-0.0384743 z m 0.2819729,0.0228446 c 0.001313,-0.003815 0.004534,-0.005504 0.007156,-0.00375 0.002621,0.001751 0.002196,-3.5128e-4 -9.4783e-4,-0.004668 -0.00752,-0.0103352 -0.0183521,-0.009958 -0.027205,9.4631e-4 -0.005552,0.00684 -0.005928,0.009346 -0.001687,0.0112391 0.0105669,0.004715 0.0203193,0.003094 0.0226813,-0.003769 z m -0.0247406,-0.009036 0.0116827,-0.0113304 -0.009106,-0.0102978 -0.009105,-0.0102978 -0.0147673,0.0144556 -0.0147673,0.0144553 0.009185,0.007172 c 0.0119881,0.009362 0.0131188,0.009187 0.0268778,-0.004158 z m -0.171846,-0.0274683 c 0.0104823,-0.0136794 0.0190587,-0.026132 0.0190587,-0.0276731 0,-0.001541 -0.009758,-0.006032 -0.0216841,-0.009981 l -0.021684,-0.007179 -0.0199539,0.0219115 c -0.0109748,0.0120514 -0.0199539,0.0233386 -0.0199539,0.025083 0,0.003852 0.0334334,0.0227008 0.040275,0.0227061 0.002685,2.06e-6 0.0134595,-0.0111889 0.0239419,-0.0248678 z M 0.54231125,0.3221313 0.5236086,0.30400719 0.50807093,0.32073672 c -0.008546,0.009201 -0.0146373,0.0177331 -0.0135369,0.0189598 0.001101,0.001228 0.0118399,0.006771 0.0238654,0.0123199 l 0.0218646,0.0100895 0.0103753,-0.0109253 0.0103753,-0.0109253 z m -0.0589381,0.0167192 0.0134455,-0.0154661 -0.0252153,-0.008512 -0.0252153,-0.008512 -0.0123527,0.0131942 c -0.006794,0.007256 -0.0113032,0.0143916 -0.0100201,0.0158541 0.002107,0.002403 0.0380179,0.0176755 0.043606,0.0185472 0.00127,1.982e-4 0.008357,-0.0066 0.0157518,-0.0151064 z M 0.37787596,0.2939685 c 0.0122426,-0.0138575 0.0180521,-0.0233737 0.0144168,-0.0236151 -0.003348,-2.2189e-4 -0.0227259,-0.00182 -0.0430595,-0.003548 l -0.0369702,-0.003143 -0.0104526,0.0152789 c -0.005749,0.008404 -0.009723,0.0158376 -0.008831,0.0165204 0.002812,0.002155 0.0555461,0.0208423 0.0600712,0.021289 0.002375,2.3459e-4 0.0135479,-0.0100178 0.0248261,-0.0227836 z m 0.0782205,-0.0125823 c -0.001802,-5.9889e-4 -0.0139779,-0.002907 -0.0270618,-0.005129 -0.0228066,-0.003874 -0.0242534,-0.003501 -0.0350123,0.009019 -0.008326,0.009689 -0.009709,0.0135626 -0.005357,0.0150072 0.003225,0.001072 0.0133605,0.005004 0.0225211,0.008741 l 0.0166551,0.006793 0.0157637,-0.0166714 c 0.00867,-0.009169 0.014291,-0.0171611 0.0124917,-0.0177596 z m 0.0527874,0.0290329 c 0.007426,-0.009976 0.0026,-0.0148703 -0.0208555,-0.0211433 -0.0188305,-0.005036 -0.021916,-0.004733 -0.0294697,0.002888 -0.008352,0.008427 -0.008233,0.008592 0.0116512,0.0164045 0.0253453,0.009958 0.0323886,0.0102951 0.0386735,0.00185 z m 0.28745257,0.0839233 c 0,-9.6519e-4 0.00328,-0.00462 0.007287,-0.008124 0.006604,-0.005774 0.006752,-0.005609 0.001572,0.001754 -0.005439,0.007733 -0.008859,0.0101918 -0.008859,0.006371 z m 0.0291467,-0.0326408 c 0,-8.8539e-4 0.002808,-0.004207 0.006246,-0.007386 0.003599,-0.00333 0.006246,-0.003784 0.006246,-0.001064 0,0.002594 -0.002808,0.005916 -0.006246,0.007386 -0.003433,0.001472 -0.006246,0.001949 -0.006246,0.001064 z M 0.62187554,0.34176105 c 0.003034,-0.005629 0.006409,-0.009235 0.007504,-0.008013 0.001096,0.001221 -0.001385,0.005826 -0.005513,0.0102337 -0.00717,0.007656 -0.007259,0.007558 -0.001993,-0.00222 z m 0.11192503,-0.003799 c -0.0044,-0.005911 -0.004142,-0.00659 0.001572,-0.004146 0.00376,0.001606 0.006835,0.00479 0.006835,0.007069 0,0.00597 -0.002409,0.005131 -0.008407,-0.002926 z m 0.0583489,0.001266 c -1.492e-5,-0.003193 -0.001878,-0.0132395 -0.004142,-0.0223292 l -0.004117,-0.0165266 -0.0322917,0.003788 c -0.0177606,0.002083 -0.0346057,0.004743 -0.0374333,0.005909 -0.002825,0.001168 -0.00735,-0.002503 -0.0100502,-0.008151 -0.004344,-0.009089 -0.004155,-0.009581 0.001623,-0.004269 0.005138,0.004724 0.0138559,0.004979 0.0408974,0.001198 0.0189023,-0.00264 0.0350042,-0.005513 0.0357813,-0.00638 7.7755e-4,-8.6996e-4 -0.001916,-0.0202064 -0.00599,-0.0429776 l -0.007404,-0.0414024 -0.0263913,-0.0156316 c -0.0212082,-0.0125621 -0.0271001,-0.0143854 -0.0299987,-0.009285 -0.002754,0.004843 -0.00362,0.004938 -0.003671,3.9672e-4 -1.2206e-4,-0.0113361 0.0116873,-0.0108737 0.0332392,0.001304 0.01191,0.006729 0.0223545,0.0114532 0.0232094,0.0105004 8.5392e-4,-9.5317e-4 -3.8571e-4,-0.009567 -0.002758,-0.0191414 -0.002371,-0.009574 -0.003611,-0.0209461 -0.002754,-0.0252706 8.579e-4,-0.004325 0.004252,0.005576 0.007547,0.0220027 0.005972,0.0297741 0.006102,0.0299637 0.0424235,0.0615634 0.0200381,0.0174336 0.0364331,0.0295483 0.0364331,0.0269212 0,-0.002629 -0.004684,-0.0289308 -0.0104093,-0.0584532 -0.0105635,-0.0544707 -0.0120731,-0.0656207 -0.008318,-0.0614348 0.001152,0.001282 0.006853,0.0272199 0.0126726,0.0576396 0.0122911,0.0642418 0.0161286,0.0761983 0.0244572,0.0761983 0.00335,0 0.00729,0.002174 0.008766,0.004828 0.001727,0.00312 -0.001066,0.00378 -0.00791,0.001865 -0.010275,-0.002877 -0.0104679,-0.00251 -0.006597,0.0125491 0.005014,0.0194962 0.00503,0.0193196 -0.001218,0.0167154 -0.002863,-0.001193 -0.0183207,-8.9655e-4 -0.0343512,6.6401e-4 l -0.0291467,0.002835 0.001355,0.0150869 c 7.4356e-4,0.008298 2.7648e-4,0.0150866 -0.001041,0.0150866 -0.001317,0 -0.002405,-0.002613 -0.002418,-0.005803 z m 0.0610938,-0.0375257 c 9.8602e-4,-0.001098 5.3961e-4,-0.007563 -9.9399e-4,-0.0143661 -0.002367,-0.0105183 -0.0450525,-0.0518553 -0.0719733,-0.0697012 -0.006118,-0.004055 -0.006116,-0.004034 0.006486,0.0595543 l 0.006334,0.0319644 0.0291774,-0.002727 c 0.0160476,-0.001499 0.0299834,-0.003627 0.0309687,-0.004725 z m -0.0152692,0.0414417 c 0,-9.2744e-4 0.004684,-0.005109 0.0104093,-0.009291 0.005725,-0.004182 0.0104092,-0.005802 0.0104092,-0.003601 0,0.002205 -0.004684,0.006383 -0.0104092,0.009291 -0.005725,0.002907 -0.0104093,0.004528 -0.0104093,0.003601 z m 0.0337281,-0.0338785 c 0.003032,-0.005629 0.006406,-0.009234 0.007505,-0.008013 0.001098,0.001221 -0.001385,0.005826 -0.005515,0.0102337 -0.00717,0.007656 -0.007258,0.007558 -0.00199,-0.00222 z m -0.22900809,-0.004642 c 0.003034,-0.005628 0.006409,-0.009234 0.007504,-0.008013 0.001096,0.001221 -0.001385,0.005826 -0.005513,0.0102337 -0.00717,0.007656 -0.007259,0.007558 -0.001993,-0.00222 z m 0.020819,-0.0371371 c 0.003034,-0.005628 0.006409,-0.009235 0.007504,-0.008013 0.001096,0.001221 -0.001385,0.005826 -0.005513,0.0102337 -0.00717,0.007656 -0.007259,0.007557 -0.001993,-0.00222 z m 0.0295402,-0.003693 c 8.541e-5,-0.00766 0.001019,-0.010231 0.002073,-0.005715 0.001058,0.004516 9.8602e-4,0.0107834 -1.5521e-4,0.0139262 -0.001139,0.003143 -0.002005,-5.5311e-4 -0.00192,-0.008212 z m 0.19554351,0.002319 c 0,-0.006383 9.3907e-4,-0.008994 0.002101,-0.005803 0.001154,0.003193 0.001154,0.008414 0,0.0116054 -0.001154,0.003193 -0.002101,5.8362e-4 -0.002101,-0.005803 z m 0,-0.032495 c 0,-0.006382 9.3907e-4,-0.008994 0.002101,-0.005803 0.001154,0.003193 0.001154,0.008414 0,0.0116054 -0.001154,0.003193 -0.002101,5.8363e-4 -0.002101,-0.005803 z M 0.6878055,0.22476145 c 0.0105023,-0.0164434 0.0127963,-0.0178163 0.0100248,-0.005999 -0.001079,0.004594 -0.005837,0.0110535 -0.0105754,0.0143527 -0.008365,0.005824 -0.008349,0.00558 5.5235e-4,-0.008354 z m 0.18806074,-0.0342927 c -0.005268,-0.009778 -0.005181,-0.009877 0.00199,-0.00222 0.004122,0.004407 0.006605,0.009013 0.005515,0.0102337 -0.001098,0.001221 -0.004473,-0.002384 -0.007505,-0.008013 z M 0.8527924,0.16152014 c -0.004445,-0.00375 -0.00608,-0.006816 -0.003633,-0.006816 0.002447,0 0.006783,0.003132 0.009633,0.006963 0.006486,0.00871 0.004441,0.00866 -0.006001,-1.3975e-4 z M 0.73804316,0.15006235 c 0.003433,-0.002476 0.008119,-0.0045 0.0104093,-0.0045 0.00229,0 0.001351,0.002025 -0.002082,0.0045 -0.003437,0.002476 -0.00812,0.0045 -0.0104093,0.0045 -0.00229,0 -0.001351,-0.002026 0.002082,-0.0045 z m 0.0741674,-0.0124553 c 0.003004,-0.001342 0.006597,-0.001175 0.007981,3.6764e-4 0.001386,0.001541 -0.001075,0.002639 -0.005465,0.002437 -0.004851,-2.2182e-4 -0.005837,-0.00132 -0.002516,-0.002803 z" id="path4199" inkscape:connector-curvature="0" sodipodi:nodetypes="ssssssssssscsscccssssssscccsssssscsssscsscsssssssssssscssssscssssccscssscsscsscssscsssssscsscscsssscsscccscssssscscsscsscccccsscccccsssssssssssssssssscccsssssssssscccccscsssscssssssscsssscssssssssssscsssccsscsccccccsssscsssscsscscccssssssscccsssscccsssscccsscssscssssssscccccssssscccccccsssssscccsssssssssssssssssssscssccssscsscssscscsscssssssssssssssssssssssscscsscsccscsssssssscssscsssssssssscssscsccsscsscsscccsscssccscsssssscccssscssssscsssssscccssscccscssccsssssssscscsscssscscssscsssssssssssssssscscscssssscsssssssssscsssssssssssssssssccccssssssssscssscsssssssscsssssssssscssssscssscscsscscsssscssccsssssssscssssscssssssssssssscccsccccsssssccccsssssscsssssscsscssssssscscssscssssssssscsssssscccssssssssssscsssssssscsssscsscssssscccccssssscssssccsssccccscccsscsscscscsscsssscscsssssssssssssssssssssscscssssssscssssscssssscssssssscsscsssscssssssssssssssssssscscccsssssssssssssssscssccssssssscs" />
    </pattern>
  </defs>
  <sodipodi:namedview pagecolor="#ffffff" bordercolor="#666666" borderopacity="1" objecttolerance="10" gridtolerance="10" guidetolerance="10" inkscape:pageopacity="0" inkscape:pageshadow="2" inkscape:window-width="1600" inkscape:window-height="838" id="namedview4" showgrid="false" inkscape:zoom="256" inkscape:cx="0.5" inkscape:cy="0.5" inkscape:window-x="-8" inkscape:window-y="-8" inkscape:window-maximized="1" inkscape:current-layer="svg2" />
  <path style="fill:#000000" d="m 0.42992277,0.81809417 c 0,-0.002314 0.003748,-0.004207 0.008327,-0.004207 0.00458,0 0.008327,8.0153e-4 0.008327,0.00178 0,9.7891e-4 -0.003748,0.002872 -0.008327,0.004207 -0.00458,0.001335 -0.008327,5.3443e-4 -0.008327,-0.001779 z m 0.0277081,-7.2651e-4 c 0.001062,-0.001915 0.004519,-0.003482 0.007684,-0.003482 0.003166,0 0.006623,0.001567 0.007684,0.003482 0.001062,0.001914 -0.002396,0.003482 -0.007684,0.003482 -0.005287,0 -0.008746,-0.001567 -0.007684,-0.003482 z M 0.24386038,0.80112166 0.05987973,0.79986266 0.05665903,0.78946606 C 0.05166763,0.77336336 0.0545684,0.59095029 0.06085302,0.5256137 l 0.0056265,-0.0584862 0.08283251,-0.10790994 0.0828325,-0.1079098 0.0541293,0.003052 c 0.0694641,0.003917 0.15545156,0.0144946 0.18737034,0.0230498 0.0370135,0.009921 0.0514631,0.0180214 0.0791119,0.0443482 0.0384968,0.0366564 0.0579618,0.0493935 0.0841687,0.0550782 0.069731,0.0151259 0.14430825,0.0244307 0.217049,0.027081 0.0641837,0.002338 0.0810005,0.004281 0.0828194,0.009565 0.002332,0.006777 -0.00581,0.18131059 -0.0107341,0.23012811 l -0.00273,0.0270163 -0.0687024,0.0668296 -0.0687024,0.0668297 L 0.60688141,0.8033325 C 0.50840921,0.80280691 0.34504865,0.8018135 0.24385933,0.8011205 Z m 0.0320024,-0.011872 c 0,-0.0103714 -0.0163072,-0.1056017 -0.0188769,-0.11023741 -0.003748,-0.006764 -0.092385,-0.005597 -0.0961894,0.001266 -0.001725,0.003111 -0.003939,0.0291107 -0.004925,0.0577777 l -0.001789,0.0521217 0.0244573,0.001692 c 0.0633726,0.004385 0.0973234,0.00347 0.0973234,-0.00262 z m 0.0999308,0.001256 c 0,-0.002646 -0.004028,-0.0227188 -0.008953,-0.0446072 l -0.008953,-0.0397971 -0.0268273,-0.0134194 c -0.017487,-0.008747 -0.0337483,-0.0134192 -0.0467053,-0.0134192 l -0.0198778,0 0.008037,0.052224 c 0.004421,0.0287231 0.008797,0.054835 0.009726,0.0580266 0.002158,0.007414 0.0935535,0.008385 0.0935535,9.9264e-4 z m 0.0572496,-9.9264e-4 c -0.001066,-0.003192 -0.004402,-0.0166551 -0.007419,-0.0299193 -0.005306,-0.0233264 -0.006289,-0.0245055 -0.0300139,-0.0359766 -0.0134906,-0.006523 -0.0260871,-0.0118598 -0.0279923,-0.0118598 -0.002812,0 0.007343,0.0546195 0.0144584,0.0777556 0.001164,0.003796 0.0106238,0.005803 0.0273435,0.005803 0.0187026,0 0.0250402,-0.001555 0.0236245,-0.005803 z m 0.0343537,-5.8095e-4 c 0,-0.024233 -0.005562,-0.0350118 -0.021806,-0.0422582 -0.009189,-0.004099 -0.0172822,-0.006812 -0.017985,-0.006029 -7.0106e-4,7.8245e-4 0.001713,0.0134046 0.005369,0.028047 0.006391,0.0255997 0.00718,0.0266225 0.0205343,0.0266225 0.009008,0 0.0138882,-0.002243 0.0138882,-0.006383 z m 0.0374741,0.00212 c 0,-0.0113734 -0.006489,-0.0199067 -0.0198813,-0.0261454 -0.008089,-0.003768 -0.0153061,-0.006184 -0.0160373,-0.005369 -7.308e-4,8.1535e-4 5.8209e-4,0.009199 0.002919,0.0186294 0.003849,0.0155433 0.005591,0.0171469 0.0186244,0.0171469 0.007907,0 0.0143773,-0.001918 0.0143773,-0.004262 z m 0.020819,-0.002204 c 0,-0.006522 -0.0119741,-0.0142261 -0.0156834,-0.0100905 -0.001101,0.001228 -8.9212e-4,0.005453 4.6737e-4,0.009394 0.003072,0.008925 0.0152185,0.009481 0.0152185,6.9625e-4 z m 0.015697,-0.001657 c 2.3547e-4,-0.004468 -0.002387,-0.0232688 -0.005836,-0.0417792 -0.004961,-0.0266509 -0.007817,-0.0336554 -0.0137221,-0.0336554 -0.007096,0 -0.007059,0.001628 7.6904e-4,0.0336554 0.004524,0.0185105 0.009776,0.0343127 0.0116708,0.035116 0.001895,8.0286e-4 0.002414,0.004459 0.001152,0.008124 -0.001262,0.003665 -5.3111e-4,0.006664 0.001623,0.006664 0.002154,0 0.004109,-0.003656 0.004345,-0.008124 z m 0.0287002,-0.0301731 c -0.008719,-0.0370802 -0.009422,-0.0383427 -0.0221183,-0.0397174 l -0.0131137,-0.00142 0.008369,0.0371547 c 0.008281,0.0367652 0.0107509,0.0403264 0.0289445,0.0417416 0.006272,4.8787e-4 0.006075,-0.003065 -0.002082,-0.0377591 z m 0.0370071,0.0302723 c -0.001517,-0.004414 -0.008613,-0.0293355 -0.0157633,-0.0553812 -0.0101003,-0.0367911 -0.0148841,-0.0479051 -0.0214431,-0.0498171 -0.004643,-0.001354 -0.009125,-0.0017 -0.00996,-7.6995e-4 -8.3243e-4,9.2915e-4 0.004236,0.0262221 0.0112684,0.0562034 0.007032,0.0299813 0.0127861,0.0552493 0.0127861,0.0561507 0,9.0169e-4 0.005821,0.001639 0.0129369,0.001639 0.0105495,0 0.012427,-0.001481 0.0101748,-0.008025 z m 0.0422494,0.001776 c -0.001181,-0.003437 -0.007959,-0.0272338 -0.0150583,-0.0528816 l -0.0129076,-0.0466325 -0.0155746,-0.002177 c -0.008566,-0.001198 -0.0167804,-0.001437 -0.018254,-5.3442e-4 -0.001475,9.0256e-4 0.001831,0.0178461 0.007347,0.0376504 0.005514,0.0198044 0.0119448,0.0438417 0.0142902,0.0534162 0.004134,0.0168818 0.004839,0.0174079 0.0232863,0.0174079 0.0142319,0 0.0184804,-0.001574 0.016871,-0.006249 z m 0.0637368,-0.006516 c 2.236e-5,-0.0147512 -0.0197819,-0.0794948 -0.0270504,-0.0884301 -0.003319,-0.004079 -0.0136949,-0.005582 -0.0320461,-0.004642 l -0.0271392,0.00139 0.0146479,0.052224 0.0146479,0.052224 0.0284601,0 c 0.0282664,0 0.0284601,-9.397e-5 0.0284801,-0.0127658 z m 0.0682536,-0.004642 c 0.003943,-0.0287713 0.004552,-0.0727249 0.001097,-0.0789162 -0.00204,-0.00365 -0.01301,-0.005802 -0.0295729,-0.005802 -0.0308768,0 -0.03132,7.6468e-4 -0.0314114,0.0541652 -8.14e-5,0.0474167 2.7134e-4,0.0479615 0.0312512,0.0479615 l 0.0262533,0 z M 0.15094941,0.73999093 c 0,-0.0278761 0.001139,-0.0539881 0.002528,-0.0580266 0.002214,-0.006436 -0.003442,-0.007343 -0.0458016,-0.007343 l -0.04832902,0 3.726e-5,0.0336554 c 2.235e-5,0.0185105 0.0012192,0.0446224 0.0026644,0.0580266 l 0.0026254,0.0243711 0.04313977,0 0.0431398,0 0,-0.0506837 z M 0.8322465,0.72826724 c -0.001249,-0.0103565 -0.003493,-0.0308173 -0.00499,-0.0454685 l -0.002723,-0.0266384 -0.0163802,0.0151694 -0.0163802,0.0151693 -0.001415,0.0519975 -0.001415,0.0519975 0.0227811,-0.0216982 c 0.0219904,-0.0209452 0.0227021,-0.0223517 0.0205135,-0.0405283 z m -0.31078916,0.0333939 c -0.001959,-0.008298 -0.005607,-0.0238776 -0.008106,-0.0346217 -0.003535,-0.0151986 -0.006057,-0.0188876 -0.0113594,-0.0166192 -0.004559,0.001951 -0.005819,0.001118 -0.003802,-0.002515 0.001657,-0.002987 0.001028,-0.005431 -0.001398,-0.005431 -0.005825,0 -0.005511,0.006577 0.001776,0.0371108 0.005413,0.0226799 0.0145409,0.0371633 0.0234201,0.0371633 0.00167,0 0.001432,-0.006789 -5.311e-4,-0.015087 z m -0.0249136,-0.00388 c 0,-0.002772 -0.003161,-0.0182594 -0.007021,-0.0344158 -0.006456,-0.0270104 -0.008048,-0.0295499 -0.019778,-0.0315462 -0.0148646,-0.00253 -0.0168816,-0.001428 -0.0123493,0.006749 0.001827,0.003298 0.003544,0.0102254 0.003811,0.0153958 0.00178,0.0342602 0.002022,0.0349039 0.0155584,0.0415035 0.0169661,0.008272 0.019778,0.008601 0.019778,0.002315 z m 0.22068066,-0.0344172 0,-0.0301738 -0.0120914,0 -0.0120914,0 0.008094,0.0243711 c 0.004452,0.0134043 0.008897,0.0269824 0.009879,0.030174 0.003982,0.0129439 0.00621,0.004196 0.00621,-0.0243712 z m -0.26102497,0.005803 c -0.006671,-0.0378119 -0.006926,-0.0382025 -0.0258747,-0.0397448 -0.0155155,-0.001264 -0.0174951,-3.7417e-4 -0.0155351,0.006963 0.001237,0.004626 0.003442,0.0140071 0.004904,0.0208474 0.00184,0.008609 0.007347,0.0146078 0.0178941,0.0194898 0.0210255,0.009732 0.0216199,0.009491 0.0186121,-0.007556 z m 0.41819232,-0.0210489 0.0301721,-0.031175 0.002578,-0.0580266 0.002578,-0.0580266 -0.0403467,0.0441001 -0.0403463,0.0441003 0.002609,0.0278527 c 0.004049,0.0432146 0.00716,0.0626832 0.009986,0.0625095 0.001423,-9.358e-5 0.0161682,-0.0141882 0.0327626,-0.0313345 z m -0.45931727,0.007123 c -0.008316,-0.0297618 -0.007555,-0.0291201 -0.0325314,-0.0274231 -0.0128724,8.751e-4 -0.0234044,0.003615 -0.0234044,0.006089 0,0.004086 0.047385,0.0310612 0.0554508,0.031566 0.001873,1.0918e-4 0.002091,-0.004487 4.8437e-4,-0.0102318 z M 0.55686883,0.7013149 c -0.001479,-0.005745 -0.003544,-0.013875 -0.004582,-0.0180673 -0.002044,-0.008241 -0.018392,-0.0150652 -0.0230815,-0.009633 -0.005538,0.006415 0.001764,0.0296206 0.0105673,0.0335856 0.0155194,0.006989 0.0200164,0.005441 0.0170965,-0.005885 z M 0.34125986,0.6377973 0.32791036,0.5804483 0.28939526,0.5793723 c -0.0437573,-0.001223 -0.0414217,-0.004101 -0.0342402,0.0421751 0.007891,0.0508485 0.005751,0.0474228 0.0318937,0.0510644 0.0130177,0.001814 0.0331581,0.007999 0.0447564,0.0137477 0.0115986,0.005747 0.0214746,0.0100765 0.0219467,0.009619 4.7162e-4,-4.5775e-4 -0.005149,-0.0266384 -0.0124913,-0.0581803 z m 0.16361149,0.0547719 c 0,-0.0151529 -0.0102843,-0.0406448 -0.0172122,-0.0426647 -0.004295,-0.001253 -0.00777,1.562e-4 -0.00777,0.003133 0,0.0116644 0.008457,0.0373786 0.0134561,0.0409165 0.007424,0.005254 0.0115263,0.004762 0.0115263,-0.001386 z m 0.0159396,-0.0161807 c -8.7541e-4,-0.0085 -0.004142,-0.0138793 -0.009069,-0.0149214 -0.006699,-0.001419 -0.007313,3.8947e-4 -0.004715,0.0138866 0.001644,0.008534 0.003913,0.0172651 0.005049,0.0194026 0.004002,0.007541 0.0100834,-0.005247 0.008734,-0.0183679 z M 0.47580808,0.6610403 c -0.002592,-0.0107304 -0.007099,-0.0189137 -0.0104169,-0.0189137 -0.008832,0 -0.0178771,0.01729 -0.015697,0.0300058 0.001483,0.008654 0.004959,0.0115865 0.0150214,0.0126764 0.0160339,0.001736 0.0168369,1.36e-5 0.0110925,-0.0237687 z M 0.7807291,0.64240554 c -6.7982e-4,-0.0289221 -0.002804,-0.0450758 -0.006246,-0.0475109 -0.002868,-0.002029 -0.0138508,-0.003722 -0.0244097,-0.00376 l -0.019198,-7.8e-5 -0.002626,0.024371 c -0.001444,0.0134042 -0.002643,0.0354337 -0.002664,0.0489544 l -3.722e-5,0.0245833 0.0281053,-0.001373 0.0281058,-0.001373 -0.001032,-0.0438215 z M 0.4033225,0.67797264 C 0.40410004,0.6771044 0.4007645,0.66009424 0.3959085,0.64017324 0.3878195,0.60699554 0.3858854,0.60339784 0.3728869,0.59734274 0.3650819,0.59370674 0.3532516,0.58951874 0.3465966,0.58803474 l -0.0120999,-0.002699 0.0103196,0.043482 c 0.005676,0.0239151 0.0112599,0.0463789 0.0124092,0.0499196 0.001581,0.004871 0.00727,0.005753 0.0233853,0.003626 0.0117124,-0.001547 0.0219331,-0.003523 0.0227122,-0.004391 z m 0.0390687,-0.006833 c -1.491e-5,-0.007021 -0.002005,-0.0207314 -0.004433,-0.030467 -0.003697,-0.0148438 -0.007486,-0.0191715 -0.0234669,-0.0268091 -0.010482,-0.00501 -0.0195643,-0.008533 -0.0201829,-0.00783 -6.2033e-4,7.0282e-4 0.002728,0.017357 0.007439,0.0370103 0.008971,0.0374319 0.008165,0.0365187 0.0354614,0.0401665 0.003059,4.0853e-4 0.005195,-0.004569 0.005182,-0.0120703 z m 0.24056609,0.006963 c -0.001015,-0.003192 -0.007306,-0.0232698 -0.0139779,-0.0446186 -0.0132386,-0.0423637 -0.0146254,-0.0437104 -0.0502801,-0.0488306 -0.0201519,-0.002894 -0.0213573,-0.0025 -0.0192924,0.006303 0.001211,0.005165 0.003969,0.00939 0.006126,0.00939 0.002158,0 0.002881,0.001881 0.001606,0.004183 -0.001869,0.003371 0.00579,0.0375252 0.0164979,0.0735721 0.001164,0.003921 0.0113632,0.005803 0.0314463,0.005803 0.0219878,0 0.0292419,-0.001511 0.0278751,-0.005803 z m 0.038431,-0.0406185 0,-0.0464213 -0.0291463,0 c -0.0160305,0 -0.0291463,0.001948 -0.0291463,0.004326 0,0.004677 0.0237562,0.077907 0.027414,0.0845054 0.001224,0.002207 0.008671,0.004012 0.0165515,0.004012 l 0.0143276,0 z M 0.56079382,0.61971808 c -0.0115403,-0.0415987 -0.0174373,-0.0563437 -0.023206,-0.0580255 -0.004254,-0.001239 -0.007734,-0.00144 -0.007734,-4.467e-4 0,9.9693e-4 0.005621,0.0248573 0.0124913,0.0530273 0.00687,0.0281701 0.0124912,0.0522952 0.0124912,0.0536114 0,0.00283 0.0181256,0.0109076 0.0200831,0.00895 7.3931e-4,-7.3968e-4 -0.005617,-0.0264432 -0.0141258,-0.0571172 z m 0.0564997,0.0577137 c 0,-0.001009 -0.004096,-0.0161527 -0.009105,-0.0336554 -0.005007,-0.017503 -0.009329,-0.0328679 -0.009604,-0.0341444 -2.7583e-4,-0.001277 -0.001899,-0.008872 -0.003611,-0.0168783 -0.002294,-0.0107251 -0.006069,-0.0152781 -0.0143382,-0.017296 -0.006173,-0.001506 -0.0152997,-0.004037 -0.0202815,-0.005623 l -0.009058,-0.002884 0.008101,0.0294641 c 0.0125303,0.0455747 0.0111465,0.0430201 0.0194326,0.0358697 0.006772,-0.005843 0.006803,-0.005654 4.9287e-4,0.002959 -0.003709,0.005062 -0.005782,0.0123375 -0.004607,0.0161675 0.008464,0.0275856 0.008711,0.0278527 0.0258203,0.0278527 0.009217,0 0.0167584,-8.2457e-4 0.0167584,-0.001832 z m 0.19039123,-0.0132548 0.012982,-0.0150869 -0.00232,-0.0491193 -0.00232,-0.0491192 -0.015052,0.0189452 -0.015052,0.0189455 0.001326,0.0452608 c 7.308e-4,0.0248933 0.002703,0.0452607 0.004387,0.0452607 0.001682,0 0.008903,-0.006789 0.0160433,-0.0150869 z m -0.65106634,-0.023211 c -0.001028,-0.0159573 -0.002838,-0.0378915 -0.004024,-0.0487424 l -0.002154,-0.019729 -0.0434646,0 -0.04346463,0 0,0.0487424 0,0.0487424 0.04748871,0 0.0474887,0 z m 0.0942331,-0.0152613 c -0.003973,-0.0243511 -0.007934,-0.0449512 -0.008802,-0.045778 -8.6665e-4,-8.2524e-4 -0.0208873,-0.002757 -0.0444872,-0.00429 -0.0391762,-0.002544 -0.0427359,-0.002094 -0.0409233,0.00516 0.001092,0.004369 0.003237,0.0262236 0.004767,0.0485637 l 0.002783,0.0406187 0.0469437,0 0.0469437,0 z m 0.28480128,-0.0163804 c -0.0107143,-0.0459357 -0.0128455,-0.0509682 -0.0233088,-0.0550346 -0.0112259,-0.004363 -0.011463,-0.004102 -0.009402,0.0103524 0.00116,0.008156 0.006288,0.0325249 0.0113899,0.0541548 0.007513,0.0318504 0.0112552,0.0404277 0.0196858,0.0451179 0.007041,0.003917 0.0108979,0.004202 0.0119189,8.8025e-4 8.2846e-4,-0.002702 -0.003798,-0.0276627 -0.0102835,-0.0554703 z m 0.38714441,-0.0100457 c 0.002515,-0.0436395 0.002077,-0.0494732 -0.003502,-0.0470851 -0.005284,0.00226 -0.006311,0.0127621 -0.006016,0.0614165 4.1104e-4,0.0674631 0.005229,0.0602149 0.009517,-0.0143313 z M 0.514767,0.65048483 c -0.0017,-0.003063 -0.003348,-0.009852 -0.003662,-0.0150869 -0.001364,-0.0224825 -0.0119452,-0.062383 -0.0158329,-0.0597045 -0.002392,0.001651 -0.002881,5.4205e-4 -0.001143,-0.002595 0.007061,-0.012736 -0.008633,-0.0455377 -0.0172109,-0.0359744 -0.003323,0.003703 0.0238722,0.1114726 0.0290533,0.11514153 0.007703,0.005454 0.0122936,0.004525 0.008798,-0.001781 z m -0.060698,-0.009319 c 6.8407e-4,-0.003935 -0.001657,-0.008397 -0.005205,-0.009914 -0.004786,-0.002048 -0.00645,2.9682e-4 -0.00645,0.009087 0,0.0127654 0.00946,0.0134369 0.0116551,8.2786e-4 z m 0.0340262,-0.003863 c -0.003662,-0.002582 -0.004147,-0.004347 -0.001211,-0.004389 0.003624,-4.681e-5 0.003815,-0.004029 7.308e-4,-0.015158 -0.002298,-0.008298 -0.00695,-0.0297098 -0.0103319,-0.0475819 -0.003985,-0.0210672 -0.00921,-0.0353926 -0.0148532,-0.0407347 -0.004787,-0.004532 -0.009452,-0.007406 -0.0103655,-0.006387 -0.001729,0.001931 0.0153167,0.082616 0.0182658,0.0864458 9.2634e-4,0.001201 0.003429,-8.8797e-4 0.005557,-0.004642 0.002367,-0.00417 0.003896,-0.004676 0.003939,-0.001299 2.982e-5,0.003041 -0.00181,0.00682 -0.0041,0.008398 -0.00229,0.001579 -0.004164,0.005879 -0.004164,0.009558 0,0.008267 0.0163598,0.0271345 0.0200045,0.0230712 0.001462,-0.001628 -1.0171e-4,-0.004904 -0.003471,-0.007279 z m 0.38307634,-0.0417232 0.0375868,-0.0419047 0,-0.0390305 c 0,-0.0214667 -0.001926,-0.044689 -0.004289,-0.051605 l -0.004289,-0.0125745 -0.0370033,0.0436069 c -0.0366107,0.0431443 -0.0370339,0.0439139 -0.0399112,0.0725666 -0.003166,0.0315106 4.5888e-4,0.0708459 0.006522,0.0708459 0.002086,0 0.0207102,-0.018857 0.0413825,-0.0419046 z m -0.40388198,0.0314598 c -6.105e-5,-0.003191 -0.005304,-0.0286704 -0.0116567,-0.0566196 -0.0109314,-0.0480989 -0.0122622,-0.0511412 -0.0248754,-0.0568793 -0.0163844,-0.007454 -0.0163823,-0.007478 -0.004769,0.0481427 0.0120247,0.0575886 0.0116329,0.0565438 0.0239976,0.0640287 0.013915,0.008423 0.0174391,0.008694 0.017303,0.001326 z m -0.047551,-0.0701369 c -0.007512,-0.0360136 -0.0132446,-0.0541631 -0.0177122,-0.0560745 -0.007853,-0.00336 -0.006488,-0.004856 -0.0172125,0.0188627 -0.008533,0.0188709 -0.00855,0.0195794 -0.001181,0.0487424 0.007152,0.0283019 0.00828,0.0299266 0.0258429,0.0372328 0.0101008,0.004202 0.0190404,0.00693 0.0198668,0.006062 8.2845e-4,-8.691e-4 -0.003497,-0.0255392 -0.009605,-0.0548257 z M 0.373203,0.54899782 C 0.367297,0.52490032 0.3611226,0.49996132 0.3594809,0.49357842 c -0.001704,-0.006622 -0.006598,-0.0122 -0.0114005,-0.0129906 -0.007124,-0.001174 -0.009544,0.003263 -0.01577,0.0289062 -0.005412,0.0222899 -0.006376,0.0349177 -0.00365,0.0478063 0.003408,0.0161183 0.005685,0.0183072 0.0285417,0.0274453 0.0136609,0.005462 0.0252658,0.009511 0.0257884,0.008998 5.2261e-4,-5.1459e-4 -0.003879,-0.0206483 -0.009787,-0.0447461 z m 0.35590494,0.0135641 c -0.005392,-0.001688 -0.0184863,-0.003276 -0.0291009,-0.00353 -0.0161435,-3.8679e-4 -0.0203941,0.001403 -0.0259953,0.0109313 l -0.006696,0.011394 0.0280773,0.00137 c 0.0236403,0.001155 0.0292976,-9.357e-5 0.0357975,-0.007863 0.007549,-0.00903 0.007504,-0.009303 -0.002082,-0.012303 z m 0.066297,8.0351e-4 0.0178061,-0.0230516 -0.0168472,-0.009582 c -0.014625,-0.008318 -0.0171696,-0.008645 -0.0192923,-0.002479 -0.001347,0.003907 -0.00488,0.007104 -0.007855,0.007104 -0.004664,0 -0.0353374,0.042318 -0.0353374,0.048753 0,0.001272 0.009837,0.00231 0.0218599,0.00231 0.0210446,-2.18e-6 0.022524,-8.6309e-4 0.0396661,-0.0230538 z M 0.68129427,0.55209013 c 0.0184676,-0.0234517 0.0219951,-0.0302823 0.0167877,-0.03251 -0.003624,-0.001552 -0.008297,-0.001645 -0.0103804,-2.1095e-4 -0.002082,0.001435 -0.00379,6.317e-4 -0.00379,-0.00179 0,-0.007238 -0.0290248,-0.0113242 -0.0358137,-0.005043 -0.003319,0.003072 -0.0154837,0.0177434 -0.0270308,0.032604 l -0.0209953,0.0270193 0.0113198,0.003168 c 0.006379,0.001787 0.0146127,8.7681e-4 0.0188649,-0.002087 0.006138,-0.004273 0.007103,-0.003968 0.005172,0.001642 -0.001771,0.00515 7.7329e-4,0.006895 0.0100549,0.006895 0.0100626,0 0.0168786,-0.005651 0.0358085,-0.0296897 z m -0.0265269,-0.00167 c 0,-0.002554 0.002808,-0.007243 0.006246,-0.0104213 0.003484,-0.003224 0.006246,-0.003726 0.006246,-0.001136 0,0.002554 -0.002808,0.007243 -0.006246,0.010421 -0.003484,0.003223 -0.006246,0.003726 -0.006246,0.001136 z m -0.33055778,0.0207836 c 8.8416e-4,-9.8578e-4 -0.0192486,-0.09664 -0.0208691,-0.099157 -2.2872e-4,-3.513e-4 -0.0158708,-0.002137 -0.0347641,-0.003965 -0.0404156,-0.003911 -0.0385316,-0.008094 -0.0274651,0.0609799 l 0.006886,0.0429815 0.0191377,0.001936 c 0.0178818,0.001809 0.0545629,1.563e-5 0.0570748,-0.002775 z M 0.24093824,0.5597283 c -0.001253,-0.007021 -0.004309,-0.026344 -0.006792,-0.0429398 -0.007435,-0.0496711 -0.004506,-0.0464212 -0.0418389,-0.0464212 l -0.0330298,0 -3.722e-5,0.0243712 c -2.235e-5,0.013404 -0.001206,0.0352409 -0.002638,0.0485264 l -0.002605,0.0241554 0.0307443,0.001615 c 0.0169096,8.8797e-4 0.0369829,0.002029 0.0446077,0.002538 0.013035,8.6909e-4 0.0137272,1.6032e-4 0.011587,-0.0118435 z M 0.61513873,0.5398681 c -0.001007,-0.001816 -0.007546,-0.005942 -0.0145311,-0.009167 -0.0121823,-0.005626 -0.0132722,-0.005129 -0.0266981,0.0121614 l -0.013997,0.0180267 0.0151582,0.005076 c 0.0140803,0.004715 0.0161091,0.004086 0.0285285,-0.008859 0.007353,-0.007665 0.0125465,-0.0154211 0.0115399,-0.0172373 z m -0.46415327,0.003613 c 2.239e-5,-0.013404 0.001219,-0.0353381 0.002664,-0.0487422 l 0.002625,-0.0243712 -0.0292058,0 c -0.0160632,0 -0.03493451,0.001277 -0.04193625,0.002839 -0.01231235,0.002745 -0.01281586,0.00385 -0.0153473,0.0336554 -0.0014404,0.0169491 -0.0035605,0.0364272 -0.0047176,0.0432844 -0.0019458,0.0115372 -9.1361e-4,0.0126048 0.01378581,0.0143064 0.0087373,0.00101 0.02853362,0.002189 0.04399186,0.00262 l 0.0281053,7.818e-4 3.722e-5,-0.0243712 z m 0.4389193,-0.0290135 c 0.0347319,-0.0421034 0.0358413,-0.0441001 0.0245053,-0.0441001 -0.0162447,0 -0.0860956,0.0766329 -0.0762285,0.0836295 0.003433,0.002434 0.008293,0.00446 0.0107951,0.0045 0.002503,3.124e-5 0.0209197,-0.0197739 0.0409284,-0.0440292 z m 0.17613826,0.0162476 c 0.002473,0 0.008319,-0.006738 0.0129964,-0.0149734 0.010476,-0.0184469 0.006788,-0.0219944 -0.0229676,-0.0220924 -0.021181,-6.239e-5 -0.0219008,3.9748e-4 -0.0447464,0.0289423 l -0.0232192,0.0290133 0.0260094,0.002456 c 0.0244263,0.002306 0.0266616,0.001672 0.036722,-0.0104449 0.005892,-0.007095 0.0127342,-0.0129008 0.0152054,-0.0129008 z m -0.2289058,0.00586 c 0.005545,-0.009358 0.005437,-0.0106955 -0.001096,-0.0134903 -0.004895,-0.002094 -0.009877,5.2831e-4 -0.0153264,0.008066 l -0.008074,0.0111694 0.004917,-0.0116053 0.004917,-0.0116053 -0.009842,0.0105976 c -0.0084,0.009045 -0.008927,0.0112589 -0.003595,0.0151137 0.009434,0.006821 0.0212234,0.003361 0.0281024,-0.008247 z M 0.92687921,0.5202708 c 0.001448,-0.0134042 0.002642,-0.0420874 0.002666,-0.06374 l 3.724e-5,-0.0393687 -0.0126814,0.0141383 c -0.0112076,0.012495 -0.0121753,0.0156221 -0.008328,0.0269052 0.002395,0.007021 0.004353,0.0293425 0.004353,0.0496018 0,0.0279715 0.001361,0.0368347 0.005666,0.0368347 0.003724,0 0.006566,-0.008345 0.008291,-0.024371 z m -0.42028295,0.006242 c 0.006895,-0.008494 0.006667,-0.00897 -0.005771,-0.0120157 -0.0172091,-0.004214 -0.0287992,0.005106 -0.0178605,0.0143609 0.0100609,0.008513 0.0152343,0.007999 0.0236313,-0.002345 z M 0.64997829,0.5007102 c 0.0253139,-0.0319334 0.0255114,-0.032397 0.0162481,-0.038133 -0.005158,-0.003193 -0.0117354,-0.00588 -0.0146178,-0.005971 -0.002881,-9.36e-5 -0.0172478,0.0139361 -0.0319237,0.0311698 l -0.0266829,0.0313343 0.0131868,0.007918 c 0.007252,0.004355 0.0143068,0.007488 0.0156753,0.006963 0.001368,-5.2564e-4 0.0140204,-0.0155014 0.0281143,-0.0332809 z m 0.20641266,-0.009458 0.036383,-0.044105 -0.0194173,-0.009279 c -0.0106792,-0.005103 -0.0208551,-0.009279 -0.0226116,-0.009279 -0.003399,0 -0.0368682,0.0421459 -0.0558072,0.0702742 l -0.0113721,0.0168898 0.0136719,0.009418 c 0.00752,0.00518 0.0157191,0.009591 0.0182212,0.009802 0.002503,2.1094e-4 0.0209218,-0.0194627 0.0409322,-0.0437204 z M 0.38223954,0.5117154 c 0.00763,-0.0164477 0.007666,-0.0163416 -0.007144,-0.020486 l -0.0110912,-0.003103 0.00432,0.0189736 c 0.002375,0.0104354 0.00498,0.0189736 0.005788,0.0189736 8.0696e-4,0 0.004465,-0.006461 0.008128,-0.0143579 z m -0.052628,-0.011412 c 0.005581,-0.0247122 0.003709,-0.0299357 -0.0107263,-0.0299357 -0.00937,0 -0.0102945,0.001424 -0.00788,0.0121469 0.001504,0.006681 0.003815,0.0181702 0.005135,0.0255317 0.003437,0.0191652 0.007984,0.0165526 0.013471,-0.007743 z m 0.14998727,0.009866 c 0.009422,-0.011181 0.008801,-0.0212333 -0.001313,-0.0212333 -0.002902,0 -0.009768,0.005332 -0.0152594,0.0118499 -0.00842,0.009992 -0.009023,0.0125282 -0.003849,0.0161762 0.008711,0.006141 0.009837,0.005767 0.02042,-0.006793 z m 0.0914876,-0.0138121 c 0.0218481,-0.0246646 0.0220588,-0.0251651 0.0128889,-0.0306363 -0.008487,-0.005064 -0.0115289,-0.003129 -0.0339463,0.0215924 -0.0256155,0.0282475 -0.0256925,0.0290124 -0.003377,0.0336548 0.001224,2.5278e-4 0.0122193,-0.0108205 0.0244352,-0.0246112 z M 0.77120696,0.4370249 C 0.77139029,0.4330179 0.76186996,0.4299159 0.73776626,0.426132 L 0.71875216,0.423149 0.68884146,0.4601398 c -0.0164507,0.0203449 -0.0299107,0.0381861 -0.0299107,0.0396471 0,0.001459 0.007026,0.003933 0.0156141,0.005493 0.008588,0.001561 0.0193616,0.004651 0.0239419,0.00687 0.007005,0.003392 0.0134285,-0.002002 0.0404504,-0.0339608 0.0176676,-0.0208965 0.0321889,-0.0394194 0.0322692,-0.0411622 z m -0.0581466,0.0501586 c 0,-9.669e-4 0.00328,-0.00462 0.007287,-0.008124 0.006604,-0.005774 0.006752,-0.00561 0.001572,0.001754 -0.005439,0.007733 -0.008858,0.010192 -0.008858,0.006372 z M 0.74428866,0.451799 c 0.004147,-0.005106 0.008473,-0.009284 0.009618,-0.009284 0.001147,0 -0.001308,0.004178 -0.005455,0.009284 -0.004147,0.005106 -0.008473,0.009284 -0.009618,0.009284 -0.001147,0 0.001308,-0.004177 0.005455,-0.009284 z m -0.29837024,0.0412245 -0.009635,-0.008102 0.024925,-0.0256359 c 0.0318044,-0.032711 0.0241114,-0.0341541 -0.008716,-0.001634 -0.0369545,0.0366069 -0.0451982,0.041052 -0.0132008,0.007118 0.0154578,-0.0163936 0.0281053,-0.0312404 0.0281053,-0.0329931 0,-0.001754 -0.004491,-0.003185 -0.009981,-0.003185 -0.00712,0 -0.0173868,0.009313 -0.0358208,0.0324949 -0.0151582,0.0190618 -0.0232693,0.032495 -0.0196208,0.032495 0.00342,0 0.014334,0.004049 0.0242508,0.009 0.0136312,0.006804 0.0194092,0.007725 0.0236793,0.003774 0.004632,-0.004286 0.003913,-0.006684 -0.003985,-0.0133288 z M 0.5645286,0.4618853 C 0.6031244,0.4187217 0.6085791,0.4107989 0.6031549,0.4057802 c -0.003475,-0.003216 -0.008272,-0.004496 -0.010662,-0.002849 -0.006226,0.00429 -0.005393,0.0129516 8.5789e-4,0.008935 0.002863,-0.001839 6.6282e-4,0.002216 -0.00489,0.00901 -0.0103417,0.0126567 -0.0198379,0.0169568 -0.0144665,0.006551 0.001742,-0.003372 0.001406,-0.004182 -7.9453e-4,-0.001934 -0.003828,0.003906 -0.004408,0.006088 -0.005352,0.0201161 -2.848e-4,0.004255 -0.001704,0.006417 -0.003148,0.004805 -0.004928,-0.005493 -0.0181881,0.00632 -0.0186725,0.0166343 -3.6998e-4,0.007856 -9.3031e-4,0.008365 -0.002387,0.002157 -0.001045,-0.004467 -0.00283,-0.008124 -0.00396,-0.008124 -0.00113,0 -0.0123064,0.009867 -0.0248358,0.0219274 -0.0191314,0.0184144 -0.0215885,0.0224525 -0.0153362,0.0252054 0.015425,0.006791 0.0211992,0.002677 0.0650208,-0.0463307 z m -0.009692,-5.2831e-4 c 0,-0.002402 0.001853,-0.005644 0.004117,-0.007205 0.002358,-0.001626 0.003059,2.3821e-4 0.001635,0.004369 -0.002766,0.008042 -0.005752,0.009514 -0.005752,0.002836 z m -0.0712994,0.008379 c 0.0245146,-0.0231125 0.0283913,-0.0320212 0.0138016,-0.0317152 -0.0102716,2.1456e-4 -0.0527419,0.043586 -0.0491054,0.0501462 0.004825,0.008704 0.00863,0.006718 0.0353038,-0.0184311 z m 0.037989,-0.001688 0.0226163,-0.0255317 -0.0135513,0 c -0.009995,0 -0.0181099,0.004741 -0.0309266,0.0180695 -0.0150507,0.015652 -0.0166318,0.0190678 -0.0118203,0.0255316 0.003055,0.004104 0.006795,0.007462 0.00831,0.007462 0.001517,0 0.0129327,-0.0114893 0.0253717,-0.0255317 z m 0.2893705,-2.2312e-4 c 0.010855,-0.0141655 0.0190459,-0.0264975 0.0182021,-0.0274048 -8.4516e-4,-9.0856e-4 -0.0118399,-0.003064 -0.0244352,-0.004786 l -0.0229009,-0.00314 -0.019778,0.0255902 c -0.010878,0.0140748 -0.019778,0.0266648 -0.019778,0.0279785 0,0.001313 0.009837,0.003156 0.0218599,0.004093 0.0120226,9.3688e-4 0.0230373,0.002092 0.0244768,0.002563 0.00144,4.7376e-4 0.0114983,-0.0107312 0.0223533,-0.0248965 z m -0.39368096,-0.009542 c 0.014147,-0.0168606 0.0250649,-0.0313881 0.0242623,-0.0322832 -8.0299e-4,-8.9655e-4 -0.008436,-0.002151 -0.0169619,-0.002793 -0.0137752,-0.001034 -0.0180487,0.00164 -0.0383578,0.0240008 -0.0125707,0.0138408 -0.0228554,0.0266288 -0.0228554,0.0284182 0,0.002815 0.0179009,0.0118855 0.0255463,0.0129449 0.001457,2.0367e-4 0.0142201,-0.0134288 0.0283675,-0.0302891 z M 0.38203898,0.447159 c 0.0193378,-0.0217864 0.0229056,-0.0278527 0.0163828,-0.0278527 -0.009286,0 -0.0536515,0.0474235 -0.0491061,0.0524911 0.005046,0.005626 0.007503,0.003777 0.0327234,-0.0246384 z M 0.14754401,0.4619785 c 0.0126514,-0.002652 0.0190222,-0.008657 0.0364331,-0.0343428 0.0116053,-0.0171208 0.0211011,-0.0321178 0.0211011,-0.0333263 0,-0.001209 -0.0105065,-0.005603 -0.0233483,-0.009765 -0.0128417,-0.004163 -0.0223494,-0.008682 -0.0211279,-0.0100429 0.001224,-0.001362 0.0130393,0.001034 0.0262618,0.005316 l 0.0240409,0.007792 0.008463,-0.0131648 c 0.004655,-0.007241 0.0139664,-0.0183877 0.0206928,-0.0247702 0.0166959,-0.0158434 0.0399219,-0.04338 0.039946,-0.0473605 7.43e-6,-0.001792 -0.0116907,-0.004001 -0.0260039,-0.004908 l -0.0260238,-0.001648 0.0300806,-8.9226e-4 c 0.028761,-8.5419e-4 0.0303589,-0.001495 0.0364331,-0.0145903 0.003493,-0.007533 0.006353,-0.014844 0.006353,-0.0162474 0,-0.001404 -0.0154582,-0.002423 -0.0343512,-0.002262 l -0.0343512,2.941e-4 -0.0749481,0.0982748 c -0.0412216,0.054051 -0.07557277,0.0998764 -0.07633612,0.10183413 -0.0016999,0.004363 0.04561128,0.004228 0.06668557,-1.9095e-4 z M 0.36003635,0.4438521 c 0.0109565,-0.0120319 0.0199207,-0.0235209 0.0199207,-0.0255316 0,-0.00201 -0.00616,-0.003658 -0.013689,-0.003658 -0.0108733,0 -0.0178086,0.004663 -0.0337189,0.0226718 -0.0200891,0.0227386 -0.0201863,0.0271486 -6.2034e-4,0.028025 0.004502,2.0366e-4 0.0171488,-0.009478 0.0281058,-0.0215091 z m 0.25395844,0.004686 c 0.0160514,-0.017474 0.02044,-0.0275723 0.0100515,-0.023128 -0.003157,0.00135 -0.00796,6.88e-6 -0.0106756,-0.002987 -0.007626,-0.008403 -0.0360894,0.0273362 -0.0291718,0.0366291 0.007493,0.010065 0.0125209,0.00829 0.0297964,-0.010516 z m 0.0305578,0.002159 c 0.0101794,-0.0134879 0.010337,-0.0221057 4.0143e-4,-0.0221057 -0.002834,0 -0.0123587,0.008224 -0.0211627,0.0182767 l -0.016008,0.0182767 0.0132479,-4.1921e-4 c 0.009252,-2.9412e-4 0.0163454,-0.004524 0.0235183,-0.0140276 z m 0.069497,-0.0304337 c 0.006888,-0.00841 0.0118254,-0.0159998 0.0109723,-0.0168657 -8.5391e-4,-8.6566e-4 -0.007188,-0.002918 -0.0140773,-0.00456 -0.0112046,-0.002671 -0.014936,-2.2186e-4 -0.0353921,0.0232249 -0.0125766,0.0144156 -0.0207905,0.0270799 -0.0182527,0.0281422 0.002536,0.001064 0.008159,0.004942 0.0124912,0.008622 0.007146,0.006068 0.008985,0.005298 0.0198061,-0.008291 0.006561,-0.00824 0.0175648,-0.021862 0.0244526,-0.0302719 z M 0.25280498,0.4334102 C 0.26985818,0.414197 0.27554788,0.4050478 0.27141158,0.4034896 0.22268318,0.3851321 0.21773848,0.3865313 0.19091048,0.4262705 l -0.0235042,0.0348159 0.0304167,0 0.0304167,0 z M 0.33913328,0.4207253 0.37550398,0.3803641 0.35378888,0.3677715 0.33207378,0.3551792 0.29980458,0.3906156 c -0.0177479,0.01949 -0.0322692,0.0369432 -0.0322692,0.0387845 0,0.001843 0.009837,0.004115 0.0218599,0.005052 0.0210646,0.001644 0.0208636,0.001736 -0.00552,0.002564 -0.0232659,7.2848e-4 -0.0288489,0.002601 -0.0371588,0.0124641 l -0.009779,0.0116053 0.032913,0 0.0329125,0 z m 0.56960943,0.0102055 c 0.005372,-0.006373 0.008971,-0.0124709 0.008002,-0.0135512 -0.003422,-0.00382 -0.0524129,-0.004211 -0.057854,-4.6156e-4 -0.003939,0.002712 -2.6015e-4,0.006872 0.0128048,0.0144918 0.0232508,0.0135596 0.0252388,0.013534 0.0370472,-4.8064e-4 z M 0.53968031,0.410832 0.55575281,0.3923379 0.54501161,0.3844919 c -0.0106498,-0.00778 -0.0109548,-0.007639 -0.0358502,0.0165017 -0.0138101,0.0133914 -0.025109,0.0250197 -0.025109,0.0258405 0,0.004106 0.0278946,0.009203 0.0333102,0.006086 0.003437,-0.001976 0.0134782,-0.0119166 0.022318,-0.0220886 z m 0.0312733,0.006765 0.0178511,-0.0202785 -0.0117791,-0.002636 c -0.0100086,-0.002239 -0.0149012,8.0877e-4 -0.0325488,0.0202781 l -0.0207692,0.0229137 0.0146977,0 c 0.0118535,0 0.0181516,-0.003924 0.0325484,-0.0202781 z M 0.84285086,0.42555 c 0.0124755,-0.0125869 0.008981,-0.0155279 -0.0184486,-0.0155279 -0.021291,0 -0.0269875,0.001652 -0.031111,0.009012 -0.005299,0.009461 -0.004866,0.009633 0.0339454,0.0134185 0.0044,4.3105e-4 0.011426,-0.002678 0.0156141,-0.006902 z M 0.49224893,0.40982915 c 7.326e-5,-0.00138 -0.00999,-0.008048 -0.0223609,-0.0148127 l -0.0224917,-0.0122982 -0.0160233,0.0155367 c -0.0159897,0.0155039 -0.0160016,0.0155416 -0.005614,0.0179428 0.0443462,0.0102539 0.0479302,0.0104622 0.0571213,0.003323 0.005081,-0.003947 0.009296,-0.008307 0.009368,-0.009691 z m 0.18259382,0.003368 c 0.0134965,-0.0155245 0.013652,-0.0217449 5.4385e-4,-0.0217449 -0.009413,0 -0.0308671,0.0308495 -0.0236997,0.0340785 0.008673,0.003907 0.009351,0.003548 0.0231562,-0.0123336 z m 0.10838484,-0.004339 c -0.0130699,-0.00539 -0.0545921,-0.002319 -0.0565132,0.004177 -0.002367,0.008011 0.0390525,0.0133654 0.0469394,0.006068 0.005227,-0.004837 0.005759,-0.004355 0.003335,0.003029 -0.002766,0.008429 -0.002511,0.008417 0.006389,-3.0501e-4 l 0.009272,-0.009084 z m -0.13126277,-0.00264 c 0.0123438,-0.0143641 0.0110678,-0.0194073 -0.004909,-0.0194073 -0.0113176,0 -0.029762,0.016324 -0.029762,0.026341 0,0.0114703 0.0227692,0.006917 0.0346715,-0.006934 z m -0.21537057,-0.0195129 0.0261156,-0.0279585 -0.0132704,-0.00651 -0.0132704,-0.00651 -0.026382,0.0307865 c -0.0227344,0.0265295 -0.0253253,0.0312507 -0.018737,0.0341429 0.014651,0.006431 0.0195944,0.003832 0.0455451,-0.0239497 z m -0.0347922,-0.009276 c 0.0162256,-0.0216125 0.0223349,-0.0329669 0.0189813,-0.0352774 -0.004859,-0.003349 -0.0574811,0.055021 -0.0574811,0.0637572 0,0.0124389 0.0174976,-5.0733e-4 0.0384997,-0.0284798 z m 0.11541648,0.007225 c 0.0162378,-0.018446 0.0173638,-0.0210491 0.0102355,-0.0236647 -0.004405,-0.001617 -0.0151807,-0.005916 -0.0239453,-0.009554 -0.015516,-0.006441 -0.0163666,-0.006235 -0.0322692,0.007806 -0.008983,0.007933 -0.0163279,0.0158136 -0.0163212,0.0175138 1.487e-5,0.002671 0.0355494,0.026539 0.0417998,0.0280706 0.001241,3.0501e-4 0.0104662,-0.008774 0.0205007,-0.0201733 z m 0.10495176,0.0130435 c 0.004189,-0.004225 0.007614,-0.009448 0.007614,-0.0116054 0,-0.005457 -0.0114001,-0.004901 -0.0213616,0.001041 -0.006646,0.003965 -0.007327,0.006303 -0.003382,0.0116054 0.006271,0.008424 0.007838,0.008329 0.0171272,-0.001041 z m -0.30501985,-0.0360246 0.034858,-0.0390654 -0.028102,-0.009677 c -0.0154561,-0.005323 -0.0294276,-0.009677 -0.0310477,-0.009677 -0.003913,0 -0.0711252,0.0738468 -0.0711252,0.078147 0,0.001843 0.0126476,0.006682 0.0281058,0.0107528 0.0154578,0.004072 0.0290839,0.007669 0.0302795,0.007993 0.001194,3.2404e-4 0.01786,-0.0169885 0.0370317,-0.0384743 z m 0.2819729,0.0228446 c 0.001313,-0.003815 0.004534,-0.005504 0.007156,-0.00375 0.002621,0.001751 0.002196,-3.5128e-4 -9.4783e-4,-0.004668 -0.00752,-0.0103352 -0.0183521,-0.009958 -0.027205,9.4631e-4 -0.005552,0.00684 -0.005928,0.009346 -0.001687,0.0112391 0.0105669,0.004715 0.0203193,0.003094 0.0226813,-0.003769 z m -0.0247406,-0.009036 0.0116827,-0.0113304 -0.009106,-0.0102978 -0.009105,-0.0102978 -0.0147673,0.0144556 -0.0147673,0.0144553 0.009185,0.007172 c 0.0119881,0.009362 0.0131188,0.009187 0.0268778,-0.004158 z m -0.171846,-0.0274683 c 0.0104823,-0.0136794 0.0190587,-0.026132 0.0190587,-0.0276731 0,-0.001541 -0.009758,-0.006032 -0.0216841,-0.009981 l -0.021684,-0.007179 -0.0199539,0.0219115 c -0.0109748,0.0120514 -0.0199539,0.0233386 -0.0199539,0.025083 0,0.003852 0.0334334,0.0227008 0.040275,0.0227061 0.002685,2.06e-6 0.0134595,-0.0111889 0.0239419,-0.0248678 z M 0.54231125,0.3221313 0.5236086,0.30400719 0.50807093,0.32073672 c -0.008546,0.009201 -0.0146373,0.0177331 -0.0135369,0.0189598 0.001101,0.001228 0.0118399,0.006771 0.0238654,0.0123199 l 0.0218646,0.0100895 0.0103753,-0.0109253 0.0103753,-0.0109253 z m -0.0589381,0.0167192 0.0134455,-0.0154661 -0.0252153,-0.008512 -0.0252153,-0.008512 -0.0123527,0.0131942 c -0.006794,0.007256 -0.0113032,0.0143916 -0.0100201,0.0158541 0.002107,0.002403 0.0380179,0.0176755 0.043606,0.0185472 0.00127,1.982e-4 0.008357,-0.0066 0.0157518,-0.0151064 z M 0.37787596,0.2939685 c 0.0122426,-0.0138575 0.0180521,-0.0233737 0.0144168,-0.0236151 -0.003348,-2.2189e-4 -0.0227259,-0.00182 -0.0430595,-0.003548 l -0.0369702,-0.003143 -0.0104526,0.0152789 c -0.005749,0.008404 -0.009723,0.0158376 -0.008831,0.0165204 0.002812,0.002155 0.0555461,0.0208423 0.0600712,0.021289 0.002375,2.3459e-4 0.0135479,-0.0100178 0.0248261,-0.0227836 z m 0.0782205,-0.0125823 c -0.001802,-5.9889e-4 -0.0139779,-0.002907 -0.0270618,-0.005129 -0.0228066,-0.003874 -0.0242534,-0.003501 -0.0350123,0.009019 -0.008326,0.009689 -0.009709,0.0135626 -0.005357,0.0150072 0.003225,0.001072 0.0133605,0.005004 0.0225211,0.008741 l 0.0166551,0.006793 0.0157637,-0.0166714 c 0.00867,-0.009169 0.014291,-0.0171611 0.0124917,-0.0177596 z m 0.0527874,0.0290329 c 0.007426,-0.009976 0.0026,-0.0148703 -0.0208555,-0.0211433 -0.0188305,-0.005036 -0.021916,-0.004733 -0.0294697,0.002888 -0.008352,0.008427 -0.008233,0.008592 0.0116512,0.0164045 0.0253453,0.009958 0.0323886,0.0102951 0.0386735,0.00185 z m 0.28745257,0.0839233 c 0,-9.6519e-4 0.00328,-0.00462 0.007287,-0.008124 0.006604,-0.005774 0.006752,-0.005609 0.001572,0.001754 -0.005439,0.007733 -0.008859,0.0101918 -0.008859,0.006371 z m 0.0291467,-0.0326408 c 0,-8.8539e-4 0.002808,-0.004207 0.006246,-0.007386 0.003599,-0.00333 0.006246,-0.003784 0.006246,-0.001064 0,0.002594 -0.002808,0.005916 -0.006246,0.007386 -0.003433,0.001472 -0.006246,0.001949 -0.006246,0.001064 z M 0.62187554,0.34176105 c 0.003034,-0.005629 0.006409,-0.009235 0.007504,-0.008013 0.001096,0.001221 -0.001385,0.005826 -0.005513,0.0102337 -0.00717,0.007656 -0.007259,0.007558 -0.001993,-0.00222 z m 0.11192503,-0.003799 c -0.0044,-0.005911 -0.004142,-0.00659 0.001572,-0.004146 0.00376,0.001606 0.006835,0.00479 0.006835,0.007069 0,0.00597 -0.002409,0.005131 -0.008407,-0.002926 z m 0.0583489,0.001266 c -1.492e-5,-0.003193 -0.001878,-0.0132395 -0.004142,-0.0223292 l -0.004117,-0.0165266 -0.0322917,0.003788 c -0.0177606,0.002083 -0.0346057,0.004743 -0.0374333,0.005909 -0.002825,0.001168 -0.00735,-0.002503 -0.0100502,-0.008151 -0.004344,-0.009089 -0.004155,-0.009581 0.001623,-0.004269 0.005138,0.004724 0.0138559,0.004979 0.0408974,0.001198 0.0189023,-0.00264 0.0350042,-0.005513 0.0357813,-0.00638 7.7755e-4,-8.6996e-4 -0.001916,-0.0202064 -0.00599,-0.0429776 l -0.007404,-0.0414024 -0.0263913,-0.0156316 c -0.0212082,-0.0125621 -0.0271001,-0.0143854 -0.0299987,-0.009285 -0.002754,0.004843 -0.00362,0.004938 -0.003671,3.9672e-4 -1.2206e-4,-0.0113361 0.0116873,-0.0108737 0.0332392,0.001304 0.01191,0.006729 0.0223545,0.0114532 0.0232094,0.0105004 8.5392e-4,-9.5317e-4 -3.8571e-4,-0.009567 -0.002758,-0.0191414 -0.002371,-0.009574 -0.003611,-0.0209461 -0.002754,-0.0252706 8.579e-4,-0.004325 0.004252,0.005576 0.007547,0.0220027 0.005972,0.0297741 0.006102,0.0299637 0.0424235,0.0615634 0.0200381,0.0174336 0.0364331,0.0295483 0.0364331,0.0269212 0,-0.002629 -0.004684,-0.0289308 -0.0104093,-0.0584532 -0.0105635,-0.0544707 -0.0120731,-0.0656207 -0.008318,-0.0614348 0.001152,0.001282 0.006853,0.0272199 0.0126726,0.0576396 0.0122911,0.0642418 0.0161286,0.0761983 0.0244572,0.0761983 0.00335,0 0.00729,0.002174 0.008766,0.004828 0.001727,0.00312 -0.001066,0.00378 -0.00791,0.001865 -0.010275,-0.002877 -0.0104679,-0.00251 -0.006597,0.0125491 0.005014,0.0194962 0.00503,0.0193196 -0.001218,0.0167154 -0.002863,-0.001193 -0.0183207,-8.9655e-4 -0.0343512,6.6401e-4 l -0.0291467,0.002835 0.001355,0.0150869 c 7.4356e-4,0.008298 2.7648e-4,0.0150866 -0.001041,0.0150866 -0.001317,0 -0.002405,-0.002613 -0.002418,-0.005803 z m 0.0610938,-0.0375257 c 9.8602e-4,-0.001098 5.3961e-4,-0.007563 -9.9399e-4,-0.0143661 -0.002367,-0.0105183 -0.0450525,-0.0518553 -0.0719733,-0.0697012 -0.006118,-0.004055 -0.006116,-0.004034 0.006486,0.0595543 l 0.006334,0.0319644 0.0291774,-0.002727 c 0.0160476,-0.001499 0.0299834,-0.003627 0.0309687,-0.004725 z m -0.0152692,0.0414417 c 0,-9.2744e-4 0.004684,-0.005109 0.0104093,-0.009291 0.005725,-0.004182 0.0104092,-0.005802 0.0104092,-0.003601 0,0.002205 -0.004684,0.006383 -0.0104092,0.009291 -0.005725,0.002907 -0.0104093,0.004528 -0.0104093,0.003601 z m 0.0337281,-0.0338785 c 0.003032,-0.005629 0.006406,-0.009234 0.007505,-0.008013 0.001098,0.001221 -0.001385,0.005826 -0.005515,0.0102337 -0.00717,0.007656 -0.007258,0.007558 -0.00199,-0.00222 z m -0.22900809,-0.004642 c 0.003034,-0.005628 0.006409,-0.009234 0.007504,-0.008013 0.001096,0.001221 -0.001385,0.005826 -0.005513,0.0102337 -0.00717,0.007656 -0.007259,0.007558 -0.001993,-0.00222 z m 0.020819,-0.0371371 c 0.003034,-0.005628 0.006409,-0.009235 0.007504,-0.008013 0.001096,0.001221 -0.001385,0.005826 -0.005513,0.0102337 -0.00717,0.007656 -0.007259,0.007557 -0.001993,-0.00222 z m 0.0295402,-0.003693 c 8.541e-5,-0.00766 0.001019,-0.010231 0.002073,-0.005715 0.001058,0.004516 9.8602e-4,0.0107834 -1.5521e-4,0.0139262 -0.001139,0.003143 -0.002005,-5.5311e-4 -0.00192,-0.008212 z m 0.19554351,0.002319 c 0,-0.006383 9.3907e-4,-0.008994 0.002101,-0.005803 0.001154,0.003193 0.001154,0.008414 0,0.0116054 -0.001154,0.003193 -0.002101,5.8362e-4 -0.002101,-0.005803 z m 0,-0.032495 c 0,-0.006382 9.3907e-4,-0.008994 0.002101,-0.005803 0.001154,0.003193 0.001154,0.008414 0,0.0116054 -0.001154,0.003193 -0.002101,5.8363e-4 -0.002101,-0.005803 z M 0.6878055,0.22476145 c 0.0105023,-0.0164434 0.0127963,-0.0178163 0.0100248,-0.005999 -0.001079,0.004594 -0.005837,0.0110535 -0.0105754,0.0143527 -0.008365,0.005824 -0.008349,0.00558 5.5235e-4,-0.008354 z m 0.18806074,-0.0342927 c -0.005268,-0.009778 -0.005181,-0.009877 0.00199,-0.00222 0.004122,0.004407 0.006605,0.009013 0.005515,0.0102337 -0.001098,0.001221 -0.004473,-0.002384 -0.007505,-0.008013 z M 0.8527924,0.16152014 c -0.004445,-0.00375 -0.00608,-0.006816 -0.003633,-0.006816 0.002447,0 0.006783,0.003132 0.009633,0.006963 0.006486,0.00871 0.004441,0.00866 -0.006001,-1.3975e-4 z M 0.73804316,0.15006235 c 0.003433,-0.002476 0.008119,-0.0045 0.0104093,-0.0045 0.00229,0 0.001351,0.002025 -0.002082,0.0045 -0.003437,0.002476 -0.00812,0.0045 -0.0104093,0.0045 -0.00229,0 -0.001351,-0.002026 0.002082,-0.0045 z m 0.0741674,-0.0124553 c 0.003004,-0.001342 0.006597,-0.001175 0.007981,3.6764e-4 0.001386,0.001541 -0.001075,0.002639 -0.005465,0.002437 -0.004851,-2.2182e-4 -0.005837,-0.00132 -0.002516,-0.002803 z" id="path4199" inkscape:connector-curvature="0" sodipodi:nodetypes="ssssssssssscsscccssssssscccsssssscsssscsscsssssssssssscssssscssssccscssscsscsscssscsssssscsscscsssscsscccscssssscscsscsscccccsscccccsssssssssssssssssscccsssssssssscccccscsssscssssssscsssscssssssssssscsssccsscsccccccsssscsssscsscscccssssssscccsssscccsssscccsscssscssssssscccccssssscccccccsssssscccsssssssssssssssssssscssccssscsscssscscsscssssssssssssssssssssssscscsscsccscsssssssscssscsssssssssscssscsccsscsscsscccsscssccscsssssscccssscssssscsssssscccssscccscssccsssssssscscsscssscscssscsssssssssssssssscscscssssscsssssssssscsssssssssssssssssccccssssssssscssscsssssssscsssssssssscssssscssscscsscscsssscssccsssssssscssssscssssssssssssscccsccccsssssccccsssssscsssssscsscssssssscscssscssssssssscsssssscccssssssssssscsssssssscsssscsscssssscccccssssscssssccsssccccscccsscsscscscsscsssscscsssssssssssssssssssssscscssssssscssssscssssscssssssscsscsssscssssssssssssssssssscscccsssssssssssssssscssccssssssscs" />
</svg>