<?xml version="1.0" encoding="utf-8" standalone="no"?>
<svg xmlns:dc="http://purl.org/dc/elements/1.1/" xmlns:cc="http://creativecommons.org/ns#" xmlns:rdf="http://www.w3.org/1999/02/22-rdf-syntax-ns#" xmlns:svg="http://www.w3.org/2000/svg" xmlns="http://www.w3.org/2000/svg" xmlns:sodipodi="http://sodipodi.sourceforge.net/DTD/sodipodi-0.dtd" xmlns:inkscape="http://www.inkscape.org/namespaces/inkscape" height="1" version="1.1" width="1" id="svg2" inkscape:version="0.91 r13725" sodipodi:docname="沥青包裹体.svg">
  <metadata id="metadata8">
    <rdf:RDF>
      <cc:Work rdf:about="">
        <dc:format>image/svg+xml</dc:format>
        <dc:type rdf:resource="http://purl.org/dc/dcmitype/StillImage" />
        <dc:title />
      </cc:Work>
    </rdf:RDF>
  </metadata>
  <defs id="defs6">
    <inkscape:path-effect effect="skeletal" id="path-effect4197" is_visible="true" pattern="m -0.015625,4.9765625 c 0,-2.76 2.24,-5 5,-5 2.76,0 5,2.24 5,5 0,2.76 -2.24,5 -5,5 -2.76,0 -5,-2.24 -5,-5 z" copytype="single_stretched" prop_scale="1" scale_y_rel="false" spacing="0" normal_offset="0" tang_offset="0" prop_units="false" vertical_pattern="false" fuse_tolerance="0" />
    <inkscape:path-effect effect="spiro" id="path-effect4195" is_visible="true" />
    <inkscape:path-effect effect="skeletal" id="path-effect4190" is_visible="true" pattern="M 0,5 C 0,2.24 2.24,0 5,0 7.76,0 10,2.24 10,5 10,7.76 7.76,10 5,10 2.24,10 0,7.76 0,5 Z" copytype="single_stretched" prop_scale="1" scale_y_rel="false" spacing="0" normal_offset="0" tang_offset="0" prop_units="false" vertical_pattern="false" fuse_tolerance="0" />
    <inkscape:path-effect effect="spiro" id="path-effect4188" is_visible="true" />
    <pattern y="0" x="0" height="6" width="6" patternUnits="userSpaceOnUse" id="EMFhbasepattern" />
    <pattern width="1" height="1" id="沥青包裹体" patternContentUnits="objectBoundingBox">
      <path inkscape:connector-curvature="0" id="path4142" d="M 0.42767286,0.5536246 C 0.33632196,0.5502166 0.24120943,0.523851 0.19042906,0.4705811 0.16571086,0.4630481 0.14690296,0.4917456 0.12702076,0.499996 c -0.005642,0.008071 -0.0370778,0.0170393 -0.0225693,0.001614 0.053736,-0.0502205 0.14643031,-0.0731786 0.2342884,-0.0835814 0.098874,-0.006995 0.19855373,-0.00269 0.2976971,7.1728e-4 0.0712005,0.00287 0.14965556,0.005919 0.20634372,0.0387417 0.0223005,0.0130931 0.0451384,0.0278007 0.0572291,0.0460952 -0.0255246,0.007892 -0.0357347,-0.0260071 -0.0591099,-0.0330021 -0.0163859,0.00556 -0.0287454,0.02798 -0.0480903,0.0378449 -0.0241813,0.0197294 -0.0599159,0.0303117 -0.096994,0.0346164 -0.0572292,0.008789 -0.11633898,0.003946 -0.17410549,0.0104029 -0.031167,0.001614 -0.0626027,0.001614 -0.0940374,1.7906e-4 z M 0.5926421,0.53999319 c 0.0569605,-0.003587 0.11929453,-0.00287 0.16819457,-0.0256483 0.0265993,-0.0143489 0.0489,-0.0335402 0.0628714,-0.0543458 C 0.77588277,0.43739966 0.71569813,0.43237756 0.65873774,0.43040461 0.5528773,0.42645848 0.4456745,0.41910501 0.33981485,0.42879018 c -0.0475563,0.005201 -0.0945751,0.0143487 -0.13756382,0.029415 0.004836,0.0173978 0.034928,0.0324641 0.055348,0.0450191 0.050243,0.0265452 0.11499453,0.0378449 0.17813423,0.0405353 0.0521231,-1.7906e-4 0.10451598,-0.001794 0.15690882,-0.003767 z M 0.46689924,0.52923153 c -0.0228368,-0.0102233 -0.0317033,-0.0269039 -0.0574964,-0.0346161 -0.0257932,-0.0179361 -0.006717,-0.0529112 0.0319726,-0.0525525 0.0389577,7.1728e-4 0.0784539,0.00574 0.11472585,0.015425 0.028749,0.007892 0.0523929,0.0347957 0.027137,0.0523729 -0.0225693,0.0141695 -0.0558857,0.0138108 -0.0838286,0.0206262 -0.0107471,0.002152 -0.0223006,0.002511 -0.0325103,-0.001256 z" style="fill:#000000;fill-opacity:1;fill-rule:nonzero;stroke:none" />
    </pattern>
  </defs>
  <sodipodi:namedview pagecolor="#ffffff" bordercolor="#666666" borderopacity="1" objecttolerance="10" gridtolerance="10" guidetolerance="10" inkscape:pageopacity="0" inkscape:pageshadow="2" inkscape:window-width="1680" inkscape:window-height="988" id="namedview4" showgrid="false" inkscape:zoom="256" inkscape:cx="0.5" inkscape:cy="0.5" inkscape:window-x="-8" inkscape:window-y="-8" inkscape:window-maximized="1" inkscape:current-layer="svg2" showguides="false" />
  <path inkscape:connector-curvature="0" id="path4142" d="M 0.42767286,0.5536246 C 0.33632196,0.5502166 0.24120943,0.523851 0.19042906,0.4705811 0.16571086,0.4630481 0.14690296,0.4917456 0.12702076,0.499996 c -0.005642,0.008071 -0.0370778,0.0170393 -0.0225693,0.001614 0.053736,-0.0502205 0.14643031,-0.0731786 0.2342884,-0.0835814 0.098874,-0.006995 0.19855373,-0.00269 0.2976971,7.1728e-4 0.0712005,0.00287 0.14965556,0.005919 0.20634372,0.0387417 0.0223005,0.0130931 0.0451384,0.0278007 0.0572291,0.0460952 -0.0255246,0.007892 -0.0357347,-0.0260071 -0.0591099,-0.0330021 -0.0163859,0.00556 -0.0287454,0.02798 -0.0480903,0.0378449 -0.0241813,0.0197294 -0.0599159,0.0303117 -0.096994,0.0346164 -0.0572292,0.008789 -0.11633898,0.003946 -0.17410549,0.0104029 -0.031167,0.001614 -0.0626027,0.001614 -0.0940374,1.7906e-4 z M 0.5926421,0.53999319 c 0.0569605,-0.003587 0.11929453,-0.00287 0.16819457,-0.0256483 0.0265993,-0.0143489 0.0489,-0.0335402 0.0628714,-0.0543458 C 0.77588277,0.43739966 0.71569813,0.43237756 0.65873774,0.43040461 0.5528773,0.42645848 0.4456745,0.41910501 0.33981485,0.42879018 c -0.0475563,0.005201 -0.0945751,0.0143487 -0.13756382,0.029415 0.004836,0.0173978 0.034928,0.0324641 0.055348,0.0450191 0.050243,0.0265452 0.11499453,0.0378449 0.17813423,0.0405353 0.0521231,-1.7906e-4 0.10451598,-0.001794 0.15690882,-0.003767 z M 0.46689924,0.52923153 c -0.0228368,-0.0102233 -0.0317033,-0.0269039 -0.0574964,-0.0346161 -0.0257932,-0.0179361 -0.006717,-0.0529112 0.0319726,-0.0525525 0.0389577,7.1728e-4 0.0784539,0.00574 0.11472585,0.015425 0.028749,0.007892 0.0523929,0.0347957 0.027137,0.0523729 -0.0225693,0.0141695 -0.0558857,0.0138108 -0.0838286,0.0206262 -0.0107471,0.002152 -0.0223006,0.002511 -0.0325103,-0.001256 z" style="fill:#000000;fill-opacity:1;fill-rule:nonzero;stroke:none" />
</svg>