<?xml version="1.0" encoding="utf-8" standalone="no"?>
<svg xmlns:dc="http://purl.org/dc/elements/1.1/" xmlns:cc="http://creativecommons.org/ns#" xmlns:rdf="http://www.w3.org/1999/02/22-rdf-syntax-ns#" xmlns:svg="http://www.w3.org/2000/svg" xmlns="http://www.w3.org/2000/svg" xmlns:sodipodi="http://sodipodi.sourceforge.net/DTD/sodipodi-0.dtd" xmlns:inkscape="http://www.inkscape.org/namespaces/inkscape" height="1" version="1.1" width="1" id="svg2" inkscape:version="0.91 r13725" sodipodi:docname="铁锰结核.svg">
  <metadata id="metadata8">
    <rdf:RDF>
      <cc:Work rdf:about="">
        <dc:format>image/svg+xml</dc:format>
        <dc:type rdf:resource="http://purl.org/dc/dcmitype/StillImage" />
        <dc:title></dc:title>
      </cc:Work>
    </rdf:RDF>
  </metadata>
  <defs id="defs6">
    <pattern width="1" height="1" id="铁锰结核" patternContentUnits="objectBoundingBox">
      <path style="fill:#000000" d="M 0.5495653,0.59084099 C 0.40877176,0.58249699 0.27167475,0.55234579 0.13737115,0.51828139 0.11268745,0.54856149 0.04663669,0.55467209 0.02520656,0.51868884 0.0031243,0.48536014 0.03736914,0.43443304 0.08674073,0.44241364 c 0.04140594,7.4374e-4 0.04902327,0.0399542 0.07033666,0.0549266 0.0869901,0.0258933 0.17878663,0.0391425 0.26969866,0.0522781 0.12917902,0.0160262 0.26324202,0.0244713 0.39160179,-7.896e-5 0.0447652,-0.008503 0.0099,-0.0587829 0.0604003,-0.0703409 0.0738876,-0.0220893 0.098949,0.0196726 0.0842614,0.065857 -0.0153646,0.0308315 -0.0709919,0.0428078 -0.10183528,0.0201865 -0.0438247,5.2271e-4 -0.084195,0.0177517 -0.12797355,0.0196287 -0.0607398,0.007293 -0.12241043,0.008917 -0.18366541,0.00597 z" id="path4276" inkscape:connector-curvature="0" sodipodi:nodetypes="cccccccccccc" />
    </pattern>
  </defs>
  <sodipodi:namedview pagecolor="#ffffff" bordercolor="#666666" borderopacity="1" objecttolerance="10" gridtolerance="10" guidetolerance="10" inkscape:pageopacity="0" inkscape:pageshadow="2" inkscape:window-width="1680" inkscape:window-height="1028" id="namedview4" showgrid="false" inkscape:zoom="256" inkscape:cx="0.5" inkscape:cy="-0.125" inkscape:window-x="1672" inkscape:window-y="-8" inkscape:window-maximized="1" inkscape:current-layer="svg2" />
  <path style="fill:#000000" d="M 0.5495653,0.59084099 C 0.40877176,0.58249699 0.27167475,0.55234579 0.13737115,0.51828139 0.11268745,0.54856149 0.04663669,0.55467209 0.02520656,0.51868884 0.0031243,0.48536014 0.03736914,0.43443304 0.08674073,0.44241364 c 0.04140594,7.4374e-4 0.04902327,0.0399542 0.07033666,0.0549266 0.0869901,0.0258933 0.17878663,0.0391425 0.26969866,0.0522781 0.12917902,0.0160262 0.26324202,0.0244713 0.39160179,-7.896e-5 0.0447652,-0.008503 0.0099,-0.0587829 0.0604003,-0.0703409 0.0738876,-0.0220893 0.098949,0.0196726 0.0842614,0.065857 -0.0153646,0.0308315 -0.0709919,0.0428078 -0.10183528,0.0201865 -0.0438247,5.2271e-4 -0.084195,0.0177517 -0.12797355,0.0196287 -0.0607398,0.007293 -0.12241043,0.008917 -0.18366541,0.00597 z" id="path4276" inkscape:connector-curvature="0" sodipodi:nodetypes="cccccccccccc" />
</svg>