<?xml version="1.0" encoding="utf-8" standalone="no"?>
<svg xmlns:dc="http://purl.org/dc/elements/1.1/" xmlns:cc="http://creativecommons.org/ns#" xmlns:rdf="http://www.w3.org/1999/02/22-rdf-syntax-ns#" xmlns:svg="http://www.w3.org/2000/svg" xmlns="http://www.w3.org/2000/svg" xmlns:sodipodi="http://sodipodi.sourceforge.net/DTD/sodipodi-0.dtd" xmlns:inkscape="http://www.inkscape.org/namespaces/inkscape" height="1" version="1.1" width="1" id="svg2" inkscape:version="0.91 r13725" sodipodi:docname="三叶石.svg">
  <metadata id="metadata8">
    <rdf:RDF>
      <cc:Work rdf:about="">
        <dc:format>image/svg+xml</dc:format>
        <dc:type rdf:resource="http://purl.org/dc/dcmitype/StillImage" />
        <dc:title></dc:title>
      </cc:Work>
    </rdf:RDF>
  </metadata>
  <defs id="defs6">
    <pattern width="1" height="1" id="三叶石" patternContentUnits="objectBoundingBox">
      <path style="fill:#000000" d="m 0.08966558,0.85783645 c 0,-0.12021871 0.19718551,-0.66653367 0.26636447,-0.73797974 0.0718403,-0.07419508 0.20314527,-0.07986947 0.27855519,-0.0120384 0.0996475,0.0896326 0.30002962,0.65179396 0.26716766,0.7495236 -0.0190867,0.056763 -0.81208732,0.0572457 -0.81208732,4.95e-4 z M 0.36934965,0.7234897 c 0.0239763,-0.20139714 0.0286986,-0.21027273 0.11188051,-0.21027273 0.0880758,0 0.10939149,0.0340073 0.13179864,0.21027273 l 0.0153906,0.12106615 0.12146881,0 c 0.11025451,0 0.12146875,-0.005176 0.12146875,-0.0560637 0,-0.0308352 -0.0322424,-0.15355363 -0.0716494,-0.27270788 C 0.70781489,0.23793544 0.57717298,0.06741875 0.47768498,0.09547491 0.36226208,0.12802494 0.26123339,0.3105113 0.16826817,0.65436884 l -0.0514189,0.19018701 0.11904374,0 0.11904381,0 0.0144128,-0.12106615 z M 0.29083801,0.53916235 c -0.0365508,-0.10070018 -0.0177501,-0.14653367 0.0713682,-0.17399406 0.0405003,-0.012479 0.0756988,-0.0211065 0.0782198,-0.0191721 0.006729,0.005176 -0.1054794,0.26917119 -0.1144123,0.26917119 -0.004172,0 -0.020003,-0.0342022 -0.0351756,-0.0760047 z m 0.30342315,-0.0475954 c -0.0335053,-0.0749897 -0.0577299,-0.13977986 -0.053833,-0.14397924 0.0164879,-0.0177674 0.17450191,0.0716835 0.17358278,0.0982644 -5.4895e-4,0.0160234 -0.0140178,0.0635414 -0.0299197,0.10559627 L 0.6551796,0.6279115 0.59426158,0.49156735 Z M 0.59301297,0.7489773 C 0.57689212,0.6482926 0.52561427,0.53870457 0.49462467,0.53870457 c -0.0391021,0 -0.088108,0.0940004 -0.1029813,0.19752897 l -0.0155626,0.10832231 0.11611888,0 0.1161187,0 -0.0153053,-0.0955782 z" id="path11621" inkscape:connector-curvature="0" />
    </pattern>
  </defs>
  <sodipodi:namedview pagecolor="#ffffff" bordercolor="#666666" borderopacity="1" objecttolerance="10" gridtolerance="10" guidetolerance="10" inkscape:pageopacity="0" inkscape:pageshadow="2" inkscape:window-width="1600" inkscape:window-height="838" id="namedview4" showgrid="false" inkscape:zoom="167.05179" inkscape:cx="1.1103786" inkscape:cy="0.19887378" inkscape:window-x="-8" inkscape:window-y="-8" inkscape:window-maximized="1" inkscape:current-layer="svg2" />
  <path style="fill:#000000" d="m 0.08966558,0.85783645 c 0,-0.12021871 0.19718551,-0.66653367 0.26636447,-0.73797974 0.0718403,-0.07419508 0.20314527,-0.07986947 0.27855519,-0.0120384 0.0996475,0.0896326 0.30002962,0.65179396 0.26716766,0.7495236 -0.0190867,0.056763 -0.81208732,0.0572457 -0.81208732,4.95e-4 z M 0.36934965,0.7234897 c 0.0239763,-0.20139714 0.0286986,-0.21027273 0.11188051,-0.21027273 0.0880758,0 0.10939149,0.0340073 0.13179864,0.21027273 l 0.0153906,0.12106615 0.12146881,0 c 0.11025451,0 0.12146875,-0.005176 0.12146875,-0.0560637 0,-0.0308352 -0.0322424,-0.15355363 -0.0716494,-0.27270788 C 0.70781489,0.23793544 0.57717298,0.06741875 0.47768498,0.09547491 0.36226208,0.12802494 0.26123339,0.3105113 0.16826817,0.65436884 l -0.0514189,0.19018701 0.11904374,0 0.11904381,0 0.0144128,-0.12106615 z M 0.29083801,0.53916235 c -0.0365508,-0.10070018 -0.0177501,-0.14653367 0.0713682,-0.17399406 0.0405003,-0.012479 0.0756988,-0.0211065 0.0782198,-0.0191721 0.006729,0.005176 -0.1054794,0.26917119 -0.1144123,0.26917119 -0.004172,0 -0.020003,-0.0342022 -0.0351756,-0.0760047 z m 0.30342315,-0.0475954 c -0.0335053,-0.0749897 -0.0577299,-0.13977986 -0.053833,-0.14397924 0.0164879,-0.0177674 0.17450191,0.0716835 0.17358278,0.0982644 -5.4895e-4,0.0160234 -0.0140178,0.0635414 -0.0299197,0.10559627 L 0.6551796,0.6279115 0.59426158,0.49156735 Z M 0.59301297,0.7489773 C 0.57689212,0.6482926 0.52561427,0.53870457 0.49462467,0.53870457 c -0.0391021,0 -0.088108,0.0940004 -0.1029813,0.19752897 l -0.0155626,0.10832231 0.11611888,0 0.1161187,0 -0.0153053,-0.0955782 z" id="path11621" inkscape:connector-curvature="0" />
</svg>