<?xml version="1.0" encoding="utf-8" standalone="no"?>
<svg xmlns:dc="http://purl.org/dc/elements/1.1/" xmlns:cc="http://creativecommons.org/ns#" xmlns:rdf="http://www.w3.org/1999/02/22-rdf-syntax-ns#" xmlns:svg="http://www.w3.org/2000/svg" xmlns="http://www.w3.org/2000/svg" xmlns:sodipodi="http://sodipodi.sourceforge.net/DTD/sodipodi-0.dtd" xmlns:inkscape="http://www.inkscape.org/namespaces/inkscape" height="1" version="1.1" width="1" id="svg2" inkscape:version="0.91 r13725" sodipodi:docname="介形类.svg">
  <metadata id="metadata8">
    <rdf:RDF>
      <cc:Work rdf:about="">
        <dc:format>image/svg+xml</dc:format>
        <dc:type rdf:resource="http://purl.org/dc/dcmitype/StillImage" />
        <dc:title></dc:title>
      </cc:Work>
    </rdf:RDF>
  </metadata>
  <defs id="defs6">
    <pattern width="1" height="1" id="介形类" patternContentUnits="objectBoundingBox">
      <path style="fill:#000000" d="M 0.26448924,0.6257794 C 0.03664183,0.6209624 0.03782915,0.6217254 0.10134619,0.52097548 c 0.039541,-0.0627189 0.17307889,-0.15029043 0.27184243,-0.17826883 0.11193001,-0.0317081 0.2775326,-0.006628 0.39967217,0.0605277 0.0646081,0.0355236 0.15127841,0.1350091 0.14015626,0.19228691 l -0.007813,0.0402335 -0.21954578,-0.002856 C 0.56490856,0.63132876 0.37538224,0.62812476 0.26448924,0.6257794 Z M 0.87237965,0.5575596 C 0.80816152,0.46147534 0.66500944,0.3650706 0.52722035,0.3576394 0.40589483,0.3510964 0.3199044,0.3772947 0.2212313,0.4508648 0.1585714,0.4975838 0.10020895,0.57913873 0.11393094,0.58936996 c 0.006318,0.00471 0.35861242,1.7245e-4 0.53613124,0.007608 0.20410938,0.004845 0.2146179,0.001065 0.22231747,-0.0394184 z" id="path13019" inkscape:connector-curvature="0" sodipodi:nodetypes="ssssscsscssccc" />
    </pattern>
  </defs>
  <sodipodi:namedview pagecolor="#ffffff" bordercolor="#666666" borderopacity="1" objecttolerance="10" gridtolerance="10" guidetolerance="10" inkscape:pageopacity="0" inkscape:pageshadow="2" inkscape:window-width="1600" inkscape:window-height="838" id="namedview4" showgrid="false" inkscape:zoom="256" inkscape:cx="0.5" inkscape:cy="0.5" inkscape:window-x="-8" inkscape:window-y="-8" inkscape:window-maximized="1" inkscape:current-layer="svg2" />
  <path style="fill:#000000" d="M 0.26448924,0.6257794 C 0.03664183,0.6209624 0.03782915,0.6217254 0.10134619,0.52097548 c 0.039541,-0.0627189 0.17307889,-0.15029043 0.27184243,-0.17826883 0.11193001,-0.0317081 0.2775326,-0.006628 0.39967217,0.0605277 0.0646081,0.0355236 0.15127841,0.1350091 0.14015626,0.19228691 l -0.007813,0.0402335 -0.21954578,-0.002856 C 0.56490856,0.63132876 0.37538224,0.62812476 0.26448924,0.6257794 Z M 0.87237965,0.5575596 C 0.80816152,0.46147534 0.66500944,0.3650706 0.52722035,0.3576394 0.40589483,0.3510964 0.3199044,0.3772947 0.2212313,0.4508648 0.1585714,0.4975838 0.10020895,0.57913873 0.11393094,0.58936996 c 0.006318,0.00471 0.35861242,1.7245e-4 0.53613124,0.007608 0.20410938,0.004845 0.2146179,0.001065 0.22231747,-0.0394184 z" id="path13019" inkscape:connector-curvature="0" sodipodi:nodetypes="ssssscsscssccc" />
</svg>