<?xml version="1.0" encoding="utf-8" standalone="no"?>
<svg xmlns:dc="http://purl.org/dc/elements/1.1/" xmlns:cc="http://creativecommons.org/ns#" xmlns:rdf="http://www.w3.org/1999/02/22-rdf-syntax-ns#" xmlns:svg="http://www.w3.org/2000/svg" xmlns="http://www.w3.org/2000/svg" xmlns:sodipodi="http://sodipodi.sourceforge.net/DTD/sodipodi-0.dtd" xmlns:inkscape="http://www.inkscape.org/namespaces/inkscape" height="1" version="1.1" width="1" id="svg2" inkscape:version="0.91 r13725" sodipodi:docname="双壳类.svg">
  <metadata id="metadata8">
    <rdf:RDF>
      <cc:Work rdf:about="">
        <dc:format>image/svg+xml</dc:format>
        <dc:type rdf:resource="http://purl.org/dc/dcmitype/StillImage" />
        <dc:title></dc:title>
      </cc:Work>
    </rdf:RDF>
  </metadata>
  <defs id="defs6">
    <pattern width="1" height="1" id="双壳类" patternContentUnits="objectBoundingBox">
      <path style="fill:#000000" d="m 0.33773728,0.66825944 c -0.0602452,-0.0184615 -0.11802877,-0.0399076 -0.12840731,-0.0476583 -0.0103798,-0.00775 -0.01887,-0.0377205 -0.01887,-0.0665998 0,-0.0417125 0.009372,-0.0603845 0.0455775,-0.0908185 0.0250674,-0.0210709 0.0509525,-0.0383107 0.0575214,-0.0383107 0.006572,0 0.0229317,-0.0297679 0.036361,-0.066151 0.0134294,-0.0363831 0.0366399,-0.0720366 0.0515782,-0.0792304 0.0351977,-0.0169501 0.0968698,-0.0167031 0.13265706,5.3098e-4 0.0305315,0.0147031 0.26307813,0.22552673 0.26322234,0.23863382 2.4274e-4,0.0216695 -0.0726319,0.0987547 -0.124651,0.13186203 -0.0859898,0.0547274 -0.17747626,0.0598803 -0.31498853,0.0177414 z m 0.24279902,-0.00434 C 0.6385884,0.64019474 0.748114,0.55147455 0.748114,0.52817446 c 0,-0.0209091 -0.24148116,-0.23247357 -0.27587671,-0.24169892 -0.0484408,-0.0129922 -0.10132169,0.0232186 -0.12123175,0.0830141 -0.009888,0.0296814 -0.0340637,0.0608236 -0.0588827,0.0758333 -0.0583778,0.0353056 -0.0987385,0.1049284 -0.0782049,0.13490645 0.0188946,0.0275852 0.0898652,0.0600551 0.18933118,0.0866213 0.0969366,0.0258907 0.10717703,0.0257212 0.17728741,-0.002931 z" id="path8186" inkscape:connector-curvature="0" />
    </pattern>
  </defs>
  <sodipodi:namedview pagecolor="#ffffff" bordercolor="#666666" borderopacity="1" objecttolerance="10" gridtolerance="10" guidetolerance="10" inkscape:pageopacity="0" inkscape:pageshadow="2" inkscape:window-width="1600" inkscape:window-height="838" id="namedview4" showgrid="false" inkscape:zoom="256" inkscape:cx="0.5" inkscape:cy="0.5" inkscape:window-x="-8" inkscape:window-y="-8" inkscape:window-maximized="1" inkscape:current-layer="svg2" />
  <path style="fill:#000000" d="m 0.33773728,0.66825944 c -0.0602452,-0.0184615 -0.11802877,-0.0399076 -0.12840731,-0.0476583 -0.0103798,-0.00775 -0.01887,-0.0377205 -0.01887,-0.0665998 0,-0.0417125 0.009372,-0.0603845 0.0455775,-0.0908185 0.0250674,-0.0210709 0.0509525,-0.0383107 0.0575214,-0.0383107 0.006572,0 0.0229317,-0.0297679 0.036361,-0.066151 0.0134294,-0.0363831 0.0366399,-0.0720366 0.0515782,-0.0792304 0.0351977,-0.0169501 0.0968698,-0.0167031 0.13265706,5.3098e-4 0.0305315,0.0147031 0.26307813,0.22552673 0.26322234,0.23863382 2.4274e-4,0.0216695 -0.0726319,0.0987547 -0.124651,0.13186203 -0.0859898,0.0547274 -0.17747626,0.0598803 -0.31498853,0.0177414 z m 0.24279902,-0.00434 C 0.6385884,0.64019474 0.748114,0.55147455 0.748114,0.52817446 c 0,-0.0209091 -0.24148116,-0.23247357 -0.27587671,-0.24169892 -0.0484408,-0.0129922 -0.10132169,0.0232186 -0.12123175,0.0830141 -0.009888,0.0296814 -0.0340637,0.0608236 -0.0588827,0.0758333 -0.0583778,0.0353056 -0.0987385,0.1049284 -0.0782049,0.13490645 0.0188946,0.0275852 0.0898652,0.0600551 0.18933118,0.0866213 0.0969366,0.0258907 0.10717703,0.0257212 0.17728741,-0.002931 z" id="path8186" inkscape:connector-curvature="0" />
</svg>