<?xml version="1.0" encoding="utf-8" standalone="no"?>
<svg xmlns:dc="http://purl.org/dc/elements/1.1/" xmlns:cc="http://creativecommons.org/ns#" xmlns:rdf="http://www.w3.org/1999/02/22-rdf-syntax-ns#" xmlns:svg="http://www.w3.org/2000/svg" xmlns="http://www.w3.org/2000/svg" xmlns:sodipodi="http://sodipodi.sourceforge.net/DTD/sodipodi-0.dtd" xmlns:inkscape="http://www.inkscape.org/namespaces/inkscape" height="1" version="1.1" width="1" id="svg2" inkscape:version="0.91 r13725" sodipodi:docname="叶肢介.svg">
  <metadata id="metadata8">
    <rdf:RDF>
      <cc:Work rdf:about="">
        <dc:format>image/svg+xml</dc:format>
        <dc:type rdf:resource="http://purl.org/dc/dcmitype/StillImage" />
        <dc:title></dc:title>
      </cc:Work>
    </rdf:RDF>
  </metadata>
  <defs id="defs6">
    <pattern width="1" height="1" id="叶肢介" patternContentUnits="objectBoundingBox">
      <path style="fill:#000000" d="M 0.20378882,0.62661356 C 0.05960351,0.55349786 0.04362468,0.48852468 0.14152932,0.37345225 c 0.0600891,-0.0706258 0.0612535,-0.0709355 0.25460953,-0.0677085 0.22727585,0.003793 0.46824625,0.0498196 0.50504397,0.0964662 0.0341652,0.043309 -0.0140152,0.12762301 -0.0981046,0.17167933 -0.0910922,0.0477253 -0.33056719,0.11490683 -0.4095956,0.11490683 -0.0368882,0 -0.12225031,-0.027982 -0.18969384,-0.0621825 z m 0.44073974,-0.0347057 c 0.0571404,-0.0299372 0.0586886,-0.0355748 0.0220492,-0.080288 -0.0236086,-0.0288111 -0.0329425,-0.0686837 -0.0232828,-0.0994593 0.0150437,-0.0479268 0.00788,-0.0522729 -0.10690839,-0.0648534 C 0.26061902,0.31708356 0.23001155,0.32644086 0.1241908,0.47332507 0.1059496,0.49864447 0.184773,0.57463959 0.27720489,0.62084912 c 0.0653159,0.0326535 0.28240595,0.0155491 0.36732372,-0.0289414 z M 0.83875337,0.47955681 c 0.0359445,-0.0537037 0.0131952,-0.0830915 -0.0643207,-0.0830915 -0.0759958,0 -0.10355397,0.0509411 -0.0505054,0.0933591 0.053401,0.0426997 0.081028,0.0402293 0.11482609,-0.0102677 z" id="path12320" inkscape:connector-curvature="0" />
    </pattern>
  </defs>
  <sodipodi:namedview pagecolor="#ffffff" bordercolor="#666666" borderopacity="1" objecttolerance="10" gridtolerance="10" guidetolerance="10" inkscape:pageopacity="0" inkscape:pageshadow="2" inkscape:window-width="1600" inkscape:window-height="838" id="namedview4" showgrid="false" inkscape:zoom="128" inkscape:cx="-0.39372948" inkscape:cy="-1.0092956" inkscape:window-x="-8" inkscape:window-y="-8" inkscape:window-maximized="1" inkscape:current-layer="svg2" />
  <path style="fill:#000000" d="M 0.20378882,0.62661356 C 0.05960351,0.55349786 0.04362468,0.48852468 0.14152932,0.37345225 c 0.0600891,-0.0706258 0.0612535,-0.0709355 0.25460953,-0.0677085 0.22727585,0.003793 0.46824625,0.0498196 0.50504397,0.0964662 0.0341652,0.043309 -0.0140152,0.12762301 -0.0981046,0.17167933 -0.0910922,0.0477253 -0.33056719,0.11490683 -0.4095956,0.11490683 -0.0368882,0 -0.12225031,-0.027982 -0.18969384,-0.0621825 z m 0.44073974,-0.0347057 c 0.0571404,-0.0299372 0.0586886,-0.0355748 0.0220492,-0.080288 -0.0236086,-0.0288111 -0.0329425,-0.0686837 -0.0232828,-0.0994593 0.0150437,-0.0479268 0.00788,-0.0522729 -0.10690839,-0.0648534 C 0.26061902,0.31708356 0.23001155,0.32644086 0.1241908,0.47332507 0.1059496,0.49864447 0.184773,0.57463959 0.27720489,0.62084912 c 0.0653159,0.0326535 0.28240595,0.0155491 0.36732372,-0.0289414 z M 0.83875337,0.47955681 c 0.0359445,-0.0537037 0.0131952,-0.0830915 -0.0643207,-0.0830915 -0.0759958,0 -0.10355397,0.0509411 -0.0505054,0.0933591 0.053401,0.0426997 0.081028,0.0402293 0.11482609,-0.0102677 z" id="path12320" inkscape:connector-curvature="0" />
</svg>