<?xml version="1.0" encoding="utf-8" standalone="no"?>
<svg xmlns:dc="http://purl.org/dc/elements/1.1/" xmlns:cc="http://creativecommons.org/ns#" xmlns:rdf="http://www.w3.org/1999/02/22-rdf-syntax-ns#" xmlns:svg="http://www.w3.org/2000/svg" xmlns="http://www.w3.org/2000/svg" xmlns:sodipodi="http://sodipodi.sourceforge.net/DTD/sodipodi-0.dtd" xmlns:inkscape="http://www.inkscape.org/namespaces/inkscape" height="1" version="1.1" width="1" id="svg2" inkscape:version="0.91 r13725" sodipodi:docname="孢子花粉.svg">
  <metadata id="metadata8">
    <rdf:RDF>
      <cc:Work rdf:about="">
        <dc:format>image/svg+xml</dc:format>
        <dc:type rdf:resource="http://purl.org/dc/dcmitype/StillImage" />
        <dc:title></dc:title>
      </cc:Work>
    </rdf:RDF>
  </metadata>
  <defs id="defs6">
    <pattern width="1" height="1" id="孢子花粉" patternContentUnits="objectBoundingBox">
      <path style="fill:#000000" d="m 0.29399634,0.82774587 c -0.0693224,-0.0201105 -0.090246,-0.0726149 -0.0770772,-0.19341386 0.0184691,-0.16942012 0.0398378,-0.21908906 0.13763543,-0.31991829 0.0840498,-0.0866551 0.10135569,-0.0963822 0.17147755,-0.0963822 0.0738581,0 0.0841624,0.006927 0.19436176,0.1306632 l 0.11636881,0.13066333 0.0122313,0.13211377 c 0.0146661,0.15841638 0.003732,0.18378807 -0.0935891,0.21720594 -0.07719,0.0265047 -0.36886241,0.0259157 -0.46140817,-9.2953e-4 z m 0.3932089,-0.0137664 c 0.0844482,-2.497e-4 0.15291631,-0.0650392 0.15291631,-0.14469889 0,-0.0592027 -0.0757119,-0.25907557 -0.0981378,-0.25907557 -0.008537,0 -0.046512,-0.0354906 -0.0843877,-0.078868 -0.0789892,-0.0904625 -0.19003184,-0.12600254 -0.20957952,-0.0670775 -0.005835,0.0175873 -0.0427259,0.0575386 -0.081981,0.0887805 -0.0545289,0.0433977 -0.0776759,0.0787542 -0.0980799,0.149814 -0.0350411,0.12203641 -0.0376908,0.22864926 -0.006578,0.26464 0.0283063,0.0327434 0.20967891,0.0660939 0.29632004,0.0544867 0.0319802,-0.004284 0.0902583,-0.007885 0.12950685,-0.008001 z M 0.3583889,0.66515769 c 3.325e-5,-0.008105 0.0355371,-0.0363561 0.0789124,-0.0627798 0.0694703,-0.0423206 0.0800675,-0.0571995 0.0889666,-0.12491233 l 0.010103,-0.0768692 0.002359,0.0783884 c 0.002237,0.0743933 0.006589,0.0806809 0.0853748,0.12336687 0.0456593,0.024738 0.0792793,0.0493021 0.0747107,0.054587 -0.004569,0.005286 -0.0444842,-0.009992 -0.0886996,-0.0339472 l -0.0803921,-0.043556 -0.085691,0.0502296 c -0.04713,0.0276262 -0.0856693,0.0435981 -0.0856428,0.0354927 z" id="path28113" inkscape:connector-curvature="0" />
    </pattern>
  </defs>
  <sodipodi:namedview pagecolor="#ffffff" bordercolor="#666666" borderopacity="1" objecttolerance="10" gridtolerance="10" guidetolerance="10" inkscape:pageopacity="0" inkscape:pageshadow="2" inkscape:window-width="1600" inkscape:window-height="838" id="namedview4" showgrid="false" inkscape:zoom="128" inkscape:cx="4.4109578" inkscape:cy="-0.81290296" inkscape:window-x="-8" inkscape:window-y="-8" inkscape:window-maximized="1" inkscape:current-layer="svg2" />
  <path style="fill:#000000" d="m 0.29399634,0.82774587 c -0.0693224,-0.0201105 -0.090246,-0.0726149 -0.0770772,-0.19341386 0.0184691,-0.16942012 0.0398378,-0.21908906 0.13763543,-0.31991829 0.0840498,-0.0866551 0.10135569,-0.0963822 0.17147755,-0.0963822 0.0738581,0 0.0841624,0.006927 0.19436176,0.1306632 l 0.11636881,0.13066333 0.0122313,0.13211377 c 0.0146661,0.15841638 0.003732,0.18378807 -0.0935891,0.21720594 -0.07719,0.0265047 -0.36886241,0.0259157 -0.46140817,-9.2953e-4 z m 0.3932089,-0.0137664 c 0.0844482,-2.497e-4 0.15291631,-0.0650392 0.15291631,-0.14469889 0,-0.0592027 -0.0757119,-0.25907557 -0.0981378,-0.25907557 -0.008537,0 -0.046512,-0.0354906 -0.0843877,-0.078868 -0.0789892,-0.0904625 -0.19003184,-0.12600254 -0.20957952,-0.0670775 -0.005835,0.0175873 -0.0427259,0.0575386 -0.081981,0.0887805 -0.0545289,0.0433977 -0.0776759,0.0787542 -0.0980799,0.149814 -0.0350411,0.12203641 -0.0376908,0.22864926 -0.006578,0.26464 0.0283063,0.0327434 0.20967891,0.0660939 0.29632004,0.0544867 0.0319802,-0.004284 0.0902583,-0.007885 0.12950685,-0.008001 z M 0.3583889,0.66515769 c 3.325e-5,-0.008105 0.0355371,-0.0363561 0.0789124,-0.0627798 0.0694703,-0.0423206 0.0800675,-0.0571995 0.0889666,-0.12491233 l 0.010103,-0.0768692 0.002359,0.0783884 c 0.002237,0.0743933 0.006589,0.0806809 0.0853748,0.12336687 0.0456593,0.024738 0.0792793,0.0493021 0.0747107,0.054587 -0.004569,0.005286 -0.0444842,-0.009992 -0.0886996,-0.0339472 l -0.0803921,-0.043556 -0.085691,0.0502296 c -0.04713,0.0276262 -0.0856693,0.0435981 -0.0856428,0.0354927 z" id="path28113" inkscape:connector-curvature="0" />
</svg>