<?xml version="1.0" encoding="utf-8" standalone="no"?>
<svg xmlns:dc="http://purl.org/dc/elements/1.1/" xmlns:cc="http://creativecommons.org/ns#" xmlns:rdf="http://www.w3.org/1999/02/22-rdf-syntax-ns#" xmlns:svg="http://www.w3.org/2000/svg" xmlns="http://www.w3.org/2000/svg" xmlns:sodipodi="http://sodipodi.sourceforge.net/DTD/sodipodi-0.dtd" xmlns:inkscape="http://www.inkscape.org/namespaces/inkscape" height="1" version="1.1" width="1" id="svg2" inkscape:version="0.91 r13725" sodipodi:docname="层状叠层石.svg">
  <metadata id="metadata8">
    <rdf:RDF>
      <cc:Work rdf:about="">
        <dc:format>image/svg+xml</dc:format>
        <dc:type rdf:resource="http://purl.org/dc/dcmitype/StillImage" />
        <dc:title></dc:title>
      </cc:Work>
    </rdf:RDF>
  </metadata>
  <defs id="defs6">
    <pattern width="1" height="1" id="层状叠层石" patternContentUnits="objectBoundingBox">
      <path style="fill:#000000" d="m 0.8479848,0.66232306 -0.14369905,0.00357 c -0.22795133,0.005663 -0.70432574,0.0128029 -0.65395115,-0.0243273 0.0229003,-0.0168791 0.13298653,-0.0258709 0.23031303,-0.0295293 0.0973265,-0.003659 0.16056271,-0.0140015 0.14052492,-0.0229829 -0.024442,-0.0531161 -0.0741484,-0.0707677 -0.1053713,-0.100567 -0.0378908,-0.0455225 -0.0503694,-0.0430593 -0.11180582,0.0220692 -0.0380349,0.040321 -0.0808478,0.0664144 -0.0951393,0.0579851 -0.0390651,-0.0230407 0.11121509,-0.16884094 0.17418859,-0.16899534 0.0299439,-7.498e-5 0.0782632,0.032005 0.10737621,0.0712855 0.0291131,0.0392805 0.0687142,0.071419 0.0880026,0.071419 0.0192884,0 0.0588895,-0.0321387 0.0880025,-0.071419 0.0854739,-0.11532453 0.20124027,-0.0958893 0.28780667,0.0483181 L 0.9261098,0.63888561 M 0.86096915,0.60347916 0.8040087,0.54106161 c -0.0732405,-0.0802573 -0.11868445,-0.0887174 -0.22149271,0.001189 l -0.0816685,0.071419 0.17615454,-0.001189 0.14099838,-0.009001 M 0.05190179,0.47905062 c 1.3993e-4,-0.014341 0.0327994,-0.0622306 0.0725728,-0.10642112 0.0876971,-0.0974367 0.21119055,-0.10484138 0.29945057,-0.0179551 0.059588,0.0586603 0.0674697,0.0588069 0.13180286,0.002452 0.0376338,-0.0329667 0.0892497,-0.070022 0.1147023,-0.0823452 0.0522894,-0.0253166 0.23477258,0.0983154 0.23477258,0.15905783 0,0.0217781 -0.0357402,0.007168 -0.0824446,-0.0337014 -0.10116152,-0.0885234 -0.13415512,-0.088623 -0.24024225,-7.269e-4 -0.1054183,0.0873432 -0.13129758,0.0873432 -0.20818512,0 -0.0814474,-0.0925228 -0.11856634,-0.0897578 -0.23020177,0.0171474 -0.0508665,0.0487115 -0.0923691,0.0768328 -0.09222737,0.0624925 z" id="path26630" inkscape:connector-curvature="0" sodipodi:nodetypes="csssccsscssssccssccccsssssssssc" />
    </pattern>
  </defs>
  <sodipodi:namedview pagecolor="#ffffff" bordercolor="#666666" borderopacity="1" objecttolerance="10" gridtolerance="10" guidetolerance="10" inkscape:pageopacity="0" inkscape:pageshadow="2" inkscape:window-width="1600" inkscape:window-height="838" id="namedview4" showgrid="false" inkscape:zoom="256" inkscape:cx="0.5" inkscape:cy="0.5" inkscape:window-x="-8" inkscape:window-y="-8" inkscape:window-maximized="1" inkscape:current-layer="svg2" />
  <path style="fill:#000000" d="m 0.8479848,0.66232306 -0.14369905,0.00357 c -0.22795133,0.005663 -0.70432574,0.0128029 -0.65395115,-0.0243273 0.0229003,-0.0168791 0.13298653,-0.0258709 0.23031303,-0.0295293 0.0973265,-0.003659 0.16056271,-0.0140015 0.14052492,-0.0229829 -0.024442,-0.0531161 -0.0741484,-0.0707677 -0.1053713,-0.100567 -0.0378908,-0.0455225 -0.0503694,-0.0430593 -0.11180582,0.0220692 -0.0380349,0.040321 -0.0808478,0.0664144 -0.0951393,0.0579851 -0.0390651,-0.0230407 0.11121509,-0.16884094 0.17418859,-0.16899534 0.0299439,-7.498e-5 0.0782632,0.032005 0.10737621,0.0712855 0.0291131,0.0392805 0.0687142,0.071419 0.0880026,0.071419 0.0192884,0 0.0588895,-0.0321387 0.0880025,-0.071419 0.0854739,-0.11532453 0.20124027,-0.0958893 0.28780667,0.0483181 L 0.9261098,0.63888561 M 0.86096915,0.60347916 0.8040087,0.54106161 c -0.0732405,-0.0802573 -0.11868445,-0.0887174 -0.22149271,0.001189 l -0.0816685,0.071419 0.17615454,-0.001189 0.14099838,-0.009001 M 0.05190179,0.47905062 c 1.3993e-4,-0.014341 0.0327994,-0.0622306 0.0725728,-0.10642112 0.0876971,-0.0974367 0.21119055,-0.10484138 0.29945057,-0.0179551 0.059588,0.0586603 0.0674697,0.0588069 0.13180286,0.002452 0.0376338,-0.0329667 0.0892497,-0.070022 0.1147023,-0.0823452 0.0522894,-0.0253166 0.23477258,0.0983154 0.23477258,0.15905783 0,0.0217781 -0.0357402,0.007168 -0.0824446,-0.0337014 -0.10116152,-0.0885234 -0.13415512,-0.088623 -0.24024225,-7.269e-4 -0.1054183,0.0873432 -0.13129758,0.0873432 -0.20818512,0 -0.0814474,-0.0925228 -0.11856634,-0.0897578 -0.23020177,0.0171474 -0.0508665,0.0487115 -0.0923691,0.0768328 -0.09222737,0.0624925 z" id="path26630" inkscape:connector-curvature="0" sodipodi:nodetypes="csssccsscssssccssccccsssssssssc" />
</svg>