<?xml version="1.0" encoding="utf-8" standalone="no"?>
<svg xmlns:dc="http://purl.org/dc/elements/1.1/" xmlns:cc="http://creativecommons.org/ns#" xmlns:rdf="http://www.w3.org/1999/02/22-rdf-syntax-ns#" xmlns:svg="http://www.w3.org/2000/svg" xmlns="http://www.w3.org/2000/svg" xmlns:sodipodi="http://sodipodi.sourceforge.net/DTD/sodipodi-0.dtd" xmlns:inkscape="http://www.inkscape.org/namespaces/inkscape" height="1" version="1.1" width="1" id="svg2" inkscape:version="0.91 r13725" sodipodi:docname="放射虫.svg">
  <metadata id="metadata8">
    <rdf:RDF>
      <cc:Work rdf:about="">
        <dc:format>image/svg+xml</dc:format>
        <dc:type rdf:resource="http://purl.org/dc/dcmitype/StillImage" />
        <dc:title></dc:title>
      </cc:Work>
    </rdf:RDF>
  </metadata>
  <defs id="defs6">
    <pattern width="1" height="1" id="放射虫" patternContentUnits="objectBoundingBox">
      <path style="fill:#000000" d="m 0.47774489,0.83760024 c -1.6308e-4,-0.0536859 -0.009441,-0.0648275 -0.0777196,-0.0938044 -0.0761746,-0.0323464 -0.0782775,-0.0323464 -0.12054904,0.008087 -0.054202,0.0513498 -0.0784921,0.0323463 -0.0261783,-0.0202165 0.0448894,-0.0452849 0.0466489,-0.0610537 0.0163078,-0.14546873 -0.0188827,-0.053057 -0.0313282,-0.0622218 -0.0825261,-0.0622218 -0.0330448,0 -0.0654029,-0.008536 -0.0717114,-0.0188687 -0.006866,-0.0112314 0.0150204,-0.0188687 0.0541591,-0.0188687 0.0539016,0 0.0707244,-0.009884 0.0940274,-0.0553033 0.0381946,-0.0744415 0.0356197,-0.11963658 -0.009012,-0.16024922 -0.0205993,-0.0188687 -0.0373363,-0.0408822 -0.0373363,-0.0497325 0,-0.0292016 0.0326156,-0.0161732 0.0768613,0.0296508 0.0369071,0.0386359 0.0478505,0.0417807 0.0716685,0.0206657 0.0154495,-0.0139269 0.0447606,-0.0278538 0.0652312,-0.0318971 0.0278949,-0.004942 0.0386238,-0.0242598 0.0429582,-0.0769124 0.007725,-0.09384935 0.0407695,-0.08994083 0.0407695,0.004942 0,0.0664448 0.00515,0.0749806 0.0441598,0.0749806 0.0244617,0 0.0544166,0.0125791 0.0669049,0.0274045 0.019741,0.0238105 0.0313282,0.021115 0.0863885,-0.0215642 0.0781916,-0.0601552 0.0994347,-0.0484746 0.0330448,0.0184194 l -0.0485372,0.0489688 0.0321865,0.0850439 c 0.0296115,0.0780356 0.0373363,0.0850439 0.0958298,0.0850439 0.0377654,0 0.0589227,0.007637 0.0521421,0.0188687 -0.006437,0.0103329 -0.0347614,0.0188687 -0.063343,0.0188687 -0.0436019,0 -0.0566911,0.0125791 -0.0824832,0.0786645 -0.0304699,0.077811 -0.0300407,0.0792036 0.0158786,0.12781301 0.0609826,0.0641985 0.0356197,0.0894467 -0.0278949,0.0278538 l -0.0488805,-0.0472616 -0.0776767,0.0327956 c -0.0684499,0.0292016 -0.0776767,0.0399837 -0.0778483,0.0938493 -1.03e-4,0.0336941 -0.008583,0.060919 -0.0188827,0.060919 -0.0102997,0 -0.0188827,-0.0274045 -0.0188827,-0.060919 z M 0.477938,0.69208659 c 0,-0.0206657 -0.007725,-0.0523831 -0.0171661,-0.0703084 -0.009441,-0.0179702 -0.0218868,-0.0473065 -0.0274658,-0.0653666 -0.007296,-0.0242598 -0.0296116,-0.0327956 -0.0840281,-0.0327956 l -0.073943,0 0.0193119,0.056067 c 0.0210285,0.060919 0.11415465,0.15014098 0.15664078,0.15014098 0.0145912,0 0.0266075,-0.0170717 0.0266075,-0.0377374 z M 0.62110339,0.690029 c 0.0572919,-0.0354911 0.0984047,-0.0983419 0.0984047,-0.14987142 0,-0.0103329 -0.0347614,-0.0161732 -0.0770329,-0.0130284 -0.0737285,0.005391 -0.0781058,0.009434 -0.1019238,0.0901205 -0.0137329,0.046408 -0.0248909,0.0906596 -0.02532,0.0983868 -4.9782e-4,0.0251583 0.0403404,0.0148254 0.10574326,-0.0256075 z M 0.45163093,0.40187693 c 0.0505542,-0.14722082 0.0291824,-0.17332253 -0.0757026,-0.0925914 -0.0607251,0.0466776 -0.11127933,0.14299783 -0.0875901,0.16685326 0.006437,0.00629 0.0399112,0.009434 0.0746726,0.00629 0.0548887,-0.004942 0.0661754,-0.0152747 0.088663,-0.0805514 z m 0.25925124,0.0327956 C 0.68899537,0.34518097 0.58166425,0.25016356 0.53531574,0.27905065 c -0.019741,0.0121299 -0.019741,0.0287523 -0.001017,0.0877395 0.0128746,0.0399837 0.0261783,0.0831121 0.0291824,0.0960058 0.003618,0.0139269 0.0369071,0.0233613 0.0830411,0.0233613 0.0746297,0 0.0765609,-0.001559 0.0642442,-0.0515295 z" id="path4147" inkscape:connector-curvature="0" />
    </pattern>
  </defs>
  <sodipodi:namedview pagecolor="#ffffff" bordercolor="#666666" borderopacity="1" objecttolerance="10" gridtolerance="10" guidetolerance="10" inkscape:pageopacity="0" inkscape:pageshadow="2" inkscape:window-width="1600" inkscape:window-height="838" id="namedview4" showgrid="false" inkscape:zoom="256" inkscape:cx="0.5" inkscape:cy="0.5" inkscape:window-x="-8" inkscape:window-y="-8" inkscape:window-maximized="1" inkscape:current-layer="svg2" />
  <path style="fill:#000000" d="m 0.47774489,0.83760024 c -1.6308e-4,-0.0536859 -0.009441,-0.0648275 -0.0777196,-0.0938044 -0.0761746,-0.0323464 -0.0782775,-0.0323464 -0.12054904,0.008087 -0.054202,0.0513498 -0.0784921,0.0323463 -0.0261783,-0.0202165 0.0448894,-0.0452849 0.0466489,-0.0610537 0.0163078,-0.14546873 -0.0188827,-0.053057 -0.0313282,-0.0622218 -0.0825261,-0.0622218 -0.0330448,0 -0.0654029,-0.008536 -0.0717114,-0.0188687 -0.006866,-0.0112314 0.0150204,-0.0188687 0.0541591,-0.0188687 0.0539016,0 0.0707244,-0.009884 0.0940274,-0.0553033 0.0381946,-0.0744415 0.0356197,-0.11963658 -0.009012,-0.16024922 -0.0205993,-0.0188687 -0.0373363,-0.0408822 -0.0373363,-0.0497325 0,-0.0292016 0.0326156,-0.0161732 0.0768613,0.0296508 0.0369071,0.0386359 0.0478505,0.0417807 0.0716685,0.0206657 0.0154495,-0.0139269 0.0447606,-0.0278538 0.0652312,-0.0318971 0.0278949,-0.004942 0.0386238,-0.0242598 0.0429582,-0.0769124 0.007725,-0.09384935 0.0407695,-0.08994083 0.0407695,0.004942 0,0.0664448 0.00515,0.0749806 0.0441598,0.0749806 0.0244617,0 0.0544166,0.0125791 0.0669049,0.0274045 0.019741,0.0238105 0.0313282,0.021115 0.0863885,-0.0215642 0.0781916,-0.0601552 0.0994347,-0.0484746 0.0330448,0.0184194 l -0.0485372,0.0489688 0.0321865,0.0850439 c 0.0296115,0.0780356 0.0373363,0.0850439 0.0958298,0.0850439 0.0377654,0 0.0589227,0.007637 0.0521421,0.0188687 -0.006437,0.0103329 -0.0347614,0.0188687 -0.063343,0.0188687 -0.0436019,0 -0.0566911,0.0125791 -0.0824832,0.0786645 -0.0304699,0.077811 -0.0300407,0.0792036 0.0158786,0.12781301 0.0609826,0.0641985 0.0356197,0.0894467 -0.0278949,0.0278538 l -0.0488805,-0.0472616 -0.0776767,0.0327956 c -0.0684499,0.0292016 -0.0776767,0.0399837 -0.0778483,0.0938493 -1.03e-4,0.0336941 -0.008583,0.060919 -0.0188827,0.060919 -0.0102997,0 -0.0188827,-0.0274045 -0.0188827,-0.060919 z M 0.477938,0.69208659 c 0,-0.0206657 -0.007725,-0.0523831 -0.0171661,-0.0703084 -0.009441,-0.0179702 -0.0218868,-0.0473065 -0.0274658,-0.0653666 -0.007296,-0.0242598 -0.0296116,-0.0327956 -0.0840281,-0.0327956 l -0.073943,0 0.0193119,0.056067 c 0.0210285,0.060919 0.11415465,0.15014098 0.15664078,0.15014098 0.0145912,0 0.0266075,-0.0170717 0.0266075,-0.0377374 z M 0.62110339,0.690029 c 0.0572919,-0.0354911 0.0984047,-0.0983419 0.0984047,-0.14987142 0,-0.0103329 -0.0347614,-0.0161732 -0.0770329,-0.0130284 -0.0737285,0.005391 -0.0781058,0.009434 -0.1019238,0.0901205 -0.0137329,0.046408 -0.0248909,0.0906596 -0.02532,0.0983868 -4.9782e-4,0.0251583 0.0403404,0.0148254 0.10574326,-0.0256075 z M 0.45163093,0.40187693 c 0.0505542,-0.14722082 0.0291824,-0.17332253 -0.0757026,-0.0925914 -0.0607251,0.0466776 -0.11127933,0.14299783 -0.0875901,0.16685326 0.006437,0.00629 0.0399112,0.009434 0.0746726,0.00629 0.0548887,-0.004942 0.0661754,-0.0152747 0.088663,-0.0805514 z m 0.25925124,0.0327956 C 0.68899537,0.34518097 0.58166425,0.25016356 0.53531574,0.27905065 c -0.019741,0.0121299 -0.019741,0.0287523 -0.001017,0.0877395 0.0128746,0.0399837 0.0261783,0.0831121 0.0291824,0.0960058 0.003618,0.0139269 0.0369071,0.0233613 0.0830411,0.0233613 0.0746297,0 0.0765609,-0.001559 0.0642442,-0.0515295 z" id="path4147" inkscape:connector-curvature="0" />
</svg>