<?xml version="1.0" encoding="utf-8" standalone="no"?>
<svg xmlns:dc="http://purl.org/dc/elements/1.1/" xmlns:cc="http://creativecommons.org/ns#" xmlns:rdf="http://www.w3.org/1999/02/22-rdf-syntax-ns#" xmlns:svg="http://www.w3.org/2000/svg" xmlns="http://www.w3.org/2000/svg" xmlns:sodipodi="http://sodipodi.sourceforge.net/DTD/sodipodi-0.dtd" xmlns:inkscape="http://www.inkscape.org/namespaces/inkscape" height="1" version="1.1" width="1" id="svg2" inkscape:version="0.91 r13725" sodipodi:docname="有孔虫.svg">
  <metadata id="metadata8">
    <rdf:RDF>
      <cc:Work rdf:about="">
        <dc:format>image/svg+xml</dc:format>
        <dc:type rdf:resource="http://purl.org/dc/dcmitype/StillImage" />
        <dc:title></dc:title>
      </cc:Work>
    </rdf:RDF>
  </metadata>
  <defs id="defs6">
    <pattern width="1" height="1" id="有孔虫" patternContentUnits="objectBoundingBox">
      <path style="fill:#000000" d="M 0.4022445,0.8153927 C 0.3349744,0.7801903 0.3233099,0.7438762 0.3246719,0.57389428 0.3258519,0.4274382 0.3325669,0.38908097 0.3765018,0.27810813 c 0.0326851,-0.082557 0.05185,-0.0932502 0.148035,-0.082595 0.0738817,0.008189 0.0983941,0.036715 0.1272592,0.14812366 0.0224393,0.0866058 0.0271421,0.38207962 0.00678,0.42594416 -0.0149442,0.0321925 -0.10945973,0.0739539 -0.16631401,0.0734855 -0.0207504,-1.7144e-4 -0.061258,-0.0126241 -0.0900171,-0.0276739 z M 0.56279678,0.7999009 c 0.02577,-0.00825 0.0583199,-0.0282183 0.0723335,-0.0443743 C 0.65892828,0.7280903 0.66018148,0.714733 0.65412518,0.55306171 0.64975118,0.4362757 0.64116768,0.36424414 0.62774128,0.33162373 l -0.0199,-0.0483474 -0.10707207,0.001768 -0.10707208,0.001768 -0.0239818,0.0623497 c -0.0350907,0.0912306 -0.0365311,0.36412937 -0.002153,0.40795929 0.040224,0.0512833 0.11647661,0.0679905 0.19523496,0.0427769 z m -0.004284,-0.55062495 c 0.0144156,-0.0105098 0.0111945,-0.0161162 -0.0161517,-0.0281022 -0.0423027,-0.0185424 -0.0473797,-0.0185424 -0.0896824,0 -0.0273466,0.011986 -0.0305675,0.0175902 -0.0161517,0.0281022 0.009903,0.007223 0.0373503,0.0131292 0.0609928,0.0131292 0.0236426,0 0.0510893,-0.005911 0.060993,-0.0131292 z" id="path4169" inkscape:connector-curvature="0" />
    </pattern>
  </defs>
  <sodipodi:namedview pagecolor="#ffffff" bordercolor="#666666" borderopacity="1" objecttolerance="10" gridtolerance="10" guidetolerance="10" inkscape:pageopacity="0" inkscape:pageshadow="2" inkscape:window-width="1600" inkscape:window-height="838" id="namedview4" showgrid="false" inkscape:zoom="256" inkscape:cx="0.5" inkscape:cy="1.125" inkscape:window-x="-8" inkscape:window-y="-8" inkscape:window-maximized="1" inkscape:current-layer="svg2" />
  <path style="fill:#000000" d="M 0.4022445,0.8153927 C 0.3349744,0.7801903 0.3233099,0.7438762 0.3246719,0.57389428 0.3258519,0.4274382 0.3325669,0.38908097 0.3765018,0.27810813 c 0.0326851,-0.082557 0.05185,-0.0932502 0.148035,-0.082595 0.0738817,0.008189 0.0983941,0.036715 0.1272592,0.14812366 0.0224393,0.0866058 0.0271421,0.38207962 0.00678,0.42594416 -0.0149442,0.0321925 -0.10945973,0.0739539 -0.16631401,0.0734855 -0.0207504,-1.7144e-4 -0.061258,-0.0126241 -0.0900171,-0.0276739 z M 0.56279678,0.7999009 c 0.02577,-0.00825 0.0583199,-0.0282183 0.0723335,-0.0443743 C 0.65892828,0.7280903 0.66018148,0.714733 0.65412518,0.55306171 0.64975118,0.4362757 0.64116768,0.36424414 0.62774128,0.33162373 l -0.0199,-0.0483474 -0.10707207,0.001768 -0.10707208,0.001768 -0.0239818,0.0623497 c -0.0350907,0.0912306 -0.0365311,0.36412937 -0.002153,0.40795929 0.040224,0.0512833 0.11647661,0.0679905 0.19523496,0.0427769 z m -0.004284,-0.55062495 c 0.0144156,-0.0105098 0.0111945,-0.0161162 -0.0161517,-0.0281022 -0.0423027,-0.0185424 -0.0473797,-0.0185424 -0.0896824,0 -0.0273466,0.011986 -0.0305675,0.0175902 -0.0161517,0.0281022 0.009903,0.007223 0.0373503,0.0131292 0.0609928,0.0131292 0.0236426,0 0.0510893,-0.005911 0.060993,-0.0131292 z" id="path4169" inkscape:connector-curvature="0" />
</svg>