<?xml version="1.0" encoding="utf-8" standalone="no"?>
<svg xmlns:dc="http://purl.org/dc/elements/1.1/" xmlns:cc="http://creativecommons.org/ns#" xmlns:rdf="http://www.w3.org/1999/02/22-rdf-syntax-ns#" xmlns:svg="http://www.w3.org/2000/svg" xmlns="http://www.w3.org/2000/svg" xmlns:sodipodi="http://sodipodi.sourceforge.net/DTD/sodipodi-0.dtd" xmlns:inkscape="http://www.inkscape.org/namespaces/inkscape" height="1" version="1.1" width="1" id="svg2" inkscape:version="0.91 r13725" sodipodi:docname="柱状叠层石.svg">
  <metadata id="metadata8">
    <rdf:RDF>
      <cc:Work rdf:about="">
        <dc:format>image/svg+xml</dc:format>
        <dc:type rdf:resource="http://purl.org/dc/dcmitype/StillImage" />
        <dc:title></dc:title>
      </cc:Work>
    </rdf:RDF>
  </metadata>
  <defs id="defs6">
    <pattern width="1" height="1" id="柱状叠层石" patternContentUnits="objectBoundingBox">
      <path style="fill:#000000" d="m 0.40281431,0.85089848 c 0,-0.0117547 -0.012804,-0.0298447 -0.0284534,-0.0401998 C 0.32037661,0.77497748 0.26377137,0.62170937 0.26253168,0.50790236 0.25988398,0.26484564 0.33743741,0.14308833 0.49490055,0.14308833 c 0.17561288,0 0.26941283,0.14239407 0.25449467,0.38633812 -0.006855,0.11209902 -0.0185134,0.15011874 -0.0730165,0.23812109 l -0.0648587,0.10472297 -0.10435274,0 c -0.0756631,0 -0.10435294,-0.005876 -0.10435294,-0.0213721 z m 0.19602197,-0.0422902 c 0.0353631,-0.039596 0.0381907,-0.0505761 0.0159191,-0.0618203 -0.0484368,-0.0244548 -0.23140005,-0.0114678 -0.23140005,0.016425 0,0.0252058 0.0978622,0.0935431 0.13395834,0.0935431 0.021187,0 0.0578722,-0.0216665 0.0815226,-0.0481477 z m -0.0422399,-0.0952999 c 0.0793735,0.002461 0.11099525,-0.003131 0.12905196,-0.0228194 0.0200869,-0.0219023 0.0157915,-0.0311744 -0.0268235,-0.0579005 -0.0985213,-0.061788 -0.3338462,-0.0295136 -0.3338462,0.0457864 0,0.0466354 0.0198966,0.0579153 0.0772498,0.0437953 0.0270782,-0.006667 0.0965439,-0.0106544 0.15436798,-0.008862 z M 0.52142578,0.572982 c 0.0491826,4.6956e-4 0.10903904,0.009225 0.13301437,0.0194553 0.0519724,0.0221767 0.0602227,0.0174513 0.065459,-0.0374922 C 0.72341315,0.5180874 0.71230815,0.5095562 0.62659185,0.4832562 0.5191251,0.4502828 0.45036311,0.4452072 0.43200264,0.468893 c -0.006615,0.008533 -0.0273487,0.0155145 -0.0460764,0.0155145 -0.0667266,0 -0.10174276,0.0351811 -0.088311,0.0887266 l 0.0124943,0.0498084 0.0609465,-0.0254076 C 0.40457684,0.5835607 0.4722431,0.5725119 0.52142573,0.5729819 Z M 0.37068511,0.4624397 c 0.0997929,-0.0357525 0.18615397,-0.0379086 0.26724318,-0.006672 0.0946093,0.0364447 0.0956876,0.0363205 0.0956876,-0.0110185 0,-0.0322606 -0.0168389,-0.0455975 -0.0902699,-0.0714952 -0.0973092,-0.0343192 -0.16385035,-0.0324414 -0.28541354,0.008055 -0.056226,0.0187306 -0.0718717,0.0325585 -0.0718717,0.0635206 0,0.0460359 0.003341,0.0467311 0.0846243,0.01761 z m 0.0505379,-0.12812614 c 0.084879,-0.0240356 0.0988647,-0.0241072 0.18705336,-9.5805e-4 0.0524233,0.0137599 0.0987743,0.0222604 0.10300188,0.01889 0.0181894,-0.0145028 -0.0193676,-0.0556235 -0.0628385,-0.0688009 -0.0259907,-0.007878 -0.0530015,-0.0217366 -0.0600238,-0.0307963 -0.0358059,-0.0461913 -0.2828963,0.029303 -0.2828963,0.0864346 0,0.0268356 0.004798,0.0266375 0.11570331,-0.004768 z M 0.52443255,0.21611611 c 0.0508364,0.001312 0.0924299,-4.41e-4 0.0924299,-0.003893 0,-0.003455 -0.0257774,-0.0169077 -0.057283,-0.0298973 -0.0641952,-0.0264673 -0.12943471,-0.0147233 -0.17702365,0.031867 -0.0259144,0.0253702 -0.0249965,0.0265613 0.0105291,0.0136652 0.0214048,-0.00777 0.0805113,-0.0130536 0.13134773,-0.0117411 z" id="path25232" inkscape:connector-curvature="0" />
    </pattern>
  </defs>
  <sodipodi:namedview pagecolor="#ffffff" bordercolor="#666666" borderopacity="1" objecttolerance="10" gridtolerance="10" guidetolerance="10" inkscape:pageopacity="0" inkscape:pageshadow="2" inkscape:window-width="1600" inkscape:window-height="838" id="namedview4" showgrid="false" inkscape:zoom="105.58556" inkscape:cx="2.9661919" inkscape:cy="-0.50421598" inkscape:window-x="-8" inkscape:window-y="-8" inkscape:window-maximized="1" inkscape:current-layer="svg2" />
  <path style="fill:#000000" d="m 0.40281431,0.85089848 c 0,-0.0117547 -0.012804,-0.0298447 -0.0284534,-0.0401998 C 0.32037661,0.77497748 0.26377137,0.62170937 0.26253168,0.50790236 0.25988398,0.26484564 0.33743741,0.14308833 0.49490055,0.14308833 c 0.17561288,0 0.26941283,0.14239407 0.25449467,0.38633812 -0.006855,0.11209902 -0.0185134,0.15011874 -0.0730165,0.23812109 l -0.0648587,0.10472297 -0.10435274,0 c -0.0756631,0 -0.10435294,-0.005876 -0.10435294,-0.0213721 z m 0.19602197,-0.0422902 c 0.0353631,-0.039596 0.0381907,-0.0505761 0.0159191,-0.0618203 -0.0484368,-0.0244548 -0.23140005,-0.0114678 -0.23140005,0.016425 0,0.0252058 0.0978622,0.0935431 0.13395834,0.0935431 0.021187,0 0.0578722,-0.0216665 0.0815226,-0.0481477 z m -0.0422399,-0.0952999 c 0.0793735,0.002461 0.11099525,-0.003131 0.12905196,-0.0228194 0.0200869,-0.0219023 0.0157915,-0.0311744 -0.0268235,-0.0579005 -0.0985213,-0.061788 -0.3338462,-0.0295136 -0.3338462,0.0457864 0,0.0466354 0.0198966,0.0579153 0.0772498,0.0437953 0.0270782,-0.006667 0.0965439,-0.0106544 0.15436798,-0.008862 z M 0.52142578,0.572982 c 0.0491826,4.6956e-4 0.10903904,0.009225 0.13301437,0.0194553 0.0519724,0.0221767 0.0602227,0.0174513 0.065459,-0.0374922 C 0.72341315,0.5180874 0.71230815,0.5095562 0.62659185,0.4832562 0.5191251,0.4502828 0.45036311,0.4452072 0.43200264,0.468893 c -0.006615,0.008533 -0.0273487,0.0155145 -0.0460764,0.0155145 -0.0667266,0 -0.10174276,0.0351811 -0.088311,0.0887266 l 0.0124943,0.0498084 0.0609465,-0.0254076 C 0.40457684,0.5835607 0.4722431,0.5725119 0.52142573,0.5729819 Z M 0.37068511,0.4624397 c 0.0997929,-0.0357525 0.18615397,-0.0379086 0.26724318,-0.006672 0.0946093,0.0364447 0.0956876,0.0363205 0.0956876,-0.0110185 0,-0.0322606 -0.0168389,-0.0455975 -0.0902699,-0.0714952 -0.0973092,-0.0343192 -0.16385035,-0.0324414 -0.28541354,0.008055 -0.056226,0.0187306 -0.0718717,0.0325585 -0.0718717,0.0635206 0,0.0460359 0.003341,0.0467311 0.0846243,0.01761 z m 0.0505379,-0.12812614 c 0.084879,-0.0240356 0.0988647,-0.0241072 0.18705336,-9.5805e-4 0.0524233,0.0137599 0.0987743,0.0222604 0.10300188,0.01889 0.0181894,-0.0145028 -0.0193676,-0.0556235 -0.0628385,-0.0688009 -0.0259907,-0.007878 -0.0530015,-0.0217366 -0.0600238,-0.0307963 -0.0358059,-0.0461913 -0.2828963,0.029303 -0.2828963,0.0864346 0,0.0268356 0.004798,0.0266375 0.11570331,-0.004768 z M 0.52443255,0.21611611 c 0.0508364,0.001312 0.0924299,-4.41e-4 0.0924299,-0.003893 0,-0.003455 -0.0257774,-0.0169077 -0.057283,-0.0298973 -0.0641952,-0.0264673 -0.12943471,-0.0147233 -0.17702365,0.031867 -0.0259144,0.0253702 -0.0249965,0.0265613 0.0105291,0.0136652 0.0214048,-0.00777 0.0805113,-0.0130536 0.13134773,-0.0117411 z" id="path25232" inkscape:connector-curvature="0" />
</svg>