<?xml version="1.0" encoding="utf-8" standalone="no"?>
<svg xmlns:dc="http://purl.org/dc/elements/1.1/" xmlns:cc="http://creativecommons.org/ns#" xmlns:rdf="http://www.w3.org/1999/02/22-rdf-syntax-ns#" xmlns:svg="http://www.w3.org/2000/svg" xmlns="http://www.w3.org/2000/svg" xmlns:sodipodi="http://sodipodi.sourceforge.net/DTD/sodipodi-0.dtd" xmlns:inkscape="http://www.inkscape.org/namespaces/inkscape" height="1" version="1.1" width="1" id="svg2" inkscape:version="0.91 r13725" sodipodi:docname="椎状叠层石.svg">
  <metadata id="metadata8">
    <rdf:RDF>
      <cc:Work rdf:about="">
        <dc:format>image/svg+xml</dc:format>
        <dc:type rdf:resource="http://purl.org/dc/dcmitype/StillImage" />
        <dc:title></dc:title>
      </cc:Work>
    </rdf:RDF>
  </metadata>
  <defs id="defs6">
    <pattern width="1" height="1" id="椎状叠层石" patternContentUnits="objectBoundingBox">
      <path style="fill:#000000" d="M 0.08055111,0.8934197 C 0.13655882,0.8808173 0.13683678,0.8796816 0.13956797,0.65255392 0.14293727,0.3723431 0.18056106,0.2648463 0.31103918,0.16263437 c 0.06878,-0.0538796 0.10816321,-0.07055692 0.16662007,-0.07055692 0.09192,0 0.23033828,0.06951051 0.28374541,0.14249014 0.0473128,0.0646523 0.10675718,0.35172972 0.10687857,0.51615374 0.025036,0.12735937 0.0634594,0.14815835 0.0674128,0.15738827 C 0.75481627,0.90483593 0.0035109,0.9107576 0.08055111,0.8934197 Z M 0.26062468,0.7723836 c 0,-0.084751 0.01339,-0.16112684 0.0582223,-0.33209217 0.0157376,-0.0600153 0.11746641,-0.13018009 0.18874244,-0.13018009 0.1266157,0 0.22057215,0.16082188 0.24197769,0.41418493 0.0105862,0.12530541 0.0188328,0.14979379 0.0488886,0.14519235 0.0494474,-0.007569 0.0591977,-0.14414104 0.0243705,-0.34134354 C 0.78199745,0.29696372 0.72186926,0.20719249 0.56405767,0.14180513 0.50693376,0.11813658 0.48538382,0.11735111 0.42900224,0.13688228 0.25398957,0.19750943 0.18875634,0.32017066 0.17534192,0.61385152 0.16436472,0.85416998 0.17246992,0.89678297 0.22600892,0.8801995 0.25118132,0.8724025 0.26062462,0.84299 0.26062468,0.7723836 Z m 0.1125461,0.00376 c 0,-0.16835598 0.0860476,-0.28527999 0.16903297,-0.22968661 0.0303389,0.0203245 0.0732084,0.15415883 0.084295,0.26315895 0.003696,0.0363351 0.0193545,0.0564716 0.0472374,0.0607435 0.038528,0.005902 0.0411027,-0.005864 0.0337638,-0.15428535 C 0.70100895,0.58481723 0.68791715,0.53627109 0.63599855,0.45092475 0.58330365,0.36430365 0.56259525,0.3464502 0.51481682,0.3464502 c -0.1238141,0 -0.20480379,0.13945248 -0.22238331,0.38291236 -0.009766,0.1352324 -0.007622,0.14400274 0.0351697,0.14400274 0.0400733,0 0.0455675,-0.0117228 0.0455676,-0.0972217 z M 0.58693959,0.78706 C 0.56256229,0.63765833 0.55124842,0.60393591 0.51803623,0.58168661 c -0.0265305,-0.0177734 -0.0383588,-0.009972 -0.0660809,0.0435846 -0.0185704,0.0358782 -0.0337659,0.10637692 -0.0337659,0.15666383 l 0,0.0914311 0.0914159,0 0.0914163,0 z" id="path25949" inkscape:connector-curvature="0" sodipodi:nodetypes="csssscccsssscssssssssscsssssssscscccs" />
    </pattern>
  </defs>
  <sodipodi:namedview pagecolor="#ffffff" bordercolor="#666666" borderopacity="1" objecttolerance="10" gridtolerance="10" guidetolerance="10" inkscape:pageopacity="0" inkscape:pageshadow="2" inkscape:window-width="1600" inkscape:window-height="838" id="namedview4" showgrid="false" inkscape:zoom="181.01934" inkscape:cx="3.2191171" inkscape:cy="-0.24742515" inkscape:window-x="-8" inkscape:window-y="-8" inkscape:window-maximized="1" inkscape:current-layer="svg2" />
  <path style="fill:#000000" d="M 0.08055111,0.8934197 C 0.13655882,0.8808173 0.13683678,0.8796816 0.13956797,0.65255392 0.14293727,0.3723431 0.18056106,0.2648463 0.31103918,0.16263437 c 0.06878,-0.0538796 0.10816321,-0.07055692 0.16662007,-0.07055692 0.09192,0 0.23033828,0.06951051 0.28374541,0.14249014 0.0473128,0.0646523 0.10675718,0.35172972 0.10687857,0.51615374 0.025036,0.12735937 0.0634594,0.14815835 0.0674128,0.15738827 C 0.75481627,0.90483593 0.0035109,0.9107576 0.08055111,0.8934197 Z M 0.26062468,0.7723836 c 0,-0.084751 0.01339,-0.16112684 0.0582223,-0.33209217 0.0157376,-0.0600153 0.11746641,-0.13018009 0.18874244,-0.13018009 0.1266157,0 0.22057215,0.16082188 0.24197769,0.41418493 0.0105862,0.12530541 0.0188328,0.14979379 0.0488886,0.14519235 0.0494474,-0.007569 0.0591977,-0.14414104 0.0243705,-0.34134354 C 0.78199745,0.29696372 0.72186926,0.20719249 0.56405767,0.14180513 0.50693376,0.11813658 0.48538382,0.11735111 0.42900224,0.13688228 0.25398957,0.19750943 0.18875634,0.32017066 0.17534192,0.61385152 0.16436472,0.85416998 0.17246992,0.89678297 0.22600892,0.8801995 0.25118132,0.8724025 0.26062462,0.84299 0.26062468,0.7723836 Z m 0.1125461,0.00376 c 0,-0.16835598 0.0860476,-0.28527999 0.16903297,-0.22968661 0.0303389,0.0203245 0.0732084,0.15415883 0.084295,0.26315895 0.003696,0.0363351 0.0193545,0.0564716 0.0472374,0.0607435 0.038528,0.005902 0.0411027,-0.005864 0.0337638,-0.15428535 C 0.70100895,0.58481723 0.68791715,0.53627109 0.63599855,0.45092475 0.58330365,0.36430365 0.56259525,0.3464502 0.51481682,0.3464502 c -0.1238141,0 -0.20480379,0.13945248 -0.22238331,0.38291236 -0.009766,0.1352324 -0.007622,0.14400274 0.0351697,0.14400274 0.0400733,0 0.0455675,-0.0117228 0.0455676,-0.0972217 z M 0.58693959,0.78706 C 0.56256229,0.63765833 0.55124842,0.60393591 0.51803623,0.58168661 c -0.0265305,-0.0177734 -0.0383588,-0.009972 -0.0660809,0.0435846 -0.0185704,0.0358782 -0.0337659,0.10637692 -0.0337659,0.15666383 l 0,0.0914311 0.0914159,0 0.0914163,0 z" id="path25949" inkscape:connector-curvature="0" sodipodi:nodetypes="csssscccsssscssssssssscsssssssscscccs" />
</svg>