<?xml version="1.0" encoding="utf-8" standalone="no"?>
<svg xmlns:dc="http://purl.org/dc/elements/1.1/" xmlns:cc="http://creativecommons.org/ns#" xmlns:rdf="http://www.w3.org/1999/02/22-rdf-syntax-ns#" xmlns:svg="http://www.w3.org/2000/svg" xmlns="http://www.w3.org/2000/svg" xmlns:sodipodi="http://sodipodi.sourceforge.net/DTD/sodipodi-0.dtd" xmlns:inkscape="http://www.inkscape.org/namespaces/inkscape" height="1" version="1.1" width="1" id="svg2" inkscape:version="0.91 r13725" sodipodi:docname="海绵针虫.svg">
  <metadata id="metadata8">
    <rdf:RDF>
      <cc:Work rdf:about="">
        <dc:format>image/svg+xml</dc:format>
        <dc:type rdf:resource="http://purl.org/dc/dcmitype/StillImage" />
        <dc:title></dc:title>
      </cc:Work>
    </rdf:RDF>
  </metadata>
  <defs id="defs6">
    <pattern width="1" height="1" id="海绵骨针" patternContentUnits="objectBoundingBox">
      <path style="fill:#000000" d="m 0.07361414,0.55846007 c -0.0363598,-0.12230079 0.001714,-0.14362537 0.227606,-0.12746114 0.55621603,0.0398023 0.66758487,0.0525357 0.65678343,0.0750936 -0.006389,0.0133442 -0.16890526,0.0332 -0.36114629,0.0441239 -0.19224104,0.010924 -0.3852079,0.0287077 -0.42881491,0.0395194 -0.0600043,0.0148774 -0.0829681,0.007272 -0.0944282,-0.0312759 z m 0.22063865,-0.0505025 c 0.10057699,-6.0639e-4 0.0714865,-0.0196678 -0.0652865,-0.0427756 -0.0965554,-0.0163131 -0.11629135,-0.0110804 -0.11629135,0.0308341 0,0.0369301 0.0147875,0.0453668 0.0550854,0.0314275 0.0302969,-0.01048 0.0872184,-0.0192487 0.1264924,-0.019486 z" id="path4222" inkscape:connector-curvature="0" />
    </pattern>
  </defs>
  <sodipodi:namedview pagecolor="#ffffff" bordercolor="#666666" borderopacity="1" objecttolerance="10" gridtolerance="10" guidetolerance="10" inkscape:pageopacity="0" inkscape:pageshadow="2" inkscape:window-width="1600" inkscape:window-height="838" id="namedview4" showgrid="false" inkscape:zoom="256" inkscape:cx="0.5" inkscape:cy="0.5" inkscape:window-x="-8" inkscape:window-y="-8" inkscape:window-maximized="1" inkscape:current-layer="svg2" />
  <path style="fill:#000000" d="m 0.07361414,0.55846007 c -0.0363598,-0.12230079 0.001714,-0.14362537 0.227606,-0.12746114 0.55621603,0.0398023 0.66758487,0.0525357 0.65678343,0.0750936 -0.006389,0.0133442 -0.16890526,0.0332 -0.36114629,0.0441239 -0.19224104,0.010924 -0.3852079,0.0287077 -0.42881491,0.0395194 -0.0600043,0.0148774 -0.0829681,0.007272 -0.0944282,-0.0312759 z m 0.22063865,-0.0505025 c 0.10057699,-6.0639e-4 0.0714865,-0.0196678 -0.0652865,-0.0427756 -0.0965554,-0.0163131 -0.11629135,-0.0110804 -0.11629135,0.0308341 0,0.0369301 0.0147875,0.0453668 0.0550854,0.0314275 0.0302969,-0.01048 0.0872184,-0.0192487 0.1264924,-0.019486 z" id="path4222" inkscape:connector-curvature="0" />
</svg>