<?xml version="1.0" encoding="utf-8" standalone="no"?>
<svg xmlns:dc="http://purl.org/dc/elements/1.1/" xmlns:cc="http://creativecommons.org/ns#" xmlns:rdf="http://www.w3.org/1999/02/22-rdf-syntax-ns#" xmlns:svg="http://www.w3.org/2000/svg" xmlns="http://www.w3.org/2000/svg" xmlns:sodipodi="http://sodipodi.sourceforge.net/DTD/sodipodi-0.dtd" xmlns:inkscape="http://www.inkscape.org/namespaces/inkscape" height="1" version="1.1" width="1" id="svg2" inkscape:version="0.91 r13725" sodipodi:docname="海百合茎.svg">
  <metadata id="metadata8">
    <rdf:RDF>
      <cc:Work rdf:about="">
        <dc:format>image/svg+xml</dc:format>
        <dc:type rdf:resource="http://purl.org/dc/dcmitype/StillImage" />
        <dc:title></dc:title>
      </cc:Work>
    </rdf:RDF>
  </metadata>
  <defs id="defs6">
    <pattern width="1" height="1" id="海百合茎" patternContentUnits="objectBoundingBox">
      <path style="fill:#000000" d="M 0.34872005,0.6396001 C 0.09096372,0.6341651 0.08192644,0.6327141 0.0586307,0.5930138 0.02173065,0.5301297 0.06081791,0.37663153 0.11580457,0.36847525 c 0.0233282,-0.00346 0.220414,-8.359e-4 0.43796869,0.005831 l 0.39555371,0.0121222 0.0140964,0.058344 c 0.007754,0.0320892 0.005547,0.0899175 -0.004905,0.12850726 l -0.0189974,0.0701631 -0.16237759,8.8264e-4 c -0.0893077,4.86e-4 -0.28209782,-0.001641 -0.42842206,-0.004726 z m -0.007471,-0.0800486 c 0.0114745,-0.0322681 0.013724,-0.0795593 0.004999,-0.10509151 -0.0129064,-0.0377674 -0.029727,-0.0473478 -0.0902236,-0.0513878 l -0.0743595,-0.004965 0.00295,0.0974461 c 0.001623,0.0535955 0.004057,0.10312117 0.005414,0.11005721 0.001354,0.006936 0.0312409,0.012611 0.0664118,0.012611 0.0546217,0 0.0669893,-0.008556 0.0848095,-0.0586695 z m 0.18799001,0.0192337 c 0.00701,-0.0216897 0.009632,-0.0689809 0.005826,-0.10509153 -0.006501,-0.0616769 -0.0115138,-0.0659569 -0.0827132,-0.0706239 l -0.0757924,-0.004968 0,0.11005958 0,0.11005957 0.0699662,0 c 0.0553399,0 0.0726308,-0.008244 0.0827131,-0.0394357 z M 0.7355236,0.5728012 C 0.7489736,0.545332 0.7506294,0.5037977 0.7397126,0.46770957 0.7243155,0.41680857 0.7116993,0.40727977 0.6538742,0.40287917 l -0.0677885,-0.005159 -0.007316,0.11028557 -0.007316,0.11028573 0.0709147,-3.362e-5 c 0.0571053,-3.363e-5 0.0752454,-0.00888 0.0931543,-0.0454554 z m 0.18350525,0.005984 c 0.00701,-0.0216897 0.009632,-0.0689809 0.005826,-0.10509153 -0.006328,-0.0600318 -0.0127794,-0.0660973 -0.0753144,-0.0708098 l -0.0683936,-0.005154 -0.007399,0.10329354 c -0.00407,0.0568113 -0.003338,0.1064219 0.001623,0.11024555 0.004962,0.003824 0.0364471,0.006952 0.0699662,0.006952 0.0458742,0 0.0640948,-0.009751 0.0736902,-0.0394357 z M 0.14885099,0.50609736 C 0.14930962,0.43164566 0.12728009,0.38973095 0.10319059,0.41923896 0.08124043,0.44612656 0.07808956,0.57422845 0.09897879,0.5904492 0.12232602,0.6085778 0.14848778,0.5643281 0.14885023,0.5060973 Z" id="path17307" inkscape:connector-curvature="0" />
    </pattern>
  </defs>
  <sodipodi:namedview pagecolor="#ffffff" bordercolor="#666666" borderopacity="1" objecttolerance="10" gridtolerance="10" guidetolerance="10" inkscape:pageopacity="0" inkscape:pageshadow="2" inkscape:window-width="1600" inkscape:window-height="838" id="namedview4" showgrid="false" inkscape:zoom="181.01934" inkscape:cx="1.9251019" inkscape:cy="-0.30811999" inkscape:window-x="-8" inkscape:window-y="-8" inkscape:window-maximized="1" inkscape:current-layer="svg2" />
  <path style="fill:#000000" d="M 0.34872005,0.6396001 C 0.09096372,0.6341651 0.08192644,0.6327141 0.0586307,0.5930138 0.02173065,0.5301297 0.06081791,0.37663153 0.11580457,0.36847525 c 0.0233282,-0.00346 0.220414,-8.359e-4 0.43796869,0.005831 l 0.39555371,0.0121222 0.0140964,0.058344 c 0.007754,0.0320892 0.005547,0.0899175 -0.004905,0.12850726 l -0.0189974,0.0701631 -0.16237759,8.8264e-4 c -0.0893077,4.86e-4 -0.28209782,-0.001641 -0.42842206,-0.004726 z m -0.007471,-0.0800486 c 0.0114745,-0.0322681 0.013724,-0.0795593 0.004999,-0.10509151 -0.0129064,-0.0377674 -0.029727,-0.0473478 -0.0902236,-0.0513878 l -0.0743595,-0.004965 0.00295,0.0974461 c 0.001623,0.0535955 0.004057,0.10312117 0.005414,0.11005721 0.001354,0.006936 0.0312409,0.012611 0.0664118,0.012611 0.0546217,0 0.0669893,-0.008556 0.0848095,-0.0586695 z m 0.18799001,0.0192337 c 0.00701,-0.0216897 0.009632,-0.0689809 0.005826,-0.10509153 -0.006501,-0.0616769 -0.0115138,-0.0659569 -0.0827132,-0.0706239 l -0.0757924,-0.004968 0,0.11005958 0,0.11005957 0.0699662,0 c 0.0553399,0 0.0726308,-0.008244 0.0827131,-0.0394357 z M 0.7355236,0.5728012 C 0.7489736,0.545332 0.7506294,0.5037977 0.7397126,0.46770957 0.7243155,0.41680857 0.7116993,0.40727977 0.6538742,0.40287917 l -0.0677885,-0.005159 -0.007316,0.11028557 -0.007316,0.11028573 0.0709147,-3.362e-5 c 0.0571053,-3.363e-5 0.0752454,-0.00888 0.0931543,-0.0454554 z m 0.18350525,0.005984 c 0.00701,-0.0216897 0.009632,-0.0689809 0.005826,-0.10509153 -0.006328,-0.0600318 -0.0127794,-0.0660973 -0.0753144,-0.0708098 l -0.0683936,-0.005154 -0.007399,0.10329354 c -0.00407,0.0568113 -0.003338,0.1064219 0.001623,0.11024555 0.004962,0.003824 0.0364471,0.006952 0.0699662,0.006952 0.0458742,0 0.0640948,-0.009751 0.0736902,-0.0394357 z M 0.14885099,0.50609736 C 0.14930962,0.43164566 0.12728009,0.38973095 0.10319059,0.41923896 0.08124043,0.44612656 0.07808956,0.57422845 0.09897879,0.5904492 0.12232602,0.6085778 0.14848778,0.5643281 0.14885023,0.5060973 Z" id="path17307" inkscape:connector-curvature="0" />
</svg>