<?xml version="1.0" encoding="utf-8" standalone="no"?>
<svg xmlns:dc="http://purl.org/dc/elements/1.1/" xmlns:cc="http://creativecommons.org/ns#" xmlns:rdf="http://www.w3.org/1999/02/22-rdf-syntax-ns#" xmlns:svg="http://www.w3.org/2000/svg" xmlns="http://www.w3.org/2000/svg" xmlns:sodipodi="http://sodipodi.sourceforge.net/DTD/sodipodi-0.dtd" xmlns:inkscape="http://www.inkscape.org/namespaces/inkscape" height="1" version="1.1" width="1" id="svg2" inkscape:version="0.91 r13725" sodipodi:docname="海绵.svg">
  <metadata id="metadata8">
    <rdf:RDF>
      <cc:Work rdf:about="">
        <dc:format>image/svg+xml</dc:format>
        <dc:type rdf:resource="http://purl.org/dc/dcmitype/StillImage" />
        <dc:title></dc:title>
      </cc:Work>
    </rdf:RDF>
  </metadata>
  <defs id="defs6">
    <pattern width="1" height="1" id="海绵" patternContentUnits="objectBoundingBox">
      <path style="fill:#000000" d="m 0.42077193,0.79980423 c 0.0180765,-0.009488 0.0125043,-0.0223152 -0.027839,-0.0640835 C 0.28755316,0.62661718 0.25361894,0.48947497 0.29957713,0.35843304 0.37912323,0.13162056 0.63411253,0.13013239 0.6995101,0.35609504 0.7122518,0.40011974 0.717476,0.46260023 0.7120566,0.50612768 0.701705,0.58926378 0.6319906,0.73017019 0.5830432,0.76688793 c -0.0304151,0.022815 -0.030518,0.0243613 -0.002239,0.0336017 0.0168341,0.005502 -0.0162169,0.0100094 -0.076496,0.0104298 -0.0667786,4.677e-4 -0.0977561,-0.003656 -0.0835369,-0.0111197 z m 0.1309673,-0.0360773 C 0.66275912,0.68173193 0.72583398,0.47685903 0.67732715,0.35580543 0.62213568,0.21806925 0.48029905,0.16552363 0.39458536,0.2510594 0.28994631,0.3554809 0.27249855,0.49421716 0.34700884,0.6293687 c 0.0362115,0.0656828 0.12949229,0.16917915 0.15248044,0.16917915 0.002807,0 0.0263196,-0.015671 0.05225,-0.0348209 z M 0.42667426,0.34980366 c -0.0283124,-0.0234669 -0.0253983,-0.0610776 0.005491,-0.0709032 0.0840503,-0.026735 0.19296182,0.0108274 0.16028813,0.0552829 -0.0217615,0.0296076 -0.13592733,0.0403647 -0.16577945,0.0156212 z m 0.11912782,-0.0258784 c 0.0150966,-0.0202485 -5.3858e-4,-0.0295531 -0.0496574,-0.0295531 -0.0491166,0 -0.0647536,0.009308 -0.0496574,0.0295531 0.0139464,0.0187052 0.085367,0.0187052 0.0993148,0 z" id="path4244" inkscape:connector-curvature="0" />
    </pattern>
  </defs>
  <sodipodi:namedview pagecolor="#ffffff" bordercolor="#666666" borderopacity="1" objecttolerance="10" gridtolerance="10" guidetolerance="10" inkscape:pageopacity="0" inkscape:pageshadow="2" inkscape:window-width="1600" inkscape:window-height="838" id="namedview4" showgrid="false" inkscape:zoom="256" inkscape:cx="0.51757812" inkscape:cy="0.20898438" inkscape:window-x="-8" inkscape:window-y="-8" inkscape:window-maximized="1" inkscape:current-layer="svg2" />
  <path style="fill:#000000" d="m 0.42077193,0.79980423 c 0.0180765,-0.009488 0.0125043,-0.0223152 -0.027839,-0.0640835 C 0.28755316,0.62661718 0.25361894,0.48947497 0.29957713,0.35843304 0.37912323,0.13162056 0.63411253,0.13013239 0.6995101,0.35609504 0.7122518,0.40011974 0.717476,0.46260023 0.7120566,0.50612768 0.701705,0.58926378 0.6319906,0.73017019 0.5830432,0.76688793 c -0.0304151,0.022815 -0.030518,0.0243613 -0.002239,0.0336017 0.0168341,0.005502 -0.0162169,0.0100094 -0.076496,0.0104298 -0.0667786,4.677e-4 -0.0977561,-0.003656 -0.0835369,-0.0111197 z m 0.1309673,-0.0360773 C 0.66275912,0.68173193 0.72583398,0.47685903 0.67732715,0.35580543 0.62213568,0.21806925 0.48029905,0.16552363 0.39458536,0.2510594 0.28994631,0.3554809 0.27249855,0.49421716 0.34700884,0.6293687 c 0.0362115,0.0656828 0.12949229,0.16917915 0.15248044,0.16917915 0.002807,0 0.0263196,-0.015671 0.05225,-0.0348209 z M 0.42667426,0.34980366 c -0.0283124,-0.0234669 -0.0253983,-0.0610776 0.005491,-0.0709032 0.0840503,-0.026735 0.19296182,0.0108274 0.16028813,0.0552829 -0.0217615,0.0296076 -0.13592733,0.0403647 -0.16577945,0.0156212 z m 0.11912782,-0.0258784 c 0.0150966,-0.0202485 -5.3858e-4,-0.0295531 -0.0496574,-0.0295531 -0.0491166,0 -0.0647536,0.009308 -0.0496574,0.0295531 0.0139464,0.0187052 0.085367,0.0187052 0.0993148,0 z" id="path4244" inkscape:connector-curvature="0" />
</svg>