<?xml version="1.0" encoding="utf-8" standalone="no"?>
<svg xmlns:dc="http://purl.org/dc/elements/1.1/" xmlns:cc="http://creativecommons.org/ns#" xmlns:rdf="http://www.w3.org/1999/02/22-rdf-syntax-ns#" xmlns:svg="http://www.w3.org/2000/svg" xmlns="http://www.w3.org/2000/svg" xmlns:sodipodi="http://sodipodi.sourceforge.net/DTD/sodipodi-0.dtd" xmlns:inkscape="http://www.inkscape.org/namespaces/inkscape" height="1" version="1.1" width="1" id="svg2" inkscape:version="0.91 r13725" sodipodi:docname="硅藻.svg">
  <metadata id="metadata8">
    <rdf:RDF>
      <cc:Work rdf:about="">
        <dc:format>image/svg+xml</dc:format>
        <dc:type rdf:resource="http://purl.org/dc/dcmitype/StillImage" />
        <dc:title></dc:title>
      </cc:Work>
    </rdf:RDF>
  </metadata>
  <defs id="defs6">
    <pattern width="1" height="1" id="硅藻" patternContentUnits="objectBoundingBox">
      <path style="fill:#000000" d="M 0.39256843,0.72742434 C 0.32514139,0.71727225 0.1041822,0.66308243 0.07290364,0.64902696 0.0579942,0.64233014 0.05078151,0.60706905 0.05078151,0.54088585 c 0,-0.14777303 0.0057609,-0.15748486 0.11242803,-0.18954678 0.22874782,-0.0687564 0.39185821,-0.0693783 0.61804144,-0.002355 l 0.13671813,0.0405124 0,0.13199875 0,0.13199874 -0.0840641,0.0214999 c -0.0462353,0.0118249 -0.10795598,0.0278476 -0.13715721,0.0356061 -0.0696265,0.0184993 -0.23303472,0.027538 -0.30417936,0.0168264 z m 0.30417936,-0.0390076 c 0.0681362,-0.0146629 0.13732429,-0.0292672 0.15375128,-0.0324537 0.0250644,-0.004859 0.0307564,-0.0239711 0.0353954,-0.11882241 0.003043,-0.0621654 0.003438,-0.11507695 8.8715e-4,-0.11758077 -0.002551,-0.002505 -0.0463545,0.005785 -0.0973374,0.0184122 -0.21232188,0.0526007 -0.36354311,0.0527613 -0.55541191,5.8972e-4 -0.0614252,-0.0167026 -0.11982109,-0.0303685 -0.12976843,-0.0303685 -0.01116575,0 -0.01808634,0.042548 -0.01808634,0.11119524 0,0.12680864 -0.0028083,0.1242192 0.17697708,0.16326716 0.18747724,0.0407193 0.26629115,0.0417667 0.43359379,0.005764 z M 0.64365463,0.44953812 c 0.038935,-0.006384 0.10859192,-0.0212638 0.15479302,-0.0330717 l 0.0840022,-0.0214695 -0.10177423,-0.0288645 c -0.22097729,-0.0626722 -0.37848476,-0.0646821 -0.57595452,-0.00735 -0.10019518,0.0290904 -0.0942413,0.0348936 0.0763294,0.0743999 0.12503516,0.0289597 0.25102705,0.0346424 0.36260419,0.0163555 z" id="path23834" inkscape:connector-curvature="0" />
    </pattern>
  </defs>
  <sodipodi:namedview pagecolor="#ffffff" bordercolor="#666666" borderopacity="1" objecttolerance="10" gridtolerance="10" guidetolerance="10" inkscape:pageopacity="0" inkscape:pageshadow="2" inkscape:window-width="1600" inkscape:window-height="838" id="namedview4" showgrid="false" inkscape:zoom="256" inkscape:cx="0.5" inkscape:cy="0.03125" inkscape:window-x="-8" inkscape:window-y="-8" inkscape:window-maximized="1" inkscape:current-layer="svg2" />
  <path style="fill:#000000" d="M 0.39256843,0.72742434 C 0.32514139,0.71727225 0.1041822,0.66308243 0.07290364,0.64902696 0.0579942,0.64233014 0.05078151,0.60706905 0.05078151,0.54088585 c 0,-0.14777303 0.0057609,-0.15748486 0.11242803,-0.18954678 0.22874782,-0.0687564 0.39185821,-0.0693783 0.61804144,-0.002355 l 0.13671813,0.0405124 0,0.13199875 0,0.13199874 -0.0840641,0.0214999 c -0.0462353,0.0118249 -0.10795598,0.0278476 -0.13715721,0.0356061 -0.0696265,0.0184993 -0.23303472,0.027538 -0.30417936,0.0168264 z m 0.30417936,-0.0390076 c 0.0681362,-0.0146629 0.13732429,-0.0292672 0.15375128,-0.0324537 0.0250644,-0.004859 0.0307564,-0.0239711 0.0353954,-0.11882241 0.003043,-0.0621654 0.003438,-0.11507695 8.8715e-4,-0.11758077 -0.002551,-0.002505 -0.0463545,0.005785 -0.0973374,0.0184122 -0.21232188,0.0526007 -0.36354311,0.0527613 -0.55541191,5.8972e-4 -0.0614252,-0.0167026 -0.11982109,-0.0303685 -0.12976843,-0.0303685 -0.01116575,0 -0.01808634,0.042548 -0.01808634,0.11119524 0,0.12680864 -0.0028083,0.1242192 0.17697708,0.16326716 0.18747724,0.0407193 0.26629115,0.0417667 0.43359379,0.005764 z M 0.64365463,0.44953812 c 0.038935,-0.006384 0.10859192,-0.0212638 0.15479302,-0.0330717 l 0.0840022,-0.0214695 -0.10177423,-0.0288645 c -0.22097729,-0.0626722 -0.37848476,-0.0646821 -0.57595452,-0.00735 -0.10019518,0.0290904 -0.0942413,0.0348936 0.0763294,0.0743999 0.12503516,0.0289597 0.25102705,0.0346424 0.36260419,0.0163555 z" id="path23834" inkscape:connector-curvature="0" />
</svg>