<?xml version="1.0" encoding="utf-8" standalone="no"?>
<svg xmlns:dc="http://purl.org/dc/elements/1.1/" xmlns:cc="http://creativecommons.org/ns#" xmlns:rdf="http://www.w3.org/1999/02/22-rdf-syntax-ns#" xmlns:svg="http://www.w3.org/2000/svg" xmlns="http://www.w3.org/2000/svg" xmlns:sodipodi="http://sodipodi.sourceforge.net/DTD/sodipodi-0.dtd" xmlns:inkscape="http://www.inkscape.org/namespaces/inkscape" height="1" version="1.1" width="1" id="svg2" inkscape:version="0.91 r13725" sodipodi:docname="竹节石.svg">
  <metadata id="metadata8">
    <rdf:RDF>
      <cc:Work rdf:about="">
        <dc:format>image/svg+xml</dc:format>
        <dc:type rdf:resource="http://purl.org/dc/dcmitype/StillImage" />
        <dc:title></dc:title>
      </cc:Work>
    </rdf:RDF>
  </metadata>
  <defs id="defs6">
    <pattern width="1" height="1" id="竹节石" patternContentUnits="objectBoundingBox">
      <path style="fill:#000000" d="M 0.48874028,0.9572494 C 0.46829394,0.9298562 0.42256547,0.7688411 0.35565932,0.48865865 0.26086381,0.0916825 0.26128254,0.10513962 0.34282192,0.07620223 0.4481273,0.03883044 0.61628454,0.04480698 0.67997715,0.08818493 0.73471058,0.12546143 0.73460119,0.1266012 0.63946289,0.51001701 0.53943671,0.9131305 0.51342351,0.9903189 0.48874028,0.9572492 Z m 0.0582385,-0.22830663 c 0.001163,-0.0354583 -0.0125628,-0.0587361 -0.0346345,-0.0587361 -0.0611882,0 -0.0678374,0.0196877 -0.0377894,0.11189291 0.0235746,0.0723413 0.032633,0.080919 0.0496651,0.0470291 0.0114573,-0.0227975 0.021699,-0.0678811 0.0227588,-0.1001859 z m 0.0386573,-0.1644027 c 0.008504,-0.0331202 0.0227922,-0.0829654 0.0317509,-0.11076739 0.0153794,-0.0477276 0.009177,-0.0505484 -0.11114862,-0.0505484 l -0.12743651,0 0.0166729,0.0961136 c 0.0258657,0.14910748 0.15706578,0.194093 0.1901614,0.0652022 z m 0.0298654,-0.22691722 c 0.0237001,-0.0184599 0.0430911,-0.0417023 0.0430911,-0.0516496 0,-0.009947 0.00749,-0.0332893 0.0166445,-0.0518708 0.0141427,-0.0287065 -0.0105885,-0.0337848 -0.16452937,-0.0337848 -0.17355024,0 -0.18117398,0.002183 -0.18117398,0.0518708 0,0.0693554 0.068637,0.11899786 0.16452937,0.11899786 0.0430911,0 0.0977384,-0.0151036 0.1214383,-0.0335635 z m 0.0123271,-0.17796153 c 0.064835,-0.031986 0.005227,-0.0661512 -0.11481767,-0.0658097 -0.14207329,4.0391e-4 -0.21853091,0.0314773 -0.15605555,0.0634218 0.0509353,0.0260437 0.21990393,0.0275333 0.27087322,0.002388 z" id="path10931" inkscape:connector-curvature="0" />
    </pattern>
  </defs>
  <sodipodi:namedview pagecolor="#ffffff" bordercolor="#666666" borderopacity="1" objecttolerance="10" gridtolerance="10" guidetolerance="10" inkscape:pageopacity="0" inkscape:pageshadow="2" inkscape:window-width="1600" inkscape:window-height="838" id="namedview4" showgrid="false" inkscape:zoom="256" inkscape:cx="1.1326949" inkscape:cy="-0.032713211" inkscape:window-x="-8" inkscape:window-y="-8" inkscape:window-maximized="1" inkscape:current-layer="svg2" />
  <path style="fill:#000000" d="M 0.48874028,0.9572494 C 0.46829394,0.9298562 0.42256547,0.7688411 0.35565932,0.48865865 0.26086381,0.0916825 0.26128254,0.10513962 0.34282192,0.07620223 0.4481273,0.03883044 0.61628454,0.04480698 0.67997715,0.08818493 0.73471058,0.12546143 0.73460119,0.1266012 0.63946289,0.51001701 0.53943671,0.9131305 0.51342351,0.9903189 0.48874028,0.9572492 Z m 0.0582385,-0.22830663 c 0.001163,-0.0354583 -0.0125628,-0.0587361 -0.0346345,-0.0587361 -0.0611882,0 -0.0678374,0.0196877 -0.0377894,0.11189291 0.0235746,0.0723413 0.032633,0.080919 0.0496651,0.0470291 0.0114573,-0.0227975 0.021699,-0.0678811 0.0227588,-0.1001859 z m 0.0386573,-0.1644027 c 0.008504,-0.0331202 0.0227922,-0.0829654 0.0317509,-0.11076739 0.0153794,-0.0477276 0.009177,-0.0505484 -0.11114862,-0.0505484 l -0.12743651,0 0.0166729,0.0961136 c 0.0258657,0.14910748 0.15706578,0.194093 0.1901614,0.0652022 z m 0.0298654,-0.22691722 c 0.0237001,-0.0184599 0.0430911,-0.0417023 0.0430911,-0.0516496 0,-0.009947 0.00749,-0.0332893 0.0166445,-0.0518708 0.0141427,-0.0287065 -0.0105885,-0.0337848 -0.16452937,-0.0337848 -0.17355024,0 -0.18117398,0.002183 -0.18117398,0.0518708 0,0.0693554 0.068637,0.11899786 0.16452937,0.11899786 0.0430911,0 0.0977384,-0.0151036 0.1214383,-0.0335635 z m 0.0123271,-0.17796153 c 0.064835,-0.031986 0.005227,-0.0661512 -0.11481767,-0.0658097 -0.14207329,4.0391e-4 -0.21853091,0.0314773 -0.15605555,0.0634218 0.0509353,0.0260437 0.21990393,0.0275333 0.27087322,0.002388 z" id="path10931" inkscape:connector-curvature="0" />
</svg>