<?xml version="1.0" encoding="utf-8" standalone="no"?>
<svg xmlns:dc="http://purl.org/dc/elements/1.1/" xmlns:cc="http://creativecommons.org/ns#" xmlns:rdf="http://www.w3.org/1999/02/22-rdf-syntax-ns#" xmlns:svg="http://www.w3.org/2000/svg" xmlns="http://www.w3.org/2000/svg" xmlns:sodipodi="http://sodipodi.sourceforge.net/DTD/sodipodi-0.dtd" xmlns:inkscape="http://www.inkscape.org/namespaces/inkscape" height="1" version="1.1" width="1" id="svg2" inkscape:version="0.91 r13725" sodipodi:docname="腕足动物.svg">
  <metadata id="metadata8">
    <rdf:RDF>
      <cc:Work rdf:about="">
        <dc:format>image/svg+xml</dc:format>
        <dc:type rdf:resource="http://purl.org/dc/dcmitype/StillImage" />
        <dc:title></dc:title>
      </cc:Work>
    </rdf:RDF>
  </metadata>
  <defs id="defs6">
    <pattern width="1" height="1" id="腕足动物" patternContentUnits="objectBoundingBox">
      <path style="fill:#000000" d="M 0.4256243,0.71842809 C 0.41180222,0.69533321 0.37161879,0.6438571 0.33632667,0.60403657 0.20064972,0.45094924 0.16539614,0.40631382 0.16539614,0.38761712 c 0,-0.010641 0.0327198,-0.0384495 0.0727122,-0.061797 0.0605151,-0.0353288 0.0834578,-0.0408697 0.13677162,-0.0330314 0.0451525,0.006639 0.0786265,0.002004 0.11341179,-0.0157015 0.0456756,-0.0232493 0.0529793,-0.0232654 0.0980407,-2.1449e-4 0.0343492,0.0175699 0.0676876,0.0221111 0.11320133,0.0154194 0.0816874,-0.0120093 0.17421595,0.0283499 0.18663061,0.0814061 0.009696,0.0414568 -0.0507924,0.13467291 -0.19105723,0.2944088 -0.0838232,0.0954591 -0.0876961,0.0978894 -0.12335537,0.0774187 -0.0282839,-0.0162361 -0.0407077,-0.01696 -0.0536101,-0.00312 -0.0280829,0.0301225 -0.0660228,0.0202903 -0.0925163,-0.0239759 z m 0.0870252,-0.0117965 c 0.02962,-0.0208177 0.0349578,-0.0208177 0.0510656,0 0.009896,0.0127864 0.0229128,0.0232479 0.0289325,0.0232479 0.0155991,0 0.19195742,-0.19734114 0.24335722,-0.27231144 0.0237535,-0.0346463 0.0391205,-0.0700528 0.0341493,-0.0786813 -0.0216189,-0.037521 -0.0946887,-0.0612223 -0.18094618,-0.0586931 -0.0493008,0.001452 -0.10347734,-0.005327 -0.12039136,-0.0150532 -0.0241845,-0.0139049 -0.0393882,-0.012849 -0.0711762,0.004943 -0.0276386,0.0154689 -0.0611659,0.0197059 -0.10600962,0.013395 -0.0493152,-0.006939 -0.0819818,-0.001452 -0.13167527,0.0221295 -0.0363495,0.0172471 -0.0660894,0.0360653 -0.0660894,0.0418183 0,0.0149196 0.2691999,0.34217233 0.28164544,0.34238285 0.002232,3.052e-5 0.0189444,-0.0103923 0.037138,-0.0231794 z" id="path5342" inkscape:connector-curvature="0" />
    </pattern>
  </defs>
  <sodipodi:namedview pagecolor="#ffffff" bordercolor="#666666" borderopacity="1" objecttolerance="10" gridtolerance="10" guidetolerance="10" inkscape:pageopacity="0" inkscape:pageshadow="2" inkscape:window-width="1600" inkscape:window-height="838" id="namedview4" showgrid="false" inkscape:zoom="83.4386" inkscape:cx="5.1232298" inkscape:cy="-1.0259875" inkscape:window-x="-8" inkscape:window-y="-8" inkscape:window-maximized="1" inkscape:current-layer="svg2" />
  <path style="fill:#000000" d="M 0.4256243,0.71842809 C 0.41180222,0.69533321 0.37161879,0.6438571 0.33632667,0.60403657 0.20064972,0.45094924 0.16539614,0.40631382 0.16539614,0.38761712 c 0,-0.010641 0.0327198,-0.0384495 0.0727122,-0.061797 0.0605151,-0.0353288 0.0834578,-0.0408697 0.13677162,-0.0330314 0.0451525,0.006639 0.0786265,0.002004 0.11341179,-0.0157015 0.0456756,-0.0232493 0.0529793,-0.0232654 0.0980407,-2.1449e-4 0.0343492,0.0175699 0.0676876,0.0221111 0.11320133,0.0154194 0.0816874,-0.0120093 0.17421595,0.0283499 0.18663061,0.0814061 0.009696,0.0414568 -0.0507924,0.13467291 -0.19105723,0.2944088 -0.0838232,0.0954591 -0.0876961,0.0978894 -0.12335537,0.0774187 -0.0282839,-0.0162361 -0.0407077,-0.01696 -0.0536101,-0.00312 -0.0280829,0.0301225 -0.0660228,0.0202903 -0.0925163,-0.0239759 z m 0.0870252,-0.0117965 c 0.02962,-0.0208177 0.0349578,-0.0208177 0.0510656,0 0.009896,0.0127864 0.0229128,0.0232479 0.0289325,0.0232479 0.0155991,0 0.19195742,-0.19734114 0.24335722,-0.27231144 0.0237535,-0.0346463 0.0391205,-0.0700528 0.0341493,-0.0786813 -0.0216189,-0.037521 -0.0946887,-0.0612223 -0.18094618,-0.0586931 -0.0493008,0.001452 -0.10347734,-0.005327 -0.12039136,-0.0150532 -0.0241845,-0.0139049 -0.0393882,-0.012849 -0.0711762,0.004943 -0.0276386,0.0154689 -0.0611659,0.0197059 -0.10600962,0.013395 -0.0493152,-0.006939 -0.0819818,-0.001452 -0.13167527,0.0221295 -0.0363495,0.0172471 -0.0660894,0.0360653 -0.0660894,0.0418183 0,0.0149196 0.2691999,0.34217233 0.28164544,0.34238285 0.002232,3.052e-5 0.0189444,-0.0103923 0.037138,-0.0231794 z" id="path5342" inkscape:connector-curvature="0" />
</svg>