<?xml version="1.0" encoding="utf-8" standalone="no"?>
<svg xmlns:dc="http://purl.org/dc/elements/1.1/" xmlns:cc="http://creativecommons.org/ns#" xmlns:rdf="http://www.w3.org/1999/02/22-rdf-syntax-ns#" xmlns:svg="http://www.w3.org/2000/svg" xmlns="http://www.w3.org/2000/svg" xmlns:sodipodi="http://sodipodi.sourceforge.net/DTD/sodipodi-0.dtd" xmlns:inkscape="http://www.inkscape.org/namespaces/inkscape" height="1" version="1.1" width="1" id="svg2" inkscape:version="0.91 r13725" sodipodi:docname="藻类.svg">
  <metadata id="metadata8">
    <rdf:RDF>
      <cc:Work rdf:about="">
        <dc:format>image/svg+xml</dc:format>
        <dc:type rdf:resource="http://purl.org/dc/dcmitype/StillImage" />
        <dc:title></dc:title>
      </cc:Work>
    </rdf:RDF>
  </metadata>
  <defs id="defs6">
    <pattern width="1" height="1" id="藻类" patternContentUnits="objectBoundingBox">
      <path inkscape:connector-curvature="0" id="path21601" d="m 0.46318342,0.94848793 c -0.0109357,-0.006493 -0.0134623,-0.0355823 -0.008074,-0.0929546 0.00775,-0.0825187 0.007242,-0.0837763 -0.0431496,-0.10687955 -0.0616447,-0.0282624 -0.0746263,-0.0525496 -0.089883,-0.1681637 -0.006468,-0.0490197 -0.0211101,-0.111852 -0.0325363,-0.13962734 -0.0277124,-0.0673651 -0.0261725,-0.16658259 0.003888,-0.25052229 0.0329993,-0.09214524 0.0709444,-0.110367 0.11481846,-0.0551375 l 0.0345903,0.0435427 0.0346088,-0.0738501 c 0.0363837,-0.07763757 0.0689929,-0.09107391 0.1281275,-0.05279359 0.0284316,0.01840507 0.0309837,0.02797091 0.0202666,0.07596546 -0.009372,0.0419709 -0.008198,0.0549089 0.004984,0.0549089 0.009485,0 0.0242018,-0.0142723 0.0327047,-0.031716 0.0258245,-0.05298069 0.0638928,-0.06222109 0.0900827,-0.0218662 0.022126,0.0340938 0.022543,0.0423008 0.00507,0.0998222 -0.01425,0.0469182 -0.015621,0.0735376 -0.00545,0.105887 0.020008,0.0636516 -0.00432,0.12397564 -0.0607622,0.15066427 -0.0262091,0.0123934 -0.0576915,0.0225874 -0.0699612,0.0226539 -0.0393634,2.1427e-4 -0.0732981,0.0798863 -0.0732981,0.17209102 0,0.058765 -0.009705,0.10479094 -0.0313192,0.148526 -0.0213708,0.0432434 -0.0271723,0.0704339 -0.0182643,0.0856009 0.0150354,0.0255996 -0.0104612,0.0492805 -0.036444,0.0338484 z m 0.0605323,-0.27824447 c 0,-0.10954312 0.0364901,-0.17310476 0.11283373,-0.19654376 0.0824409,-0.0253112 0.0949814,-0.0456229 0.0861597,-0.13955333 -0.00446,-0.0475073 -0.00234,-0.0892256 0.00494,-0.0968799 0.00703,-0.007394 0.012775,-0.0229263 0.012775,-0.0345162 0,-0.0115905 -0.017209,5.9139e-4 -0.0382422,0.027067 -0.0569009,0.0768634 0.001125,0.0570491 -0.0635465,0.12618672 -0.0170638,0.0542873 -0.0449492,0.059561 -0.0319053,0.006034 0.005091,-0.0208906 0.009529,-0.0496489 0.009862,-0.0639074 3.3026e-4,-0.0142589 0.003952,-0.024313 0.008042,-0.0223434 0.00409,0.001969 0.0275134,-0.0293025 0.0520523,-0.069494 l 0.0446157,-0.0730755 -0.0445774,0.0518781 c -0.0245178,0.028533 -0.0519213,0.0490066 -0.0608975,0.0454967 -0.008976,-0.00351 -0.0237173,0.0235715 -0.0327579,0.0601807 -0.009041,0.0366089 -0.0203575,0.0598877 -0.0251482,0.0517307 -0.016825,-0.0286468 -0.008405,-0.086687 0.0231369,-0.15947821 0.0351136,-0.081035 0.0268859,-0.10763979 -0.0334735,-0.10823891 -0.0446615,-4.428e-4 -0.0666081,0.04958644 -0.0697484,0.15899883 -0.004074,0.1419096 -0.004397,0.14453083 -0.0178581,0.14453083 -0.007011,0 -0.0127475,-0.029745 -0.0127475,-0.0661 0,-0.10069896 -0.0828695,-0.22115154 -0.10679726,-0.15523216 -0.003477,0.009579 0.007494,0.0847368 0.0243802,0.16701764 0.0168862,0.0822807 0.0281357,0.15397099 0.0249989,0.15931183 -0.0106133,0.0180707 -0.0445619,-0.0449416 -0.0445619,-0.0827117 0,-0.0572179 -0.02652,-0.17421666 -0.0394895,-0.17421666 -0.0198575,0 -0.0127736,0.17867429 0.008685,0.21904538 0.0111017,0.0208869 0.0271531,0.0844843 0.0356698,0.14132772 0.0141745,0.0946051 0.0200964,0.10596905 0.0699737,0.13427677 0.0299689,0.017009 0.0576102,0.0447745 0.0614251,0.0617014 0.0136304,0.0604777 0.0422014,-0.0156819 0.0422015,-0.11249272 z" style="fill:#000000" sodipodi:nodetypes="ssssssscssssssssscssssssssscccccscsssssssssssssssssss" />
    </pattern>
  </defs>
  <sodipodi:namedview pagecolor="#ffffff" bordercolor="#666666" borderopacity="1" objecttolerance="10" gridtolerance="10" guidetolerance="10" inkscape:pageopacity="0" inkscape:pageshadow="2" inkscape:window-width="1600" inkscape:window-height="838" id="namedview4" showgrid="false" inkscape:zoom="181.01934" inkscape:cx="2.8707704" inkscape:cy="-0.64520963" inkscape:window-x="-8" inkscape:window-y="-8" inkscape:window-maximized="1" inkscape:current-layer="svg2" />
  <path inkscape:connector-curvature="0" id="path21601" d="m 0.46318342,0.94848793 c -0.0109357,-0.006493 -0.0134623,-0.0355823 -0.008074,-0.0929546 0.00775,-0.0825187 0.007242,-0.0837763 -0.0431496,-0.10687955 -0.0616447,-0.0282624 -0.0746263,-0.0525496 -0.089883,-0.1681637 -0.006468,-0.0490197 -0.0211101,-0.111852 -0.0325363,-0.13962734 -0.0277124,-0.0673651 -0.0261725,-0.16658259 0.003888,-0.25052229 0.0329993,-0.09214524 0.0709444,-0.110367 0.11481846,-0.0551375 l 0.0345903,0.0435427 0.0346088,-0.0738501 c 0.0363837,-0.07763757 0.0689929,-0.09107391 0.1281275,-0.05279359 0.0284316,0.01840507 0.0309837,0.02797091 0.0202666,0.07596546 -0.009372,0.0419709 -0.008198,0.0549089 0.004984,0.0549089 0.009485,0 0.0242018,-0.0142723 0.0327047,-0.031716 0.0258245,-0.05298069 0.0638928,-0.06222109 0.0900827,-0.0218662 0.022126,0.0340938 0.022543,0.0423008 0.00507,0.0998222 -0.01425,0.0469182 -0.015621,0.0735376 -0.00545,0.105887 0.020008,0.0636516 -0.00432,0.12397564 -0.0607622,0.15066427 -0.0262091,0.0123934 -0.0576915,0.0225874 -0.0699612,0.0226539 -0.0393634,2.1427e-4 -0.0732981,0.0798863 -0.0732981,0.17209102 0,0.058765 -0.009705,0.10479094 -0.0313192,0.148526 -0.0213708,0.0432434 -0.0271723,0.0704339 -0.0182643,0.0856009 0.0150354,0.0255996 -0.0104612,0.0492805 -0.036444,0.0338484 z m 0.0605323,-0.27824447 c 0,-0.10954312 0.0364901,-0.17310476 0.11283373,-0.19654376 0.0824409,-0.0253112 0.0949814,-0.0456229 0.0861597,-0.13955333 -0.00446,-0.0475073 -0.00234,-0.0892256 0.00494,-0.0968799 0.00703,-0.007394 0.012775,-0.0229263 0.012775,-0.0345162 0,-0.0115905 -0.017209,5.9139e-4 -0.0382422,0.027067 -0.0569009,0.0768634 0.001125,0.0570491 -0.0635465,0.12618672 -0.0170638,0.0542873 -0.0449492,0.059561 -0.0319053,0.006034 0.005091,-0.0208906 0.009529,-0.0496489 0.009862,-0.0639074 3.3026e-4,-0.0142589 0.003952,-0.024313 0.008042,-0.0223434 0.00409,0.001969 0.0275134,-0.0293025 0.0520523,-0.069494 l 0.0446157,-0.0730755 -0.0445774,0.0518781 c -0.0245178,0.028533 -0.0519213,0.0490066 -0.0608975,0.0454967 -0.008976,-0.00351 -0.0237173,0.0235715 -0.0327579,0.0601807 -0.009041,0.0366089 -0.0203575,0.0598877 -0.0251482,0.0517307 -0.016825,-0.0286468 -0.008405,-0.086687 0.0231369,-0.15947821 0.0351136,-0.081035 0.0268859,-0.10763979 -0.0334735,-0.10823891 -0.0446615,-4.428e-4 -0.0666081,0.04958644 -0.0697484,0.15899883 -0.004074,0.1419096 -0.004397,0.14453083 -0.0178581,0.14453083 -0.007011,0 -0.0127475,-0.029745 -0.0127475,-0.0661 0,-0.10069896 -0.0828695,-0.22115154 -0.10679726,-0.15523216 -0.003477,0.009579 0.007494,0.0847368 0.0243802,0.16701764 0.0168862,0.0822807 0.0281357,0.15397099 0.0249989,0.15931183 -0.0106133,0.0180707 -0.0445619,-0.0449416 -0.0445619,-0.0827117 0,-0.0572179 -0.02652,-0.17421666 -0.0394895,-0.17421666 -0.0198575,0 -0.0127736,0.17867429 0.008685,0.21904538 0.0111017,0.0208869 0.0271531,0.0844843 0.0356698,0.14132772 0.0141745,0.0946051 0.0200964,0.10596905 0.0699737,0.13427677 0.0299689,0.017009 0.0576102,0.0447745 0.0614251,0.0617014 0.0136304,0.0604777 0.0422014,-0.0156819 0.0422015,-0.11249272 z" style="fill:#000000" sodipodi:nodetypes="ssssssscssssssssscssssssssscccccscsssssssssssssssssss" />
</svg>