<?xml version="1.0" encoding="utf-8" standalone="no"?>
<svg xmlns:dc="http://purl.org/dc/elements/1.1/" xmlns:cc="http://creativecommons.org/ns#" xmlns:rdf="http://www.w3.org/1999/02/22-rdf-syntax-ns#" xmlns:svg="http://www.w3.org/2000/svg" xmlns="http://www.w3.org/2000/svg" xmlns:sodipodi="http://sodipodi.sourceforge.net/DTD/sodipodi-0.dtd" xmlns:inkscape="http://www.inkscape.org/namespaces/inkscape" height="1" version="1.1" width="1" id="svg2" inkscape:version="0.91 r13725" sodipodi:docname="蜓.svg">
  <metadata id="metadata8">
    <rdf:RDF>
      <cc:Work rdf:about="">
        <dc:format>image/svg+xml</dc:format>
        <dc:type rdf:resource="http://purl.org/dc/dcmitype/StillImage" />
        <dc:title></dc:title>
      </cc:Work>
    </rdf:RDF>
  </metadata>
  <defs id="defs6">
    <pattern width="1" height="1" id="蜓" patternContentUnits="objectBoundingBox">
      <path style="fill:#000000" d="m 0.34023524,0.62033241 c -0.0273411,-0.006503 -0.0731275,-0.0306847 -0.10174746,-0.0537385 -0.0286197,-0.023055 -0.0700236,-0.0490471 -0.0920079,-0.0577611 -0.0219848,-0.008715 -0.0399721,-0.0238433 -0.0399721,-0.0336206 0,-0.009776 0.004381,-0.0145086 0.009741,-0.0105158 0.0126477,0.009426 0.0772752,-0.0222684 0.11154951,-0.0547062 0.049374,-0.0467283 0.13362328,-0.0699785 0.25492954,-0.0703537 0.12993097,-3.7747e-4 0.20295817,0.0187252 0.249106,0.0652415 0.0177232,0.0178648 0.0543804,0.041374 0.08146,0.0522427 0.0543539,0.0218147 0.0560792,0.0356217 0.00676,0.0541066 -0.0179997,0.006746 -0.0582921,0.0320943 -0.0895388,0.0563286 -0.0325869,0.0252741 -0.0801214,0.0488865 -0.11147835,0.0553755 -0.0688467,0.0142489 -0.2136321,0.0128996 -0.2788015,-0.002597 z M 0.6370469,0.59344351 c 0.0239835,-0.00895 0.0653737,-0.0350889 0.0919788,-0.0580858 0.0266043,-0.0229969 0.059309,-0.0420082 0.0726764,-0.0422473 0.0167976,-3.2349e-4 0.0126638,-0.005152 -0.0133839,-0.0157025 -0.020729,-0.008398 -0.0548845,-0.0320709 -0.0759021,-0.0526061 -0.0628017,-0.061362 -0.20552801,-0.0871337 -0.33461346,-0.060421 -0.0556318,0.0115123 -0.24573908,0.12916366 -0.2087095,0.12916366 0.0102991,0 0.0445823,0.019884 0.076184,0.0441874 0.0316014,0.0243028 0.0705392,0.0496273 0.0865281,0.0562764 0.0708044,0.0294456 0.22559073,0.029159 0.30524175,-5.6615e-4 z M 0.35724197,0.52323594 c -0.0339766,-0.0127203 -0.0617751,-0.0293969 -0.0617751,-0.0370589 0,-0.0215357 0.13580412,-0.0680637 0.19117468,-0.0654992 0.0547179,0.002532 0.19179059,0.0508805 0.1908325,0.0673066 -3.2335e-4,0.005879 -0.0292028,0.0215844 -0.0641316,0.0349007 -0.0806555,0.0307492 -0.17455911,0.0308775 -0.25610051,3.7747e-4 z m 0.23531415,-0.0169275 0.0572566,-0.0191654 -0.0758375,-0.0243134 c -0.0843096,-0.0270296 -0.14620751,-0.024467 -0.2048151,0.008479 l -0.0349491,0.019646 0.0424034,0.0171098 c 0.0560984,0.0226365 0.1452348,0.0219114 0.21594172,-0.001758 z" id="path4191" inkscape:connector-curvature="0" />
    </pattern>
  </defs>
  <sodipodi:namedview pagecolor="#ffffff" bordercolor="#666666" borderopacity="1" objecttolerance="10" gridtolerance="10" guidetolerance="10" inkscape:pageopacity="0" inkscape:pageshadow="2" inkscape:window-width="1600" inkscape:window-height="838" id="namedview4" showgrid="false" inkscape:zoom="256" inkscape:cx="1.855918" inkscape:cy="0.2269883" inkscape:window-x="-8" inkscape:window-y="-8" inkscape:window-maximized="1" inkscape:current-layer="svg2" />
  <path style="fill:#000000" d="m 0.34023524,0.62033241 c -0.0273411,-0.006503 -0.0731275,-0.0306847 -0.10174746,-0.0537385 -0.0286197,-0.023055 -0.0700236,-0.0490471 -0.0920079,-0.0577611 -0.0219848,-0.008715 -0.0399721,-0.0238433 -0.0399721,-0.0336206 0,-0.009776 0.004381,-0.0145086 0.009741,-0.0105158 0.0126477,0.009426 0.0772752,-0.0222684 0.11154951,-0.0547062 0.049374,-0.0467283 0.13362328,-0.0699785 0.25492954,-0.0703537 0.12993097,-3.7747e-4 0.20295817,0.0187252 0.249106,0.0652415 0.0177232,0.0178648 0.0543804,0.041374 0.08146,0.0522427 0.0543539,0.0218147 0.0560792,0.0356217 0.00676,0.0541066 -0.0179997,0.006746 -0.0582921,0.0320943 -0.0895388,0.0563286 -0.0325869,0.0252741 -0.0801214,0.0488865 -0.11147835,0.0553755 -0.0688467,0.0142489 -0.2136321,0.0128996 -0.2788015,-0.002597 z M 0.6370469,0.59344351 c 0.0239835,-0.00895 0.0653737,-0.0350889 0.0919788,-0.0580858 0.0266043,-0.0229969 0.059309,-0.0420082 0.0726764,-0.0422473 0.0167976,-3.2349e-4 0.0126638,-0.005152 -0.0133839,-0.0157025 -0.020729,-0.008398 -0.0548845,-0.0320709 -0.0759021,-0.0526061 -0.0628017,-0.061362 -0.20552801,-0.0871337 -0.33461346,-0.060421 -0.0556318,0.0115123 -0.24573908,0.12916366 -0.2087095,0.12916366 0.0102991,0 0.0445823,0.019884 0.076184,0.0441874 0.0316014,0.0243028 0.0705392,0.0496273 0.0865281,0.0562764 0.0708044,0.0294456 0.22559073,0.029159 0.30524175,-5.6615e-4 z M 0.35724197,0.52323594 c -0.0339766,-0.0127203 -0.0617751,-0.0293969 -0.0617751,-0.0370589 0,-0.0215357 0.13580412,-0.0680637 0.19117468,-0.0654992 0.0547179,0.002532 0.19179059,0.0508805 0.1908325,0.0673066 -3.2335e-4,0.005879 -0.0292028,0.0215844 -0.0641316,0.0349007 -0.0806555,0.0307492 -0.17455911,0.0308775 -0.25610051,3.7747e-4 z m 0.23531415,-0.0169275 0.0572566,-0.0191654 -0.0758375,-0.0243134 c -0.0843096,-0.0270296 -0.14620751,-0.024467 -0.2048151,0.008479 l -0.0349491,0.019646 0.0424034,0.0171098 c 0.0560984,0.0226365 0.1452348,0.0219114 0.21594172,-0.001758 z" id="path4191" inkscape:connector-curvature="0" />
</svg>