<?xml version="1.0" encoding="utf-8" standalone="no"?>
<svg xmlns:dc="http://purl.org/dc/elements/1.1/" xmlns:cc="http://creativecommons.org/ns#" xmlns:rdf="http://www.w3.org/1999/02/22-rdf-syntax-ns#" xmlns:svg="http://www.w3.org/2000/svg" xmlns="http://www.w3.org/2000/svg" xmlns:sodipodi="http://sodipodi.sourceforge.net/DTD/sodipodi-0.dtd" xmlns:inkscape="http://www.inkscape.org/namespaces/inkscape" height="1" version="1.1" width="1" id="svg2" inkscape:version="0.91 r13725" sodipodi:docname="轮藻.svg">
  <metadata id="metadata8">
    <rdf:RDF>
      <cc:Work rdf:about="">
        <dc:format>image/svg+xml</dc:format>
        <dc:type rdf:resource="http://purl.org/dc/dcmitype/StillImage" />
        <dc:title></dc:title>
      </cc:Work>
    </rdf:RDF>
  </metadata>
  <defs id="defs6">
    <pattern width="1" height="1" id="轮藻" patternContentUnits="objectBoundingBox">
      <path style="fill:#000000" d="M 0.47355969,0.92437468 C 0.46892924,0.904029 0.43995261,0.87030673 0.40916744,0.84943614 0.3417873,0.80375677 0.25750526,0.68708032 0.22265026,0.59122958 0.17878432,0.47059955 0.21568581,0.24975651 0.29525716,0.15670625 0.35426796,0.08769889 0.40689635,0.06236233 0.49147593,0.06224185 c 0.0954695,-1.2877e-4 0.13490103,0.0174676 0.20419246,0.09115391 0.0769624,0.0818449 0.0979004,0.14742278 0.0972327,0.30453506 -8.0503e-4,0.18867338 -0.0417542,0.27676315 -0.16777037,0.36087847 -0.0494387,0.0330002 -0.0971315,0.0785758 -0.10598357,0.10127884 -0.0199288,0.0511111 -0.0346161,0.0524921 -0.0455874,0.00429 z m 0.077987,-0.0943681 c 0.0269027,-0.0149149 0.0525827,-0.0319121 0.0570664,-0.0377702 0.004483,-0.005858 0.0311636,-0.0291048 0.0592881,-0.0516591 C 0.77011148,0.65861008 0.80756878,0.42251673 0.74184719,0.2744948 0.69939139,0.1788733 0.57647734,0.08085283 0.49902766,0.08085283 c -0.0958188,0 -0.16573665,0.05730344 -0.22858416,0.18734341 -0.0729729,0.15099089 -0.0589005,0.29770559 0.0414797,0.43245269 0.0535012,0.0718182 0.16467528,0.16961518 0.18255707,0.16059089 0.004484,-0.002259 0.0301637,-0.0163183 0.0570664,-0.0312333 z" id="path24524" inkscape:connector-curvature="0" />
    </pattern>
  </defs>
  <sodipodi:namedview pagecolor="#ffffff" bordercolor="#666666" borderopacity="1" objecttolerance="10" gridtolerance="10" guidetolerance="10" inkscape:pageopacity="0" inkscape:pageshadow="2" inkscape:window-width="1600" inkscape:window-height="838" id="namedview4" showgrid="false" inkscape:zoom="150.96371" inkscape:cx="0.51756224" inkscape:cy="0.36225089" inkscape:window-x="-8" inkscape:window-y="-8" inkscape:window-maximized="1" inkscape:current-layer="svg2" />
  <path style="fill:#000000" d="M 0.47355969,0.92437468 C 0.46892924,0.904029 0.43995261,0.87030673 0.40916744,0.84943614 0.3417873,0.80375677 0.25750526,0.68708032 0.22265026,0.59122958 0.17878432,0.47059955 0.21568581,0.24975651 0.29525716,0.15670625 0.35426796,0.08769889 0.40689635,0.06236233 0.49147593,0.06224185 c 0.0954695,-1.2877e-4 0.13490103,0.0174676 0.20419246,0.09115391 0.0769624,0.0818449 0.0979004,0.14742278 0.0972327,0.30453506 -8.0503e-4,0.18867338 -0.0417542,0.27676315 -0.16777037,0.36087847 -0.0494387,0.0330002 -0.0971315,0.0785758 -0.10598357,0.10127884 -0.0199288,0.0511111 -0.0346161,0.0524921 -0.0455874,0.00429 z m 0.077987,-0.0943681 c 0.0269027,-0.0149149 0.0525827,-0.0319121 0.0570664,-0.0377702 0.004483,-0.005858 0.0311636,-0.0291048 0.0592881,-0.0516591 C 0.77011148,0.65861008 0.80756878,0.42251673 0.74184719,0.2744948 0.69939139,0.1788733 0.57647734,0.08085283 0.49902766,0.08085283 c -0.0958188,0 -0.16573665,0.05730344 -0.22858416,0.18734341 -0.0729729,0.15099089 -0.0589005,0.29770559 0.0414797,0.43245269 0.0535012,0.0718182 0.16467528,0.16961518 0.18255707,0.16059089 0.004484,-0.002259 0.0301637,-0.0163183 0.0570664,-0.0312333 z" id="path24524" inkscape:connector-curvature="0" />
</svg>