<?xml version="1.0" encoding="UTF-8" standalone="no"?>
<!-- Created with Inkscape (http://www.inkscape.org/) -->

<svg
   xmlns:dc="http://purl.org/dc/elements/1.1/"
   xmlns:cc="http://creativecommons.org/ns#"
   xmlns:rdf="http://www.w3.org/1999/02/22-rdf-syntax-ns#"
   xmlns:svg="http://www.w3.org/2000/svg"
   xmlns="http://www.w3.org/2000/svg"
   xmlns:xlink="http://www.w3.org/1999/xlink"
   xmlns:sodipodi="http://sodipodi.sourceforge.net/DTD/sodipodi-0.dtd"
   xmlns:inkscape="http://www.inkscape.org/namespaces/inkscape"
   width="210mm"
   height="297mm"
   viewBox="0 0 744.09448819 1052.3622047"
   id="svg95353"
   version="1.1"
   inkscape:version="0.91 r13725"
   sodipodi:docname="USGS663.svg">
  <defs
     id="defs95355">
    <pattern
       inkscape:collect="always"
       xlink:href="#pattern136377"
       id="USGS663"
       patternTransform="matrix(1.25,0,0,-1.25,-308.029,494.37319)" />
    <pattern
       inkscape:collect="always"
       xlink:href="#sed663"
       id="pattern136377"
       patternTransform="translate(-81.67863,427.96051)" />
    <pattern
       id="sed663"
       height="53.9775"
       width="53.9776"
       y="0"
       x="0"
       patternUnits="userSpaceOnUse"
       patternTransform="rotate(180)">
      <g
         id="g33294"
         transform="translate(0,48.0625)">
        <path
           id="path33296"
           style="fill:none;stroke:#231f20;stroke-opacity:1;stroke-width:0.3;stroke-linecap:butt;stroke-linejoin:miter;stroke-miterlimit:4;stroke-dasharray:none"
           d="M 0,0 53.978,0" />
      </g>
      <g
         id="g33298"
         transform="translate(0,52.3125)">
        <path
           id="path33300"
           style="fill:none;stroke:#231f20;stroke-opacity:1;stroke-width:0.3;stroke-linecap:butt;stroke-linejoin:miter;stroke-miterlimit:4;stroke-dasharray:none"
           d="M 0,0 53.978,0" />
      </g>
      <g
         id="g33302"
         transform="translate(13.4366,41.2915)">
        <path
           id="path33304"
           style="fill:none;stroke:#231f20;stroke-opacity:1;stroke-width:0.3;stroke-linecap:butt;stroke-linejoin:miter;stroke-miterlimit:4;stroke-dasharray:none"
           d="M 0,0 C 0.5,0.063 1.375,0.375 1.813,1.188 3.25,0.5 5.188,-0.625 7.875,0.375" />
      </g>
      <g
         id="g33306"
         transform="translate(4.1866,35.7085)">
        <path
           id="path33308"
           style="fill:none;stroke:#231f20;stroke-opacity:1;stroke-width:0.3;stroke-linecap:butt;stroke-linejoin:miter;stroke-miterlimit:4;stroke-dasharray:none"
           d="M 0,0 C -1.663,-0.619 -3.039,-0.424 -4.187,-0.022" />
      </g>
      <g
         id="g33310"
         transform="translate(22.6241,6.021)">
        <path
           id="path33312"
           style="fill:none;stroke:#231f20;stroke-opacity:1;stroke-width:0.3;stroke-linecap:butt;stroke-linejoin:miter;stroke-miterlimit:4;stroke-dasharray:none"
           d="M 0,0 C -2.688,-1 -4.625,0.125 -6.063,0.813 -6.5,0 -7.375,-0.313 -7.875,-0.375" />
      </g>
      <g
         id="g33314"
         transform="translate(42.8946,9.0625)">
        <path
           id="path33316"
           style="fill:none;stroke:#231f20;stroke-opacity:1;stroke-width:0.3;stroke-linecap:butt;stroke-linejoin:miter;stroke-miterlimit:4;stroke-dasharray:none"
           d="M 0,0 C -2.688,-1 -4.625,0.125 -6.063,0.813 -6.5,0 -7.375,-0.313 -7.875,-0.375" />
      </g>
      <g
         id="g33318"
         transform="translate(0,2.4526)">
        <path
           id="path33320"
           style="fill:none;stroke:#231f20;stroke-opacity:1;stroke-width:0.3;stroke-linecap:butt;stroke-linejoin:miter;stroke-miterlimit:4;stroke-dasharray:none"
           d="M 0,0 C 0.466,0.053 0.958,0.166 1.478,0.36" />
      </g>
      <g
         id="g33322"
         transform="translate(39.4776,42.375)">
        <path
           id="path33324"
           style="fill:none;stroke:#231f20;stroke-opacity:1;stroke-width:0.3;stroke-linecap:butt;stroke-linejoin:miter;stroke-miterlimit:4;stroke-dasharray:none"
           d="M 0,0 C 0.5,0.063 1.375,0.375 1.813,1.188 3.25,0.5 5.188,-0.625 7.875,0.375" />
      </g>
      <g
         id="g33326"
         transform="translate(28.0196,32.604)">
        <path
           id="path33328"
           style="fill:none;stroke:#231f20;stroke-opacity:1;stroke-width:0.3;stroke-linecap:butt;stroke-linejoin:miter;stroke-miterlimit:4;stroke-dasharray:none"
           d="M 0,0 C 0.5,0.063 1.375,0.375 1.813,1.188 3.25,0.5 5.188,-0.625 7.875,0.375" />
      </g>
      <g
         id="g33330"
         transform="translate(51.0401,24.458)">
        <path
           id="path33332"
           style="fill:none;stroke:#231f20;stroke-opacity:1;stroke-width:0.3;stroke-linecap:butt;stroke-linejoin:miter;stroke-miterlimit:4;stroke-dasharray:none"
           d="M 0,0 C -2.688,-1 -4.625,0.125 -6.063,0.813 -6.5,0 -7.375,-0.313 -7.875,-0.375" />
      </g>
      <g
         id="g33334"
         transform="translate(33.2696,19.021)">
        <path
           id="path33336"
           style="fill:none;stroke:#231f20;stroke-opacity:1;stroke-width:0.3;stroke-linecap:butt;stroke-linejoin:miter;stroke-miterlimit:4;stroke-dasharray:none"
           d="M 0,0 C -2.688,-1 -4.625,0.125 -6.063,0.813 -6.5,0 -7.375,-0.313 -7.875,-0.375" />
      </g>
      <g
         id="g33338"
         transform="translate(18.2071,26.2915)">
        <path
           id="path33340"
           style="fill:none;stroke:#231f20;stroke-opacity:1;stroke-width:0.3;stroke-linecap:butt;stroke-linejoin:miter;stroke-miterlimit:4;stroke-dasharray:none"
           d="M 0,0 C -2.687,-1 -4.625,0.125 -6.062,0.813 -6.5,0 -7.375,-0.313 -7.875,-0.375" />
      </g>
      <g
         id="g33342"
         transform="translate(8.1651,14.854)">
        <path
           id="path33344"
           style="fill:none;stroke:#231f20;stroke-opacity:1;stroke-width:0.3;stroke-linecap:butt;stroke-linejoin:miter;stroke-miterlimit:4;stroke-dasharray:none"
           d="M 0,0 C -2.688,-1 -4.625,0.125 -6.063,0.813 -6.5,0 -7.375,-0.313 -7.875,-0.375" />
      </g>
      <g
         id="g33346"
         transform="translate(46.6055,49.8062)">
        <path
           id="path33348"
           style="fill:none;stroke:#231f20;stroke-opacity:1;stroke-width:0.3;stroke-linecap:butt;stroke-linejoin:miter;stroke-miterlimit:4;stroke-dasharray:none"
           d="M 0,0 C 0.439,0.051 1.205,0.304 1.589,0.962 2.849,0.405 4.547,-0.506 6.903,0.304" />
      </g>
      <g
         id="g33350"
         transform="translate(44.5352,50.1099)">
        <path
           id="path33352"
           style="fill:none;stroke:#231f20;stroke-opacity:1;stroke-width:0.3;stroke-linecap:butt;stroke-linejoin:miter;stroke-miterlimit:4;stroke-dasharray:none"
           d="M 0,0 C -2.355,-0.81 -4.054,0.101 -5.314,0.658 -5.697,0 -6.464,-0.253 -6.902,-0.304" />
      </g>
      <g
         id="g33354"
         transform="translate(35.5625,50.1099)">
        <path
           id="path33356"
           style="fill:none;stroke:#231f20;stroke-opacity:1;stroke-width:0.3;stroke-linecap:butt;stroke-linejoin:miter;stroke-miterlimit:4;stroke-dasharray:none"
           d="M 0,0 C -2.355,-0.81 -4.054,0.101 -5.313,0.658 -5.697,0 -6.464,-0.253 -6.902,-0.304" />
      </g>
      <g
         id="g33358"
         transform="translate(26.5908,50.1099)">
        <path
           id="path33360"
           style="fill:none;stroke:#231f20;stroke-opacity:1;stroke-width:0.3;stroke-linecap:butt;stroke-linejoin:miter;stroke-miterlimit:4;stroke-dasharray:none"
           d="M 0,0 C -2.355,-0.81 -4.054,0.101 -5.314,0.658 -5.697,0 -6.465,-0.253 -6.902,-0.304" />
      </g>
      <g
         id="g33362"
         transform="translate(17.6182,50.1099)">
        <path
           id="path33364"
           style="fill:none;stroke:#231f20;stroke-opacity:1;stroke-width:0.3;stroke-linecap:butt;stroke-linejoin:miter;stroke-miterlimit:4;stroke-dasharray:none"
           d="M 0,0 C -2.356,-0.81 -4.055,0.101 -5.314,0.658 -5.697,0 -6.465,-0.253 -6.903,-0.304" />
      </g>
      <g
         id="g33366"
         transform="translate(8.6455,50.1099)">
        <path
           id="path33368"
           style="fill:none;stroke:#231f20;stroke-opacity:1;stroke-width:0.3;stroke-linecap:butt;stroke-linejoin:miter;stroke-miterlimit:4;stroke-dasharray:none"
           d="M 0,0 C -2.355,-0.81 -4.054,0.101 -5.313,0.658 -5.697,0 -6.464,-0.253 -6.902,-0.304" />
      </g>
      <g
         id="g33370"
         transform="translate(50.2891,35.3335)">
        <path
           id="path33372"
           style="fill:none;stroke:#231f20;stroke-opacity:1;stroke-width:0.3;stroke-linecap:butt;stroke-linejoin:miter;stroke-miterlimit:4;stroke-dasharray:none"
           d="M 0,0 C 0.5,0.063 1.375,0.375 1.813,1.188 2.36,0.925 2.981,0.6 3.689,0.353" />
      </g>
      <g
         id="g33374"
         transform="translate(47.5801,2.4375)">
        <path
           id="path33376"
           style="fill:none;stroke:#231f20;stroke-opacity:1;stroke-width:0.3;stroke-linecap:butt;stroke-linejoin:miter;stroke-miterlimit:4;stroke-dasharray:none"
           d="M 0,0 C 0.5,0.063 1.375,0.375 1.813,1.188 2.972,0.633 4.456,-0.206 6.398,0.015" />
      </g>
    </pattern>
  </defs>
  <sodipodi:namedview
     id="base"
     pagecolor="#ffffff"
     bordercolor="#666666"
     borderopacity="1.0"
     inkscape:pageopacity="0.0"
     inkscape:pageshadow="2"
     inkscape:zoom="0.35"
     inkscape:cx="100.71429"
     inkscape:cy="520"
     inkscape:document-units="px"
     inkscape:current-layer="layer1"
     showgrid="false"
     inkscape:window-width="1680"
     inkscape:window-height="1028"
     inkscape:window-x="1672"
     inkscape:window-y="-8"
     inkscape:window-maximized="1" />
  <metadata
     id="metadata95358">
    <rdf:RDF>
      <cc:Work
         rdf:about="">
        <dc:format>image/svg+xml</dc:format>
        <dc:type
           rdf:resource="http://purl.org/dc/dcmitype/StillImage" />
        <dc:title></dc:title>
      </cc:Work>
    </rdf:RDF>
  </metadata>
  <g
     inkscape:label="Layer 1"
     inkscape:groupmode="layer"
     id="layer1">
    <text
       id="text1988"
       x="257.13214"
       y="469.12973"
       style="font-size:15px">
      <tspan
         style="font-variant:normal;font-weight:normal;font-stretch:normal;font-size:11.25px;font-family:'Myriad Pro';-inkscape-font-specification:Helvetica;writing-mode:lr-tb;fill:#231f20;fill-opacity:1;fill-rule:nonzero;stroke:none"
         x="257.13214 263.13965 269.14716"
         y="469.12973"
         sodipodi:role="line"
         id="tspan1990">663</tspan>
    </text>
    <text
       id="text1992"
       x="245.41341"
       y="479.62973"
       style="font-size:15px">
      <tspan
         style="font-variant:normal;font-weight:normal;font-stretch:normal;font-size:8.75px;font-family:'Myriad Pro';-inkscape-font-specification:Helvetica;writing-mode:lr-tb;fill:#231f20;fill-opacity:1;fill-rule:nonzero;stroke:none"
         x="245.41341 251.24965 253.4984 257.89966 262.90463 266.9559 271.94339 276.9834 279.21466 282.24216"
         y="479.62973"
         sodipodi:role="line"
         id="tspan1994">Glauconite</tspan>
    </text>
    <path
       inkscape:connector-curvature="0"
       d="m 299.46429,402.37383 -67.5,0 0,54.00125 67.5,0 0,-54.00125 z"
       style="fill:url(#USGS663);fill-opacity:1;fill-rule:nonzero;stroke:none"
       id="path33378-5" />
    <path
       inkscape:connector-curvature="0"
       d="m 299.46429,402.37383 -67.5,0 0,54.00125 67.5,0 0,-54.00125 z"
       style="fill:none;stroke:#231f20;stroke-width:0.53750002;stroke-linecap:butt;stroke-linejoin:miter;stroke-miterlimit:4;stroke-dasharray:none;stroke-opacity:1"
       id="path33380" />
  </g>
</svg>
