<?xml version="1.0" encoding="utf-8" standalone="no"?>
<svg xmlns:dc="http://purl.org/dc/elements/1.1/" xmlns:cc="http://creativecommons.org/ns#" xmlns:rdf="http://www.w3.org/1999/02/22-rdf-syntax-ns#" xmlns:svg="http://www.w3.org/2000/svg" xmlns="http://www.w3.org/2000/svg" xmlns:sodipodi="http://sodipodi.sourceforge.net/DTD/sodipodi-0.dtd" xmlns:inkscape="http://www.inkscape.org/namespaces/inkscape" height="1" version="1.1" width="1" id="svg2" inkscape:version="0.91 r13725" sodipodi:docname="caternaryOutPhase.svg">
  <metadata id="metadata8">
    <rdf:RDF>
      <cc:Work rdf:about="">
        <dc:format>image/svg+xml</dc:format>
        <dc:type rdf:resource="http://purl.org/dc/dcmitype/StillImage" />
        <dc:title></dc:title>
      </cc:Work>
    </rdf:RDF>
  </metadata>
  <defs id="defs6">
    <pattern width="1" height="1" id="caternaryOutPhase非周期链型" patternContentUnits="objectBoundingBox">
      <path style="fill:#000000" d="m 0.31852036,0.82648672 -0.035978,-0.0247884 -0.0360183,0.019452 c -0.0198099,0.0106982 -0.050171,0.0193571 -0.0674697,0.0192404 -0.0418241,-2.814e-4 -0.11367487,-0.0466483 -0.10471508,-0.0675748 0.0018334,-0.004292 0.01757142,0.00374 0.03496505,0.017847 0.0410317,0.0332782 0.0967967,0.0347906 0.14405294,0.003908 l 0.0323403,-0.0211352 0.0303516,0.0256748 c 0.0430156,0.0363877 0.0969982,0.0361902 0.15275506,-5.5836e-4 0.0408578,-0.0269297 0.0409195,-0.0269383 0.0734142,-0.0104717 0.0178872,0.009064 0.0550469,0.01844 0.0825772,0.0208362 0.0430146,0.003744 0.0542793,0.001197 0.0800881,-0.018104 0.0295592,-0.0221062 0.0305594,-0.0222013 0.0634033,-0.006024 0.0425662,0.0209669 0.0956488,0.0216286 0.13028515,0.001623 0.0265527,-0.0153356 0.0383679,-0.0137744 0.0307318,0.004061 -0.006492,0.0151632 -0.0657729,0.0347816 -0.10094519,0.0334075 -0.0183563,-7.1789e-4 -0.0460946,-0.007871 -0.0616403,-0.0158966 -0.0265362,-0.0136999 -0.03021,-0.013335 -0.0600662,0.005967 -0.0410484,0.0265383 -0.10408286,0.0265334 -0.15784444,-1.076e-5 L 0.50952695,0.794544 0.47580865,0.8189897 C 0.42505065,0.8557894 0.36518963,0.8586432 0.31852052,0.8264877 Z M 0.21100675,0.7062883 c -0.0289562,-0.008439 -0.0800882,-0.0458222 -0.0800882,-0.0585534 0,-0.012861 5.3277e-4,-0.0126702 0.0410498,0.0145521 0.0443256,0.0297852 0.0856292,0.0309654 0.13471825,0.00385 L 0.343488,0.6458086 0.3807287,0.672108 C 0.4279865,0.7054818 0.4778036,0.7029818 0.53229223,0.664501 l 0.0365067,-0.0257816 0.0363409,0.0205524 c 0.052278,0.0295657 0.12003712,0.029489 0.16028666,-1.8048e-4 0.0290339,-0.0214025 0.0317159,-0.0217628 0.0554488,-0.007449 0.0437468,0.0263841 0.0835853,0.0289867 0.1261559,0.008243 0.0421599,-0.0205448 0.0577867,-0.0124815 0.0242809,0.0125284 -0.0332839,0.0248441 -0.0872632,0.0287496 -0.13571346,0.009819 -0.0406722,-0.0158914 -0.0434728,-0.0158505 -0.0649197,9.5398e-4 -0.0313507,0.0245657 -0.12375798,0.0244748 -0.16800631,-1.6494e-4 l -0.0321342,-0.0178943 -0.0387774,0.0251192 c -0.0518883,0.0336121 -0.11702432,0.0344572 -0.15991083,0.002074 -0.0288116,-0.0217549 -0.0299463,-0.0218614 -0.0600664,-0.005634 -0.0404169,0.0217738 -0.0721481,0.0279457 -0.10077714,0.0196018 z M 0.32112817,0.56184171 c -0.0110128,-0.003876 -0.0318252,-0.0158491 -0.0462519,-0.0266056 l -0.0262296,-0.0195571 -0.0304993,0.0196321 C 0.17283253,0.56447961 0.11705109,0.56183725 0.0717097,0.52837425 0.05050999,0.51272848 0.0383106,0.498379 0.04185585,0.49326037 c 0.0035471,-0.005118 0.01934056,0.001096 0.03864942,0.015206 0.04071397,0.0297523 0.08345668,0.0309761 0.13372229,0.003829 l 0.0370921,-0.0200319 0.0345456,0.0248487 c 0.0485188,0.0348998 0.0954778,0.0338463 0.14996943,-0.003364 l 0.0412931,-0.0281975 0.0354581,0.0201377 c 0.0515231,0.0292611 0.12683562,0.0292722 0.16112281,2.143e-5 0.024326,-0.0207516 0.0269728,-0.0211043 0.0550624,-0.007339 0.0459844,0.022535 0.076983,0.0267051 0.10959268,0.0147427 0.016518,-0.00606 0.0367905,-0.0133913 0.0450496,-0.016293 0.0282954,-0.00994 0.015044,0.0144129 -0.0162055,0.0297823 -0.039566,0.0194596 -0.0834284,0.0195284 -0.12851772,1.999e-4 -0.033935,-0.0145465 -0.0367282,-0.0143034 -0.0694918,0.006041 -0.0285777,0.0177455 -0.0423065,0.0203739 -0.0843191,0.0161435 -0.0276007,-0.002778 -0.0629529,-0.0124739 -0.07856,-0.021544 -0.0274345,-0.0159433 -0.0293639,-0.015821 -0.0581211,0.003691 -0.0302931,0.0205539 -0.0789486,0.0398599 -0.0970378,0.0385037 -0.005507,-4.1269e-4 -0.0190205,-0.003922 -0.0300332,-0.007798 z m 0.0660475,-0.16862909 -0.0340628,-0.0249749 -0.0293403,0.0192152 c -0.0420967,0.0275694 -0.0997811,0.0259339 -0.14446744,-0.004096 -0.019271,-0.0129508 -0.0350385,-0.0280813 -0.0350385,-0.0336236 0,-0.0150389 0.009953,-0.0123175 0.0359622,0.009832 0.0386226,0.0328929 0.0874518,0.0348938 0.13762737,0.00564 0.0374761,-0.0218499 0.0440554,-0.0232107 0.0533733,-0.0110387 0.005847,0.007636 0.0239935,0.0208403 0.04033,0.0293433 0.0378254,0.0196882 0.0819322,0.0131103 0.13143239,-0.0196008 l 0.0372972,-0.0246473 0.0397128,0.0198377 c 0.0542655,0.0271075 0.11250627,0.0274338 0.15520112,8.7044e-4 0.0317148,-0.0197323 0.0352449,-0.0200801 0.0625738,-0.006162 0.0370753,0.0188815 0.10088833,0.0189196 0.13212795,7.945e-5 0.0162176,-0.009781 0.0265508,-0.0114602 0.0310002,-0.005037 0.00445,0.006422 -0.002063,0.0150837 -0.0195348,0.0259835 -0.0328541,0.0204952 -0.10952329,0.0210591 -0.14634151,0.001075 -0.0249503,-0.0135414 -0.0284418,-0.0131776 -0.0533921,0.005562 -0.0351089,0.0263695 -0.10495191,0.0274955 -0.16142876,0.002602 l -0.0412964,-0.0182034 -0.0321178,0.0220222 c -0.0205026,0.0140582 -0.0490135,0.0235184 -0.078836,0.0261586 -0.0404437,0.003581 -0.0512929,7.8379e-4 -0.0807807,-0.020839 z m -0.059281,-0.13457968 -0.0332766,-0.0246282 -0.0353815,0.0191084 c -0.0498881,0.0269427 -0.0975378,0.024961 -0.14035503,-0.005837 -0.0190743,-0.01372 -0.03467984,-0.0288927 -0.03467984,-0.0337176 0,-0.0129692 0.0059659,-0.0110253 0.03960549,0.0129036 0.040014,0.0284631 0.097915,0.0280983 0.14286792,-9.0167e-4 0.0317114,-0.0204565 0.0326358,-0.0205095 0.0500548,-0.002879 0.0471393,0.0477119 0.10362672,0.0495019 0.16639148,0.005273 l 0.0351855,-0.0247949 0.0411926,0.0200798 c 0.0550368,0.0268283 0.11584258,0.0266382 0.1558205,-4.8552e-4 0.0292174,-0.0198238 0.0315321,-0.0199979 0.0640969,-0.004816 0.0421928,0.0196695 0.0986605,0.0202337 0.13005464,0.0013 0.0291813,-0.0175995 0.0290039,-0.0175918 0.0290039,-0.001252 0,0.0349578 -0.11184065,0.0500612 -0.1645433,0.0222205 -0.0261453,-0.0138115 -0.0293796,-0.0134537 -0.0567292,0.006276 -0.0371072,0.0267689 -0.10646865,0.0269593 -0.15914653,4.3698e-4 l -0.036707,-0.0184817 -0.0367073,0.023931 c -0.0547426,0.0356891 -0.11379987,0.0380497 -0.15674666,0.006264 z" id="path4332" inkscape:connector-curvature="0" />
    </pattern>
  </defs>
  <sodipodi:namedview pagecolor="#ffffff" bordercolor="#666666" borderopacity="1" objecttolerance="10" gridtolerance="10" guidetolerance="10" inkscape:pageopacity="0" inkscape:pageshadow="2" inkscape:window-width="1600" inkscape:window-height="838" id="namedview4" showgrid="false" inkscape:zoom="148.85801" inkscape:cx="0.13617801" inkscape:cy="0.21885751" inkscape:window-x="-8" inkscape:window-y="-8" inkscape:window-maximized="1" inkscape:current-layer="svg2" />
  <path style="fill:#000000" d="m 0.31852036,0.82648672 -0.035978,-0.0247884 -0.0360183,0.019452 c -0.0198099,0.0106982 -0.050171,0.0193571 -0.0674697,0.0192404 -0.0418241,-2.814e-4 -0.11367487,-0.0466483 -0.10471508,-0.0675748 0.0018334,-0.004292 0.01757142,0.00374 0.03496505,0.017847 0.0410317,0.0332782 0.0967967,0.0347906 0.14405294,0.003908 l 0.0323403,-0.0211352 0.0303516,0.0256748 c 0.0430156,0.0363877 0.0969982,0.0361902 0.15275506,-5.5836e-4 0.0408578,-0.0269297 0.0409195,-0.0269383 0.0734142,-0.0104717 0.0178872,0.009064 0.0550469,0.01844 0.0825772,0.0208362 0.0430146,0.003744 0.0542793,0.001197 0.0800881,-0.018104 0.0295592,-0.0221062 0.0305594,-0.0222013 0.0634033,-0.006024 0.0425662,0.0209669 0.0956488,0.0216286 0.13028515,0.001623 0.0265527,-0.0153356 0.0383679,-0.0137744 0.0307318,0.004061 -0.006492,0.0151632 -0.0657729,0.0347816 -0.10094519,0.0334075 -0.0183563,-7.1789e-4 -0.0460946,-0.007871 -0.0616403,-0.0158966 -0.0265362,-0.0136999 -0.03021,-0.013335 -0.0600662,0.005967 -0.0410484,0.0265383 -0.10408286,0.0265334 -0.15784444,-1.076e-5 L 0.50952695,0.794544 0.47580865,0.8189897 C 0.42505065,0.8557894 0.36518963,0.8586432 0.31852052,0.8264877 Z M 0.21100675,0.7062883 c -0.0289562,-0.008439 -0.0800882,-0.0458222 -0.0800882,-0.0585534 0,-0.012861 5.3277e-4,-0.0126702 0.0410498,0.0145521 0.0443256,0.0297852 0.0856292,0.0309654 0.13471825,0.00385 L 0.343488,0.6458086 0.3807287,0.672108 C 0.4279865,0.7054818 0.4778036,0.7029818 0.53229223,0.664501 l 0.0365067,-0.0257816 0.0363409,0.0205524 c 0.052278,0.0295657 0.12003712,0.029489 0.16028666,-1.8048e-4 0.0290339,-0.0214025 0.0317159,-0.0217628 0.0554488,-0.007449 0.0437468,0.0263841 0.0835853,0.0289867 0.1261559,0.008243 0.0421599,-0.0205448 0.0577867,-0.0124815 0.0242809,0.0125284 -0.0332839,0.0248441 -0.0872632,0.0287496 -0.13571346,0.009819 -0.0406722,-0.0158914 -0.0434728,-0.0158505 -0.0649197,9.5398e-4 -0.0313507,0.0245657 -0.12375798,0.0244748 -0.16800631,-1.6494e-4 l -0.0321342,-0.0178943 -0.0387774,0.0251192 c -0.0518883,0.0336121 -0.11702432,0.0344572 -0.15991083,0.002074 -0.0288116,-0.0217549 -0.0299463,-0.0218614 -0.0600664,-0.005634 -0.0404169,0.0217738 -0.0721481,0.0279457 -0.10077714,0.0196018 z M 0.32112817,0.56184171 c -0.0110128,-0.003876 -0.0318252,-0.0158491 -0.0462519,-0.0266056 l -0.0262296,-0.0195571 -0.0304993,0.0196321 C 0.17283253,0.56447961 0.11705109,0.56183725 0.0717097,0.52837425 0.05050999,0.51272848 0.0383106,0.498379 0.04185585,0.49326037 c 0.0035471,-0.005118 0.01934056,0.001096 0.03864942,0.015206 0.04071397,0.0297523 0.08345668,0.0309761 0.13372229,0.003829 l 0.0370921,-0.0200319 0.0345456,0.0248487 c 0.0485188,0.0348998 0.0954778,0.0338463 0.14996943,-0.003364 l 0.0412931,-0.0281975 0.0354581,0.0201377 c 0.0515231,0.0292611 0.12683562,0.0292722 0.16112281,2.143e-5 0.024326,-0.0207516 0.0269728,-0.0211043 0.0550624,-0.007339 0.0459844,0.022535 0.076983,0.0267051 0.10959268,0.0147427 0.016518,-0.00606 0.0367905,-0.0133913 0.0450496,-0.016293 0.0282954,-0.00994 0.015044,0.0144129 -0.0162055,0.0297823 -0.039566,0.0194596 -0.0834284,0.0195284 -0.12851772,1.999e-4 -0.033935,-0.0145465 -0.0367282,-0.0143034 -0.0694918,0.006041 -0.0285777,0.0177455 -0.0423065,0.0203739 -0.0843191,0.0161435 -0.0276007,-0.002778 -0.0629529,-0.0124739 -0.07856,-0.021544 -0.0274345,-0.0159433 -0.0293639,-0.015821 -0.0581211,0.003691 -0.0302931,0.0205539 -0.0789486,0.0398599 -0.0970378,0.0385037 -0.005507,-4.1269e-4 -0.0190205,-0.003922 -0.0300332,-0.007798 z m 0.0660475,-0.16862909 -0.0340628,-0.0249749 -0.0293403,0.0192152 c -0.0420967,0.0275694 -0.0997811,0.0259339 -0.14446744,-0.004096 -0.019271,-0.0129508 -0.0350385,-0.0280813 -0.0350385,-0.0336236 0,-0.0150389 0.009953,-0.0123175 0.0359622,0.009832 0.0386226,0.0328929 0.0874518,0.0348938 0.13762737,0.00564 0.0374761,-0.0218499 0.0440554,-0.0232107 0.0533733,-0.0110387 0.005847,0.007636 0.0239935,0.0208403 0.04033,0.0293433 0.0378254,0.0196882 0.0819322,0.0131103 0.13143239,-0.0196008 l 0.0372972,-0.0246473 0.0397128,0.0198377 c 0.0542655,0.0271075 0.11250627,0.0274338 0.15520112,8.7044e-4 0.0317148,-0.0197323 0.0352449,-0.0200801 0.0625738,-0.006162 0.0370753,0.0188815 0.10088833,0.0189196 0.13212795,7.945e-5 0.0162176,-0.009781 0.0265508,-0.0114602 0.0310002,-0.005037 0.00445,0.006422 -0.002063,0.0150837 -0.0195348,0.0259835 -0.0328541,0.0204952 -0.10952329,0.0210591 -0.14634151,0.001075 -0.0249503,-0.0135414 -0.0284418,-0.0131776 -0.0533921,0.005562 -0.0351089,0.0263695 -0.10495191,0.0274955 -0.16142876,0.002602 l -0.0412964,-0.0182034 -0.0321178,0.0220222 c -0.0205026,0.0140582 -0.0490135,0.0235184 -0.078836,0.0261586 -0.0404437,0.003581 -0.0512929,7.8379e-4 -0.0807807,-0.020839 z m -0.059281,-0.13457968 -0.0332766,-0.0246282 -0.0353815,0.0191084 c -0.0498881,0.0269427 -0.0975378,0.024961 -0.14035503,-0.005837 -0.0190743,-0.01372 -0.03467984,-0.0288927 -0.03467984,-0.0337176 0,-0.0129692 0.0059659,-0.0110253 0.03960549,0.0129036 0.040014,0.0284631 0.097915,0.0280983 0.14286792,-9.0167e-4 0.0317114,-0.0204565 0.0326358,-0.0205095 0.0500548,-0.002879 0.0471393,0.0477119 0.10362672,0.0495019 0.16639148,0.005273 l 0.0351855,-0.0247949 0.0411926,0.0200798 c 0.0550368,0.0268283 0.11584258,0.0266382 0.1558205,-4.8552e-4 0.0292174,-0.0198238 0.0315321,-0.0199979 0.0640969,-0.004816 0.0421928,0.0196695 0.0986605,0.0202337 0.13005464,0.0013 0.0291813,-0.0175995 0.0290039,-0.0175918 0.0290039,-0.001252 0,0.0349578 -0.11184065,0.0500612 -0.1645433,0.0222205 -0.0261453,-0.0138115 -0.0293796,-0.0134537 -0.0567292,0.006276 -0.0371072,0.0267689 -0.10646865,0.0269593 -0.15914653,4.3698e-4 l -0.036707,-0.0184817 -0.0367073,0.023931 c -0.0547426,0.0356891 -0.11379987,0.0380497 -0.15674666,0.006264 z" id="path4332" inkscape:connector-curvature="0" />
</svg>