<?xml version="1.0" encoding="utf-8" standalone="no"?>
<svg xmlns:dc="http://purl.org/dc/elements/1.1/" xmlns:cc="http://creativecommons.org/ns#" xmlns:rdf="http://www.w3.org/1999/02/22-rdf-syntax-ns#" xmlns:svg="http://www.w3.org/2000/svg" xmlns="http://www.w3.org/2000/svg" xmlns:sodipodi="http://sodipodi.sourceforge.net/DTD/sodipodi-0.dtd" xmlns:inkscape="http://www.inkscape.org/namespaces/inkscape" height="1" version="1.1" width="1" id="svg2" inkscape:version="0.91 r13725" sodipodi:docname="catenary.svg">
  <metadata id="metadata8">
    <rdf:RDF>
      <cc:Work rdf:about="">
        <dc:format>image/svg+xml</dc:format>
        <dc:type rdf:resource="http://purl.org/dc/dcmitype/StillImage" />
        <dc:title></dc:title>
      </cc:Work>
    </rdf:RDF>
  </metadata>
  <defs id="defs6">
    <pattern width="1" height="1" id="catenaryInPhase周期链型" patternContentUnits="objectBoundingBox">
      <path style="fill:#000000" d="m 0.34802339,0.87758525 c -0.008765,-0.005287 -0.0253901,-0.0186037 -0.0369438,-0.0295932 -0.0200815,-0.0191 -0.0226728,-0.0189206 -0.0587983,0.004075 -0.020785,0.0132302 -0.0499396,0.0239395 -0.0647881,0.0237981 -0.0373849,-3.5489e-4 -0.10498844,-0.0576491 -0.0967949,-0.0820329 0.001747,-0.005209 0.0167404,0.00454 0.0333112,0.0216657 0.0398902,0.041225 0.0936627,0.0426127 0.13434615,0.003467 l 0.0279189,-0.0268631 0.0355562,0.0330886 c 0.0480826,0.0447454 0.0934438,0.0441879 0.14452201,-0.001778 l 0.0367378,-0.0330599 0.0321675,0.0213224 c 0.0176919,0.0117275 0.0536266,0.0235809 0.0798542,0.0263411 0.0412097,0.004337 0.051505,0.001246 0.0757939,-0.0227453 0.0279106,-0.0275701 0.0283322,-0.0276207 0.0604036,-0.007228 0.0399166,0.0253806 0.0920709,0.026983 0.12229305,0.003757 0.0262414,-0.0201666 0.0339897,-0.0217891 0.0339897,-0.007117 0,0.0205508 -0.0537614,0.049509 -0.0917271,0.049408 -0.0212395,-5.639e-5 -0.0512341,-0.008342 -0.0666545,-0.0184129 -0.0266657,-0.0174141 -0.0294254,-0.0170746 -0.0563949,0.006939 -0.037078,0.033014 -0.0986755,0.0334979 -0.15003255,0.001178 l -0.0373586,-0.0235097 -0.0345449,0.0290888 c -0.0365954,0.0308156 -0.0959432,0.0444431 -0.12285617,0.0282103 z m 0.009579,-0.1640109 c -0.0104913,-0.004945 -0.0303197,-0.0196755 -0.0440633,-0.0327332 l -0.0249886,-0.0237416 -0.0290568,0.0238328 c -0.0428463,0.0351431 -0.0963451,0.0321734 -0.13873688,-0.007701 -0.0183592,-0.0172693 -0.0333807,-0.0365728 -0.0333807,-0.0428966 0,-0.0156581 4.9383e-4,-0.015433 0.0391082,0.0176251 0.0421433,0.0360846 0.0819046,0.0376327 0.12927591,0.005033 l 0.0353372,-0.024318 0.0329115,0.0301654 c 0.0466395,0.0427479 0.0928139,0.0413986 0.1419054,-0.004147 l 0.0369835,-0.0343118 0.0481594,0.0297686 c 0.0559,0.0345532 0.0982574,0.0323896 0.14282807,-0.007296 0.0251184,-0.0223652 0.0291427,-0.0229586 0.0495158,-0.007302 0.0406816,0.0312641 0.0813001,0.034437 0.12147721,0.009489 0.0209173,-0.0129883 0.0383045,-0.0181736 0.0403662,-0.0120377 0.004519,0.0134494 0.004803,0.0130788 -0.0279822,0.0365572 -0.0340973,0.0244184 -0.0783658,0.0247983 -0.12185174,0.001044 -0.0323294,-0.0176589 -0.0349906,-0.0173639 -0.0662041,0.007333 -0.0272254,0.0215421 -0.0403049,0.024733 -0.08033,0.0195974 -0.026295,-0.003374 -0.0600636,-0.015209 -0.0750413,-0.0262996 -0.0268435,-0.0198773 -0.0277515,-0.0197405 -0.0635827,0.00957 -0.0409583,0.0335045 -0.0843244,0.0461184 -0.11264962,0.0327662 z M 0.34115688,0.53819147 c -0.009045,-0.005427 -0.0241619,-0.0191662 -0.0335929,-0.0305323 -0.0164519,-0.019827 -0.0182293,-0.0197703 -0.0437998,0.001399 -0.0407224,0.0337153 -0.11412899,0.0305291 -0.1493659,-0.006483 -0.0250865,-0.0263505 -0.0346216,-0.0474666 -0.0214331,-0.0474666 0.003077,0 0.0220002,0.0138181 0.0420571,0.0307073 0.0418685,0.0352561 0.078332,0.033651 0.12653805,-0.00557 l 0.0279576,-0.0227465 0.037221,0.0349149 c 0.0315009,0.029549 0.0423056,0.0339971 0.0703043,0.0289429 0.0181961,-0.003285 0.0501595,-0.0200672 0.0710306,-0.0372946 l 0.0379473,-0.0313227 0.035709,0.024574 c 0.0484208,0.0333217 0.11054856,0.0331965 0.14816733,-2.981e-4 0.0268913,-0.0239437 0.0291302,-0.0241621 0.0599619,-0.005848 0.0408929,0.0242916 0.0930842,0.0242992 0.12607636,1.647e-5 0.0280472,-0.020641 0.0421053,-0.0122753 0.0228621,0.0136049 -0.0309954,0.0416869 -0.10186378,0.0467178 -0.15671125,0.011125 -0.0195767,-0.0127041 -0.0255628,-0.0118203 -0.0445917,0.006584 -0.0341605,0.0330393 -0.0794684,0.0391869 -0.12689123,0.0172173 -0.0227307,-0.0105305 -0.0477386,-0.0220853 -0.0555727,-0.0256776 -0.008278,-0.003795 -0.0269212,0.004506 -0.0445078,0.0198186 -0.032719,0.0284873 -0.10102599,0.041334 -0.12936638,0.0243304 z m 0.003729,-0.168903 c -0.0139882,-0.008463 -0.0317081,-0.0226392 -0.0393775,-0.031502 -0.012216,-0.0141165 -0.0191612,-0.0127265 -0.0560331,0.0112155 -0.0316536,0.0205539 -0.0497638,0.0256574 -0.073047,0.0205854 -0.0430364,-0.009375 -0.098917,-0.0639578 -0.0873184,-0.0852911 0.001652,-0.003042 0.0166724,0.007833 0.0333748,0.0241677 0.0389094,0.0380524 0.0921841,0.0403096 0.13585393,0.005756 l 0.0302597,-0.0239426 0.0322461,0.02979 c 0.0451568,0.0417172 0.09392,0.0407898 0.14415741,-0.002742 l 0.0374588,-0.0324582 0.0420196,0.0263454 c 0.0565621,0.0354632 0.1042953,0.0350404 0.14328863,-0.001269 l 0.0303039,-0.0282183 0.0353516,0.0223709 c 0.0431806,0.0273251 0.0787313,0.0283801 0.11840938,0.003514 0.0296097,-0.0185566 0.0475191,-0.0138019 0.0292159,0.007757 -0.0313134,0.0368832 -0.0998432,0.0445797 -0.15051196,0.0169039 -0.0301188,-0.0164514 -0.0339897,-0.0160905 -0.0599678,0.00559 -0.0368366,0.0307431 -0.0998401,0.0311431 -0.1475731,9.368e-4 l -0.0359566,-0.0227536 -0.0350557,0.0285153 c -0.0435736,0.0354439 -0.0933743,0.0451331 -0.12709877,0.0247285 z M 0.32024359,0.1816072 0.29026713,0.1536941 0.2586941,0.17575977 c -0.0447053,0.0312438 -0.0965323,0.0287084 -0.13793754,-0.006748 -0.0183592,-0.0157214 -0.0333807,-0.0340894 -0.0333807,-0.0408174 0,-0.0176407 0.004392,-0.0157191 0.0425204,0.018589 0.0288861,0.0259938 0.040013,0.0298608 0.0710352,0.0246867 0.0202316,-0.003374 0.0486156,-0.017237 0.0630767,-0.0308062 l 0.0262924,-0.0246714 0.0229255,0.0286157 c 0.0426234,0.0532016 0.097495,0.053939 0.15638394,0.002101 l 0.0334948,-0.029484 0.0385181,0.0245508 c 0.0530912,0.0338392 0.11249187,0.033447 0.14865156,-9.7651e-4 0.0269919,-0.0256991 0.0280561,-0.0258053 0.0604036,-0.006024 0.0409258,0.0250272 0.0953672,0.0255101 0.12657326,0.001122 0.0292406,-0.0228518 0.0383165,-0.004729 0.0107583,0.021482 -0.0307361,0.0292343 -0.0800182,0.0341071 -0.12596791,0.0124554 -0.0390393,-0.0183956 -0.0415955,-0.0181938 -0.0778986,0.006152 -0.0425549,0.0285391 -0.0941173,0.0259674 -0.14748041,-0.007356 -0.0293501,-0.0183278 -0.0312032,-0.0180384 -0.0707143,0.0110353 -0.0539016,0.0396627 -0.10447313,0.0403371 -0.14570503,0.001942 z" id="path4243" inkscape:connector-curvature="0" />
    </pattern>
  </defs>
  <sodipodi:namedview pagecolor="#ffffff" bordercolor="#666666" borderopacity="1" objecttolerance="10" gridtolerance="10" guidetolerance="10" inkscape:pageopacity="0" inkscape:pageshadow="2" inkscape:window-width="1600" inkscape:window-height="838" id="namedview4" showgrid="false" inkscape:zoom="201.63254" inkscape:cx="1.1041869" inkscape:cy="0.15057094" inkscape:window-x="-8" inkscape:window-y="-8" inkscape:window-maximized="1" inkscape:current-layer="svg2" />
  <path style="fill:#000000" d="m 0.34802339,0.87758525 c -0.008765,-0.005287 -0.0253901,-0.0186037 -0.0369438,-0.0295932 -0.0200815,-0.0191 -0.0226728,-0.0189206 -0.0587983,0.004075 -0.020785,0.0132302 -0.0499396,0.0239395 -0.0647881,0.0237981 -0.0373849,-3.5489e-4 -0.10498844,-0.0576491 -0.0967949,-0.0820329 0.001747,-0.005209 0.0167404,0.00454 0.0333112,0.0216657 0.0398902,0.041225 0.0936627,0.0426127 0.13434615,0.003467 l 0.0279189,-0.0268631 0.0355562,0.0330886 c 0.0480826,0.0447454 0.0934438,0.0441879 0.14452201,-0.001778 l 0.0367378,-0.0330599 0.0321675,0.0213224 c 0.0176919,0.0117275 0.0536266,0.0235809 0.0798542,0.0263411 0.0412097,0.004337 0.051505,0.001246 0.0757939,-0.0227453 0.0279106,-0.0275701 0.0283322,-0.0276207 0.0604036,-0.007228 0.0399166,0.0253806 0.0920709,0.026983 0.12229305,0.003757 0.0262414,-0.0201666 0.0339897,-0.0217891 0.0339897,-0.007117 0,0.0205508 -0.0537614,0.049509 -0.0917271,0.049408 -0.0212395,-5.639e-5 -0.0512341,-0.008342 -0.0666545,-0.0184129 -0.0266657,-0.0174141 -0.0294254,-0.0170746 -0.0563949,0.006939 -0.037078,0.033014 -0.0986755,0.0334979 -0.15003255,0.001178 l -0.0373586,-0.0235097 -0.0345449,0.0290888 c -0.0365954,0.0308156 -0.0959432,0.0444431 -0.12285617,0.0282103 z m 0.009579,-0.1640109 c -0.0104913,-0.004945 -0.0303197,-0.0196755 -0.0440633,-0.0327332 l -0.0249886,-0.0237416 -0.0290568,0.0238328 c -0.0428463,0.0351431 -0.0963451,0.0321734 -0.13873688,-0.007701 -0.0183592,-0.0172693 -0.0333807,-0.0365728 -0.0333807,-0.0428966 0,-0.0156581 4.9383e-4,-0.015433 0.0391082,0.0176251 0.0421433,0.0360846 0.0819046,0.0376327 0.12927591,0.005033 l 0.0353372,-0.024318 0.0329115,0.0301654 c 0.0466395,0.0427479 0.0928139,0.0413986 0.1419054,-0.004147 l 0.0369835,-0.0343118 0.0481594,0.0297686 c 0.0559,0.0345532 0.0982574,0.0323896 0.14282807,-0.007296 0.0251184,-0.0223652 0.0291427,-0.0229586 0.0495158,-0.007302 0.0406816,0.0312641 0.0813001,0.034437 0.12147721,0.009489 0.0209173,-0.0129883 0.0383045,-0.0181736 0.0403662,-0.0120377 0.004519,0.0134494 0.004803,0.0130788 -0.0279822,0.0365572 -0.0340973,0.0244184 -0.0783658,0.0247983 -0.12185174,0.001044 -0.0323294,-0.0176589 -0.0349906,-0.0173639 -0.0662041,0.007333 -0.0272254,0.0215421 -0.0403049,0.024733 -0.08033,0.0195974 -0.026295,-0.003374 -0.0600636,-0.015209 -0.0750413,-0.0262996 -0.0268435,-0.0198773 -0.0277515,-0.0197405 -0.0635827,0.00957 -0.0409583,0.0335045 -0.0843244,0.0461184 -0.11264962,0.0327662 z M 0.34115688,0.53819147 c -0.009045,-0.005427 -0.0241619,-0.0191662 -0.0335929,-0.0305323 -0.0164519,-0.019827 -0.0182293,-0.0197703 -0.0437998,0.001399 -0.0407224,0.0337153 -0.11412899,0.0305291 -0.1493659,-0.006483 -0.0250865,-0.0263505 -0.0346216,-0.0474666 -0.0214331,-0.0474666 0.003077,0 0.0220002,0.0138181 0.0420571,0.0307073 0.0418685,0.0352561 0.078332,0.033651 0.12653805,-0.00557 l 0.0279576,-0.0227465 0.037221,0.0349149 c 0.0315009,0.029549 0.0423056,0.0339971 0.0703043,0.0289429 0.0181961,-0.003285 0.0501595,-0.0200672 0.0710306,-0.0372946 l 0.0379473,-0.0313227 0.035709,0.024574 c 0.0484208,0.0333217 0.11054856,0.0331965 0.14816733,-2.981e-4 0.0268913,-0.0239437 0.0291302,-0.0241621 0.0599619,-0.005848 0.0408929,0.0242916 0.0930842,0.0242992 0.12607636,1.647e-5 0.0280472,-0.020641 0.0421053,-0.0122753 0.0228621,0.0136049 -0.0309954,0.0416869 -0.10186378,0.0467178 -0.15671125,0.011125 -0.0195767,-0.0127041 -0.0255628,-0.0118203 -0.0445917,0.006584 -0.0341605,0.0330393 -0.0794684,0.0391869 -0.12689123,0.0172173 -0.0227307,-0.0105305 -0.0477386,-0.0220853 -0.0555727,-0.0256776 -0.008278,-0.003795 -0.0269212,0.004506 -0.0445078,0.0198186 -0.032719,0.0284873 -0.10102599,0.041334 -0.12936638,0.0243304 z m 0.003729,-0.168903 c -0.0139882,-0.008463 -0.0317081,-0.0226392 -0.0393775,-0.031502 -0.012216,-0.0141165 -0.0191612,-0.0127265 -0.0560331,0.0112155 -0.0316536,0.0205539 -0.0497638,0.0256574 -0.073047,0.0205854 -0.0430364,-0.009375 -0.098917,-0.0639578 -0.0873184,-0.0852911 0.001652,-0.003042 0.0166724,0.007833 0.0333748,0.0241677 0.0389094,0.0380524 0.0921841,0.0403096 0.13585393,0.005756 l 0.0302597,-0.0239426 0.0322461,0.02979 c 0.0451568,0.0417172 0.09392,0.0407898 0.14415741,-0.002742 l 0.0374588,-0.0324582 0.0420196,0.0263454 c 0.0565621,0.0354632 0.1042953,0.0350404 0.14328863,-0.001269 l 0.0303039,-0.0282183 0.0353516,0.0223709 c 0.0431806,0.0273251 0.0787313,0.0283801 0.11840938,0.003514 0.0296097,-0.0185566 0.0475191,-0.0138019 0.0292159,0.007757 -0.0313134,0.0368832 -0.0998432,0.0445797 -0.15051196,0.0169039 -0.0301188,-0.0164514 -0.0339897,-0.0160905 -0.0599678,0.00559 -0.0368366,0.0307431 -0.0998401,0.0311431 -0.1475731,9.368e-4 l -0.0359566,-0.0227536 -0.0350557,0.0285153 c -0.0435736,0.0354439 -0.0933743,0.0451331 -0.12709877,0.0247285 z M 0.32024359,0.1816072 0.29026713,0.1536941 0.2586941,0.17575977 c -0.0447053,0.0312438 -0.0965323,0.0287084 -0.13793754,-0.006748 -0.0183592,-0.0157214 -0.0333807,-0.0340894 -0.0333807,-0.0408174 0,-0.0176407 0.004392,-0.0157191 0.0425204,0.018589 0.0288861,0.0259938 0.040013,0.0298608 0.0710352,0.0246867 0.0202316,-0.003374 0.0486156,-0.017237 0.0630767,-0.0308062 l 0.0262924,-0.0246714 0.0229255,0.0286157 c 0.0426234,0.0532016 0.097495,0.053939 0.15638394,0.002101 l 0.0334948,-0.029484 0.0385181,0.0245508 c 0.0530912,0.0338392 0.11249187,0.033447 0.14865156,-9.7651e-4 0.0269919,-0.0256991 0.0280561,-0.0258053 0.0604036,-0.006024 0.0409258,0.0250272 0.0953672,0.0255101 0.12657326,0.001122 0.0292406,-0.0228518 0.0383165,-0.004729 0.0107583,0.021482 -0.0307361,0.0292343 -0.0800182,0.0341071 -0.12596791,0.0124554 -0.0390393,-0.0183956 -0.0415955,-0.0181938 -0.0778986,0.006152 -0.0425549,0.0285391 -0.0941173,0.0259674 -0.14748041,-0.007356 -0.0293501,-0.0183278 -0.0312032,-0.0180384 -0.0707143,0.0110353 -0.0539016,0.0396627 -0.10447313,0.0403371 -0.14570503,0.001942 z" id="path4243" inkscape:connector-curvature="0" />
</svg>