<?xml version="1.0" encoding="utf-8" standalone="no"?>
<svg xmlns:dc="http://purl.org/dc/elements/1.1/" xmlns:cc="http://creativecommons.org/ns#" xmlns:rdf="http://www.w3.org/1999/02/22-rdf-syntax-ns#" xmlns:svg="http://www.w3.org/2000/svg" xmlns="http://www.w3.org/2000/svg" xmlns:sodipodi="http://sodipodi.sourceforge.net/DTD/sodipodi-0.dtd" xmlns:inkscape="http://www.inkscape.org/namespaces/inkscape" height="1" version="1.1" width="1" id="svg2" inkscape:version="0.91 r13725" sodipodi:docname="catebarySwept.svg">
  <metadata id="metadata8">
    <rdf:RDF>
      <cc:Work rdf:about="">
        <dc:format>image/svg+xml</dc:format>
        <dc:type rdf:resource="http://purl.org/dc/dcmitype/StillImage" />
        <dc:title></dc:title>
      </cc:Work>
    </rdf:RDF>
  </metadata>
  <defs id="defs6">
    <pattern width="1" height="1" id="catebarySwept链状波型" patternContentUnits="objectBoundingBox">
      <path style="fill:#000000" d="m 0.04316488,0.72741187 c -0.0083543,-0.0240781 -0.01370117,-0.0460708 -0.01187921,-0.048873 0.0071559,-0.0110057 0.02452112,0.008543 0.02452112,0.0276022 0,0.0110977 0.004637,0.0261 0.01030825,0.0333376 0.01271953,0.0162376 0.01334156,0.0317111 0.0012764,0.0317111 -0.0049678,0 -0.0158693,-0.0197005 -0.02422466,-0.0437778 z m 0.15682548,0.0115903 c -0.005099,-0.0189326 -0.0174691,-0.0379116 -0.0300397,-0.046087 -0.0301491,-0.0196077 -0.0581035,-0.0662922 -0.0630226,-0.1052501 -0.003267,-0.0258828 -0.0119712,-0.0401354 -0.03961773,-0.0648806 -0.0194857,-0.0174412 -0.03646796,-0.0401212 -0.03773813,-0.0503998 -0.0019026,-0.0153746 0.0029659,-0.0132673 0.02742438,0.0118839 0.01635346,0.0168151 0.03636725,0.0337115 0.04447484,0.0375473 0.009913,0.004689 0.0161926,0.0188729 0.0191716,0.0432993 0.005837,0.0478687 0.0334791,0.0970809 0.0594575,0.10585726 0.0139277,0.004706 0.0231441,0.0163543 0.0277803,0.0351117 0.003817,0.0154388 0.0118411,0.036403 0.0178333,0.0465877 0.0100411,0.0170667 0.0098,0.0185177 -0.003078,0.0185177 -0.009094,0 -0.0170023,-0.0112404 -0.0226429,-0.0321876 z m 0.15040193,-0.004807 c -0.007806,-0.0203481 -0.0184164,-0.0369969 -0.0235807,-0.0369969 -0.0177738,0 -0.0577269,-0.0649961 -0.0659714,-0.10732193 -0.006032,-0.030962 -0.0136968,-0.0455021 -0.0292908,-0.055555 C 0.19690285,0.51198565 0.16747773,0.46699198 0.15521407,0.4175976 0.14668526,0.3832417 0.13805709,0.36774331 0.12207852,0.35807124 0.08700509,0.33684096 0.05502602,0.29522678 0.04477016,0.2574706 0.03350709,0.21600672 0.03313985,0.21095735 0.04139183,0.21095735 c 0.0034096,0 0.01215459,0.0178376 0.01943383,0.0396391 0.0102018,0.0305562 0.02374154,0.0477231 0.0590859,0.0749205 0.0341192,0.0262546 0.0458501,0.0408097 0.0458501,0.0568898 0,0.0411343 0.0267186,0.0892356 0.0686735,0.12363219 0.035425,0.0290432 0.0412788,0.038049 0.0412788,0.0635081 0,0.0399872 0.0214778,0.0793747 0.0542969,0.0995736 0.0167139,0.0102871 0.0289016,0.0259169 0.0318655,0.0408662 0.00264,0.0133138 0.009552,0.0325321 0.0153599,0.0427065 0.00955,0.0167274 0.009449,0.0184983 -0.001045,0.0184983 -0.006383,0 -0.017991,-0.0166483 -0.0257958,-0.0369969 z m 0.16064928,0.0237835 c -0.00378,-0.007266 -0.008908,-0.0234422 -0.011396,-0.0359456 -0.00249,-0.0125029 -0.0119048,-0.0255824 -0.0209272,-0.0290657 -0.0274068,-0.0105806 -0.0579584,-0.0580069 -0.0656419,-0.10189801 -0.005594,-0.0319509 -0.012779,-0.0452311 -0.0321082,-0.0593397 C 0.34671827,0.50672996 0.31035687,0.44835216 0.30542907,0.410453 0.30213207,0.3850871 0.29359177,0.3729298 0.26165367,0.3481308 0.22256467,0.3177792 0.19967217,0.2814261 0.19024897,0.23474133 c -0.003572,-0.0176894 -0.00204,-0.0237835 0.005969,-0.0237835 0.005925,0 0.0107711,0.008581 0.0107711,0.0190675 0,0.0272415 0.0392624,0.0817802 0.0764286,0.1061662 0.0267892,0.0175771 0.0324474,0.0264721 0.0361494,0.0568255 0.005123,0.0420385 0.0363065,0.0913535 0.07812,0.1235596 0.0230139,0.0177258 0.0292063,0.0282668 0.0292063,0.0497172 0,0.0394366 0.0233005,0.0837506 0.0539578,0.10261886 0.0193567,0.0119128 0.0304257,0.0281477 0.0404586,0.0593398 0.00969,0.0301257 0.0112433,0.0429398 0.005206,0.0429398 -0.00473,0 -0.0116971,-0.005944 -0.015477,-0.0132137 z M 0.65781622,0.73850347 C 0.65186022,0.71671827 0.63941232,0.69929417 0.62049362,0.68626537 0.59078362,0.66580487 0.56440542,0.61333177 0.56436042,0.574601 0.56433978,0.5588122 0.55606542,0.5466872 0.53563212,0.5325138 0.49795592,0.5063806 0.46258622,0.4493163 0.45732452,0.40617548 c -0.003492,-0.0286024 -0.009211,-0.037472 -0.0333139,-0.0516308 -0.034783,-0.0204332 -0.0688455,-0.0690547 -0.0786337,-0.11224485 -0.005744,-0.0253431 -0.0052,-0.0313422 0.002847,-0.0313422 0.005475,0 0.00995,0.006771 0.00995,0.0150448 0,0.0282144 0.0372476,0.0832174 0.0726744,0.10731673 0.0284022,0.0193209 0.0361483,0.0301514 0.0393887,0.0550734 0.005763,0.0443416 0.0356064,0.0943015 0.0743763,0.12452115 0.0235019,0.018319 0.0334646,0.0324815 0.0334646,0.0475724 0,0.0516876 0.0295554,0.0975063 0.0773101,0.11985168 0.006614,0.003095 0.0120262,0.0142316 0.0120262,0.0247478 0,0.0105167 0.004811,0.0296928 0.0106977,0.0426133 0.009724,0.0213535 0.009692,0.0234928 -3.3113e-4,0.0234928 -0.006069,0 -0.0150501,-0.0147097 -0.0199649,-0.0326887 z m 0.15276916,6.7116e-4 c -0.005837,-0.0203921 -0.0200131,-0.0401034 -0.0390433,-0.054295 -0.0310997,-0.0231921 -0.0559523,-0.0721373 -0.0559969,-0.11028056 -2.058e-5,-0.0156643 -0.00817,-0.0278273 -0.0277554,-0.0414122 -0.0338364,-0.0234697 -0.0743995,-0.0902967 -0.07974,-0.13136939 -0.00309,-0.0237826 -0.0103302,-0.0340431 -0.0336975,-0.0477698 -0.033421,-0.0196328 -0.0787371,-0.0898377 -0.0787371,-0.1219816 0,-0.0299933 0.0126532,-0.0261925 0.0177994,0.005345 0.005475,0.0335431 0.0341773,0.0708728 0.0739561,0.0961801 0.0258151,0.0164238 0.031726,0.0255577 0.0352529,0.054478 0.005826,0.0477631 0.0394887,0.10342311 0.0752596,0.12443648 0.0264063,0.0155121 0.0303062,0.0221273 0.0340015,0.0576773 0.004642,0.0446794 0.0429331,0.10587091 0.0662453,0.10587091 0.008827,0 0.0174309,0.0135499 0.0251688,0.0396392 0.006465,0.0218016 0.0129498,0.0432065 0.0144088,0.0475671 0.001457,0.00436 -0.001983,0.007928 -0.007651,0.007928 -0.005668,0 -0.0144296,-0.0144068 -0.0194707,-0.0320145 z m 0.14545413,-0.0206952 c 0,-0.005737 -0.0100505,-0.0169614 -0.0223337,-0.0249463 -0.031403,-0.0204127 -0.0590595,-0.0666576 -0.0639769,-0.10697693 -0.003078,-0.0252404 -0.010159,-0.0386629 -0.0268543,-0.0509094 -0.0374164,-0.0274453 -0.071635,-0.080583 -0.0801961,-0.12453596 -0.006285,-0.0322683 -0.0127959,-0.0434457 -0.0305578,-0.0524626 -0.0303131,-0.0153887 -0.0770773,-0.0826613 -0.0824602,-0.11862377 -0.005919,-0.0395388 0.007035,-0.0371643 0.0179283,0.003284 0.0103385,0.0383924 0.0415147,0.0764502 0.0769115,0.0938876 0.0215711,0.0106272 0.0262605,0.018455 0.0301473,0.0503234 0.005644,0.0462724 0.0465196,0.1120935 0.080244,0.12921367 0.0202634,0.0102871 0.0248903,0.0185438 0.0288215,0.0514333 0.005638,0.0471633 0.0326401,0.0938372 0.0595489,0.10292813 0.0150183,0.005073 0.0196502,0.0126703 0.0196502,0.0322248 0,0.0140725 -0.001546,0.0255866 -0.003435,0.0255866 -0.00189,0 -0.003435,-0.004692 -0.003435,-0.010429 z M 0.94085422,0.47693545 c -0.009897,-0.0180907 -0.021486,-0.0491702 -0.0257545,-0.0690654 -0.005456,-0.0254424 -0.0142981,-0.0401339 -0.0297962,-0.049525 -0.0448941,-0.027203 -0.0873196,-0.0934229 -0.0873196,-0.13629382 0,-0.0251652 0.0192022,-0.008754 0.0228838,0.019557 0.004468,0.0343394 0.0340635,0.0717253 0.0762777,0.0963452 0.021849,0.0127431 0.0283428,0.0227376 0.0318341,0.0489974 0.002416,0.018144 0.0112771,0.0478744 0.019699,0.066067 0.0209148,0.0451801 0.0145134,0.0647498 -0.007824,0.023917 z" id="path4529" inkscape:connector-curvature="0" />
    </pattern>
  </defs>
  <sodipodi:namedview pagecolor="#ffffff" bordercolor="#666666" borderopacity="1" objecttolerance="10" gridtolerance="10" guidetolerance="10" inkscape:pageopacity="0" inkscape:pageshadow="2" inkscape:window-width="1600" inkscape:window-height="838" id="namedview4" showgrid="false" inkscape:zoom="256" inkscape:cx="0.5" inkscape:cy="0.5" inkscape:window-x="-8" inkscape:window-y="-8" inkscape:window-maximized="1" inkscape:current-layer="svg2" />
  <path style="fill:#000000" d="m 0.04316488,0.72741187 c -0.0083543,-0.0240781 -0.01370117,-0.0460708 -0.01187921,-0.048873 0.0071559,-0.0110057 0.02452112,0.008543 0.02452112,0.0276022 0,0.0110977 0.004637,0.0261 0.01030825,0.0333376 0.01271953,0.0162376 0.01334156,0.0317111 0.0012764,0.0317111 -0.0049678,0 -0.0158693,-0.0197005 -0.02422466,-0.0437778 z m 0.15682548,0.0115903 c -0.005099,-0.0189326 -0.0174691,-0.0379116 -0.0300397,-0.046087 -0.0301491,-0.0196077 -0.0581035,-0.0662922 -0.0630226,-0.1052501 -0.003267,-0.0258828 -0.0119712,-0.0401354 -0.03961773,-0.0648806 -0.0194857,-0.0174412 -0.03646796,-0.0401212 -0.03773813,-0.0503998 -0.0019026,-0.0153746 0.0029659,-0.0132673 0.02742438,0.0118839 0.01635346,0.0168151 0.03636725,0.0337115 0.04447484,0.0375473 0.009913,0.004689 0.0161926,0.0188729 0.0191716,0.0432993 0.005837,0.0478687 0.0334791,0.0970809 0.0594575,0.10585726 0.0139277,0.004706 0.0231441,0.0163543 0.0277803,0.0351117 0.003817,0.0154388 0.0118411,0.036403 0.0178333,0.0465877 0.0100411,0.0170667 0.0098,0.0185177 -0.003078,0.0185177 -0.009094,0 -0.0170023,-0.0112404 -0.0226429,-0.0321876 z m 0.15040193,-0.004807 c -0.007806,-0.0203481 -0.0184164,-0.0369969 -0.0235807,-0.0369969 -0.0177738,0 -0.0577269,-0.0649961 -0.0659714,-0.10732193 -0.006032,-0.030962 -0.0136968,-0.0455021 -0.0292908,-0.055555 C 0.19690285,0.51198565 0.16747773,0.46699198 0.15521407,0.4175976 0.14668526,0.3832417 0.13805709,0.36774331 0.12207852,0.35807124 0.08700509,0.33684096 0.05502602,0.29522678 0.04477016,0.2574706 0.03350709,0.21600672 0.03313985,0.21095735 0.04139183,0.21095735 c 0.0034096,0 0.01215459,0.0178376 0.01943383,0.0396391 0.0102018,0.0305562 0.02374154,0.0477231 0.0590859,0.0749205 0.0341192,0.0262546 0.0458501,0.0408097 0.0458501,0.0568898 0,0.0411343 0.0267186,0.0892356 0.0686735,0.12363219 0.035425,0.0290432 0.0412788,0.038049 0.0412788,0.0635081 0,0.0399872 0.0214778,0.0793747 0.0542969,0.0995736 0.0167139,0.0102871 0.0289016,0.0259169 0.0318655,0.0408662 0.00264,0.0133138 0.009552,0.0325321 0.0153599,0.0427065 0.00955,0.0167274 0.009449,0.0184983 -0.001045,0.0184983 -0.006383,0 -0.017991,-0.0166483 -0.0257958,-0.0369969 z m 0.16064928,0.0237835 c -0.00378,-0.007266 -0.008908,-0.0234422 -0.011396,-0.0359456 -0.00249,-0.0125029 -0.0119048,-0.0255824 -0.0209272,-0.0290657 -0.0274068,-0.0105806 -0.0579584,-0.0580069 -0.0656419,-0.10189801 -0.005594,-0.0319509 -0.012779,-0.0452311 -0.0321082,-0.0593397 C 0.34671827,0.50672996 0.31035687,0.44835216 0.30542907,0.410453 0.30213207,0.3850871 0.29359177,0.3729298 0.26165367,0.3481308 0.22256467,0.3177792 0.19967217,0.2814261 0.19024897,0.23474133 c -0.003572,-0.0176894 -0.00204,-0.0237835 0.005969,-0.0237835 0.005925,0 0.0107711,0.008581 0.0107711,0.0190675 0,0.0272415 0.0392624,0.0817802 0.0764286,0.1061662 0.0267892,0.0175771 0.0324474,0.0264721 0.0361494,0.0568255 0.005123,0.0420385 0.0363065,0.0913535 0.07812,0.1235596 0.0230139,0.0177258 0.0292063,0.0282668 0.0292063,0.0497172 0,0.0394366 0.0233005,0.0837506 0.0539578,0.10261886 0.0193567,0.0119128 0.0304257,0.0281477 0.0404586,0.0593398 0.00969,0.0301257 0.0112433,0.0429398 0.005206,0.0429398 -0.00473,0 -0.0116971,-0.005944 -0.015477,-0.0132137 z M 0.65781622,0.73850347 C 0.65186022,0.71671827 0.63941232,0.69929417 0.62049362,0.68626537 0.59078362,0.66580487 0.56440542,0.61333177 0.56436042,0.574601 0.56433978,0.5588122 0.55606542,0.5466872 0.53563212,0.5325138 0.49795592,0.5063806 0.46258622,0.4493163 0.45732452,0.40617548 c -0.003492,-0.0286024 -0.009211,-0.037472 -0.0333139,-0.0516308 -0.034783,-0.0204332 -0.0688455,-0.0690547 -0.0786337,-0.11224485 -0.005744,-0.0253431 -0.0052,-0.0313422 0.002847,-0.0313422 0.005475,0 0.00995,0.006771 0.00995,0.0150448 0,0.0282144 0.0372476,0.0832174 0.0726744,0.10731673 0.0284022,0.0193209 0.0361483,0.0301514 0.0393887,0.0550734 0.005763,0.0443416 0.0356064,0.0943015 0.0743763,0.12452115 0.0235019,0.018319 0.0334646,0.0324815 0.0334646,0.0475724 0,0.0516876 0.0295554,0.0975063 0.0773101,0.11985168 0.006614,0.003095 0.0120262,0.0142316 0.0120262,0.0247478 0,0.0105167 0.004811,0.0296928 0.0106977,0.0426133 0.009724,0.0213535 0.009692,0.0234928 -3.3113e-4,0.0234928 -0.006069,0 -0.0150501,-0.0147097 -0.0199649,-0.0326887 z m 0.15276916,6.7116e-4 c -0.005837,-0.0203921 -0.0200131,-0.0401034 -0.0390433,-0.054295 -0.0310997,-0.0231921 -0.0559523,-0.0721373 -0.0559969,-0.11028056 -2.058e-5,-0.0156643 -0.00817,-0.0278273 -0.0277554,-0.0414122 -0.0338364,-0.0234697 -0.0743995,-0.0902967 -0.07974,-0.13136939 -0.00309,-0.0237826 -0.0103302,-0.0340431 -0.0336975,-0.0477698 -0.033421,-0.0196328 -0.0787371,-0.0898377 -0.0787371,-0.1219816 0,-0.0299933 0.0126532,-0.0261925 0.0177994,0.005345 0.005475,0.0335431 0.0341773,0.0708728 0.0739561,0.0961801 0.0258151,0.0164238 0.031726,0.0255577 0.0352529,0.054478 0.005826,0.0477631 0.0394887,0.10342311 0.0752596,0.12443648 0.0264063,0.0155121 0.0303062,0.0221273 0.0340015,0.0576773 0.004642,0.0446794 0.0429331,0.10587091 0.0662453,0.10587091 0.008827,0 0.0174309,0.0135499 0.0251688,0.0396392 0.006465,0.0218016 0.0129498,0.0432065 0.0144088,0.0475671 0.001457,0.00436 -0.001983,0.007928 -0.007651,0.007928 -0.005668,0 -0.0144296,-0.0144068 -0.0194707,-0.0320145 z m 0.14545413,-0.0206952 c 0,-0.005737 -0.0100505,-0.0169614 -0.0223337,-0.0249463 -0.031403,-0.0204127 -0.0590595,-0.0666576 -0.0639769,-0.10697693 -0.003078,-0.0252404 -0.010159,-0.0386629 -0.0268543,-0.0509094 -0.0374164,-0.0274453 -0.071635,-0.080583 -0.0801961,-0.12453596 -0.006285,-0.0322683 -0.0127959,-0.0434457 -0.0305578,-0.0524626 -0.0303131,-0.0153887 -0.0770773,-0.0826613 -0.0824602,-0.11862377 -0.005919,-0.0395388 0.007035,-0.0371643 0.0179283,0.003284 0.0103385,0.0383924 0.0415147,0.0764502 0.0769115,0.0938876 0.0215711,0.0106272 0.0262605,0.018455 0.0301473,0.0503234 0.005644,0.0462724 0.0465196,0.1120935 0.080244,0.12921367 0.0202634,0.0102871 0.0248903,0.0185438 0.0288215,0.0514333 0.005638,0.0471633 0.0326401,0.0938372 0.0595489,0.10292813 0.0150183,0.005073 0.0196502,0.0126703 0.0196502,0.0322248 0,0.0140725 -0.001546,0.0255866 -0.003435,0.0255866 -0.00189,0 -0.003435,-0.004692 -0.003435,-0.010429 z M 0.94085422,0.47693545 c -0.009897,-0.0180907 -0.021486,-0.0491702 -0.0257545,-0.0690654 -0.005456,-0.0254424 -0.0142981,-0.0401339 -0.0297962,-0.049525 -0.0448941,-0.027203 -0.0873196,-0.0934229 -0.0873196,-0.13629382 0,-0.0251652 0.0192022,-0.008754 0.0228838,0.019557 0.004468,0.0343394 0.0340635,0.0717253 0.0762777,0.0963452 0.021849,0.0127431 0.0283428,0.0227376 0.0318341,0.0489974 0.002416,0.018144 0.0112771,0.0478744 0.019699,0.066067 0.0209148,0.0451801 0.0145134,0.0647498 -0.007824,0.023917 z" id="path4529" inkscape:connector-curvature="0" />
</svg>