<?xml version="1.0" encoding="utf-8" standalone="no"?>
<svg xmlns:dc="http://purl.org/dc/elements/1.1/" xmlns:cc="http://creativecommons.org/ns#" xmlns:rdf="http://www.w3.org/1999/02/22-rdf-syntax-ns#" xmlns:svg="http://www.w3.org/2000/svg" xmlns="http://www.w3.org/2000/svg" xmlns:sodipodi="http://sodipodi.sourceforge.net/DTD/sodipodi-0.dtd" xmlns:inkscape="http://www.inkscape.org/namespaces/inkscape" height="1" version="1.1" width="1" id="svg2" inkscape:version="0.91 r13725" sodipodi:docname="cuspate.svg">
  <metadata id="metadata8">
    <rdf:RDF>
      <cc:Work rdf:about="">
        <dc:format>image/svg+xml</dc:format>
        <dc:type rdf:resource="http://purl.org/dc/dcmitype/StillImage" />
        <dc:title></dc:title>
      </cc:Work>
    </rdf:RDF>
  </metadata>
  <defs id="defs6">
    <pattern width="1" height="1" id="cuspate" patternContentUnits="objectBoundingBox">
      <path style="fill:#000000" d="m 0.02526035,0.70638067 c 0.01059166,-0.0938633 0.11566404,-0.10151255 0.13692875,-0.009969 0.00382,0.0164558 0.005285,0.0331268 0.003243,0.0370469 -0.006471,0.0124494 -0.0166846,-0.001633 -0.0166846,-0.0230108 0,-0.011332 -0.007701,-0.0297562 -0.017111,-0.0409429 -0.0327923,-0.0389785 -0.0825572,-0.0183847 -0.09206054,0.0380965 -0.0069224,0.0411252 -0.018978,0.0400961 -0.01431554,-0.001222 z m 0.28087239,0.0241029 c -0.001559,-0.005986 -0.004731,-0.0210902 -0.007031,-0.0335658 -0.006291,-0.0341538 -0.0337753,-0.0521569 -0.0654302,-0.0428597 -0.0218942,0.00643 -0.0271718,0.0127139 -0.0359082,0.0427551 -0.0108973,0.0374699 -0.0211288,0.0462992 -0.0211288,0.0182331 0,-0.0239575 0.0185867,-0.0638159 0.0344698,-0.0739201 0.0266183,-0.0169333 0.0660975,-0.0102591 0.0860977,0.0145553 0.0206486,0.0256189 0.0317236,0.0710394 0.0195088,0.0800124 -0.004249,0.003122 -0.009008,7.7522e-4 -0.0105776,-0.00521 z m 0.0277175,-1.8208e-4 c -0.007195,-0.0198968 0.008272,-0.0703939 0.0261178,-0.0852512 0.008228,-0.006851 0.0277915,-0.0124553 0.0434751,-0.0124553 0.0352112,0 0.0644426,0.0320405 0.0706392,0.077427 0.00534,0.0390881 -0.008445,0.0406481 -0.0146001,0.001653 -0.00509,-0.0322348 -0.0324283,-0.0625068 -0.0564538,-0.0625068 -0.0231836,0 -0.0467243,0.0265536 -0.0559385,0.0630974 -0.006267,0.0248701 -0.009283,0.0289741 -0.0132398,0.0180364 z m 0.15351316,0.002717 c -0.005325,-0.0102439 0.002143,-0.0517783 0.0122256,-0.0679952 0.0174485,-0.0280622 0.071566,-0.0433948 0.0920697,-0.0260857 0.0284191,0.023991 0.0521826,0.10138107 0.0311303,0.10138107 -0.003836,0 -0.006969,-0.007643 -0.006969,-0.0169842 0,-0.0234667 -0.0180573,-0.0628036 -0.031683,-0.0690184 -0.0356088,-0.0162422 -0.0798562,0.0148614 -0.0798562,0.0561347 0,0.0217218 -0.0102471,0.0353929 -0.0169154,0.0225676 z m 0.1535961,4.4274e-4 c -0.002043,-0.003918 -5.8598e-4,-0.0205911 0.003243,-0.0370469 0.0153796,-0.0662091 0.080387,-0.0865855 0.11840165,-0.0371127 0.0139678,0.0181786 0.0205207,0.0353765 0.0205207,0.0538614 0,0.0377859 -0.0112355,0.034028 -0.0165583,-0.005538 -0.005013,-0.0372416 -0.0249781,-0.0584565 -0.055021,-0.0584565 -0.0245595,0 -0.0539016,0.0333594 -0.0539016,0.061282 0,0.0213763 -0.010212,0.0354602 -0.0166846,0.0230107 z m 0.1581021,-0.0270786 c 0.0104981,-0.0930344 0.11242718,-0.10169177 0.13742107,-0.011672 0.008095,0.0291538 0.004357,0.0497813 -0.007445,0.0411103 -0.00357,-0.002624 -0.006486,-0.0140393 -0.006486,-0.0253707 0,-0.011332 -0.007702,-0.0297562 -0.0171109,-0.0409429 -0.0322559,-0.0383426 -0.083026,-0.0195501 -0.0914541,0.0338508 -0.006977,0.0442293 -0.0198667,0.0468399 -0.0149228,0.003024 z M 0.16048307,0.6106345 c -0.002619,-0.003114 -0.004763,-0.0138602 -0.004763,-0.0238797 0,-0.0329606 -0.0257967,-0.0618841 -0.0551948,-0.0618841 -0.0305199,0 -0.04707665,0.01743 -0.05364665,0.0564767 -0.0063143,0.0375279 -0.01945196,0.0336264 -0.01428203,-0.004241 0.0093288,-0.0683378 0.07410812,-0.095973 0.11522009,-0.0491541 0.0207179,0.0235934 0.033667,0.0690465 0.0232117,0.0814744 -0.00318,0.003779 -0.007924,0.004323 -0.0105433,0.001208 z m 0.15174118,-0.0228991 c -0.006026,-0.0381981 -0.0266939,-0.0628647 -0.0526667,-0.0628647 -0.0317422,0 -0.0466923,0.0133337 -0.0558972,0.0498533 -0.0104848,0.0415996 -0.023331,0.0436393 -0.0177596,0.00282 0.006556,-0.0480139 0.0282647,-0.0692458 0.0708044,-0.0692458 0.03186,0 0.0375553,0.002798 0.0515715,0.025332 0.0176029,0.0282995 0.0280924,0.0823907 0.0159783,0.0823907 -0.004163,0 -0.009576,-0.0127283 -0.0120322,-0.0282853 z m 0.15409976,-0.00118 c -0.006026,-0.0381882 -0.0262652,-0.0616855 -0.053129,-0.0616855 -0.0322201,0 -0.0470813,0.0133885 -0.0553429,0.0498591 -0.004116,0.0181524 -0.0104918,0.0330045 -0.0141791,0.0330045 -0.0121952,0 -0.006961,-0.0385291 0.009083,-0.0668214 0.0167898,-0.0296148 0.0428827,-0.0408747 0.0763681,-0.0329548 0.0235656,0.005573 0.054243,0.0535404 0.054243,0.0848134 0,0.0330286 -0.0115099,0.0288308 -0.0170416,-0.006215 z m 0.1541891,-5.6588e-4 c -0.005792,-0.0424454 -0.0223861,-0.06112 -0.0543031,-0.06112 -0.0303086,0 -0.054961,0.0246406 -0.054961,0.0549347 0,0.017065 -0.0111865,0.0339678 -0.017507,0.0264544 -0.005301,-0.006301 0.009796,-0.0674897 0.019498,-0.0790216 0.0116799,-0.0138835 0.0504396,-0.0248574 0.0730339,-0.0206781 0.0198417,0.00367 0.0504552,0.0561685 0.0504552,0.0865249 0,0.0331715 -0.0114016,0.0281839 -0.0162176,-0.007095 z m 0.15336597,0 c -0.005777,-0.0423291 -0.0224018,-0.06112 -0.0540684,-0.06112 -0.0298549,0 -0.0551948,0.0290448 -0.0551948,0.0632653 0,0.0112388 -0.004147,0.0195984 -0.009723,0.0195984 -0.0108637,0 -0.006096,-0.0394415 0.008751,-0.0724192 0.0102697,-0.0228088 0.05553,-0.0385913 0.0795454,-0.027738 0.0253445,0.0114539 0.0469074,0.048486 0.0469074,0.0805587 0,0.037123 -0.0110562,0.0356604 -0.0162176,-0.002144 z m 0.16040499,0.0246439 c -0.002619,-0.003114 -0.004763,-0.0138602 -0.004763,-0.0238797 0,-0.0329607 -0.0257967,-0.0618841 -0.0551948,-0.0618841 -0.0305207,0 -0.0470774,0.01743 -0.0536466,0.0564767 -0.00534,0.0317277 -0.0166394,0.0350406 -0.0166394,0.004878 0,-0.0276596 0.0201653,-0.0682419 0.0370805,-0.0746234 0.0473713,-0.0178717 0.087655,0.005942 0.10289322,0.0608252 0.007542,0.0271812 0.001378,0.0514092 -0.009729,0.0382075 z M 0.16745421,0.48633898 c -0.002619,-0.003112 -0.004833,-0.0152953 -0.004919,-0.0270689 -2.309e-4,-0.0316135 -0.0213198,-0.0595868 -0.0455433,-0.0604055 -0.0389436,-0.001314 -0.0516752,0.008769 -0.06048248,0.0479065 -0.0090824,0.0403615 -0.01930072,0.0485895 -0.01930072,0.0155402 0,-0.0499062 0.03279463,-0.0865953 0.07740403,-0.0865953 0.0249867,0 0.0590683,0.0397408 0.0659307,0.0768785 0.004396,0.023801 -0.003765,0.0448332 -0.0130901,0.0337446 z m 0.14955284,-0.0308479 c -0.009359,-0.04418 -0.0210718,-0.0565733 -0.0534697,-0.0565733 -0.0307515,0 -0.0503523,0.0197689 -0.056174,0.0566562 -0.006151,0.0389691 -0.0196959,0.0359622 -0.0144582,-0.003209 0.007686,-0.057446 0.0620594,-0.0939209 0.10207159,-0.0684672 0.0167984,0.0106866 0.0419917,0.059514 0.0419917,0.0813859 0,0.0323175 -0.012323,0.0262727 -0.0199625,-0.009793 z m 0.15696701,0.005002 c -0.005503,-0.0408843 -0.0245197,-0.0615755 -0.0566003,-0.0615755 -0.0315996,0 -0.0435726,0.0118826 -0.0527377,0.0523408 -0.007941,0.0350509 -0.0207101,0.0434139 -0.0206688,0.0135361 6.392e-5,-0.0455367 0.0391978,-0.0890783 0.0800615,-0.0890783 0.0369582,0 0.0833278,0.0825192 0.06117,0.10885737 -0.004529,0.005387 -0.008369,-0.002845 -0.0112239,-0.0240798 z m 0.15329676,-5.1351e-4 c -0.005519,-0.0410158 -0.0244933,-0.0610598 -0.0578055,-0.0610598 -0.0297053,0 -0.0512449,0.023516 -0.0512449,0.0559476 0,0.0186423 -0.0112098,0.0345839 -0.0183504,0.0260964 -0.00672,-0.007985 0.0114616,-0.0696212 0.0247505,-0.0839162 0.007382,-0.007946 0.0261342,-0.0164732 0.041662,-0.0189489 0.0253733,-0.004047 0.030721,-0.001541 0.052825,0.0247325 0.0190357,0.0226266 0.0245938,0.0359757 0.0245938,0.0590645 0,0.0395046 -0.0110321,0.0382178 -0.0164313,-0.001915 z m 0.16050231,0.0262233 c -0.002557,-0.00304 -0.004646,-0.0133954 -0.004646,-0.0230154 0,-0.00962 -0.005021,-0.0260137 -0.0111599,-0.0364307 -0.0326293,-0.0553735 -0.10037867,-0.0275717 -0.10037867,0.0411914 0,0.009833 -0.003632,0.0154191 -0.008714,0.0133881 -0.0110602,-0.004421 -0.007491,-0.0454678 0.006159,-0.0707715 0.0116939,-0.0216818 0.0362612,-0.034847 0.0650272,-0.034847 0.0279334,0 0.063009,0.0485956 0.063009,0.0872952 0,0.0295209 -0.001279,0.0327159 -0.009295,0.0231895 z m 0.15348201,1.3767e-4 c -0.002619,-0.003112 -0.004763,-0.0126836 -0.004763,-0.0212653 0,-0.0287784 -0.0196835,-0.0622869 -0.0391931,-0.0667199 -0.0394433,-0.008962 -0.0723455,0.0223735 -0.0723455,0.0689024 0,0.008901 -0.003134,0.0161826 -0.006969,0.0161826 -0.0102495,0 -0.008485,-0.0387759 0.002962,-0.0650892 0.0114382,-0.026293 0.0372988,-0.0426333 0.0674703,-0.0426333 0.0254871,0 0.0585102,0.039217 0.0648744,0.0770434 0.00423,0.0251402 -0.002755,0.0446156 -0.0120338,0.0335798 z M 0.0441805,0.33801718 c 0,-0.0275851 0.01753194,-0.0672879 0.03446988,-0.0780634 0.0200693,-0.0127668 0.057906,-0.0102958 0.0762542,0.004982 0.0276208,0.0229958 0.0466799,0.0942102 0.0252136,0.0942102 -0.007008,0 -0.0104568,-0.008328 -0.0104568,-0.0252358 0,-0.0655922 -0.0762838,-0.0897707 -0.10136113,-0.032127 -0.0055971,0.0128669 -0.01017772,0.0310374 -0.01017772,0.0403785 0,0.009341 -0.0031338,0.0169841 -0.0069692,0.0169841 -0.0038353,0 -0.0069692,-0.009508 -0.0069692,-0.0211272 z m 0.15336599,0 c 0,-0.0275851 0.0175319,-0.0672879 0.0344698,-0.0780634 0.0431734,-0.0274649 0.10167373,0.008895 0.10959374,0.0681169 0.005542,0.0414528 -0.007109,0.0401854 -0.0176832,-0.001771 -0.0192735,-0.0764646 -0.0903002,-0.0783924 -0.10728403,-0.002911 -0.008908,0.0395857 -0.0190964,0.047392 -0.0190964,0.0146303 z m 0.1534048,0.0114599 c 1.2433e-4,-0.0348871 0.0160578,-0.0740949 0.0347957,-0.0856124 0.0213033,-0.0130949 0.0612456,-0.0164122 0.0734595,-0.006101 0.0180808,0.0152634 0.038101,0.0560596 0.038101,0.0776395 0,0.0330564 -0.0114437,0.0297392 -0.0169122,-0.004904 -0.005074,-0.0321476 -0.0324119,-0.0625068 -0.0562862,-0.0625068 -0.02419,0 -0.051128,0.0299744 -0.0535976,0.0596382 -0.002081,0.0250195 -0.0196414,0.0446277 -0.0195611,0.0218441 z m 0.15655197,8.7809e-4 c -0.008331,-0.0160234 0.0168607,-0.0792535 0.0356251,-0.0894161 0.0197139,-0.0106769 0.0584604,-0.0124494 0.0694433,-0.003179 0.0284191,0.023991 0.0521826,0.10138103 0.0311303,0.10138103 -0.003836,0 -0.006969,-0.007643 -0.006969,-0.0169841 0,-0.0234666 -0.0180573,-0.0628036 -0.0316823,-0.0690184 C 0.56944186,0.2568964 0.52519446,0.288 0.52519446,0.3292734 c 0,0.0228259 -0.0103609,0.0351731 -0.0176879,0.02108 z m 0.1571123,-0.0203626 c 0,-0.0438652 0.0307296,-0.0785721 0.0695689,-0.0785721 0.0235664,0 0.0325514,0.004863 0.0493343,0.0267059 0.0112862,0.0146883 0.0205207,0.0351968 0.0205207,0.0455752 0,0.010378 2.3262e-4,0.0215724 5.2207e-4,0.0248768 2.8593e-4,0.003302 -0.002433,0.007177 -0.006034,0.008606 -0.003609,0.001428 -0.008558,-0.0122568 -0.0110009,-0.0304149 -0.005051,-0.0375738 -0.0249189,-0.0587768 -0.0550646,-0.0587768 -0.0245595,0 -0.0539016,0.0333594 -0.0539016,0.0612821 0,0.011332 -0.003134,0.022908 -0.006969,0.0257246 -0.004163,0.003055 -0.006969,-0.007032 -0.006969,-0.0250078 z M 0.819975,0.32520657 c 0.0104981,-0.0930343 0.11242726,-0.1016917 0.13742117,-0.011672 0.007923,0.0285422 0.005168,0.0456075 -0.007376,0.0456075 -0.003605,0 -0.006555,-0.0113562 -0.006555,-0.0252358 0,-0.0160614 -0.006525,-0.0329876 -0.0179404,-0.0465606 -0.0149681,-0.0177914 -0.0221827,-0.0205064 -0.0435468,-0.0163849 -0.0279981,0.005401 -0.0418109,0.021919 -0.0478999,0.0572799 -0.006853,0.0397767 -0.0186451,0.0372384 -0.0141012,-0.003035 z" id="path4609" inkscape:connector-curvature="0" sodipodi:nodetypes="ssssssscssssssccssssssssssssssssscsssssssscssssssssssssssssssssssssssssssssssssssssssssssssssssscsssssssssssssssscssssssssssssssssssssssssssssssssssssssssssssssssssssssssssssssssscssssssssssssss" />
    </pattern>
  </defs>
  <sodipodi:namedview pagecolor="#ffffff" bordercolor="#666666" borderopacity="1" objecttolerance="10" gridtolerance="10" guidetolerance="10" inkscape:pageopacity="0" inkscape:pageshadow="2" inkscape:window-width="1600" inkscape:window-height="838" id="namedview4" showgrid="false" inkscape:zoom="256" inkscape:cx="0.46743838" inkscape:cy="0.43939207" inkscape:window-x="-8" inkscape:window-y="-8" inkscape:window-maximized="1" inkscape:current-layer="svg2" />
  <path style="fill:#000000" d="m 0.02526035,0.70638067 c 0.01059166,-0.0938633 0.11566404,-0.10151255 0.13692875,-0.009969 0.00382,0.0164558 0.005285,0.0331268 0.003243,0.0370469 -0.006471,0.0124494 -0.0166846,-0.001633 -0.0166846,-0.0230108 0,-0.011332 -0.007701,-0.0297562 -0.017111,-0.0409429 -0.0327923,-0.0389785 -0.0825572,-0.0183847 -0.09206054,0.0380965 -0.0069224,0.0411252 -0.018978,0.0400961 -0.01431554,-0.001222 z m 0.28087239,0.0241029 c -0.001559,-0.005986 -0.004731,-0.0210902 -0.007031,-0.0335658 -0.006291,-0.0341538 -0.0337753,-0.0521569 -0.0654302,-0.0428597 -0.0218942,0.00643 -0.0271718,0.0127139 -0.0359082,0.0427551 -0.0108973,0.0374699 -0.0211288,0.0462992 -0.0211288,0.0182331 0,-0.0239575 0.0185867,-0.0638159 0.0344698,-0.0739201 0.0266183,-0.0169333 0.0660975,-0.0102591 0.0860977,0.0145553 0.0206486,0.0256189 0.0317236,0.0710394 0.0195088,0.0800124 -0.004249,0.003122 -0.009008,7.7522e-4 -0.0105776,-0.00521 z m 0.0277175,-1.8208e-4 c -0.007195,-0.0198968 0.008272,-0.0703939 0.0261178,-0.0852512 0.008228,-0.006851 0.0277915,-0.0124553 0.0434751,-0.0124553 0.0352112,0 0.0644426,0.0320405 0.0706392,0.077427 0.00534,0.0390881 -0.008445,0.0406481 -0.0146001,0.001653 -0.00509,-0.0322348 -0.0324283,-0.0625068 -0.0564538,-0.0625068 -0.0231836,0 -0.0467243,0.0265536 -0.0559385,0.0630974 -0.006267,0.0248701 -0.009283,0.0289741 -0.0132398,0.0180364 z m 0.15351316,0.002717 c -0.005325,-0.0102439 0.002143,-0.0517783 0.0122256,-0.0679952 0.0174485,-0.0280622 0.071566,-0.0433948 0.0920697,-0.0260857 0.0284191,0.023991 0.0521826,0.10138107 0.0311303,0.10138107 -0.003836,0 -0.006969,-0.007643 -0.006969,-0.0169842 0,-0.0234667 -0.0180573,-0.0628036 -0.031683,-0.0690184 -0.0356088,-0.0162422 -0.0798562,0.0148614 -0.0798562,0.0561347 0,0.0217218 -0.0102471,0.0353929 -0.0169154,0.0225676 z m 0.1535961,4.4274e-4 c -0.002043,-0.003918 -5.8598e-4,-0.0205911 0.003243,-0.0370469 0.0153796,-0.0662091 0.080387,-0.0865855 0.11840165,-0.0371127 0.0139678,0.0181786 0.0205207,0.0353765 0.0205207,0.0538614 0,0.0377859 -0.0112355,0.034028 -0.0165583,-0.005538 -0.005013,-0.0372416 -0.0249781,-0.0584565 -0.055021,-0.0584565 -0.0245595,0 -0.0539016,0.0333594 -0.0539016,0.061282 0,0.0213763 -0.010212,0.0354602 -0.0166846,0.0230107 z m 0.1581021,-0.0270786 c 0.0104981,-0.0930344 0.11242718,-0.10169177 0.13742107,-0.011672 0.008095,0.0291538 0.004357,0.0497813 -0.007445,0.0411103 -0.00357,-0.002624 -0.006486,-0.0140393 -0.006486,-0.0253707 0,-0.011332 -0.007702,-0.0297562 -0.0171109,-0.0409429 -0.0322559,-0.0383426 -0.083026,-0.0195501 -0.0914541,0.0338508 -0.006977,0.0442293 -0.0198667,0.0468399 -0.0149228,0.003024 z M 0.16048307,0.6106345 c -0.002619,-0.003114 -0.004763,-0.0138602 -0.004763,-0.0238797 0,-0.0329606 -0.0257967,-0.0618841 -0.0551948,-0.0618841 -0.0305199,0 -0.04707665,0.01743 -0.05364665,0.0564767 -0.0063143,0.0375279 -0.01945196,0.0336264 -0.01428203,-0.004241 0.0093288,-0.0683378 0.07410812,-0.095973 0.11522009,-0.0491541 0.0207179,0.0235934 0.033667,0.0690465 0.0232117,0.0814744 -0.00318,0.003779 -0.007924,0.004323 -0.0105433,0.001208 z m 0.15174118,-0.0228991 c -0.006026,-0.0381981 -0.0266939,-0.0628647 -0.0526667,-0.0628647 -0.0317422,0 -0.0466923,0.0133337 -0.0558972,0.0498533 -0.0104848,0.0415996 -0.023331,0.0436393 -0.0177596,0.00282 0.006556,-0.0480139 0.0282647,-0.0692458 0.0708044,-0.0692458 0.03186,0 0.0375553,0.002798 0.0515715,0.025332 0.0176029,0.0282995 0.0280924,0.0823907 0.0159783,0.0823907 -0.004163,0 -0.009576,-0.0127283 -0.0120322,-0.0282853 z m 0.15409976,-0.00118 c -0.006026,-0.0381882 -0.0262652,-0.0616855 -0.053129,-0.0616855 -0.0322201,0 -0.0470813,0.0133885 -0.0553429,0.0498591 -0.004116,0.0181524 -0.0104918,0.0330045 -0.0141791,0.0330045 -0.0121952,0 -0.006961,-0.0385291 0.009083,-0.0668214 0.0167898,-0.0296148 0.0428827,-0.0408747 0.0763681,-0.0329548 0.0235656,0.005573 0.054243,0.0535404 0.054243,0.0848134 0,0.0330286 -0.0115099,0.0288308 -0.0170416,-0.006215 z m 0.1541891,-5.6588e-4 c -0.005792,-0.0424454 -0.0223861,-0.06112 -0.0543031,-0.06112 -0.0303086,0 -0.054961,0.0246406 -0.054961,0.0549347 0,0.017065 -0.0111865,0.0339678 -0.017507,0.0264544 -0.005301,-0.006301 0.009796,-0.0674897 0.019498,-0.0790216 0.0116799,-0.0138835 0.0504396,-0.0248574 0.0730339,-0.0206781 0.0198417,0.00367 0.0504552,0.0561685 0.0504552,0.0865249 0,0.0331715 -0.0114016,0.0281839 -0.0162176,-0.007095 z m 0.15336597,0 c -0.005777,-0.0423291 -0.0224018,-0.06112 -0.0540684,-0.06112 -0.0298549,0 -0.0551948,0.0290448 -0.0551948,0.0632653 0,0.0112388 -0.004147,0.0195984 -0.009723,0.0195984 -0.0108637,0 -0.006096,-0.0394415 0.008751,-0.0724192 0.0102697,-0.0228088 0.05553,-0.0385913 0.0795454,-0.027738 0.0253445,0.0114539 0.0469074,0.048486 0.0469074,0.0805587 0,0.037123 -0.0110562,0.0356604 -0.0162176,-0.002144 z m 0.16040499,0.0246439 c -0.002619,-0.003114 -0.004763,-0.0138602 -0.004763,-0.0238797 0,-0.0329607 -0.0257967,-0.0618841 -0.0551948,-0.0618841 -0.0305207,0 -0.0470774,0.01743 -0.0536466,0.0564767 -0.00534,0.0317277 -0.0166394,0.0350406 -0.0166394,0.004878 0,-0.0276596 0.0201653,-0.0682419 0.0370805,-0.0746234 0.0473713,-0.0178717 0.087655,0.005942 0.10289322,0.0608252 0.007542,0.0271812 0.001378,0.0514092 -0.009729,0.0382075 z M 0.16745421,0.48633898 c -0.002619,-0.003112 -0.004833,-0.0152953 -0.004919,-0.0270689 -2.309e-4,-0.0316135 -0.0213198,-0.0595868 -0.0455433,-0.0604055 -0.0389436,-0.001314 -0.0516752,0.008769 -0.06048248,0.0479065 -0.0090824,0.0403615 -0.01930072,0.0485895 -0.01930072,0.0155402 0,-0.0499062 0.03279463,-0.0865953 0.07740403,-0.0865953 0.0249867,0 0.0590683,0.0397408 0.0659307,0.0768785 0.004396,0.023801 -0.003765,0.0448332 -0.0130901,0.0337446 z m 0.14955284,-0.0308479 c -0.009359,-0.04418 -0.0210718,-0.0565733 -0.0534697,-0.0565733 -0.0307515,0 -0.0503523,0.0197689 -0.056174,0.0566562 -0.006151,0.0389691 -0.0196959,0.0359622 -0.0144582,-0.003209 0.007686,-0.057446 0.0620594,-0.0939209 0.10207159,-0.0684672 0.0167984,0.0106866 0.0419917,0.059514 0.0419917,0.0813859 0,0.0323175 -0.012323,0.0262727 -0.0199625,-0.009793 z m 0.15696701,0.005002 c -0.005503,-0.0408843 -0.0245197,-0.0615755 -0.0566003,-0.0615755 -0.0315996,0 -0.0435726,0.0118826 -0.0527377,0.0523408 -0.007941,0.0350509 -0.0207101,0.0434139 -0.0206688,0.0135361 6.392e-5,-0.0455367 0.0391978,-0.0890783 0.0800615,-0.0890783 0.0369582,0 0.0833278,0.0825192 0.06117,0.10885737 -0.004529,0.005387 -0.008369,-0.002845 -0.0112239,-0.0240798 z m 0.15329676,-5.1351e-4 c -0.005519,-0.0410158 -0.0244933,-0.0610598 -0.0578055,-0.0610598 -0.0297053,0 -0.0512449,0.023516 -0.0512449,0.0559476 0,0.0186423 -0.0112098,0.0345839 -0.0183504,0.0260964 -0.00672,-0.007985 0.0114616,-0.0696212 0.0247505,-0.0839162 0.007382,-0.007946 0.0261342,-0.0164732 0.041662,-0.0189489 0.0253733,-0.004047 0.030721,-0.001541 0.052825,0.0247325 0.0190357,0.0226266 0.0245938,0.0359757 0.0245938,0.0590645 0,0.0395046 -0.0110321,0.0382178 -0.0164313,-0.001915 z m 0.16050231,0.0262233 c -0.002557,-0.00304 -0.004646,-0.0133954 -0.004646,-0.0230154 0,-0.00962 -0.005021,-0.0260137 -0.0111599,-0.0364307 -0.0326293,-0.0553735 -0.10037867,-0.0275717 -0.10037867,0.0411914 0,0.009833 -0.003632,0.0154191 -0.008714,0.0133881 -0.0110602,-0.004421 -0.007491,-0.0454678 0.006159,-0.0707715 0.0116939,-0.0216818 0.0362612,-0.034847 0.0650272,-0.034847 0.0279334,0 0.063009,0.0485956 0.063009,0.0872952 0,0.0295209 -0.001279,0.0327159 -0.009295,0.0231895 z m 0.15348201,1.3767e-4 c -0.002619,-0.003112 -0.004763,-0.0126836 -0.004763,-0.0212653 0,-0.0287784 -0.0196835,-0.0622869 -0.0391931,-0.0667199 -0.0394433,-0.008962 -0.0723455,0.0223735 -0.0723455,0.0689024 0,0.008901 -0.003134,0.0161826 -0.006969,0.0161826 -0.0102495,0 -0.008485,-0.0387759 0.002962,-0.0650892 0.0114382,-0.026293 0.0372988,-0.0426333 0.0674703,-0.0426333 0.0254871,0 0.0585102,0.039217 0.0648744,0.0770434 0.00423,0.0251402 -0.002755,0.0446156 -0.0120338,0.0335798 z M 0.0441805,0.33801718 c 0,-0.0275851 0.01753194,-0.0672879 0.03446988,-0.0780634 0.0200693,-0.0127668 0.057906,-0.0102958 0.0762542,0.004982 0.0276208,0.0229958 0.0466799,0.0942102 0.0252136,0.0942102 -0.007008,0 -0.0104568,-0.008328 -0.0104568,-0.0252358 0,-0.0655922 -0.0762838,-0.0897707 -0.10136113,-0.032127 -0.0055971,0.0128669 -0.01017772,0.0310374 -0.01017772,0.0403785 0,0.009341 -0.0031338,0.0169841 -0.0069692,0.0169841 -0.0038353,0 -0.0069692,-0.009508 -0.0069692,-0.0211272 z m 0.15336599,0 c 0,-0.0275851 0.0175319,-0.0672879 0.0344698,-0.0780634 0.0431734,-0.0274649 0.10167373,0.008895 0.10959374,0.0681169 0.005542,0.0414528 -0.007109,0.0401854 -0.0176832,-0.001771 -0.0192735,-0.0764646 -0.0903002,-0.0783924 -0.10728403,-0.002911 -0.008908,0.0395857 -0.0190964,0.047392 -0.0190964,0.0146303 z m 0.1534048,0.0114599 c 1.2433e-4,-0.0348871 0.0160578,-0.0740949 0.0347957,-0.0856124 0.0213033,-0.0130949 0.0612456,-0.0164122 0.0734595,-0.006101 0.0180808,0.0152634 0.038101,0.0560596 0.038101,0.0776395 0,0.0330564 -0.0114437,0.0297392 -0.0169122,-0.004904 -0.005074,-0.0321476 -0.0324119,-0.0625068 -0.0562862,-0.0625068 -0.02419,0 -0.051128,0.0299744 -0.0535976,0.0596382 -0.002081,0.0250195 -0.0196414,0.0446277 -0.0195611,0.0218441 z m 0.15655197,8.7809e-4 c -0.008331,-0.0160234 0.0168607,-0.0792535 0.0356251,-0.0894161 0.0197139,-0.0106769 0.0584604,-0.0124494 0.0694433,-0.003179 0.0284191,0.023991 0.0521826,0.10138103 0.0311303,0.10138103 -0.003836,0 -0.006969,-0.007643 -0.006969,-0.0169841 0,-0.0234666 -0.0180573,-0.0628036 -0.0316823,-0.0690184 C 0.56944186,0.2568964 0.52519446,0.288 0.52519446,0.3292734 c 0,0.0228259 -0.0103609,0.0351731 -0.0176879,0.02108 z m 0.1571123,-0.0203626 c 0,-0.0438652 0.0307296,-0.0785721 0.0695689,-0.0785721 0.0235664,0 0.0325514,0.004863 0.0493343,0.0267059 0.0112862,0.0146883 0.0205207,0.0351968 0.0205207,0.0455752 0,0.010378 2.3262e-4,0.0215724 5.2207e-4,0.0248768 2.8593e-4,0.003302 -0.002433,0.007177 -0.006034,0.008606 -0.003609,0.001428 -0.008558,-0.0122568 -0.0110009,-0.0304149 -0.005051,-0.0375738 -0.0249189,-0.0587768 -0.0550646,-0.0587768 -0.0245595,0 -0.0539016,0.0333594 -0.0539016,0.0612821 0,0.011332 -0.003134,0.022908 -0.006969,0.0257246 -0.004163,0.003055 -0.006969,-0.007032 -0.006969,-0.0250078 z M 0.819975,0.32520657 c 0.0104981,-0.0930343 0.11242726,-0.1016917 0.13742117,-0.011672 0.007923,0.0285422 0.005168,0.0456075 -0.007376,0.0456075 -0.003605,0 -0.006555,-0.0113562 -0.006555,-0.0252358 0,-0.0160614 -0.006525,-0.0329876 -0.0179404,-0.0465606 -0.0149681,-0.0177914 -0.0221827,-0.0205064 -0.0435468,-0.0163849 -0.0279981,0.005401 -0.0418109,0.021919 -0.0478999,0.0572799 -0.006853,0.0397767 -0.0186451,0.0372384 -0.0141012,-0.003035 z" id="path4609" inkscape:connector-curvature="0" sodipodi:nodetypes="ssssssscssssssccssssssssssssssssscsssssssscssssssssssssssssssssssssssssssssssssssssssssssssssssscsssssssssssssssscssssssssssssssssssssssssssssssssssssssssssssssssssssssssssssssssscssssssssssssss" />
</svg>