<?xml version="1.0" encoding="utf-8" standalone="no"?>
<svg xmlns:dc="http://purl.org/dc/elements/1.1/" xmlns:cc="http://creativecommons.org/ns#" xmlns:rdf="http://www.w3.org/1999/02/22-rdf-syntax-ns#" xmlns:svg="http://www.w3.org/2000/svg" xmlns="http://www.w3.org/2000/svg" xmlns:sodipodi="http://sodipodi.sourceforge.net/DTD/sodipodi-0.dtd" xmlns:inkscape="http://www.inkscape.org/namespaces/inkscape" height="1" version="1.1" width="1" id="svg2" inkscape:version="0.91 r13725" sodipodi:docname="lunate.svg">
  <metadata id="metadata8">
    <rdf:RDF>
      <cc:Work rdf:about="">
        <dc:format>image/svg+xml</dc:format>
        <dc:type rdf:resource="http://purl.org/dc/dcmitype/StillImage" />
        <dc:title></dc:title>
      </cc:Work>
    </rdf:RDF>
  </metadata>
  <defs id="defs6">
    <pattern width="1" height="1" id="lunate新月状" patternContentUnits="objectBoundingBox">
      <path style="fill:#000000" d="m 0.01540226,0.69276473 c 0.00771,-0.0122515 0.02017672,-0.0385326 0.02770345,-0.0584019 0.01766044,-0.0466182 0.03068181,-0.0393656 0.01511425,0.00842 -0.01203087,0.0369264 -0.03609821,0.0722593 -0.04922205,0.0722593 -0.0041893,0 -0.0013072,-0.0100234 0.0064037,-0.0222761 z m 0.09941551,0.009497 c -0.0113474,-0.0128395 -0.0204505,-0.0346809 -0.030875,-0.0740816 -0.004183,-0.0158217 -0.003271,-0.0212328 0.003601,-0.0212328 0.005071,0 0.0110985,0.009695 0.0133984,0.0215446 0.002301,0.0118491 0.0103419,0.0330071 0.0178718,0.047017 0.0116306,0.0216407 0.0152768,0.0239824 0.0242381,0.0155674 0.0135609,-0.0127349 0.0502757,-0.0995703 0.0420993,-0.0995703 -0.006851,0 -0.0289803,-0.0531385 -0.0365934,-0.087868 -0.007973,-0.0363735 0.0114406,-0.0208192 0.0213341,0.0170918 0.0171196,0.0656065 0.0361244,0.071776 0.0574799,0.0186592 0.008109,-0.0201712 0.0174579,-0.0424588 0.0207738,-0.049528 0.004027,-0.00858 0.002895,-0.0157983 -0.003401,-0.0217111 -0.009518,-0.008937 -0.0308975,-0.0714547 -0.0308975,-0.0903472 0,-0.0222686 0.0123328,-0.008363 0.020051,0.0226082 0.0182645,0.0732904 0.0394286,0.0764399 0.0654953,0.009747 0.009149,-0.0234085 0.019951,-0.0425609 0.0240042,-0.0425609 0.0176574,0 -0.0237828,0.0928146 -0.0464939,0.10413423 -0.00841,0.004191 -0.0153212,0.0128774 -0.0153581,0.0193025 -1.1049e-4,0.020245 -0.0330442,0.0927991 -0.0443441,0.0977052 -0.005947,0.002583 -0.0193488,0.0259932 -0.0297795,0.0520231 -0.0287214,0.0716752 -0.0486718,0.0885757 -0.0725999,0.0615006 z m 0.13189687,0.004732 c -0.006314,-0.004167 -0.0178293,-0.0267769 -0.0255887,-0.0502414 -0.0167231,-0.0505757 -0.0166493,-0.0498043 -0.004759,-0.0498043 0.00524,0 0.0130832,0.0150947 0.0178499,0.0343579 0.004677,0.018897 0.0137886,0.0397719 0.0202498,0.0463886 0.0106683,0.0109236 0.0127469,0.0107812 0.0226035,-0.001552 0.005972,-0.007465 0.0177712,-0.0309465 0.026224,-0.0521794 0.0122534,-0.0307804 0.0158927,-0.0352041 0.0179525,-0.0218255 0.002764,0.0179542 -0.0179925,0.0701102 -0.0360206,0.090509 -0.0124692,0.0141096 -0.0220719,0.0151921 -0.0385131,0.004339 z m 0.12107529,-0.00945 c -0.008532,-0.0147356 -0.0311233,-0.0783951 -0.0311233,-0.0877056 0,-0.001588 0.004045,-0.00289 0.008988,-0.00289 0.004946,0 0.0142169,0.0187641 0.0206056,0.041698 0.0183421,0.0658408 0.0366441,0.0617883 0.0662705,-0.0146743 0.0162923,-0.0420481 0.0261308,-0.0362297 0.0132746,0.00785 -0.0103619,0.0355275 -0.0386757,0.0732208 -0.0549999,0.0732208 -0.007085,0 -0.0174429,-0.007875 -0.0230162,-0.0174995 z m 0.12964734,0 c -0.008532,-0.0147356 -0.0311233,-0.0783951 -0.0311233,-0.0877056 0,-0.001588 0.003971,-0.00289 0.00882,-0.00289 0.004853,0 0.0124316,0.0152787 0.0168451,0.0339512 0.004415,0.0186732 0.013092,0.0396847 0.019285,0.0466922 0.01022,0.0115641 0.0123472,0.0116272 0.0230368,6.8555e-4 0.006476,-0.006634 0.0158295,-0.0259566 0.0207838,-0.0429423 0.0100862,-0.0345822 0.0272295,-0.0567557 0.0272295,-0.0352198 0,0.0199857 -0.0196421,0.0681933 -0.0356329,0.0874533 -0.018479,0.0222572 -0.0363483,0.0222496 -0.0492446,-2.201e-5 z m 0.13433017,0.007848 c -0.0109472,-0.0155222 -0.0266905,-0.0542022 -0.0317342,-0.0779658 -0.007711,-0.0363302 0.009632,-0.0205275 0.0237903,0.0216777 0.0126881,0.0378198 0.0244688,0.0529871 0.0352834,0.0454243 0.003189,-0.00223 0.0148441,-0.0251867 0.0259013,-0.0510153 0.01785,-0.041696 0.0189779,-0.0483694 0.0100618,-0.0595183 -0.0106739,-0.0133465 -0.0308726,-0.0722087 -0.0308726,-0.0899708 0,-0.0234168 0.0139048,-0.008589 0.0208226,0.0222034 0.009344,0.0415912 0.0231862,0.063121 0.0367873,0.0572154 0.005778,-0.002508 0.0194226,-0.0254006 0.0303273,-0.050873 0.016403,-0.0383163 0.0182257,-0.0478171 0.0105564,-0.05502 -0.007819,-0.007342 -0.0370806,-0.0839082 -0.0370806,-0.0970242 0,-0.002318 0.003308,-0.002968 0.007346,-0.001443 0.004039,0.001516 0.0140312,0.0217463 0.0222014,0.044939 0.021019,0.0596612 0.034543,0.059788 0.0576849,5.4122e-4 0.0178774,-0.04577 0.0287684,-0.0590671 0.0287684,-0.0351251 0,0.0211816 -0.0348,0.0901825 -0.0473574,0.0938981 -0.007247,0.002144 -0.0156489,0.016731 -0.0206231,0.0358023 -0.0108309,0.0415199 -0.0320749,0.0806977 -0.0454384,0.0837959 -0.005778,0.001335 -0.016353,0.0212663 -0.0235015,0.0442824 -0.0199604,0.0642671 -0.0535385,0.0956612 -0.072921,0.0681771 z m 0.1290488,-4.5114e-4 c -0.0102631,-0.0139923 -0.0348751,-0.0764693 -0.0350577,-0.0889907 -3.3085e-4,-0.0224589 0.0153374,-0.002493 0.0294324,0.0375151 0.008731,0.02478 0.0191012,0.0422686 0.0250665,0.0422686 0.005621,0 0.0201754,-0.0220721 0.0325346,-0.0493496 0.0199878,-0.0441143 0.0212822,-0.0506971 0.0122016,-0.0620507 -0.0137642,-0.017209 -0.0311495,-0.0656442 -0.0311495,-0.0867816 0,-0.024191 0.010018,-0.0103121 0.0260152,0.0360406 0.0186841,0.0541388 0.0329298,0.0518447 0.0602593,-0.009702 0.0117976,-0.0265694 0.0186628,-0.0502578 0.0152555,-0.0526406 -0.008485,-0.005934 -0.0303285,-0.0563558 -0.036035,-0.0831807 -0.007985,-0.0375351 0.009308,-0.0199163 0.0254648,0.0259454 0.021019,0.0596613 0.034543,0.0597882 0.0576849,5.4123e-4 0.0100886,-0.0258298 0.0206894,-0.0469633 0.0235565,-0.0469633 0.017288,0 -0.0229111,0.10004512 -0.042532,0.10585099 -0.007517,0.002224 -0.0136673,0.007548 -0.0136673,0.0118293 0,0.0199792 -0.0368398,0.0975467 -0.0501594,0.10561284 -0.008413,0.005095 -0.0188523,0.0232474 -0.0238722,0.0415097 -0.0174666,0.0635428 -0.0549824,0.0998335 -0.0749965,0.0725466 z m 0.12726187,-0.003417 c -0.010627,-0.0140303 -0.0328222,-0.0733088 -0.0328222,-0.0876611 0,-0.0203413 0.016019,0.001101 0.0295825,0.0396017 0.008729,0.02478 0.0191012,0.0422686 0.0250665,0.0422686 0.005621,0 0.0201754,-0.0220721 0.0325346,-0.0493496 0.0199872,-0.0441143 0.0212816,-0.0506971 0.0122016,-0.0620507 -0.0134678,-0.0168392 -0.0311495,-0.0654814 -0.0311495,-0.0856932 0,-0.0257993 0.0116494,-0.0105845 0.023931,0.0312561 0.006228,0.0212233 0.0174097,0.0422714 0.0248446,0.0467737 0.00889,0.005384 0.011432,0.0113061 0.00743,0.0172992 -0.00335,0.005012 -0.011411,0.0254157 -0.0179131,0.0453417 -0.0222828,0.0682734 -0.0508497,0.092387 -0.0737039,0.0622139 z M 0.05053208,0.58255047 C 0.03606197,0.56497527 0.01199209,0.49304217 0.01822326,0.48599207 c 0.0072924,-0.008252 0.01675442,0.005525 0.02087955,0.0304078 0.0052271,0.0315372 0.02204009,0.0596572 0.0356655,0.0596572 0.005984,0 0.018342,-0.0201241 0.0296051,-0.0481988 0.0187266,-0.04668 0.0189611,-0.0488088 0.007446,-0.0675588 -0.0127093,-0.0206945 -0.0276241,-0.0651196 -0.0276241,-0.0822803 0,-0.0213265 0.0117513,-0.009432 0.0194657,0.0197044 0.0102775,0.0388128 0.0301309,0.0669204 0.0416027,0.0588979 0.004777,-0.003343 0.0159853,-0.0247421 0.0249015,-0.0475546 0.008917,-0.0228123 0.0195276,-0.041477 0.0235802,-0.041477 0.0176574,0 -0.0237828,0.0928146 -0.0464938,0.10413423 -0.00841,0.004193 -0.0152918,0.0138625 -0.0152918,0.0214894 0,0.0215697 -0.0325958,0.0890996 -0.0473067,0.0980083 -0.0176524,0.0106909 -0.0183201,0.0105195 -0.03412157,-0.00867 z m 0.26668728,0.0112989 c -0.0106383,-0.004795 -0.0417984,-0.0768852 -0.0418979,-0.0969324 -1.1043e-4,-0.0237466 0.0122466,-0.0144939 0.020635,0.0154429 0.010854,0.0387336 0.0252948,0.0636983 0.0368466,0.0636983 0.005209,0 0.0161047,-0.0165036 0.0242143,-0.0366748 0.008109,-0.0201712 0.0175323,-0.0425941 0.0209396,-0.0498286 0.003971,-0.00843 0.003539,-0.0150116 -0.001194,-0.0183248 -0.0105576,-0.007382 -0.0329397,-0.0656862 -0.0331174,-0.0862667 -2.5894e-4,-0.0303504 0.00992,-0.0188237 0.0238704,0.0270236 0.0183352,0.0602554 0.0334913,0.0602554 0.0598509,0 0.0240711,-0.055024 0.036756,-0.0583435 0.0188179,-0.004925 -0.0144952,0.0431655 -0.0314659,0.0686227 -0.0457472,0.0686227 -0.005046,0 -0.009208,0.00608 -0.009244,0.0135125 -1.7264e-4,0.0353589 -0.0453402,0.11429855 -0.0626025,0.10941474 -0.001182,-3.4277e-4 -0.0063,-0.002479 -0.0113661,-0.004761 z m 0.12964727,0 c -0.0106383,-0.004795 -0.0417984,-0.0768852 -0.0418979,-0.0969324 -8.836e-5,-0.0194019 0.0118851,-0.0166696 0.0169276,0.003861 0.009375,0.0381701 0.0264923,0.0752799 0.0347238,0.0752799 0.0123141,0 0.0352333,-0.0351509 0.0404535,-0.0620421 0.002426,-0.0124914 0.007442,-0.0248339 0.0111517,-0.0274274 0.004052,-0.002832 0.002332,-0.0102327 -0.004302,-0.0185246 -0.0161698,-0.0202172 -0.0386544,-0.0911099 -0.030668,-0.0966946 0.006518,-0.004557 0.009498,0.001389 0.0299896,0.0599199 0.0146678,0.0418907 0.0288153,0.0370907 0.0504483,-0.0171171 0.0200916,-0.0503455 0.0328772,-0.0610095 0.0259145,-0.0216144 -0.005684,0.0321582 -0.0354622,0.0831273 -0.0485668,0.0831273 -0.005578,0 -0.010205,0.00608 -0.0102887,0.0135125 -2.3018e-4,0.0201217 -0.0239216,0.0754937 -0.040187,0.0938988 -0.014739,0.0166768 -0.0181451,0.0177647 -0.0336989,0.010754 z m 0.11921801,-0.0136496 c -0.0141006,-0.0172163 -0.0315353,-0.0658901 -0.0315353,-0.0880397 0,-0.0156359 0.0126074,-0.009242 0.0169946,0.008616 0.009151,0.03726 0.0264041,0.0752799 0.034161,0.0752799 0.0114093,0 0.0268712,-0.0222426 0.0375707,-0.0540471 0.005003,-0.0148637 0.011685,-0.0309057 0.0148554,-0.0356505 0.003427,-0.005131 0.001688,-0.0124571 -0.004295,-0.0180757 -0.005534,-0.005197 -0.0163192,-0.0283721 -0.0239666,-0.0515004 -0.0160572,-0.04856 -0.016453,-0.0514415 -0.006559,-0.0477099 0.004039,0.001516 0.0140312,0.0217463 0.0222014,0.0449389 0.021019,0.0596613 0.034543,0.0597882 0.0576849,5.4123e-4 0.0100886,-0.0258298 0.0206894,-0.0469633 0.0235559,-0.0469633 0.0186953,0 -0.0178243,0.0921906 -0.0412507,0.10413422 -0.008221,0.004193 -0.0149491,0.011721 -0.0149491,0.0167328 0,0.0170684 -0.0264022,0.0788704 -0.0405165,0.0948416 -0.0181513,0.0205386 -0.024984,0.0200571 -0.0439482,-0.003097 z M 0.00913684,0.46841821 c 0,-0.003996 0.0034146,-0.009652 0.0075845,-0.0125708 0.0041708,-0.002917 0.01488036,-0.0239692 0.0237966,-0.0467817 0.0089169,-0.0228123 0.01952758,-0.041477 0.02358025,-0.041477 0.0082566,0 0.0036576,0.0216563 -0.01229661,0.0579076 -0.01717712,0.0390312 -0.04266574,0.0646725 -0.04266574,0.0429212 z M 0.04447405,0.33477516 c -0.0194538,-0.036051 -0.02998328,-0.083001 -0.01861533,-0.083001 0.0048402,0 0.0126249,0.0154609 0.01730029,0.0343582 0.0046771,0.018897 0.01378799,0.0397716 0.02024981,0.0463885 0.01066827,0.0109236 0.01274685,0.0107829 0.02260351,-0.001552 0.005972,-0.007465 0.0177712,-0.0309465 0.026224,-0.0521792 0.0122247,-0.0307091 0.0158965,-0.0351824 0.0179475,-0.021871 0.003195,0.0207304 -0.0277154,0.0915599 -0.0428177,0.0981175 -0.0206757,0.008977 -0.029313,0.004897 -0.04289209,-0.0202693 z m 0.1408284,0.0170448 c -0.006314,-0.004167 -0.0178293,-0.0267771 -0.025588,-0.0502414 -0.0166331,-0.0503024 -0.0165793,-0.0498044 -0.005359,-0.0498044 0.004809,0 0.0127643,0.0154014 0.0176761,0.0342243 0.004915,0.0188233 0.0129269,0.0404074 0.0178099,0.0479648 0.00787,0.0121774 0.0102544,0.0124553 0.0209564,0.00245 0.006642,-0.00621 0.0196671,-0.0303997 0.0289441,-0.0537557 0.0191493,-0.0482122 0.0291786,-0.0393309 0.0122447,0.0108425 -0.0120884,0.0358162 -0.033869,0.0665038 -0.0469372,0.0661326 -0.004546,-1.2972e-4 -0.0134303,-0.003646 -0.0197453,-0.007813 z m 0.11708867,-0.0170448 c -0.0148616,-0.0274127 -0.0287434,-0.0760349 -0.0234258,-0.082052 0.005528,-0.006258 0.0138518,0.008627 0.0264047,0.0472277 0.006544,0.0201272 0.0149229,0.0387083 0.0186166,0.0412916 0.0108322,0.007575 0.0326334,-0.0200943 0.0411369,-0.0522118 0.008787,-0.0331861 0.0261308,-0.0558147 0.0261308,-0.0340931 0,0.0199857 -0.0196421,0.0681933 -0.0356329,0.0874532 -0.0201592,0.0242808 -0.037265,0.0218336 -0.0532308,-0.007615 z m 0.13831699,0.015441 c -0.0108252,-0.0153508 -0.0266711,-0.0541072 -0.0315666,-0.0772101 -0.007641,-0.0360569 0.0124823,-0.025082 0.0212347,0.0115821 0.004309,0.0180478 0.0123442,0.039717 0.0178574,0.0481537 0.009855,0.015082 0.0102644,0.0150928 0.0243463,6.675e-4 0.007877,-0.008066 0.0178631,-0.0280396 0.0221914,-0.044385 0.008787,-0.0331861 0.0261308,-0.0558147 0.0261308,-0.0340931 0,0.0199857 -0.0196421,0.0681933 -0.0356329,0.0874533 -0.0160922,0.0193824 -0.0341729,0.0225579 -0.0445617,0.007826 z m 0.12904872,-4.5101e-4 c -0.0102625,-0.0139924 -0.0348751,-0.0764692 -0.0350577,-0.0889905 -3.3085e-4,-0.0224588 0.0153374,-0.002493 0.0294324,0.0375152 0.008729,0.02478 0.0191011,0.0422686 0.0250665,0.0422686 0.005597,0 0.018681,-0.0190061 0.0290779,-0.0422356 0.0103963,-0.0232296 0.0219113,-0.0456398 0.025588,-0.0498005 0.0103895,-0.0117553 0.00819,0.01267 -0.004202,0.0466973 -0.0199858,0.0548686 -0.051583,0.0795243 -0.0699038,0.0545456 z m 0.12617765,-0.004055 c -0.0129107,-0.0161428 -0.0351721,-0.084909 -0.0295475,-0.0912734 0.005984,-0.006771 0.0182801,0.004933 0.0182801,0.0173966 0,0.0196774 0.0276234,0.073734 0.0361901,0.0708196 0.004489,-0.001533 0.0166693,-0.0216294 0.0270656,-0.0446709 0.0318411,-0.0705686 0.0463888,-0.0705904 0.0181019,-2.688e-5 -0.0246432,0.0614745 -0.0469578,0.076678 -0.0700901,0.047755 z m 0.1298527,2.5256e-4 c -0.0103187,-0.0129009 -0.0319431,-0.0721022 -0.0319431,-0.0874486 0,-0.0199051 0.0138605,-0.001768 0.0246908,0.0323115 0.0215568,0.0678324 0.0354341,0.0685432 0.0610022,0.003125 0.0157889,-0.0403975 0.0304467,-0.0601847 0.0301578,-0.0407125 -2.1573e-4,0.0149431 -0.0262246,0.0772305 -0.0388126,0.092969 -0.0139756,0.0174742 -0.0309976,0.0173822 -0.0450951,-2.5257e-4 z m 0.12972787,9.998e-5 c -0.0128894,-0.0161157 -0.0320237,-0.0653924 -0.0320237,-0.0824702 0,-0.0249328 0.0130388,-0.010166 0.0240017,0.0271818 0.006298,0.0214563 0.0172921,0.0431388 0.0244307,0.0481833 0.00714,0.005044 0.01298,0.0118113 0.01298,0.0150351 0,0.0108912 -0.018279,0.005959 -0.029388,-0.007931 z" id="path4283" inkscape:connector-curvature="0" />
    </pattern>
  </defs>
  <sodipodi:namedview pagecolor="#ffffff" bordercolor="#666666" borderopacity="1" objecttolerance="10" gridtolerance="10" guidetolerance="10" inkscape:pageopacity="0" inkscape:pageshadow="2" inkscape:window-width="1600" inkscape:window-height="838" id="namedview4" showgrid="false" inkscape:zoom="256" inkscape:cx="0.5" inkscape:cy="0.5" inkscape:window-x="-8" inkscape:window-y="-8" inkscape:window-maximized="1" inkscape:current-layer="svg2" />
  <path style="fill:#000000" d="m 0.01540226,0.69276473 c 0.00771,-0.0122515 0.02017672,-0.0385326 0.02770345,-0.0584019 0.01766044,-0.0466182 0.03068181,-0.0393656 0.01511425,0.00842 -0.01203087,0.0369264 -0.03609821,0.0722593 -0.04922205,0.0722593 -0.0041893,0 -0.0013072,-0.0100234 0.0064037,-0.0222761 z m 0.09941551,0.009497 c -0.0113474,-0.0128395 -0.0204505,-0.0346809 -0.030875,-0.0740816 -0.004183,-0.0158217 -0.003271,-0.0212328 0.003601,-0.0212328 0.005071,0 0.0110985,0.009695 0.0133984,0.0215446 0.002301,0.0118491 0.0103419,0.0330071 0.0178718,0.047017 0.0116306,0.0216407 0.0152768,0.0239824 0.0242381,0.0155674 0.0135609,-0.0127349 0.0502757,-0.0995703 0.0420993,-0.0995703 -0.006851,0 -0.0289803,-0.0531385 -0.0365934,-0.087868 -0.007973,-0.0363735 0.0114406,-0.0208192 0.0213341,0.0170918 0.0171196,0.0656065 0.0361244,0.071776 0.0574799,0.0186592 0.008109,-0.0201712 0.0174579,-0.0424588 0.0207738,-0.049528 0.004027,-0.00858 0.002895,-0.0157983 -0.003401,-0.0217111 -0.009518,-0.008937 -0.0308975,-0.0714547 -0.0308975,-0.0903472 0,-0.0222686 0.0123328,-0.008363 0.020051,0.0226082 0.0182645,0.0732904 0.0394286,0.0764399 0.0654953,0.009747 0.009149,-0.0234085 0.019951,-0.0425609 0.0240042,-0.0425609 0.0176574,0 -0.0237828,0.0928146 -0.0464939,0.10413423 -0.00841,0.004191 -0.0153212,0.0128774 -0.0153581,0.0193025 -1.1049e-4,0.020245 -0.0330442,0.0927991 -0.0443441,0.0977052 -0.005947,0.002583 -0.0193488,0.0259932 -0.0297795,0.0520231 -0.0287214,0.0716752 -0.0486718,0.0885757 -0.0725999,0.0615006 z m 0.13189687,0.004732 c -0.006314,-0.004167 -0.0178293,-0.0267769 -0.0255887,-0.0502414 -0.0167231,-0.0505757 -0.0166493,-0.0498043 -0.004759,-0.0498043 0.00524,0 0.0130832,0.0150947 0.0178499,0.0343579 0.004677,0.018897 0.0137886,0.0397719 0.0202498,0.0463886 0.0106683,0.0109236 0.0127469,0.0107812 0.0226035,-0.001552 0.005972,-0.007465 0.0177712,-0.0309465 0.026224,-0.0521794 0.0122534,-0.0307804 0.0158927,-0.0352041 0.0179525,-0.0218255 0.002764,0.0179542 -0.0179925,0.0701102 -0.0360206,0.090509 -0.0124692,0.0141096 -0.0220719,0.0151921 -0.0385131,0.004339 z m 0.12107529,-0.00945 c -0.008532,-0.0147356 -0.0311233,-0.0783951 -0.0311233,-0.0877056 0,-0.001588 0.004045,-0.00289 0.008988,-0.00289 0.004946,0 0.0142169,0.0187641 0.0206056,0.041698 0.0183421,0.0658408 0.0366441,0.0617883 0.0662705,-0.0146743 0.0162923,-0.0420481 0.0261308,-0.0362297 0.0132746,0.00785 -0.0103619,0.0355275 -0.0386757,0.0732208 -0.0549999,0.0732208 -0.007085,0 -0.0174429,-0.007875 -0.0230162,-0.0174995 z m 0.12964734,0 c -0.008532,-0.0147356 -0.0311233,-0.0783951 -0.0311233,-0.0877056 0,-0.001588 0.003971,-0.00289 0.00882,-0.00289 0.004853,0 0.0124316,0.0152787 0.0168451,0.0339512 0.004415,0.0186732 0.013092,0.0396847 0.019285,0.0466922 0.01022,0.0115641 0.0123472,0.0116272 0.0230368,6.8555e-4 0.006476,-0.006634 0.0158295,-0.0259566 0.0207838,-0.0429423 0.0100862,-0.0345822 0.0272295,-0.0567557 0.0272295,-0.0352198 0,0.0199857 -0.0196421,0.0681933 -0.0356329,0.0874533 -0.018479,0.0222572 -0.0363483,0.0222496 -0.0492446,-2.201e-5 z m 0.13433017,0.007848 c -0.0109472,-0.0155222 -0.0266905,-0.0542022 -0.0317342,-0.0779658 -0.007711,-0.0363302 0.009632,-0.0205275 0.0237903,0.0216777 0.0126881,0.0378198 0.0244688,0.0529871 0.0352834,0.0454243 0.003189,-0.00223 0.0148441,-0.0251867 0.0259013,-0.0510153 0.01785,-0.041696 0.0189779,-0.0483694 0.0100618,-0.0595183 -0.0106739,-0.0133465 -0.0308726,-0.0722087 -0.0308726,-0.0899708 0,-0.0234168 0.0139048,-0.008589 0.0208226,0.0222034 0.009344,0.0415912 0.0231862,0.063121 0.0367873,0.0572154 0.005778,-0.002508 0.0194226,-0.0254006 0.0303273,-0.050873 0.016403,-0.0383163 0.0182257,-0.0478171 0.0105564,-0.05502 -0.007819,-0.007342 -0.0370806,-0.0839082 -0.0370806,-0.0970242 0,-0.002318 0.003308,-0.002968 0.007346,-0.001443 0.004039,0.001516 0.0140312,0.0217463 0.0222014,0.044939 0.021019,0.0596612 0.034543,0.059788 0.0576849,5.4122e-4 0.0178774,-0.04577 0.0287684,-0.0590671 0.0287684,-0.0351251 0,0.0211816 -0.0348,0.0901825 -0.0473574,0.0938981 -0.007247,0.002144 -0.0156489,0.016731 -0.0206231,0.0358023 -0.0108309,0.0415199 -0.0320749,0.0806977 -0.0454384,0.0837959 -0.005778,0.001335 -0.016353,0.0212663 -0.0235015,0.0442824 -0.0199604,0.0642671 -0.0535385,0.0956612 -0.072921,0.0681771 z m 0.1290488,-4.5114e-4 c -0.0102631,-0.0139923 -0.0348751,-0.0764693 -0.0350577,-0.0889907 -3.3085e-4,-0.0224589 0.0153374,-0.002493 0.0294324,0.0375151 0.008731,0.02478 0.0191012,0.0422686 0.0250665,0.0422686 0.005621,0 0.0201754,-0.0220721 0.0325346,-0.0493496 0.0199878,-0.0441143 0.0212822,-0.0506971 0.0122016,-0.0620507 -0.0137642,-0.017209 -0.0311495,-0.0656442 -0.0311495,-0.0867816 0,-0.024191 0.010018,-0.0103121 0.0260152,0.0360406 0.0186841,0.0541388 0.0329298,0.0518447 0.0602593,-0.009702 0.0117976,-0.0265694 0.0186628,-0.0502578 0.0152555,-0.0526406 -0.008485,-0.005934 -0.0303285,-0.0563558 -0.036035,-0.0831807 -0.007985,-0.0375351 0.009308,-0.0199163 0.0254648,0.0259454 0.021019,0.0596613 0.034543,0.0597882 0.0576849,5.4123e-4 0.0100886,-0.0258298 0.0206894,-0.0469633 0.0235565,-0.0469633 0.017288,0 -0.0229111,0.10004512 -0.042532,0.10585099 -0.007517,0.002224 -0.0136673,0.007548 -0.0136673,0.0118293 0,0.0199792 -0.0368398,0.0975467 -0.0501594,0.10561284 -0.008413,0.005095 -0.0188523,0.0232474 -0.0238722,0.0415097 -0.0174666,0.0635428 -0.0549824,0.0998335 -0.0749965,0.0725466 z m 0.12726187,-0.003417 c -0.010627,-0.0140303 -0.0328222,-0.0733088 -0.0328222,-0.0876611 0,-0.0203413 0.016019,0.001101 0.0295825,0.0396017 0.008729,0.02478 0.0191012,0.0422686 0.0250665,0.0422686 0.005621,0 0.0201754,-0.0220721 0.0325346,-0.0493496 0.0199872,-0.0441143 0.0212816,-0.0506971 0.0122016,-0.0620507 -0.0134678,-0.0168392 -0.0311495,-0.0654814 -0.0311495,-0.0856932 0,-0.0257993 0.0116494,-0.0105845 0.023931,0.0312561 0.006228,0.0212233 0.0174097,0.0422714 0.0248446,0.0467737 0.00889,0.005384 0.011432,0.0113061 0.00743,0.0172992 -0.00335,0.005012 -0.011411,0.0254157 -0.0179131,0.0453417 -0.0222828,0.0682734 -0.0508497,0.092387 -0.0737039,0.0622139 z M 0.05053208,0.58255047 C 0.03606197,0.56497527 0.01199209,0.49304217 0.01822326,0.48599207 c 0.0072924,-0.008252 0.01675442,0.005525 0.02087955,0.0304078 0.0052271,0.0315372 0.02204009,0.0596572 0.0356655,0.0596572 0.005984,0 0.018342,-0.0201241 0.0296051,-0.0481988 0.0187266,-0.04668 0.0189611,-0.0488088 0.007446,-0.0675588 -0.0127093,-0.0206945 -0.0276241,-0.0651196 -0.0276241,-0.0822803 0,-0.0213265 0.0117513,-0.009432 0.0194657,0.0197044 0.0102775,0.0388128 0.0301309,0.0669204 0.0416027,0.0588979 0.004777,-0.003343 0.0159853,-0.0247421 0.0249015,-0.0475546 0.008917,-0.0228123 0.0195276,-0.041477 0.0235802,-0.041477 0.0176574,0 -0.0237828,0.0928146 -0.0464938,0.10413423 -0.00841,0.004193 -0.0152918,0.0138625 -0.0152918,0.0214894 0,0.0215697 -0.0325958,0.0890996 -0.0473067,0.0980083 -0.0176524,0.0106909 -0.0183201,0.0105195 -0.03412157,-0.00867 z m 0.26668728,0.0112989 c -0.0106383,-0.004795 -0.0417984,-0.0768852 -0.0418979,-0.0969324 -1.1043e-4,-0.0237466 0.0122466,-0.0144939 0.020635,0.0154429 0.010854,0.0387336 0.0252948,0.0636983 0.0368466,0.0636983 0.005209,0 0.0161047,-0.0165036 0.0242143,-0.0366748 0.008109,-0.0201712 0.0175323,-0.0425941 0.0209396,-0.0498286 0.003971,-0.00843 0.003539,-0.0150116 -0.001194,-0.0183248 -0.0105576,-0.007382 -0.0329397,-0.0656862 -0.0331174,-0.0862667 -2.5894e-4,-0.0303504 0.00992,-0.0188237 0.0238704,0.0270236 0.0183352,0.0602554 0.0334913,0.0602554 0.0598509,0 0.0240711,-0.055024 0.036756,-0.0583435 0.0188179,-0.004925 -0.0144952,0.0431655 -0.0314659,0.0686227 -0.0457472,0.0686227 -0.005046,0 -0.009208,0.00608 -0.009244,0.0135125 -1.7264e-4,0.0353589 -0.0453402,0.11429855 -0.0626025,0.10941474 -0.001182,-3.4277e-4 -0.0063,-0.002479 -0.0113661,-0.004761 z m 0.12964727,0 c -0.0106383,-0.004795 -0.0417984,-0.0768852 -0.0418979,-0.0969324 -8.836e-5,-0.0194019 0.0118851,-0.0166696 0.0169276,0.003861 0.009375,0.0381701 0.0264923,0.0752799 0.0347238,0.0752799 0.0123141,0 0.0352333,-0.0351509 0.0404535,-0.0620421 0.002426,-0.0124914 0.007442,-0.0248339 0.0111517,-0.0274274 0.004052,-0.002832 0.002332,-0.0102327 -0.004302,-0.0185246 -0.0161698,-0.0202172 -0.0386544,-0.0911099 -0.030668,-0.0966946 0.006518,-0.004557 0.009498,0.001389 0.0299896,0.0599199 0.0146678,0.0418907 0.0288153,0.0370907 0.0504483,-0.0171171 0.0200916,-0.0503455 0.0328772,-0.0610095 0.0259145,-0.0216144 -0.005684,0.0321582 -0.0354622,0.0831273 -0.0485668,0.0831273 -0.005578,0 -0.010205,0.00608 -0.0102887,0.0135125 -2.3018e-4,0.0201217 -0.0239216,0.0754937 -0.040187,0.0938988 -0.014739,0.0166768 -0.0181451,0.0177647 -0.0336989,0.010754 z m 0.11921801,-0.0136496 c -0.0141006,-0.0172163 -0.0315353,-0.0658901 -0.0315353,-0.0880397 0,-0.0156359 0.0126074,-0.009242 0.0169946,0.008616 0.009151,0.03726 0.0264041,0.0752799 0.034161,0.0752799 0.0114093,0 0.0268712,-0.0222426 0.0375707,-0.0540471 0.005003,-0.0148637 0.011685,-0.0309057 0.0148554,-0.0356505 0.003427,-0.005131 0.001688,-0.0124571 -0.004295,-0.0180757 -0.005534,-0.005197 -0.0163192,-0.0283721 -0.0239666,-0.0515004 -0.0160572,-0.04856 -0.016453,-0.0514415 -0.006559,-0.0477099 0.004039,0.001516 0.0140312,0.0217463 0.0222014,0.0449389 0.021019,0.0596613 0.034543,0.0597882 0.0576849,5.4123e-4 0.0100886,-0.0258298 0.0206894,-0.0469633 0.0235559,-0.0469633 0.0186953,0 -0.0178243,0.0921906 -0.0412507,0.10413422 -0.008221,0.004193 -0.0149491,0.011721 -0.0149491,0.0167328 0,0.0170684 -0.0264022,0.0788704 -0.0405165,0.0948416 -0.0181513,0.0205386 -0.024984,0.0200571 -0.0439482,-0.003097 z M 0.00913684,0.46841821 c 0,-0.003996 0.0034146,-0.009652 0.0075845,-0.0125708 0.0041708,-0.002917 0.01488036,-0.0239692 0.0237966,-0.0467817 0.0089169,-0.0228123 0.01952758,-0.041477 0.02358025,-0.041477 0.0082566,0 0.0036576,0.0216563 -0.01229661,0.0579076 -0.01717712,0.0390312 -0.04266574,0.0646725 -0.04266574,0.0429212 z M 0.04447405,0.33477516 c -0.0194538,-0.036051 -0.02998328,-0.083001 -0.01861533,-0.083001 0.0048402,0 0.0126249,0.0154609 0.01730029,0.0343582 0.0046771,0.018897 0.01378799,0.0397716 0.02024981,0.0463885 0.01066827,0.0109236 0.01274685,0.0107829 0.02260351,-0.001552 0.005972,-0.007465 0.0177712,-0.0309465 0.026224,-0.0521792 0.0122247,-0.0307091 0.0158965,-0.0351824 0.0179475,-0.021871 0.003195,0.0207304 -0.0277154,0.0915599 -0.0428177,0.0981175 -0.0206757,0.008977 -0.029313,0.004897 -0.04289209,-0.0202693 z m 0.1408284,0.0170448 c -0.006314,-0.004167 -0.0178293,-0.0267771 -0.025588,-0.0502414 -0.0166331,-0.0503024 -0.0165793,-0.0498044 -0.005359,-0.0498044 0.004809,0 0.0127643,0.0154014 0.0176761,0.0342243 0.004915,0.0188233 0.0129269,0.0404074 0.0178099,0.0479648 0.00787,0.0121774 0.0102544,0.0124553 0.0209564,0.00245 0.006642,-0.00621 0.0196671,-0.0303997 0.0289441,-0.0537557 0.0191493,-0.0482122 0.0291786,-0.0393309 0.0122447,0.0108425 -0.0120884,0.0358162 -0.033869,0.0665038 -0.0469372,0.0661326 -0.004546,-1.2972e-4 -0.0134303,-0.003646 -0.0197453,-0.007813 z m 0.11708867,-0.0170448 c -0.0148616,-0.0274127 -0.0287434,-0.0760349 -0.0234258,-0.082052 0.005528,-0.006258 0.0138518,0.008627 0.0264047,0.0472277 0.006544,0.0201272 0.0149229,0.0387083 0.0186166,0.0412916 0.0108322,0.007575 0.0326334,-0.0200943 0.0411369,-0.0522118 0.008787,-0.0331861 0.0261308,-0.0558147 0.0261308,-0.0340931 0,0.0199857 -0.0196421,0.0681933 -0.0356329,0.0874532 -0.0201592,0.0242808 -0.037265,0.0218336 -0.0532308,-0.007615 z m 0.13831699,0.015441 c -0.0108252,-0.0153508 -0.0266711,-0.0541072 -0.0315666,-0.0772101 -0.007641,-0.0360569 0.0124823,-0.025082 0.0212347,0.0115821 0.004309,0.0180478 0.0123442,0.039717 0.0178574,0.0481537 0.009855,0.015082 0.0102644,0.0150928 0.0243463,6.675e-4 0.007877,-0.008066 0.0178631,-0.0280396 0.0221914,-0.044385 0.008787,-0.0331861 0.0261308,-0.0558147 0.0261308,-0.0340931 0,0.0199857 -0.0196421,0.0681933 -0.0356329,0.0874533 -0.0160922,0.0193824 -0.0341729,0.0225579 -0.0445617,0.007826 z m 0.12904872,-4.5101e-4 c -0.0102625,-0.0139924 -0.0348751,-0.0764692 -0.0350577,-0.0889905 -3.3085e-4,-0.0224588 0.0153374,-0.002493 0.0294324,0.0375152 0.008729,0.02478 0.0191011,0.0422686 0.0250665,0.0422686 0.005597,0 0.018681,-0.0190061 0.0290779,-0.0422356 0.0103963,-0.0232296 0.0219113,-0.0456398 0.025588,-0.0498005 0.0103895,-0.0117553 0.00819,0.01267 -0.004202,0.0466973 -0.0199858,0.0548686 -0.051583,0.0795243 -0.0699038,0.0545456 z m 0.12617765,-0.004055 c -0.0129107,-0.0161428 -0.0351721,-0.084909 -0.0295475,-0.0912734 0.005984,-0.006771 0.0182801,0.004933 0.0182801,0.0173966 0,0.0196774 0.0276234,0.073734 0.0361901,0.0708196 0.004489,-0.001533 0.0166693,-0.0216294 0.0270656,-0.0446709 0.0318411,-0.0705686 0.0463888,-0.0705904 0.0181019,-2.688e-5 -0.0246432,0.0614745 -0.0469578,0.076678 -0.0700901,0.047755 z m 0.1298527,2.5256e-4 c -0.0103187,-0.0129009 -0.0319431,-0.0721022 -0.0319431,-0.0874486 0,-0.0199051 0.0138605,-0.001768 0.0246908,0.0323115 0.0215568,0.0678324 0.0354341,0.0685432 0.0610022,0.003125 0.0157889,-0.0403975 0.0304467,-0.0601847 0.0301578,-0.0407125 -2.1573e-4,0.0149431 -0.0262246,0.0772305 -0.0388126,0.092969 -0.0139756,0.0174742 -0.0309976,0.0173822 -0.0450951,-2.5257e-4 z m 0.12972787,9.998e-5 c -0.0128894,-0.0161157 -0.0320237,-0.0653924 -0.0320237,-0.0824702 0,-0.0249328 0.0130388,-0.010166 0.0240017,0.0271818 0.006298,0.0214563 0.0172921,0.0431388 0.0244307,0.0481833 0.00714,0.005044 0.01298,0.0118113 0.01298,0.0150351 0,0.0108912 -0.018279,0.005959 -0.029388,-0.007931 z" id="path4283" inkscape:connector-curvature="0" />
</svg>