<?xml version="1.0" encoding="utf-8" standalone="no"?>
<svg xmlns:dc="http://purl.org/dc/elements/1.1/" xmlns:cc="http://creativecommons.org/ns#" xmlns:rdf="http://www.w3.org/1999/02/22-rdf-syntax-ns#" xmlns:svg="http://www.w3.org/2000/svg" xmlns="http://www.w3.org/2000/svg" xmlns:sodipodi="http://sodipodi.sourceforge.net/DTD/sodipodi-0.dtd" xmlns:inkscape="http://www.inkscape.org/namespaces/inkscape" height="1" version="1.1" width="1" id="svg2" inkscape:version="0.91 r13725" sodipodi:docname="rhomodial.svg">
  <metadata id="metadata8">
    <rdf:RDF>
      <cc:Work rdf:about="">
        <dc:format>image/svg+xml</dc:format>
        <dc:type rdf:resource="http://purl.org/dc/dcmitype/StillImage" />
        <dc:title></dc:title>
      </cc:Work>
    </rdf:RDF>
  </metadata>
  <defs id="defs6">
    <pattern width="1" height="1" id="rhomodial" patternContentUnits="objectBoundingBox">
      <path style="fill:#000000" d="M 0.06828695,0.72838896 C 0.06339856,0.70857476 0.05206717,0.68162086 0.0431084,0.66849186 0.02571016,0.64299576 0.02765537,0.62592306 0.04602483,0.64290246 c 0.01764609,0.0163115 0.03465343,0.0551367 0.03926402,0.0896319 0.0057867,0.0433009 -0.0060031,0.0404263 -0.01700026,-0.004147 z m 0.1075322,-0.0121223 c -0.0210878,-0.0683787 -0.0323587,-0.070811 -0.0496821,-0.010722 -0.0151147,0.0524274 -0.02931312,0.0668192 -0.0217883,0.022085 0.006961,-0.0413772 0.026451,-0.0853991 0.0394333,-0.089063 0.00642,-0.001812 0.0165247,0.002588 0.0224534,0.009777 0.0114591,0.0138952 0.03504,0.083269 0.0352866,0.10380926 3.1894e-4,0.026527 -0.0115767,0.009921 -0.0257031,-0.0358867 z m 0.0369819,0.0409258 c -0.005194,-0.0123133 0.0137595,-0.0826611 0.0278214,-0.10326858 0.0233481,-0.0342157 0.0460762,-0.008914 0.0680403,0.0757444 0.011181,0.0430973 -0.005236,0.0371427 -0.0185028,-0.006712 -0.006976,-0.0230571 -0.0174894,-0.0477352 -0.0233641,-0.0548403 -0.0091,-0.0110061 -0.0121657,-0.009554 -0.0207156,0.00981 -0.005519,0.0125003 -0.0120791,0.0349086 -0.0145771,0.0497964 -0.004794,0.0285737 -0.0133766,0.0420974 -0.0187022,0.0294701 z m 0.11279188,-0.005029 c -0.006521,-0.0230086 0.023032,-0.10937522 0.0388995,-0.11367861 0.006717,-0.001822 0.018261,0.00471 0.0256541,0.0145151 0.0139349,0.0184809 0.0324184,0.074298 0.0324184,0.097899 0,0.0217645 -0.011579,0.0155227 -0.0158703,-0.008555 -0.002164,-0.012139 -0.0101757,-0.0368967 -0.0178037,-0.0550167 -0.0134015,-0.0318337 -0.0143099,-0.0323617 -0.0269139,-0.0156463 -0.007173,0.009515 -0.0131799,0.022133 -0.0133459,0.0280408 -1.5308e-4,0.005908 -0.004323,0.0239842 -0.009239,0.0401698 -0.007543,0.0248414 -0.009695,0.0267542 -0.013799,0.0122719 z m 0.11241986,-0.0221746 c 0.004777,-0.0431306 0.0285064,-0.0930965 0.0442148,-0.0930965 0.0152493,0 0.0299317,0.0244515 0.0434244,0.0723165 0.0124926,0.0443143 0.0132514,0.0552063 0.003849,0.0552063 -0.003773,0 -0.009859,-0.012139 -0.0135257,-0.0269758 -0.0224881,-0.0910018 -0.0356751,-0.0972334 -0.0569037,-0.0268898 -0.0186584,0.0618279 -0.0265592,0.0691215 -0.0210576,0.0194396 z m 0.10857763,0.025069 c -0.005872,-0.013921 0.0225301,-0.10585911 0.0348397,-0.11278143 0.0199357,-0.0112108 0.036592,0.006708 0.0522386,0.0561979 0.0148386,0.0469349 0.0159225,0.0659408 0.003763,0.0659408 -0.002884,0 -0.008702,-0.0169385 -0.0129348,-0.037641 -0.004234,-0.0207024 -0.0135102,-0.0453525 -0.0206173,-0.0547779 -0.0123726,-0.0164085 -0.0133521,-0.0161635 -0.023033,0.00576 -0.005561,0.0125934 -0.0121558,0.0350781 -0.0146528,0.0499659 -0.00508,0.030279 -0.0134433,0.0419406 -0.0196026,0.0273356 z m 0.11286486,-0.004642 c -0.005114,-0.0195325 0.0210741,-0.10259001 0.0347766,-0.11029578 0.00621,-0.003492 0.0161539,-0.001913 0.0220963,0.003509 0.0136979,0.0124993 0.0406711,0.0809755 0.040816,0.10361984 1.7862e-4,0.031108 -0.0112653,0.0179099 -0.022761,-0.0262035 -0.02029,-0.0778564 -0.0391026,-0.0756881 -0.0571272,0.006585 -0.008748,0.039931 -0.0121657,0.0443055 -0.0178008,0.0227862 z m 0.11348298,-0.022556 c 0.004643,-0.0419248 0.0240044,-0.0845533 0.0405709,-0.0893251 0.0205604,-0.005922 0.0379675,0.0276397 0.0538422,0.10380926 0.008837,0.0424077 -0.009298,0.0221392 -0.0235099,-0.0262743 -0.0203167,-0.0692102 -0.0305211,-0.0703351 -0.0500809,-0.00552 -0.0189135,0.0626724 -0.0265485,0.0690195 -0.0208224,0.0173106 z m 0.10804204,0.0264861 c -0.005861,-0.0138954 0.023732,-0.0989111 0.0389804,-0.11198628 0.0176884,-0.0151678 0.0516736,0.0417322 0.0510225,0.0854249 l -4.7044e-4,0.031726 -0.011953,-0.0393198 c -0.006574,-0.0216259 -0.0167848,-0.0451957 -0.0226895,-0.0523774 -0.009303,-0.0113148 -0.0125552,-0.008685 -0.0243647,0.0197008 -0.007495,0.0180171 -0.01364,0.0402229 -0.0136537,0.0493461 -3.076e-5,0.0203828 -0.0108978,0.0316463 -0.016869,0.0174858 z M 0.59483754,0.61077087 c -0.007103,-0.0178034 0.0159573,-0.1017213 0.0322541,-0.11736947 0.0156473,-0.0150248 0.0175958,-0.0148726 0.0306124,0.00239 0.0226886,0.0300901 0.0469376,0.11167237 0.0331923,0.11167237 -0.003858,0 -0.0138512,-0.0209677 -0.0222059,-0.0465949 -0.0206596,-0.0633731 -0.0341439,-0.0648648 -0.0490754,-0.005429 -0.0132001,0.0525442 -0.0199102,0.0675291 -0.0247778,0.0553312 z m 0.33369291,-0.001923 c -0.005205,-0.0123432 0.0151622,-0.0958755 0.0268405,-0.11007898 0.0163609,-0.0198981 0.0177299,-0.003154 0.003166,0.0386866 -0.00762,0.0218887 -0.0138544,0.0463343 -0.0138544,0.0543236 0,0.0175873 -0.0110202,0.0292339 -0.0161501,0.0170687 z M 0.03831858,0.58144727 c 0.0071803,-0.0438131 0.02168756,-0.0803403 0.03653229,-0.0919826 0.01144265,-0.008974 0.01655233,-0.006064 0.03205049,0.0182491 0.0210516,0.033025 0.038207,0.0998967 0.02553,0.0995182 -0.004258,-1.2578e-4 -0.0144331,-0.022546 -0.0226133,-0.0498197 C 0.09128702,0.49562517 0.07617177,0.49582647 0.06048205,0.55806949 0.0478149,0.60832279 0.03100948,0.62604909 0.03831848,0.58144739 Z m 0.10983766,0.0186588 c 1.533e-5,-0.004046 0.003011,-0.0230441 0.006646,-0.0422171 0.008827,-0.0465604 0.0292299,-0.0777407 0.0465321,-0.07111 0.0151091,0.00579 0.0370112,0.0523838 0.0440491,0.0937083 0.00755,0.0443287 -0.006739,0.0306086 -0.022984,-0.0220713 -0.00842,-0.0273022 -0.0195913,-0.0490472 -0.0251978,-0.0490472 -0.005737,0 -0.0161558,0.0211048 -0.0242113,0.0490472 -0.0123383,0.0427964 -0.0249462,0.0639632 -0.0248333,0.0416902 z m 0.11375714,-0.0126526 c 0,-0.026861 0.0238364,-0.093952 0.0357622,-0.10065861 0.0193731,-0.0108943 0.0474984,0.0349862 0.0611525,0.0997576 0.008179,0.038798 -0.008221,0.0202246 -0.0248445,-0.0281366 -0.021322,-0.0620318 -0.0348642,-0.0621952 -0.049792,-5.9977e-4 -0.0124541,0.051387 -0.0222784,0.0644563 -0.0222784,0.029638 z m 0.10724787,0.008565 c 2.8066e-4,-0.0246658 0.025356,-0.0944416 0.0375337,-0.10442874 0.0218828,-0.0179462 0.0419483,0.0112619 0.0627087,0.091283 0.004662,0.017972 0.004173,0.0245279 -0.00182,0.024359 -0.004511,-1.2578e-4 -0.0148942,-0.022546 -0.0230743,-0.0498197 -0.0185315,-0.0617871 -0.0336462,-0.0615858 -0.0493362,6.5722e-4 -0.0105916,0.0420189 -0.0263136,0.0649578 -0.0260103,0.0379494 z m 0.11364753,-0.005077 c 0,-0.0300532 0.02704,-0.099005 0.0409105,-0.10432039 0.0165392,-0.006338 0.0367887,0.0209498 0.0500425,0.0674349 0.0182459,0.0639944 0.005358,0.0769944 -0.0139913,0.0141131 -0.0227808,-0.0740321 -0.0409378,-0.0740516 -0.0560653,-5.805e-5 -0.008094,0.03959 -0.0208958,0.0535784 -0.0208958,0.0228323 z m 0.22104244,0.00426 c 2.8066e-4,-0.0240241 0.0255624,-0.0937933 0.0375343,-0.1036113 0.0218823,-0.0179462 0.0419478,0.0112619 0.0627085,0.091283 0.004662,0.017972 0.004173,0.0245279 -0.00182,0.024359 -0.004511,-1.2578e-4 -0.0147873,-0.0221985 -0.0228359,-0.0490473 -0.008664,-0.0289003 -0.0189491,-0.048816 -0.02521,-0.048816 -0.009471,0 -0.0229695,0.0330127 -0.0330888,0.0809279 -0.004145,0.0196117 -0.0175078,0.0234041 -0.0172863,0.004905 z m 0.11364739,-0.002254 c 0,-0.0263517 0.0214909,-0.0938072 0.0326005,-0.10232474 0.0185055,-0.0141882 0.0383504,0.005174 0.053404,0.0521057 0.0158001,0.0492593 0.0177181,0.0647347 0.008022,0.0647347 -0.003509,0 -0.0122043,-0.0192945 -0.0193231,-0.0428766 -0.007118,-0.0235821 -0.0164277,-0.0460334 -0.0206878,-0.0498918 -0.0117079,-0.0106037 -0.0262709,0.0121779 -0.0349629,0.0546943 -0.007693,0.0376309 -0.0190527,0.0516763 -0.0190527,0.0235584 z M 0.06457647,0.4506138 C 0.04383685,0.4021223 0.0286732,0.3469661 0.03395373,0.33922747 c 0.0074562,-0.0109266 0.04221408,0.08655 0.03908949,0.10962447 -0.0019145,0.0141477 -0.0030672,0.0143873 -0.0084673,0.001762 z m 0.02025693,6.2269e-4 c -0.0025032,-0.005937 0.0030159,-0.0350142 0.01226158,-0.0646161 0.01356803,-0.0434307 0.01991586,-0.0538217 0.03288133,-0.0538217 0.0193082,0 0.0331762,0.0211584 0.0477514,0.0728553 0.007137,0.0253112 0.008598,0.0418384 0.004262,0.0481922 -0.004338,0.006354 -0.00898,4.9313e-4 -0.0135412,-0.0170896 -0.00382,-0.0147178 -0.007009,-0.0297829 -0.007091,-0.0334781 -6.163e-5,-0.003695 -0.005823,-0.0175366 -0.0127565,-0.0307586 -0.0105723,-0.0201599 -0.0142746,-0.0220124 -0.022937,-0.0114771 -0.005681,0.00691 -0.0138597,0.0287633 -0.0181739,0.0485637 -0.0094056,0.043159 -0.01650813,0.0562102 -0.02265661,0.0416299 z m 0.33492695,5.6218e-4 c -0.004445,-0.0105402 0.007798,-0.0659475 0.0214165,-0.0969289 0.0204428,-0.0465036 0.0551647,-0.0165568 0.0736771,0.0635446 0.012477,0.053991 -0.003302,0.0450661 -0.0211107,-0.0119401 -0.009288,-0.0297313 -0.0210148,-0.0540568 -0.0260587,-0.0540568 -0.009418,0 -0.0317321,0.0584605 -0.0317321,0.0831341 0,0.0170801 -0.0111298,0.0282485 -0.016192,0.0162472 z m 0.19195293,-0.0308541 c -0.0143743,-0.047927 -0.0307954,-0.0736663 -0.0410648,-0.0643655 -0.003552,0.003218 -0.0116251,0.0256691 -0.0179368,0.0498918 -0.0108301,0.041557 -0.0232225,0.0587554 -0.0228993,0.0317793 3.0619e-4,-0.0249316 0.0259025,-0.0943829 0.0384121,-0.10419363 0.0185479,-0.0145468 0.0381571,0.008758 0.0519712,0.0617667 0.015382,0.059025 0.00813,0.0805072 -0.008483,0.0251215 z M 0.82797864,0.406884 c -0.009041,-0.0299567 -0.0207778,-0.0544666 -0.0260832,-0.0544666 -0.01015,0 -0.0312532,0.0556473 -0.0312532,0.0824105 0,0.008626 -0.004844,0.015684 -0.0107662,0.015684 -0.008383,0 -0.009762,-0.005973 -0.006229,-0.026976 0.008339,-0.0495728 0.0267596,-0.0856722 0.0453518,-0.0888773 0.0192262,-0.003315 0.0298282,0.0139554 0.0482183,0.0785431 0.0170679,0.059944 -0.001035,0.053999 -0.0192385,-0.006318 z M 0.94577476,0.419927 C 0.93014585,0.3705075 0.91542438,0.3474443 0.90533842,0.356579 0.90178621,0.359797 0.89371324,0.3822481 0.8874011,0.4064708 0.874837,0.4546818 0.86008025,0.4672989 0.86744145,0.4235359 c 0.009098,-0.0540821 0.0265183,-0.0858327 0.047095,-0.0858327 0.0162254,0 0.0218738,0.007304 0.0353703,0.0457382 0.008833,0.025156 0.0147417,0.0538487 0.0131277,0.0637615 -0.002155,0.0132204 -0.006752,0.005952 -0.0172599,-0.0272758 z M 0.19512284,0.43825 c 6.163e-5,-0.006744 0.005818,-0.0305685 0.0127513,-0.0529435 0.0230292,-0.0743247 0.0515559,-0.0744077 0.0745422,-2.1561e-4 0.00697,0.0224943 0.0127372,0.0464166 0.0128186,0.0531605 3.0615e-4,0.0260668 -0.0106222,0.0101842 -0.0253263,-0.0367855 -0.008445,-0.0269759 -0.019772,-0.0490472 -0.0251711,-0.0490472 -0.008821,0 -0.0224359,0.0340813 -0.0323295,0.0809279 -0.004145,0.0196118 -0.0175083,0.0234042 -0.0172858,0.004905 z M 0.31135743,0.4186311 c 0.005163,-0.0386334 0.0248304,-0.0797404 0.0402802,-0.0841904 0.0192277,-0.005538 0.0407647,0.0320944 0.0537959,0.0939998 0.008337,0.0396044 -0.008555,0.0235997 -0.0219594,-0.0208054 -0.007118,-0.0235821 -0.0164277,-0.0460334 -0.0206878,-0.0498918 -0.0117079,-0.0106037 -0.0262709,0.0121781 -0.0349629,0.0546942 -0.00947,0.0463187 -0.0224825,0.0512133 -0.0164654,0.006193 z m 0.33224964,0.0147141 c 6.162e-5,-0.009442 0.005958,-0.0359271 0.0130604,-0.0588567 0.0207391,-0.0669569 0.0529271,-0.0546214 0.0769036,0.0294723 0.0121812,0.0427241 0.0124578,0.0465509 0.003364,0.0465509 -0.003811,0 -0.0125999,-0.0193779 -0.0195273,-0.0430618 C 0.7104803,0.3837658 0.70141806,0.3613146 0.69727036,0.3575581 0.68575388,0.3471276 0.67115044,0.3701852 0.66251213,0.4124376 0.65451556,0.4515478 0.64334465,0.4639021 0.64360625,0.4333452 Z M 0.0984727,0.26000013 c -0.01486914,-0.057057 -0.02578306,-0.0703076 -0.04033943,-0.0489761 -0.0060933,0.008929 -0.01282611,0.0290377 -0.01496143,0.0446852 -0.0046802,0.0342952 -0.01554092,0.047221 -0.01554092,0.0184962 0,-0.0619235 0.03505469,-0.11511414 0.05770783,-0.0875632 0.01267464,0.015415 0.0360054,0.0812649 0.0360054,0.10162276 0,0.0291242 -0.0116759,0.0146952 -0.02287115,-0.0282649 z m 0.03842385,0.007999 c 0.007155,-0.0646127 0.0348298,-0.10607243 0.0570774,-0.0855071 0.0113085,0.0104539 0.0406626,0.0882628 0.0409759,0.10861596 4.2103e-4,0.027241 -0.0133911,0.00955 -0.0265334,-0.0339899 -0.0229351,-0.0759804 -0.038739,-0.0752513 -0.0544064,0.00251 -0.0105573,0.0523976 -0.0226434,0.0583096 -0.0171132,0.008371 z m 0.1049355,0.0257448 c 0,-0.006193 0.006352,-0.0329021 0.0141175,-0.0593526 0.0140346,-0.0478094 0.028496,-0.064079 0.0474722,-0.0534078 0.0148033,0.008325 0.040114,0.0800861 0.0371392,0.10529849 -0.002173,0.0184328 -0.004809,0.0148252 -0.0162785,-0.022289 -0.0251231,-0.0813018 -0.0404909,-0.082017 -0.0590865,-0.00275 -0.008206,0.0349809 -0.0233641,0.0560663 -0.0233641,0.0325006 z m 0.11394165,-0.007541 c 2.4241e-4,-0.0284598 0.0252844,-0.10040695 0.0372972,-0.1071623 0.006177,-0.003474 0.0160942,-0.00188 0.0220366,0.003543 0.0136983,0.0124993 0.0406711,0.0809755 0.0408164,0.10361984 1.7857e-4,0.0311082 -0.0112653,0.0179098 -0.022761,-0.0262033 -0.0205754,-0.0789525 -0.0415954,-0.0773057 -0.0583349,0.00457 -0.008118,0.0397063 -0.0193175,0.052422 -0.0190537,0.0216331 z m 0.11182073,0.0112198 c -0.006306,-0.00924 0.0153105,-0.0892344 0.0290275,-0.10742678 0.0237997,-0.0315632 0.0518575,0.005262 0.0695657,0.0913022 0.008705,0.0422956 -0.009345,0.0221716 -0.0235668,-0.0262742 -0.007807,-0.02659 -0.0184261,-0.0507265 -0.0236017,-0.0536366 -0.0106847,-0.006009 -0.0263734,0.0248871 -0.0331517,0.0652893 -0.004706,0.0280464 -0.0118787,0.0401161 -0.0182732,0.030746 z m 0.10892743,-0.002115 c 0,-0.004434 0.00488,-0.0290483 0.0108428,-0.0546983 0.013607,-0.0585213 0.0354136,-0.0773283 0.0569915,-0.0491525 0.0232306,0.0303339 0.0424822,0.11191273 0.0264101,0.11191273 -0.003392,0 -0.008116,-0.0130353 -0.0105036,-0.0289677 -0.002385,-0.0159322 -0.0104651,-0.0403768 -0.01795,-0.0543212 -0.0168163,-0.0313294 -0.0267635,-0.022078 -0.0429202,0.039919 -0.009946,0.0381641 -0.0228711,0.058118 -0.0228711,0.0353079 z m 0.1137948,-0.009478 c 0,-0.0294163 0.0293611,-0.10487163 0.0421576,-0.10834019 0.006619,-0.001794 0.0168863,0.00262 0.0228156,0.00981 0.0114591,0.013895 0.03504,0.083269 0.0352866,0.10380924 3.1895e-4,0.0268139 -0.0120396,0.009893 -0.0227243,-0.0311081 -0.0205754,-0.0789525 -0.0415959,-0.0773057 -0.058335,0.00457 -0.00818,0.0400122 -0.0192009,0.0522142 -0.0192009,0.0212593 z M 0.801855,0.29614723 c -0.005193,-0.0123133 0.0137595,-0.0826611 0.0278219,-0.10326854 0.0237362,-0.0347844 0.0526899,0.00123 0.0710865,0.08842 0.008239,0.03905 -0.008452,0.0239031 -0.0216193,-0.0196189 -0.006938,-0.0229296 -0.0174194,-0.0475034 -0.0232935,-0.0546085 -0.0091,-0.0110061 -0.0121657,-0.009554 -0.0207161,0.009809 -0.005519,0.0125003 -0.0120791,0.0349086 -0.0145766,0.0497964 -0.004795,0.0285739 -0.013377,0.0420977 -0.0187022,0.02947 z m 0.11283496,-0.0246579 c 0.002498,-0.0175344 0.009668,-0.0451235 0.0159319,-0.0613091 0.0126394,-0.0326553 0.0408343,-0.0462731 0.0408343,-0.0197223 0,0.008787 -0.002611,0.0136118 -0.0058,0.010723 -0.008575,-0.007767 -0.0248624,0.023531 -0.0340362,0.0654036 -0.0100034,0.0456605 -0.0232851,0.049508 -0.0169306,0.004905 z" id="path4372" inkscape:connector-curvature="0" />
    </pattern>
  </defs>
  <sodipodi:namedview pagecolor="#ffffff" bordercolor="#666666" borderopacity="1" objecttolerance="10" gridtolerance="10" guidetolerance="10" inkscape:pageopacity="0" inkscape:pageshadow="2" inkscape:window-width="1600" inkscape:window-height="838" id="namedview4" showgrid="false" inkscape:zoom="256" inkscape:cx="0.5" inkscape:cy="0.5" inkscape:window-x="-8" inkscape:window-y="-8" inkscape:window-maximized="1" inkscape:current-layer="svg2" />
  <path style="fill:#000000" d="M 0.06828695,0.72838896 C 0.06339856,0.70857476 0.05206717,0.68162086 0.0431084,0.66849186 0.02571016,0.64299576 0.02765537,0.62592306 0.04602483,0.64290246 c 0.01764609,0.0163115 0.03465343,0.0551367 0.03926402,0.0896319 0.0057867,0.0433009 -0.0060031,0.0404263 -0.01700026,-0.004147 z m 0.1075322,-0.0121223 c -0.0210878,-0.0683787 -0.0323587,-0.070811 -0.0496821,-0.010722 -0.0151147,0.0524274 -0.02931312,0.0668192 -0.0217883,0.022085 0.006961,-0.0413772 0.026451,-0.0853991 0.0394333,-0.089063 0.00642,-0.001812 0.0165247,0.002588 0.0224534,0.009777 0.0114591,0.0138952 0.03504,0.083269 0.0352866,0.10380926 3.1894e-4,0.026527 -0.0115767,0.009921 -0.0257031,-0.0358867 z m 0.0369819,0.0409258 c -0.005194,-0.0123133 0.0137595,-0.0826611 0.0278214,-0.10326858 0.0233481,-0.0342157 0.0460762,-0.008914 0.0680403,0.0757444 0.011181,0.0430973 -0.005236,0.0371427 -0.0185028,-0.006712 -0.006976,-0.0230571 -0.0174894,-0.0477352 -0.0233641,-0.0548403 -0.0091,-0.0110061 -0.0121657,-0.009554 -0.0207156,0.00981 -0.005519,0.0125003 -0.0120791,0.0349086 -0.0145771,0.0497964 -0.004794,0.0285737 -0.0133766,0.0420974 -0.0187022,0.0294701 z m 0.11279188,-0.005029 c -0.006521,-0.0230086 0.023032,-0.10937522 0.0388995,-0.11367861 0.006717,-0.001822 0.018261,0.00471 0.0256541,0.0145151 0.0139349,0.0184809 0.0324184,0.074298 0.0324184,0.097899 0,0.0217645 -0.011579,0.0155227 -0.0158703,-0.008555 -0.002164,-0.012139 -0.0101757,-0.0368967 -0.0178037,-0.0550167 -0.0134015,-0.0318337 -0.0143099,-0.0323617 -0.0269139,-0.0156463 -0.007173,0.009515 -0.0131799,0.022133 -0.0133459,0.0280408 -1.5308e-4,0.005908 -0.004323,0.0239842 -0.009239,0.0401698 -0.007543,0.0248414 -0.009695,0.0267542 -0.013799,0.0122719 z m 0.11241986,-0.0221746 c 0.004777,-0.0431306 0.0285064,-0.0930965 0.0442148,-0.0930965 0.0152493,0 0.0299317,0.0244515 0.0434244,0.0723165 0.0124926,0.0443143 0.0132514,0.0552063 0.003849,0.0552063 -0.003773,0 -0.009859,-0.012139 -0.0135257,-0.0269758 -0.0224881,-0.0910018 -0.0356751,-0.0972334 -0.0569037,-0.0268898 -0.0186584,0.0618279 -0.0265592,0.0691215 -0.0210576,0.0194396 z m 0.10857763,0.025069 c -0.005872,-0.013921 0.0225301,-0.10585911 0.0348397,-0.11278143 0.0199357,-0.0112108 0.036592,0.006708 0.0522386,0.0561979 0.0148386,0.0469349 0.0159225,0.0659408 0.003763,0.0659408 -0.002884,0 -0.008702,-0.0169385 -0.0129348,-0.037641 -0.004234,-0.0207024 -0.0135102,-0.0453525 -0.0206173,-0.0547779 -0.0123726,-0.0164085 -0.0133521,-0.0161635 -0.023033,0.00576 -0.005561,0.0125934 -0.0121558,0.0350781 -0.0146528,0.0499659 -0.00508,0.030279 -0.0134433,0.0419406 -0.0196026,0.0273356 z m 0.11286486,-0.004642 c -0.005114,-0.0195325 0.0210741,-0.10259001 0.0347766,-0.11029578 0.00621,-0.003492 0.0161539,-0.001913 0.0220963,0.003509 0.0136979,0.0124993 0.0406711,0.0809755 0.040816,0.10361984 1.7862e-4,0.031108 -0.0112653,0.0179099 -0.022761,-0.0262035 -0.02029,-0.0778564 -0.0391026,-0.0756881 -0.0571272,0.006585 -0.008748,0.039931 -0.0121657,0.0443055 -0.0178008,0.0227862 z m 0.11348298,-0.022556 c 0.004643,-0.0419248 0.0240044,-0.0845533 0.0405709,-0.0893251 0.0205604,-0.005922 0.0379675,0.0276397 0.0538422,0.10380926 0.008837,0.0424077 -0.009298,0.0221392 -0.0235099,-0.0262743 -0.0203167,-0.0692102 -0.0305211,-0.0703351 -0.0500809,-0.00552 -0.0189135,0.0626724 -0.0265485,0.0690195 -0.0208224,0.0173106 z m 0.10804204,0.0264861 c -0.005861,-0.0138954 0.023732,-0.0989111 0.0389804,-0.11198628 0.0176884,-0.0151678 0.0516736,0.0417322 0.0510225,0.0854249 l -4.7044e-4,0.031726 -0.011953,-0.0393198 c -0.006574,-0.0216259 -0.0167848,-0.0451957 -0.0226895,-0.0523774 -0.009303,-0.0113148 -0.0125552,-0.008685 -0.0243647,0.0197008 -0.007495,0.0180171 -0.01364,0.0402229 -0.0136537,0.0493461 -3.076e-5,0.0203828 -0.0108978,0.0316463 -0.016869,0.0174858 z M 0.59483754,0.61077087 c -0.007103,-0.0178034 0.0159573,-0.1017213 0.0322541,-0.11736947 0.0156473,-0.0150248 0.0175958,-0.0148726 0.0306124,0.00239 0.0226886,0.0300901 0.0469376,0.11167237 0.0331923,0.11167237 -0.003858,0 -0.0138512,-0.0209677 -0.0222059,-0.0465949 -0.0206596,-0.0633731 -0.0341439,-0.0648648 -0.0490754,-0.005429 -0.0132001,0.0525442 -0.0199102,0.0675291 -0.0247778,0.0553312 z m 0.33369291,-0.001923 c -0.005205,-0.0123432 0.0151622,-0.0958755 0.0268405,-0.11007898 0.0163609,-0.0198981 0.0177299,-0.003154 0.003166,0.0386866 -0.00762,0.0218887 -0.0138544,0.0463343 -0.0138544,0.0543236 0,0.0175873 -0.0110202,0.0292339 -0.0161501,0.0170687 z M 0.03831858,0.58144727 c 0.0071803,-0.0438131 0.02168756,-0.0803403 0.03653229,-0.0919826 0.01144265,-0.008974 0.01655233,-0.006064 0.03205049,0.0182491 0.0210516,0.033025 0.038207,0.0998967 0.02553,0.0995182 -0.004258,-1.2578e-4 -0.0144331,-0.022546 -0.0226133,-0.0498197 C 0.09128702,0.49562517 0.07617177,0.49582647 0.06048205,0.55806949 0.0478149,0.60832279 0.03100948,0.62604909 0.03831848,0.58144739 Z m 0.10983766,0.0186588 c 1.533e-5,-0.004046 0.003011,-0.0230441 0.006646,-0.0422171 0.008827,-0.0465604 0.0292299,-0.0777407 0.0465321,-0.07111 0.0151091,0.00579 0.0370112,0.0523838 0.0440491,0.0937083 0.00755,0.0443287 -0.006739,0.0306086 -0.022984,-0.0220713 -0.00842,-0.0273022 -0.0195913,-0.0490472 -0.0251978,-0.0490472 -0.005737,0 -0.0161558,0.0211048 -0.0242113,0.0490472 -0.0123383,0.0427964 -0.0249462,0.0639632 -0.0248333,0.0416902 z m 0.11375714,-0.0126526 c 0,-0.026861 0.0238364,-0.093952 0.0357622,-0.10065861 0.0193731,-0.0108943 0.0474984,0.0349862 0.0611525,0.0997576 0.008179,0.038798 -0.008221,0.0202246 -0.0248445,-0.0281366 -0.021322,-0.0620318 -0.0348642,-0.0621952 -0.049792,-5.9977e-4 -0.0124541,0.051387 -0.0222784,0.0644563 -0.0222784,0.029638 z m 0.10724787,0.008565 c 2.8066e-4,-0.0246658 0.025356,-0.0944416 0.0375337,-0.10442874 0.0218828,-0.0179462 0.0419483,0.0112619 0.0627087,0.091283 0.004662,0.017972 0.004173,0.0245279 -0.00182,0.024359 -0.004511,-1.2578e-4 -0.0148942,-0.022546 -0.0230743,-0.0498197 -0.0185315,-0.0617871 -0.0336462,-0.0615858 -0.0493362,6.5722e-4 -0.0105916,0.0420189 -0.0263136,0.0649578 -0.0260103,0.0379494 z m 0.11364753,-0.005077 c 0,-0.0300532 0.02704,-0.099005 0.0409105,-0.10432039 0.0165392,-0.006338 0.0367887,0.0209498 0.0500425,0.0674349 0.0182459,0.0639944 0.005358,0.0769944 -0.0139913,0.0141131 -0.0227808,-0.0740321 -0.0409378,-0.0740516 -0.0560653,-5.805e-5 -0.008094,0.03959 -0.0208958,0.0535784 -0.0208958,0.0228323 z m 0.22104244,0.00426 c 2.8066e-4,-0.0240241 0.0255624,-0.0937933 0.0375343,-0.1036113 0.0218823,-0.0179462 0.0419478,0.0112619 0.0627085,0.091283 0.004662,0.017972 0.004173,0.0245279 -0.00182,0.024359 -0.004511,-1.2578e-4 -0.0147873,-0.0221985 -0.0228359,-0.0490473 -0.008664,-0.0289003 -0.0189491,-0.048816 -0.02521,-0.048816 -0.009471,0 -0.0229695,0.0330127 -0.0330888,0.0809279 -0.004145,0.0196117 -0.0175078,0.0234041 -0.0172863,0.004905 z m 0.11364739,-0.002254 c 0,-0.0263517 0.0214909,-0.0938072 0.0326005,-0.10232474 0.0185055,-0.0141882 0.0383504,0.005174 0.053404,0.0521057 0.0158001,0.0492593 0.0177181,0.0647347 0.008022,0.0647347 -0.003509,0 -0.0122043,-0.0192945 -0.0193231,-0.0428766 -0.007118,-0.0235821 -0.0164277,-0.0460334 -0.0206878,-0.0498918 -0.0117079,-0.0106037 -0.0262709,0.0121779 -0.0349629,0.0546943 -0.007693,0.0376309 -0.0190527,0.0516763 -0.0190527,0.0235584 z M 0.06457647,0.4506138 C 0.04383685,0.4021223 0.0286732,0.3469661 0.03395373,0.33922747 c 0.0074562,-0.0109266 0.04221408,0.08655 0.03908949,0.10962447 -0.0019145,0.0141477 -0.0030672,0.0143873 -0.0084673,0.001762 z m 0.02025693,6.2269e-4 c -0.0025032,-0.005937 0.0030159,-0.0350142 0.01226158,-0.0646161 0.01356803,-0.0434307 0.01991586,-0.0538217 0.03288133,-0.0538217 0.0193082,0 0.0331762,0.0211584 0.0477514,0.0728553 0.007137,0.0253112 0.008598,0.0418384 0.004262,0.0481922 -0.004338,0.006354 -0.00898,4.9313e-4 -0.0135412,-0.0170896 -0.00382,-0.0147178 -0.007009,-0.0297829 -0.007091,-0.0334781 -6.163e-5,-0.003695 -0.005823,-0.0175366 -0.0127565,-0.0307586 -0.0105723,-0.0201599 -0.0142746,-0.0220124 -0.022937,-0.0114771 -0.005681,0.00691 -0.0138597,0.0287633 -0.0181739,0.0485637 -0.0094056,0.043159 -0.01650813,0.0562102 -0.02265661,0.0416299 z m 0.33492695,5.6218e-4 c -0.004445,-0.0105402 0.007798,-0.0659475 0.0214165,-0.0969289 0.0204428,-0.0465036 0.0551647,-0.0165568 0.0736771,0.0635446 0.012477,0.053991 -0.003302,0.0450661 -0.0211107,-0.0119401 -0.009288,-0.0297313 -0.0210148,-0.0540568 -0.0260587,-0.0540568 -0.009418,0 -0.0317321,0.0584605 -0.0317321,0.0831341 0,0.0170801 -0.0111298,0.0282485 -0.016192,0.0162472 z m 0.19195293,-0.0308541 c -0.0143743,-0.047927 -0.0307954,-0.0736663 -0.0410648,-0.0643655 -0.003552,0.003218 -0.0116251,0.0256691 -0.0179368,0.0498918 -0.0108301,0.041557 -0.0232225,0.0587554 -0.0228993,0.0317793 3.0619e-4,-0.0249316 0.0259025,-0.0943829 0.0384121,-0.10419363 0.0185479,-0.0145468 0.0381571,0.008758 0.0519712,0.0617667 0.015382,0.059025 0.00813,0.0805072 -0.008483,0.0251215 z M 0.82797864,0.406884 c -0.009041,-0.0299567 -0.0207778,-0.0544666 -0.0260832,-0.0544666 -0.01015,0 -0.0312532,0.0556473 -0.0312532,0.0824105 0,0.008626 -0.004844,0.015684 -0.0107662,0.015684 -0.008383,0 -0.009762,-0.005973 -0.006229,-0.026976 0.008339,-0.0495728 0.0267596,-0.0856722 0.0453518,-0.0888773 0.0192262,-0.003315 0.0298282,0.0139554 0.0482183,0.0785431 0.0170679,0.059944 -0.001035,0.053999 -0.0192385,-0.006318 z M 0.94577476,0.419927 C 0.93014585,0.3705075 0.91542438,0.3474443 0.90533842,0.356579 0.90178621,0.359797 0.89371324,0.3822481 0.8874011,0.4064708 0.874837,0.4546818 0.86008025,0.4672989 0.86744145,0.4235359 c 0.009098,-0.0540821 0.0265183,-0.0858327 0.047095,-0.0858327 0.0162254,0 0.0218738,0.007304 0.0353703,0.0457382 0.008833,0.025156 0.0147417,0.0538487 0.0131277,0.0637615 -0.002155,0.0132204 -0.006752,0.005952 -0.0172599,-0.0272758 z M 0.19512284,0.43825 c 6.163e-5,-0.006744 0.005818,-0.0305685 0.0127513,-0.0529435 0.0230292,-0.0743247 0.0515559,-0.0744077 0.0745422,-2.1561e-4 0.00697,0.0224943 0.0127372,0.0464166 0.0128186,0.0531605 3.0615e-4,0.0260668 -0.0106222,0.0101842 -0.0253263,-0.0367855 -0.008445,-0.0269759 -0.019772,-0.0490472 -0.0251711,-0.0490472 -0.008821,0 -0.0224359,0.0340813 -0.0323295,0.0809279 -0.004145,0.0196118 -0.0175083,0.0234042 -0.0172858,0.004905 z M 0.31135743,0.4186311 c 0.005163,-0.0386334 0.0248304,-0.0797404 0.0402802,-0.0841904 0.0192277,-0.005538 0.0407647,0.0320944 0.0537959,0.0939998 0.008337,0.0396044 -0.008555,0.0235997 -0.0219594,-0.0208054 -0.007118,-0.0235821 -0.0164277,-0.0460334 -0.0206878,-0.0498918 -0.0117079,-0.0106037 -0.0262709,0.0121781 -0.0349629,0.0546942 -0.00947,0.0463187 -0.0224825,0.0512133 -0.0164654,0.006193 z m 0.33224964,0.0147141 c 6.162e-5,-0.009442 0.005958,-0.0359271 0.0130604,-0.0588567 0.0207391,-0.0669569 0.0529271,-0.0546214 0.0769036,0.0294723 0.0121812,0.0427241 0.0124578,0.0465509 0.003364,0.0465509 -0.003811,0 -0.0125999,-0.0193779 -0.0195273,-0.0430618 C 0.7104803,0.3837658 0.70141806,0.3613146 0.69727036,0.3575581 0.68575388,0.3471276 0.67115044,0.3701852 0.66251213,0.4124376 0.65451556,0.4515478 0.64334465,0.4639021 0.64360625,0.4333452 Z M 0.0984727,0.26000013 c -0.01486914,-0.057057 -0.02578306,-0.0703076 -0.04033943,-0.0489761 -0.0060933,0.008929 -0.01282611,0.0290377 -0.01496143,0.0446852 -0.0046802,0.0342952 -0.01554092,0.047221 -0.01554092,0.0184962 0,-0.0619235 0.03505469,-0.11511414 0.05770783,-0.0875632 0.01267464,0.015415 0.0360054,0.0812649 0.0360054,0.10162276 0,0.0291242 -0.0116759,0.0146952 -0.02287115,-0.0282649 z m 0.03842385,0.007999 c 0.007155,-0.0646127 0.0348298,-0.10607243 0.0570774,-0.0855071 0.0113085,0.0104539 0.0406626,0.0882628 0.0409759,0.10861596 4.2103e-4,0.027241 -0.0133911,0.00955 -0.0265334,-0.0339899 -0.0229351,-0.0759804 -0.038739,-0.0752513 -0.0544064,0.00251 -0.0105573,0.0523976 -0.0226434,0.0583096 -0.0171132,0.008371 z m 0.1049355,0.0257448 c 0,-0.006193 0.006352,-0.0329021 0.0141175,-0.0593526 0.0140346,-0.0478094 0.028496,-0.064079 0.0474722,-0.0534078 0.0148033,0.008325 0.040114,0.0800861 0.0371392,0.10529849 -0.002173,0.0184328 -0.004809,0.0148252 -0.0162785,-0.022289 -0.0251231,-0.0813018 -0.0404909,-0.082017 -0.0590865,-0.00275 -0.008206,0.0349809 -0.0233641,0.0560663 -0.0233641,0.0325006 z m 0.11394165,-0.007541 c 2.4241e-4,-0.0284598 0.0252844,-0.10040695 0.0372972,-0.1071623 0.006177,-0.003474 0.0160942,-0.00188 0.0220366,0.003543 0.0136983,0.0124993 0.0406711,0.0809755 0.0408164,0.10361984 1.7857e-4,0.0311082 -0.0112653,0.0179098 -0.022761,-0.0262033 -0.0205754,-0.0789525 -0.0415954,-0.0773057 -0.0583349,0.00457 -0.008118,0.0397063 -0.0193175,0.052422 -0.0190537,0.0216331 z m 0.11182073,0.0112198 c -0.006306,-0.00924 0.0153105,-0.0892344 0.0290275,-0.10742678 0.0237997,-0.0315632 0.0518575,0.005262 0.0695657,0.0913022 0.008705,0.0422956 -0.009345,0.0221716 -0.0235668,-0.0262742 -0.007807,-0.02659 -0.0184261,-0.0507265 -0.0236017,-0.0536366 -0.0106847,-0.006009 -0.0263734,0.0248871 -0.0331517,0.0652893 -0.004706,0.0280464 -0.0118787,0.0401161 -0.0182732,0.030746 z m 0.10892743,-0.002115 c 0,-0.004434 0.00488,-0.0290483 0.0108428,-0.0546983 0.013607,-0.0585213 0.0354136,-0.0773283 0.0569915,-0.0491525 0.0232306,0.0303339 0.0424822,0.11191273 0.0264101,0.11191273 -0.003392,0 -0.008116,-0.0130353 -0.0105036,-0.0289677 -0.002385,-0.0159322 -0.0104651,-0.0403768 -0.01795,-0.0543212 -0.0168163,-0.0313294 -0.0267635,-0.022078 -0.0429202,0.039919 -0.009946,0.0381641 -0.0228711,0.058118 -0.0228711,0.0353079 z m 0.1137948,-0.009478 c 0,-0.0294163 0.0293611,-0.10487163 0.0421576,-0.10834019 0.006619,-0.001794 0.0168863,0.00262 0.0228156,0.00981 0.0114591,0.013895 0.03504,0.083269 0.0352866,0.10380924 3.1895e-4,0.0268139 -0.0120396,0.009893 -0.0227243,-0.0311081 -0.0205754,-0.0789525 -0.0415959,-0.0773057 -0.058335,0.00457 -0.00818,0.0400122 -0.0192009,0.0522142 -0.0192009,0.0212593 z M 0.801855,0.29614723 c -0.005193,-0.0123133 0.0137595,-0.0826611 0.0278219,-0.10326854 0.0237362,-0.0347844 0.0526899,0.00123 0.0710865,0.08842 0.008239,0.03905 -0.008452,0.0239031 -0.0216193,-0.0196189 -0.006938,-0.0229296 -0.0174194,-0.0475034 -0.0232935,-0.0546085 -0.0091,-0.0110061 -0.0121657,-0.009554 -0.0207161,0.009809 -0.005519,0.0125003 -0.0120791,0.0349086 -0.0145766,0.0497964 -0.004795,0.0285739 -0.013377,0.0420977 -0.0187022,0.02947 z m 0.11283496,-0.0246579 c 0.002498,-0.0175344 0.009668,-0.0451235 0.0159319,-0.0613091 0.0126394,-0.0326553 0.0408343,-0.0462731 0.0408343,-0.0197223 0,0.008787 -0.002611,0.0136118 -0.0058,0.010723 -0.008575,-0.007767 -0.0248624,0.023531 -0.0340362,0.0654036 -0.0100034,0.0456605 -0.0232851,0.049508 -0.0169306,0.004905 z" id="path4372" inkscape:connector-curvature="0" />
</svg>