<?xml version="1.0" encoding="utf-8" standalone="no"?>
<svg xmlns:dc="http://purl.org/dc/elements/1.1/" xmlns:cc="http://creativecommons.org/ns#" xmlns:rdf="http://www.w3.org/1999/02/22-rdf-syntax-ns#" xmlns:svg="http://www.w3.org/2000/svg" xmlns="http://www.w3.org/2000/svg" xmlns:sodipodi="http://sodipodi.sourceforge.net/DTD/sodipodi-0.dtd" xmlns:inkscape="http://www.inkscape.org/namespaces/inkscape" height="1" version="1.1" width="1" id="svg2" inkscape:version="0.91 r13725" sodipodi:docname="c.svg">
  <metadata id="metadata8">
    <rdf:RDF>
      <cc:Work rdf:about="">
        <dc:format>image/svg+xml</dc:format>
        <dc:type rdf:resource="http://purl.org/dc/dcmitype/StillImage" />
        <dc:title></dc:title>
      </cc:Work>
    </rdf:RDF>
  </metadata>
  <defs id="defs6">
    <pattern width="1" height="1" id="rippleMarkC" patternContentUnits="objectBoundingBox">
      <path style="fill:#000000" d="M 0.05855549,0.73061914 C 0.05733932,0.71761214 0.05665135,0.66302111 0.05702583,0.60930543 0.05818102,0.44164347 0.058242,0.44257747 0.04675825,0.43191524 L 0.03661556,0.42249924 0.04675825,0.421579 C 0.056617,0.42068408 0.05690137,0.41924 0.05690137,0.370226 l 0,-0.0504312 0.03227296,-0.0101826 c 0.0177498,-0.0056 0.04198518,-0.0184312 0.0538556,-0.0285129 0.0208435,-0.0177023 0.0222974,-0.0178365 0.0424161,-0.003923 0.0114583,0.007923 0.0241521,0.0166258 0.028209,0.019339 0.014637,0.009788 0.0559239,0.0171494 0.0848316,0.015125 0.0175265,-0.001227 0.025763,5.7935e-4 0.0202858,0.004453 -0.0124569,0.008807 0.0558697,0.0216419 0.0778613,0.0146253 0.009931,-0.003169 0.0142111,-0.002211 0.011073,0.002475 -0.003437,0.005132 0.001106,0.008655 0.0138332,0.0107249 0.0104442,0.001699 0.0196533,-8.0514e-4 0.0205132,-0.005582 8.9066e-4,-0.00495 0.003095,-0.003515 0.005137,0.003348 0.002062,0.006927 0.009989,0.0120131 0.0187225,0.0120131 0.008636,0 0.0151708,0.00415 0.0152033,0.00965 2.932e-5,0.005308 0.001668,0.0038 0.003633,-0.003348 0.003181,-0.0115534 0.003596,-0.0115534 0.003751,0 1.2236e-4,0.0105426 0.001106,0.0101336 0.005073,-0.002168 0.002693,-0.00834 0.008867,-0.0147118 0.0137131,-0.0141588 0.007556,8.603e-4 0.00776,0.001602 0.001436,0.005174 -0.004056,0.002292 -0.009037,0.008195 -0.011065,0.013116 -0.003633,0.008805 0.006029,0.007214 0.0442602,-0.007289 0.0103535,-0.003928 0.0136538,-0.00285 0.011065,0.003617 -0.00203,0.005068 -0.009497,0.0109516 -0.0165973,0.0130747 -0.0071,0.002122 0.0012,0.002322 0.0184414,4.3878e-4 0.017243,-0.001883 0.0371602,-0.006859 0.0442602,-0.0110589 l 0.0129097,-0.007636 -0.0129097,-0.001789 c -0.0134634,-0.001866 -0.0297394,-0.00552 -0.0516367,-0.011585 -0.0071,-0.001968 -0.0166433,-2.5786e-4 -0.021208,0.0038 -0.008576,0.00762 -0.0120636,-0.004348 -0.00369,-0.0126551 0.002535,-0.002513 -0.009046,-0.004277 -0.0257369,-0.003915 -0.0166905,3.6163e-4 -0.0294558,0.004042 -0.0283668,0.008183 0.001094,0.00414 -0.001851,0.007467 -0.006537,0.007394 -0.006593,-1.0402e-4 -0.007311,-0.001926 -0.003177,-0.008069 0.004126,-0.006132 0.002864,-0.009245 -0.005533,-0.0136894 -0.00598,-0.003165 -0.0237578,-0.0136212 -0.0395058,-0.023239 -0.0157488,-0.009618 -0.0319312,-0.0154611 -0.0359613,-0.0129848 -0.009565,0.005877 -0.009558,-0.008376 7.33e-6,-0.0155084 0.004044,-0.003016 0.0218426,0.005115 0.0396498,0.0181079 0.0280483,0.0204657 0.0388863,0.0236837 0.0821062,0.0243789 0.0343468,5.538e-4 0.0523663,-0.002654 0.058091,-0.0103313 0.004564,-0.006123 0.008299,-0.007483 0.008299,-0.003024 0,0.00446 -0.006224,0.0119931 -0.0138319,0.01674 -0.0208744,0.0130257 -0.00321,0.0117115 0.0337167,-0.002509 0.034933,-0.0134508 0.0401279,-0.0180486 0.0303504,-0.0268633 -0.005827,-0.005253 -0.0248924,0.003446 -0.0410145,0.01872 -0.006565,0.006218 -0.00682,0.005378 -0.002315,-0.007633 0.002783,-0.008041 0.008289,-0.0146202 0.0122308,-0.0146202 0.003942,0 0.010338,-0.003987 0.014214,-0.00886 0.005263,-0.006618 0.0143014,-0.003476 0.035719,0.0124178 0.0572259,0.0424676 0.10368869,0.0417468 0.17701002,-0.002747 0.0131204,-0.007962 0.0184341,-0.006778 0.0339095,0.007553 0.010093,0.009346 0.0329669,0.0215039 0.0508312,0.0270167 0.0421564,0.0130091 0.0423492,0.0131765 0.0415588,0.0360747 -0.001769,0.0511236 1.2222e-4,0.0652906 0.009364,0.0707464 0.005067,0.00299 0.009221,0.008721 0.009221,0.0127356 0,0.004013 -0.004148,0.005435 -0.009221,0.003157 -0.0110083,-0.004944 -0.0102336,-0.0178305 -0.009658,0.16061738 3.2603e-4,0.10593075 -6.9776e-4,0.14204881 -0.004166,0.14498426 -0.002542,0.002151 -0.2000135,0.004956 -0.43882948,0.006235 l -0.43421059,0.002323 -0.002209,-0.0236488 z m 0.87247571,-0.0167306 0,-0.0237787 -0.0470261,2.0431e-4 C 0.8581408,0.69042666 0.8307005,0.68829515 0.8230263,0.68558315 0.7918894,0.67456855 0.7509342,0.65259865 0.7308474,0.63613415 0.7186496,0.62613515 0.7052528,0.62074925 0.6994967,0.62352845 c -0.005529,0.002671 -0.0233291,0.006892 -0.0395579,0.009383 -0.0625477,0.009603 -0.0854109,0.01349 -0.10142888,0.0172431 -0.009129,0.002139 -0.0348541,0.00634 -0.0571676,0.009334 -0.0223137,0.002995 -0.0416832,0.007061 -0.0430438,0.009037 -0.001359,0.001976 -0.0353858,0.003817 -0.0756118,0.004098 -0.0728432,5.0268e-4 -0.11626198,-0.0109733 -0.16719112,-0.0441916 -0.0285093,-0.0185952 -0.009088,-0.0194148 0.0229959,-9.709e-4 0.03475,0.0199771 0.0809482,0.0339221 0.058147,0.0175515 -0.0667902,-0.0479524 -0.0995848,-0.0620496 -0.0995848,-0.0428079 0,0.003578 -0.007884,0.006115 -0.0175196,0.005633 -0.009636,-4.8138e-4 -0.0357767,0.002565 -0.0580912,0.006767 -0.02231415,0.004204 -0.0443057,0.007908 -0.04887031,0.008232 -0.0077368,5.4954e-4 -0.0082985,0.004437 -0.0082985,0.057346 l 4.6e-7,0.0567575 0.43337839,3.6602e-4 0.43337795,3.6602e-4 0,-0.0237787 z M 0.8334889,0.67270194 c -0.001147,-0.004351 -0.009127,-0.0106832 -0.0177373,-0.0140707 -0.008611,-0.003386 -0.0264443,-0.0145414 -0.03963,-0.0247862 -0.015432,-0.0119897 -0.0285739,-0.016881 -0.0368834,-0.0137273 l -0.0129097,0.004899 0.0110649,0.005738 c 0.006086,0.003157 0.0301521,0.0153525 0.0534807,0.0271032 0.0233287,0.0117507 0.0429288,0.0216777 0.0435553,0.0220603 6.2647e-4,3.8242e-4 2.0442e-4,-0.002867 -9.3962e-4,-0.007217 z m 0.0210799,0.002228 c -0.002498,-0.002373 -0.007477,-0.002518 -0.0110653,-3.2009e-4 -0.003588,0.002198 -0.001546,0.004141 0.00454,0.004316 0.006086,1.7483e-4 0.009022,-0.001623 0.006525,-0.003996 z M 0.9181221,0.6745388 C 0.8878722,0.664337 0.8496342,0.6458978 0.8314464,0.6327413 0.8083553,0.616038 0.7685738,0.6054924 0.7742772,0.6175865 c 0.004917,0.0104271 0.072414,0.0471981 0.0886167,0.0482771 0.007047,4.6859e-4 0.0128125,0.003003 0.0128125,0.005635 4e-7,0.002628 0.0120335,0.005229 0.0267409,0.005776 0.0147066,5.4527e-4 0.0217604,-6.8586e-4 0.0156747,-0.002735 z M 0.33260014,0.65730926 c -0.003551,-0.002181 -0.00936,-0.002181 -0.0129097,0 -0.003551,0.002181 -6.3867e-4,0.003962 0.006454,0.003962 0.0071,0 0.010004,-0.001785 0.006454,-0.003962 z m 0.0414936,-0.002692 c 0,-0.004766 -0.004564,-0.008276 -0.0101427,-0.007801 l -0.0101427,8.6452e-4 0.009221,0.006938 c 0.005072,0.003817 0.009636,0.007326 0.0101427,0.007802 5.0036e-4,4.7712e-4 9.19e-4,-0.003038 9.19e-4,-0.007802 z m 0.0286276,0.002713 c -0.003527,-0.002168 -0.0101647,-0.002249 -0.0147542,-1.7479e-4 -0.004588,0.00207 -0.001705,0.003846 0.006412,0.003944 0.008115,9.567e-5 0.0118688,-0.001602 0.008342,-0.00377 z m 0.52830998,0.002373 c 0,-0.002122 -0.009543,-0.008324 -0.0212083,-0.0137865 -0.0116645,-0.005462 -0.0303366,-0.0171427 -0.0414936,-0.025957 -0.0190479,-0.0150483 -0.0552053,-0.0228283 -0.0500747,-0.0107748 0.002811,0.006604 0.001366,0.005746 0.0516546,0.0306705 0.0408875,0.0202651 0.0611215,0.0268352 0.0611215,0.0198476 z m -0.57906749,-0.011706 c 0,-0.003642 -0.0142404,-0.0142671 -0.031646,-0.0236139 -0.0174053,-0.009347 -0.032441,-0.0200155 -0.0334128,-0.0237084 -0.002462,-0.009364 -8.9066e-4,-0.008829 0.0291658,0.00994 0.026699,0.0166709 0.10457051,0.0448786 0.11873263,0.043009 0.004138,-5.4527e-4 -0.005754,-0.00624 -0.0219818,-0.0126525 -0.0162284,-0.006412 -0.0319963,-0.0131381 -0.0350392,-0.0149457 -0.003043,-0.001806 -0.0121714,-0.006475 -0.0202858,-0.0103705 -0.008115,-0.003898 -0.0200942,-0.0123211 -0.0266217,-0.0187221 -0.0136912,-0.0134257 -0.0489889,-0.0157222 -0.0489889,-0.003186 0,0.005005 -0.003385,0.005674 -0.008299,0.00164 -0.004564,-0.003744 -0.0103737,-0.006086 -0.0129093,-0.005201 -0.002535,8.8647e-4 -0.008207,0.002096 -0.0126022,0.002692 -0.004394,5.9639e-4 -0.007259,0.002803 -0.006363,0.004906 0.001567,0.003677 0.0765281,0.0436595 0.0954989,0.0509367 0.005072,0.001947 0.0104657,0.004068 0.0119871,0.004717 0.001513,6.4751e-4 0.002766,-0.001797 0.002766,-0.00544 z m 0.12452409,-0.007999 c -0.003527,-0.002168 -0.0101647,-0.002249 -0.0147542,-1.7479e-4 -0.004588,0.002074 -0.001705,0.003846 0.006412,0.003944 0.008115,9.572e-5 0.0118687,-0.001602 0.008342,-0.00377 z m -0.058134,-0.0249988 c -0.0192717,-0.0113481 -0.037901,-0.0219239 -0.0413987,-0.0235014 -0.003498,-0.001576 -0.007508,-0.005568 -0.008913,-0.008868 -0.001403,-0.003301 -0.0116828,-0.006 -0.0228401,-0.006 -0.0111573,0 -0.019351,0.002194 -0.0182083,0.00488 0.002791,0.006563 0.0591322,0.0388228 0.0821397,0.0470335 0.0393866,0.0140562 0.0441667,0.007035 0.009221,-0.0135437 z m 0.0725824,0.004798 c -0.0199229,-0.008721 -0.0475667,-0.0239517 -0.06143,-0.033845 -0.0217767,-0.01554 -0.0635363,-0.0255202 -0.0586391,-0.0140145 0.00744,0.0174799 0.10834661,0.0626769 0.141539,0.063397 0.008907,1.9118e-4 4.0569e-4,-0.005964 -0.02147,-0.0155374 z m 0.44009506,0.007381 c 0,-0.00556 -9.1042e-4,-0.007961 -0.002036,-0.005333 -0.001117,0.002628 -0.0102645,-0.002573 -0.0203254,-0.0115534 -0.0195498,-0.0174518 -0.0477203,-0.0219763 -0.0477203,-0.007664 0,0.004766 0.003734,0.008837 0.008299,0.009048 0.004564,2.1198e-4 0.0165974,0.005796 0.0267405,0.0124132 0.0231122,0.0150777 0.0350392,0.0161295 0.0350392,0.003093 z m -0.37067701,-0.007221 -0.0147542,-0.006206 0.0177373,-0.001231 c 0.009756,-6.7733e-4 0.0169232,0.001866 0.0159282,0.005646 -9.963e-4,0.003783 0.0117703,0.003702 0.0283668,-1.8357e-4 0.016597,-0.003881 0.0335609,-0.005157 0.0376992,-0.002837 0.005407,0.003033 0.007668,-2.8734e-4 0.008037,-0.0118074 4.0574e-4,-0.012382 -0.002941,-0.0173283 -0.014687,-0.0217394 -0.0173162,-0.006505 -0.0516245,-0.0316055 -0.0496243,-0.0363051 0.001705,-0.004 0.0803051,0.0375865 0.0829971,0.0439111 0.001106,0.002611 -0.001989,0.00514 -0.006891,0.005615 l -0.008913,8.6453e-4 0.009221,0.006938 c 0.005072,0.003817 0.0150304,0.006742 0.0221298,0.006503 0.0106516,-3.5835e-4 0.0111353,-0.001065 0.002766,-0.004042 -0.005578,-0.001985 -0.0101427,-0.006632 -0.0101427,-0.0103257 0,-0.003694 0.007469,-0.004052 0.0165978,-7.9662e-4 0.009129,0.003255 0.0165974,0.002811 0.0165974,-9.8018e-4 0,-0.003796 -0.006223,-0.009365 -0.0138319,-0.0123782 -0.007607,-0.003011 -0.0254493,-0.0134573 -0.0396494,-0.0232079 -0.0333566,-0.022905 -0.04915,-0.0263087 -0.0829873,-0.017885 l -0.0276623,0.006887 0.0258186,0.0154867 c 0.0293969,0.0176333 0.0376069,0.0220142 0.0608574,0.0324741 0.0133076,0.005987 0.0114786,0.006506 -0.009221,0.00262 -0.0142001,-0.002667 -0.0390962,-0.0146471 -0.0553248,-0.0266236 -0.0162288,-0.0119765 -0.0353158,-0.0214158 -0.0424156,-0.0209761 -0.0071,4.3877e-4 -0.021208,9.8441e-4 -0.0313507,0.001206 -0.030444,6.7307e-4 -0.0360049,0.009338 -0.0147058,0.0229152 0.0101162,0.006448 0.0275223,0.0160008 0.0386792,0.021227 0.0111573,0.005226 0.0211157,0.0115467 0.0221303,0.0140464 0.002123,0.005233 -0.0365231,-0.004598 -0.040441,-0.010287 -0.00142,-0.002074 -0.008264,-0.006027 -0.015194,-0.008789 -0.0208053,-0.008291 -0.0254941,-0.0135266 -0.0257991,-0.0288119 -1.5601e-4,-0.008019 -9.963e-4,-0.0105809 -0.001875,-0.005693 -8.7434e-4,0.004888 -0.008027,0.007444 -0.0159001,0.00568 -0.0250856,-0.00562 -0.0294119,0.002274 -0.009595,0.0175089 0.0294115,0.022611 0.0955257,0.048278 0.12355908,0.0479681 l 0.0165973,-1.8442e-4 -0.0147542,-0.006206 z m 0.001847,-0.0223878 c -0.0319455,-0.0156409 -0.0525697,-0.0303003 -0.0502605,-0.035725 0.001172,-0.002739 0.0175164,0.003396 0.0363336,0.0136306 0.0188169,0.0102372 0.0416815,0.0221829 0.0508101,0.026546 l 0.0165978,0.007934 -0.0165978,-0.001227 c -0.009129,-6.7307e-4 -0.0257263,-0.005695 -0.0368832,-0.0111582 z m -0.45531838,-0.001415 c 0.008951,0.002368 0.0154953,0.001355 0.0145451,-0.002262 -9.5164e-4,-0.003613 -0.0112944,-0.009208 -0.02298528,-0.0124305 -0.011691,-0.003225 -0.024161,-0.007841 -0.02771067,-0.0102618 -0.0035515,-0.00242 -0.0064536,-2.3711e-4 -0.0064536,0.004848 0,0.005088 0.0045641,0.009833 0.0101427,0.0105477 l 0.01014269,0.001299 -0.01020539,0.003625 c -0.0056128,0.001993 -0.0093112,0.007025 -0.0082169,0.011182 0.0011062,0.004188 0.0070016,0.00345 0.01322951,-0.001649 0.0061822,-0.005063 0.01856384,-0.007267 0.02751381,-0.004898 z m 0.82415053,0.006474 c 0,-0.004766 -0.005394,-0.008606 -0.0119874,-0.008533 -0.009096,9.986e-5 -0.0106527,0.00216 -0.00645,0.008533 0.007249,0.0110065 0.0184419,0.0110065 0.0184419,0 z M 0.16508973,0.59084903 c 0.008453,0.003038 0.0143278,0.002863 0.0130562,-3.9553e-4 -0.002579,-0.0066 -0.0103566,-0.0100561 -0.0401022,-0.0178233 C 0.12688647,0.5697162 0.10613978,0.5601059 0.09193964,0.5512729 0.06621531,0.5352712 0.05982902,0.5350279 0.06636707,0.55029778 c 0.0034656,0.008096 0.01019277,0.0115432 0.0440142,0.0225544 0.0301816,0.009826 0.0331,0.0117754 0.0347194,0.0231887 0.001232,0.008675 0.001863,0.008695 0.003083,9.985e-5 0.001078,-0.007575 0.006145,-0.009162 0.0169049,-0.005293 z m 0.5962814,-0.001218 c 0.003896,-0.0110337 0.002991,-0.0130444 -0.006003,-0.0133065 -0.0100649,-2.9173e-4 -0.0396226,-0.0159898 -0.0677637,-0.0359857 -0.007099,-0.005045 -0.0220379,-0.0105856 -0.0331947,-0.0123126 l -0.0202858,-0.00314 0.0143937,0.0128796 c 0.007916,0.007083 0.0273568,0.0190506 0.0432002,0.0265924 0.0404801,0.0192704 0.0407517,0.0193816 0.0530556,0.0216892 0.007212,0.001355 0.004002,0.004106 -0.009221,0.007916 l -0.0202858,0.005841 0.020756,0.00141 c 0.014534,9.8863e-4 0.0221328,-0.002484 0.025348,-0.0115854 z m 0.0289781,0.003382 c -0.002751,-0.004098 -0.009154,-0.00745 -0.014225,-0.00745 -0.006566,0 -0.00778,0.002147 -0.004217,0.00745 0.002751,0.004098 0.009153,0.00745 0.014225,0.00745 0.006566,0 0.00778,-0.002147 0.004217,-0.00745 z m 0.0460616,-0.0145445 c -0.00129,-0.0115547 -0.009667,-0.0195848 -0.0329625,-0.0315847 -0.0171806,-0.00885 -0.0321148,-0.0194246 -0.0331868,-0.0234997 -0.00269,-0.0102345 1.223e-4,-0.009427 0.0316815,0.009081 0.0152143,0.008923 0.0351311,0.0190711 0.0442597,0.0225519 0.009129,0.00348 0.0190873,0.007326 0.0221303,0.008546 0.003043,0.001218 0.0154909,0.00446 0.0276623,0.007202 0.0169839,0.003825 0.0191276,0.003195 0.009221,-0.002709 -0.007099,-0.00423 -0.0203777,-0.009852 -0.0295063,-0.0124898 -0.0197297,-0.005701 -0.0353039,-0.0148515 -0.0627018,-0.0368368 -0.0147537,-0.0118393 -0.0245617,-0.0145572 -0.0359651,-0.009967 -0.008624,0.003472 -0.0214997,0.004986 -0.0286133,0.003365 -0.0138333,-0.003148 -0.0209719,0.008112 -0.0101632,0.0160324 0.0243835,0.0178701 0.0677684,0.0395602 0.0793525,0.0396713 0.007668,7.907e-5 0.0138312,0.004432 0.0138312,0.009782 0,0.006419 -0.005864,0.008016 -0.0175196,0.004772 -0.012088,-0.003365 -0.0146607,-0.002594 -0.008298,0.002484 0.005072,0.004052 0.0144596,0.007751 0.0208626,0.008226 0.009453,7.029e-4 0.0113176,-0.002049 0.009917,-0.0146304 z M 0.20074537,0.57762485 c -0.003043,-0.003927 -0.0172231,-0.0115143 -0.0315114,-0.0168537 -0.0142892,-0.00534 -0.0379474,-0.018875 -0.0525749,-0.0300784 -0.0146277,-0.0112037 -0.03155046,-0.0186616 -0.03760643,-0.0165734 -0.01172355,0.004042 -0.01171135,0.0191861 1.464e-5,0.0191861 0.0038401,0 0.01660345,0.005956 0.02836686,0.0132361 0.0117625,0.00728 0.0305164,0.0155442 0.0416738,0.0183648 0.0111573,0.00282 0.0269244,0.008134 0.0350392,0.0118099 0.020093,0.0091 0.0230658,0.009262 0.0165974,9.0758e-4 z m 0.59223491,-8.69e-6 c -0.001112,-0.004226 -0.008263,-0.0103436 -0.0158929,-0.0135961 -0.0236168,-0.0100671 -0.0527731,-0.0317078 -0.0511309,-0.0379512 8.5835e-4,-0.003267 -0.007832,-0.007127 -0.019316,-0.008573 -0.0114847,-0.001445 -0.0225399,-0.006689 -0.0245682,-0.0116523 -0.002542,-0.006224 3.2773e-4,-0.007233 0.009221,-0.00325 0.009514,0.004252 0.0114538,0.003386 0.007376,-0.003288 -0.003043,-0.004982 -0.009336,-0.009118 -0.0139861,-0.009191 -0.0104723,-1.6605e-4 -0.0620277,-0.0240722 -0.0745333,-0.0345632 -0.009957,-0.008353 -0.0497747,-0.0189637 -0.0470383,-0.012535 0.002636,0.006194 0.0389875,0.0261575 0.0691681,0.0379861 0.0367697,0.0144106 0.040175,0.0186544 0.011065,0.0137891 -0.013186,-0.002203 -0.0405716,-0.0145009 -0.0608573,-0.0273268 -0.0409053,-0.0258636 -0.0719224,-0.035687 -0.0719224,-0.0227793 0,0.004602 0.005395,0.0107095 0.0119871,0.0135714 0.006593,0.002863 0.0268405,0.0131207 0.0449949,0.0227972 0.0181542,0.009676 0.0384859,0.0175933 0.0451822,0.0175933 0.006696,0 0.0121824,0.002926 0.0121934,0.006499 1.094e-5,0.003574 0.0114661,0.006611 0.0254587,0.006749 0.013991,1.3764e-4 0.0293354,0.004567 0.0340978,0.009844 0.0131921,0.0146177 0.0346421,0.0280664 0.073204,0.0458979 0.0192716,0.008911 0.0355523,0.0165312 0.0361787,0.0169325 6.2728e-4,4.0313e-4 2.4499e-4,-0.002726 -8.795e-4,-0.006952 z m 0.0716641,-0.001176 c -0.0124297,-0.009093 -0.026673,-0.0100685 -0.0244652,-0.001674 9.8428e-4,0.00374 0.008965,0.007164 0.0177368,0.007609 0.0127482,6.4753e-4 0.0140988,-5.4101e-4 0.006728,-0.005934 z m 0.023052,0.003119 c -0.002535,-0.002403 -0.006685,-0.002403 -0.009221,0 -0.002535,0.002403 -4.5968e-4,0.004371 0.00461,0.004371 0.005072,0 0.007146,-0.001968 0.00461,-0.004371 z m -0.64084673,-0.01594 c -0.0499659,-0.0168209 -0.0593312,-0.0213471 -0.0818765,-0.03957 -0.0219606,-0.0177508 -0.0600816,-0.0237301 -0.0482852,-0.007573 0.00745,0.010203 0.0896871,0.0492269 0.11356444,0.0538891 0.0388488,0.007586 0.048055,0.003842 0.0165974,-0.006746 z m 0.0507847,-0.001333 c -0.002498,-0.002373 -0.007477,-0.002518 -0.0110653,-3.2009e-4 -0.003588,0.002198 -0.001546,0.004141 0.004541,0.004316 0.006086,1.7478e-4 0.009022,-0.001623 0.006524,-0.003996 z m 0.052304,-0.002066 c -0.001928,-0.004263 -0.012435,-0.0101962 -0.0233494,-0.0131855 -0.0254139,-0.006959 -0.0665465,-0.0294947 -0.075975,-0.0416241 -0.006902,-0.008879 -0.0560613,-0.0184235 -0.0525635,-0.0102056 0.005772,0.0135595 0.0713852,0.0459854 0.12809825,0.0633053 0.0131855,0.004025 0.0247212,0.007803 0.025634,0.008391 9.19e-4,5.8787e-4 8.144e-5,-0.00242 -0.001843,-0.006681 z m 0.58109607,-2.7148e-4 c -0.00304,-0.004123 -0.013292,-0.009922 -0.0227758,-0.0128898 -0.009484,-0.002969 -0.0244213,-0.0114712 -0.0331948,-0.0188968 -0.0233661,-0.0197756 -0.0287826,-0.0227793 -0.049147,-0.027254 -0.0208326,-0.004578 -0.0205218,0.003604 6.3054e-4,0.0165883 0.0186204,0.0114291 0.0974196,0.0486748 0.10448726,0.0493877 0.004921,4.9415e-4 0.004921,-2.7422e-4 0,-0.006936 z M 0.25975784,0.54877484 c -0.009129,-0.004643 -0.0302772,-0.0180491 -0.0469971,-0.0297891 -0.0177315,-0.0124506 -0.0369442,-0.0202345 -0.0461041,-0.0186782 -0.013838,0.002351 -0.0106626,0.005477 0.0267116,0.0262968 0.0233287,0.0129959 0.0482249,0.0250448 0.0553252,0.0267752 0.0235532,0.005741 0.0278697,0.003944 0.0110653,-0.004605 z m 0.12263715,-0.003881 c -0.002535,-0.002403 -0.006685,-0.002403 -0.009221,0 -0.002535,0.002403 -4.6782e-4,0.004371 0.004611,0.004371 0.005072,0 0.007145,-0.001968 0.004611,-0.004371 z m -0.0617798,-0.0303974 c -0.039802,-0.0261605 -0.0870523,-0.0422371 -0.0756105,-0.0257255 0.005198,0.0075 0.0608933,0.0400855 0.0811431,0.0474727 0.032888,0.0119978 0.0302935,0.001802 -0.005533,-0.0217471 z m 0.0958968,0.0218843 c -0.0460302,-0.0223158 -0.0797682,-0.0407193 -0.0903642,-0.0492922 -0.0071,-0.005744 -0.0195479,-0.008912 -0.0276623,-0.007039 l -0.0147542,0.003404 0.0202858,0.011962 c 0.0422905,0.0249378 0.0889347,0.0439399 0.10880557,0.0443258 0.006138,1.2017e-4 0.007782,-0.001376 0.00369,-0.003361 z m 0.0571689,-0.00308 c 0,-0.004766 -0.001249,-0.007869 -0.002766,-0.006897 -0.004382,0.002803 -0.0422215,-0.0104719 -0.0544027,-0.019083 -0.061455,-0.0434426 -0.0635346,-0.0444527 -0.0759179,-0.0368773 -0.0120746,0.007386 -0.0112134,0.008482 0.0205925,0.026183 0.0336576,0.0187315 0.0453736,0.023596 0.0801929,0.0332955 0.0106654,0.002969 0.0200836,0.006897 0.020929,0.008723 0.003169,0.006846 0.0113724,0.00299 0.0113724,-0.005344 z m 0.019434,0.002982 c -0.002498,-0.002373 -0.007477,-0.002518 -0.0110649,-3.2009e-4 -0.003588,0.002198 -0.001546,0.004141 0.004539,0.004316 0.006086,1.7479e-4 0.009022,-0.001623 0.006524,-0.003996 z m 0.43791891,-0.002816 c 0,-0.004676 -0.004561,-0.0107948 -0.0101434,-0.0135987 -0.005574,-0.002803 -0.0167817,-0.0105298 -0.024896,-0.0171677 -0.0155271,-0.0127016 -0.0387276,-0.0147493 -0.0387276,-0.003417 0,0.006566 0.054724,0.0407291 0.0673119,0.042022 0.003547,3.6597e-4 0.00645,-0.003161 0.00645,-0.007837 z M 0.5092839,0.51937524 c -0.0353008,-0.0129354 -0.0904092,-0.042624 -0.0937683,-0.0505159 -0.003503,-0.008222 0.004193,-0.005564 0.0326793,0.0112932 0.0150316,0.008895 0.0414381,0.0208163 0.058681,0.0264914 0.017243,0.005675 0.0344944,0.0118266 0.0383366,0.0136703 0.003844,0.001845 0.005502,2.3706e-4 0.00369,-0.003565 -0.001814,-0.003804 -0.019065,-0.0137456 -0.0383367,-0.0220888 -0.0192717,-0.008343 -0.0419661,-0.0222068 -0.0504323,-0.0308085 -0.008465,-0.008602 -0.0159587,-0.0143097 -0.016651,-0.0126841 -0.001232,0.002892 -0.0382158,0.0108403 -0.0601641,0.0129298 -0.0332985,0.003169 0.10307655,0.0668066 0.14384457,0.0671225 0.008359,6.241e-5 6.102e-4,-0.005068 -0.0178779,-0.0118431 z m 0.0666716,2.599e-5 c -0.001232,-0.00288 -0.004407,-0.003186 -0.007069,-6.8586e-4 -0.002941,0.002765 -0.002066,0.004819 0.00223,0.005235 0.003889,3.7471e-4 0.006067,-0.00167 0.004841,-0.004551 z M 0.5990844,0.50661153 C 0.564533,0.49412083 0.5391491,0.48085663 0.5154388,0.46290373 0.5018066,0.45258183 0.4855053,0.44672013 0.4748672,0.44831503 c -0.0176847,0.002649 -0.0175892,0.002782 0.0172556,0.0235695 0.0431168,0.0257222 0.0844152,0.0416135 0.10880551,0.0418679 l 0.0184418,1.9123e-4 -0.0202858,-0.007333 z m 0.33194946,-0.00754 c 0,-0.0145082 -0.002345,-0.016654 -0.0165919,-0.0151642 -0.0166576,0.001743 -0.0238502,0.0146173 -0.008305,0.0148656 0.004561,7.076e-5 0.0107884,0.003911 0.0138314,0.008533 0.00828,0.0125682 0.011065,0.0104944 0.011065,-0.008234 z m -0.8317179,-4.2998e-4 c -0.0012488,-0.004766 -1.222e-4,-0.008784 0.0025466,-0.008929 0.009408,-5.1545e-4 -0.0059108,-0.0146325 -0.02218351,-0.0204449 -0.01050471,-0.003753 -0.0151504,-0.002671 -0.01361352,0.003174 0.0012815,0.004878 0.007011,0.00887 0.0127287,0.00887 0.0057176,0 0.01246184,0.005849 0.01498644,0.012998 0.0051602,0.0146092 0.0090334,0.0176422 0.005532,0.004333 z m -0.02305167,-0.005739 c -0.0025346,-0.002403 -0.0066847,-0.002403 -0.0092205,0 -0.0025346,0.002403 -4.6782e-4,0.004371 0.0046113,0.004371 0.0050717,0 0.007145,-0.001968 0.0046113,-0.004371 z m 0.65928853,-0.004171 c -0.009129,-0.004305 -0.0323653,-0.0160989 -0.0516367,-0.026209 -0.0192716,-0.0101102 -0.0433381,-0.0196103 -0.0534808,-0.021112 l -0.0184418,-0.00273 0.0160742,0.0123701 c 0.008841,0.006804 0.0229491,0.0148686 0.0313507,0.0179217 0.008402,0.003055 0.0285543,0.0105302 0.0447832,0.016616 0.0337138,0.0126419 0.0562932,0.0149057 0.0313507,0.003144 z m -0.60949634,-0.00473 c -0.003551,-0.002181 -0.00936,-0.002181 -0.0129093,0 -0.003551,0.002181 -6.3867e-4,0.003962 0.006454,0.003962 0.0071,0 0.010004,-0.001785 0.006454,-0.003962 z m 0.64453531,-0.0034 c -0.0101432,-0.004042 -0.0342091,-0.0175115 -0.0534808,-0.0299344 -0.0401587,-0.0258865 -0.0663899,-0.0353139 -0.0663899,-0.0238601 0,0.008684 0.0220257,0.0227176 0.0590133,0.0376002 0.013186,0.005306 0.0306132,0.0127603 0.0387274,0.0165662 0.008115,0.003804 0.0205622,0.006932 0.0276625,0.006947 0.0103759,2.602e-5 0.00929,-0.001414 -0.005533,-0.00732 z m 0.0608574,0.001555 c -0.003039,-0.004008 -0.0160608,-0.009975 -0.0289282,-0.0132556 -0.0128681,-0.00328 -0.0275882,-0.009709 -0.0327119,-0.0142862 -0.005123,-0.004577 -0.0204961,-0.0120463 -0.0341614,-0.0165998 -0.0136648,-0.004553 -0.0275756,-0.0107398 -0.0309118,-0.0137473 -0.003336,-0.003007 -0.006065,-0.001666 -0.006065,0.002982 0,0.004649 0.006225,0.0108207 0.0138319,0.0137171 0.007607,0.002897 0.0221298,0.009417 0.032273,0.0144907 0.0101429,0.005074 0.0250805,0.0115305 0.0331949,0.014348 0.008115,0.002816 0.0230518,0.008021 0.033195,0.0115649 0.0256609,0.008964 0.0265163,0.008997 0.0202858,7.8383e-4 z M 0.18072061,0.46177305 c 5.1663e-4,-0.008363 -4.2308e-4,-0.01324 -0.002075,-0.0108378 -0.001656,0.002403 -0.0131266,0.001116 -0.0254944,-0.002859 -0.0123679,-0.003975 -0.0224866,-0.004585 -0.0224866,-0.001359 0,0.003225 0.011204,0.009792 0.024896,0.0145917 0.0209887,0.007357 0.0225147,0.008931 0.009724,0.0100313 -0.0147367,0.00127 -0.0261034,-0.003007 -0.07432736,-0.0279688 -0.01414396,-0.007321 -0.02394619,-0.008781 -0.02526543,-0.003765 -0.0035515,0.0135028 -0.0034415,0.0135654 0.05206363,0.0297567 0.0101427,0.002961 0.0192053,0.007028 0.0201394,0.009041 9.3532e-4,0.002015 0.0107407,0.002518 0.021793,0.001116 0.0158481,-0.002007 0.0202928,-0.005758 0.0210303,-0.01775 z m 0.70505419,0.0143029 c -0.001225,-0.00288 -0.004407,-0.003186 -0.007069,-6.8586e-4 -0.002945,0.002765 -0.002066,0.004819 0.002229,0.005235 0.003889,3.7475e-4 0.006066,-0.00167 0.004842,-0.004551 z m -0.68034958,-0.009114 c -0.002498,-0.002373 -0.007477,-0.002518 -0.0110653,-3.2014e-4 -0.003588,0.002198 -0.001546,0.004141 0.004539,0.004316 0.006086,1.7479e-4 0.009021,-0.001623 0.006524,-0.003996 z m 0.0569055,1.7478e-4 c -7.0376e-4,-0.001666 -0.0157858,-0.008965 -0.0335051,-0.0162245 -0.021896,-0.008971 -0.0342133,-0.0104642 -0.0384481,-0.004661 -0.004663,0.006389 -0.001293,0.008604 0.0133511,0.008802 0.0107704,1.4531e-4 0.0188237,0.003186 0.0178975,0.006763 -9.19e-4,0.003574 0.008144,0.006914 0.0201544,0.007424 0.0120108,5.1119e-4 0.0212581,-4.3878e-4 0.0205498,-0.002101 z m 0.0260546,-4.4303e-4 c -0.003527,-0.002168 -0.0101647,-0.002249 -0.0147542,-1.7483e-4 -0.004588,0.002074 -0.001705,0.003846 0.006412,0.003944 0.008115,9.568e-5 0.0118688,-0.001602 0.008342,-0.00377 z m 0.56795951,-3.5835e-4 c -0.009797,-0.002407 -0.0139165,-0.007669 -0.0141228,-0.0180401 -1.6226e-4,-0.009021 -0.001005,-0.0104833 -0.002151,-0.003808 -0.002136,0.0124357 -0.0182307,0.0147135 -0.0213081,0.003016 -0.004184,-0.0159042 0.0400033,-0.0199869 0.0632366,-0.005843 0.0123402,0.007512 0.0288359,0.0133103 0.0366575,0.0128838 l 0.0142204,-7.7531e-4 -0.0184414,-0.0133375 c -0.0176152,-0.0127399 -0.0255819,-0.0155071 -0.0655584,-0.0227742 -0.0274922,-0.004998 -0.0240381,-0.011271 0.009249,-0.0167979 0.0167702,-0.002786 0.0333957,-0.007684 0.0369459,-0.0108898 0.003617,-0.003263 0.006454,-0.00184 0.006454,0.003242 0,0.004989 -0.005394,0.0107658 -0.0119871,0.0128395 -0.006593,0.002074 -7.2409e-4,0.00282 0.0130407,0.001657 0.0242533,-0.002049 0.0321191,-0.007321 0.0274117,-0.0183817 -0.001245,-0.002935 -0.007498,-0.001052 -0.0138941,0.004183 -0.00982,0.008042 -0.0112984,0.007525 -0.009525,-0.003331 0.003367,-0.0205948 -0.0238624,-0.0168507 -0.10094257,0.0138815 -0.0111572,0.004448 -0.0277545,0.009939 -0.0368831,0.0122002 l -0.0165977,0.004111 0.0184417,-0.0110721 c 0.0101428,-0.00609 0.0160746,-0.0130794 0.0131813,-0.0155323 -0.004984,-0.004226 -0.0284442,0.002624 -0.0611296,0.0178459 -0.0144857,0.006746 -0.0143669,0.006891 0.006454,0.007956 0.0116645,5.964e-4 0.0212077,0.004725 0.0212077,0.009176 0,0.00445 0.003734,0.006721 0.008298,0.005047 0.004564,-0.001674 0.0183956,-0.005359 0.0307362,-0.008186 0.0185228,-0.004243 0.0224371,-0.002859 0.0224371,0.007951 0,0.009374 -0.004276,0.0133844 -0.0150607,0.0141197 -0.0128178,8.7297e-4 -0.011216,0.002637 0.0107574,0.011827 0.0142001,0.00594 0.0341173,0.0106716 0.0442601,0.0105144 0.0147107,-2.2834e-4 0.0156434,-9.7512e-4 0.00461,-0.003685 z m -0.54495047,-0.005759 c 0,-0.00822 -0.0110401,-0.0123628 -0.0130078,-0.004882 -0.0012,0.004558 0.001232,0.008287 0.005415,0.008287 0.004178,0 0.007594,-0.001533 0.007594,-0.003404 z m 0.56246983,-0.009251 c -0.0121714,-0.005739 -0.0237895,-0.008164 -0.0258179,-0.005388 -0.00203,0.002778 0.003779,0.007386 0.0129089,0.0102448 0.0284807,0.008919 0.0360688,0.006063 0.0129089,-0.004857 z M 0.25053707,0.43313553 c -0.0421164,-0.0237122 -0.0580822,-0.0252808 -0.0866756,-0.008517 l -0.0202858,0.0118939 0.0151724,7.3698e-4 c 0.008345,4.0316e-4 0.0240048,-0.003199 0.0348008,-0.008009 0.0110543,-0.004925 0.020538,-0.005443 0.0217112,-0.001185 0.001139,0.004158 0.0137005,0.011464 0.0279011,0.0162339 0.0434321,0.0145891 0.046056,0.0106209 0.007376,-0.011156 z m 0.0642357,0.009105 c 0.00727,0.001218 0.009456,4.9842e-4 0.004858,-0.001606 -0.004598,-0.002105 -0.007659,-0.006485 -0.006799,-0.009735 8.5835e-4,-0.00325 -0.007825,-0.004141 -0.0193014,-0.001976 -0.0122666,0.002313 -0.0166588,0.005233 -0.0106593,0.007088 0.00601,0.001857 0.009214,0.006925 0.007793,0.012328 -0.001672,0.006359 -3.745e-4,0.006491 0.004238,4.3026e-4 0.003657,-0.004809 0.0125989,-0.007745 0.01987,-0.006525 z m 0.0510905,0.006886 c -0.005542,-0.001976 -0.0155014,-0.002019 -0.0221298,-8.737e-5 -0.006629,0.00193 -0.002095,0.003544 0.0100772,0.003596 0.0121714,4.993e-5 0.0175956,-0.001529 0.012053,-0.003506 z m 0.0377395,-0.0118858 c -0.004254,-0.007031 -0.002803,-0.008365 0.006259,-0.005768 0.006485,0.001857 0.0109526,1.8356e-4 0.009924,-0.003719 -0.001029,-0.003902 0.003071,-0.007098 0.009108,-0.007098 0.006035,0 0.0115287,-0.003613 0.0122043,-0.008028 0.001851,-0.0120873 0.0447501,-0.0136677 0.0530238,-0.001955 0.005995,0.008488 0.003156,0.0100323 -0.0167552,0.009111 -0.0131855,-6.0918e-4 -0.0264638,0.001095 -0.0295067,0.003787 -0.003043,0.002692 -0.009681,0.006454 -0.0147542,0.008357 -0.005072,0.001904 0.008207,0.001504 0.0295067,-8.8141e-4 0.0213,-0.00239 0.039557,-0.006678 0.0405716,-0.009533 0.001013,-0.002854 0.005164,-0.005814 0.009221,-0.006577 0.004056,-7.6252e-4 0.0165055,-0.003565 0.0276623,-0.006226 0.0111573,-0.002663 0.0169668,-0.002637 0.0129097,6.24e-5 -0.0171783,0.0114141 -0.0114473,0.0176444 0.0133467,0.0145128 0.028015,-0.00354 0.0481556,-0.018602 0.0272245,-0.0203622 -0.006086,-5.112e-4 -0.016874,-0.002582 -0.0239739,-0.004595 -0.069015,-0.0195954 -0.11887292,-0.0169836 -0.13170663,0.006899 -0.002453,0.004564 -0.009459,0.005718 -0.0155702,0.002565 -0.006583,-0.003395 -0.0220476,7.029e-4 -0.0379563,0.010065 l -0.0268462,0.0157976 0.0221298,0.005042 c 0.0121714,0.002773 0.0237895,0.005638 0.0258183,0.006366 0.00203,7.2845e-4 0.0012,-0.00279 -0.001843,-0.007823 z m 0.0968183,-0.0398878 c 0.003551,-0.002181 0.00936,-0.002181 0.0129097,0 0.003551,0.002181 6.3868e-4,0.003962 -0.006454,0.003962 -0.0071,0 -0.010004,-0.001785 -0.006454,-0.003962 z m -0.36624459,0.0276182 c 0.0431375,-0.009677 0.0461832,-0.0180631 0.009143,-0.0251704 -0.041618,-0.007985 -0.0371712,-0.008477 -0.05875619,0.006505 -0.01793412,0.0124485 -0.01808666,0.0128259 -0.0055329,0.0137082 0.0070995,4.9842e-4 0.01531882,0.00449 0.01826564,0.008868 0.0029494,0.004378 0.0062647,0.006676 0.0073761,0.005108 0.001106,-0.001568 0.0143873,-0.005628 0.0295043,-0.009019 z m -0.0311725,-0.01298 c 0.006086,-0.003638 0.0152143,-0.007017 0.0202858,-0.007507 0.007237,-6.9863e-4 0.008032,9.118e-4 0.00369,0.007507 -0.003043,0.00462 -0.0121714,0.007998 -0.0202858,0.007507 -0.01421275,-8.603e-4 -0.01434657,-0.001137 -0.00369,-0.007507 z m 0.49139255,0.0207605 c -0.001232,-0.00288 -0.004407,-0.003186 -0.007069,-6.8585e-4 -0.002941,0.002765 -0.002066,0.004819 0.00223,0.005235 0.003889,3.747e-4 0.006067,-0.00167 0.004841,-0.004551 z M 0.30150271,0.41540506 c 0.0450639,-0.0152064 0.0640436,-0.034418 0.0264887,-0.0268127 -0.0121714,0.002467 -0.0262796,0.006977 -0.0313507,0.0100263 -0.007628,0.004586 -0.007309,0.003348 0.001843,-0.007169 l 0.0110653,-0.0127126 -0.0150597,-7.0289e-4 c -0.0173573,-8.094e-4 -0.0568619,0.016308 -0.0568619,0.0246409 0,0.003093 0.009873,0.003404 0.0219403,6.9437e-4 0.0234882,-0.005276 0.0250482,-0.001738 0.006379,0.0144626 -0.0160217,0.0139029 -0.0120294,0.0136306 0.035555,-0.002428 z m 0.0716709,-1.2018e-4 c 0.008621,-0.002892 0.0156755,-0.008436 0.0156755,-0.012316 0,-0.0107151 -0.0365646,-0.002122 -0.0553252,0.0130023 l -0.0165974,0.0133802 0.0202858,-0.004403 c 0.0111573,-0.00242 0.0273393,-0.00677 0.035961,-0.009664 z m 0.27343564,5.8788e-4 c 0.003177,-0.007466 -0.034684,-0.00259 -0.0419929,0.005408 -0.00499,0.00546 3.2768e-4,0.006519 0.0164818,0.003272 0.0131217,-0.002641 0.0246024,-0.006546 0.0255112,-0.008681 z m 0.27889142,0.004784 c 0.004861,-0.00491 0.005497,-0.007609 0.001847,-0.007923 -0.00304,-2.622e-4 -0.008022,0.003302 -0.0110641,0.007923 -0.006742,0.0102362 -9.19e-4,0.0102362 0.009221,0 z M 0.67922795,0.4067556 c -0.001232,-0.00288 -0.004407,-0.003186 -0.007069,-6.8586e-4 -0.002941,0.002765 -0.002066,0.004819 0.00223,0.005235 0.003889,3.7475e-4 0.006067,-0.00167 0.004841,-0.004551 z m 0.0544795,-0.0100518 c 0.0109387,-0.005641 0.0108982,-0.005758 -0.00369,-0.010373 -0.0161108,-0.005098 -0.0461041,0.007769 -0.0461041,0.0197781 0,0.0073 0.0274447,0.002117 0.0497922,-0.009405 z M 0.08640608,0.3946588 c 0.0041243,-0.006261 0.0020665,-0.008433 -0.0080812,-0.008533 -0.0074869,-7.071e-5 -0.01464022,0.003765 -0.01589281,0.008533 -0.0029374,0.011176 0.01661281,0.011176 0.02397385,0 z m 0.14015641,-0.002594 c 0.003043,-0.002846 0.0130016,-0.009133 0.0221303,-0.0139676 l 0.0165974,-0.008791 -0.0221298,0.003532 c -0.0333123,0.005316 -0.0582338,0.014921 -0.0541334,0.0208636 0.004502,0.006524 0.0300026,0.005413 0.0375357,-0.001636 z m 0.44099988,0.001891 c 0.0295287,-0.0126376 0.0316107,-0.0208934 0.00537,-0.0212888 -0.0119232,-1.7917e-4 -0.0208708,0.002743 -0.0198831,0.006499 9.8427e-4,0.003753 -0.003697,0.007124 -0.0104083,0.007489 -0.014932,8.0939e-4 -0.0250933,0.005065 -0.0279112,0.0116846 -0.003543,0.008323 0.0295633,0.005576 0.0528341,-0.004383 z M 0.45523902,0.3814183 0.47552482,0.3689141 0.45339452,0.3729951 c -0.0121714,0.002245 -0.0304285,0.007515 -0.0405716,0.0117136 l -0.0184418,0.007635 0.0202858,7.8809e-4 c 0.0111573,4.3452e-4 0.0294148,-0.004836 0.0405721,-0.0117136 z m 0.17150684,-0.002322 0.0221303,-0.007302 -0.0129097,-0.008744 c -0.009542,-0.006464 -0.0160046,-0.005743 -0.0247777,0.002765 -0.006527,0.00633 -0.0176335,0.01151 -0.0246788,0.01151 -0.007045,0 -0.0135805,0.002926 -0.0145214,0.006499 -0.00203,0.007709 0.0238298,0.005476 0.0547565,-0.004729 z M 0.2081207,0.3713363 0.2210304,0.3648343 0.2081207,0.3598893 c -0.0071,-0.002718 -0.0198404,3.5835e-4 -0.028312,0.006843 -0.008472,0.006483 -0.02092,0.01033 -0.0276623,0.008548 -0.010892,-0.00288 -0.0100898,-0.004038 0.007187,-0.0104042 0.0106951,-0.00394 0.0200966,-0.009636 0.0208911,-0.012656 0.00153,-0.005829 -0.0305998,8.0088e-4 -0.0643115,0.0132707 l -0.02028582,0.007503 0.02397385,0.005541 c 0.0266835,0.006167 0.0687799,0.002743 0.0885198,-0.007198 z m 0.15122152,0.006319 c -0.0103786,-0.007439 -0.006028,-0.0143945 0.0129097,-0.0206421 0.006086,-0.002007 -4.0574e-4,-0.002334 -0.0144027,-7.2419e-4 -0.0140065,0.00161 -0.0272327,0.007074 -0.0293911,0.0121443 -0.00277,0.006516 -5.7766e-4,0.007646 0.0075,0.003851 0.006765,-0.003178 0.0124476,-0.001478 0.0139333,0.004171 0.001387,0.005246 0.006145,0.00915 0.0105906,0.008675 0.007489,-8.0087e-4 0.007404,-0.001351 -0.001139,-0.007473 z m 0.0627018,-0.005092 c 0.003043,-0.001418 0.007192,-0.003429 0.009221,-0.004469 0.00203,-0.001039 -0.002949,-0.004345 -0.011065,-0.007343 -0.0154953,-0.005725 -0.0416762,0.004459 -0.047948,0.0186497 -0.003198,0.007229 0.0291121,0.00279 0.0497925,-0.006838 z m 0.41678078,0.005126 c 0.0174325,-0.005662 0.0184699,-0.006952 0.007377,-0.009173 -0.0145813,-0.002918 -0.0174077,-0.00236 -0.0405716,0.008007 l -0.0165973,0.007429 0.0147533,1.6277e-4 c 0.008115,8.738e-5 0.0238819,-0.002803 0.0350392,-0.006427 z M 0.8124065,0.3602655 c 0.004598,-0.006305 0.001802,-0.008475 -0.0111691,-0.008672 -0.009516,-1.453e-4 -0.018328,0.003638 -0.0195815,0.008401 -0.001257,0.004766 -0.009236,0.008134 -0.0177373,0.007485 -0.0100477,-7.668e-4 -0.0122307,-0.002539 -0.006237,-0.005066 0.005072,-0.002139 0.0107467,-0.007335 0.0126109,-0.0115501 0.003098,-0.007006 -0.0237435,-0.005147 -0.050537,0.003498 -0.0190707,0.006154 -0.015715,0.0164345 0.003812,0.0116702 0.0124728,-0.003042 0.0193637,-0.001449 0.0193637,0.004482 0,0.0112791 0.060261,0.00239 0.069478,-0.0102486 z m -0.70417257,-0.001865 0.0242765,-0.0102622 -0.0165973,-0.007097 c -0.0103144,-0.00441 -0.02019349,-0.003646 -0.02609615,0.002019 -0.0052246,0.005015 -0.01310944,0.009757 -0.01751962,0.0105375 -0.0044112,7.7958e-4 -0.0080211,0.004489 -0.0080211,0.008241 0,0.009691 0.01582204,0.008453 0.04395768,-0.003442 z m 0.81081206,0.002301 c 0.0211173,-0.001239 0.0128394,-0.0161389 -0.0147533,-0.0265532 -0.014707,-0.005552 -0.0342089,-0.0152169 -0.0433381,-0.0214795 -0.0107253,-0.007358 -0.018144,-0.008453 -0.0209688,-0.003097 -0.002404,0.004559 -0.0130554,0.0104829 -0.0236691,0.0131637 -0.0106129,0.00268 -0.0235838,0.008256 -0.0288229,0.0123905 -0.0103049,0.00813 0.0472874,0.002441 0.0693745,-0.006854 0.007678,-0.003229 0.0116576,-0.002024 0.010303,0.003131 -0.001212,0.004617 -0.009194,0.009038 -0.0177336,0.009823 -0.021987,0.002024 -0.0227551,0.009907 -0.001086,0.0111317 0.009973,5.6232e-4 0.0231134,0.003553 0.0291992,0.006638 0.006086,0.003088 0.0152143,0.004892 0.0202858,0.004013 0.005072,-8.8141e-4 0.0146151,-0.001917 0.021208,-0.002305 z m -0.64269095,-0.00937 c -0.001359,-0.005147 0.002961,-0.008665 0.0106297,-0.008665 0.0071,0 0.0139349,-0.003898 0.0151895,-0.008665 0.002929,-0.0111373 -0.0359195,-0.011726 -0.0407561,-6.177e-4 -0.001928,0.004426 -0.008484,0.009776 -0.0145683,0.0118891 -0.006086,0.002113 -0.003128,0.002952 0.006565,0.001866 0.009696,-0.001087 0.0185081,0.001363 0.0195816,0.005441 0.001078,0.004081 0.002778,0.007419 0.003795,0.007419 0.001013,0 8.2581e-4,-0.003898 -4.3527e-4,-0.008665 z m 0.0534808,0.001018 0.0165974,-0.006362 -0.0147542,-0.005807 c -0.00902,-0.003548 -0.0219207,-0.001052 -0.0331947,0.00642 l -0.0184418,0.0122261 0.0165978,-6.241e-5 c 0.009129,-3.467e-5 0.0240666,-0.002922 0.0331951,-0.00642 z m 0.38358588,-0.005874 0.0239743,-0.007135 -0.0180781,-0.007424 c -0.011844,-0.004864 -0.019412,-0.004291 -0.0219455,0.001662 -0.002127,0.004997 -0.007586,0.009086 -0.0121324,0.009086 -0.004545,0 -0.009065,0.003042 -0.0100431,0.006756 -0.002013,0.007658 0.004205,0.007179 0.0382248,-0.002948 z M 0.07718541,0.33400059 c -0.01007432,-0.0101706 -0.01290932,-0.0101706 -0.01290932,0 0,0.004766 0.0045641,0.008391 0.0101427,0.008057 0.0089882,-5.4102e-4 0.0093035,-0.001457 0.0027665,-0.008057 z m 0.1705848,-0.002628 c 0.0107138,-6.0491e-4 0.003507,-0.0119914 -0.008247,-0.0130295 -0.0141627,-0.001252 -0.0525456,-0.0230358 -0.0660412,-0.0374822 -0.00661,-0.007077 -0.0112838,-0.005942 -0.0202109,0.004904 -0.006387,0.00776 -0.0182665,0.0162948 -0.0263992,0.0189675 -0.02947704,0.009686 -0.03645647,0.0205054 -0.0109591,0.0169874 0.0222494,-0.003071 0.0311026,-0.006063 0.0553249,-0.0187089 0.008517,-0.004447 0.008703,-0.003911 0.002437,0.007036 -0.00373,0.006518 -0.0127971,0.0128016 -0.0201467,0.0139646 -0.007351,0.001163 -0.0142562,0.00443 -0.0153469,0.007259 -0.002014,0.005222 0.0463291,-0.001542 0.0699389,-0.009783 l 0.0129097,-0.004507 -0.0147542,0.0128136 -0.0147542,0.0128136 0.0258183,-0.005488 c 0.0142001,-0.003016 0.0278929,-0.005605 0.0304285,-0.005748 z M 0.67285,0.33542459 0.6894478,0.32946759 0.6599411,0.31447419 c -0.0242293,-0.0123118 -0.0321452,-0.0131689 -0.0442597,-0.004792 -0.008115,0.005611 -0.0158598,0.0104531 -0.0172125,0.0107607 -0.001359,3.0809e-4 -0.003844,0.003927 -0.005532,0.008048 -0.00172,0.004192 0.003425,0.005347 0.01168,0.002624 0.0391494,-0.0129056 0.0514663,-0.0156609 0.049553,-0.0110845 -0.001139,0.002739 -0.011104,0.008499 -0.0221298,0.0127957 l -0.0200466,0.007812 0.0221298,3.7036e-4 c 0.0121714,2.043e-4 0.0295991,-0.002309 0.0387276,-0.005586 z m 0.13359856,-0.0201052 c 0.0176929,-0.005365 0.0312881,-0.0131054 0.0302109,-0.0171992 -0.002941,-0.0111803 -0.0196121,-0.008822 -0.0399141,0.005648 -0.009958,0.007097 -0.0243831,0.0129043 -0.0320553,0.0129043 -0.007672,0 -0.0147602,0.003084 -0.0157527,0.006855 -0.002038,0.007747 0.011073,0.005876 0.0575113,-0.008207 z m 0.1417971,0.24686792 c -0.003848,-0.009029 -0.002937,-0.0178501 0.003341,-0.0325977 0.009485,-0.0222848 0.0175469,-0.0174876 0.0147418,0.008772 -0.001555,0.014518 -0.001048,0.0204308 0.001443,0.0168192 0.002113,-0.003063 0.003839,-0.001439 0.003839,0.003608 0,0.009981 -0.0193583,0.0127982 -0.023359,0.0034 z m 0.012294,-0.0212415 c 0,-0.004766 -0.001658,-0.006255 -0.003693,-0.00331 -0.002027,0.002944 -0.003693,0.009255 -0.003693,0.0140209 0,0.004766 0.001658,0.006255 0.003693,0.00331 0.002027,-0.002944 0.003693,-0.009255 0.003693,-0.0140204 z m -0.93767408,-0.005686 c -0.0035266,-0.009976 -0.0030018,-0.0149307 0.0026033,-0.0245574 0.01105723,-0.0189969 0.02006774,-0.0156043 0.01759322,0.006625 -0.0014197,0.0128024 -7.3224e-4,0.0167336 0.0021884,0.0124863 0.0023473,-0.003408 0.0042695,-0.00207 0.0042695,0.002978 0,0.005047 -0.0012488,0.009502 -0.0027665,0.009899 -0.0015134,3.9553e-4 -0.0065258,0.001699 -0.01112147,0.002892 -0.0045959,0.001193 -0.01034247,-0.00345 -0.01276898,-0.0103249 z m 0.01490064,-0.0187456 c 9.19e-4,-0.006499 -4.6782e-4,-0.009748 -0.0032303,-0.007582 -0.0026608,0.002083 -0.0055673,0.008909 -0.0064536,0.0151642 -9.1901e-4,0.006499 4.6782e-4,0.009748 0.0032303,0.007582 0.0026608,-0.002083 0.0055673,-0.008909 0.0064536,-0.0151642 z M 0.02855672,0.41366005 c -0.0048887,-0.00712 -0.0056033,-0.0709927 -7.9733e-4,-0.0709927 0.0018268,0 0.0033196,0.005432 0.0033196,0.0120706 0,0.006639 0.0024899,0.0143152 0.005532,0.0170586 0.003043,0.002743 0.0055321,0.0104817 0.0055321,0.0171966 0,0.0165909 -0.0085184,0.0320533 -0.0135899,0.0246669 z m 0.0064897,-0.0213842 c -4.5155e-4,-0.0103611 -0.0055149,-0.008354 -0.0070995,0.002816 -8.0953e-4,0.005719 5.1663e-4,0.008839 0.0029494,0.006932 0.0024323,-0.001909 0.0043021,-0.006293 0.0041493,-0.009748 z m 0.92136857,0.0181824 c -2.4495e-4,-0.006307 -1.2222e-4,-0.0153308 2.8558e-4,-0.0200529 4.0685e-4,-0.004723 9.5336e-4,-0.0154458 0.001228,-0.0238294 2.8557e-4,-0.008384 0.002568,-0.0152434 0.005119,-0.0152434 0.002602,0 0.003702,0.005696 0.002508,0.012998 -0.001168,0.007148 -1.6225e-4,0.012998 0.002216,0.012998 0.006845,0 0.002714,0.0384875 -0.004475,0.0417068 -0.003547,0.001589 -0.006648,-0.00227 -0.006888,-0.008577 z m 0.0115021,-0.0157994 c 0,-0.004766 -0.001658,-0.008665 -0.003693,-0.008665 -0.002027,0 -0.003693,0.003898 -0.003693,0.008665 0,0.004766 0.001658,0.008665 0.003693,0.008665 0.002027,0 0.003693,-0.003898 0.003693,-0.008665 z M 0.34489678,0.32222434 c 0.004023,-0.008145 0.0367656,-0.0132851 0.0347044,-0.005449 -0.001232,0.004708 -0.009899,0.008561 -0.0192468,0.008561 -0.009347,0 -0.0163028,-0.001401 -0.015458,-0.003109 z m 0.001403,-0.0275697 c 0.0100727,-0.006491 0.0190162,-0.0101502 0.0198749,-0.008133 0.002713,0.006379 -0.0179613,0.0215166 -0.028286,0.020709 -0.007196,-5.6231e-4 -0.004896,-0.004 0.008411,-0.0125758 z" id="path4256" inkscape:connector-curvature="0" />
    </pattern>
  </defs>
  <sodipodi:namedview pagecolor="#ffffff" bordercolor="#666666" borderopacity="1" objecttolerance="10" gridtolerance="10" guidetolerance="10" inkscape:pageopacity="0" inkscape:pageshadow="2" inkscape:window-width="1680" inkscape:window-height="988" id="namedview4" showgrid="false" inkscape:zoom="256" inkscape:cx="0.5" inkscape:cy="0.5" inkscape:window-x="-8" inkscape:window-y="-8" inkscape:window-maximized="1" inkscape:current-layer="svg2" />
  <path style="fill:#000000" d="M 0.05855549,0.73061914 C 0.05733932,0.71761214 0.05665135,0.66302111 0.05702583,0.60930543 0.05818102,0.44164347 0.058242,0.44257747 0.04675825,0.43191524 L 0.03661556,0.42249924 0.04675825,0.421579 C 0.056617,0.42068408 0.05690137,0.41924 0.05690137,0.370226 l 0,-0.0504312 0.03227296,-0.0101826 c 0.0177498,-0.0056 0.04198518,-0.0184312 0.0538556,-0.0285129 0.0208435,-0.0177023 0.0222974,-0.0178365 0.0424161,-0.003923 0.0114583,0.007923 0.0241521,0.0166258 0.028209,0.019339 0.014637,0.009788 0.0559239,0.0171494 0.0848316,0.015125 0.0175265,-0.001227 0.025763,5.7935e-4 0.0202858,0.004453 -0.0124569,0.008807 0.0558697,0.0216419 0.0778613,0.0146253 0.009931,-0.003169 0.0142111,-0.002211 0.011073,0.002475 -0.003437,0.005132 0.001106,0.008655 0.0138332,0.0107249 0.0104442,0.001699 0.0196533,-8.0514e-4 0.0205132,-0.005582 8.9066e-4,-0.00495 0.003095,-0.003515 0.005137,0.003348 0.002062,0.006927 0.009989,0.0120131 0.0187225,0.0120131 0.008636,0 0.0151708,0.00415 0.0152033,0.00965 2.932e-5,0.005308 0.001668,0.0038 0.003633,-0.003348 0.003181,-0.0115534 0.003596,-0.0115534 0.003751,0 1.2236e-4,0.0105426 0.001106,0.0101336 0.005073,-0.002168 0.002693,-0.00834 0.008867,-0.0147118 0.0137131,-0.0141588 0.007556,8.603e-4 0.00776,0.001602 0.001436,0.005174 -0.004056,0.002292 -0.009037,0.008195 -0.011065,0.013116 -0.003633,0.008805 0.006029,0.007214 0.0442602,-0.007289 0.0103535,-0.003928 0.0136538,-0.00285 0.011065,0.003617 -0.00203,0.005068 -0.009497,0.0109516 -0.0165973,0.0130747 -0.0071,0.002122 0.0012,0.002322 0.0184414,4.3878e-4 0.017243,-0.001883 0.0371602,-0.006859 0.0442602,-0.0110589 l 0.0129097,-0.007636 -0.0129097,-0.001789 c -0.0134634,-0.001866 -0.0297394,-0.00552 -0.0516367,-0.011585 -0.0071,-0.001968 -0.0166433,-2.5786e-4 -0.021208,0.0038 -0.008576,0.00762 -0.0120636,-0.004348 -0.00369,-0.0126551 0.002535,-0.002513 -0.009046,-0.004277 -0.0257369,-0.003915 -0.0166905,3.6163e-4 -0.0294558,0.004042 -0.0283668,0.008183 0.001094,0.00414 -0.001851,0.007467 -0.006537,0.007394 -0.006593,-1.0402e-4 -0.007311,-0.001926 -0.003177,-0.008069 0.004126,-0.006132 0.002864,-0.009245 -0.005533,-0.0136894 -0.00598,-0.003165 -0.0237578,-0.0136212 -0.0395058,-0.023239 -0.0157488,-0.009618 -0.0319312,-0.0154611 -0.0359613,-0.0129848 -0.009565,0.005877 -0.009558,-0.008376 7.33e-6,-0.0155084 0.004044,-0.003016 0.0218426,0.005115 0.0396498,0.0181079 0.0280483,0.0204657 0.0388863,0.0236837 0.0821062,0.0243789 0.0343468,5.538e-4 0.0523663,-0.002654 0.058091,-0.0103313 0.004564,-0.006123 0.008299,-0.007483 0.008299,-0.003024 0,0.00446 -0.006224,0.0119931 -0.0138319,0.01674 -0.0208744,0.0130257 -0.00321,0.0117115 0.0337167,-0.002509 0.034933,-0.0134508 0.0401279,-0.0180486 0.0303504,-0.0268633 -0.005827,-0.005253 -0.0248924,0.003446 -0.0410145,0.01872 -0.006565,0.006218 -0.00682,0.005378 -0.002315,-0.007633 0.002783,-0.008041 0.008289,-0.0146202 0.0122308,-0.0146202 0.003942,0 0.010338,-0.003987 0.014214,-0.00886 0.005263,-0.006618 0.0143014,-0.003476 0.035719,0.0124178 0.0572259,0.0424676 0.10368869,0.0417468 0.17701002,-0.002747 0.0131204,-0.007962 0.0184341,-0.006778 0.0339095,0.007553 0.010093,0.009346 0.0329669,0.0215039 0.0508312,0.0270167 0.0421564,0.0130091 0.0423492,0.0131765 0.0415588,0.0360747 -0.001769,0.0511236 1.2222e-4,0.0652906 0.009364,0.0707464 0.005067,0.00299 0.009221,0.008721 0.009221,0.0127356 0,0.004013 -0.004148,0.005435 -0.009221,0.003157 -0.0110083,-0.004944 -0.0102336,-0.0178305 -0.009658,0.16061738 3.2603e-4,0.10593075 -6.9776e-4,0.14204881 -0.004166,0.14498426 -0.002542,0.002151 -0.2000135,0.004956 -0.43882948,0.006235 l -0.43421059,0.002323 -0.002209,-0.0236488 z m 0.87247571,-0.0167306 0,-0.0237787 -0.0470261,2.0431e-4 C 0.8581408,0.69042666 0.8307005,0.68829515 0.8230263,0.68558315 0.7918894,0.67456855 0.7509342,0.65259865 0.7308474,0.63613415 0.7186496,0.62613515 0.7052528,0.62074925 0.6994967,0.62352845 c -0.005529,0.002671 -0.0233291,0.006892 -0.0395579,0.009383 -0.0625477,0.009603 -0.0854109,0.01349 -0.10142888,0.0172431 -0.009129,0.002139 -0.0348541,0.00634 -0.0571676,0.009334 -0.0223137,0.002995 -0.0416832,0.007061 -0.0430438,0.009037 -0.001359,0.001976 -0.0353858,0.003817 -0.0756118,0.004098 -0.0728432,5.0268e-4 -0.11626198,-0.0109733 -0.16719112,-0.0441916 -0.0285093,-0.0185952 -0.009088,-0.0194148 0.0229959,-9.709e-4 0.03475,0.0199771 0.0809482,0.0339221 0.058147,0.0175515 -0.0667902,-0.0479524 -0.0995848,-0.0620496 -0.0995848,-0.0428079 0,0.003578 -0.007884,0.006115 -0.0175196,0.005633 -0.009636,-4.8138e-4 -0.0357767,0.002565 -0.0580912,0.006767 -0.02231415,0.004204 -0.0443057,0.007908 -0.04887031,0.008232 -0.0077368,5.4954e-4 -0.0082985,0.004437 -0.0082985,0.057346 l 4.6e-7,0.0567575 0.43337839,3.6602e-4 0.43337795,3.6602e-4 0,-0.0237787 z M 0.8334889,0.67270194 c -0.001147,-0.004351 -0.009127,-0.0106832 -0.0177373,-0.0140707 -0.008611,-0.003386 -0.0264443,-0.0145414 -0.03963,-0.0247862 -0.015432,-0.0119897 -0.0285739,-0.016881 -0.0368834,-0.0137273 l -0.0129097,0.004899 0.0110649,0.005738 c 0.006086,0.003157 0.0301521,0.0153525 0.0534807,0.0271032 0.0233287,0.0117507 0.0429288,0.0216777 0.0435553,0.0220603 6.2647e-4,3.8242e-4 2.0442e-4,-0.002867 -9.3962e-4,-0.007217 z m 0.0210799,0.002228 c -0.002498,-0.002373 -0.007477,-0.002518 -0.0110653,-3.2009e-4 -0.003588,0.002198 -0.001546,0.004141 0.00454,0.004316 0.006086,1.7483e-4 0.009022,-0.001623 0.006525,-0.003996 z M 0.9181221,0.6745388 C 0.8878722,0.664337 0.8496342,0.6458978 0.8314464,0.6327413 0.8083553,0.616038 0.7685738,0.6054924 0.7742772,0.6175865 c 0.004917,0.0104271 0.072414,0.0471981 0.0886167,0.0482771 0.007047,4.6859e-4 0.0128125,0.003003 0.0128125,0.005635 4e-7,0.002628 0.0120335,0.005229 0.0267409,0.005776 0.0147066,5.4527e-4 0.0217604,-6.8586e-4 0.0156747,-0.002735 z M 0.33260014,0.65730926 c -0.003551,-0.002181 -0.00936,-0.002181 -0.0129097,0 -0.003551,0.002181 -6.3867e-4,0.003962 0.006454,0.003962 0.0071,0 0.010004,-0.001785 0.006454,-0.003962 z m 0.0414936,-0.002692 c 0,-0.004766 -0.004564,-0.008276 -0.0101427,-0.007801 l -0.0101427,8.6452e-4 0.009221,0.006938 c 0.005072,0.003817 0.009636,0.007326 0.0101427,0.007802 5.0036e-4,4.7712e-4 9.19e-4,-0.003038 9.19e-4,-0.007802 z m 0.0286276,0.002713 c -0.003527,-0.002168 -0.0101647,-0.002249 -0.0147542,-1.7479e-4 -0.004588,0.00207 -0.001705,0.003846 0.006412,0.003944 0.008115,9.567e-5 0.0118688,-0.001602 0.008342,-0.00377 z m 0.52830998,0.002373 c 0,-0.002122 -0.009543,-0.008324 -0.0212083,-0.0137865 -0.0116645,-0.005462 -0.0303366,-0.0171427 -0.0414936,-0.025957 -0.0190479,-0.0150483 -0.0552053,-0.0228283 -0.0500747,-0.0107748 0.002811,0.006604 0.001366,0.005746 0.0516546,0.0306705 0.0408875,0.0202651 0.0611215,0.0268352 0.0611215,0.0198476 z m -0.57906749,-0.011706 c 0,-0.003642 -0.0142404,-0.0142671 -0.031646,-0.0236139 -0.0174053,-0.009347 -0.032441,-0.0200155 -0.0334128,-0.0237084 -0.002462,-0.009364 -8.9066e-4,-0.008829 0.0291658,0.00994 0.026699,0.0166709 0.10457051,0.0448786 0.11873263,0.043009 0.004138,-5.4527e-4 -0.005754,-0.00624 -0.0219818,-0.0126525 -0.0162284,-0.006412 -0.0319963,-0.0131381 -0.0350392,-0.0149457 -0.003043,-0.001806 -0.0121714,-0.006475 -0.0202858,-0.0103705 -0.008115,-0.003898 -0.0200942,-0.0123211 -0.0266217,-0.0187221 -0.0136912,-0.0134257 -0.0489889,-0.0157222 -0.0489889,-0.003186 0,0.005005 -0.003385,0.005674 -0.008299,0.00164 -0.004564,-0.003744 -0.0103737,-0.006086 -0.0129093,-0.005201 -0.002535,8.8647e-4 -0.008207,0.002096 -0.0126022,0.002692 -0.004394,5.9639e-4 -0.007259,0.002803 -0.006363,0.004906 0.001567,0.003677 0.0765281,0.0436595 0.0954989,0.0509367 0.005072,0.001947 0.0104657,0.004068 0.0119871,0.004717 0.001513,6.4751e-4 0.002766,-0.001797 0.002766,-0.00544 z m 0.12452409,-0.007999 c -0.003527,-0.002168 -0.0101647,-0.002249 -0.0147542,-1.7479e-4 -0.004588,0.002074 -0.001705,0.003846 0.006412,0.003944 0.008115,9.572e-5 0.0118687,-0.001602 0.008342,-0.00377 z m -0.058134,-0.0249988 c -0.0192717,-0.0113481 -0.037901,-0.0219239 -0.0413987,-0.0235014 -0.003498,-0.001576 -0.007508,-0.005568 -0.008913,-0.008868 -0.001403,-0.003301 -0.0116828,-0.006 -0.0228401,-0.006 -0.0111573,0 -0.019351,0.002194 -0.0182083,0.00488 0.002791,0.006563 0.0591322,0.0388228 0.0821397,0.0470335 0.0393866,0.0140562 0.0441667,0.007035 0.009221,-0.0135437 z m 0.0725824,0.004798 c -0.0199229,-0.008721 -0.0475667,-0.0239517 -0.06143,-0.033845 -0.0217767,-0.01554 -0.0635363,-0.0255202 -0.0586391,-0.0140145 0.00744,0.0174799 0.10834661,0.0626769 0.141539,0.063397 0.008907,1.9118e-4 4.0569e-4,-0.005964 -0.02147,-0.0155374 z m 0.44009506,0.007381 c 0,-0.00556 -9.1042e-4,-0.007961 -0.002036,-0.005333 -0.001117,0.002628 -0.0102645,-0.002573 -0.0203254,-0.0115534 -0.0195498,-0.0174518 -0.0477203,-0.0219763 -0.0477203,-0.007664 0,0.004766 0.003734,0.008837 0.008299,0.009048 0.004564,2.1198e-4 0.0165974,0.005796 0.0267405,0.0124132 0.0231122,0.0150777 0.0350392,0.0161295 0.0350392,0.003093 z m -0.37067701,-0.007221 -0.0147542,-0.006206 0.0177373,-0.001231 c 0.009756,-6.7733e-4 0.0169232,0.001866 0.0159282,0.005646 -9.963e-4,0.003783 0.0117703,0.003702 0.0283668,-1.8357e-4 0.016597,-0.003881 0.0335609,-0.005157 0.0376992,-0.002837 0.005407,0.003033 0.007668,-2.8734e-4 0.008037,-0.0118074 4.0574e-4,-0.012382 -0.002941,-0.0173283 -0.014687,-0.0217394 -0.0173162,-0.006505 -0.0516245,-0.0316055 -0.0496243,-0.0363051 0.001705,-0.004 0.0803051,0.0375865 0.0829971,0.0439111 0.001106,0.002611 -0.001989,0.00514 -0.006891,0.005615 l -0.008913,8.6453e-4 0.009221,0.006938 c 0.005072,0.003817 0.0150304,0.006742 0.0221298,0.006503 0.0106516,-3.5835e-4 0.0111353,-0.001065 0.002766,-0.004042 -0.005578,-0.001985 -0.0101427,-0.006632 -0.0101427,-0.0103257 0,-0.003694 0.007469,-0.004052 0.0165978,-7.9662e-4 0.009129,0.003255 0.0165974,0.002811 0.0165974,-9.8018e-4 0,-0.003796 -0.006223,-0.009365 -0.0138319,-0.0123782 -0.007607,-0.003011 -0.0254493,-0.0134573 -0.0396494,-0.0232079 -0.0333566,-0.022905 -0.04915,-0.0263087 -0.0829873,-0.017885 l -0.0276623,0.006887 0.0258186,0.0154867 c 0.0293969,0.0176333 0.0376069,0.0220142 0.0608574,0.0324741 0.0133076,0.005987 0.0114786,0.006506 -0.009221,0.00262 -0.0142001,-0.002667 -0.0390962,-0.0146471 -0.0553248,-0.0266236 -0.0162288,-0.0119765 -0.0353158,-0.0214158 -0.0424156,-0.0209761 -0.0071,4.3877e-4 -0.021208,9.8441e-4 -0.0313507,0.001206 -0.030444,6.7307e-4 -0.0360049,0.009338 -0.0147058,0.0229152 0.0101162,0.006448 0.0275223,0.0160008 0.0386792,0.021227 0.0111573,0.005226 0.0211157,0.0115467 0.0221303,0.0140464 0.002123,0.005233 -0.0365231,-0.004598 -0.040441,-0.010287 -0.00142,-0.002074 -0.008264,-0.006027 -0.015194,-0.008789 -0.0208053,-0.008291 -0.0254941,-0.0135266 -0.0257991,-0.0288119 -1.5601e-4,-0.008019 -9.963e-4,-0.0105809 -0.001875,-0.005693 -8.7434e-4,0.004888 -0.008027,0.007444 -0.0159001,0.00568 -0.0250856,-0.00562 -0.0294119,0.002274 -0.009595,0.0175089 0.0294115,0.022611 0.0955257,0.048278 0.12355908,0.0479681 l 0.0165973,-1.8442e-4 -0.0147542,-0.006206 z m 0.001847,-0.0223878 c -0.0319455,-0.0156409 -0.0525697,-0.0303003 -0.0502605,-0.035725 0.001172,-0.002739 0.0175164,0.003396 0.0363336,0.0136306 0.0188169,0.0102372 0.0416815,0.0221829 0.0508101,0.026546 l 0.0165978,0.007934 -0.0165978,-0.001227 c -0.009129,-6.7307e-4 -0.0257263,-0.005695 -0.0368832,-0.0111582 z m -0.45531838,-0.001415 c 0.008951,0.002368 0.0154953,0.001355 0.0145451,-0.002262 -9.5164e-4,-0.003613 -0.0112944,-0.009208 -0.02298528,-0.0124305 -0.011691,-0.003225 -0.024161,-0.007841 -0.02771067,-0.0102618 -0.0035515,-0.00242 -0.0064536,-2.3711e-4 -0.0064536,0.004848 0,0.005088 0.0045641,0.009833 0.0101427,0.0105477 l 0.01014269,0.001299 -0.01020539,0.003625 c -0.0056128,0.001993 -0.0093112,0.007025 -0.0082169,0.011182 0.0011062,0.004188 0.0070016,0.00345 0.01322951,-0.001649 0.0061822,-0.005063 0.01856384,-0.007267 0.02751381,-0.004898 z m 0.82415053,0.006474 c 0,-0.004766 -0.005394,-0.008606 -0.0119874,-0.008533 -0.009096,9.986e-5 -0.0106527,0.00216 -0.00645,0.008533 0.007249,0.0110065 0.0184419,0.0110065 0.0184419,0 z M 0.16508973,0.59084903 c 0.008453,0.003038 0.0143278,0.002863 0.0130562,-3.9553e-4 -0.002579,-0.0066 -0.0103566,-0.0100561 -0.0401022,-0.0178233 C 0.12688647,0.5697162 0.10613978,0.5601059 0.09193964,0.5512729 0.06621531,0.5352712 0.05982902,0.5350279 0.06636707,0.55029778 c 0.0034656,0.008096 0.01019277,0.0115432 0.0440142,0.0225544 0.0301816,0.009826 0.0331,0.0117754 0.0347194,0.0231887 0.001232,0.008675 0.001863,0.008695 0.003083,9.985e-5 0.001078,-0.007575 0.006145,-0.009162 0.0169049,-0.005293 z m 0.5962814,-0.001218 c 0.003896,-0.0110337 0.002991,-0.0130444 -0.006003,-0.0133065 -0.0100649,-2.9173e-4 -0.0396226,-0.0159898 -0.0677637,-0.0359857 -0.007099,-0.005045 -0.0220379,-0.0105856 -0.0331947,-0.0123126 l -0.0202858,-0.00314 0.0143937,0.0128796 c 0.007916,0.007083 0.0273568,0.0190506 0.0432002,0.0265924 0.0404801,0.0192704 0.0407517,0.0193816 0.0530556,0.0216892 0.007212,0.001355 0.004002,0.004106 -0.009221,0.007916 l -0.0202858,0.005841 0.020756,0.00141 c 0.014534,9.8863e-4 0.0221328,-0.002484 0.025348,-0.0115854 z m 0.0289781,0.003382 c -0.002751,-0.004098 -0.009154,-0.00745 -0.014225,-0.00745 -0.006566,0 -0.00778,0.002147 -0.004217,0.00745 0.002751,0.004098 0.009153,0.00745 0.014225,0.00745 0.006566,0 0.00778,-0.002147 0.004217,-0.00745 z m 0.0460616,-0.0145445 c -0.00129,-0.0115547 -0.009667,-0.0195848 -0.0329625,-0.0315847 -0.0171806,-0.00885 -0.0321148,-0.0194246 -0.0331868,-0.0234997 -0.00269,-0.0102345 1.223e-4,-0.009427 0.0316815,0.009081 0.0152143,0.008923 0.0351311,0.0190711 0.0442597,0.0225519 0.009129,0.00348 0.0190873,0.007326 0.0221303,0.008546 0.003043,0.001218 0.0154909,0.00446 0.0276623,0.007202 0.0169839,0.003825 0.0191276,0.003195 0.009221,-0.002709 -0.007099,-0.00423 -0.0203777,-0.009852 -0.0295063,-0.0124898 -0.0197297,-0.005701 -0.0353039,-0.0148515 -0.0627018,-0.0368368 -0.0147537,-0.0118393 -0.0245617,-0.0145572 -0.0359651,-0.009967 -0.008624,0.003472 -0.0214997,0.004986 -0.0286133,0.003365 -0.0138333,-0.003148 -0.0209719,0.008112 -0.0101632,0.0160324 0.0243835,0.0178701 0.0677684,0.0395602 0.0793525,0.0396713 0.007668,7.907e-5 0.0138312,0.004432 0.0138312,0.009782 0,0.006419 -0.005864,0.008016 -0.0175196,0.004772 -0.012088,-0.003365 -0.0146607,-0.002594 -0.008298,0.002484 0.005072,0.004052 0.0144596,0.007751 0.0208626,0.008226 0.009453,7.029e-4 0.0113176,-0.002049 0.009917,-0.0146304 z M 0.20074537,0.57762485 c -0.003043,-0.003927 -0.0172231,-0.0115143 -0.0315114,-0.0168537 -0.0142892,-0.00534 -0.0379474,-0.018875 -0.0525749,-0.0300784 -0.0146277,-0.0112037 -0.03155046,-0.0186616 -0.03760643,-0.0165734 -0.01172355,0.004042 -0.01171135,0.0191861 1.464e-5,0.0191861 0.0038401,0 0.01660345,0.005956 0.02836686,0.0132361 0.0117625,0.00728 0.0305164,0.0155442 0.0416738,0.0183648 0.0111573,0.00282 0.0269244,0.008134 0.0350392,0.0118099 0.020093,0.0091 0.0230658,0.009262 0.0165974,9.0758e-4 z m 0.59223491,-8.69e-6 c -0.001112,-0.004226 -0.008263,-0.0103436 -0.0158929,-0.0135961 -0.0236168,-0.0100671 -0.0527731,-0.0317078 -0.0511309,-0.0379512 8.5835e-4,-0.003267 -0.007832,-0.007127 -0.019316,-0.008573 -0.0114847,-0.001445 -0.0225399,-0.006689 -0.0245682,-0.0116523 -0.002542,-0.006224 3.2773e-4,-0.007233 0.009221,-0.00325 0.009514,0.004252 0.0114538,0.003386 0.007376,-0.003288 -0.003043,-0.004982 -0.009336,-0.009118 -0.0139861,-0.009191 -0.0104723,-1.6605e-4 -0.0620277,-0.0240722 -0.0745333,-0.0345632 -0.009957,-0.008353 -0.0497747,-0.0189637 -0.0470383,-0.012535 0.002636,0.006194 0.0389875,0.0261575 0.0691681,0.0379861 0.0367697,0.0144106 0.040175,0.0186544 0.011065,0.0137891 -0.013186,-0.002203 -0.0405716,-0.0145009 -0.0608573,-0.0273268 -0.0409053,-0.0258636 -0.0719224,-0.035687 -0.0719224,-0.0227793 0,0.004602 0.005395,0.0107095 0.0119871,0.0135714 0.006593,0.002863 0.0268405,0.0131207 0.0449949,0.0227972 0.0181542,0.009676 0.0384859,0.0175933 0.0451822,0.0175933 0.006696,0 0.0121824,0.002926 0.0121934,0.006499 1.094e-5,0.003574 0.0114661,0.006611 0.0254587,0.006749 0.013991,1.3764e-4 0.0293354,0.004567 0.0340978,0.009844 0.0131921,0.0146177 0.0346421,0.0280664 0.073204,0.0458979 0.0192716,0.008911 0.0355523,0.0165312 0.0361787,0.0169325 6.2728e-4,4.0313e-4 2.4499e-4,-0.002726 -8.795e-4,-0.006952 z m 0.0716641,-0.001176 c -0.0124297,-0.009093 -0.026673,-0.0100685 -0.0244652,-0.001674 9.8428e-4,0.00374 0.008965,0.007164 0.0177368,0.007609 0.0127482,6.4753e-4 0.0140988,-5.4101e-4 0.006728,-0.005934 z m 0.023052,0.003119 c -0.002535,-0.002403 -0.006685,-0.002403 -0.009221,0 -0.002535,0.002403 -4.5968e-4,0.004371 0.00461,0.004371 0.005072,0 0.007146,-0.001968 0.00461,-0.004371 z m -0.64084673,-0.01594 c -0.0499659,-0.0168209 -0.0593312,-0.0213471 -0.0818765,-0.03957 -0.0219606,-0.0177508 -0.0600816,-0.0237301 -0.0482852,-0.007573 0.00745,0.010203 0.0896871,0.0492269 0.11356444,0.0538891 0.0388488,0.007586 0.048055,0.003842 0.0165974,-0.006746 z m 0.0507847,-0.001333 c -0.002498,-0.002373 -0.007477,-0.002518 -0.0110653,-3.2009e-4 -0.003588,0.002198 -0.001546,0.004141 0.004541,0.004316 0.006086,1.7478e-4 0.009022,-0.001623 0.006524,-0.003996 z m 0.052304,-0.002066 c -0.001928,-0.004263 -0.012435,-0.0101962 -0.0233494,-0.0131855 -0.0254139,-0.006959 -0.0665465,-0.0294947 -0.075975,-0.0416241 -0.006902,-0.008879 -0.0560613,-0.0184235 -0.0525635,-0.0102056 0.005772,0.0135595 0.0713852,0.0459854 0.12809825,0.0633053 0.0131855,0.004025 0.0247212,0.007803 0.025634,0.008391 9.19e-4,5.8787e-4 8.144e-5,-0.00242 -0.001843,-0.006681 z m 0.58109607,-2.7148e-4 c -0.00304,-0.004123 -0.013292,-0.009922 -0.0227758,-0.0128898 -0.009484,-0.002969 -0.0244213,-0.0114712 -0.0331948,-0.0188968 -0.0233661,-0.0197756 -0.0287826,-0.0227793 -0.049147,-0.027254 -0.0208326,-0.004578 -0.0205218,0.003604 6.3054e-4,0.0165883 0.0186204,0.0114291 0.0974196,0.0486748 0.10448726,0.0493877 0.004921,4.9415e-4 0.004921,-2.7422e-4 0,-0.006936 z M 0.25975784,0.54877484 c -0.009129,-0.004643 -0.0302772,-0.0180491 -0.0469971,-0.0297891 -0.0177315,-0.0124506 -0.0369442,-0.0202345 -0.0461041,-0.0186782 -0.013838,0.002351 -0.0106626,0.005477 0.0267116,0.0262968 0.0233287,0.0129959 0.0482249,0.0250448 0.0553252,0.0267752 0.0235532,0.005741 0.0278697,0.003944 0.0110653,-0.004605 z m 0.12263715,-0.003881 c -0.002535,-0.002403 -0.006685,-0.002403 -0.009221,0 -0.002535,0.002403 -4.6782e-4,0.004371 0.004611,0.004371 0.005072,0 0.007145,-0.001968 0.004611,-0.004371 z m -0.0617798,-0.0303974 c -0.039802,-0.0261605 -0.0870523,-0.0422371 -0.0756105,-0.0257255 0.005198,0.0075 0.0608933,0.0400855 0.0811431,0.0474727 0.032888,0.0119978 0.0302935,0.001802 -0.005533,-0.0217471 z m 0.0958968,0.0218843 c -0.0460302,-0.0223158 -0.0797682,-0.0407193 -0.0903642,-0.0492922 -0.0071,-0.005744 -0.0195479,-0.008912 -0.0276623,-0.007039 l -0.0147542,0.003404 0.0202858,0.011962 c 0.0422905,0.0249378 0.0889347,0.0439399 0.10880557,0.0443258 0.006138,1.2017e-4 0.007782,-0.001376 0.00369,-0.003361 z m 0.0571689,-0.00308 c 0,-0.004766 -0.001249,-0.007869 -0.002766,-0.006897 -0.004382,0.002803 -0.0422215,-0.0104719 -0.0544027,-0.019083 -0.061455,-0.0434426 -0.0635346,-0.0444527 -0.0759179,-0.0368773 -0.0120746,0.007386 -0.0112134,0.008482 0.0205925,0.026183 0.0336576,0.0187315 0.0453736,0.023596 0.0801929,0.0332955 0.0106654,0.002969 0.0200836,0.006897 0.020929,0.008723 0.003169,0.006846 0.0113724,0.00299 0.0113724,-0.005344 z m 0.019434,0.002982 c -0.002498,-0.002373 -0.007477,-0.002518 -0.0110649,-3.2009e-4 -0.003588,0.002198 -0.001546,0.004141 0.004539,0.004316 0.006086,1.7479e-4 0.009022,-0.001623 0.006524,-0.003996 z m 0.43791891,-0.002816 c 0,-0.004676 -0.004561,-0.0107948 -0.0101434,-0.0135987 -0.005574,-0.002803 -0.0167817,-0.0105298 -0.024896,-0.0171677 -0.0155271,-0.0127016 -0.0387276,-0.0147493 -0.0387276,-0.003417 0,0.006566 0.054724,0.0407291 0.0673119,0.042022 0.003547,3.6597e-4 0.00645,-0.003161 0.00645,-0.007837 z M 0.5092839,0.51937524 c -0.0353008,-0.0129354 -0.0904092,-0.042624 -0.0937683,-0.0505159 -0.003503,-0.008222 0.004193,-0.005564 0.0326793,0.0112932 0.0150316,0.008895 0.0414381,0.0208163 0.058681,0.0264914 0.017243,0.005675 0.0344944,0.0118266 0.0383366,0.0136703 0.003844,0.001845 0.005502,2.3706e-4 0.00369,-0.003565 -0.001814,-0.003804 -0.019065,-0.0137456 -0.0383367,-0.0220888 -0.0192717,-0.008343 -0.0419661,-0.0222068 -0.0504323,-0.0308085 -0.008465,-0.008602 -0.0159587,-0.0143097 -0.016651,-0.0126841 -0.001232,0.002892 -0.0382158,0.0108403 -0.0601641,0.0129298 -0.0332985,0.003169 0.10307655,0.0668066 0.14384457,0.0671225 0.008359,6.241e-5 6.102e-4,-0.005068 -0.0178779,-0.0118431 z m 0.0666716,2.599e-5 c -0.001232,-0.00288 -0.004407,-0.003186 -0.007069,-6.8586e-4 -0.002941,0.002765 -0.002066,0.004819 0.00223,0.005235 0.003889,3.7471e-4 0.006067,-0.00167 0.004841,-0.004551 z M 0.5990844,0.50661153 C 0.564533,0.49412083 0.5391491,0.48085663 0.5154388,0.46290373 0.5018066,0.45258183 0.4855053,0.44672013 0.4748672,0.44831503 c -0.0176847,0.002649 -0.0175892,0.002782 0.0172556,0.0235695 0.0431168,0.0257222 0.0844152,0.0416135 0.10880551,0.0418679 l 0.0184418,1.9123e-4 -0.0202858,-0.007333 z m 0.33194946,-0.00754 c 0,-0.0145082 -0.002345,-0.016654 -0.0165919,-0.0151642 -0.0166576,0.001743 -0.0238502,0.0146173 -0.008305,0.0148656 0.004561,7.076e-5 0.0107884,0.003911 0.0138314,0.008533 0.00828,0.0125682 0.011065,0.0104944 0.011065,-0.008234 z m -0.8317179,-4.2998e-4 c -0.0012488,-0.004766 -1.222e-4,-0.008784 0.0025466,-0.008929 0.009408,-5.1545e-4 -0.0059108,-0.0146325 -0.02218351,-0.0204449 -0.01050471,-0.003753 -0.0151504,-0.002671 -0.01361352,0.003174 0.0012815,0.004878 0.007011,0.00887 0.0127287,0.00887 0.0057176,0 0.01246184,0.005849 0.01498644,0.012998 0.0051602,0.0146092 0.0090334,0.0176422 0.005532,0.004333 z m -0.02305167,-0.005739 c -0.0025346,-0.002403 -0.0066847,-0.002403 -0.0092205,0 -0.0025346,0.002403 -4.6782e-4,0.004371 0.0046113,0.004371 0.0050717,0 0.007145,-0.001968 0.0046113,-0.004371 z m 0.65928853,-0.004171 c -0.009129,-0.004305 -0.0323653,-0.0160989 -0.0516367,-0.026209 -0.0192716,-0.0101102 -0.0433381,-0.0196103 -0.0534808,-0.021112 l -0.0184418,-0.00273 0.0160742,0.0123701 c 0.008841,0.006804 0.0229491,0.0148686 0.0313507,0.0179217 0.008402,0.003055 0.0285543,0.0105302 0.0447832,0.016616 0.0337138,0.0126419 0.0562932,0.0149057 0.0313507,0.003144 z m -0.60949634,-0.00473 c -0.003551,-0.002181 -0.00936,-0.002181 -0.0129093,0 -0.003551,0.002181 -6.3867e-4,0.003962 0.006454,0.003962 0.0071,0 0.010004,-0.001785 0.006454,-0.003962 z m 0.64453531,-0.0034 c -0.0101432,-0.004042 -0.0342091,-0.0175115 -0.0534808,-0.0299344 -0.0401587,-0.0258865 -0.0663899,-0.0353139 -0.0663899,-0.0238601 0,0.008684 0.0220257,0.0227176 0.0590133,0.0376002 0.013186,0.005306 0.0306132,0.0127603 0.0387274,0.0165662 0.008115,0.003804 0.0205622,0.006932 0.0276625,0.006947 0.0103759,2.602e-5 0.00929,-0.001414 -0.005533,-0.00732 z m 0.0608574,0.001555 c -0.003039,-0.004008 -0.0160608,-0.009975 -0.0289282,-0.0132556 -0.0128681,-0.00328 -0.0275882,-0.009709 -0.0327119,-0.0142862 -0.005123,-0.004577 -0.0204961,-0.0120463 -0.0341614,-0.0165998 -0.0136648,-0.004553 -0.0275756,-0.0107398 -0.0309118,-0.0137473 -0.003336,-0.003007 -0.006065,-0.001666 -0.006065,0.002982 0,0.004649 0.006225,0.0108207 0.0138319,0.0137171 0.007607,0.002897 0.0221298,0.009417 0.032273,0.0144907 0.0101429,0.005074 0.0250805,0.0115305 0.0331949,0.014348 0.008115,0.002816 0.0230518,0.008021 0.033195,0.0115649 0.0256609,0.008964 0.0265163,0.008997 0.0202858,7.8383e-4 z M 0.18072061,0.46177305 c 5.1663e-4,-0.008363 -4.2308e-4,-0.01324 -0.002075,-0.0108378 -0.001656,0.002403 -0.0131266,0.001116 -0.0254944,-0.002859 -0.0123679,-0.003975 -0.0224866,-0.004585 -0.0224866,-0.001359 0,0.003225 0.011204,0.009792 0.024896,0.0145917 0.0209887,0.007357 0.0225147,0.008931 0.009724,0.0100313 -0.0147367,0.00127 -0.0261034,-0.003007 -0.07432736,-0.0279688 -0.01414396,-0.007321 -0.02394619,-0.008781 -0.02526543,-0.003765 -0.0035515,0.0135028 -0.0034415,0.0135654 0.05206363,0.0297567 0.0101427,0.002961 0.0192053,0.007028 0.0201394,0.009041 9.3532e-4,0.002015 0.0107407,0.002518 0.021793,0.001116 0.0158481,-0.002007 0.0202928,-0.005758 0.0210303,-0.01775 z m 0.70505419,0.0143029 c -0.001225,-0.00288 -0.004407,-0.003186 -0.007069,-6.8586e-4 -0.002945,0.002765 -0.002066,0.004819 0.002229,0.005235 0.003889,3.7475e-4 0.006066,-0.00167 0.004842,-0.004551 z m -0.68034958,-0.009114 c -0.002498,-0.002373 -0.007477,-0.002518 -0.0110653,-3.2014e-4 -0.003588,0.002198 -0.001546,0.004141 0.004539,0.004316 0.006086,1.7479e-4 0.009021,-0.001623 0.006524,-0.003996 z m 0.0569055,1.7478e-4 c -7.0376e-4,-0.001666 -0.0157858,-0.008965 -0.0335051,-0.0162245 -0.021896,-0.008971 -0.0342133,-0.0104642 -0.0384481,-0.004661 -0.004663,0.006389 -0.001293,0.008604 0.0133511,0.008802 0.0107704,1.4531e-4 0.0188237,0.003186 0.0178975,0.006763 -9.19e-4,0.003574 0.008144,0.006914 0.0201544,0.007424 0.0120108,5.1119e-4 0.0212581,-4.3878e-4 0.0205498,-0.002101 z m 0.0260546,-4.4303e-4 c -0.003527,-0.002168 -0.0101647,-0.002249 -0.0147542,-1.7483e-4 -0.004588,0.002074 -0.001705,0.003846 0.006412,0.003944 0.008115,9.568e-5 0.0118688,-0.001602 0.008342,-0.00377 z m 0.56795951,-3.5835e-4 c -0.009797,-0.002407 -0.0139165,-0.007669 -0.0141228,-0.0180401 -1.6226e-4,-0.009021 -0.001005,-0.0104833 -0.002151,-0.003808 -0.002136,0.0124357 -0.0182307,0.0147135 -0.0213081,0.003016 -0.004184,-0.0159042 0.0400033,-0.0199869 0.0632366,-0.005843 0.0123402,0.007512 0.0288359,0.0133103 0.0366575,0.0128838 l 0.0142204,-7.7531e-4 -0.0184414,-0.0133375 c -0.0176152,-0.0127399 -0.0255819,-0.0155071 -0.0655584,-0.0227742 -0.0274922,-0.004998 -0.0240381,-0.011271 0.009249,-0.0167979 0.0167702,-0.002786 0.0333957,-0.007684 0.0369459,-0.0108898 0.003617,-0.003263 0.006454,-0.00184 0.006454,0.003242 0,0.004989 -0.005394,0.0107658 -0.0119871,0.0128395 -0.006593,0.002074 -7.2409e-4,0.00282 0.0130407,0.001657 0.0242533,-0.002049 0.0321191,-0.007321 0.0274117,-0.0183817 -0.001245,-0.002935 -0.007498,-0.001052 -0.0138941,0.004183 -0.00982,0.008042 -0.0112984,0.007525 -0.009525,-0.003331 0.003367,-0.0205948 -0.0238624,-0.0168507 -0.10094257,0.0138815 -0.0111572,0.004448 -0.0277545,0.009939 -0.0368831,0.0122002 l -0.0165977,0.004111 0.0184417,-0.0110721 c 0.0101428,-0.00609 0.0160746,-0.0130794 0.0131813,-0.0155323 -0.004984,-0.004226 -0.0284442,0.002624 -0.0611296,0.0178459 -0.0144857,0.006746 -0.0143669,0.006891 0.006454,0.007956 0.0116645,5.964e-4 0.0212077,0.004725 0.0212077,0.009176 0,0.00445 0.003734,0.006721 0.008298,0.005047 0.004564,-0.001674 0.0183956,-0.005359 0.0307362,-0.008186 0.0185228,-0.004243 0.0224371,-0.002859 0.0224371,0.007951 0,0.009374 -0.004276,0.0133844 -0.0150607,0.0141197 -0.0128178,8.7297e-4 -0.011216,0.002637 0.0107574,0.011827 0.0142001,0.00594 0.0341173,0.0106716 0.0442601,0.0105144 0.0147107,-2.2834e-4 0.0156434,-9.7512e-4 0.00461,-0.003685 z m -0.54495047,-0.005759 c 0,-0.00822 -0.0110401,-0.0123628 -0.0130078,-0.004882 -0.0012,0.004558 0.001232,0.008287 0.005415,0.008287 0.004178,0 0.007594,-0.001533 0.007594,-0.003404 z m 0.56246983,-0.009251 c -0.0121714,-0.005739 -0.0237895,-0.008164 -0.0258179,-0.005388 -0.00203,0.002778 0.003779,0.007386 0.0129089,0.0102448 0.0284807,0.008919 0.0360688,0.006063 0.0129089,-0.004857 z M 0.25053707,0.43313553 c -0.0421164,-0.0237122 -0.0580822,-0.0252808 -0.0866756,-0.008517 l -0.0202858,0.0118939 0.0151724,7.3698e-4 c 0.008345,4.0316e-4 0.0240048,-0.003199 0.0348008,-0.008009 0.0110543,-0.004925 0.020538,-0.005443 0.0217112,-0.001185 0.001139,0.004158 0.0137005,0.011464 0.0279011,0.0162339 0.0434321,0.0145891 0.046056,0.0106209 0.007376,-0.011156 z m 0.0642357,0.009105 c 0.00727,0.001218 0.009456,4.9842e-4 0.004858,-0.001606 -0.004598,-0.002105 -0.007659,-0.006485 -0.006799,-0.009735 8.5835e-4,-0.00325 -0.007825,-0.004141 -0.0193014,-0.001976 -0.0122666,0.002313 -0.0166588,0.005233 -0.0106593,0.007088 0.00601,0.001857 0.009214,0.006925 0.007793,0.012328 -0.001672,0.006359 -3.745e-4,0.006491 0.004238,4.3026e-4 0.003657,-0.004809 0.0125989,-0.007745 0.01987,-0.006525 z m 0.0510905,0.006886 c -0.005542,-0.001976 -0.0155014,-0.002019 -0.0221298,-8.737e-5 -0.006629,0.00193 -0.002095,0.003544 0.0100772,0.003596 0.0121714,4.993e-5 0.0175956,-0.001529 0.012053,-0.003506 z m 0.0377395,-0.0118858 c -0.004254,-0.007031 -0.002803,-0.008365 0.006259,-0.005768 0.006485,0.001857 0.0109526,1.8356e-4 0.009924,-0.003719 -0.001029,-0.003902 0.003071,-0.007098 0.009108,-0.007098 0.006035,0 0.0115287,-0.003613 0.0122043,-0.008028 0.001851,-0.0120873 0.0447501,-0.0136677 0.0530238,-0.001955 0.005995,0.008488 0.003156,0.0100323 -0.0167552,0.009111 -0.0131855,-6.0918e-4 -0.0264638,0.001095 -0.0295067,0.003787 -0.003043,0.002692 -0.009681,0.006454 -0.0147542,0.008357 -0.005072,0.001904 0.008207,0.001504 0.0295067,-8.8141e-4 0.0213,-0.00239 0.039557,-0.006678 0.0405716,-0.009533 0.001013,-0.002854 0.005164,-0.005814 0.009221,-0.006577 0.004056,-7.6252e-4 0.0165055,-0.003565 0.0276623,-0.006226 0.0111573,-0.002663 0.0169668,-0.002637 0.0129097,6.24e-5 -0.0171783,0.0114141 -0.0114473,0.0176444 0.0133467,0.0145128 0.028015,-0.00354 0.0481556,-0.018602 0.0272245,-0.0203622 -0.006086,-5.112e-4 -0.016874,-0.002582 -0.0239739,-0.004595 -0.069015,-0.0195954 -0.11887292,-0.0169836 -0.13170663,0.006899 -0.002453,0.004564 -0.009459,0.005718 -0.0155702,0.002565 -0.006583,-0.003395 -0.0220476,7.029e-4 -0.0379563,0.010065 l -0.0268462,0.0157976 0.0221298,0.005042 c 0.0121714,0.002773 0.0237895,0.005638 0.0258183,0.006366 0.00203,7.2845e-4 0.0012,-0.00279 -0.001843,-0.007823 z m 0.0968183,-0.0398878 c 0.003551,-0.002181 0.00936,-0.002181 0.0129097,0 0.003551,0.002181 6.3868e-4,0.003962 -0.006454,0.003962 -0.0071,0 -0.010004,-0.001785 -0.006454,-0.003962 z m -0.36624459,0.0276182 c 0.0431375,-0.009677 0.0461832,-0.0180631 0.009143,-0.0251704 -0.041618,-0.007985 -0.0371712,-0.008477 -0.05875619,0.006505 -0.01793412,0.0124485 -0.01808666,0.0128259 -0.0055329,0.0137082 0.0070995,4.9842e-4 0.01531882,0.00449 0.01826564,0.008868 0.0029494,0.004378 0.0062647,0.006676 0.0073761,0.005108 0.001106,-0.001568 0.0143873,-0.005628 0.0295043,-0.009019 z m -0.0311725,-0.01298 c 0.006086,-0.003638 0.0152143,-0.007017 0.0202858,-0.007507 0.007237,-6.9863e-4 0.008032,9.118e-4 0.00369,0.007507 -0.003043,0.00462 -0.0121714,0.007998 -0.0202858,0.007507 -0.01421275,-8.603e-4 -0.01434657,-0.001137 -0.00369,-0.007507 z m 0.49139255,0.0207605 c -0.001232,-0.00288 -0.004407,-0.003186 -0.007069,-6.8585e-4 -0.002941,0.002765 -0.002066,0.004819 0.00223,0.005235 0.003889,3.747e-4 0.006067,-0.00167 0.004841,-0.004551 z M 0.30150271,0.41540506 c 0.0450639,-0.0152064 0.0640436,-0.034418 0.0264887,-0.0268127 -0.0121714,0.002467 -0.0262796,0.006977 -0.0313507,0.0100263 -0.007628,0.004586 -0.007309,0.003348 0.001843,-0.007169 l 0.0110653,-0.0127126 -0.0150597,-7.0289e-4 c -0.0173573,-8.094e-4 -0.0568619,0.016308 -0.0568619,0.0246409 0,0.003093 0.009873,0.003404 0.0219403,6.9437e-4 0.0234882,-0.005276 0.0250482,-0.001738 0.006379,0.0144626 -0.0160217,0.0139029 -0.0120294,0.0136306 0.035555,-0.002428 z m 0.0716709,-1.2018e-4 c 0.008621,-0.002892 0.0156755,-0.008436 0.0156755,-0.012316 0,-0.0107151 -0.0365646,-0.002122 -0.0553252,0.0130023 l -0.0165974,0.0133802 0.0202858,-0.004403 c 0.0111573,-0.00242 0.0273393,-0.00677 0.035961,-0.009664 z m 0.27343564,5.8788e-4 c 0.003177,-0.007466 -0.034684,-0.00259 -0.0419929,0.005408 -0.00499,0.00546 3.2768e-4,0.006519 0.0164818,0.003272 0.0131217,-0.002641 0.0246024,-0.006546 0.0255112,-0.008681 z m 0.27889142,0.004784 c 0.004861,-0.00491 0.005497,-0.007609 0.001847,-0.007923 -0.00304,-2.622e-4 -0.008022,0.003302 -0.0110641,0.007923 -0.006742,0.0102362 -9.19e-4,0.0102362 0.009221,0 z M 0.67922795,0.4067556 c -0.001232,-0.00288 -0.004407,-0.003186 -0.007069,-6.8586e-4 -0.002941,0.002765 -0.002066,0.004819 0.00223,0.005235 0.003889,3.7475e-4 0.006067,-0.00167 0.004841,-0.004551 z m 0.0544795,-0.0100518 c 0.0109387,-0.005641 0.0108982,-0.005758 -0.00369,-0.010373 -0.0161108,-0.005098 -0.0461041,0.007769 -0.0461041,0.0197781 0,0.0073 0.0274447,0.002117 0.0497922,-0.009405 z M 0.08640608,0.3946588 c 0.0041243,-0.006261 0.0020665,-0.008433 -0.0080812,-0.008533 -0.0074869,-7.071e-5 -0.01464022,0.003765 -0.01589281,0.008533 -0.0029374,0.011176 0.01661281,0.011176 0.02397385,0 z m 0.14015641,-0.002594 c 0.003043,-0.002846 0.0130016,-0.009133 0.0221303,-0.0139676 l 0.0165974,-0.008791 -0.0221298,0.003532 c -0.0333123,0.005316 -0.0582338,0.014921 -0.0541334,0.0208636 0.004502,0.006524 0.0300026,0.005413 0.0375357,-0.001636 z m 0.44099988,0.001891 c 0.0295287,-0.0126376 0.0316107,-0.0208934 0.00537,-0.0212888 -0.0119232,-1.7917e-4 -0.0208708,0.002743 -0.0198831,0.006499 9.8427e-4,0.003753 -0.003697,0.007124 -0.0104083,0.007489 -0.014932,8.0939e-4 -0.0250933,0.005065 -0.0279112,0.0116846 -0.003543,0.008323 0.0295633,0.005576 0.0528341,-0.004383 z M 0.45523902,0.3814183 0.47552482,0.3689141 0.45339452,0.3729951 c -0.0121714,0.002245 -0.0304285,0.007515 -0.0405716,0.0117136 l -0.0184418,0.007635 0.0202858,7.8809e-4 c 0.0111573,4.3452e-4 0.0294148,-0.004836 0.0405721,-0.0117136 z m 0.17150684,-0.002322 0.0221303,-0.007302 -0.0129097,-0.008744 c -0.009542,-0.006464 -0.0160046,-0.005743 -0.0247777,0.002765 -0.006527,0.00633 -0.0176335,0.01151 -0.0246788,0.01151 -0.007045,0 -0.0135805,0.002926 -0.0145214,0.006499 -0.00203,0.007709 0.0238298,0.005476 0.0547565,-0.004729 z M 0.2081207,0.3713363 0.2210304,0.3648343 0.2081207,0.3598893 c -0.0071,-0.002718 -0.0198404,3.5835e-4 -0.028312,0.006843 -0.008472,0.006483 -0.02092,0.01033 -0.0276623,0.008548 -0.010892,-0.00288 -0.0100898,-0.004038 0.007187,-0.0104042 0.0106951,-0.00394 0.0200966,-0.009636 0.0208911,-0.012656 0.00153,-0.005829 -0.0305998,8.0088e-4 -0.0643115,0.0132707 l -0.02028582,0.007503 0.02397385,0.005541 c 0.0266835,0.006167 0.0687799,0.002743 0.0885198,-0.007198 z m 0.15122152,0.006319 c -0.0103786,-0.007439 -0.006028,-0.0143945 0.0129097,-0.0206421 0.006086,-0.002007 -4.0574e-4,-0.002334 -0.0144027,-7.2419e-4 -0.0140065,0.00161 -0.0272327,0.007074 -0.0293911,0.0121443 -0.00277,0.006516 -5.7766e-4,0.007646 0.0075,0.003851 0.006765,-0.003178 0.0124476,-0.001478 0.0139333,0.004171 0.001387,0.005246 0.006145,0.00915 0.0105906,0.008675 0.007489,-8.0087e-4 0.007404,-0.001351 -0.001139,-0.007473 z m 0.0627018,-0.005092 c 0.003043,-0.001418 0.007192,-0.003429 0.009221,-0.004469 0.00203,-0.001039 -0.002949,-0.004345 -0.011065,-0.007343 -0.0154953,-0.005725 -0.0416762,0.004459 -0.047948,0.0186497 -0.003198,0.007229 0.0291121,0.00279 0.0497925,-0.006838 z m 0.41678078,0.005126 c 0.0174325,-0.005662 0.0184699,-0.006952 0.007377,-0.009173 -0.0145813,-0.002918 -0.0174077,-0.00236 -0.0405716,0.008007 l -0.0165973,0.007429 0.0147533,1.6277e-4 c 0.008115,8.738e-5 0.0238819,-0.002803 0.0350392,-0.006427 z M 0.8124065,0.3602655 c 0.004598,-0.006305 0.001802,-0.008475 -0.0111691,-0.008672 -0.009516,-1.453e-4 -0.018328,0.003638 -0.0195815,0.008401 -0.001257,0.004766 -0.009236,0.008134 -0.0177373,0.007485 -0.0100477,-7.668e-4 -0.0122307,-0.002539 -0.006237,-0.005066 0.005072,-0.002139 0.0107467,-0.007335 0.0126109,-0.0115501 0.003098,-0.007006 -0.0237435,-0.005147 -0.050537,0.003498 -0.0190707,0.006154 -0.015715,0.0164345 0.003812,0.0116702 0.0124728,-0.003042 0.0193637,-0.001449 0.0193637,0.004482 0,0.0112791 0.060261,0.00239 0.069478,-0.0102486 z m -0.70417257,-0.001865 0.0242765,-0.0102622 -0.0165973,-0.007097 c -0.0103144,-0.00441 -0.02019349,-0.003646 -0.02609615,0.002019 -0.0052246,0.005015 -0.01310944,0.009757 -0.01751962,0.0105375 -0.0044112,7.7958e-4 -0.0080211,0.004489 -0.0080211,0.008241 0,0.009691 0.01582204,0.008453 0.04395768,-0.003442 z m 0.81081206,0.002301 c 0.0211173,-0.001239 0.0128394,-0.0161389 -0.0147533,-0.0265532 -0.014707,-0.005552 -0.0342089,-0.0152169 -0.0433381,-0.0214795 -0.0107253,-0.007358 -0.018144,-0.008453 -0.0209688,-0.003097 -0.002404,0.004559 -0.0130554,0.0104829 -0.0236691,0.0131637 -0.0106129,0.00268 -0.0235838,0.008256 -0.0288229,0.0123905 -0.0103049,0.00813 0.0472874,0.002441 0.0693745,-0.006854 0.007678,-0.003229 0.0116576,-0.002024 0.010303,0.003131 -0.001212,0.004617 -0.009194,0.009038 -0.0177336,0.009823 -0.021987,0.002024 -0.0227551,0.009907 -0.001086,0.0111317 0.009973,5.6232e-4 0.0231134,0.003553 0.0291992,0.006638 0.006086,0.003088 0.0152143,0.004892 0.0202858,0.004013 0.005072,-8.8141e-4 0.0146151,-0.001917 0.021208,-0.002305 z m -0.64269095,-0.00937 c -0.001359,-0.005147 0.002961,-0.008665 0.0106297,-0.008665 0.0071,0 0.0139349,-0.003898 0.0151895,-0.008665 0.002929,-0.0111373 -0.0359195,-0.011726 -0.0407561,-6.177e-4 -0.001928,0.004426 -0.008484,0.009776 -0.0145683,0.0118891 -0.006086,0.002113 -0.003128,0.002952 0.006565,0.001866 0.009696,-0.001087 0.0185081,0.001363 0.0195816,0.005441 0.001078,0.004081 0.002778,0.007419 0.003795,0.007419 0.001013,0 8.2581e-4,-0.003898 -4.3527e-4,-0.008665 z m 0.0534808,0.001018 0.0165974,-0.006362 -0.0147542,-0.005807 c -0.00902,-0.003548 -0.0219207,-0.001052 -0.0331947,0.00642 l -0.0184418,0.0122261 0.0165978,-6.241e-5 c 0.009129,-3.467e-5 0.0240666,-0.002922 0.0331951,-0.00642 z m 0.38358588,-0.005874 0.0239743,-0.007135 -0.0180781,-0.007424 c -0.011844,-0.004864 -0.019412,-0.004291 -0.0219455,0.001662 -0.002127,0.004997 -0.007586,0.009086 -0.0121324,0.009086 -0.004545,0 -0.009065,0.003042 -0.0100431,0.006756 -0.002013,0.007658 0.004205,0.007179 0.0382248,-0.002948 z M 0.07718541,0.33400059 c -0.01007432,-0.0101706 -0.01290932,-0.0101706 -0.01290932,0 0,0.004766 0.0045641,0.008391 0.0101427,0.008057 0.0089882,-5.4102e-4 0.0093035,-0.001457 0.0027665,-0.008057 z m 0.1705848,-0.002628 c 0.0107138,-6.0491e-4 0.003507,-0.0119914 -0.008247,-0.0130295 -0.0141627,-0.001252 -0.0525456,-0.0230358 -0.0660412,-0.0374822 -0.00661,-0.007077 -0.0112838,-0.005942 -0.0202109,0.004904 -0.006387,0.00776 -0.0182665,0.0162948 -0.0263992,0.0189675 -0.02947704,0.009686 -0.03645647,0.0205054 -0.0109591,0.0169874 0.0222494,-0.003071 0.0311026,-0.006063 0.0553249,-0.0187089 0.008517,-0.004447 0.008703,-0.003911 0.002437,0.007036 -0.00373,0.006518 -0.0127971,0.0128016 -0.0201467,0.0139646 -0.007351,0.001163 -0.0142562,0.00443 -0.0153469,0.007259 -0.002014,0.005222 0.0463291,-0.001542 0.0699389,-0.009783 l 0.0129097,-0.004507 -0.0147542,0.0128136 -0.0147542,0.0128136 0.0258183,-0.005488 c 0.0142001,-0.003016 0.0278929,-0.005605 0.0304285,-0.005748 z M 0.67285,0.33542459 0.6894478,0.32946759 0.6599411,0.31447419 c -0.0242293,-0.0123118 -0.0321452,-0.0131689 -0.0442597,-0.004792 -0.008115,0.005611 -0.0158598,0.0104531 -0.0172125,0.0107607 -0.001359,3.0809e-4 -0.003844,0.003927 -0.005532,0.008048 -0.00172,0.004192 0.003425,0.005347 0.01168,0.002624 0.0391494,-0.0129056 0.0514663,-0.0156609 0.049553,-0.0110845 -0.001139,0.002739 -0.011104,0.008499 -0.0221298,0.0127957 l -0.0200466,0.007812 0.0221298,3.7036e-4 c 0.0121714,2.043e-4 0.0295991,-0.002309 0.0387276,-0.005586 z m 0.13359856,-0.0201052 c 0.0176929,-0.005365 0.0312881,-0.0131054 0.0302109,-0.0171992 -0.002941,-0.0111803 -0.0196121,-0.008822 -0.0399141,0.005648 -0.009958,0.007097 -0.0243831,0.0129043 -0.0320553,0.0129043 -0.007672,0 -0.0147602,0.003084 -0.0157527,0.006855 -0.002038,0.007747 0.011073,0.005876 0.0575113,-0.008207 z m 0.1417971,0.24686792 c -0.003848,-0.009029 -0.002937,-0.0178501 0.003341,-0.0325977 0.009485,-0.0222848 0.0175469,-0.0174876 0.0147418,0.008772 -0.001555,0.014518 -0.001048,0.0204308 0.001443,0.0168192 0.002113,-0.003063 0.003839,-0.001439 0.003839,0.003608 0,0.009981 -0.0193583,0.0127982 -0.023359,0.0034 z m 0.012294,-0.0212415 c 0,-0.004766 -0.001658,-0.006255 -0.003693,-0.00331 -0.002027,0.002944 -0.003693,0.009255 -0.003693,0.0140209 0,0.004766 0.001658,0.006255 0.003693,0.00331 0.002027,-0.002944 0.003693,-0.009255 0.003693,-0.0140204 z m -0.93767408,-0.005686 c -0.0035266,-0.009976 -0.0030018,-0.0149307 0.0026033,-0.0245574 0.01105723,-0.0189969 0.02006774,-0.0156043 0.01759322,0.006625 -0.0014197,0.0128024 -7.3224e-4,0.0167336 0.0021884,0.0124863 0.0023473,-0.003408 0.0042695,-0.00207 0.0042695,0.002978 0,0.005047 -0.0012488,0.009502 -0.0027665,0.009899 -0.0015134,3.9553e-4 -0.0065258,0.001699 -0.01112147,0.002892 -0.0045959,0.001193 -0.01034247,-0.00345 -0.01276898,-0.0103249 z m 0.01490064,-0.0187456 c 9.19e-4,-0.006499 -4.6782e-4,-0.009748 -0.0032303,-0.007582 -0.0026608,0.002083 -0.0055673,0.008909 -0.0064536,0.0151642 -9.1901e-4,0.006499 4.6782e-4,0.009748 0.0032303,0.007582 0.0026608,-0.002083 0.0055673,-0.008909 0.0064536,-0.0151642 z M 0.02855672,0.41366005 c -0.0048887,-0.00712 -0.0056033,-0.0709927 -7.9733e-4,-0.0709927 0.0018268,0 0.0033196,0.005432 0.0033196,0.0120706 0,0.006639 0.0024899,0.0143152 0.005532,0.0170586 0.003043,0.002743 0.0055321,0.0104817 0.0055321,0.0171966 0,0.0165909 -0.0085184,0.0320533 -0.0135899,0.0246669 z m 0.0064897,-0.0213842 c -4.5155e-4,-0.0103611 -0.0055149,-0.008354 -0.0070995,0.002816 -8.0953e-4,0.005719 5.1663e-4,0.008839 0.0029494,0.006932 0.0024323,-0.001909 0.0043021,-0.006293 0.0041493,-0.009748 z m 0.92136857,0.0181824 c -2.4495e-4,-0.006307 -1.2222e-4,-0.0153308 2.8558e-4,-0.0200529 4.0685e-4,-0.004723 9.5336e-4,-0.0154458 0.001228,-0.0238294 2.8557e-4,-0.008384 0.002568,-0.0152434 0.005119,-0.0152434 0.002602,0 0.003702,0.005696 0.002508,0.012998 -0.001168,0.007148 -1.6225e-4,0.012998 0.002216,0.012998 0.006845,0 0.002714,0.0384875 -0.004475,0.0417068 -0.003547,0.001589 -0.006648,-0.00227 -0.006888,-0.008577 z m 0.0115021,-0.0157994 c 0,-0.004766 -0.001658,-0.008665 -0.003693,-0.008665 -0.002027,0 -0.003693,0.003898 -0.003693,0.008665 0,0.004766 0.001658,0.008665 0.003693,0.008665 0.002027,0 0.003693,-0.003898 0.003693,-0.008665 z M 0.34489678,0.32222434 c 0.004023,-0.008145 0.0367656,-0.0132851 0.0347044,-0.005449 -0.001232,0.004708 -0.009899,0.008561 -0.0192468,0.008561 -0.009347,0 -0.0163028,-0.001401 -0.015458,-0.003109 z m 0.001403,-0.0275697 c 0.0100727,-0.006491 0.0190162,-0.0101502 0.0198749,-0.008133 0.002713,0.006379 -0.0179613,0.0215166 -0.028286,0.020709 -0.007196,-5.6231e-4 -0.004896,-0.004 0.008411,-0.0125758 z" id="path4256" inkscape:connector-curvature="0" />
</svg>