<?xml version="1.0" encoding="utf-8" standalone="no"?>
<svg xmlns:dc="http://purl.org/dc/elements/1.1/" xmlns:cc="http://creativecommons.org/ns#" xmlns:rdf="http://www.w3.org/1999/02/22-rdf-syntax-ns#" xmlns:svg="http://www.w3.org/2000/svg" xmlns="http://www.w3.org/2000/svg" xmlns:sodipodi="http://sodipodi.sourceforge.net/DTD/sodipodi-0.dtd" xmlns:inkscape="http://www.inkscape.org/namespaces/inkscape" height="1" version="1.1" width="1" id="svg2" inkscape:version="0.91 r13725" sodipodi:docname="a.svg">
  <metadata id="metadata8">
    <rdf:RDF>
      <cc:Work rdf:about="">
        <dc:format>image/svg+xml</dc:format>
        <dc:type rdf:resource="http://purl.org/dc/dcmitype/StillImage" />
        <dc:title></dc:title>
      </cc:Work>
    </rdf:RDF>
  </metadata>
  <defs id="defs6">
    <pattern width="1" height="1" id="rippleMarkA" patternContentUnits="objectBoundingBox">
      <path style="fill:#000000" d="m 0.03475164,0.57291338 0,-0.20716016 0.02711266,-0.0172639 c 0.01491367,-0.009495 0.02902414,-0.0126019 0.03136035,-0.006903 0.0023359,0.005702 0.0032826,0.004218 0.0021042,-0.003301 -0.0011718,-0.007514 0.0053092,-0.0223443 0.01441745,-0.032957 0.0143795,-0.0167586 0.0221172,-0.0159303 0.0588386,0.0063 0.0407771,0.0246858 0.11888458,0.025431 0.14517531,0.001386 0.004981,-0.004557 0.0147663,-0.0121612 0.0217414,-0.0168985 0.006975,-0.004738 0.020666,-0.0175666 0.0304239,-0.02851 0.015164,-0.0170056 0.0206917,-0.0169949 0.0380471,7.286e-5 0.040086,0.0394226 0.10772313,0.056863 0.14070816,0.0362815 0.009878,-0.006162 0.0259613,-0.012832 0.0357424,-0.0148207 0.009781,-0.001987 0.0194155,-0.008109 0.021408,-0.0136025 0.006224,-0.0171537 0.0232454,-0.0246198 0.0244199,-0.0107117 0.002549,0.0302027 0.0699516,0.0674549 0.12595713,0.0696158 0.0340054,0.00131 0.0518757,0.006475 0.0452938,0.0130851 l -0.0108712,0.0109184 0.0108712,0.003384 0.0108712,0.003384 -0.0108712,0.0109184 c -0.0100286,0.010073 -0.0101683,0.0110328 -0.001815,0.0123916 0.008755,0.001424 0.0236451,-0.0242962 0.0163057,-0.0281674 -0.001996,-0.001051 0.001262,-0.006824 0.007247,-0.0128296 l 0.0108712,-0.0109184 -0.0108712,-0.003118 c -0.0107537,-0.003084 -0.0107725,-0.003239 -0.001815,-0.014513 0.005368,-0.006756 -0.001629,-0.008546 -0.0172113,-0.004398 -0.0176682,0.004707 -0.0262709,0.00188 -0.0262709,-0.008633 0,-0.009464 0.008219,-0.0157322 0.0208352,-0.0158875 0.0114595,-1.4275e-4 0.0363262,-0.010532 0.055259,-0.0230902 0.0517657,-0.0343366 0.0617759,-0.0362252 0.0815297,-0.0153834 l 0.0181174,0.0191152 9.9754e-4,0.22434628 9.9755e-4,0.22434632 -0.15862199,9.8417e-4 c -0.0872416,5.4098e-4 -0.20550107,0.003823 -0.26279834,0.007296 -0.0572972,0.003471 -0.10417663,7.9186e-4 -0.10417663,-0.005957 0,-0.006747 0.0819373,-0.0136986 0.18208264,-0.015446 0.16092478,-0.002808 0.26793751,-0.007293 0.32249487,-0.0135181 0.0166842,-0.001904 0.0172119,-0.003308 0.0172119,-0.0458352 0,-0.0349321 -0.001294,-0.0424355 -0.006339,-0.0368241 -0.006519,0.007245 -0.0205237,0.0187444 -0.0380471,0.0312411 -0.005477,0.003908 -0.009965,0.001175 -0.009965,-0.006073 0,-0.007248 0.0101916,-0.0177447 0.0226469,-0.0233266 0.0222176,-0.009956 0.0317059,-0.0256933 0.0317059,-0.0525853 0,-0.007434 -0.003591,-0.009014 -0.007985,-0.003511 -0.0175337,0.0219656 -0.10910813,0.008252 -0.14573252,-0.0218244 -0.019774,-0.016239 -0.038526,-0.0266509 -0.0416705,-0.0231378 -0.003141,0.003513 -0.0122409,5.8763e-4 -0.0202116,-0.006496 l -0.0144947,-0.0128824 0.0154003,0.005317 c 0.008859,0.003059 0.0154003,-8.2949e-4 0.0154003,-0.009155 0,-0.007959 0.002446,-0.010767 0.005432,-0.006239 0.002992,0.004528 0.005432,0.001998 0.005432,-0.005621 0,-0.0171948 -0.009738,-0.0183503 -0.0123825,-0.001469 -0.001068,0.006811 -0.006024,0.009299 -0.0110231,0.005529 -0.004994,-0.00377 -0.0115297,-0.003149 -0.0145191,0.001376 -0.007788,0.011797 -0.002902,0.0505418 0.005309,0.0420693 0.003726,-0.003845 0.012181,-1.4748e-4 0.0187893,0.008217 0.0342153,0.0433076 0.0850338,0.0624522 0.14427488,0.0543521 0.0550768,-0.007531 0.0457739,0.009941 -0.0123194,0.0231351 -0.0308384,0.007004 -0.091475,-0.0149168 -0.12561277,-0.0454098 -0.0160746,-0.0143595 -0.0413352,-0.001942 -0.0337402,0.016586 0.002079,0.005071 0.0235795,0.0227085 0.0477806,0.0391953 0.0333329,0.0227085 0.0539049,0.0284349 0.0848522,0.0236194 0.0318855,-0.004961 0.0372722,-0.003353 0.0245454,0.007328 -0.0217041,0.0182156 -0.0921278,0.004856 -0.13044748,-0.0247487 -0.0355256,-0.027445 -0.0543528,-0.0343608 -0.0543528,-0.0199657 0,0.009124 -0.006262,0.0162849 -0.0320129,0.0365917 -0.0344585,0.0271761 -0.12213671,0.0350645 -0.14916363,0.0134204 -0.004981,-0.003991 -0.0147663,-0.0109381 -0.0217407,-0.0154401 -0.006975,-0.004502 -0.0193762,-0.0140855 -0.0275574,-0.0212961 -0.009546,-0.008414 -0.0192816,-0.007835 -0.0271764,0.001618 -0.006766,0.008101 -0.0163778,0.0177592 -0.0213604,0.0214634 -0.004981,0.003704 -0.0111126,0.009589 -0.0136246,0.0130775 -0.0183201,0.0254545 -0.12836219,0.036675 -0.15487102,0.0157915 -0.0455094,-0.035852 -0.0562212,-0.0394083 -0.0689097,-0.0228793 -0.0142791,0.0186005 -0.0195403,0.0113786 -0.0133073,-0.0182653 0.003263,-0.0155224 -0.001313,-0.0168142 -0.0257542,-0.007272 -0.0163476,0.006381 -0.04480598,0.008585 -0.06324066,0.004896 -0.02002178,-0.004007 -0.03351763,-0.001217 -0.03351763,0.006927 0,0.0122621 0.0084633,0.0164792 0.03623542,0.0180524 0.0049811,2.8176e-4 0.02495737,-0.003944 0.04438829,-0.009393 0.0289765,-0.008125 0.0353299,-0.006325 0.0353299,0.010009 0,0.0121711 -0.005985,0.0241852 -0.0154002,0.0308976 -0.00847,0.006041 -0.0178458,0.0135935 -0.0208353,0.0167842 -0.002993,0.003191 -0.0216101,0.0103339 -0.04138021,0.0158744 -0.02586678,0.007249 -0.03641634,0.0156894 -0.03762497,0.0301033 -0.0014035,0.0166565 0.0040476,0.0184394 0.0323212,0.0105874 0.0517,-0.0143574 0.1791839,-0.0284464 0.1771312,-0.0195757 -0.001732,0.007479 -0.0215619,0.0117108 -0.15490602,0.03306 l -0.05888231,0.009427 0,-0.20716015 z m 0.07683317,0.11028558 c 0.0398189,-0.023607 0.0549719,-0.0458384 0.0191902,-0.0281556 -0.0119571,0.005909 -0.0250018,0.0123298 -0.0289881,0.014268 -0.0039833,0.001938 -0.01988397,0.004345 -0.03532923,0.005349 -0.01599746,0.00104 -0.02808259,0.00798 -0.02808259,0.0161279 0,0.0207449 0.03080294,0.0175517 0.07320974,-0.007589 z m 0.25727363,-0.0288109 c 0.0322246,-0.0134602 0.0460797,-0.0365385 0.015565,-0.0259281 -0.0408532,0.0142057 -0.0916563,0.006881 -0.12863559,-0.0185453 -0.0189328,-0.013018 -0.0376848,-0.0220057 -0.0416704,-0.0199729 -0.003983,0.002033 -0.0107603,0.004638 -0.0150534,0.005788 -0.0103967,0.002786 -0.007342,0.0191349 0.005689,0.0304295 0.046599,0.0403985 0.10919394,0.0511657 0.16410857,0.028229 z m 0.26921219,-0.0208102 c 0.006899,-0.006928 -0.005683,-0.011557 -0.0344231,-0.0126647 -0.0249124,-9.609e-4 -0.05997,-0.0121034 -0.0779062,-0.0247625 -0.0179366,-0.0126588 -0.0464722,-0.0248358 -0.0634118,-0.0270602 l -0.0308004,-0.004045 0.0163058,0.0192958 c 0.0372768,0.0441127 0.0721364,0.0610069 0.12501191,0.0605864 0.0298943,-2.3765e-4 0.0592447,-0.005345 0.0652236,-0.0113503 z M 0.18202258,0.6121242 c 0.002992,-0.0117994 0.003784,-0.0214537 0.001769,-0.0214537 -0.002021,0 -0.004692,0.006541 -0.005947,0.0145359 -0.001242,0.007995 -0.004049,0.0102182 -0.006211,0.004942 -0.002349,-0.005727 -0.00289,-0.002938 -0.001351,0.006918 0.003385,0.0216114 0.005201,0.0208461 0.0117344,-0.004942 z m 0.48684833,-0.00167 c 0,-0.003014 -0.003256,-0.005483 -0.007247,-0.005483 -0.003983,0 -0.007247,0.005834 -0.007247,0.0129638 0,0.00713 0.003256,0.009597 0.007247,0.005483 0.003983,-0.004114 0.007247,-0.009948 0.007247,-0.0129638 z M 0.40371803,0.59794002 c 0.001017,-0.003999 -0.0192199,-0.007296 -0.0449617,-0.007325 -0.0268572,-2.858e-5 -0.0607023,-0.009813 -0.0794157,-0.0229536 -0.0389983,-0.0273837 -0.0558498,-0.0286174 -0.0942121,-0.006897 -0.0344296,0.0194937 -0.1053317,0.0213777 -0.12954129,0.003443 -0.015805,-0.0117084 -0.01721318,-0.0104459 -0.01721318,0.0154381 0,0.0272345 0.0021175,0.0279496 0.06250629,0.0211164 0.0570945,-0.00646 0.10574785,-0.0251182 0.12350343,-0.0473619 0.00399,-0.004997 0.006036,-0.002897 0.004814,0.004936 -0.002201,0.0140664 0.0338297,0.0437213 0.0628281,0.0517081 0.0225594,0.006214 0.10943995,-0.003201 0.11169516,-0.0121022 z m 0.0177705,0.0126927 c -0.00121,-0.004752 -0.004331,-0.00526 -0.006944,-0.001131 -0.00289,0.004565 -0.002028,0.007955 0.002188,0.008641 0.003823,6.2222e-4 0.00596,-0.002758 0.004756,-0.007512 z m 0.0181174,-0.0143026 c -0.00121,-0.004752 -0.004331,-0.00526 -0.006944,-0.001131 -0.00289,0.004565 -0.002028,0.007955 0.002188,0.008641 0.003823,6.2221e-4 0.00596,-0.002758 0.004756,-0.007512 z m 0.23320438,-0.0155352 c 0.001609,-0.006369 -0.0234881,-0.0116862 -0.0557681,-0.0118154 -0.044963,-1.8034e-4 -0.0648473,-0.006407 -0.0850143,-0.0266219 -0.0144792,-0.014513 -0.0312361,-0.0235415 -0.0372387,-0.0200637 -0.006845,0.003966 -0.0104,5.5999e-4 -0.009534,-0.009134 7.5298e-4,-0.008502 0.004061,-0.0135666 0.007344,-0.0112556 0.003283,0.002312 0.005966,-0.002516 0.005966,-0.0107264 0,-0.0237708 -0.008289,-0.0168 -0.0181174,0.0152348 -0.004981,0.0162408 -0.007021,0.0253719 -0.004531,0.020292 0.002491,-0.00508 0.004531,-0.003301 0.004531,0.003956 0,0.0130488 0.0212497,0.0329235 0.0634118,0.0593084 0.0247463,0.0154857 0.12451943,0.008388 0.12895209,-0.009174 z m -0.2441793,-0.009986 c 0.001596,-0.0109233 0.00616,-0.0223217 0.0101439,-0.0253314 0.003983,-0.003011 -0.0164125,-0.00427 -0.0453318,-0.002799 -0.0289179,0.001469 -0.0598993,-0.002599 -0.068847,-0.009042 -0.0488973,-0.0352073 -0.0869281,-0.0460845 -0.0869281,-0.0248618 0,0.008332 0.001068,0.0109147 0.002381,0.005739 0.001313,-0.005176 0.004306,-0.003111 0.006657,0.004587 0.008518,0.0278992 0.0629002,0.0501029 0.12140542,0.0495679 0.0328837,-3.0048e-4 0.0548967,0.003765 0.0489178,0.009034 -0.0108501,0.009564 -0.0108523,0.009585 -0.001088,0.011274 0.00538,9.3011e-4 0.0110883,-0.007244 0.0126818,-0.0181675 z m 0.26288626,-0.003916 c -0.002491,-0.003967 -0.006567,-0.003967 -0.009059,0 -0.002491,0.003967 -4.5534e-4,0.007215 0.004531,0.007215 0.004981,0 0.00702,-0.003246 0.004531,-0.007215 z m -0.48535591,-0.033957 c 0.0135615,-0.009343 0.0240705,-0.0192992 0.0233549,-0.0221244 -7.2081e-4,-0.002824 -0.0167034,0.001838 -0.0355274,0.0103659 -0.0188414,0.008535 -0.053771,0.0116444 -0.0777081,0.006919 -0.04297692,-0.008483 -0.0484364,-0.010943 -0.06794129,-0.0306023 -0.0077571,-0.00782 -0.0099654,-0.005011 -0.0099654,0.0126883 0,0.0389812 0.02529528,0.0508945 0.09421194,0.0443716 0.0269055,-0.002547 0.0600131,-0.0122744 0.0735745,-0.0216176 z m 0.49978177,0.003897 c 0.005444,-0.005788 -0.0173862,-0.0109036 -0.0507295,-0.0113663 -0.0333438,-4.632e-4 -0.0695937,-0.008359 -0.0805549,-0.0175473 -0.0109599,-0.009188 -0.0244277,-0.0196567 -0.0299251,-0.0232633 -0.005497,-0.003607 -0.0133215,-0.010724 -0.0173863,-0.0158155 -0.004068,-0.005092 -0.009685,-0.001735 -0.0124926,0.007457 -0.002806,0.009193 -0.007056,0.0119483 -0.009445,0.006123 -0.002652,-0.006466 -0.003391,-0.004536 -0.001905,0.004958 0.002774,0.0177229 0.0316648,0.0435298 0.0670099,0.0598595 0.0273656,0.012643 0.12048671,0.005488 0.13543004,-0.0104053 z m -0.24059994,-0.003593 c 0.005226,-1.888e-4 0.005309,-0.002094 6.13e-4,-0.0140837 -0.004834,-0.0123242 -0.004834,-0.0141144 0,-0.0161131 0.002992,-0.001238 -0.001088,-0.006858 -0.009059,-0.0124919 l -0.0144947,-0.0102428 0.0132919,-0.002029 c 0.00731,-0.001116 0.016139,-0.006341 0.0196182,-0.0116112 0.004807,-0.007279 0.00558,-0.004699 0.003224,0.0107264 -0.002471,0.0161944 -0.002047,0.0169645 0.002124,0.003801 0.002877,-0.00908 0.009301,-0.0192046 0.014283,-0.0225001 0.004981,-0.003294 -0.0137694,-0.004635 -0.0416705,-0.002977 -0.0320438,0.001905 -0.0640767,-0.005257 -0.086965,-0.0194437 -0.0199291,-0.0123533 -0.0456111,-0.022491 -0.0570707,-0.0225288 -0.0217491,-7.282e-5 -0.0272941,-0.0138138 -0.0117763,-0.0291864 0.004981,-0.004936 0.009059,-0.015288 0.009059,-0.0230044 0,-0.007717 0.001732,-0.0140301 0.003836,-0.0140301 0.002111,0 0.002858,0.006247 0.001667,0.0138832 -0.001191,0.007635 0.002375,0.0179355 0.007939,0.0228884 0.005561,0.004953 0.0158204,0.0143918 0.0227949,0.0209757 0.0149658,0.014127 0.0745748,0.0345568 0.0978353,0.0335313 0.0172132,-7.6038e-4 0.0773235,-0.0198491 0.0786206,-0.0249696 4.2031e-4,-0.001653 -0.0272909,-0.003246 -0.0615764,-0.003541 -0.0465276,-4.0098e-4 -0.0695141,-0.007025 -0.0906317,-0.0261213 -0.0155611,-0.0140723 -0.0330902,-0.0217991 -0.0389533,-0.0171709 -0.008085,0.006381 -0.0106594,0.003126 -0.0106594,-0.0134864 0,-0.0187398 -0.004318,-0.0203956 -0.0298942,-0.0114709 -0.0498652,0.0173977 -0.092469,0.0100053 -0.1386,-0.0240488 -0.0100918,-0.00745 -0.0229334,-0.00811 -0.0289881,-0.00149 -0.009999,0.0109295 -0.008834,0.0135133 0.0144947,0.0321799 0.0167736,0.013422 0.0480695,0.020023 0.0924003,0.0194893 0.0368693,-4.4591e-4 0.0629588,0.003742 0.0579762,0.009301 -0.004981,0.005561 -0.006905,0.0107498 -0.004267,0.0115349 0.003719,0.001106 0.003579,0.006207 -6.5002e-4,0.0228796 -0.007368,0.0290838 -0.00943,0.0269762 -0.007728,-0.0079 0.001139,-0.0234739 3.237e-5,-0.0276015 -0.005554,-0.0206055 -0.0165368,0.0207181 -0.11772144,0.007386 -0.12771906,-0.0168283 -0.005258,-0.0127318 -0.06424915,-0.016165 -0.06424915,-0.00374 0,0.006831 -0.0021042,0.009226 -0.0046851,0.005324 -0.0025742,-0.003902 -0.01113714,-0.001255 -0.01902357,0.005884 -0.01267846,0.0114746 -0.01145764,0.0125977 0.01052529,0.009689 0.01367667,-0.001811 0.03976551,0.005856 0.05797684,0.017035 0.0226591,0.0139088 0.0517979,0.0183645 0.0923099,0.0141158 0.03256,-0.003415 0.0572109,-0.001358 0.0547802,0.004571 -0.003019,0.007375 -0.001835,0.014017 0.003758,0.0210259 0.005116,0.006411 0.009213,0.003634 0.0109443,-0.00742 0.001525,-0.009716 0.004499,-0.0134466 0.00661,-0.00829 0.007427,0.0181173 0.0781601,0.0615761 0.10531553,0.0647058 0.015099,0.001739 0.0282872,0.006805 0.0293061,0.0112531 0.001808,0.007895 -0.0797638,-0.005358 -0.0905485,-0.0147118 -0.0409129,-0.0354846 -0.0465681,-0.0381735 -0.0546122,-0.0259669 -0.0107714,0.016344 -0.007635,0.0212802 0.0284076,0.0447024 0.0292494,0.0190084 0.13174207,0.0245119 0.14583066,0.007831 0.008839,-0.0104656 0.008873,-0.0102121 0.001764,0.0134331 -0.006468,0.0215118 -0.006534,0.023207 -6.13e-4,0.0157819 0.00365,-0.004575 0.009358,-0.008418 0.0126818,-0.008539 z M 0.4288111,0.4953821 c 0.002491,-0.003967 0.006568,-0.003967 0.009059,0 0.002491,0.003967 4.5533e-4,0.007215 -0.004531,0.007215 -0.004981,0 -0.00702,-0.003246 -0.004531,-0.007215 z m 0.51182481,0.0380774 c 0.005857,-0.0074 -0.006004,-0.012588 -0.0335176,-0.0146648 -0.0234173,-0.001767 -0.0438,-0.004349 -0.0452944,-0.005735 -0.001487,-0.001386 -0.0125015,-0.007451 -0.0244593,-0.0134729 -0.0119571,-0.006022 -0.0278798,-0.0172293 -0.0353833,-0.0249032 -0.007503,-0.007674 -0.0196659,-0.009492 -0.0270284,-0.00404 -0.0127346,0.009429 -0.0129585,0.0105369 -0.004602,0.0227348 0.029745,0.0434319 0.14599255,0.0707942 0.17028819,0.0400823 z M 0.20445948,0.4987445 c 0.0225897,-0.0110845 0.042157,-0.0246201 0.0434822,-0.0300789 0.001333,-0.005459 -0.009818,-0.004724 -0.0247663,0.001632 C 0.18467908,0.4866689 0.11306857,0.4799266 0.08648148,0.4574272 0.07407774,0.4469309 0.06184849,0.4435547 0.05930508,0.4499252 c -0.0025421,0.00637 -0.0078857,0.0115829 -0.01187083,0.0115829 -0.0059977,0 -0.0063136,-0.002385 -0.0018148,-0.0138645 0.0032693,-0.008331 0.0037139,-0.013952 0.0011197,-0.0140838 -0.0049168,-2.4929e-4 -0.01004415,0.026531 -0.0072183,0.0376916 0.0038491,0.0151853 0.06333853,0.0446783 0.09306231,0.0461357 0.0169397,8.2947e-4 0.0492827,-0.007559 0.0718724,-0.0186436 z M 0.6960474,0.5055125 C 0.7107821,0.4964535 0.7060464,0.4939235 0.6706826,0.4919639 0.6467672,0.4906369 0.6141551,0.4797608 0.5982118,0.4677932 0.5522429,0.4332852 0.5384233,0.4279638 0.5384233,0.4447701 c 0,0.0451264 0.11250427,0.0884815 0.15762387,0.0607426 z M 0.94788322,0.493921 c 0,-0.006785 -0.0126373,-0.0133727 -0.0280826,-0.0146392 C 0.88581382,0.4764958 0.86298022,0.4657958 0.83237312,0.438316 0.81896932,0.4262815 0.80451262,0.4218368 0.79795002,0.4277335 0.78668282,0.4378557 0.78671312,0.4379813 0.80475302,0.4573074 0.83828412,0.4932278 0.94788278,0.521264 0.94788278,0.4939211 Z M 0.2624349,0.46371207 c 0.003733,-0.009337 0.00325,-0.0137374 -0.002111,-0.0192725 -0.004338,-0.004479 -0.00695,1.4558e-4 -0.00695,0.0123183 0,0.0223708 0.002221,0.024075 0.009063,0.006954 z m 0.48903638,-0.0135922 c 0.0165316,-0.007323 0.0311782,-0.0177302 0.0325465,-0.0231292 0.001365,-0.0054 -0.006452,-0.004595 -0.017376,0.001787 -0.0495222,0.0289268 -0.17000626,-7.2614e-4 -0.18875121,-0.0464527 -0.001854,-0.004525 -0.009457,-9.955e-5 -0.0168907,0.009844 l -0.0135177,0.0180707 0.0163057,0.0125807 c 0.0639435,0.0493354 0.11963854,0.0574368 0.18768332,0.0273002 z m -0.52467207,-0.001704 c 0.0147785,-0.007937 0.009158,-0.009854 -0.0217414,-0.00742 -0.0229192,0.001804 -0.0522696,-0.002224 -0.0652238,-0.008953 -0.0533025,-0.02769 -0.07080734,-0.0313942 -0.06669661,-0.0141138 0.008481,0.0356527 0.10747077,0.0552931 0.15366166,0.0304876 z m 0.72108401,0.002254 c 0,-0.006465 -0.019005,-0.0199844 -0.042233,-0.0300409 -0.0232274,-0.010057 -0.0462,-0.0242399 -0.05105,-0.0315173 -0.0116874,-0.017538 -0.0372485,-0.0250865 -0.034936,-0.0103154 9.9754e-4,0.006402 -1.7268e-4,0.0116407 -0.00262,0.0116407 -0.002439,0 -0.00363,0.003212 -0.002632,0.007135 0.002806,0.0110661 0.0351059,0.0356631 0.0591887,0.0450703 0.011959,0.004671 0.0220143,0.009317 0.0223482,0.010324 0.002928,0.008834 0.0519342,0.006667 0.0519342,-0.002295 z M 0.51758811,0.43817415 c -0.002491,-0.003967 -0.006568,-0.003967 -0.009059,0 -0.002491,0.003967 -4.554e-4,0.007215 0.004531,0.007215 0.004981,0 0.00702,-0.003246 0.004531,-0.007215 z M 0.0650332,0.40805131 c 9.4607e-4,-0.006044 -0.0046662,-0.008587 -0.01246804,-0.005649 -0.0078036,0.002938 -0.01419029,0.007884 -0.01419029,0.0109898 0,0.0106538 0.02493608,0.005657 0.02665833,-0.005342 z m 0.70529655,-0.0016 c 0.009633,-0.006185 -0.005201,-0.008877 -0.0362354,-0.00658 -0.0288973,0.00214 -0.0590638,-0.001815 -0.0670354,-0.008788 -0.0442808,-0.0387352 -0.0597248,-0.0491261 -0.0760939,-0.0511961 -0.009965,-0.001258 -0.0215934,-0.006684 -0.0258416,-0.0120541 -0.005426,-0.006856 -0.008403,-0.002766 -0.0100098,0.0137422 -0.001931,0.0198709 -4.2033e-4,0.0221215 0.009796,0.0145596 0.006643,-0.00492 0.0133022,-0.004041 0.0147978,0.00195 0.001487,0.005993 0.0152393,0.0212678 0.0305411,0.033944 0.0297521,0.0246449 0.13008279,0.0336836 0.16008252,0.0144214 z m 0.17755347,-9.954e-5 c 0,-0.006976 -0.0101916,-0.0197379 -0.0226469,-0.0283602 -0.0124559,-0.008622 -0.0283542,-0.0197506 -0.0353299,-0.0247294 -0.006975,-0.004979 -0.0208353,-0.0123636 -0.0307997,-0.0164111 -0.0142495,-0.005788 -0.0165702,-0.009988 -0.0108712,-0.0196767 0.006684,-0.0113589 0.006711,-0.0120492 3.503e-4,-0.008863 -0.003797,0.001897 -0.0073,0.0141131 -0.007784,0.0271404 -6.8219e-4,0.0184748 0.004022,0.0271877 0.021399,0.0396012 0.0605132,0.0432328 0.0856882,0.0524285 0.0856882,0.0312989 z m -0.4023188,-0.0383502 c 0.002092,-0.008241 -0.0181438,-0.011573 -0.0530007,-0.008726 -0.0320026,0.002614 -0.0671638,-0.002568 -0.081305,-0.0119828 -0.013703,-0.009123 -0.0257258,-0.0164384 -0.026715,-0.0162545 -9.7824e-4,1.822e-4 -0.006827,-0.005358 -0.0129726,-0.0123149 -0.007307,-0.008272 -0.0143164,-0.006997 -0.020256,0.003685 -0.006056,0.0108889 -0.009901,0.0115041 -0.01154,0.001846 -0.001351,-0.007969 -0.006503,-0.0105603 -0.0114435,-0.00576 -0.006256,0.006074 0.002561,0.0166434 0.0289881,0.0347594 0.0208861,0.0143177 0.0396052,0.0284498 0.0415984,0.0314043 0.007679,0.0113872 0.1434397,-0.004032 0.14664724,-0.0166556 z m 0.23483945,-0.004798 c 0.002555,-0.005585 -0.008862,-0.009724 -0.0253648,-0.009198 -0.0383393,0.001224 -0.0857286,-0.0185947 -0.11696852,-0.048913 -0.0133492,-0.0129561 -0.0406021,-0.005798 -0.0366917,0.009637 0.0120376,0.0475151 0.16103182,0.087857 0.17902468,0.0484731 z m 0.16747935,-0.0128651 c 0,-0.006316 -0.0134521,-0.0217921 -0.0298943,-0.0343919 -0.0164421,-0.0125998 -0.0315244,-0.0242848 -0.0335176,-0.0259669 -0.008106,-0.006842 -0.0199291,0.001165 -0.0199291,0.0134953 0,0.0133986 0.008488,0.0228133 0.0344231,0.0381813 0.007972,0.004724 0.0151743,0.0111928 0.0160046,0.0143768 0.002858,0.0109676 0.032914,0.005769 0.032914,-0.005695 z m -0.41688646,-0.008296 c -9.4606e-4,-0.003726 -0.0188189,-0.008352 -0.0397217,-0.0102797 -0.0209028,-0.001926 -0.0526809,-0.0148701 -0.0706166,-0.0287623 -0.0179366,-0.0138924 -0.037504,-0.0251241 -0.0434828,-0.0249598 l -0.0108712,2.988e-4 0.012477,0.0214569 c 0.006861,0.0118007 0.0223534,0.0262313 0.0344237,0.0320669 0.0251434,0.0121563 0.12037628,0.0203856 0.11779063,0.0101788 z m 0.0146737,-0.008825 c 0.002992,-0.007626 0.003804,-0.0138645 0.001815,-0.0138645 -0.001996,0 -0.006069,0.006239 -0.009059,0.0138645 -0.002992,0.007626 -0.003804,0.0138645 -0.001815,0.0138645 0.001996,0 0.006069,-0.006239 0.009059,-0.0138645 z m 0.28988305,-0.0143024 c 0,-0.007867 -0.001732,-0.0143024 -0.003836,-0.0143024 -0.002111,0 -0.002831,0.006436 -0.001596,0.0143024 0.001223,0.007867 0.00296,0.0143024 0.003836,0.0143024 8.7527e-4,0 0.001596,-0.006436 0.001596,-0.0143024 z m 0.1123298,-0.0209325 c 0,-0.0209712 -0.0455886,-0.0518747 -0.0553973,-0.0375526 -0.005664,0.00827 -8.7527e-4,0.0160485 0.0194084,0.0315 0.0335775,0.0255832 0.0359883,0.0259886 0.0359883,0.006052 z M 0.25280502,0.74120891 c 0.001351,-0.005607 0.0396683,-0.0136194 0.085153,-0.0178034 0.0454856,-0.004184 0.0818725,-0.004069 0.0808606,2.5731e-4 -0.001017,0.004325 -0.0393304,0.0123367 -0.0851531,0.0178035 -0.0458223,0.005467 -0.0822094,0.00535 -0.0808605,-2.5731e-4 z M 0.71960021,0.30915768 c -0.006975,-0.002849 -0.0257271,-0.0155808 -0.0416705,-0.0282949 -0.0159434,-0.0127138 -0.0338799,-0.0222951 -0.0398587,-0.0212909 -0.009506,0.001597 -0.0100231,-1.5408e-4 -0.004119,-0.0139365 0.006628,-0.0154809 0.0205224,-0.008925 0.06642,0.0313441 0.008356,0.007331 0.0266042,0.0133295 0.0405513,0.0133295 0.0139464,0 0.0263662,0.006436 0.0275973,0.0143024 0.002188,0.0139824 -0.0206177,0.0161017 -0.0489178,0.004547 z" id="path4194" inkscape:connector-curvature="0" />
    </pattern>
  </defs>
  <sodipodi:namedview pagecolor="#ffffff" bordercolor="#666666" borderopacity="1" objecttolerance="10" gridtolerance="10" guidetolerance="10" inkscape:pageopacity="0" inkscape:pageshadow="2" inkscape:window-width="1680" inkscape:window-height="988" id="namedview4" showgrid="false" inkscape:zoom="256" inkscape:cx="1.194613" inkscape:cy="0.86697649" inkscape:window-x="-8" inkscape:window-y="-8" inkscape:window-maximized="1" inkscape:current-layer="svg2" />
  <path style="fill:#000000" d="m 0.03475164,0.57291338 0,-0.20716016 0.02711266,-0.0172639 c 0.01491367,-0.009495 0.02902414,-0.0126019 0.03136035,-0.006903 0.0023359,0.005702 0.0032826,0.004218 0.0021042,-0.003301 -0.0011718,-0.007514 0.0053092,-0.0223443 0.01441745,-0.032957 0.0143795,-0.0167586 0.0221172,-0.0159303 0.0588386,0.0063 0.0407771,0.0246858 0.11888458,0.025431 0.14517531,0.001386 0.004981,-0.004557 0.0147663,-0.0121612 0.0217414,-0.0168985 0.006975,-0.004738 0.020666,-0.0175666 0.0304239,-0.02851 0.015164,-0.0170056 0.0206917,-0.0169949 0.0380471,7.286e-5 0.040086,0.0394226 0.10772313,0.056863 0.14070816,0.0362815 0.009878,-0.006162 0.0259613,-0.012832 0.0357424,-0.0148207 0.009781,-0.001987 0.0194155,-0.008109 0.021408,-0.0136025 0.006224,-0.0171537 0.0232454,-0.0246198 0.0244199,-0.0107117 0.002549,0.0302027 0.0699516,0.0674549 0.12595713,0.0696158 0.0340054,0.00131 0.0518757,0.006475 0.0452938,0.0130851 l -0.0108712,0.0109184 0.0108712,0.003384 0.0108712,0.003384 -0.0108712,0.0109184 c -0.0100286,0.010073 -0.0101683,0.0110328 -0.001815,0.0123916 0.008755,0.001424 0.0236451,-0.0242962 0.0163057,-0.0281674 -0.001996,-0.001051 0.001262,-0.006824 0.007247,-0.0128296 l 0.0108712,-0.0109184 -0.0108712,-0.003118 c -0.0107537,-0.003084 -0.0107725,-0.003239 -0.001815,-0.014513 0.005368,-0.006756 -0.001629,-0.008546 -0.0172113,-0.004398 -0.0176682,0.004707 -0.0262709,0.00188 -0.0262709,-0.008633 0,-0.009464 0.008219,-0.0157322 0.0208352,-0.0158875 0.0114595,-1.4275e-4 0.0363262,-0.010532 0.055259,-0.0230902 0.0517657,-0.0343366 0.0617759,-0.0362252 0.0815297,-0.0153834 l 0.0181174,0.0191152 9.9754e-4,0.22434628 9.9755e-4,0.22434632 -0.15862199,9.8417e-4 c -0.0872416,5.4098e-4 -0.20550107,0.003823 -0.26279834,0.007296 -0.0572972,0.003471 -0.10417663,7.9186e-4 -0.10417663,-0.005957 0,-0.006747 0.0819373,-0.0136986 0.18208264,-0.015446 0.16092478,-0.002808 0.26793751,-0.007293 0.32249487,-0.0135181 0.0166842,-0.001904 0.0172119,-0.003308 0.0172119,-0.0458352 0,-0.0349321 -0.001294,-0.0424355 -0.006339,-0.0368241 -0.006519,0.007245 -0.0205237,0.0187444 -0.0380471,0.0312411 -0.005477,0.003908 -0.009965,0.001175 -0.009965,-0.006073 0,-0.007248 0.0101916,-0.0177447 0.0226469,-0.0233266 0.0222176,-0.009956 0.0317059,-0.0256933 0.0317059,-0.0525853 0,-0.007434 -0.003591,-0.009014 -0.007985,-0.003511 -0.0175337,0.0219656 -0.10910813,0.008252 -0.14573252,-0.0218244 -0.019774,-0.016239 -0.038526,-0.0266509 -0.0416705,-0.0231378 -0.003141,0.003513 -0.0122409,5.8763e-4 -0.0202116,-0.006496 l -0.0144947,-0.0128824 0.0154003,0.005317 c 0.008859,0.003059 0.0154003,-8.2949e-4 0.0154003,-0.009155 0,-0.007959 0.002446,-0.010767 0.005432,-0.006239 0.002992,0.004528 0.005432,0.001998 0.005432,-0.005621 0,-0.0171948 -0.009738,-0.0183503 -0.0123825,-0.001469 -0.001068,0.006811 -0.006024,0.009299 -0.0110231,0.005529 -0.004994,-0.00377 -0.0115297,-0.003149 -0.0145191,0.001376 -0.007788,0.011797 -0.002902,0.0505418 0.005309,0.0420693 0.003726,-0.003845 0.012181,-1.4748e-4 0.0187893,0.008217 0.0342153,0.0433076 0.0850338,0.0624522 0.14427488,0.0543521 0.0550768,-0.007531 0.0457739,0.009941 -0.0123194,0.0231351 -0.0308384,0.007004 -0.091475,-0.0149168 -0.12561277,-0.0454098 -0.0160746,-0.0143595 -0.0413352,-0.001942 -0.0337402,0.016586 0.002079,0.005071 0.0235795,0.0227085 0.0477806,0.0391953 0.0333329,0.0227085 0.0539049,0.0284349 0.0848522,0.0236194 0.0318855,-0.004961 0.0372722,-0.003353 0.0245454,0.007328 -0.0217041,0.0182156 -0.0921278,0.004856 -0.13044748,-0.0247487 -0.0355256,-0.027445 -0.0543528,-0.0343608 -0.0543528,-0.0199657 0,0.009124 -0.006262,0.0162849 -0.0320129,0.0365917 -0.0344585,0.0271761 -0.12213671,0.0350645 -0.14916363,0.0134204 -0.004981,-0.003991 -0.0147663,-0.0109381 -0.0217407,-0.0154401 -0.006975,-0.004502 -0.0193762,-0.0140855 -0.0275574,-0.0212961 -0.009546,-0.008414 -0.0192816,-0.007835 -0.0271764,0.001618 -0.006766,0.008101 -0.0163778,0.0177592 -0.0213604,0.0214634 -0.004981,0.003704 -0.0111126,0.009589 -0.0136246,0.0130775 -0.0183201,0.0254545 -0.12836219,0.036675 -0.15487102,0.0157915 -0.0455094,-0.035852 -0.0562212,-0.0394083 -0.0689097,-0.0228793 -0.0142791,0.0186005 -0.0195403,0.0113786 -0.0133073,-0.0182653 0.003263,-0.0155224 -0.001313,-0.0168142 -0.0257542,-0.007272 -0.0163476,0.006381 -0.04480598,0.008585 -0.06324066,0.004896 -0.02002178,-0.004007 -0.03351763,-0.001217 -0.03351763,0.006927 0,0.0122621 0.0084633,0.0164792 0.03623542,0.0180524 0.0049811,2.8176e-4 0.02495737,-0.003944 0.04438829,-0.009393 0.0289765,-0.008125 0.0353299,-0.006325 0.0353299,0.010009 0,0.0121711 -0.005985,0.0241852 -0.0154002,0.0308976 -0.00847,0.006041 -0.0178458,0.0135935 -0.0208353,0.0167842 -0.002993,0.003191 -0.0216101,0.0103339 -0.04138021,0.0158744 -0.02586678,0.007249 -0.03641634,0.0156894 -0.03762497,0.0301033 -0.0014035,0.0166565 0.0040476,0.0184394 0.0323212,0.0105874 0.0517,-0.0143574 0.1791839,-0.0284464 0.1771312,-0.0195757 -0.001732,0.007479 -0.0215619,0.0117108 -0.15490602,0.03306 l -0.05888231,0.009427 0,-0.20716015 z m 0.07683317,0.11028558 c 0.0398189,-0.023607 0.0549719,-0.0458384 0.0191902,-0.0281556 -0.0119571,0.005909 -0.0250018,0.0123298 -0.0289881,0.014268 -0.0039833,0.001938 -0.01988397,0.004345 -0.03532923,0.005349 -0.01599746,0.00104 -0.02808259,0.00798 -0.02808259,0.0161279 0,0.0207449 0.03080294,0.0175517 0.07320974,-0.007589 z m 0.25727363,-0.0288109 c 0.0322246,-0.0134602 0.0460797,-0.0365385 0.015565,-0.0259281 -0.0408532,0.0142057 -0.0916563,0.006881 -0.12863559,-0.0185453 -0.0189328,-0.013018 -0.0376848,-0.0220057 -0.0416704,-0.0199729 -0.003983,0.002033 -0.0107603,0.004638 -0.0150534,0.005788 -0.0103967,0.002786 -0.007342,0.0191349 0.005689,0.0304295 0.046599,0.0403985 0.10919394,0.0511657 0.16410857,0.028229 z m 0.26921219,-0.0208102 c 0.006899,-0.006928 -0.005683,-0.011557 -0.0344231,-0.0126647 -0.0249124,-9.609e-4 -0.05997,-0.0121034 -0.0779062,-0.0247625 -0.0179366,-0.0126588 -0.0464722,-0.0248358 -0.0634118,-0.0270602 l -0.0308004,-0.004045 0.0163058,0.0192958 c 0.0372768,0.0441127 0.0721364,0.0610069 0.12501191,0.0605864 0.0298943,-2.3765e-4 0.0592447,-0.005345 0.0652236,-0.0113503 z M 0.18202258,0.6121242 c 0.002992,-0.0117994 0.003784,-0.0214537 0.001769,-0.0214537 -0.002021,0 -0.004692,0.006541 -0.005947,0.0145359 -0.001242,0.007995 -0.004049,0.0102182 -0.006211,0.004942 -0.002349,-0.005727 -0.00289,-0.002938 -0.001351,0.006918 0.003385,0.0216114 0.005201,0.0208461 0.0117344,-0.004942 z m 0.48684833,-0.00167 c 0,-0.003014 -0.003256,-0.005483 -0.007247,-0.005483 -0.003983,0 -0.007247,0.005834 -0.007247,0.0129638 0,0.00713 0.003256,0.009597 0.007247,0.005483 0.003983,-0.004114 0.007247,-0.009948 0.007247,-0.0129638 z M 0.40371803,0.59794002 c 0.001017,-0.003999 -0.0192199,-0.007296 -0.0449617,-0.007325 -0.0268572,-2.858e-5 -0.0607023,-0.009813 -0.0794157,-0.0229536 -0.0389983,-0.0273837 -0.0558498,-0.0286174 -0.0942121,-0.006897 -0.0344296,0.0194937 -0.1053317,0.0213777 -0.12954129,0.003443 -0.015805,-0.0117084 -0.01721318,-0.0104459 -0.01721318,0.0154381 0,0.0272345 0.0021175,0.0279496 0.06250629,0.0211164 0.0570945,-0.00646 0.10574785,-0.0251182 0.12350343,-0.0473619 0.00399,-0.004997 0.006036,-0.002897 0.004814,0.004936 -0.002201,0.0140664 0.0338297,0.0437213 0.0628281,0.0517081 0.0225594,0.006214 0.10943995,-0.003201 0.11169516,-0.0121022 z m 0.0177705,0.0126927 c -0.00121,-0.004752 -0.004331,-0.00526 -0.006944,-0.001131 -0.00289,0.004565 -0.002028,0.007955 0.002188,0.008641 0.003823,6.2222e-4 0.00596,-0.002758 0.004756,-0.007512 z m 0.0181174,-0.0143026 c -0.00121,-0.004752 -0.004331,-0.00526 -0.006944,-0.001131 -0.00289,0.004565 -0.002028,0.007955 0.002188,0.008641 0.003823,6.2221e-4 0.00596,-0.002758 0.004756,-0.007512 z m 0.23320438,-0.0155352 c 0.001609,-0.006369 -0.0234881,-0.0116862 -0.0557681,-0.0118154 -0.044963,-1.8034e-4 -0.0648473,-0.006407 -0.0850143,-0.0266219 -0.0144792,-0.014513 -0.0312361,-0.0235415 -0.0372387,-0.0200637 -0.006845,0.003966 -0.0104,5.5999e-4 -0.009534,-0.009134 7.5298e-4,-0.008502 0.004061,-0.0135666 0.007344,-0.0112556 0.003283,0.002312 0.005966,-0.002516 0.005966,-0.0107264 0,-0.0237708 -0.008289,-0.0168 -0.0181174,0.0152348 -0.004981,0.0162408 -0.007021,0.0253719 -0.004531,0.020292 0.002491,-0.00508 0.004531,-0.003301 0.004531,0.003956 0,0.0130488 0.0212497,0.0329235 0.0634118,0.0593084 0.0247463,0.0154857 0.12451943,0.008388 0.12895209,-0.009174 z m -0.2441793,-0.009986 c 0.001596,-0.0109233 0.00616,-0.0223217 0.0101439,-0.0253314 0.003983,-0.003011 -0.0164125,-0.00427 -0.0453318,-0.002799 -0.0289179,0.001469 -0.0598993,-0.002599 -0.068847,-0.009042 -0.0488973,-0.0352073 -0.0869281,-0.0460845 -0.0869281,-0.0248618 0,0.008332 0.001068,0.0109147 0.002381,0.005739 0.001313,-0.005176 0.004306,-0.003111 0.006657,0.004587 0.008518,0.0278992 0.0629002,0.0501029 0.12140542,0.0495679 0.0328837,-3.0048e-4 0.0548967,0.003765 0.0489178,0.009034 -0.0108501,0.009564 -0.0108523,0.009585 -0.001088,0.011274 0.00538,9.3011e-4 0.0110883,-0.007244 0.0126818,-0.0181675 z m 0.26288626,-0.003916 c -0.002491,-0.003967 -0.006567,-0.003967 -0.009059,0 -0.002491,0.003967 -4.5534e-4,0.007215 0.004531,0.007215 0.004981,0 0.00702,-0.003246 0.004531,-0.007215 z m -0.48535591,-0.033957 c 0.0135615,-0.009343 0.0240705,-0.0192992 0.0233549,-0.0221244 -7.2081e-4,-0.002824 -0.0167034,0.001838 -0.0355274,0.0103659 -0.0188414,0.008535 -0.053771,0.0116444 -0.0777081,0.006919 -0.04297692,-0.008483 -0.0484364,-0.010943 -0.06794129,-0.0306023 -0.0077571,-0.00782 -0.0099654,-0.005011 -0.0099654,0.0126883 0,0.0389812 0.02529528,0.0508945 0.09421194,0.0443716 0.0269055,-0.002547 0.0600131,-0.0122744 0.0735745,-0.0216176 z m 0.49978177,0.003897 c 0.005444,-0.005788 -0.0173862,-0.0109036 -0.0507295,-0.0113663 -0.0333438,-4.632e-4 -0.0695937,-0.008359 -0.0805549,-0.0175473 -0.0109599,-0.009188 -0.0244277,-0.0196567 -0.0299251,-0.0232633 -0.005497,-0.003607 -0.0133215,-0.010724 -0.0173863,-0.0158155 -0.004068,-0.005092 -0.009685,-0.001735 -0.0124926,0.007457 -0.002806,0.009193 -0.007056,0.0119483 -0.009445,0.006123 -0.002652,-0.006466 -0.003391,-0.004536 -0.001905,0.004958 0.002774,0.0177229 0.0316648,0.0435298 0.0670099,0.0598595 0.0273656,0.012643 0.12048671,0.005488 0.13543004,-0.0104053 z m -0.24059994,-0.003593 c 0.005226,-1.888e-4 0.005309,-0.002094 6.13e-4,-0.0140837 -0.004834,-0.0123242 -0.004834,-0.0141144 0,-0.0161131 0.002992,-0.001238 -0.001088,-0.006858 -0.009059,-0.0124919 l -0.0144947,-0.0102428 0.0132919,-0.002029 c 0.00731,-0.001116 0.016139,-0.006341 0.0196182,-0.0116112 0.004807,-0.007279 0.00558,-0.004699 0.003224,0.0107264 -0.002471,0.0161944 -0.002047,0.0169645 0.002124,0.003801 0.002877,-0.00908 0.009301,-0.0192046 0.014283,-0.0225001 0.004981,-0.003294 -0.0137694,-0.004635 -0.0416705,-0.002977 -0.0320438,0.001905 -0.0640767,-0.005257 -0.086965,-0.0194437 -0.0199291,-0.0123533 -0.0456111,-0.022491 -0.0570707,-0.0225288 -0.0217491,-7.282e-5 -0.0272941,-0.0138138 -0.0117763,-0.0291864 0.004981,-0.004936 0.009059,-0.015288 0.009059,-0.0230044 0,-0.007717 0.001732,-0.0140301 0.003836,-0.0140301 0.002111,0 0.002858,0.006247 0.001667,0.0138832 -0.001191,0.007635 0.002375,0.0179355 0.007939,0.0228884 0.005561,0.004953 0.0158204,0.0143918 0.0227949,0.0209757 0.0149658,0.014127 0.0745748,0.0345568 0.0978353,0.0335313 0.0172132,-7.6038e-4 0.0773235,-0.0198491 0.0786206,-0.0249696 4.2031e-4,-0.001653 -0.0272909,-0.003246 -0.0615764,-0.003541 -0.0465276,-4.0098e-4 -0.0695141,-0.007025 -0.0906317,-0.0261213 -0.0155611,-0.0140723 -0.0330902,-0.0217991 -0.0389533,-0.0171709 -0.008085,0.006381 -0.0106594,0.003126 -0.0106594,-0.0134864 0,-0.0187398 -0.004318,-0.0203956 -0.0298942,-0.0114709 -0.0498652,0.0173977 -0.092469,0.0100053 -0.1386,-0.0240488 -0.0100918,-0.00745 -0.0229334,-0.00811 -0.0289881,-0.00149 -0.009999,0.0109295 -0.008834,0.0135133 0.0144947,0.0321799 0.0167736,0.013422 0.0480695,0.020023 0.0924003,0.0194893 0.0368693,-4.4591e-4 0.0629588,0.003742 0.0579762,0.009301 -0.004981,0.005561 -0.006905,0.0107498 -0.004267,0.0115349 0.003719,0.001106 0.003579,0.006207 -6.5002e-4,0.0228796 -0.007368,0.0290838 -0.00943,0.0269762 -0.007728,-0.0079 0.001139,-0.0234739 3.237e-5,-0.0276015 -0.005554,-0.0206055 -0.0165368,0.0207181 -0.11772144,0.007386 -0.12771906,-0.0168283 -0.005258,-0.0127318 -0.06424915,-0.016165 -0.06424915,-0.00374 0,0.006831 -0.0021042,0.009226 -0.0046851,0.005324 -0.0025742,-0.003902 -0.01113714,-0.001255 -0.01902357,0.005884 -0.01267846,0.0114746 -0.01145764,0.0125977 0.01052529,0.009689 0.01367667,-0.001811 0.03976551,0.005856 0.05797684,0.017035 0.0226591,0.0139088 0.0517979,0.0183645 0.0923099,0.0141158 0.03256,-0.003415 0.0572109,-0.001358 0.0547802,0.004571 -0.003019,0.007375 -0.001835,0.014017 0.003758,0.0210259 0.005116,0.006411 0.009213,0.003634 0.0109443,-0.00742 0.001525,-0.009716 0.004499,-0.0134466 0.00661,-0.00829 0.007427,0.0181173 0.0781601,0.0615761 0.10531553,0.0647058 0.015099,0.001739 0.0282872,0.006805 0.0293061,0.0112531 0.001808,0.007895 -0.0797638,-0.005358 -0.0905485,-0.0147118 -0.0409129,-0.0354846 -0.0465681,-0.0381735 -0.0546122,-0.0259669 -0.0107714,0.016344 -0.007635,0.0212802 0.0284076,0.0447024 0.0292494,0.0190084 0.13174207,0.0245119 0.14583066,0.007831 0.008839,-0.0104656 0.008873,-0.0102121 0.001764,0.0134331 -0.006468,0.0215118 -0.006534,0.023207 -6.13e-4,0.0157819 0.00365,-0.004575 0.009358,-0.008418 0.0126818,-0.008539 z M 0.4288111,0.4953821 c 0.002491,-0.003967 0.006568,-0.003967 0.009059,0 0.002491,0.003967 4.5533e-4,0.007215 -0.004531,0.007215 -0.004981,0 -0.00702,-0.003246 -0.004531,-0.007215 z m 0.51182481,0.0380774 c 0.005857,-0.0074 -0.006004,-0.012588 -0.0335176,-0.0146648 -0.0234173,-0.001767 -0.0438,-0.004349 -0.0452944,-0.005735 -0.001487,-0.001386 -0.0125015,-0.007451 -0.0244593,-0.0134729 -0.0119571,-0.006022 -0.0278798,-0.0172293 -0.0353833,-0.0249032 -0.007503,-0.007674 -0.0196659,-0.009492 -0.0270284,-0.00404 -0.0127346,0.009429 -0.0129585,0.0105369 -0.004602,0.0227348 0.029745,0.0434319 0.14599255,0.0707942 0.17028819,0.0400823 z M 0.20445948,0.4987445 c 0.0225897,-0.0110845 0.042157,-0.0246201 0.0434822,-0.0300789 0.001333,-0.005459 -0.009818,-0.004724 -0.0247663,0.001632 C 0.18467908,0.4866689 0.11306857,0.4799266 0.08648148,0.4574272 0.07407774,0.4469309 0.06184849,0.4435547 0.05930508,0.4499252 c -0.0025421,0.00637 -0.0078857,0.0115829 -0.01187083,0.0115829 -0.0059977,0 -0.0063136,-0.002385 -0.0018148,-0.0138645 0.0032693,-0.008331 0.0037139,-0.013952 0.0011197,-0.0140838 -0.0049168,-2.4929e-4 -0.01004415,0.026531 -0.0072183,0.0376916 0.0038491,0.0151853 0.06333853,0.0446783 0.09306231,0.0461357 0.0169397,8.2947e-4 0.0492827,-0.007559 0.0718724,-0.0186436 z M 0.6960474,0.5055125 C 0.7107821,0.4964535 0.7060464,0.4939235 0.6706826,0.4919639 0.6467672,0.4906369 0.6141551,0.4797608 0.5982118,0.4677932 0.5522429,0.4332852 0.5384233,0.4279638 0.5384233,0.4447701 c 0,0.0451264 0.11250427,0.0884815 0.15762387,0.0607426 z M 0.94788322,0.493921 c 0,-0.006785 -0.0126373,-0.0133727 -0.0280826,-0.0146392 C 0.88581382,0.4764958 0.86298022,0.4657958 0.83237312,0.438316 0.81896932,0.4262815 0.80451262,0.4218368 0.79795002,0.4277335 0.78668282,0.4378557 0.78671312,0.4379813 0.80475302,0.4573074 0.83828412,0.4932278 0.94788278,0.521264 0.94788278,0.4939211 Z M 0.2624349,0.46371207 c 0.003733,-0.009337 0.00325,-0.0137374 -0.002111,-0.0192725 -0.004338,-0.004479 -0.00695,1.4558e-4 -0.00695,0.0123183 0,0.0223708 0.002221,0.024075 0.009063,0.006954 z m 0.48903638,-0.0135922 c 0.0165316,-0.007323 0.0311782,-0.0177302 0.0325465,-0.0231292 0.001365,-0.0054 -0.006452,-0.004595 -0.017376,0.001787 -0.0495222,0.0289268 -0.17000626,-7.2614e-4 -0.18875121,-0.0464527 -0.001854,-0.004525 -0.009457,-9.955e-5 -0.0168907,0.009844 l -0.0135177,0.0180707 0.0163057,0.0125807 c 0.0639435,0.0493354 0.11963854,0.0574368 0.18768332,0.0273002 z m -0.52467207,-0.001704 c 0.0147785,-0.007937 0.009158,-0.009854 -0.0217414,-0.00742 -0.0229192,0.001804 -0.0522696,-0.002224 -0.0652238,-0.008953 -0.0533025,-0.02769 -0.07080734,-0.0313942 -0.06669661,-0.0141138 0.008481,0.0356527 0.10747077,0.0552931 0.15366166,0.0304876 z m 0.72108401,0.002254 c 0,-0.006465 -0.019005,-0.0199844 -0.042233,-0.0300409 -0.0232274,-0.010057 -0.0462,-0.0242399 -0.05105,-0.0315173 -0.0116874,-0.017538 -0.0372485,-0.0250865 -0.034936,-0.0103154 9.9754e-4,0.006402 -1.7268e-4,0.0116407 -0.00262,0.0116407 -0.002439,0 -0.00363,0.003212 -0.002632,0.007135 0.002806,0.0110661 0.0351059,0.0356631 0.0591887,0.0450703 0.011959,0.004671 0.0220143,0.009317 0.0223482,0.010324 0.002928,0.008834 0.0519342,0.006667 0.0519342,-0.002295 z M 0.51758811,0.43817415 c -0.002491,-0.003967 -0.006568,-0.003967 -0.009059,0 -0.002491,0.003967 -4.554e-4,0.007215 0.004531,0.007215 0.004981,0 0.00702,-0.003246 0.004531,-0.007215 z M 0.0650332,0.40805131 c 9.4607e-4,-0.006044 -0.0046662,-0.008587 -0.01246804,-0.005649 -0.0078036,0.002938 -0.01419029,0.007884 -0.01419029,0.0109898 0,0.0106538 0.02493608,0.005657 0.02665833,-0.005342 z m 0.70529655,-0.0016 c 0.009633,-0.006185 -0.005201,-0.008877 -0.0362354,-0.00658 -0.0288973,0.00214 -0.0590638,-0.001815 -0.0670354,-0.008788 -0.0442808,-0.0387352 -0.0597248,-0.0491261 -0.0760939,-0.0511961 -0.009965,-0.001258 -0.0215934,-0.006684 -0.0258416,-0.0120541 -0.005426,-0.006856 -0.008403,-0.002766 -0.0100098,0.0137422 -0.001931,0.0198709 -4.2033e-4,0.0221215 0.009796,0.0145596 0.006643,-0.00492 0.0133022,-0.004041 0.0147978,0.00195 0.001487,0.005993 0.0152393,0.0212678 0.0305411,0.033944 0.0297521,0.0246449 0.13008279,0.0336836 0.16008252,0.0144214 z m 0.17755347,-9.954e-5 c 0,-0.006976 -0.0101916,-0.0197379 -0.0226469,-0.0283602 -0.0124559,-0.008622 -0.0283542,-0.0197506 -0.0353299,-0.0247294 -0.006975,-0.004979 -0.0208353,-0.0123636 -0.0307997,-0.0164111 -0.0142495,-0.005788 -0.0165702,-0.009988 -0.0108712,-0.0196767 0.006684,-0.0113589 0.006711,-0.0120492 3.503e-4,-0.008863 -0.003797,0.001897 -0.0073,0.0141131 -0.007784,0.0271404 -6.8219e-4,0.0184748 0.004022,0.0271877 0.021399,0.0396012 0.0605132,0.0432328 0.0856882,0.0524285 0.0856882,0.0312989 z m -0.4023188,-0.0383502 c 0.002092,-0.008241 -0.0181438,-0.011573 -0.0530007,-0.008726 -0.0320026,0.002614 -0.0671638,-0.002568 -0.081305,-0.0119828 -0.013703,-0.009123 -0.0257258,-0.0164384 -0.026715,-0.0162545 -9.7824e-4,1.822e-4 -0.006827,-0.005358 -0.0129726,-0.0123149 -0.007307,-0.008272 -0.0143164,-0.006997 -0.020256,0.003685 -0.006056,0.0108889 -0.009901,0.0115041 -0.01154,0.001846 -0.001351,-0.007969 -0.006503,-0.0105603 -0.0114435,-0.00576 -0.006256,0.006074 0.002561,0.0166434 0.0289881,0.0347594 0.0208861,0.0143177 0.0396052,0.0284498 0.0415984,0.0314043 0.007679,0.0113872 0.1434397,-0.004032 0.14664724,-0.0166556 z m 0.23483945,-0.004798 c 0.002555,-0.005585 -0.008862,-0.009724 -0.0253648,-0.009198 -0.0383393,0.001224 -0.0857286,-0.0185947 -0.11696852,-0.048913 -0.0133492,-0.0129561 -0.0406021,-0.005798 -0.0366917,0.009637 0.0120376,0.0475151 0.16103182,0.087857 0.17902468,0.0484731 z m 0.16747935,-0.0128651 c 0,-0.006316 -0.0134521,-0.0217921 -0.0298943,-0.0343919 -0.0164421,-0.0125998 -0.0315244,-0.0242848 -0.0335176,-0.0259669 -0.008106,-0.006842 -0.0199291,0.001165 -0.0199291,0.0134953 0,0.0133986 0.008488,0.0228133 0.0344231,0.0381813 0.007972,0.004724 0.0151743,0.0111928 0.0160046,0.0143768 0.002858,0.0109676 0.032914,0.005769 0.032914,-0.005695 z m -0.41688646,-0.008296 c -9.4606e-4,-0.003726 -0.0188189,-0.008352 -0.0397217,-0.0102797 -0.0209028,-0.001926 -0.0526809,-0.0148701 -0.0706166,-0.0287623 -0.0179366,-0.0138924 -0.037504,-0.0251241 -0.0434828,-0.0249598 l -0.0108712,2.988e-4 0.012477,0.0214569 c 0.006861,0.0118007 0.0223534,0.0262313 0.0344237,0.0320669 0.0251434,0.0121563 0.12037628,0.0203856 0.11779063,0.0101788 z m 0.0146737,-0.008825 c 0.002992,-0.007626 0.003804,-0.0138645 0.001815,-0.0138645 -0.001996,0 -0.006069,0.006239 -0.009059,0.0138645 -0.002992,0.007626 -0.003804,0.0138645 -0.001815,0.0138645 0.001996,0 0.006069,-0.006239 0.009059,-0.0138645 z m 0.28988305,-0.0143024 c 0,-0.007867 -0.001732,-0.0143024 -0.003836,-0.0143024 -0.002111,0 -0.002831,0.006436 -0.001596,0.0143024 0.001223,0.007867 0.00296,0.0143024 0.003836,0.0143024 8.7527e-4,0 0.001596,-0.006436 0.001596,-0.0143024 z m 0.1123298,-0.0209325 c 0,-0.0209712 -0.0455886,-0.0518747 -0.0553973,-0.0375526 -0.005664,0.00827 -8.7527e-4,0.0160485 0.0194084,0.0315 0.0335775,0.0255832 0.0359883,0.0259886 0.0359883,0.006052 z M 0.25280502,0.74120891 c 0.001351,-0.005607 0.0396683,-0.0136194 0.085153,-0.0178034 0.0454856,-0.004184 0.0818725,-0.004069 0.0808606,2.5731e-4 -0.001017,0.004325 -0.0393304,0.0123367 -0.0851531,0.0178035 -0.0458223,0.005467 -0.0822094,0.00535 -0.0808605,-2.5731e-4 z M 0.71960021,0.30915768 c -0.006975,-0.002849 -0.0257271,-0.0155808 -0.0416705,-0.0282949 -0.0159434,-0.0127138 -0.0338799,-0.0222951 -0.0398587,-0.0212909 -0.009506,0.001597 -0.0100231,-1.5408e-4 -0.004119,-0.0139365 0.006628,-0.0154809 0.0205224,-0.008925 0.06642,0.0313441 0.008356,0.007331 0.0266042,0.0133295 0.0405513,0.0133295 0.0139464,0 0.0263662,0.006436 0.0275973,0.0143024 0.002188,0.0139824 -0.0206177,0.0161017 -0.0489178,0.004547 z" id="path4194" inkscape:connector-curvature="0" />
</svg>