<?xml version="1.0" encoding="utf-8" standalone="no"?>
<svg xmlns:dc="http://purl.org/dc/elements/1.1/" xmlns:cc="http://creativecommons.org/ns#" xmlns:rdf="http://www.w3.org/1999/02/22-rdf-syntax-ns#" xmlns:svg="http://www.w3.org/2000/svg" xmlns="http://www.w3.org/2000/svg" xmlns:sodipodi="http://sodipodi.sourceforge.net/DTD/sodipodi-0.dtd" xmlns:inkscape="http://www.inkscape.org/namespaces/inkscape" height="1" version="1.1" width="1" id="svg2" inkscape:version="0.91 r13725" sodipodi:docname="b.svg">
  <metadata id="metadata8">
    <rdf:RDF>
      <cc:Work rdf:about="">
        <dc:format>image/svg+xml</dc:format>
        <dc:type rdf:resource="http://purl.org/dc/dcmitype/StillImage" />
        <dc:title></dc:title>
      </cc:Work>
    </rdf:RDF>
  </metadata>
  <defs id="defs6">
    <pattern width="1" height="1" id="rippleMarkB" patternContentUnits="objectBoundingBox">
      <path style="fill:#000000" d="M 0.03927739,0.75193385 C 0.03913784,0.64957875 0.03835116,0.51627101 0.03753609,0.45569432 0.03647399,0.37665012 0.0373325,0.34323215 0.04056799,0.33732774 c 0.0024823,-0.004523 0.01949418,-0.0192509 0.03780216,-0.0327246 0.0329598,-0.024256 0.11879379,-0.11580916 0.12556729,-0.13393372 0.005273,-0.0141045 0.0115965,-0.0115646 0.0288893,0.0116016 0.032288,0.0432544 0.10381155,0.10301435 0.13723367,0.11466316 0.0104455,0.00364 0.0231528,0.00885 0.0282385,0.0115757 0.005082,0.002728 0.0308832,0.007421 0.0573284,0.0104353 0.093063,0.010605 0.20480462,-0.0595983 0.2875201,-0.18063734 l 0.0286182,-0.0418777 0.0324084,0.0423714 c 0.0404512,0.0528869 0.0688518,0.0793735 0.12302409,0.11473461 0.0233936,0.0152701 0.0437146,0.031145 0.0451577,0.0352775 0.002581,0.00739 0.004897,0.59337478 0.002371,0.60023405 -0.00268,0.007274 -0.24725099,0.0123353 -0.24725099,0.005116 0,-0.004153 0.0120664,-0.007497 0.0268152,-0.007433 0.0147481,6.498e-5 0.0696723,-7.6517e-4 0.12205364,-0.001839 l 0.0952389,-0.001957 0,-0.07076 0,-0.0707599 -0.0378386,0.007506 c -0.0208113,0.004128 -0.0391921,0.009946 -0.0408464,0.0129289 -0.001655,0.00298 -0.005749,-0.001061 -0.009104,-0.008992 -0.003353,-0.007928 -0.004983,-0.009005 -0.003631,-0.002395 C 0.88358455,0.7671379 0.84011615,0.777472 0.77463611,0.7755504 0.71664691,0.7738474 0.67743641,0.7603093 0.64425524,0.7305287 0.62354704,0.711943 0.55844094,0.7162514 0.46857191,0.742155 0.42687031,0.754175 0.37860341,0.7671582 0.36131254,0.7710057 0.34402154,0.7748557 0.32404944,0.7815058 0.31692914,0.785789 0.28106404,0.8073637 0.15950569,0.793998 0.12645147,0.7648449 0.12035047,0.7594639 0.10888197,0.7521257 0.10096947,0.7485418 0.09305747,0.7449568 0.08347163,0.7386668 0.07966789,0.7345632 0.07586419,0.7304592 0.0660164,0.7289732 0.05778402,0.7312682 l -0.01496859,0.004165 0.0010621,0.0932074 c 5.7945e-4,0.051264 0.0027602,0.0967742 0.004835,0.10113354 0.0021612,0.004544 0.0010003,0.007996 -0.0027108,0.008094 -0.0059094,1.5102e-4 -0.006496,-0.0161122 -0.0067325,-0.1859359 z m 0.19980209,0.0124958 c -0.001982,-0.010813 -0.0100429,-0.0217642 -0.0191879,-0.0260745 -0.008671,-0.004085 -0.0272628,-0.0165629 -0.0413126,-0.0277244 -0.0147648,-0.0117298 -0.0295926,-0.0172734 -0.0351364,-0.0131366 -0.007627,0.005691 -0.002396,0.0121746 0.025545,0.0316563 0.019325,0.013475 0.0422104,0.0247206 0.0508559,0.0249897 0.008646,2.6941e-4 0.0157188,0.005085 0.0157188,0.0107032 0,0.0133134 -0.0265663,0.004326 -0.068424,-0.0231564 -0.0416985,-0.0273746 -0.08149031,-0.0374497 -0.07772516,-0.0196797 0.0014573,0.006865 0.0034827,0.010041 0.0045015,0.007059 0.001019,-0.00298 0.006266,-4.7941e-4 0.0116496,0.005566 0.0148006,0.0166104 0.0466946,0.0317972 0.0837628,0.0398858 0.052998,0.0115646 0.0536957,0.0114226 0.0497494,-0.0100873 z m 0.0285373,0.004584 c 0,-0.009612 -0.004397,-0.0138483 -0.0132538,-0.0127679 -0.0112772,0.001376 -0.011728,0.002289 -0.00302,0.006127 0.005625,0.00248 0.009446,0.008227 0.008485,0.0127679 -9.5711e-4,0.004542 3.9155e-4,0.008256 0.00302,0.008256 0.002624,0 0.004767,-0.006473 0.004767,-0.0143846 z m 0.0557545,-0.009986 c -0.001204,-0.003517 -0.0202062,-0.0157187 -0.0422259,-0.0271204 -0.0220191,-0.0114017 -0.0478419,-0.0268879 -0.057384,-0.0344134 -0.009542,-0.007526 -0.0245212,-0.0115717 -0.0332877,-0.008992 -0.0156978,0.00462 -0.0157713,0.00483 -0.004841,0.0138426 0.006101,0.005033 0.0210818,0.0140015 0.0332871,0.0199291 0.0122059,0.00593 0.027185,0.0137039 0.0332877,0.0172806 0.006101,0.003579 0.0235789,0.0101799 0.0388352,0.0146734 0.0152564,0.004492 0.0292647,0.008849 0.0311296,0.009679 0.001865,8.3302e-4 0.002402,-0.001363 0.001204,-0.004881 z m 0.49490651,-0.00674 c 9.6946e-4,-0.002826 -0.0123597,-0.0108994 -0.0296186,-0.017942 -0.0172589,-0.007043 -0.0436022,-0.0219225 -0.0585406,-0.0330668 -0.0178232,-0.0132965 -0.0315291,-0.017586 -0.039867,-0.0124777 l -0.0127067,0.007784 0.0147945,0.007927 c 0.0219271,0.0117487 0.0567023,0.0274676 0.0776705,0.0351083 0.029634,0.0107982 0.024862,0.0179852 -0.007684,0.0115714 -0.0164314,-0.00324 -0.047222,-0.0179075 -0.068424,-0.0325994 -0.040156,-0.0278261 -0.0576335,-0.0325682 -0.061026,-0.0165578 -0.001099,0.005192 -0.001155,0.00944 -1.2028e-4,0.00944 0.001031,0 0.0190243,0.009495 0.0399782,0.0210998 0.0209539,0.0116046 0.0447557,0.0230106 0.0528924,0.0253463 0.0189915,0.005449 0.0903381,0.00111 0.0926511,-0.005634 z m -0.42367556,-0.007696 c 0,-0.005523 0.003742,-0.0121422 0.008322,-0.0147135 0.007135,-0.004011 0.006872,-0.004887 -0.001852,-0.006146 -0.005594,-8.0837e-4 -0.0101713,0.003295 -0.0101713,0.009113 0,0.0159464 -0.0733783,-0.010655 -0.11095795,-0.040225 -0.0111877,-0.008803 -0.0269998,-0.0191538 -0.0351365,-0.023001 -0.0188538,-0.008914 -0.0126271,-0.0206047 0.0152187,-0.0285702 0.0552914,-0.015817 0.0569919,-0.0251439 0.008823,-0.0483824 -0.0152563,-0.00736 -0.0319002,-0.0181399 -0.0369858,-0.0239547 -0.0150371,-0.0171938 -0.0521539,-0.0277563 -0.0506559,-0.0144157 0.00147,0.0131828 0.0346246,0.0353749 0.0672997,0.0450611 0.0387679,0.0114923 0.0511826,0.0254957 0.0166438,0.018774 -0.0301471,-0.005867 -0.0624853,-0.0225445 -0.0876189,-0.0451872 -0.006488,-0.005846 -0.0189718,-0.007658 -0.0277395,-0.004026 l -0.0159418,0.006601 0.0129451,0.007504 c 0.007119,0.004127 0.0279242,0.0151282 0.0462321,0.0244477 0.0526689,0.02681 0.0533302,0.0274576 0.0232856,0.022808 -0.0156719,-0.002425 -0.0398053,-0.0124092 -0.0536297,-0.0221859 -0.013825,-0.009777 -0.0373045,-0.0210118 -0.052178,-0.0249666 -0.02248839,-0.00598 -0.02595128,-0.004862 -0.02055997,0.006637 0.0035629,0.007606 0.0103016,0.0138278 0.01496983,0.0138278 0.008173,0 0.0316396,0.0140072 0.0548251,0.0327251 0.0194343,0.0156895 -0.0275907,-0.001441 -0.0517803,-0.0188625 -0.0122061,-0.008791 -0.03134586,-0.0177753 -0.04253417,-0.0199659 l -0.020342,-0.003983 0.01479446,0.0164984 c 0.0159115,0.0177439 0.07655255,0.0475303 0.0967658,0.0475303 0.006789,0 0.0123418,0.005142 0.0123418,0.0114252 0,0.006284 0.001593,0.008556 0.003538,0.005048 0.001945,-0.003507 0.002501,-0.0142749 0.001223,-0.0239283 -0.002007,-0.0152684 3.64e-6,-0.0166271 0.0154725,-0.010443 0.00978,0.00391 0.0233739,0.007109 0.0302101,0.007109 0.0116625,0 0.0154539,0.0164613 0.007662,0.0332599 -0.001605,0.003459 0.009215,0.0128949 0.0240408,0.0209688 0.0148272,0.008074 0.0277902,0.0152209 0.0288072,0.015882 0.007865,0.005109 0.0680569,0.0276572 0.0813691,0.0304773 0.009154,0.001938 0.0203883,0.004375 0.0249658,0.005412 0.004576,0.001037 0.008322,-0.002635 0.008322,-0.008153 z m 0.46787252,-0.007999 c -0.031605,-0.0114397 -0.0859788,-0.0398635 -0.0924649,-0.048336 -0.008078,-0.0105525 0.001865,-0.00751 0.0607043,0.0185745 0.0191478,0.008489 0.0391205,0.0148418 0.0443834,0.0141182 0.005261,-7.2383e-4 -2.788e-4,-0.005505 -0.012314,-0.0106249 -0.0120355,-0.00512 -0.0320076,-0.017564 -0.0443834,-0.0276528 -0.0123751,-0.0100891 -0.0291579,-0.0174343 -0.0372946,-0.0163229 -0.008137,0.001112 -0.0256129,0.001972 -0.0388352,0.001913 -0.0311969,-1.3968e-4 -0.0234399,0.013945 0.020342,0.0369371 0.0500612,0.0262893 0.0758871,0.0360717 0.0943142,0.0357242 0.0102213,-1.9203e-4 0.0123622,-0.001863 0.005545,-0.004332 z m 0.0360615,-0.010684 c -0.002544,-0.002993 -0.006703,-0.002993 -0.009246,0 -0.002544,0.002993 -4.6201e-4,0.005443 0.004625,0.005443 0.005088,0 0.007166,-0.00245 0.004625,-0.005443 z m -0.53352251,-0.014812 c -0.007119,-0.005217 -0.0191694,-0.0123467 -0.0267775,-0.0158449 -0.007608,-0.003499 -0.0196208,-0.0134155 -0.026696,-0.0220384 -0.007075,-0.008623 -0.020823,-0.0153702 -0.030551,-0.014994 -0.0156756,6.0548e-4 -0.0166352,0.001928 -0.008441,0.0116304 0.0113161,0.0133963 0.0746756,0.0471157 0.0924649,0.0492085 l 0.0129451,0.001524 -0.0129451,-0.009484 z m 0.068424,-0.001035 c -0.01424,-0.00521 -0.0427329,-0.0219196 -0.0633177,-0.0371301 -0.0205847,-0.0152105 -0.0438863,-0.0261032 -0.0517803,-0.024206 -0.0130593,0.003139 -0.0116873,0.005317 0.015236,0.0241791 0.0414318,0.0290265 0.0815279,0.0467929 0.10541011,0.0467057 l 0.020342,-7.454e-5 -0.0258902,-0.009475 z m 0.50755747,1.2527e-4 c -0.0269565,-0.009305 -0.0550586,-0.0255218 -0.0896161,-0.0517124 -0.008137,-0.006167 -0.0231164,-0.0110206 -0.0332871,-0.010786 -0.0161208,3.7317e-4 -0.017307,0.001817 -0.009246,0.0112549 0.020639,0.02417 0.0985692,0.0578791 0.13869737,0.0599946 0.0214195,0.001129 0.0211917,8.2649e-4 -0.006547,-0.008751 z m -0.85751697,-0.003596 c -0.0032171,-0.009391 -0.02892141,-0.0135663 -0.02697508,-0.004382 0.0010806,0.005098 0.0079681,0.009268 0.01530636,0.009268 0.0073383,0 0.0125894,-0.0022 0.01166872,-0.004886 z m 0.45043804,-0.009838 c 0,-0.010204 -0.009745,-0.0190391 -0.0317464,-0.0287821 -0.0174608,-0.007732 -0.0379874,-0.0203102 -0.0456159,-0.0279513 -0.007628,-0.007642 -0.0138701,-0.0115102 -0.0138701,-0.008598 0,0.002913 -0.003353,6.489e-5 -0.007449,-0.006333 -0.004409,-0.006888 -0.0130828,-0.008435 -0.021267,-0.003794 l -0.0138176,0.007834 0.0129451,0.009476 c 0.0246336,0.0180328 0.0463822,0.0294566 0.0813692,0.0427403 0.019325,0.007337 0.0310425,0.0151623 0.0260384,0.0173887 -0.0108401,0.004823 -0.0758111,-0.0179305 -0.0871704,-0.030528 -0.004384,-0.004861 -0.0128105,-0.0113572 -0.018726,-0.014437 -0.005916,-0.00308 -0.015751,-0.009686 -0.0218536,-0.0146792 -0.006101,-0.004993 -0.0185852,-0.006259 -0.0277395,-0.002812 -0.0161937,0.006099 -0.0163437,0.0065 -0.005551,0.0148438 0.0245539,0.0189769 0.0383702,0.0266541 0.0684241,0.0380202 0.0472393,0.0178656 0.0514901,0.018969 0.079828,0.0207172 0.0199388,0.00123 0.0261983,-0.0019 0.0261983,-0.0131074 z m 0.0299403,-0.003477 c -0.003538,-0.002701 -0.0101935,-0.002798 -0.0147945,-2.1864e-4 -0.0046,0.002581 -0.00171,0.00479 0.006429,0.004909 0.008137,1.1996e-4 0.0119009,-0.001992 0.008365,-0.004691 z m 0.38183689,-0.0107324 c -0.0132223,-0.008592 -0.0323942,-0.0229009 -0.0426038,-0.0317968 -0.0102096,-0.008896 -0.0268534,-0.0146209 -0.0369858,-0.0127221 l -0.0184228,0.003453 0.0221914,0.0151767 c 0.0330759,0.0226202 0.0722908,0.0413058 0.086917,0.0414152 0.009613,7.453e-5 0.006757,-0.003924 -0.0110957,-0.0155254 z M 0.09594093,0.68228618 c -0.0045756,-0.002572 -0.01206638,-0.002572 -0.01664384,0 -0.0045756,0.002572 -8.2744e-4,0.004676 0.0083219,0.004676 0.0091537,0 0.01289938,-0.002103 0.0083219,-0.004676 z m 0.50192226,-0.0148475 c -0.002106,-0.0114684 -0.009429,-0.0223098 -0.0174509,-0.0258291 -0.007604,-0.003336 -0.0258562,-0.0156818 -0.0405617,-0.0274352 -0.0147049,-0.0117539 -0.0330135,-0.0208722 -0.0406846,-0.0202635 l -0.0139479,0.001107 0.0203426,0.0192334 c 0.0111883,0.0105782 0.0348123,0.0255468 0.0524984,0.0332632 0.0176855,0.007717 0.0314883,0.0171831 0.0306714,0.0210371 -0.001908,0.009004 -0.0500149,-0.0133892 -0.0910728,-0.0423933 -0.0336508,-0.0237716 -0.0552642,-0.0294478 -0.0492406,-0.0129319 0.00772,0.021167 0.10321425,0.0694387 0.14486776,0.0732297 0.006833,6.2016e-4 0.007598,-0.002559 0.004576,-0.0190172 z m -0.53613421,0.003896 c -0.0050819,-0.002661 -0.01091044,-0.00957 -0.01294507,-0.0153526 -0.0024329,-0.006917 -0.0018031,-0.008693 0.0018525,-0.00519 0.007957,0.007636 0.03692656,0.0155908 0.07951977,0.0218353 0.0297612,0.004363 0.0326511,0.003632 0.0147945,-0.003745 -0.0122059,-0.005042 -0.0318607,-0.0119769 -0.0436782,-0.0154109 -0.01181754,-0.003434 -0.02294904,-0.00888 -0.02473606,-0.0121023 -0.0017845,-0.003223 -0.01001014,-0.008617 -0.0182734,-0.0119884 -0.01423872,-0.005809 -0.01502293,-0.004669 -0.01502293,0.0218007 0,0.0253436 0.0012844,0.027794 0.01386884,0.0264609 0.010104,-0.00107 0.01135997,-0.002783 0.004625,-0.006308 z m 0.90788182,-0.00243 c 0.003057,-0.0144189 -0.0214831,-0.0335385 -0.0498074,-0.0388087 -0.0260501,-0.004847 -0.0224273,0.001292 0.0184932,0.0313404 0.0260846,0.0191541 0.0287059,0.0197793 0.0313142,0.007469 z m -0.77473248,-0.009076 c 0,-0.004671 -0.003365,-0.009232 -0.007477,-0.0101353 -0.004112,-9.0482e-4 -0.006511,0.002918 -0.005329,0.008493 0.0026,0.0122627 0.0128074,0.0135722 0.0128074,0.001643 z m 0.0137923,0.001974 c -0.001223,-0.003585 -0.004421,-0.003968 -0.007089,-8.5261e-4 -0.002952,0.003444 -0.002075,0.006 0.002235,0.006518 0.003903,4.6956e-4 0.006082,-0.002081 0.004853,-0.005666 z m 0.45592901,-0.005463 c 0.0122665,-0.001275 0.0120726,-0.001787 -0.003699,-0.009763 -0.009154,-0.00463 -0.0234461,-0.0114575 -0.03176,-0.0151727 -0.008314,-0.003716 -0.0266169,-0.0163481 -0.0406729,-0.0280728 -0.0260797,-0.0217546 -0.0590519,-0.0288561 -0.0554686,-0.0119466 0.001093,0.005154 0.009096,0.0131751 0.0177868,0.017824 0.008691,0.004649 0.0166333,0.009291 0.0176504,0.0103152 0.001019,0.001023 0.0101713,0.006117 0.0203426,0.0113161 0.0101713,0.0052 0.0197412,0.0102982 0.021267,0.0113302 0.001525,0.001033 0.008183,0.003246 0.0147945,0.00492 0.0110432,0.002796 0.0106678,0.00368 -0.004625,0.0108878 -0.0135836,0.006402 -0.0122239,0.007097 0.007398,0.003776 0.0132223,-0.002237 0.0298662,-0.004673 0.0369858,-0.005414 z m 0.0249658,-4.5473e-4 c -6.6071e-4,-0.008893 0.0139868,-0.0127352 0.0514061,-0.0134855 0.0287819,-5.7584e-4 0.0504187,-0.004615 0.0480815,-0.008975 -0.005162,-0.009626 -0.002285,-0.010728 0.0216412,-0.008287 0.0256666,0.002619 0.019814,-0.006618 -0.009246,-0.0145932 -0.0132223,-0.003629 -0.0381881,-0.0165698 -0.0554791,-0.028758 -0.0538063,-0.0379273 -0.059686,-0.0406711 -0.0697412,-0.0325446 -0.008525,0.006889 -0.006934,0.009645 0.0124128,0.0214923 0.0122053,0.007474 0.0246879,0.016227 0.0277395,0.0194511 0.00305,0.003224 0.008876,0.006804 0.0129451,0.007955 0.0403617,0.0114231 0.0571247,0.0192614 0.0556884,0.0260398 -0.002822,0.0133071 -0.0866272,-0.0232684 -0.1203892,-0.0525406 -0.0157374,-0.0136445 -0.0488818,-0.0148408 -0.0407087,-0.00147 0.004773,0.007805 0.0147024,0.0149167 0.0406846,0.0291326 0.00305,0.00167 0.0113729,0.006293 0.0184932,0.0102747 0.00712,0.003982 0.0185661,0.008926 0.0254357,0.0109882 0.0162221,0.004868 0.019756,0.0153905 0.005168,0.0153905 -0.0131921,0 -0.0817837,-0.038919 -0.0956041,-0.0542458 -0.005199,-0.005767 -0.0164197,-0.0101771 -0.0249324,-0.009801 -0.0134434,5.9313e-4 -0.0143387,0.002017 -0.006809,0.0108152 0.0125585,0.0146775 0.0776104,0.0532314 0.0898169,0.0532314 0.007716,0 0.009843,0.004164 0.008261,0.0161828 -0.001173,0.0089 -2.8818e-4,0.0161828 0.001964,0.0161828 0.002254,0 0.00368,-0.005596 0.003168,-0.0124365 z M 0.97158344,0.625168 c 0,-0.005934 -0.007073,-0.0104472 -0.0157189,-0.0100301 -0.0121738,5.8572e-4 -0.014051,0.002849 -0.008322,0.0100301 0.0103146,0.0129284 0.0240408,0.0129284 0.0240408,0 z M 0.33265105,0.617554 c -0.004576,-0.002572 -0.0120664,-0.002572 -0.0166438,0 -0.004576,0.002572 -8.2744e-4,0.004675 0.008322,0.004675 0.009154,0 0.0128981,-0.002103 0.008322,-0.004675 z M 0.8696871,0.615745 C 0.8677541,0.610562 0.8520263,0.6008343 0.8347353,0.5941263 0.7812285,0.5733683 0.7740539,0.5693673 0.7626126,0.5539065 L 0.7515169,0.5389127 0.7626126,0.5437977 c 0.006101,0.002687 0.0194176,0.009866 0.0295889,0.0159534 0.0307856,0.018426 0.0953346,0.0434861 0.10910857,0.04236 0.011397,-9.3175e-4 0.0108024,-0.002106 -0.004977,-0.00983 -0.009856,-0.004825 -0.0256672,-0.0118121 -0.0351365,-0.0155284 -0.009469,-0.003716 -0.0297001,-0.0168544 -0.0449564,-0.0291964 -0.015257,-0.0123417 -0.0310684,-0.0223543 -0.0351364,-0.02225 -0.0145752,3.7317e-4 -0.0685247,0.0168565 -0.0672588,0.0205489 0.002927,0.008538 0.0802305,0.0481906 0.13013493,0.0667526 0.01424,0.005297 0.0266392,0.010289 0.0275543,0.0110947 9.1389e-4,8.059e-4 8.274e-5,-0.002776 -0.001852,-0.007957 z M 0.36814726,0.60346074 c -0.0370254,-0.010334 -0.0744507,-0.0307129 -0.0974479,-0.0530625 -0.0119095,-0.0115746 -0.0237592,-0.015622 -0.0332877,-0.0113695 l -0.0147945,0.006602 0.0110957,0.008304 c 0.006101,0.004567 0.0135916,0.0107119 0.0166438,0.0136556 0.008582,0.008279 0.0438437,0.0246766 0.068424,0.0318193 0.0122059,0.003547 0.0228848,0.008365 0.0237326,0.0107085 8.4596e-4,0.002343 0.0133304,0.003581 0.0277395,0.002751 l 0.0261983,-0.00151 -0.0283045,-0.0079 z m 0.0318181,-0.0100748 c -0.001933,-0.005613 -0.0126678,-0.0131561 -0.0238561,-0.0167635 -0.0216523,-0.006982 -0.0584967,-0.0321816 -0.0620022,-0.0424062 -0.0031,-0.009034 0.006353,-0.00706 0.023167,0.004841 0.008137,0.005759 0.031011,0.01778 0.0508312,0.0267136 0.0198202,0.008934 0.0372958,0.0168174 0.0388352,0.0175195 0.001538,7.0655e-4 -0.002192,0.004983 -0.008297,0.009512 -0.01012,0.00751 -0.009631,0.008333 0.005551,0.009347 0.0112816,7.5159e-4 0.0149346,-0.002044 0.0113384,-0.00868 -0.003915,-0.007227 -0.001976,-0.011047 0.007397,-0.0145862 0.0122368,-0.004619 0.0121596,-0.004805 -0.002093,-0.005076 -0.016713,-3.188e-4 -0.0705189,-0.0320781 -0.0805993,-0.0475766 -0.009117,-0.0140185 -0.0431756,-0.0136353 -0.0480358,5.3876e-4 -0.002606,0.007602 -0.005465,0.007957 -0.008324,0.001033 -0.003643,-0.008826 -0.0410205,-0.002706 -0.0379003,0.006206 0.002593,0.007413 0.0638951,0.0408617 0.0971881,0.0530311 0.020342,0.007435 0.0377349,0.014201 0.0386506,0.0150338 9.2624e-4,8.3302e-4 8.657e-5,-0.003077 -0.001852,-0.00869 z m 0.0750814,-0.008021 c -0.003563,-0.002714 -0.009385,-0.002714 -0.0129451,0 -0.003563,0.002714 -6.4837e-4,0.004935 0.006473,0.004935 0.00712,0 0.0100324,-0.002222 0.006473,-0.004935 z m 0.4852689,0.003339 c -9.8798e-4,-0.002888 -0.0142554,-0.008338 -0.0294784,-0.0121107 -0.015223,-0.003772 -0.0301743,-0.009423 -0.0332259,-0.012558 -0.00305,-0.003135 -0.0103146,-0.008032 -0.01614,-0.0108846 -0.005823,-0.002852 -0.0199894,-0.0139417 -0.0314741,-0.024644 -0.0143245,-0.0133481 -0.0255166,-0.017132 -0.0356403,-0.0120501 l -0.014758,0.007408 0.0277395,0.0177365 c 0.0266972,0.0170697 0.0711582,0.0374514 0.0943142,0.0432349 0.0308745,0.007711 0.0403042,0.008654 0.0386636,0.003868 z M 0.0533295,0.56470641 c -0.0012226,-0.003585 -0.0044212,-0.003968 -0.0070894,-8.5261e-4 -0.0029516,0.003445 -0.0020748,0.006 0.0022353,0.006518 0.0038964,4.6956e-4 0.0060823,-0.002081 0.0048535,-0.005666 z m 0.41524466,-0.003609 c 0,-0.00557 -0.007906,-0.0138285 -0.0175682,-0.0183519 -0.009663,-0.004523 -0.0184006,-0.008838 -0.0194176,-0.009589 -0.001019,-7.5159e-4 -0.008076,-0.005162 -0.0156867,-0.009802 -0.007611,-0.004641 -0.0131427,-0.0117145 -0.0122949,-0.0157194 8.4597e-4,-0.004005 -0.0100632,-0.007587 -0.0242495,-0.007961 -0.0141856,-3.7318e-4 -0.0244644,0.002719 -0.0228422,0.006874 0.004841,0.0124021 0.0586246,0.0461853 0.0917164,0.0576127 0.006101,0.002108 0.013176,0.004559 0.0157188,0.005449 0.002544,8.9013e-4 0.004625,-0.002941 0.004625,-0.008511 z m 0.0295889,0.005914 c 0,-0.002318 -0.005823,-0.006198 -0.0129451,-0.008622 -0.00712,-0.002425 -0.0129451,-5.3134e-4 -0.0129451,0.004214 0,0.004742 0.005823,0.008622 0.0129451,0.008622 0.00712,0 0.0129451,-0.001895 0.0129451,-0.004214 z m 0.0721227,-0.006574 c -0.00126,-0.005934 0.001556,-0.0113515 0.006254,-0.0120399 0.006603,-9.6846e-4 0.007023,-0.002397 0.001852,-0.006307 -0.00368,-0.00278 -0.009457,-0.001955 -0.0128413,0.001832 -0.005298,0.005934 -0.005397,0.008277 -7.1011e-4,0.0169299 0.007028,0.0129645 0.008259,0.0128706 0.005446,-4.1766e-4 z m 0.39729086,0.006408 c -8.4596e-4,-0.002409 -0.006534,-0.006903 -0.0126369,-0.009986 -0.0299995,-0.0151564 -0.0533512,-0.0305673 -0.0686876,-0.0453305 -0.009299,-0.008951 -0.0209496,-0.0141066 -0.0258901,-0.011456 -0.00494,0.00265 -0.0106474,0.005598 -0.0126814,0.006548 -0.005298,0.002475 0.015052,0.0202869 0.0388352,0.0339939 0.0358953,0.0206873 0.0846626,0.0364679 0.0810609,0.0262309 z M 0.09686544,0.54892562 C 0.08059147,0.54382162 0.0618673,0.53757542 0.05525645,0.53504422 c -0.0066121,-0.002531 -0.0120207,-5.7583e-4 -0.0120207,0.00435 0,0.0102854 0.01600722,0.015294 0.05547907,0.0173596 l 0.0277395,0.001451 -0.0295889,-0.00928 z m 0.44013292,7.59e-4 c -0.0101713,-0.004434 -0.0259828,-0.0110942 -0.0351364,-0.0147995 -0.009154,-0.003706 -0.0282891,-0.0164632 -0.0425223,-0.028351 -0.0274826,-0.022954 -0.0499426,-0.0281665 -0.0499426,-0.0115905 0,0.0188886 0.08708,0.062245 0.12575235,0.0626109 l 0.0203426,1.898e-4 -0.0184932,-0.008063 z m -0.3765089,-0.006843 c -0.001297,-0.003778 -0.006156,-0.008059 -0.0107981,-0.009513 -0.049114,-0.0153776 -0.0641986,-0.0203441 -0.06577122,-0.0216554 -0.0010189,-8.4771e-4 -0.0064256,-0.004788 -0.01202131,-0.008754 -0.02550422,-0.0180832 -0.02866392,-0.0184295 -0.02866392,-0.003141 0,0.0161469 0.04104214,0.0374053 0.08129549,0.0421085 0.011147,0.001303 0.0243285,0.003596 0.0292907,0.005096 0.004965,0.0015 0.007962,-3.6329e-4 0.006666,-0.004141 z m 0.47596257,-0.005295 c 0.0142708,-0.001235 0.0139553,-0.001829 -0.005138,-0.009705 -0.0111883,-0.004615 -0.0286639,-0.011223 -0.0388352,-0.0146866 -0.0101713,-0.003463 -0.0276469,-0.0138945 -0.0388352,-0.0231799 -0.027432,-0.0227662 -0.0554791,-0.0321668 -0.0554791,-0.0185955 0,0.00593 0.007073,0.0145101 0.0157188,0.0190668 0.0233504,0.0123066 0.0254499,0.0138663 0.0277704,0.0206347 0.00473,0.0137927 -0.0209237,0.004726 -0.0434892,-0.0153732 -0.0132223,-0.0117766 -0.0306979,-0.021107 -0.0388352,-0.0207342 l -0.0147945,6.7261e-4 0.0138516,0.014839 c 0.0172786,0.0185107 0.0763838,0.0487365 0.0924851,0.0472958 0.0115526,-0.001033 0.0116601,-0.001441 0.002773,-0.0104897 -0.006475,-0.006592 -0.002593,-0.008004 0.0129451,-0.004708 0.0122053,0.002589 0.0263526,0.005456 0.0314383,0.006371 0.008743,0.001574 0.008642,0.002162 -0.001852,0.0108118 -0.008678,0.007154 -0.007156,0.008051 0.006989,0.004118 0.009947,-0.002766 0.0249256,-0.005621 0.0332871,-0.006344 z m 0.33513141,-1.0629e-4 c 0,-0.00419 -0.007073,-0.0124312 -0.0157188,-0.0183131 -0.008645,-0.005882 -0.0207125,-0.0149364 -0.0268152,-0.0201213 -0.006101,-0.005185 -0.0177535,-0.006834 -0.0258902,-0.003666 -0.0140535,0.005474 -0.0132198,0.006769 0.0166439,0.0258645 0.017291,0.0110565 0.0331024,0.021389 0.0351364,0.022961 0.006628,0.005123 0.0166439,0.001075 0.0166439,-0.006726 z m -0.28201801,-0.009561 c 0.0152724,0.001026 0.0194176,-0.002269 0.0194176,-0.0154335 0,-0.0122832 -0.003693,-0.0165354 -0.0138701,-0.0159789 -0.0114001,6.2263e-4 -0.0125523,0.002511 -0.006473,0.0106026 0.0166253,0.0221254 -0.0612409,-0.009548 -0.0959102,-0.0390129 -0.0100318,-0.008526 -0.0275074,-0.0150843 -0.0388352,-0.0145747 -0.0183673,8.265e-4 -0.0193954,0.002005 -0.0095,0.0108963 0.0235764,0.0211818 0.064125,0.0429495 0.092307,0.0495536 0.0210064,0.004922 0.0273585,0.009541 0.0221914,0.016135 -0.005693,0.007265 -0.005261,0.007878 0.002007,0.002874 0.005088,-0.003501 0.0179844,-0.005778 0.0286639,-0.005061 z M 0.16665171,0.51145823 c -0.006507,-0.0145647 -0.006371,-0.0152073 0.002334,-0.0110159 0.005082,0.002449 0.0159041,0.005542 0.0240408,0.006873 l 0.0147945,0.002422 -0.0166439,0.007921 c -0.009154,0.004357 0.002495,0.005408 0.0258902,0.002338 0.0233936,-0.003071 0.0429706,-0.006615 0.0435047,-0.007877 5.3246e-4,-0.001263 -0.0194386,-0.007885 -0.0443834,-0.0147179 -0.0249448,-0.006832 -0.0535241,-0.019718 -0.0635102,-0.0286342 -0.009987,-0.008916 -0.028294,-0.0157366 -0.0406846,-0.0151565 l -0.02252853,0.001055 0.02589015,0.0160309 c 0.0142399,0.008817 0.029219,0.0204056 0.0332871,0.0257527 0.010748,0.0141251 -0.0249337,8.5261e-4 -0.0499309,-0.0185713 -0.01920272,-0.0149218 -0.02940984,-0.018411 -0.04592463,-0.0156974 -0.0089857,0.001475 -0.00586,0.011137 0.0056624,0.0175037 0.0048535,0.00268 0.01298398,0.0073 0.01806901,0.0102644 0.02437977,0.0142126 0.03699881,0.0197793 0.05917722,0.0261049 0.0132223,0.003772 0.0271505,0.007761 0.0309511,0.008865 0.006748,0.00196 0.006748,0.001646 0,-0.0134584 z m 0.55612404,-6.9175e-4 c -0.001229,-0.003585 -0.004421,-0.003968 -0.007089,-8.5015e-4 -0.002952,0.003444 -0.002075,0.006 0.002235,0.006518 0.003896,4.6957e-4 0.006082,-0.002081 0.004853,-0.005666 z m 0.24695837,-0.0159578 c 0,-0.0107287 -0.004687,-0.0153973 -0.0157188,-0.0156653 -0.0187835,-4.5472e-4 -0.020103,0.007937 -0.003699,0.0235215 0.0147093,0.0139736 0.0194176,0.0120687 0.0194176,-0.007856 z m -0.66859831,0.005164 c -0.001223,-0.003585 -0.004421,-0.003968 -0.007089,-8.5261e-4 -0.002952,0.003444 -0.002075,0.006 0.002235,0.006518 0.003903,4.6955e-4 0.006082,-0.002081 0.004853,-0.005666 z m 0.50689799,-0.00618 c -8.8301e-4,-0.00785 -0.007305,-0.0156593 -0.0142677,-0.0173549 -0.006963,-0.001697 -0.025143,-0.011182 -0.0403999,-0.0210817 -0.0340645,-0.0221042 -0.0295334,-0.0184937 -0.0417374,-0.0332541 -0.005662,-0.006851 -0.0139868,-0.0104464 -0.0184932,-0.007988 -0.004508,0.002456 -0.009719,0.004825 -0.0115841,0.00527 -0.0137633,0.003252 0.027989,0.035462 0.0644172,0.0496911 0.0111883,0.004369 0.0278322,0.011501 0.0369858,0.0158461 l 0.0166438,0.0079 -0.0147945,0.001399 c -0.008137,7.7134e-4 -0.0289417,-0.00563 -0.046232,-0.0142239 -0.0576384,-0.0286458 -0.0675279,-0.0357977 -0.0651323,-0.0471035 8.5214e-4,-0.004023 -0.0106153,-0.007314 -0.0254832,-0.007314 -0.0148679,0 -0.0263415,0.003264 -0.0254962,0.007254 0.00192,0.009069 0.050026,0.0420486 0.0698794,0.0479078 0.008137,0.002402 0.0221574,0.008036 0.0311567,0.0125204 0.008999,0.004484 0.0320638,0.009651 0.0512536,0.0114797 0.0276549,0.002636 0.0345579,3.633e-4 0.033284,-0.0109469 z m -0.56243677,-0.004779 c -0.002087,-0.006096 -0.0197128,-0.0179631 -0.0488688,-0.0329093 -0.006101,-0.003129 -0.0140399,-0.010281 -0.0176368,-0.0158946 -0.007525,-0.0117398 -0.0412156,-0.009223 -0.0369636,0.002759 0.003032,0.008551 0.0654868,0.0403107 0.10052458,0.05112 0.002884,8.9014e-4 0.004205,-0.001397 0.002945,-0.005077 z m 0.0223291,-7.4358e-4 c -0.003557,-0.002714 -0.009385,-0.002714 -0.0129451,0 -0.003557,0.002714 -6.4219e-4,0.004935 0.006473,0.004935 0.007119,0 0.0100324,-0.002222 0.006473,-0.004935 z m 0.0711982,-0.003696 c -0.004075,-0.007937 -0.001408,-0.0102003 0.01007,-0.008531 0.00859,0.001251 0.0167729,-0.001098 0.0181851,-0.005214 0.001408,-0.004116 -0.003229,-0.007487 -0.0103158,-0.007487 -0.007085,0 -0.0227582,-0.005498 -0.0348283,-0.0122162 -0.0120713,-0.006719 -0.0240266,-0.0123829 -0.0265694,-0.0125864 -0.002544,-2.0494e-4 -0.004625,-0.004979 -0.004625,-0.0106187 0,-0.005634 0.003742,-0.007166 0.008322,-0.0034 0.0172317,0.0141847 0.0992534,0.0399401 0.11449815,0.0359532 0.0155744,-0.004073 0.0155101,-0.00419 -0.003297,-0.006035 C 0.40001668,0.453402 0.37996188,0.445543 0.36599608,0.436974 0.35203028,0.428405 0.33598298,0.4189493 0.33033598,0.4159626 c -0.00565,-0.002987 -0.0155509,-0.0102947 -0.0220068,-0.0162383 -0.0135181,-0.0124458 -0.039478,-0.0117713 -0.039478,0.001024 0,0.004757 0.003229,0.00865 0.007179,0.00865 0.003946,0 0.008208,0.004856 0.009465,0.0107883 0.002902,0.0136947 0.002982,0.0137138 -0.0187464,-0.004511 -0.0196239,-0.0164573 -0.0376737,-0.0192953 -0.0404154,-0.006355 -9.3859e-4,0.004412 0.00825,0.0141754 0.0204099,0.0217025 0.0121603,0.007527 0.0221086,0.0174385 0.0221086,0.0220264 0,0.007588 -0.0213967,-0.005048 -0.0499309,-0.0294918 -0.006101,-0.005227 -0.0177535,-0.006876 -0.0258902,-0.003666 -0.0142091,0.005609 -0.0136249,0.00657 0.0147945,0.0243195 0.035728,0.022314 0.0831248,0.0411617 0.0992051,0.0394494 0.0131032,-0.001397 0.009083,-0.004931 -0.0169828,-0.014938 -0.009701,-0.003727 -0.0167531,-0.010958 -0.0156694,-0.0160735 0.001099,-0.005165 0.007285,-0.004856 0.0139176,6.9112e-4 0.006569,0.005498 0.0198628,0.009994 0.0295389,0.009994 0.009677,0 0.0173959,0.003641 0.0171545,0.008091 -9.2623e-4,0.0170165 5.9508e-4,0.024268 0.005063,0.0241087 0.0031,-1.1388e-4 0.002797,-0.00372 -9.2624e-4,-0.0109682 z m 0.32732571,1.2053e-4 c -0.0414719,-0.0332791 -0.0681153,-0.0481995 -0.0759645,-0.0425403 -0.007078,0.005103 -0.003754,0.009644 0.0149377,0.0204085 0.0335026,0.019294 0.0520823,0.0280591 0.0628761,0.0296623 0.007937,0.001179 0.007675,1.1389e-4 -0.001852,-0.007531 z M 0.8477379,0.47385873 c 0.001291,-0.006078 9.6946e-4,-0.009945 -7.0394e-4,-0.008587 -0.006182,0.005004 -0.0445353,-0.0146694 -0.0714729,-0.0366643 -0.0292055,-0.0238468 -0.0591778,-0.03367 -0.0591778,-0.0193946 0,0.004653 0.004576,0.0114066 0.0101713,0.0150128 0.0297643,0.0191885 0.0455757,0.0273962 0.0656501,0.0340773 0.0187705,0.006247 0.0500921,0.0214223 0.0524867,0.0254292 3.884e-4,6.5225e-4 0.00176,-0.003792 0.00305,-0.009874 z m 0.0304571,0.003619 c -0.003563,-0.002714 -0.009385,-0.002714 -0.0129451,0 -0.003563,0.002714 -6.4837e-4,0.004935 0.006473,0.004935 0.00712,0 0.0100324,-0.002219 0.006473,-0.004935 z m 0.0342121,-0.0141401 c -0.005088,-0.004752 -0.0170489,-0.009122 -0.0265854,-0.009713 -0.009537,-5.9314e-4 -0.0286769,-0.008857 -0.042534,-0.0183678 -0.0138571,-0.009511 -0.0268596,-0.0184024 -0.0288936,-0.01976 -0.002032,-0.001358 -0.0103559,-0.007886 -0.0184932,-0.0145087 -0.008403,-0.00684 -0.0203865,-0.008598 -0.0277395,-0.004073 -0.0119935,0.007385 -0.0106338,0.009301 0.0184932,0.0260738 0.0524262,0.0301891 0.0947785,0.04696 0.12205371,0.0483323 0.0115952,5.8567e-4 0.0119812,-2.496e-4 0.003699,-0.007987 z M 0.46857545,0.44828823 c 0,-0.002345 -0.006518,-0.006072 -0.0144832,-0.00829 -0.007966,-0.002215 -0.0136929,-2.9656e-4 -0.0127271,0.004264 0.00176,0.008296 0.0272097,0.0120644 0.0272097,0.00403 z m 0.0397602,-0.0149091 c -0.007628,-0.002036 -0.0138695,-0.008558 -0.0138695,-0.0144834 0,-0.005924 0.001247,-0.008649 0.002773,-0.006054 0.001525,0.002598 0.0169211,0.007317 0.0342121,0.0104878 l 0.0314383,0.005763 -0.0332871,-0.0156737 c -0.018308,-0.008621 -0.0441055,-0.0232797 -0.0573285,-0.0325753 -0.0271146,-0.019062 -0.0702733,-0.0344796 -0.0702733,-0.0251038 0,0.006029 0.0350574,0.0317114 0.0721227,0.0528388 0.014558,0.008298 0.0155416,0.009967 0.004625,0.007842 -0.015147,-0.002949 -0.0158751,-0.001617 -0.009713,0.0176976 0.002785,0.008724 0.0122566,0.0113665 0.0286639,0.007997 0.0177232,-0.003641 0.020668,-0.00606 0.0106375,-0.008743 z m 0.40592091,0.002802 c -0.0142399,-0.007863 -0.0288028,-0.0146796 -0.0323627,-0.0151485 -0.003563,-4.6959e-4 -0.006473,-0.006227 -0.006473,-0.012795 0,-0.007039 0.002655,-0.008863 0.006473,-0.004443 0.006033,0.006986 0.0708143,0.0368596 0.0815874,0.0376205 0.002661,1.8982e-4 0.00381,-0.004511 0.002556,-0.0104464 -0.00126,-0.005936 -0.007597,-0.0108629 -0.0140881,-0.0109543 -0.006491,-8.349e-5 -0.0251171,-0.0103934 -0.041391,-0.0228941 -0.0409896,-0.0314862 -0.0467984,-0.0337681 -0.0571772,-0.0224621 -0.008734,0.009515 -0.00855,0.010207 0.004625,0.0174157 0.007545,0.004128 0.0137188,0.011667 0.0137188,0.016751 0,0.005085 -0.007906,0.001801 -0.0175682,-0.007292 -0.019488,-0.0183425 -0.0596342,-0.029195 -0.054262,-0.0146685 0.003656,0.009885 0.075126,0.0515966 0.0995695,0.058111 0.0328375,0.008751 0.0394509,0.004819 0.0147945,-0.008795 z M 0.0663534,0.43414513 c -0.0045756,-0.002573 -0.01206638,-0.002573 -0.01664384,0 -0.0045756,0.002573 -8.2744e-4,0.004678 0.0083219,0.004678 0.0091537,0 0.01289938,-0.002104 0.0083219,-0.004678 z m 0.02026481,0.001092 c -0.0012226,-0.003585 -0.0044212,-0.003968 -0.0070894,-8.5179e-4 -0.0029516,0.003443 -0.0020748,0.005998 0.0022353,0.006518 0.0038964,4.6953e-4 0.0060823,-0.00208 0.0048535,-0.005665 z m 0.3061359,-0.0218364 c -0.0486465,-0.0315658 -0.081502,-0.0436715 -0.0783668,-0.0288741 0.001223,0.005739 0.01352,0.0164012 0.0273431,0.0237005 0.0138238,0.0073 0.0326233,0.0172972 0.041777,0.0222178 0.009154,0.004918 0.0241334,0.009038 0.0332871,0.009151 0.0130216,1.5945e-4 0.00779,-0.005542 -0.0240408,-0.0261948 z m -0.28294239,0.006778 c -0.007243,-0.013654 -0.0121399,-0.013654 -0.009246,0 0.001253,0.005936 0.0051,0.0107143 0.00854,0.0106229 0.005391,-1.4427e-4 0.00549,-0.001611 7.0394e-4,-0.0106229 z m 0.35136653,0 c 0,-0.005936 -0.003859,-0.0107883 -0.008572,-0.0107883 -0.004718,0 -0.0209422,-0.009596 -0.0360615,-0.021323 -0.0283972,-0.0220271 -0.0608877,-0.029021 -0.0573544,-0.012347 0.001111,0.005214 0.0174312,0.0172447 0.0362801,0.0267298 0.0299996,0.0150973 0.0402999,0.0196328 0.0610847,0.0269001 0.002544,8.885e-4 0.004625,-0.00324 0.004625,-0.009172 z M 0.07282566,0.40938852 c -0.01340202,-0.0125204 -0.02958892,-0.0125204 -0.02958892,0 0,0.005961 0.008693,0.010307 0.01941762,0.009713 0.01527672,-8.4527e-4 0.01744596,-0.002918 0.0101713,-0.009713 z m 0.02118981,0.00427 c -0.001223,-0.003585 -0.0044212,-0.003968 -0.0070894,-8.5179e-4 -0.0029516,0.003443 -0.0020748,0.005998 0.0022353,0.006518 0.0038964,4.6959e-4 0.0060823,-0.00208 0.0048535,-0.005665 z m 0.0876104,-0.0148017 c 0.0209045,-3.7315e-4 0.0151532,-0.007767 -0.0126363,-0.0162507 -0.0132223,-0.004035 -0.0406846,-0.0166384 -0.0610266,-0.0280049 -0.02034261,-0.0113665 -0.04197887,-0.0204492 -0.04808153,-0.0201839 -0.01059614,4.6219e-4 -0.01042818,0.001136 0.0036988,0.0149548 0.0081373,0.007961 0.02394814,0.0176446 0.03513707,0.0215216 0.0111877,0.003875 0.0286639,0.009857 0.0388352,0.0132893 0.0101713,0.003431 0.0191867,0.00808 0.0200339,0.0103286 0.004366,0.011588 -0.0403487,0.0015 -0.07564657,-0.0170689 -0.02212222,-0.0116361 -0.04062162,-0.0199919 -0.04111006,-0.0185671 -4.8547e-4,0.001425 2.8189e-4,0.008122 0.0017166,0.014882 0.0014573,0.006889 0.02290952,0.0179414 0.04880523,0.0251457 0.02541036,0.007069 0.0467002,0.0141822 0.0473109,0.0158058 6.1076e-4,0.001623 0.007268,-0.001222 0.0147945,-0.006321 0.007527,-0.005103 0.0202031,-0.009389 0.0281705,-0.00953 z m 0.41270176,0.009375 c -0.0111883,-0.005159 -0.0336576,-0.01494 -0.0499309,-0.0217352 -0.016274,-0.006795 -0.0387426,-0.0203202 -0.0499309,-0.0300564 -0.0116576,-0.0101447 -0.0258692,-0.0151103 -0.0332871,-0.0116318 -0.0118836,0.005573 -0.0105906,0.007647 0.0157676,0.0253037 0.0338261,0.0226589 0.0974785,0.0476658 0.12108036,0.047569 l 0.0166438,-6.492e-5 -0.020342,-0.009381 z m 0.37516172,0.002314 c 0.002587,-0.0121977 -0.0546868,-0.0578729 -0.0655931,-0.0523124 -0.007463,0.003807 -0.007219,0.005263 0.002964,0.0177007 0.006101,0.007455 0.0219141,0.019892 0.0351365,0.0276381 0.0132223,0.007746 0.0243588,0.0146505 0.0247472,0.0153429 3.8834e-4,6.9112e-4 0.001624,-0.003073 0.002748,-0.008369 z M 0.63297797,0.39976649 c -0.001933,-0.005289 -0.014332,-0.0128111 -0.0275543,-0.0167129 -0.0132223,-0.0039 -0.0368012,-0.0165641 -0.0523966,-0.0281398 -0.0155953,-0.0115757 -0.0364005,-0.0204887 -0.0462321,-0.0198062 l -0.017877,0.00124 0.0147945,0.009937 c 0.0347265,0.0233266 0.0790538,0.0445484 0.12926594,0.0618866 0.002217,7.6517e-4 0.002217,-0.002333 0,-0.008406 z m 0.024226,-0.0248193 c -0.0329382,-0.0105995 -0.0776705,-0.0420647 -0.0776705,-0.0546345 0,-0.005683 0.002915,-0.007046 0.006473,-0.00303 0.0122257,0.0137867 0.0730686,0.0464848 0.10024041,0.0538718 0.0149562,0.004066 0.0297927,0.0103021 0.0329697,0.0138582 0.003446,0.003857 0.004829,0.001981 0.003427,-0.004634 -0.001291,-0.006103 -0.0128012,-0.014276 -0.0255721,-0.0181567 -0.0127709,-0.003881 -0.0398596,-0.0191293 -0.0601973,-0.033886 -0.0376929,-0.0273499 -0.054078,-0.03274 -0.0586838,-0.0193045 -0.00142,0.004141 -0.01038,0.009239 -0.0199128,0.0113338 -0.009533,0.002098 -0.0179183,0.005516 -0.018634,0.007603 -0.001976,0.005757 0.0308875,0.0248501 0.073685,0.0428139 0.0524367,0.0220098 0.059954,0.024064 0.0642218,0.0175502 0.002032,-0.003104 -0.00712,-0.009127 -0.0203426,-0.0133813 z m 0.0406846,0.0195143 c 0,-0.002271 -0.003328,-0.006675 -0.007397,-0.009779 -0.004069,-0.003104 -0.007397,-0.00124 -0.007397,0.004134 0,0.005381 0.003328,0.009779 0.007397,0.009779 0.004069,0 0.007397,-0.001864 0.007397,-0.004134 z M 0.23741336,0.37622575 C 0.18250856,0.35606039 0.13690712,0.3324166 0.12164651,0.31620237 0.11102259,0.30491486 0.10119831,0.30186408 0.0920576,0.30701414 c -0.01242948,0.007003 -0.0129247,0.008551 -0.005403,0.0168893 0.01916815,0.0212477 0.1096863,0.0578248 0.14891011,0.0601715 l 0.0277395,0.00166 -0.0258902,-0.009509 z m 0.0721225,-0.0236734 0.009246,-0.004961 -0.009952,-0.001469 c -0.005471,-8.0836e-4 -0.0109981,0.003462 -0.0122763,0.009495 -0.001284,0.006029 -0.004131,0.007708 -0.006338,0.003727 -0.002451,-0.004425 -0.002945,-0.002191 -0.001266,0.005745 0.001791,0.008448 0.004248,0.009391 0.007044,0.002703 0.002359,-0.005652 0.008455,-0.01251 0.0135403,-0.0152374 z m 0.66114724,0.0109827 c -0.001797,-0.0159661 -0.019312,-0.0238233 -0.0280748,-0.0125951 -0.004847,0.006208 -0.003791,0.009563 0.004934,0.0157107 0.017709,0.0124766 0.0247873,0.0115232 0.0231392,-0.003116 z m -0.71292737,-0.008513 c -0.0152563,-0.004505 -0.0360615,-0.0139539 -0.0462328,-0.0209972 -0.0101713,-0.007043 -0.0218444,-0.0147012 -0.0259408,-0.0170189 -0.004094,-0.00232 -0.0157466,-0.0115565 -0.0258902,-0.0205307 -0.0211392,-0.0187029 -0.0424834,-0.0215982 -0.0424834,-0.005763 0,0.005936 0.002081,0.0111597 0.004625,0.011614 0.002544,4.5472e-4 0.007119,0.002691 0.0101713,0.004974 0.0287491,0.0215093 0.0437097,0.0300514 0.0739718,0.0422368 0.019325,0.007781 0.0451231,0.0140415 0.0573285,0.0139113 L 0.28549653,0.363213 0.25775703,0.355021 Z m 0.50398455,0.003616 c -0.004551,-0.002561 -0.012871,-0.002629 -0.0184932,-1.4428e-4 -0.005619,0.00248 -0.001902,0.004572 0.008271,0.004659 0.0101713,7.454e-5 0.014771,-0.00195 0.0102219,-0.004511 z m 0.0558953,-0.001037 c 0.001007,-0.004745 -0.004304,-0.009742 -0.0118021,-0.0110993 -0.035983,-0.006518 -0.14251766,-0.0840555 -0.13139338,-0.0956302 0.002359,-0.002456 0.0148426,0.005807 0.0277395,0.0183543 0.0128969,0.0125507 0.0326023,0.0276116 0.0437906,0.0334689 0.0469336,0.0245713 0.0916907,0.041181 0.10725925,0.0398043 l 0.0166438,-0.001469 -0.0147945,-0.004061 c -0.0245347,-0.006729 -0.087096,-0.0441288 -0.11465647,-0.0685417 -0.01424,-0.0126136 -0.0296599,-0.0254758 -0.034267,-0.0285835 -0.004606,-0.00311 -0.009201,-0.009541 -0.0102084,-0.0142958 -0.001007,-0.004757 -0.0109277,6.8495e-4 -0.0220444,0.0120767 -0.0111167,0.0113973 -0.0227508,0.020722 -0.0258531,0.020722 -0.0031,0 -0.005632,0.003641 -0.005625,0.008091 2.933e-5,0.0176576 0.084498,0.0692877 0.14423194,0.0881592 0.0152563,0.004819 0.0280575,0.009409 0.0284459,0.0101984 3.8834e-4,7.8986e-4 0.001531,-0.00245 0.002538,-0.007195 z m -0.1068021,-0.0187445 c -0.0122053,-0.007708 -0.0309295,-0.0212545 -0.041609,-0.0301027 -0.0106795,-0.008848 -0.0194176,-0.0131289 -0.0194176,-0.009513 0,0.003616 -0.001994,7.5283e-4 -0.00444,-0.006371 -0.0051,-0.0148857 -0.0311265,-0.0175934 -0.0341022,-0.003548 -0.001093,0.005171 0.004217,0.0124939 0.0118021,0.0162778 0.007586,0.003782 0.029605,0.0160704 0.04893,0.0273042 0.019325,0.0112332 0.0409619,0.0203215 0.0480815,0.0201962 0.0102059,-1.8222e-4 0.00825,-0.003197 -0.009246,-0.0142433 z m 0.18567198,-0.007996 c 0.007729,0.001067 -0.007585,-0.009559 -0.0340293,-0.0236129 -0.0264447,-0.0140539 -0.0514104,-0.0278979 -0.0554791,-0.0307648 -0.0185204,-0.0130493 -0.0774666,-0.0734191 -0.0817043,-0.0836779 -0.003372,-0.008157 -0.007583,-0.007044 -0.0147401,0.003893 -0.0121288,0.0185363 -0.0114977,0.0197488 0.0280205,0.0538643 0.0466712,0.0402912 0.0729747,0.0561297 0.11373178,0.0684854 0.0177652,0.005387 0.0231293,0.0110326 0.0231726,0.0243979 4.859e-5,0.0149795 5.3561e-4,0.0151775 0.003514,0.001432 0.002211,-0.0101866 0.008542,-0.0152565 0.0175114,-0.0140181 z m -0.61655847,0.006377 c -0.0160214,-0.007759 -0.0711583,-0.0482217 -0.0956896,-0.0702225 -0.0147117,-0.013193 -0.0272196,-0.0182783 -0.0332877,-0.0135312 l -0.009721,0.007605 0.0124109,0.0153065 c 0.0207977,0.0256518 0.0933869,0.0656017 0.11888994,0.0654316 0.009154,-6.492e-5 0.0124832,-0.002123 0.007396,-0.004591 z m 0.0721227,-0.004443 c -0.0142399,-0.004912 -0.0283867,-0.0107538 -0.0314383,-0.012985 -0.00305,-0.002234 -0.0122059,-0.007842 -0.0203426,-0.0124643 -0.0269541,-0.0153158 -0.0551308,-0.0377149 -0.0837437,-0.066572 -0.0191533,-0.0193169 -0.031547,-0.0261034 -0.0384456,-0.0210528 -0.005601,0.004097 -0.008692,0.0113826 -0.006872,0.0161852 0.003674,0.009699 0.0714177,0.066452 0.0863034,0.0723032 0.005212,0.002049 0.0252819,0.0105692 0.0446069,0.018938 0.019325,0.008368 0.0442907,0.0150714 0.0554791,0.0148956 l 0.020342,-3.1878e-4 -0.0258902,-0.008928 z m 0.0533216,-0.003246 c -8.4604e-4,-0.002368 -0.0186378,-0.012199 -0.0395331,-0.0218377 -0.0389081,-0.0179482 -0.11888888,-0.0830988 -0.1321435,-0.10764233 -0.0118941,-0.022024 -0.0223204,-0.0260825 -0.0312395,-0.0121588 l -0.008324,0.0129949 0.010535,0.0117182 c 0.0405234,0.0450735 0.0920723,0.0827584 0.13628761,0.0996326 0.018308,0.006987 0.0357842,0.0141439 0.0388352,0.0159045 0.008868,0.005116 0.0272702,0.006115 0.025582,0.001389 z M 0.9456946,0.31254886 c -0.007619,-0.007335 -0.00599,-0.009262 0.009246,-0.01095 0.0163654,-0.001815 0.0172163,-0.002999 0.007397,-0.0102971 -0.006101,-0.004536 -0.0219141,-0.01411 -0.0351364,-0.0212736 C 0.901747,0.25623656 0.8563712,0.22059246 0.8439828,0.20465646 0.7838368,0.12728816 0.7711474,0.11557886 0.761436,0.12848566 l -0.009832,0.0130678 0.009204,0.01484 c 0.009175,0.0147931 0.076894,0.0820472 0.0979701,0.0972967 0.006101,0.004418 0.0127604,0.009476 0.0147945,0.0112449 0.002032,0.001771 0.0170137,0.0101274 0.0332871,0.0185746 0.0199968,0.0103798 0.0253079,0.0157841 0.0163827,0.0166734 -0.0265633,0.002648 -0.12662351,-0.0742481 -0.15778672,-0.1212543 -0.0126604,-0.0190966 -0.0325899,-0.0235963 -0.0358731,-0.0081 -0.0036,0.0170016 0.0516265,0.0732088 0.10885261,0.11078009 0.0176689,0.0116004 0.0818851,0.0352386 0.10356067,0.0381216 0.0114847,0.001531 0.0119021,7.158e-4 0.003699,-0.007181 z M 0.1209075,0.92648134 c 0,-0.005524 0.007767,-0.0100452 0.0172601,-0.0100452 0.009493,0 0.0161258,0.003304 0.0147395,0.007351 -0.003958,0.0115408 -0.0319996,0.0139011 -0.0319996,0.002692 z m 0.0369858,0.001819 c 0,-0.00965 0.10363557,-0.0232902 0.16240419,-0.0213749 0.0676583,0.002203 0.0214498,0.0154485 -0.0658196,0.018864 -0.0455387,0.001787 -0.0858995,0.004985 -0.089691,0.007115 -0.003791,0.002129 -0.006894,5.287e-5 -0.006894,-0.004602 z m 0.20712139,-0.0223118 c 0,-0.005745 0.002495,-0.007655 0.005551,-0.004239 0.00305,0.003412 0.005551,0.008118 0.005551,0.0104502 0,0.002333 -0.002495,0.004239 -0.005551,0.004239 -0.00305,0 -0.005551,-0.004702 -0.005551,-0.0104495 z m 0.0226928,0.005393 c 0.003767,-0.01099 0.0475808,-0.0163099 0.0475808,-0.005776 0,0.006172 -0.0106134,0.0108364 -0.0246576,0.0108364 -0.013562,0 -0.0238765,-0.002277 -0.0229231,-0.00506 z m 0.0512789,-0.005732 c 0,-0.005936 0.001667,-0.0107883 0.003699,-0.0107883 0.002032,0 0.003699,0.004856 0.003699,0.0107883 0,0.005936 -0.001667,0.0107884 -0.003699,0.0107884 -0.002032,0 -0.003699,-0.004856 -0.003699,-0.0107884 z m 0.0221914,0 c 0,-0.005936 0.001667,-0.0107883 0.003699,-0.0107883 0.002032,0 0.003699,0.004856 0.003699,0.0107883 0,0.005936 -0.001667,0.0107884 -0.003699,0.0107884 -0.002032,0 -0.003699,-0.004856 -0.003699,-0.0107884 z m 0.0147945,0 c -0.004742,-0.008938 -0.004606,-0.0104822 9.2624e-4,-0.0106229 0.003563,-8.651e-5 0.006473,0.00469 0.006473,0.0106229 0,0.0131579 -4.1816e-4,0.0131579 -0.007398,0 z m 0.0110957,-0.002697 c 0,-0.004449 0.0219141,-0.008091 0.0486984,-0.008091 0.0267843,0 0.0475857,0.003246 0.0462266,0.007209 -0.003433,0.0100114 -0.0949249,0.0108617 -0.0949247,8.8279e-4 z m 0.12313215,-0.005313 c 0.0138157,-0.00208 0.0354526,-0.002067 0.0480815,3.122e-5 0.0126295,0.002098 0.001328,0.003801 -0.0251195,0.003782 -0.0264446,-2.16e-5 -0.0367777,-0.00174 -0.0229626,-0.00382 z m 0.0794092,3.806e-4 c 0.0046,-0.002579 0.0112581,-0.00248 0.0147945,2.1864e-4 0.003538,0.002703 -2.2865e-4,0.004813 -0.008365,0.00469 -0.008137,-1.1996e-4 -0.0110302,-0.002326 -0.006429,-0.004912 z m 0.0286207,-0.003159 c 0.00126,-0.005936 0.00302,-0.0107883 0.003915,-0.0107883 8.9536e-4,0 0.00163,0.004856 0.00163,0.0107883 0,0.005936 -0.00176,0.0107883 -0.003915,0.0107883 -0.002155,0 -0.00289,-0.004856 -0.00163,-0.0107883 z" id="path4225" inkscape:connector-curvature="0" />
    </pattern>
  </defs>
  <sodipodi:namedview pagecolor="#ffffff" bordercolor="#666666" borderopacity="1" objecttolerance="10" gridtolerance="10" guidetolerance="10" inkscape:pageopacity="0" inkscape:pageshadow="2" inkscape:window-width="1680" inkscape:window-height="988" id="namedview4" showgrid="false" inkscape:zoom="256" inkscape:cx="0.5" inkscape:cy="0.5" inkscape:window-x="-8" inkscape:window-y="-8" inkscape:window-maximized="1" inkscape:current-layer="svg2" />
  <path style="fill:#000000" d="M 0.03927739,0.75193385 C 0.03913784,0.64957875 0.03835116,0.51627101 0.03753609,0.45569432 0.03647399,0.37665012 0.0373325,0.34323215 0.04056799,0.33732774 c 0.0024823,-0.004523 0.01949418,-0.0192509 0.03780216,-0.0327246 0.0329598,-0.024256 0.11879379,-0.11580916 0.12556729,-0.13393372 0.005273,-0.0141045 0.0115965,-0.0115646 0.0288893,0.0116016 0.032288,0.0432544 0.10381155,0.10301435 0.13723367,0.11466316 0.0104455,0.00364 0.0231528,0.00885 0.0282385,0.0115757 0.005082,0.002728 0.0308832,0.007421 0.0573284,0.0104353 0.093063,0.010605 0.20480462,-0.0595983 0.2875201,-0.18063734 l 0.0286182,-0.0418777 0.0324084,0.0423714 c 0.0404512,0.0528869 0.0688518,0.0793735 0.12302409,0.11473461 0.0233936,0.0152701 0.0437146,0.031145 0.0451577,0.0352775 0.002581,0.00739 0.004897,0.59337478 0.002371,0.60023405 -0.00268,0.007274 -0.24725099,0.0123353 -0.24725099,0.005116 0,-0.004153 0.0120664,-0.007497 0.0268152,-0.007433 0.0147481,6.498e-5 0.0696723,-7.6517e-4 0.12205364,-0.001839 l 0.0952389,-0.001957 0,-0.07076 0,-0.0707599 -0.0378386,0.007506 c -0.0208113,0.004128 -0.0391921,0.009946 -0.0408464,0.0129289 -0.001655,0.00298 -0.005749,-0.001061 -0.009104,-0.008992 -0.003353,-0.007928 -0.004983,-0.009005 -0.003631,-0.002395 C 0.88358455,0.7671379 0.84011615,0.777472 0.77463611,0.7755504 0.71664691,0.7738474 0.67743641,0.7603093 0.64425524,0.7305287 0.62354704,0.711943 0.55844094,0.7162514 0.46857191,0.742155 0.42687031,0.754175 0.37860341,0.7671582 0.36131254,0.7710057 0.34402154,0.7748557 0.32404944,0.7815058 0.31692914,0.785789 0.28106404,0.8073637 0.15950569,0.793998 0.12645147,0.7648449 0.12035047,0.7594639 0.10888197,0.7521257 0.10096947,0.7485418 0.09305747,0.7449568 0.08347163,0.7386668 0.07966789,0.7345632 0.07586419,0.7304592 0.0660164,0.7289732 0.05778402,0.7312682 l -0.01496859,0.004165 0.0010621,0.0932074 c 5.7945e-4,0.051264 0.0027602,0.0967742 0.004835,0.10113354 0.0021612,0.004544 0.0010003,0.007996 -0.0027108,0.008094 -0.0059094,1.5102e-4 -0.006496,-0.0161122 -0.0067325,-0.1859359 z m 0.19980209,0.0124958 c -0.001982,-0.010813 -0.0100429,-0.0217642 -0.0191879,-0.0260745 -0.008671,-0.004085 -0.0272628,-0.0165629 -0.0413126,-0.0277244 -0.0147648,-0.0117298 -0.0295926,-0.0172734 -0.0351364,-0.0131366 -0.007627,0.005691 -0.002396,0.0121746 0.025545,0.0316563 0.019325,0.013475 0.0422104,0.0247206 0.0508559,0.0249897 0.008646,2.6941e-4 0.0157188,0.005085 0.0157188,0.0107032 0,0.0133134 -0.0265663,0.004326 -0.068424,-0.0231564 -0.0416985,-0.0273746 -0.08149031,-0.0374497 -0.07772516,-0.0196797 0.0014573,0.006865 0.0034827,0.010041 0.0045015,0.007059 0.001019,-0.00298 0.006266,-4.7941e-4 0.0116496,0.005566 0.0148006,0.0166104 0.0466946,0.0317972 0.0837628,0.0398858 0.052998,0.0115646 0.0536957,0.0114226 0.0497494,-0.0100873 z m 0.0285373,0.004584 c 0,-0.009612 -0.004397,-0.0138483 -0.0132538,-0.0127679 -0.0112772,0.001376 -0.011728,0.002289 -0.00302,0.006127 0.005625,0.00248 0.009446,0.008227 0.008485,0.0127679 -9.5711e-4,0.004542 3.9155e-4,0.008256 0.00302,0.008256 0.002624,0 0.004767,-0.006473 0.004767,-0.0143846 z m 0.0557545,-0.009986 c -0.001204,-0.003517 -0.0202062,-0.0157187 -0.0422259,-0.0271204 -0.0220191,-0.0114017 -0.0478419,-0.0268879 -0.057384,-0.0344134 -0.009542,-0.007526 -0.0245212,-0.0115717 -0.0332877,-0.008992 -0.0156978,0.00462 -0.0157713,0.00483 -0.004841,0.0138426 0.006101,0.005033 0.0210818,0.0140015 0.0332871,0.0199291 0.0122059,0.00593 0.027185,0.0137039 0.0332877,0.0172806 0.006101,0.003579 0.0235789,0.0101799 0.0388352,0.0146734 0.0152564,0.004492 0.0292647,0.008849 0.0311296,0.009679 0.001865,8.3302e-4 0.002402,-0.001363 0.001204,-0.004881 z m 0.49490651,-0.00674 c 9.6946e-4,-0.002826 -0.0123597,-0.0108994 -0.0296186,-0.017942 -0.0172589,-0.007043 -0.0436022,-0.0219225 -0.0585406,-0.0330668 -0.0178232,-0.0132965 -0.0315291,-0.017586 -0.039867,-0.0124777 l -0.0127067,0.007784 0.0147945,0.007927 c 0.0219271,0.0117487 0.0567023,0.0274676 0.0776705,0.0351083 0.029634,0.0107982 0.024862,0.0179852 -0.007684,0.0115714 -0.0164314,-0.00324 -0.047222,-0.0179075 -0.068424,-0.0325994 -0.040156,-0.0278261 -0.0576335,-0.0325682 -0.061026,-0.0165578 -0.001099,0.005192 -0.001155,0.00944 -1.2028e-4,0.00944 0.001031,0 0.0190243,0.009495 0.0399782,0.0210998 0.0209539,0.0116046 0.0447557,0.0230106 0.0528924,0.0253463 0.0189915,0.005449 0.0903381,0.00111 0.0926511,-0.005634 z m -0.42367556,-0.007696 c 0,-0.005523 0.003742,-0.0121422 0.008322,-0.0147135 0.007135,-0.004011 0.006872,-0.004887 -0.001852,-0.006146 -0.005594,-8.0837e-4 -0.0101713,0.003295 -0.0101713,0.009113 0,0.0159464 -0.0733783,-0.010655 -0.11095795,-0.040225 -0.0111877,-0.008803 -0.0269998,-0.0191538 -0.0351365,-0.023001 -0.0188538,-0.008914 -0.0126271,-0.0206047 0.0152187,-0.0285702 0.0552914,-0.015817 0.0569919,-0.0251439 0.008823,-0.0483824 -0.0152563,-0.00736 -0.0319002,-0.0181399 -0.0369858,-0.0239547 -0.0150371,-0.0171938 -0.0521539,-0.0277563 -0.0506559,-0.0144157 0.00147,0.0131828 0.0346246,0.0353749 0.0672997,0.0450611 0.0387679,0.0114923 0.0511826,0.0254957 0.0166438,0.018774 -0.0301471,-0.005867 -0.0624853,-0.0225445 -0.0876189,-0.0451872 -0.006488,-0.005846 -0.0189718,-0.007658 -0.0277395,-0.004026 l -0.0159418,0.006601 0.0129451,0.007504 c 0.007119,0.004127 0.0279242,0.0151282 0.0462321,0.0244477 0.0526689,0.02681 0.0533302,0.0274576 0.0232856,0.022808 -0.0156719,-0.002425 -0.0398053,-0.0124092 -0.0536297,-0.0221859 -0.013825,-0.009777 -0.0373045,-0.0210118 -0.052178,-0.0249666 -0.02248839,-0.00598 -0.02595128,-0.004862 -0.02055997,0.006637 0.0035629,0.007606 0.0103016,0.0138278 0.01496983,0.0138278 0.008173,0 0.0316396,0.0140072 0.0548251,0.0327251 0.0194343,0.0156895 -0.0275907,-0.001441 -0.0517803,-0.0188625 -0.0122061,-0.008791 -0.03134586,-0.0177753 -0.04253417,-0.0199659 l -0.020342,-0.003983 0.01479446,0.0164984 c 0.0159115,0.0177439 0.07655255,0.0475303 0.0967658,0.0475303 0.006789,0 0.0123418,0.005142 0.0123418,0.0114252 0,0.006284 0.001593,0.008556 0.003538,0.005048 0.001945,-0.003507 0.002501,-0.0142749 0.001223,-0.0239283 -0.002007,-0.0152684 3.64e-6,-0.0166271 0.0154725,-0.010443 0.00978,0.00391 0.0233739,0.007109 0.0302101,0.007109 0.0116625,0 0.0154539,0.0164613 0.007662,0.0332599 -0.001605,0.003459 0.009215,0.0128949 0.0240408,0.0209688 0.0148272,0.008074 0.0277902,0.0152209 0.0288072,0.015882 0.007865,0.005109 0.0680569,0.0276572 0.0813691,0.0304773 0.009154,0.001938 0.0203883,0.004375 0.0249658,0.005412 0.004576,0.001037 0.008322,-0.002635 0.008322,-0.008153 z m 0.46787252,-0.007999 c -0.031605,-0.0114397 -0.0859788,-0.0398635 -0.0924649,-0.048336 -0.008078,-0.0105525 0.001865,-0.00751 0.0607043,0.0185745 0.0191478,0.008489 0.0391205,0.0148418 0.0443834,0.0141182 0.005261,-7.2383e-4 -2.788e-4,-0.005505 -0.012314,-0.0106249 -0.0120355,-0.00512 -0.0320076,-0.017564 -0.0443834,-0.0276528 -0.0123751,-0.0100891 -0.0291579,-0.0174343 -0.0372946,-0.0163229 -0.008137,0.001112 -0.0256129,0.001972 -0.0388352,0.001913 -0.0311969,-1.3968e-4 -0.0234399,0.013945 0.020342,0.0369371 0.0500612,0.0262893 0.0758871,0.0360717 0.0943142,0.0357242 0.0102213,-1.9203e-4 0.0123622,-0.001863 0.005545,-0.004332 z m 0.0360615,-0.010684 c -0.002544,-0.002993 -0.006703,-0.002993 -0.009246,0 -0.002544,0.002993 -4.6201e-4,0.005443 0.004625,0.005443 0.005088,0 0.007166,-0.00245 0.004625,-0.005443 z m -0.53352251,-0.014812 c -0.007119,-0.005217 -0.0191694,-0.0123467 -0.0267775,-0.0158449 -0.007608,-0.003499 -0.0196208,-0.0134155 -0.026696,-0.0220384 -0.007075,-0.008623 -0.020823,-0.0153702 -0.030551,-0.014994 -0.0156756,6.0548e-4 -0.0166352,0.001928 -0.008441,0.0116304 0.0113161,0.0133963 0.0746756,0.0471157 0.0924649,0.0492085 l 0.0129451,0.001524 -0.0129451,-0.009484 z m 0.068424,-0.001035 c -0.01424,-0.00521 -0.0427329,-0.0219196 -0.0633177,-0.0371301 -0.0205847,-0.0152105 -0.0438863,-0.0261032 -0.0517803,-0.024206 -0.0130593,0.003139 -0.0116873,0.005317 0.015236,0.0241791 0.0414318,0.0290265 0.0815279,0.0467929 0.10541011,0.0467057 l 0.020342,-7.454e-5 -0.0258902,-0.009475 z m 0.50755747,1.2527e-4 c -0.0269565,-0.009305 -0.0550586,-0.0255218 -0.0896161,-0.0517124 -0.008137,-0.006167 -0.0231164,-0.0110206 -0.0332871,-0.010786 -0.0161208,3.7317e-4 -0.017307,0.001817 -0.009246,0.0112549 0.020639,0.02417 0.0985692,0.0578791 0.13869737,0.0599946 0.0214195,0.001129 0.0211917,8.2649e-4 -0.006547,-0.008751 z m -0.85751697,-0.003596 c -0.0032171,-0.009391 -0.02892141,-0.0135663 -0.02697508,-0.004382 0.0010806,0.005098 0.0079681,0.009268 0.01530636,0.009268 0.0073383,0 0.0125894,-0.0022 0.01166872,-0.004886 z m 0.45043804,-0.009838 c 0,-0.010204 -0.009745,-0.0190391 -0.0317464,-0.0287821 -0.0174608,-0.007732 -0.0379874,-0.0203102 -0.0456159,-0.0279513 -0.007628,-0.007642 -0.0138701,-0.0115102 -0.0138701,-0.008598 0,0.002913 -0.003353,6.489e-5 -0.007449,-0.006333 -0.004409,-0.006888 -0.0130828,-0.008435 -0.021267,-0.003794 l -0.0138176,0.007834 0.0129451,0.009476 c 0.0246336,0.0180328 0.0463822,0.0294566 0.0813692,0.0427403 0.019325,0.007337 0.0310425,0.0151623 0.0260384,0.0173887 -0.0108401,0.004823 -0.0758111,-0.0179305 -0.0871704,-0.030528 -0.004384,-0.004861 -0.0128105,-0.0113572 -0.018726,-0.014437 -0.005916,-0.00308 -0.015751,-0.009686 -0.0218536,-0.0146792 -0.006101,-0.004993 -0.0185852,-0.006259 -0.0277395,-0.002812 -0.0161937,0.006099 -0.0163437,0.0065 -0.005551,0.0148438 0.0245539,0.0189769 0.0383702,0.0266541 0.0684241,0.0380202 0.0472393,0.0178656 0.0514901,0.018969 0.079828,0.0207172 0.0199388,0.00123 0.0261983,-0.0019 0.0261983,-0.0131074 z m 0.0299403,-0.003477 c -0.003538,-0.002701 -0.0101935,-0.002798 -0.0147945,-2.1864e-4 -0.0046,0.002581 -0.00171,0.00479 0.006429,0.004909 0.008137,1.1996e-4 0.0119009,-0.001992 0.008365,-0.004691 z m 0.38183689,-0.0107324 c -0.0132223,-0.008592 -0.0323942,-0.0229009 -0.0426038,-0.0317968 -0.0102096,-0.008896 -0.0268534,-0.0146209 -0.0369858,-0.0127221 l -0.0184228,0.003453 0.0221914,0.0151767 c 0.0330759,0.0226202 0.0722908,0.0413058 0.086917,0.0414152 0.009613,7.453e-5 0.006757,-0.003924 -0.0110957,-0.0155254 z M 0.09594093,0.68228618 c -0.0045756,-0.002572 -0.01206638,-0.002572 -0.01664384,0 -0.0045756,0.002572 -8.2744e-4,0.004676 0.0083219,0.004676 0.0091537,0 0.01289938,-0.002103 0.0083219,-0.004676 z m 0.50192226,-0.0148475 c -0.002106,-0.0114684 -0.009429,-0.0223098 -0.0174509,-0.0258291 -0.007604,-0.003336 -0.0258562,-0.0156818 -0.0405617,-0.0274352 -0.0147049,-0.0117539 -0.0330135,-0.0208722 -0.0406846,-0.0202635 l -0.0139479,0.001107 0.0203426,0.0192334 c 0.0111883,0.0105782 0.0348123,0.0255468 0.0524984,0.0332632 0.0176855,0.007717 0.0314883,0.0171831 0.0306714,0.0210371 -0.001908,0.009004 -0.0500149,-0.0133892 -0.0910728,-0.0423933 -0.0336508,-0.0237716 -0.0552642,-0.0294478 -0.0492406,-0.0129319 0.00772,0.021167 0.10321425,0.0694387 0.14486776,0.0732297 0.006833,6.2016e-4 0.007598,-0.002559 0.004576,-0.0190172 z m -0.53613421,0.003896 c -0.0050819,-0.002661 -0.01091044,-0.00957 -0.01294507,-0.0153526 -0.0024329,-0.006917 -0.0018031,-0.008693 0.0018525,-0.00519 0.007957,0.007636 0.03692656,0.0155908 0.07951977,0.0218353 0.0297612,0.004363 0.0326511,0.003632 0.0147945,-0.003745 -0.0122059,-0.005042 -0.0318607,-0.0119769 -0.0436782,-0.0154109 -0.01181754,-0.003434 -0.02294904,-0.00888 -0.02473606,-0.0121023 -0.0017845,-0.003223 -0.01001014,-0.008617 -0.0182734,-0.0119884 -0.01423872,-0.005809 -0.01502293,-0.004669 -0.01502293,0.0218007 0,0.0253436 0.0012844,0.027794 0.01386884,0.0264609 0.010104,-0.00107 0.01135997,-0.002783 0.004625,-0.006308 z m 0.90788182,-0.00243 c 0.003057,-0.0144189 -0.0214831,-0.0335385 -0.0498074,-0.0388087 -0.0260501,-0.004847 -0.0224273,0.001292 0.0184932,0.0313404 0.0260846,0.0191541 0.0287059,0.0197793 0.0313142,0.007469 z m -0.77473248,-0.009076 c 0,-0.004671 -0.003365,-0.009232 -0.007477,-0.0101353 -0.004112,-9.0482e-4 -0.006511,0.002918 -0.005329,0.008493 0.0026,0.0122627 0.0128074,0.0135722 0.0128074,0.001643 z m 0.0137923,0.001974 c -0.001223,-0.003585 -0.004421,-0.003968 -0.007089,-8.5261e-4 -0.002952,0.003444 -0.002075,0.006 0.002235,0.006518 0.003903,4.6956e-4 0.006082,-0.002081 0.004853,-0.005666 z m 0.45592901,-0.005463 c 0.0122665,-0.001275 0.0120726,-0.001787 -0.003699,-0.009763 -0.009154,-0.00463 -0.0234461,-0.0114575 -0.03176,-0.0151727 -0.008314,-0.003716 -0.0266169,-0.0163481 -0.0406729,-0.0280728 -0.0260797,-0.0217546 -0.0590519,-0.0288561 -0.0554686,-0.0119466 0.001093,0.005154 0.009096,0.0131751 0.0177868,0.017824 0.008691,0.004649 0.0166333,0.009291 0.0176504,0.0103152 0.001019,0.001023 0.0101713,0.006117 0.0203426,0.0113161 0.0101713,0.0052 0.0197412,0.0102982 0.021267,0.0113302 0.001525,0.001033 0.008183,0.003246 0.0147945,0.00492 0.0110432,0.002796 0.0106678,0.00368 -0.004625,0.0108878 -0.0135836,0.006402 -0.0122239,0.007097 0.007398,0.003776 0.0132223,-0.002237 0.0298662,-0.004673 0.0369858,-0.005414 z m 0.0249658,-4.5473e-4 c -6.6071e-4,-0.008893 0.0139868,-0.0127352 0.0514061,-0.0134855 0.0287819,-5.7584e-4 0.0504187,-0.004615 0.0480815,-0.008975 -0.005162,-0.009626 -0.002285,-0.010728 0.0216412,-0.008287 0.0256666,0.002619 0.019814,-0.006618 -0.009246,-0.0145932 -0.0132223,-0.003629 -0.0381881,-0.0165698 -0.0554791,-0.028758 -0.0538063,-0.0379273 -0.059686,-0.0406711 -0.0697412,-0.0325446 -0.008525,0.006889 -0.006934,0.009645 0.0124128,0.0214923 0.0122053,0.007474 0.0246879,0.016227 0.0277395,0.0194511 0.00305,0.003224 0.008876,0.006804 0.0129451,0.007955 0.0403617,0.0114231 0.0571247,0.0192614 0.0556884,0.0260398 -0.002822,0.0133071 -0.0866272,-0.0232684 -0.1203892,-0.0525406 -0.0157374,-0.0136445 -0.0488818,-0.0148408 -0.0407087,-0.00147 0.004773,0.007805 0.0147024,0.0149167 0.0406846,0.0291326 0.00305,0.00167 0.0113729,0.006293 0.0184932,0.0102747 0.00712,0.003982 0.0185661,0.008926 0.0254357,0.0109882 0.0162221,0.004868 0.019756,0.0153905 0.005168,0.0153905 -0.0131921,0 -0.0817837,-0.038919 -0.0956041,-0.0542458 -0.005199,-0.005767 -0.0164197,-0.0101771 -0.0249324,-0.009801 -0.0134434,5.9313e-4 -0.0143387,0.002017 -0.006809,0.0108152 0.0125585,0.0146775 0.0776104,0.0532314 0.0898169,0.0532314 0.007716,0 0.009843,0.004164 0.008261,0.0161828 -0.001173,0.0089 -2.8818e-4,0.0161828 0.001964,0.0161828 0.002254,0 0.00368,-0.005596 0.003168,-0.0124365 z M 0.97158344,0.625168 c 0,-0.005934 -0.007073,-0.0104472 -0.0157189,-0.0100301 -0.0121738,5.8572e-4 -0.014051,0.002849 -0.008322,0.0100301 0.0103146,0.0129284 0.0240408,0.0129284 0.0240408,0 z M 0.33265105,0.617554 c -0.004576,-0.002572 -0.0120664,-0.002572 -0.0166438,0 -0.004576,0.002572 -8.2744e-4,0.004675 0.008322,0.004675 0.009154,0 0.0128981,-0.002103 0.008322,-0.004675 z M 0.8696871,0.615745 C 0.8677541,0.610562 0.8520263,0.6008343 0.8347353,0.5941263 0.7812285,0.5733683 0.7740539,0.5693673 0.7626126,0.5539065 L 0.7515169,0.5389127 0.7626126,0.5437977 c 0.006101,0.002687 0.0194176,0.009866 0.0295889,0.0159534 0.0307856,0.018426 0.0953346,0.0434861 0.10910857,0.04236 0.011397,-9.3175e-4 0.0108024,-0.002106 -0.004977,-0.00983 -0.009856,-0.004825 -0.0256672,-0.0118121 -0.0351365,-0.0155284 -0.009469,-0.003716 -0.0297001,-0.0168544 -0.0449564,-0.0291964 -0.015257,-0.0123417 -0.0310684,-0.0223543 -0.0351364,-0.02225 -0.0145752,3.7317e-4 -0.0685247,0.0168565 -0.0672588,0.0205489 0.002927,0.008538 0.0802305,0.0481906 0.13013493,0.0667526 0.01424,0.005297 0.0266392,0.010289 0.0275543,0.0110947 9.1389e-4,8.059e-4 8.274e-5,-0.002776 -0.001852,-0.007957 z M 0.36814726,0.60346074 c -0.0370254,-0.010334 -0.0744507,-0.0307129 -0.0974479,-0.0530625 -0.0119095,-0.0115746 -0.0237592,-0.015622 -0.0332877,-0.0113695 l -0.0147945,0.006602 0.0110957,0.008304 c 0.006101,0.004567 0.0135916,0.0107119 0.0166438,0.0136556 0.008582,0.008279 0.0438437,0.0246766 0.068424,0.0318193 0.0122059,0.003547 0.0228848,0.008365 0.0237326,0.0107085 8.4596e-4,0.002343 0.0133304,0.003581 0.0277395,0.002751 l 0.0261983,-0.00151 -0.0283045,-0.0079 z m 0.0318181,-0.0100748 c -0.001933,-0.005613 -0.0126678,-0.0131561 -0.0238561,-0.0167635 -0.0216523,-0.006982 -0.0584967,-0.0321816 -0.0620022,-0.0424062 -0.0031,-0.009034 0.006353,-0.00706 0.023167,0.004841 0.008137,0.005759 0.031011,0.01778 0.0508312,0.0267136 0.0198202,0.008934 0.0372958,0.0168174 0.0388352,0.0175195 0.001538,7.0655e-4 -0.002192,0.004983 -0.008297,0.009512 -0.01012,0.00751 -0.009631,0.008333 0.005551,0.009347 0.0112816,7.5159e-4 0.0149346,-0.002044 0.0113384,-0.00868 -0.003915,-0.007227 -0.001976,-0.011047 0.007397,-0.0145862 0.0122368,-0.004619 0.0121596,-0.004805 -0.002093,-0.005076 -0.016713,-3.188e-4 -0.0705189,-0.0320781 -0.0805993,-0.0475766 -0.009117,-0.0140185 -0.0431756,-0.0136353 -0.0480358,5.3876e-4 -0.002606,0.007602 -0.005465,0.007957 -0.008324,0.001033 -0.003643,-0.008826 -0.0410205,-0.002706 -0.0379003,0.006206 0.002593,0.007413 0.0638951,0.0408617 0.0971881,0.0530311 0.020342,0.007435 0.0377349,0.014201 0.0386506,0.0150338 9.2624e-4,8.3302e-4 8.657e-5,-0.003077 -0.001852,-0.00869 z m 0.0750814,-0.008021 c -0.003563,-0.002714 -0.009385,-0.002714 -0.0129451,0 -0.003563,0.002714 -6.4837e-4,0.004935 0.006473,0.004935 0.00712,0 0.0100324,-0.002222 0.006473,-0.004935 z m 0.4852689,0.003339 c -9.8798e-4,-0.002888 -0.0142554,-0.008338 -0.0294784,-0.0121107 -0.015223,-0.003772 -0.0301743,-0.009423 -0.0332259,-0.012558 -0.00305,-0.003135 -0.0103146,-0.008032 -0.01614,-0.0108846 -0.005823,-0.002852 -0.0199894,-0.0139417 -0.0314741,-0.024644 -0.0143245,-0.0133481 -0.0255166,-0.017132 -0.0356403,-0.0120501 l -0.014758,0.007408 0.0277395,0.0177365 c 0.0266972,0.0170697 0.0711582,0.0374514 0.0943142,0.0432349 0.0308745,0.007711 0.0403042,0.008654 0.0386636,0.003868 z M 0.0533295,0.56470641 c -0.0012226,-0.003585 -0.0044212,-0.003968 -0.0070894,-8.5261e-4 -0.0029516,0.003445 -0.0020748,0.006 0.0022353,0.006518 0.0038964,4.6956e-4 0.0060823,-0.002081 0.0048535,-0.005666 z m 0.41524466,-0.003609 c 0,-0.00557 -0.007906,-0.0138285 -0.0175682,-0.0183519 -0.009663,-0.004523 -0.0184006,-0.008838 -0.0194176,-0.009589 -0.001019,-7.5159e-4 -0.008076,-0.005162 -0.0156867,-0.009802 -0.007611,-0.004641 -0.0131427,-0.0117145 -0.0122949,-0.0157194 8.4597e-4,-0.004005 -0.0100632,-0.007587 -0.0242495,-0.007961 -0.0141856,-3.7318e-4 -0.0244644,0.002719 -0.0228422,0.006874 0.004841,0.0124021 0.0586246,0.0461853 0.0917164,0.0576127 0.006101,0.002108 0.013176,0.004559 0.0157188,0.005449 0.002544,8.9013e-4 0.004625,-0.002941 0.004625,-0.008511 z m 0.0295889,0.005914 c 0,-0.002318 -0.005823,-0.006198 -0.0129451,-0.008622 -0.00712,-0.002425 -0.0129451,-5.3134e-4 -0.0129451,0.004214 0,0.004742 0.005823,0.008622 0.0129451,0.008622 0.00712,0 0.0129451,-0.001895 0.0129451,-0.004214 z m 0.0721227,-0.006574 c -0.00126,-0.005934 0.001556,-0.0113515 0.006254,-0.0120399 0.006603,-9.6846e-4 0.007023,-0.002397 0.001852,-0.006307 -0.00368,-0.00278 -0.009457,-0.001955 -0.0128413,0.001832 -0.005298,0.005934 -0.005397,0.008277 -7.1011e-4,0.0169299 0.007028,0.0129645 0.008259,0.0128706 0.005446,-4.1766e-4 z m 0.39729086,0.006408 c -8.4596e-4,-0.002409 -0.006534,-0.006903 -0.0126369,-0.009986 -0.0299995,-0.0151564 -0.0533512,-0.0305673 -0.0686876,-0.0453305 -0.009299,-0.008951 -0.0209496,-0.0141066 -0.0258901,-0.011456 -0.00494,0.00265 -0.0106474,0.005598 -0.0126814,0.006548 -0.005298,0.002475 0.015052,0.0202869 0.0388352,0.0339939 0.0358953,0.0206873 0.0846626,0.0364679 0.0810609,0.0262309 z M 0.09686544,0.54892562 C 0.08059147,0.54382162 0.0618673,0.53757542 0.05525645,0.53504422 c -0.0066121,-0.002531 -0.0120207,-5.7583e-4 -0.0120207,0.00435 0,0.0102854 0.01600722,0.015294 0.05547907,0.0173596 l 0.0277395,0.001451 -0.0295889,-0.00928 z m 0.44013292,7.59e-4 c -0.0101713,-0.004434 -0.0259828,-0.0110942 -0.0351364,-0.0147995 -0.009154,-0.003706 -0.0282891,-0.0164632 -0.0425223,-0.028351 -0.0274826,-0.022954 -0.0499426,-0.0281665 -0.0499426,-0.0115905 0,0.0188886 0.08708,0.062245 0.12575235,0.0626109 l 0.0203426,1.898e-4 -0.0184932,-0.008063 z m -0.3765089,-0.006843 c -0.001297,-0.003778 -0.006156,-0.008059 -0.0107981,-0.009513 -0.049114,-0.0153776 -0.0641986,-0.0203441 -0.06577122,-0.0216554 -0.0010189,-8.4771e-4 -0.0064256,-0.004788 -0.01202131,-0.008754 -0.02550422,-0.0180832 -0.02866392,-0.0184295 -0.02866392,-0.003141 0,0.0161469 0.04104214,0.0374053 0.08129549,0.0421085 0.011147,0.001303 0.0243285,0.003596 0.0292907,0.005096 0.004965,0.0015 0.007962,-3.6329e-4 0.006666,-0.004141 z m 0.47596257,-0.005295 c 0.0142708,-0.001235 0.0139553,-0.001829 -0.005138,-0.009705 -0.0111883,-0.004615 -0.0286639,-0.011223 -0.0388352,-0.0146866 -0.0101713,-0.003463 -0.0276469,-0.0138945 -0.0388352,-0.0231799 -0.027432,-0.0227662 -0.0554791,-0.0321668 -0.0554791,-0.0185955 0,0.00593 0.007073,0.0145101 0.0157188,0.0190668 0.0233504,0.0123066 0.0254499,0.0138663 0.0277704,0.0206347 0.00473,0.0137927 -0.0209237,0.004726 -0.0434892,-0.0153732 -0.0132223,-0.0117766 -0.0306979,-0.021107 -0.0388352,-0.0207342 l -0.0147945,6.7261e-4 0.0138516,0.014839 c 0.0172786,0.0185107 0.0763838,0.0487365 0.0924851,0.0472958 0.0115526,-0.001033 0.0116601,-0.001441 0.002773,-0.0104897 -0.006475,-0.006592 -0.002593,-0.008004 0.0129451,-0.004708 0.0122053,0.002589 0.0263526,0.005456 0.0314383,0.006371 0.008743,0.001574 0.008642,0.002162 -0.001852,0.0108118 -0.008678,0.007154 -0.007156,0.008051 0.006989,0.004118 0.009947,-0.002766 0.0249256,-0.005621 0.0332871,-0.006344 z m 0.33513141,-1.0629e-4 c 0,-0.00419 -0.007073,-0.0124312 -0.0157188,-0.0183131 -0.008645,-0.005882 -0.0207125,-0.0149364 -0.0268152,-0.0201213 -0.006101,-0.005185 -0.0177535,-0.006834 -0.0258902,-0.003666 -0.0140535,0.005474 -0.0132198,0.006769 0.0166439,0.0258645 0.017291,0.0110565 0.0331024,0.021389 0.0351364,0.022961 0.006628,0.005123 0.0166439,0.001075 0.0166439,-0.006726 z m -0.28201801,-0.009561 c 0.0152724,0.001026 0.0194176,-0.002269 0.0194176,-0.0154335 0,-0.0122832 -0.003693,-0.0165354 -0.0138701,-0.0159789 -0.0114001,6.2263e-4 -0.0125523,0.002511 -0.006473,0.0106026 0.0166253,0.0221254 -0.0612409,-0.009548 -0.0959102,-0.0390129 -0.0100318,-0.008526 -0.0275074,-0.0150843 -0.0388352,-0.0145747 -0.0183673,8.265e-4 -0.0193954,0.002005 -0.0095,0.0108963 0.0235764,0.0211818 0.064125,0.0429495 0.092307,0.0495536 0.0210064,0.004922 0.0273585,0.009541 0.0221914,0.016135 -0.005693,0.007265 -0.005261,0.007878 0.002007,0.002874 0.005088,-0.003501 0.0179844,-0.005778 0.0286639,-0.005061 z M 0.16665171,0.51145823 c -0.006507,-0.0145647 -0.006371,-0.0152073 0.002334,-0.0110159 0.005082,0.002449 0.0159041,0.005542 0.0240408,0.006873 l 0.0147945,0.002422 -0.0166439,0.007921 c -0.009154,0.004357 0.002495,0.005408 0.0258902,0.002338 0.0233936,-0.003071 0.0429706,-0.006615 0.0435047,-0.007877 5.3246e-4,-0.001263 -0.0194386,-0.007885 -0.0443834,-0.0147179 -0.0249448,-0.006832 -0.0535241,-0.019718 -0.0635102,-0.0286342 -0.009987,-0.008916 -0.028294,-0.0157366 -0.0406846,-0.0151565 l -0.02252853,0.001055 0.02589015,0.0160309 c 0.0142399,0.008817 0.029219,0.0204056 0.0332871,0.0257527 0.010748,0.0141251 -0.0249337,8.5261e-4 -0.0499309,-0.0185713 -0.01920272,-0.0149218 -0.02940984,-0.018411 -0.04592463,-0.0156974 -0.0089857,0.001475 -0.00586,0.011137 0.0056624,0.0175037 0.0048535,0.00268 0.01298398,0.0073 0.01806901,0.0102644 0.02437977,0.0142126 0.03699881,0.0197793 0.05917722,0.0261049 0.0132223,0.003772 0.0271505,0.007761 0.0309511,0.008865 0.006748,0.00196 0.006748,0.001646 0,-0.0134584 z m 0.55612404,-6.9175e-4 c -0.001229,-0.003585 -0.004421,-0.003968 -0.007089,-8.5015e-4 -0.002952,0.003444 -0.002075,0.006 0.002235,0.006518 0.003896,4.6957e-4 0.006082,-0.002081 0.004853,-0.005666 z m 0.24695837,-0.0159578 c 0,-0.0107287 -0.004687,-0.0153973 -0.0157188,-0.0156653 -0.0187835,-4.5472e-4 -0.020103,0.007937 -0.003699,0.0235215 0.0147093,0.0139736 0.0194176,0.0120687 0.0194176,-0.007856 z m -0.66859831,0.005164 c -0.001223,-0.003585 -0.004421,-0.003968 -0.007089,-8.5261e-4 -0.002952,0.003444 -0.002075,0.006 0.002235,0.006518 0.003903,4.6955e-4 0.006082,-0.002081 0.004853,-0.005666 z m 0.50689799,-0.00618 c -8.8301e-4,-0.00785 -0.007305,-0.0156593 -0.0142677,-0.0173549 -0.006963,-0.001697 -0.025143,-0.011182 -0.0403999,-0.0210817 -0.0340645,-0.0221042 -0.0295334,-0.0184937 -0.0417374,-0.0332541 -0.005662,-0.006851 -0.0139868,-0.0104464 -0.0184932,-0.007988 -0.004508,0.002456 -0.009719,0.004825 -0.0115841,0.00527 -0.0137633,0.003252 0.027989,0.035462 0.0644172,0.0496911 0.0111883,0.004369 0.0278322,0.011501 0.0369858,0.0158461 l 0.0166438,0.0079 -0.0147945,0.001399 c -0.008137,7.7134e-4 -0.0289417,-0.00563 -0.046232,-0.0142239 -0.0576384,-0.0286458 -0.0675279,-0.0357977 -0.0651323,-0.0471035 8.5214e-4,-0.004023 -0.0106153,-0.007314 -0.0254832,-0.007314 -0.0148679,0 -0.0263415,0.003264 -0.0254962,0.007254 0.00192,0.009069 0.050026,0.0420486 0.0698794,0.0479078 0.008137,0.002402 0.0221574,0.008036 0.0311567,0.0125204 0.008999,0.004484 0.0320638,0.009651 0.0512536,0.0114797 0.0276549,0.002636 0.0345579,3.633e-4 0.033284,-0.0109469 z m -0.56243677,-0.004779 c -0.002087,-0.006096 -0.0197128,-0.0179631 -0.0488688,-0.0329093 -0.006101,-0.003129 -0.0140399,-0.010281 -0.0176368,-0.0158946 -0.007525,-0.0117398 -0.0412156,-0.009223 -0.0369636,0.002759 0.003032,0.008551 0.0654868,0.0403107 0.10052458,0.05112 0.002884,8.9014e-4 0.004205,-0.001397 0.002945,-0.005077 z m 0.0223291,-7.4358e-4 c -0.003557,-0.002714 -0.009385,-0.002714 -0.0129451,0 -0.003557,0.002714 -6.4219e-4,0.004935 0.006473,0.004935 0.007119,0 0.0100324,-0.002222 0.006473,-0.004935 z m 0.0711982,-0.003696 c -0.004075,-0.007937 -0.001408,-0.0102003 0.01007,-0.008531 0.00859,0.001251 0.0167729,-0.001098 0.0181851,-0.005214 0.001408,-0.004116 -0.003229,-0.007487 -0.0103158,-0.007487 -0.007085,0 -0.0227582,-0.005498 -0.0348283,-0.0122162 -0.0120713,-0.006719 -0.0240266,-0.0123829 -0.0265694,-0.0125864 -0.002544,-2.0494e-4 -0.004625,-0.004979 -0.004625,-0.0106187 0,-0.005634 0.003742,-0.007166 0.008322,-0.0034 0.0172317,0.0141847 0.0992534,0.0399401 0.11449815,0.0359532 0.0155744,-0.004073 0.0155101,-0.00419 -0.003297,-0.006035 C 0.40001668,0.453402 0.37996188,0.445543 0.36599608,0.436974 0.35203028,0.428405 0.33598298,0.4189493 0.33033598,0.4159626 c -0.00565,-0.002987 -0.0155509,-0.0102947 -0.0220068,-0.0162383 -0.0135181,-0.0124458 -0.039478,-0.0117713 -0.039478,0.001024 0,0.004757 0.003229,0.00865 0.007179,0.00865 0.003946,0 0.008208,0.004856 0.009465,0.0107883 0.002902,0.0136947 0.002982,0.0137138 -0.0187464,-0.004511 -0.0196239,-0.0164573 -0.0376737,-0.0192953 -0.0404154,-0.006355 -9.3859e-4,0.004412 0.00825,0.0141754 0.0204099,0.0217025 0.0121603,0.007527 0.0221086,0.0174385 0.0221086,0.0220264 0,0.007588 -0.0213967,-0.005048 -0.0499309,-0.0294918 -0.006101,-0.005227 -0.0177535,-0.006876 -0.0258902,-0.003666 -0.0142091,0.005609 -0.0136249,0.00657 0.0147945,0.0243195 0.035728,0.022314 0.0831248,0.0411617 0.0992051,0.0394494 0.0131032,-0.001397 0.009083,-0.004931 -0.0169828,-0.014938 -0.009701,-0.003727 -0.0167531,-0.010958 -0.0156694,-0.0160735 0.001099,-0.005165 0.007285,-0.004856 0.0139176,6.9112e-4 0.006569,0.005498 0.0198628,0.009994 0.0295389,0.009994 0.009677,0 0.0173959,0.003641 0.0171545,0.008091 -9.2623e-4,0.0170165 5.9508e-4,0.024268 0.005063,0.0241087 0.0031,-1.1388e-4 0.002797,-0.00372 -9.2624e-4,-0.0109682 z m 0.32732571,1.2053e-4 c -0.0414719,-0.0332791 -0.0681153,-0.0481995 -0.0759645,-0.0425403 -0.007078,0.005103 -0.003754,0.009644 0.0149377,0.0204085 0.0335026,0.019294 0.0520823,0.0280591 0.0628761,0.0296623 0.007937,0.001179 0.007675,1.1389e-4 -0.001852,-0.007531 z M 0.8477379,0.47385873 c 0.001291,-0.006078 9.6946e-4,-0.009945 -7.0394e-4,-0.008587 -0.006182,0.005004 -0.0445353,-0.0146694 -0.0714729,-0.0366643 -0.0292055,-0.0238468 -0.0591778,-0.03367 -0.0591778,-0.0193946 0,0.004653 0.004576,0.0114066 0.0101713,0.0150128 0.0297643,0.0191885 0.0455757,0.0273962 0.0656501,0.0340773 0.0187705,0.006247 0.0500921,0.0214223 0.0524867,0.0254292 3.884e-4,6.5225e-4 0.00176,-0.003792 0.00305,-0.009874 z m 0.0304571,0.003619 c -0.003563,-0.002714 -0.009385,-0.002714 -0.0129451,0 -0.003563,0.002714 -6.4837e-4,0.004935 0.006473,0.004935 0.00712,0 0.0100324,-0.002219 0.006473,-0.004935 z m 0.0342121,-0.0141401 c -0.005088,-0.004752 -0.0170489,-0.009122 -0.0265854,-0.009713 -0.009537,-5.9314e-4 -0.0286769,-0.008857 -0.042534,-0.0183678 -0.0138571,-0.009511 -0.0268596,-0.0184024 -0.0288936,-0.01976 -0.002032,-0.001358 -0.0103559,-0.007886 -0.0184932,-0.0145087 -0.008403,-0.00684 -0.0203865,-0.008598 -0.0277395,-0.004073 -0.0119935,0.007385 -0.0106338,0.009301 0.0184932,0.0260738 0.0524262,0.0301891 0.0947785,0.04696 0.12205371,0.0483323 0.0115952,5.8567e-4 0.0119812,-2.496e-4 0.003699,-0.007987 z M 0.46857545,0.44828823 c 0,-0.002345 -0.006518,-0.006072 -0.0144832,-0.00829 -0.007966,-0.002215 -0.0136929,-2.9656e-4 -0.0127271,0.004264 0.00176,0.008296 0.0272097,0.0120644 0.0272097,0.00403 z m 0.0397602,-0.0149091 c -0.007628,-0.002036 -0.0138695,-0.008558 -0.0138695,-0.0144834 0,-0.005924 0.001247,-0.008649 0.002773,-0.006054 0.001525,0.002598 0.0169211,0.007317 0.0342121,0.0104878 l 0.0314383,0.005763 -0.0332871,-0.0156737 c -0.018308,-0.008621 -0.0441055,-0.0232797 -0.0573285,-0.0325753 -0.0271146,-0.019062 -0.0702733,-0.0344796 -0.0702733,-0.0251038 0,0.006029 0.0350574,0.0317114 0.0721227,0.0528388 0.014558,0.008298 0.0155416,0.009967 0.004625,0.007842 -0.015147,-0.002949 -0.0158751,-0.001617 -0.009713,0.0176976 0.002785,0.008724 0.0122566,0.0113665 0.0286639,0.007997 0.0177232,-0.003641 0.020668,-0.00606 0.0106375,-0.008743 z m 0.40592091,0.002802 c -0.0142399,-0.007863 -0.0288028,-0.0146796 -0.0323627,-0.0151485 -0.003563,-4.6959e-4 -0.006473,-0.006227 -0.006473,-0.012795 0,-0.007039 0.002655,-0.008863 0.006473,-0.004443 0.006033,0.006986 0.0708143,0.0368596 0.0815874,0.0376205 0.002661,1.8982e-4 0.00381,-0.004511 0.002556,-0.0104464 -0.00126,-0.005936 -0.007597,-0.0108629 -0.0140881,-0.0109543 -0.006491,-8.349e-5 -0.0251171,-0.0103934 -0.041391,-0.0228941 -0.0409896,-0.0314862 -0.0467984,-0.0337681 -0.0571772,-0.0224621 -0.008734,0.009515 -0.00855,0.010207 0.004625,0.0174157 0.007545,0.004128 0.0137188,0.011667 0.0137188,0.016751 0,0.005085 -0.007906,0.001801 -0.0175682,-0.007292 -0.019488,-0.0183425 -0.0596342,-0.029195 -0.054262,-0.0146685 0.003656,0.009885 0.075126,0.0515966 0.0995695,0.058111 0.0328375,0.008751 0.0394509,0.004819 0.0147945,-0.008795 z M 0.0663534,0.43414513 c -0.0045756,-0.002573 -0.01206638,-0.002573 -0.01664384,0 -0.0045756,0.002573 -8.2744e-4,0.004678 0.0083219,0.004678 0.0091537,0 0.01289938,-0.002104 0.0083219,-0.004678 z m 0.02026481,0.001092 c -0.0012226,-0.003585 -0.0044212,-0.003968 -0.0070894,-8.5179e-4 -0.0029516,0.003443 -0.0020748,0.005998 0.0022353,0.006518 0.0038964,4.6953e-4 0.0060823,-0.00208 0.0048535,-0.005665 z m 0.3061359,-0.0218364 c -0.0486465,-0.0315658 -0.081502,-0.0436715 -0.0783668,-0.0288741 0.001223,0.005739 0.01352,0.0164012 0.0273431,0.0237005 0.0138238,0.0073 0.0326233,0.0172972 0.041777,0.0222178 0.009154,0.004918 0.0241334,0.009038 0.0332871,0.009151 0.0130216,1.5945e-4 0.00779,-0.005542 -0.0240408,-0.0261948 z m -0.28294239,0.006778 c -0.007243,-0.013654 -0.0121399,-0.013654 -0.009246,0 0.001253,0.005936 0.0051,0.0107143 0.00854,0.0106229 0.005391,-1.4427e-4 0.00549,-0.001611 7.0394e-4,-0.0106229 z m 0.35136653,0 c 0,-0.005936 -0.003859,-0.0107883 -0.008572,-0.0107883 -0.004718,0 -0.0209422,-0.009596 -0.0360615,-0.021323 -0.0283972,-0.0220271 -0.0608877,-0.029021 -0.0573544,-0.012347 0.001111,0.005214 0.0174312,0.0172447 0.0362801,0.0267298 0.0299996,0.0150973 0.0402999,0.0196328 0.0610847,0.0269001 0.002544,8.885e-4 0.004625,-0.00324 0.004625,-0.009172 z M 0.07282566,0.40938852 c -0.01340202,-0.0125204 -0.02958892,-0.0125204 -0.02958892,0 0,0.005961 0.008693,0.010307 0.01941762,0.009713 0.01527672,-8.4527e-4 0.01744596,-0.002918 0.0101713,-0.009713 z m 0.02118981,0.00427 c -0.001223,-0.003585 -0.0044212,-0.003968 -0.0070894,-8.5179e-4 -0.0029516,0.003443 -0.0020748,0.005998 0.0022353,0.006518 0.0038964,4.6959e-4 0.0060823,-0.00208 0.0048535,-0.005665 z m 0.0876104,-0.0148017 c 0.0209045,-3.7315e-4 0.0151532,-0.007767 -0.0126363,-0.0162507 -0.0132223,-0.004035 -0.0406846,-0.0166384 -0.0610266,-0.0280049 -0.02034261,-0.0113665 -0.04197887,-0.0204492 -0.04808153,-0.0201839 -0.01059614,4.6219e-4 -0.01042818,0.001136 0.0036988,0.0149548 0.0081373,0.007961 0.02394814,0.0176446 0.03513707,0.0215216 0.0111877,0.003875 0.0286639,0.009857 0.0388352,0.0132893 0.0101713,0.003431 0.0191867,0.00808 0.0200339,0.0103286 0.004366,0.011588 -0.0403487,0.0015 -0.07564657,-0.0170689 -0.02212222,-0.0116361 -0.04062162,-0.0199919 -0.04111006,-0.0185671 -4.8547e-4,0.001425 2.8189e-4,0.008122 0.0017166,0.014882 0.0014573,0.006889 0.02290952,0.0179414 0.04880523,0.0251457 0.02541036,0.007069 0.0467002,0.0141822 0.0473109,0.0158058 6.1076e-4,0.001623 0.007268,-0.001222 0.0147945,-0.006321 0.007527,-0.005103 0.0202031,-0.009389 0.0281705,-0.00953 z m 0.41270176,0.009375 c -0.0111883,-0.005159 -0.0336576,-0.01494 -0.0499309,-0.0217352 -0.016274,-0.006795 -0.0387426,-0.0203202 -0.0499309,-0.0300564 -0.0116576,-0.0101447 -0.0258692,-0.0151103 -0.0332871,-0.0116318 -0.0118836,0.005573 -0.0105906,0.007647 0.0157676,0.0253037 0.0338261,0.0226589 0.0974785,0.0476658 0.12108036,0.047569 l 0.0166438,-6.492e-5 -0.020342,-0.009381 z m 0.37516172,0.002314 c 0.002587,-0.0121977 -0.0546868,-0.0578729 -0.0655931,-0.0523124 -0.007463,0.003807 -0.007219,0.005263 0.002964,0.0177007 0.006101,0.007455 0.0219141,0.019892 0.0351365,0.0276381 0.0132223,0.007746 0.0243588,0.0146505 0.0247472,0.0153429 3.8834e-4,6.9112e-4 0.001624,-0.003073 0.002748,-0.008369 z M 0.63297797,0.39976649 c -0.001933,-0.005289 -0.014332,-0.0128111 -0.0275543,-0.0167129 -0.0132223,-0.0039 -0.0368012,-0.0165641 -0.0523966,-0.0281398 -0.0155953,-0.0115757 -0.0364005,-0.0204887 -0.0462321,-0.0198062 l -0.017877,0.00124 0.0147945,0.009937 c 0.0347265,0.0233266 0.0790538,0.0445484 0.12926594,0.0618866 0.002217,7.6517e-4 0.002217,-0.002333 0,-0.008406 z m 0.024226,-0.0248193 c -0.0329382,-0.0105995 -0.0776705,-0.0420647 -0.0776705,-0.0546345 0,-0.005683 0.002915,-0.007046 0.006473,-0.00303 0.0122257,0.0137867 0.0730686,0.0464848 0.10024041,0.0538718 0.0149562,0.004066 0.0297927,0.0103021 0.0329697,0.0138582 0.003446,0.003857 0.004829,0.001981 0.003427,-0.004634 -0.001291,-0.006103 -0.0128012,-0.014276 -0.0255721,-0.0181567 -0.0127709,-0.003881 -0.0398596,-0.0191293 -0.0601973,-0.033886 -0.0376929,-0.0273499 -0.054078,-0.03274 -0.0586838,-0.0193045 -0.00142,0.004141 -0.01038,0.009239 -0.0199128,0.0113338 -0.009533,0.002098 -0.0179183,0.005516 -0.018634,0.007603 -0.001976,0.005757 0.0308875,0.0248501 0.073685,0.0428139 0.0524367,0.0220098 0.059954,0.024064 0.0642218,0.0175502 0.002032,-0.003104 -0.00712,-0.009127 -0.0203426,-0.0133813 z m 0.0406846,0.0195143 c 0,-0.002271 -0.003328,-0.006675 -0.007397,-0.009779 -0.004069,-0.003104 -0.007397,-0.00124 -0.007397,0.004134 0,0.005381 0.003328,0.009779 0.007397,0.009779 0.004069,0 0.007397,-0.001864 0.007397,-0.004134 z M 0.23741336,0.37622575 C 0.18250856,0.35606039 0.13690712,0.3324166 0.12164651,0.31620237 0.11102259,0.30491486 0.10119831,0.30186408 0.0920576,0.30701414 c -0.01242948,0.007003 -0.0129247,0.008551 -0.005403,0.0168893 0.01916815,0.0212477 0.1096863,0.0578248 0.14891011,0.0601715 l 0.0277395,0.00166 -0.0258902,-0.009509 z m 0.0721225,-0.0236734 0.009246,-0.004961 -0.009952,-0.001469 c -0.005471,-8.0836e-4 -0.0109981,0.003462 -0.0122763,0.009495 -0.001284,0.006029 -0.004131,0.007708 -0.006338,0.003727 -0.002451,-0.004425 -0.002945,-0.002191 -0.001266,0.005745 0.001791,0.008448 0.004248,0.009391 0.007044,0.002703 0.002359,-0.005652 0.008455,-0.01251 0.0135403,-0.0152374 z m 0.66114724,0.0109827 c -0.001797,-0.0159661 -0.019312,-0.0238233 -0.0280748,-0.0125951 -0.004847,0.006208 -0.003791,0.009563 0.004934,0.0157107 0.017709,0.0124766 0.0247873,0.0115232 0.0231392,-0.003116 z m -0.71292737,-0.008513 c -0.0152563,-0.004505 -0.0360615,-0.0139539 -0.0462328,-0.0209972 -0.0101713,-0.007043 -0.0218444,-0.0147012 -0.0259408,-0.0170189 -0.004094,-0.00232 -0.0157466,-0.0115565 -0.0258902,-0.0205307 -0.0211392,-0.0187029 -0.0424834,-0.0215982 -0.0424834,-0.005763 0,0.005936 0.002081,0.0111597 0.004625,0.011614 0.002544,4.5472e-4 0.007119,0.002691 0.0101713,0.004974 0.0287491,0.0215093 0.0437097,0.0300514 0.0739718,0.0422368 0.019325,0.007781 0.0451231,0.0140415 0.0573285,0.0139113 L 0.28549653,0.363213 0.25775703,0.355021 Z m 0.50398455,0.003616 c -0.004551,-0.002561 -0.012871,-0.002629 -0.0184932,-1.4428e-4 -0.005619,0.00248 -0.001902,0.004572 0.008271,0.004659 0.0101713,7.454e-5 0.014771,-0.00195 0.0102219,-0.004511 z m 0.0558953,-0.001037 c 0.001007,-0.004745 -0.004304,-0.009742 -0.0118021,-0.0110993 -0.035983,-0.006518 -0.14251766,-0.0840555 -0.13139338,-0.0956302 0.002359,-0.002456 0.0148426,0.005807 0.0277395,0.0183543 0.0128969,0.0125507 0.0326023,0.0276116 0.0437906,0.0334689 0.0469336,0.0245713 0.0916907,0.041181 0.10725925,0.0398043 l 0.0166438,-0.001469 -0.0147945,-0.004061 c -0.0245347,-0.006729 -0.087096,-0.0441288 -0.11465647,-0.0685417 -0.01424,-0.0126136 -0.0296599,-0.0254758 -0.034267,-0.0285835 -0.004606,-0.00311 -0.009201,-0.009541 -0.0102084,-0.0142958 -0.001007,-0.004757 -0.0109277,6.8495e-4 -0.0220444,0.0120767 -0.0111167,0.0113973 -0.0227508,0.020722 -0.0258531,0.020722 -0.0031,0 -0.005632,0.003641 -0.005625,0.008091 2.933e-5,0.0176576 0.084498,0.0692877 0.14423194,0.0881592 0.0152563,0.004819 0.0280575,0.009409 0.0284459,0.0101984 3.8834e-4,7.8986e-4 0.001531,-0.00245 0.002538,-0.007195 z m -0.1068021,-0.0187445 c -0.0122053,-0.007708 -0.0309295,-0.0212545 -0.041609,-0.0301027 -0.0106795,-0.008848 -0.0194176,-0.0131289 -0.0194176,-0.009513 0,0.003616 -0.001994,7.5283e-4 -0.00444,-0.006371 -0.0051,-0.0148857 -0.0311265,-0.0175934 -0.0341022,-0.003548 -0.001093,0.005171 0.004217,0.0124939 0.0118021,0.0162778 0.007586,0.003782 0.029605,0.0160704 0.04893,0.0273042 0.019325,0.0112332 0.0409619,0.0203215 0.0480815,0.0201962 0.0102059,-1.8222e-4 0.00825,-0.003197 -0.009246,-0.0142433 z m 0.18567198,-0.007996 c 0.007729,0.001067 -0.007585,-0.009559 -0.0340293,-0.0236129 -0.0264447,-0.0140539 -0.0514104,-0.0278979 -0.0554791,-0.0307648 -0.0185204,-0.0130493 -0.0774666,-0.0734191 -0.0817043,-0.0836779 -0.003372,-0.008157 -0.007583,-0.007044 -0.0147401,0.003893 -0.0121288,0.0185363 -0.0114977,0.0197488 0.0280205,0.0538643 0.0466712,0.0402912 0.0729747,0.0561297 0.11373178,0.0684854 0.0177652,0.005387 0.0231293,0.0110326 0.0231726,0.0243979 4.859e-5,0.0149795 5.3561e-4,0.0151775 0.003514,0.001432 0.002211,-0.0101866 0.008542,-0.0152565 0.0175114,-0.0140181 z m -0.61655847,0.006377 c -0.0160214,-0.007759 -0.0711583,-0.0482217 -0.0956896,-0.0702225 -0.0147117,-0.013193 -0.0272196,-0.0182783 -0.0332877,-0.0135312 l -0.009721,0.007605 0.0124109,0.0153065 c 0.0207977,0.0256518 0.0933869,0.0656017 0.11888994,0.0654316 0.009154,-6.492e-5 0.0124832,-0.002123 0.007396,-0.004591 z m 0.0721227,-0.004443 c -0.0142399,-0.004912 -0.0283867,-0.0107538 -0.0314383,-0.012985 -0.00305,-0.002234 -0.0122059,-0.007842 -0.0203426,-0.0124643 -0.0269541,-0.0153158 -0.0551308,-0.0377149 -0.0837437,-0.066572 -0.0191533,-0.0193169 -0.031547,-0.0261034 -0.0384456,-0.0210528 -0.005601,0.004097 -0.008692,0.0113826 -0.006872,0.0161852 0.003674,0.009699 0.0714177,0.066452 0.0863034,0.0723032 0.005212,0.002049 0.0252819,0.0105692 0.0446069,0.018938 0.019325,0.008368 0.0442907,0.0150714 0.0554791,0.0148956 l 0.020342,-3.1878e-4 -0.0258902,-0.008928 z m 0.0533216,-0.003246 c -8.4604e-4,-0.002368 -0.0186378,-0.012199 -0.0395331,-0.0218377 -0.0389081,-0.0179482 -0.11888888,-0.0830988 -0.1321435,-0.10764233 -0.0118941,-0.022024 -0.0223204,-0.0260825 -0.0312395,-0.0121588 l -0.008324,0.0129949 0.010535,0.0117182 c 0.0405234,0.0450735 0.0920723,0.0827584 0.13628761,0.0996326 0.018308,0.006987 0.0357842,0.0141439 0.0388352,0.0159045 0.008868,0.005116 0.0272702,0.006115 0.025582,0.001389 z M 0.9456946,0.31254886 c -0.007619,-0.007335 -0.00599,-0.009262 0.009246,-0.01095 0.0163654,-0.001815 0.0172163,-0.002999 0.007397,-0.0102971 -0.006101,-0.004536 -0.0219141,-0.01411 -0.0351364,-0.0212736 C 0.901747,0.25623656 0.8563712,0.22059246 0.8439828,0.20465646 0.7838368,0.12728816 0.7711474,0.11557886 0.761436,0.12848566 l -0.009832,0.0130678 0.009204,0.01484 c 0.009175,0.0147931 0.076894,0.0820472 0.0979701,0.0972967 0.006101,0.004418 0.0127604,0.009476 0.0147945,0.0112449 0.002032,0.001771 0.0170137,0.0101274 0.0332871,0.0185746 0.0199968,0.0103798 0.0253079,0.0157841 0.0163827,0.0166734 -0.0265633,0.002648 -0.12662351,-0.0742481 -0.15778672,-0.1212543 -0.0126604,-0.0190966 -0.0325899,-0.0235963 -0.0358731,-0.0081 -0.0036,0.0170016 0.0516265,0.0732088 0.10885261,0.11078009 0.0176689,0.0116004 0.0818851,0.0352386 0.10356067,0.0381216 0.0114847,0.001531 0.0119021,7.158e-4 0.003699,-0.007181 z M 0.1209075,0.92648134 c 0,-0.005524 0.007767,-0.0100452 0.0172601,-0.0100452 0.009493,0 0.0161258,0.003304 0.0147395,0.007351 -0.003958,0.0115408 -0.0319996,0.0139011 -0.0319996,0.002692 z m 0.0369858,0.001819 c 0,-0.00965 0.10363557,-0.0232902 0.16240419,-0.0213749 0.0676583,0.002203 0.0214498,0.0154485 -0.0658196,0.018864 -0.0455387,0.001787 -0.0858995,0.004985 -0.089691,0.007115 -0.003791,0.002129 -0.006894,5.287e-5 -0.006894,-0.004602 z m 0.20712139,-0.0223118 c 0,-0.005745 0.002495,-0.007655 0.005551,-0.004239 0.00305,0.003412 0.005551,0.008118 0.005551,0.0104502 0,0.002333 -0.002495,0.004239 -0.005551,0.004239 -0.00305,0 -0.005551,-0.004702 -0.005551,-0.0104495 z m 0.0226928,0.005393 c 0.003767,-0.01099 0.0475808,-0.0163099 0.0475808,-0.005776 0,0.006172 -0.0106134,0.0108364 -0.0246576,0.0108364 -0.013562,0 -0.0238765,-0.002277 -0.0229231,-0.00506 z m 0.0512789,-0.005732 c 0,-0.005936 0.001667,-0.0107883 0.003699,-0.0107883 0.002032,0 0.003699,0.004856 0.003699,0.0107883 0,0.005936 -0.001667,0.0107884 -0.003699,0.0107884 -0.002032,0 -0.003699,-0.004856 -0.003699,-0.0107884 z m 0.0221914,0 c 0,-0.005936 0.001667,-0.0107883 0.003699,-0.0107883 0.002032,0 0.003699,0.004856 0.003699,0.0107883 0,0.005936 -0.001667,0.0107884 -0.003699,0.0107884 -0.002032,0 -0.003699,-0.004856 -0.003699,-0.0107884 z m 0.0147945,0 c -0.004742,-0.008938 -0.004606,-0.0104822 9.2624e-4,-0.0106229 0.003563,-8.651e-5 0.006473,0.00469 0.006473,0.0106229 0,0.0131579 -4.1816e-4,0.0131579 -0.007398,0 z m 0.0110957,-0.002697 c 0,-0.004449 0.0219141,-0.008091 0.0486984,-0.008091 0.0267843,0 0.0475857,0.003246 0.0462266,0.007209 -0.003433,0.0100114 -0.0949249,0.0108617 -0.0949247,8.8279e-4 z m 0.12313215,-0.005313 c 0.0138157,-0.00208 0.0354526,-0.002067 0.0480815,3.122e-5 0.0126295,0.002098 0.001328,0.003801 -0.0251195,0.003782 -0.0264446,-2.16e-5 -0.0367777,-0.00174 -0.0229626,-0.00382 z m 0.0794092,3.806e-4 c 0.0046,-0.002579 0.0112581,-0.00248 0.0147945,2.1864e-4 0.003538,0.002703 -2.2865e-4,0.004813 -0.008365,0.00469 -0.008137,-1.1996e-4 -0.0110302,-0.002326 -0.006429,-0.004912 z m 0.0286207,-0.003159 c 0.00126,-0.005936 0.00302,-0.0107883 0.003915,-0.0107883 8.9536e-4,0 0.00163,0.004856 0.00163,0.0107883 0,0.005936 -0.00176,0.0107883 -0.003915,0.0107883 -0.002155,0 -0.00289,-0.004856 -0.00163,-0.0107883 z" id="path4225" inkscape:connector-curvature="0" />
</svg>