<?xml version="1.0" encoding="utf-8" standalone="no"?>
<svg xmlns:dc="http://purl.org/dc/elements/1.1/" xmlns:cc="http://creativecommons.org/ns#" xmlns:rdf="http://www.w3.org/1999/02/22-rdf-syntax-ns#" xmlns:svg="http://www.w3.org/2000/svg" xmlns="http://www.w3.org/2000/svg" xmlns:sodipodi="http://sodipodi.sourceforge.net/DTD/sodipodi-0.dtd" xmlns:inkscape="http://www.inkscape.org/namespaces/inkscape" height="1" version="1.1" width="1" id="svg2" inkscape:version="0.91 r13725" sodipodi:docname="AngularUnconformity.svg">
  <metadata id="metadata8">
    <rdf:RDF>
      <cc:Work rdf:about="">
        <dc:format>image/svg+xml</dc:format>
        <dc:type rdf:resource="http://purl.org/dc/dcmitype/StillImage" />
        <dc:title></dc:title>
      </cc:Work>
    </rdf:RDF>
  </metadata>
  <defs id="defs6">
    <pattern width="1" height="1" id="AngularUnconformity" patternContentUnits="objectBoundingBox">
      <path style="fill:#000000" d="m 0.05768013,0.93156295 -0.0169304,-0.002471 0,-0.35337551 c 0,-0.31050596 8.2282e-4,-0.35337546 0.006846,-0.35337546 0.003765,0 0.085198,-0.0357833 0.18096191,-0.0795181 l 0.17411602,-0.07951813 0.27502386,0 0.2750237,0 0,0.33397603 c 0,0.18368678 -0.0013,0.333976 -0.00289,0.333976 -0.00158,0 -0.080106,0.0450697 -0.1744863,0.10015557 l -0.17159737,0.10015797 -0.26456931,0.001227 c -0.14551313,6.7736e-4 -0.27218792,1.2047e-4 -0.28149939,-0.001241 z m 0.0253714,-0.0273513 c 0.004078,-0.0268107 0.003829,-0.0276824 -0.00957,-0.0333102 -0.006828,-0.002867 -0.0159702,-0.007076 -0.0203162,-0.009354 -0.014003,-0.007327 -0.0101118,0.0340757 0.004516,0.0480516 0.017179,0.0164152 0.0222162,0.0153437 0.0253714,-0.005386 z m 0.0434781,-0.001545 c -0.0161398,-0.0100065 -0.0306242,-0.0169394 -0.0321868,-0.0154065 -0.001568,0.001535 -0.003915,0.01 -0.00522,0.018815 -0.002238,0.0150754 -3.2976e-4,0.0159905 0.0321868,0.0154074 l 0.034566,-6.1944e-4 -0.0293453,-0.0181943 z m 0.1001701,-0.009852 c -0.0256069,-0.015418 -0.0474256,-0.0265037 -0.048486,-0.0246359 -0.001054,0.001873 -0.003219,0.0147655 -0.004796,0.0286593 l -0.002871,0.0252633 0.0513547,-6.2668e-4 0.051355,-6.2669e-4 -0.046558,-0.0280318 z m 0.0853852,-0.007761 c -0.0479186,-0.0281791 -0.0612934,-0.0333988 -0.0643291,-0.0251065 -0.0127268,0.034765 0.0235777,0.060983 0.0841931,0.0608015 l 0.0406323,-1.1999e-4 -0.0604964,-0.0355746 z m 0.0859338,-3.2792e-4 c -0.0490303,-0.0293524 -0.0610766,-0.0340796 -0.0642613,-0.025216 -0.006617,0.0184163 -0.002333,0.0251243 0.0278161,0.0435706 0.0200766,0.0122837 0.0395393,0.0177812 0.0629267,0.0177773 L 0.45836053,0.92085 0.39801833,0.8847249 Z m 0.0896877,-0.005792 c -0.0705045,-0.0422336 -0.0765167,-0.043084 -0.0766809,-0.0108376 -1.1722e-4,0.0229958 0.061818,0.0533155 0.10828393,0.0530085 l 0.0383753,-2.5562e-4 -0.0699781,-0.0419179 z m 0.1075105,0.0179395 c -0.001351,-0.0241744 -0.003087,-0.0262093 -0.0413138,-0.0486047 -0.0413817,-0.0242433 -0.0469516,-0.0231676 -0.0491367,0.009489 -0.001135,0.0170572 0.002308,0.0208451 0.0371163,0.0407451 0.0520027,0.0297327 0.0550871,0.0296381 0.0533342,-0.001631 z m 0.0554383,-0.0230653 0.017682,-0.0246658 -0.00779,-0.0232339 c -0.00428,-0.0127787 -0.00889,-0.0223049 -0.010239,-0.0211699 -0.00135,0.001135 -0.012969,0.0163776 -0.025832,0.0338711 -0.0194945,0.0265153 -0.0234287,0.0361251 -0.0236433,0.0577569 L 0.6005691,0.92231627 0.6167684,0.9103946 C 0.6256784,0.9038306 0.640925,0.8873727 0.6506498,0.8738071 Z m -0.4816144,0.00333 c 0.002753,-0.0158717 -0.001288,-0.0196191 -0.0547591,-0.050868 -0.0317516,-0.0185537 -0.0604087,-0.035473 -0.0636822,-0.0375997 -0.004412,-0.002864 -0.00558,0.003971 -0.004516,0.026394 l 0.001433,0.0302595 0.056434,0.0332513 c 0.0580742,0.0342176 0.0589052,0.0341993 0.065085,-0.001438 z m 0.499724,0.005203 c 0.00234,0 0.013299,-0.014696 0.024362,-0.0326586 0.016899,-0.0274352 0.019373,-0.0351006 0.015475,-0.0479307 -0.00421,-0.0138445 -0.00674,-0.0108474 -0.027094,0.0320575 -0.012349,0.0260317 -0.02393,0.0488036 -0.025734,0.0506029 -0.00181,0.001795 -5.772e-4,0.002075 0.00273,6.0139e-4 0.00331,-0.001467 0.00792,-0.002674 0.010259,-0.002674 z M 0.23899298,0.86445234 c 0.003635,-0.0170176 0.001139,-0.0194849 -0.050936,-0.0504977 l -0.0547554,-0.0326063 -0.003856,0.0191878 c -0.00212,0.0105532 -0.003137,0.0202628 -0.002255,0.0215776 0.003015,0.004507 0.0964048,0.0589742 0.1021968,0.0596028 0.003182,3.4665e-4 0.007507,-0.007423 0.009609,-0.0172637 z m 0.0880645,-0.003128 c 0.001568,-0.007182 0.002292,-0.0138533 0.001614,-0.0148176 -0.003115,-0.004412 -0.11472307,-0.0675383 -0.11942179,-0.0675383 -0.00292,0 -0.006035,0.006264 -0.006927,0.0139158 -0.00132,0.0113179 0.008522,0.0201077 0.0527168,0.0470849 0.0616775,0.0376503 0.0680578,0.0395413 0.07202,0.0213557 z m 0.0790579,-0.004827 c 0.002143,-0.00984 0.002586,-0.0202244 9.9031e-4,-0.0230769 -0.004605,-0.008192 -0.11931,-0.0699126 -0.12282288,-0.0660887 -0.001736,0.00189 -0.0042,0.0104763 -0.005479,0.019082 -0.002048,0.0138001 0.004679,0.0198396 0.0570177,0.0511833 0.0326371,0.0195458 0.0609297,0.0358191 0.0628722,0.0361647 0.001944,3.4665e-4 0.005287,-0.007423 0.007429,-0.0172637 z m 0.0926081,-0.0108755 c 0.001629,-0.0114496 0.001953,-0.0226012 7.0881e-4,-0.0247809 -0.001675,-0.002948 -0.13268691,-0.0811908 -0.13657507,-0.0815644 -3.7922e-4,-4.014e-5 -0.002844,0.0108312 -0.00548,0.0241494 -0.003598,0.0181784 -0.003426,0.0251179 6.9162e-4,0.0278351 0.0318772,0.0210549 0.12454471,0.0740985 0.13027362,0.0745692 0.004384,3.6248e-4 0.008624,-0.007896 0.0103771,-0.020208 z m 0.2559571,-0.0300353 c 0.00296,-0.0114406 0.00287,-0.0244781 -2.638e-4,-0.0389978 l -0.00471,-0.0218118 -0.016785,0.0339649 c -0.00923,0.0186806 -0.021829,0.0437923 -0.027993,0.0558042 l -0.011207,0.0218394 0.028255,-0.0168062 c 0.018716,-0.011133 0.029756,-0.0226082 0.032701,-0.0339924 z M 0.5960593,0.831129 c 0,-0.0371193 -0.006569,-0.0416804 -0.0123392,-0.008567 -0.004955,0.028427 -0.003636,0.0359286 0.006322,0.0359286 0.003852,0 0.006021,-0.009861 0.006021,-0.0273619 z M 0.6176517,0.81413767 C 0.6096827,0.78333507 0.600574,0.79012501 0.600574,0.82686703 l 0,0.0319905 0.0110301,-0.0127296 c 0.009576,-0.011051 0.0103724,-0.0152694 0.006052,-0.0319905 z M 0.5785822,0.79387913 C 0.5770152,0.79114213 0.549332,0.77362123 0.5170522,0.75493923 0.484772,0.73625713 0.4561861,0.71957203 0.4535277,0.71786143 c -0.002658,-0.001707 -0.007009,0.009382 -0.00967,0.0246489 l -0.004837,0.0277582 0.0661039,0.0389321 0.0661041,0.0389321 0.005094,-0.0246411 c 0.002802,-0.0135525 0.003821,-0.0268786 0.002254,-0.0296133 z m 0.1286061,-0.0331353 c 0.028221,-0.0643217 0.031553,-0.0754086 0.027439,-0.0913113 -0.00258,-0.009955 -0.00595,-0.0171133 -0.0075,-0.0159064 -0.00155,0.001207 -0.018249,0.0328814 -0.037104,0.0703894 -0.03421,0.0680469 -0.034268,0.0682415 -0.026959,0.0894578 0.00403,0.0116945 0.00838,0.0211093 0.00967,0.0209224 0.00129,-1.8592e-4 0.016795,-0.0332849 0.034462,-0.0735511 z m 0.084623,0.050463 c 0.00607,-0.00407 0.012323,-0.0110321 0.013881,-0.0154739 0.00342,-0.009748 -0.00158,-0.048567 -0.00625,-0.048567 -0.00183,0 -0.012152,0.0184514 -0.022949,0.0410032 -0.018643,0.0389414 -0.019029,0.0407373 -0.00768,0.0357198 0.00658,-0.002907 0.016923,-0.008613 0.023,-0.0126814 z M 0.12276621,0.79179564 c 0.00122,-0.0121431 -0.00424,-0.0184517 -0.0285877,-0.0330466 -0.0538431,-0.0322742 -0.0497749,-0.0317377 -0.0481246,-0.006346 0.00132,0.0203178 0.004879,0.0247131 0.0353286,0.0436399 0.0349059,0.0216969 0.0388206,0.0212948 0.0413837,-0.004246 z M 0.643464,0.796211 C 0.650914,0.7840827 0.664596,0.7591883 0.67387,0.740892 0.689101,0.7108421 0.690223,0.7056574 0.685467,0.6872766 L 0.680207,0.6669285 0.64755,0.7240645 c -0.029755,0.0520579 -0.0322265,0.0588043 -0.027804,0.075901 0.00606,0.0234293 0.00713,0.02326 0.023721,-0.003752 z M 0.19617247,0.789567 c 0.001582,-0.007292 0.001302,-0.0157914 -6.419e-4,-0.0188881 -0.004698,-0.007484 -0.11878984,-0.0736747 -0.12077115,-0.070065 -8.5909e-4,0.001545 -0.002247,0.009781 -0.003101,0.0182969 -0.001352,0.0133854 0.006396,0.0200357 0.0571334,0.0490791 0.0696263,0.0398548 0.0638094,0.0379919 0.0673856,0.0215776 z M 0.7795564,0.67725946 c 0.016538,-0.0300211 0.02256,-0.0466307 0.020919,-0.0576926 -0.00127,-0.008544 -0.00391,-0.0155345 -0.00587,-0.0155345 -0.00492,0 -0.058486,0.10271508 -0.07359,0.14110086 -0.00831,0.0211135 -0.011288,0.0362023 -0.00912,0.0461588 0.00276,0.0126602 0.00619,0.008546 0.02383,-0.0285412 0.011333,-0.0238335 0.031059,-0.0623043 0.043832,-0.0854915 z m -0.50444556,0.0997247 c 0.003643,-0.017078 0.001022,-0.0195574 -0.0577082,-0.0545141 l -0.0615275,-0.0366228 -0.005997,0.019434 c -0.003295,0.0106887 -0.005331,0.0205507 -0.004516,0.0219155 0.002482,0.004155 0.11393598,0.0663405 0.12013869,0.0670325 0.003182,3.5418e-4 0.007507,-0.007405 0.009609,-0.0172452 z M 0.83965,0.63782745 c 1.121e-4,-0.009841 -9.108e-4,-0.0178916 -0.00228,-0.0178916 -0.012734,0 -0.057962,0.0630372 -0.074399,0.10369562 -0.00737,0.018244 -0.008,0.0257246 -0.00387,0.0466032 l 0.00492,0.0248703 0.037707,-0.0696932 c 0.023751,-0.0438973 0.037783,-0.0763151 0.037911,-0.0875845 z m 0.00766,0.14057333 c 0.012832,-0.008449 0.015861,-0.0183308 0.011695,-0.0381683 -0.00339,-0.0161159 -0.00365,-0.0160594 -0.018096,0.003858 -0.00806,0.0111147 -0.016855,0.027428 -0.019535,0.0362503 -0.00517,0.0170215 -0.00256,0.0168269 0.025937,-0.001939 z m -0.49546116,-0.0207644 0.003825,-0.0234955 -0.0571946,-0.0332468 c -0.0314573,-0.0182856 -0.058438,-0.0332468 -0.0599575,-0.0332468 -0.001519,0 -0.004846,0.0105236 -0.007391,0.0233856 l -0.004628,0.0233856 0.059492,0.0351647 c 0.0327207,0.0193409 0.0600627,0.0343514 0.0607599,0.0333575 6.9163e-4,-9.9428e-4 0.002988,-0.0123802 0.005094,-0.0253028 z m 0.24334852,3.1778e-4 c -0.001366,-0.0284241 -0.001984,-0.0292733 -0.0322528,-0.0451184 -0.0263117,-0.0137719 -0.0314639,-0.0144822 -0.0350153,-0.004825 -0.00956,0.025999 -0.002424,0.0415061 0.0274911,0.0597635 0.0404022,0.0246545 0.0414319,0.0244006 0.0397762,-0.00982 z m 0.046263,-0.0407704 c 0.00434,-0.0133191 0.00455,-0.0203862 8.259e-4,-0.0269541 -0.00373,-0.006567 -0.00877,-0.0034 -0.019217,0.0120882 -0.007789,0.011545 -0.0160395,0.0209901 -0.0183312,0.0209901 -0.002292,0 -0.004168,0.0147284 -0.004168,0.0327298 l 0,0.0327298 0.0175069,-0.0267658 c 0.00963,-0.0147206 0.020152,-0.0348889 0.023385,-0.0448172 z m 0.2167897,-0.005996 c 0.00597,-0.003336 0.00869,-0.0121467 0.00869,-0.0281751 0,-0.0295478 -0.010501,-0.0308612 -0.031244,-0.003908 -0.021842,0.0283831 -0.0286,0.0486587 -0.025229,0.0756926 l 0.00289,0.0231464 0.018107,-0.0309508 c 0.00996,-0.017023 0.022016,-0.0331353 0.026793,-0.0358059 z m -0.42063258,0.0267333 c 0.002735,-0.0138297 0.004461,-0.025865 0.003829,-0.0267446 -0.003558,-0.004952 -0.13060513,-0.0765165 -0.13168886,-0.0741771 -7.097e-4,0.001545 -0.003512,0.0143411 -0.006209,0.0284298 l -0.004905,0.0256153 0.0617973,0.0352126 c 0.0339883,0.019367 0.0641381,0.0355718 0.0669991,0.0360112 0.002861,4.3833e-4 0.007441,-0.0105172 0.0101778,-0.0243469 z m 0.46887178,0.00584 c 0.00614,-0.0108128 -0.010612,-0.0284065 -0.027044,-0.0284065 -0.014549,0 -0.017465,0.002406 -0.015248,0.0125784 0.0015,0.006919 0.00274,0.0150712 0.00274,0.0181184 0,0.006243 0.035887,0.004169 0.039553,-0.002293 z M 0.51958741,0.71803591 c 0.002516,-0.0116459 0.002972,-0.0237354 0.001019,-0.0268652 -0.001953,-0.003131 -0.0326372,-0.0218478 -0.0681824,-0.0415964 l -0.0646284,-0.0359049 -0.004222,0.0195534 c -0.002323,0.0107543 -0.004222,0.0220996 -0.004222,0.0252124 0,0.00558 0.11872794,0.0787829 0.1299097,0.0800985 0.003165,3.7314e-4 0.007812,-0.008851 0.0103261,-0.0204978 z m 0.41507399,0.004726 c 0,-0.008616 -0.035373,-0.0512835 -0.048533,-0.0585397 -0.00866,-0.004775 -0.010159,-0.002694 -0.010159,0.0141824 0,0.015359 0.00293,0.0209153 0.013076,0.0248422 0.00719,0.002779 0.01645,0.011624 0.020573,0.0196485 0.00726,0.0141246 0.025043,0.01403 0.025043,-1.3564e-4 z m -0.86724172,-0.026373 c -0.001003,-0.001601 -0.006409,-0.005389 -0.0119968,-0.008412 -0.008209,-0.004444 -0.0101583,-0.002427 -0.0101583,0.0105447 0,0.008824 0.003553,0.0196089 0.007901,0.0239654 0.006132,0.006144 0.008818,0.004437 0.0119968,-0.007633 0.002252,-0.008555 0.003268,-0.0168636 0.002255,-0.0184655 z m 0.0753683,0.006673 c 0.001582,-0.0111372 0.002133,-0.0213844 0.00122,-0.0227718 -0.00339,-0.005114 -0.0876753,-0.0524 -0.0934048,-0.0524 -0.003774,0 -0.005413,0.007723 -0.004502,0.0212475 0.001284,0.0191772 0.005608,0.023765 0.0443184,0.0470863 0.0235895,0.0142113 0.0443749,0.0261203 0.0461896,0.0264631 0.001817,3.4296e-4 0.004599,-0.008488 0.006187,-0.0196251 z m 0.80541976,-0.006934 c 0,-0.0225652 -0.00272,-0.0301488 -0.01604,-0.0446423 -0.017494,-0.0190432 -0.017768,-0.0189896 -0.021539,0.004232 -0.00196,0.0120578 0.002,0.0220418 0.016369,0.0412895 0.010423,0.0139624 0.01946,0.025592 0.02008,0.0258431 6.283e-4,2.5125e-4 0.00112,-0.0117749 0.00112,-0.0267255 z m -0.35251427,-0.0185403 -3.627e-4,-0.0377711 -0.006198,0.0238553 c -0.008223,0.0316308 -0.008159,0.0516869 1.6418e-4,0.0516869 0.005118,0 0.006684,-0.009211 0.006407,-0.0377711 z m 0.0372468,-0.007891 c 0.033625,-0.05649 0.036937,-0.0667548 0.030084,-0.0932457 -0.00293,-0.0112968 -0.00672,-0.0195526 -0.00844,-0.018346 -0.00172,0.001207 -0.014577,0.0207165 -0.028568,0.0433552 -0.0237922,0.0384995 -0.0254371,0.0435132 -0.0254371,0.0775302 0,0.0200032 0.001173,0.0363688 0.002593,0.0363688 0.00142,0 0.0148223,-0.0205478 0.029772,-0.0456622 z m -0.40779395,0.0140138 0.004691,-0.0236973 -0.0638539,-0.0356571 c -0.0351197,-0.0196111 -0.0644372,-0.0346295 -0.0651501,-0.0333738 -7.0971e-4,0.001256 -0.002486,0.0127746 -0.003942,0.0255978 l -0.002649,0.0233146 0.0556482,0.0330732 c 0.0306065,0.0181904 0.0590048,0.0333808 0.0631073,0.0337561 0.004407,4.0208e-4 0.00938,-0.00902 0.0121501,-0.0230145 z m 0.35677409,-0.0153662 c 0.002833,-0.014923 0.004631,-0.0279712 0.003998,-0.0289961 -0.001899,-0.003076 -0.10394288,-0.0591725 -0.1076401,-0.0591725 -0.005449,0 -0.0145372,0.0564304 -0.0102506,0.0636427 0.006138,0.0103275 0.10289275,0.0619474 0.10596674,0.056535 0.001513,-0.002681 0.005087,-0.0170865 0.007921,-0.0320095 z M 0.6862256,0.63609009 c 0.025557,-0.0499343 0.031797,-0.0668794 0.029441,-0.0799557 -0.00165,-0.009126 -0.00471,-0.0155015 -0.0068,-0.0141673 -0.0021,0.001333 -0.017972,0.0310522 -0.035279,0.0660402 -0.025121,0.0507871 -0.030616,0.0664205 -0.027249,0.0775301 0.00232,0.007653 0.00495,0.0139158 0.00584,0.0139158 8.877e-4,0 0.016214,-0.028513 0.034051,-0.063363 z m 0.053611,-0.0223167 c 0.023971,-0.0427503 0.047145,-0.0812173 0.051499,-0.085482 0.00613,-0.006001 0.00712,-0.0127999 0.00442,-0.0300793 l -0.00349,-0.0223253 -0.017966,0.0234414 c -0.00988,0.0128929 -0.03398,0.0521208 -0.053553,0.0871733 -0.030962,0.0554503 -0.035204,0.066413 -0.032646,0.0843657 0.00161,0.011349 0.00411,0.0206338 0.00555,0.0206338 0.00144,0 0.022218,-0.0349778 0.04619,-0.0777279 z m -0.44044269,0.0430134 c 0.003115,-0.0164721 0.002766,-0.0244704 -0.001271,-0.0288608 -0.009543,-0.0103878 -0.11723287,-0.0666318 -0.11959937,-0.0624639 -0.001239,0.00217 -0.003431,0.0144372 -0.004887,0.0272605 l -0.002649,0.0233148 0.0556482,0.0331636 c 0.0306065,0.0182398 0.0585274,0.0325357 0.0620463,0.0317683 0.003517,-7.6886e-4 0.008338,-0.0116494 0.0107089,-0.0241826 z M 0.8189126,0.5674567 c 0.017187,-0.0124803 0.020333,-0.0178815 0.018059,-0.0310154 -0.00152,-0.008747 -0.00347,-0.017315 -0.00435,-0.0190396 -0.00329,-0.006471 -0.042444,0.0247734 -0.057567,0.0459419 -0.027759,0.0388549 -0.040316,0.0704004 -0.037076,0.0931405 0.00287,0.020138 0.00322,0.0198452 0.031512,-0.026777 0.015736,-0.0259259 0.037975,-0.0539385 0.049422,-0.06225 z M 0.37689525,0.627887 c 0.002627,-0.0193647 0.001054,-0.0207831 -0.0607629,-0.0547646 -0.0349018,-0.0191868 -0.064248,-0.0334929 -0.0652143,-0.0317909 -9.7179e-4,0.001703 -0.003033,0.0120714 -0.0046,0.0230433 -0.002766,0.0194084 -0.001152,0.0209415 0.0594531,0.0565739 0.0342627,0.0201436 0.0636755,0.0344183 0.0653622,0.0317214 0.001686,-0.002694 0.004281,-0.0138495 0.00576,-0.0247829 z M 0.9067231,0.6417344 c 0.00192,-0.0175492 -0.015442,-0.0297512 -0.042332,-0.0297512 -0.018163,0 -0.020022,0.001785 -0.020022,0.0192169 0,0.0175259 0.00182,0.0192168 0.020692,0.0192168 0.011381,0 0.021948,0.002208 0.023483,0.004916 0.00512,0.009011 0.016651,3.8401e-4 0.018179,-0.0135962 z m 0.0414844,-0.0132627 c 0,-0.0202534 -0.00307,-0.0258414 -0.023703,-0.0430984 -0.039684,-0.0331979 -0.044018,-0.0338862 -0.044018,-0.006992 0,0.0198119 0.00243,0.024439 0.01693,0.0322333 0.00931,0.005005 0.023025,0.0160451 0.030474,0.0245327 0.018352,0.0209103 0.020317,0.0202649 0.020317,-0.006673 z M 0.09263895,0.60345444 c 0.002599,-0.0185651 0.001121,-0.0213748 -0.0159522,-0.0303865 -0.0103495,-0.005461 -0.0216529,-0.0118468 -0.0251192,-0.0141895 -0.004657,-0.003148 -0.006302,0.00305 -0.006302,0.0237598 0,0.0258438 0.001483,0.0289199 0.0191875,0.0396159 0.0212312,0.0128316 0.0240157,0.0109743 0.0281858,-0.0188 z m 0.36972853,0.0132436 c 0.001501,-0.0105275 0.003915,-0.024596 0.005368,-0.0312634 0.002093,-0.009603 -0.009507,-0.0188477 -0.0557969,-0.0444737 -0.0321408,-0.0177931 -0.0624384,-0.032351 -0.0673276,-0.032351 -0.006316,0 -0.0103726,0.008512 -0.0140147,0.029415 -0.00282,0.0161782 -0.004684,0.0297583 -0.004145,0.0301779 0.0108491,0.008428 0.1204882,0.0671304 0.12577585,0.0673409 0.004145,1.645e-4 0.008615,-0.008145 0.0101384,-0.0188456 z m 0.13285009,-0.0146545 c -0.00122,-0.0224374 -0.003921,-0.0273689 -0.0204261,-0.0374189 -0.0215314,-0.01311 -0.0239165,-0.0112092 -0.025211,0.0200858 -8.1047e-4,0.0196665 0.00125,0.0235556 0.0171341,0.0321628 0.028009,0.015186 0.0300869,0.0141049 0.028503,-0.0148299 z m 0.0275783,-0.0309799 c -0.008734,-0.0287418 -0.0222208,-0.009276 -0.0222208,0.03207 l 0,0.0277286 0.0133503,-0.0225277 c 0.0106627,-0.0179916 0.012448,-0.0254966 0.00887,-0.0372709 z m 0.1965531,0.0494114 c 0.00144,-0.004077 0.013739,-0.0118025 0.027355,-0.017169 0.013614,-0.005366 0.024754,-0.0124732 0.024754,-0.0157933 0,-0.003318 0.00124,-0.0116961 0.00274,-0.018614 0.00393,-0.0180246 -0.014606,-0.0164358 -0.045461,0.003897 -0.025366,0.0167164 -0.027141,0.0201064 -0.022259,0.0425133 0.00306,0.0140539 0.00893,0.016408 0.012872,0.005166 z M 0.16965011,0.5569763 C 0.16365711,0.5398958 0.12630001,0.5309246 0.08963931,0.537761 l -0.0376019,0.007012 0.0541765,0.0325379 0.0541767,0.0325378 0.005757,-0.0232233 c 0.003169,-0.0127731 0.004742,-0.0261148 0.003504,-0.0296492 z m 0.37251315,0.017929 c 0.002516,-0.0116461 0.002972,-0.0235189 0.001019,-0.0263843 -0.0107514,-0.0157616 -0.0734905,-0.0409257 -0.0961054,-0.0385471 -0.0410171,0.004314 -0.0326575,0.0213349 0.0270883,0.055155 0.0285554,0.0161644 0.0545089,0.0297409 0.0576742,0.0301702 0.003165,4.2963e-4 0.007812,-0.008748 0.0103261,-0.0203939 z M 0.9482077,0.5687843 c 0,-0.0206423 -0.00228,-0.0285722 -0.00937,-0.0325332 -0.010681,-0.00597 -0.011088,-0.005528 -0.014849,0.0161039 -0.00205,0.0117715 4.451e-4,0.0193443 0.0096,0.0290922 0.0068,0.007249 0.012872,0.0135056 0.013492,0.0139054 6.283e-4,3.9956e-4 0.00112,-0.011556 0.00112,-0.0265685 z M 0.740531,0.46245597 c 0,-0.0332635 -0.035924,-0.009628 -0.060463,0.0397806 -0.01978,0.0398264 -0.020104,0.0413474 -0.013548,0.0636759 l 0.00672,0.0228749 0.033648,-0.0588806 c 0.018506,-0.0323843 0.033648,-0.0627372 0.033648,-0.0674509 z m -0.49946375,0.0998286 c 0.004231,-0.0278084 0.003923,-0.0286125 -0.0147502,-0.0384657 -0.011533,-0.006086 -0.0282528,-0.007196 -0.0485332,-0.003224 l -0.0309383,0.00606 0.0428899,0.0261359 c 0.0522627,0.0318475 0.0480483,0.0310683 0.0513311,0.009493 z M 0.6611367,0.52317407 c 0.013861,-0.0269777 0.024632,-0.050054 0.023935,-0.0512808 -6.926e-4,-0.001228 -0.00945,0.001427 -0.019442,0.005895 -0.021933,0.009805 -0.044607,0.0542092 -0.040192,0.0787086 0.00157,0.00865 0.00456,0.0157272 0.00667,0.0157272 0.00211,0 0.015172,-0.0220728 0.029033,-0.0490503 z m -0.33925519,0.0271828 c 0.001252,-0.007654 0.003738,-0.0201775 0.005524,-0.0278312 0.002993,-0.0127926 -8.9075e-4,-0.0138652 -0.0480209,-0.013291 l -0.0512734,6.2307e-4 0.0428899,0.0265825 c 0.0515733,0.0319645 0.0480895,0.0310117 0.0508804,0.0139155 z m 0.27417864,-0.0139155 0,-0.0278312 -0.0413848,0 c -0.0227618,0 -0.0398881,0.002684 -0.0380588,0.005964 0.003072,0.005513 0.0684066,0.0476676 0.0760582,0.0490757 0.00186,3.4291e-4 0.003389,-0.0119007 0.003389,-0.0272081 z M 0.800136,0.45855006 c 0.013154,-0.0108861 0.027473,-0.0218551 0.031818,-0.024376 0.00755,-0.004381 0.011553,-0.0369913 0.00452,-0.0367951 -0.00729,2.0475e-4 -0.050327,0.022334 -0.056033,0.0288187 -0.00332,0.003778 -0.00909,0.007235 -0.012818,0.007681 -0.00373,4.4557e-4 -0.011279,0.00134 -0.016788,0.001989 -0.00705,8.2952e-4 -0.00922,0.004816 -0.00734,0.0134482 0.00236,0.0108534 0.00366,0.010706 0.011172,-0.001275 0.00468,-0.007451 0.00952,-0.0117486 0.01077,-0.009549 0.00125,0.002199 -0.00986,0.0225824 -0.024688,0.0452964 -0.024889,0.0381282 -0.026573,0.0427848 -0.021948,0.0606641 l 0.00501,0.0193661 0.026208,-0.0427363 c 0.014407,-0.023506 0.0369635,-0.0516442 0.0501185,-0.0625301 z m 0.1174647,0.0645369 c -0.00276,-0.004873 -0.020375,-0.0105941 -0.039131,-0.0127139 l -0.034101,-0.003855 0,0.0209252 c 0,0.0201082 0.00101,0.0209469 0.02596,0.0214841 0.014278,3.065e-4 0.030023,0.003449 0.034989,0.006981 0.010964,0.007798 0.02065,-0.0180844 0.012284,-0.0328215 z m -0.2893479,-0.0100156 0.00995,-0.0222818 -0.00979,0.004934 c -0.00538,0.002713 -0.0138482,0.006964 -0.0188144,0.009447 -0.006445,0.00322 -0.009029,0.0113168 -0.009029,0.0282822 0,0.0220341 6.4281e-4,0.0229716 0.008864,0.012836 0.004878,-0.006013 0.0133418,-0.0209614 0.0188145,-0.0332164 z m -0.57990327,0.002 c -0.001433,-0.006343 -0.002509,-0.004459 -0.002725,0.004804 -1.9787e-4,0.008383 8.7221e-4,0.0130791 0.002369,0.0104368 0.001501,-0.002641 0.001659,-0.009501 3.6276e-4,-0.015241 z m 0.0194894,0.0112631 c 0,-0.003373 0.010996,-0.005652 0.0244357,-0.005065 0.0134393,5.8685e-4 0.0270132,-0.001739 0.030164,-0.005168 0.003151,-0.003431 -0.0108934,-0.006236 -0.0312077,-0.006236 -0.02891,0 -0.036936,0.002456 -0.036936,0.0113001 0,0.006215 0.003047,0.0113001 0.006772,0.0113001 0.003725,0 0.006772,-0.00276 0.006772,-0.006131 z M 0.9482077,0.50822158 c 0,-0.0208151 -0.00271,-0.0264141 -0.019187,-0.0395845 -0.019533,-0.0156159 -0.039454,-0.0205129 -0.039565,-0.009726 -3.64e-5,0.003278 -0.00128,0.0140151 -0.00279,0.0238554 -0.00225,0.0147987 -8.722e-4,0.0179663 0.00796,0.0183239 0.00875,3.5421e-4 0.020397,0.007139 0.052446,0.0305503 6.283e-4,4.5282e-4 0.00112,-0.0100854 0.00112,-0.0234197 z m -0.53273589,0.00834 c 0,-0.004373 -0.007619,-0.0077 -0.0169304,-0.007392 -0.0135812,4.4919e-4 -0.0151439,0.001908 -0.007901,0.007392 0.0125456,0.009496 0.0248312,0.009496 0.0248312,0 z m -0.25856138,-0.004804 c -0.001501,-0.002641 -0.005393,-0.002923 -0.008653,-6.2671e-4 -0.003603,0.00254 -0.002532,0.004423 0.002725,0.004804 0.00476,3.4667e-4 0.007426,-0.001532 0.005926,-0.004177 z M 0.8466267,0.5001082 c 0.014899,-0.003895 0.028381,-0.007154 0.029962,-0.007242 0.00158,-8.76e-5 0.00377,-0.0108948 0.00486,-0.0240152 0.00199,-0.0238376 0.00197,-0.0238554 -0.020933,-0.0238112 -0.024923,4.746e-5 -0.054937,0.0121221 -0.059013,0.0237399 -0.0014,0.004011 -0.00124,0.0166154 3.957e-4,0.0280112 0.00215,0.0150733 0.00496,0.0193132 0.010297,0.0155591 0.00404,-0.002836 0.019534,-0.008347 0.034432,-0.012242 z M 0.05880955,0.46421257 c 0,-0.0192592 -0.001831,-0.0274215 -0.005644,-0.0251846 -0.0106081,0.006221 -0.009736,0.0536785 9.9032e-4,0.0536785 0.002559,0 0.004656,-0.0128223 0.004656,-0.028494 z m 0.13544137,6.6293e-4 0,-0.0278312 -0.0632059,0 -0.0632061,0 0,0.0278312 0,0.0278312 0.0632061,0 0.0632059,0 0,-0.0278312 z m 0.13092667,0 0,-0.0278312 -0.0632059,0 -0.0632061,0 0,0.0278312 0,0.0278312 0.0632061,0 0.0632059,0 0,-0.0278312 z m 0.13092663,0 0,-0.0278312 -0.063206,0 -0.0632059,0 0,0.0278312 0,0.0278312 0.0632059,0 0.063206,0 0,-0.0278312 z m 0.13092655,0 0,-0.0278312 -0.0632057,0 -0.0632059,0 0,0.0278312 0,0.0278312 0.0632059,0 0.0632057,0 0,-0.0278312 z m 0.0352746,-0.00994 c 7.719e-4,-0.0142137 -5.772e-4,-0.0258435 -0.00302,-0.0258435 -0.0122852,0 -0.0187141,0.011411 -0.0187141,0.033211 0,0.0198819 0.001582,0.0231613 0.0101579,0.0210168 0.007786,-0.001949 0.0104882,-0.008577 0.0115727,-0.0283843 z m 0.055605,-0.003235 c 0.033751,-0.0162916 0.035532,-0.0182844 0.035532,-0.039759 0,-0.0270555 -0.00104,-0.027187 -0.045968,-0.005833 -0.033715,0.0160228 -0.035296,0.0178047 -0.035296,0.039759 0,0.0275181 6.428e-4,0.0275996 0.045733,0.005833 z m 0.270297,-0.002728 c 0,-0.0203021 -0.00616,-0.0265324 -0.011421,-0.0115468 -0.00376,0.0107032 7.096e-4,0.0314265 0.00676,0.0314265 0.00255,0 0.00465,-0.008946 0.00465,-0.0198798 z M 0.9300685,0.43730781 c 0.0043,-0.0141514 0.00249,-0.0167628 -0.019029,-0.0274203 -0.01308,-0.006479 -0.033432,-0.0141598 -0.045227,-0.017069 -0.021296,-0.005253 -0.021444,-0.005132 -0.021407,0.0174808 3.66e-5,0.0221732 7.278e-4,0.022823 0.02596,0.0247813 0.020573,0.001598 0.041159,0.008149 0.05398,0.0171853 5.289e-4,3.7674e-4 0.00311,-0.006355 0.00572,-0.0149574 z m -0.80805367,-0.0360456 0,-0.0278312 -0.0383749,0 -0.0383749,0 0,0.0278312 0,0.0278314 0.0383749,0 0.0383749,0 0,-0.0278314 z m 0.13092667,0 0,-0.0278312 -0.0609486,0 -0.0609485,0 0,0.0278312 0,0.0278314 0.0609485,0 0.0609486,0 0,-0.0278314 z m 0.13092667,0 0,-0.0278312 -0.0609486,0 -0.0609485,0 0,0.0278312 0,0.0278314 0.0609485,0 0.0609486,0 0,-0.0278314 z m 0.13092667,0 0,-0.0278312 -0.0609487,0 -0.0609485,0 0,0.0278312 0,0.0278314 0.0609485,0 0.0609487,0 0,-0.0278314 z m 0.0812647,0 0,-0.0278312 -0.0361175,0 -0.0361175,0 0,0.0278312 0,0.0278314 0.0361175,0 0.0361175,0 0,-0.0278314 z m 0.0623636,-0.0266064 c 0.00164,-0.0290813 -1.65e-5,-0.0297062 -0.033451,-0.0125887 -0.0231346,0.0118453 -0.0243974,0.0138454 -0.0243974,0.0386352 l 0,0.0261431 0.0282167,-0.0135548 c 0.026419,-0.0126911 0.028307,-0.0151527 0.029631,-0.0386352 z m 0.1328979,0.0222282 0.057562,-0.0269372 0,-0.0254765 0,-0.0254765 -0.030474,0.0149817 c -0.016761,0.00824 -0.044696,0.0217276 -0.062077,0.0299732 -0.030389,0.0144155 -0.031659,0.0159964 -0.033063,0.0411433 -0.00106,0.0190092 1.649e-4,0.0251381 0.00452,0.0224408 0.00329,-0.00204 0.031878,-0.0158326 0.063538,-0.0306483 z m 0.1552603,-0.0114946 c -0.00296,-0.0135602 -0.031039,-0.0279637 -0.043412,-0.0222648 -0.016501,0.0076 -0.00959,0.0238692 0.016821,0.0395781 0.026714,0.0158906 0.032942,0.0118356 0.026591,-0.0173136 z M 0.7868066,0.33639239 c 0.00605,-0.006542 0.00391,-0.0524832 -0.00225,-0.0483511 -0.0031,0.002079 -0.031546,0.0155214 -0.063206,0.0298695 l -0.057563,0.0260876 0,0.0260333 0,0.0260333 0.05982,-0.0280069 c 0.032901,-0.0154037 0.061344,-0.0296533 0.063206,-0.031666 z m 0.101487,0.040186 c -0.0015,-0.002641 -0.0054,-0.002923 -0.00865,-6.267e-4 -0.0036,0.00254 -0.00253,0.004423 0.00272,0.004804 0.00475,3.4668e-4 0.00743,-0.001532 0.00593,-0.004177 z M 0.06332416,0.33764614 c 0,-0.0225299 -0.001717,-0.0278314 -0.009029,-0.0278314 -0.006905,0 -0.009029,0.005301 -0.009029,0.02253 0,0.0248965 0.002993,0.0331327 0.0120393,0.0331327 0.003869,0 0.00602,-0.00994 0.00602,-0.0278312 z m 0.13092667,0 0,-0.0278314 -0.0632059,0 -0.0632061,0 0,0.0278314 0,0.0278312 0.0632061,0 0.0632059,0 0,-0.0278312 z m 0.13092667,0 0,-0.0278314 -0.0632059,0 -0.0632061,0 0,0.0278314 0,0.0278312 0.0632061,0 0.0632059,0 0,-0.0278312 z m 0.13092663,0 0,-0.0278314 -0.063206,0 -0.0632059,0 0,0.0278314 0,0.0278312 0.0632059,0 0.063206,0 0,-0.0278312 z m 0.13092648,0 0,-0.0278314 -0.0632057,0 -0.0632059,0 0,0.0278314 0,0.0278312 0.0632059,0 0.0632057,0 0,-0.0278312 z m 0.32167329,0.003387 c 0.039388,-0.0184524 0.039504,-0.0185818 0.039504,-0.044313 l 0,-0.0258066 -0.021445,0.0107861 c -0.011795,0.005932 -0.033127,0.0165745 -0.047405,0.0236489 -0.024424,0.0121018 -0.02596,0.0143158 -0.02596,0.0374236 0,0.0195743 0.0016,0.0237696 0.0079,0.020664 0.00435,-0.002144 0.025677,-0.0122246 0.047404,-0.0224032 z m 0.039504,0.0116663 c 0,-0.008386 -0.00245,-0.011119 -0.00714,-0.007951 -0.00393,0.002655 -0.00951,0.005078 -0.012416,0.005386 -0.0029,3.0647e-4 -0.0012,0.003634 0.00376,0.007392 0.013312,0.0100753 0.015802,0.009315 0.015802,-0.004827 z m -0.325902,-0.0249926 c 0.00127,-0.0230835 1.813e-4,-0.0258435 -0.0101578,-0.0258435 -0.010259,0 -0.0115727,0.00322 -0.0115727,0.0283843 0,0.0248875 0.00125,0.0280713 0.0101579,0.0258435 0.007785,-0.001949 0.0104882,-0.008577 0.0115727,-0.0283843 z m 0.030497,0.0105039 c 0.012246,-0.006249 0.030899,-0.0153338 0.041452,-0.0201861 0.017782,-0.008176 0.019187,-0.0107832 0.019187,-0.0355924 l 0,-0.0267701 -0.02596,0.0116714 c -0.064999,0.0292233 -0.05982,0.0244861 -0.05982,0.0547158 0,0.0151386 6.428e-4,0.0275251 0.00144,0.0275251 7.95e-4,0 0.011458,-0.005113 0.023702,-0.0113638 z M 0.8533984,0.3058399 c 0.023589,-0.0113631 0.046445,-0.0225151 0.050791,-0.0247817 0.00521,-0.002717 0.0079,-0.0121101 0.0079,-0.0275924 0,-0.0203778 -0.00134,-0.0228755 -0.010159,-0.0189538 -0.00559,0.002485 -0.03149,0.014531 -0.057562,0.0267701 -0.047131,0.0221242 -0.047413,0.0224016 -0.04885,0.0480335 -0.00122,0.0217667 -1.649e-4,0.0251113 0.00677,0.0214828 0.00452,-0.002366 0.027517,-0.0135953 0.051107,-0.0249585 z M 0.8443584,0.223798 c 8.2e-6,-0.0213972 -0.00148,-0.0256012 -0.00789,-0.0222583 -0.00435,0.002268 -0.025169,0.0116577 -0.046275,0.020869 -0.077977,0.0340315 -0.072235,0.029349 -0.072235,0.0589121 l 0,0.0265546 0.063193,-0.0288491 0.063193,-0.0288491 1.42e-5,-0.0263792 z m -0.71782554,0.0422828 0,-0.0278312 -0.0406324,0 -0.0406324,0 0,0.0278312 0,0.0278312 0.0406324,0 0.0406324,0 0,-0.0278312 z m 0.13092648,0 0,-0.0278312 -0.0632059,0 -0.0632059,0 0,0.0278312 0,0.0278312 0.0632059,0 0.0632059,0 0,-0.0278312 z m 0.13092667,0 0,-0.0278312 -0.0632059,0 -0.0632059,0 0,0.0278312 0,0.0278312 0.0632059,0 0.0632059,0 0,-0.0278312 z m 0.13092667,0 0,-0.0278312 -0.0632059,0 -0.0632061,0 0,0.0278312 0,0.0278312 0.0632061,0 0.0632059,0 0,-0.0278312 z m 0.0767498,0 0,-0.0278312 -0.0361175,0 -0.0361175,0 0,0.0278312 0,0.0278312 0.0361175,0 0.0361175,0 0,-0.0278312 z m 0.0352985,0.0155958 c 0.022337,-0.0116834 0.023393,-0.013478 0.023393,-0.039759 0,-0.0151378 -0.0012,-0.0275232 -0.00269,-0.0275232 -0.00148,0 -0.01367,0.005621 -0.027088,0.0124919 -0.0233978,0.0119801 -0.0243974,0.013609 -0.0243974,0.039759 0,0.0313715 -2.3086e-4,0.0312563 0.0307831,0.0150313 z M 0.948207,0.23676409 c 0,-0.0206999 -0.00109,-0.022218 -0.012416,-0.0174461 -0.018057,0.007602 -0.019187,0.009638 -0.019187,0.0345604 0,0.0222021 3.133e-4,0.022476 0.015802,0.0141003 0.01323,-0.007152 0.015802,-0.0122308 0.015802,-0.0312142 z m -0.2144489,-0.001174 0.054176,-0.0251718 0.00142,-0.0305209 c 0.00122,-0.0262988 2.967e-4,-0.0299431 -0.00677,-0.0263455 -0.00451,0.002296 -0.033085,0.0155954 -0.063502,0.0295533 l -0.055305,0.0253783 0,0.0268106 c 0,0.0330516 -5.112e-4,0.0330494 0.069978,2.9518e-4 z m 0.1726877,-0.0140667 0.041762,-0.0188125 0,-0.0265013 c 0,-0.0215287 -0.00148,-0.0257181 -0.0079,-0.0223267 -0.00435,0.002296 -0.025677,0.0119225 -0.047405,0.0213917 l -0.039504,0.0172171 0,0.0277058 c 0,0.0188809 0.0018,0.0265006 0.00564,0.0239225 0.0031,-0.002079 0.024436,-0.0122492 0.047405,-0.0225963 z M 0.7653611,0.14710417 0.9233759,0.07239225 0.6660375,0.07212972 0.40869882,0.0718672 0.24616931,0.14656849 0.08363976,0.22126991 0.34549292,0.22154374 0.60734626,0.22181756 0.7653611,0.14710564 Z m 0.071483,0.042981 c 0.078006,-0.0346071 0.07073,-0.0279909 0.07073,-0.0643181 0,-0.0225093 -0.00171,-0.03125119 -0.00564,-0.02873422 -0.0031,0.0019886 -0.028499,0.01398475 -0.056434,0.02665599 l -0.05079,0.0230386 0,0.0298576 c 0,0.0164217 0.00119,0.0298576 0.00263,0.0298576 0.00145,0 0.019226,-0.007361 0.039504,-0.0163572 z m 0.1057195,-0.0471487 c 0.00359,-7.3e-5 0.00564,-0.0120145 0.00564,-0.0328433 0,-0.03006665 -8.259e-4,-0.03234374 -0.010159,-0.02793986 -0.00559,0.0026373 -0.012697,0.004844 -0.015802,0.0049028 -0.00359,7.299e-5 -0.00564,0.01201453 -0.00564,0.03284328 0,0.0300667 8.259e-4,0.0323437 0.010159,0.0279399 0.00559,-0.002637 0.012697,-0.004844 0.015802,-0.004903 z" id="path4587" inkscape:connector-curvature="0" />
    </pattern>
  </defs>
  <sodipodi:namedview pagecolor="#ffffff" bordercolor="#666666" borderopacity="1" objecttolerance="10" gridtolerance="10" guidetolerance="10" inkscape:pageopacity="0" inkscape:pageshadow="2" inkscape:window-width="1680" inkscape:window-height="988" id="namedview4" showgrid="false" inkscape:zoom="256" inkscape:cx="1.9224117" inkscape:cy="-0.36408103" inkscape:window-x="-8" inkscape:window-y="-8" inkscape:window-maximized="1" inkscape:current-layer="svg2" />
  <path style="fill:#000000" d="m 0.05768013,0.93156295 -0.0169304,-0.002471 0,-0.35337551 c 0,-0.31050596 8.2282e-4,-0.35337546 0.006846,-0.35337546 0.003765,0 0.085198,-0.0357833 0.18096191,-0.0795181 l 0.17411602,-0.07951813 0.27502386,0 0.2750237,0 0,0.33397603 c 0,0.18368678 -0.0013,0.333976 -0.00289,0.333976 -0.00158,0 -0.080106,0.0450697 -0.1744863,0.10015557 l -0.17159737,0.10015797 -0.26456931,0.001227 c -0.14551313,6.7736e-4 -0.27218792,1.2047e-4 -0.28149939,-0.001241 z m 0.0253714,-0.0273513 c 0.004078,-0.0268107 0.003829,-0.0276824 -0.00957,-0.0333102 -0.006828,-0.002867 -0.0159702,-0.007076 -0.0203162,-0.009354 -0.014003,-0.007327 -0.0101118,0.0340757 0.004516,0.0480516 0.017179,0.0164152 0.0222162,0.0153437 0.0253714,-0.005386 z m 0.0434781,-0.001545 c -0.0161398,-0.0100065 -0.0306242,-0.0169394 -0.0321868,-0.0154065 -0.001568,0.001535 -0.003915,0.01 -0.00522,0.018815 -0.002238,0.0150754 -3.2976e-4,0.0159905 0.0321868,0.0154074 l 0.034566,-6.1944e-4 -0.0293453,-0.0181943 z m 0.1001701,-0.009852 c -0.0256069,-0.015418 -0.0474256,-0.0265037 -0.048486,-0.0246359 -0.001054,0.001873 -0.003219,0.0147655 -0.004796,0.0286593 l -0.002871,0.0252633 0.0513547,-6.2668e-4 0.051355,-6.2669e-4 -0.046558,-0.0280318 z m 0.0853852,-0.007761 c -0.0479186,-0.0281791 -0.0612934,-0.0333988 -0.0643291,-0.0251065 -0.0127268,0.034765 0.0235777,0.060983 0.0841931,0.0608015 l 0.0406323,-1.1999e-4 -0.0604964,-0.0355746 z m 0.0859338,-3.2792e-4 c -0.0490303,-0.0293524 -0.0610766,-0.0340796 -0.0642613,-0.025216 -0.006617,0.0184163 -0.002333,0.0251243 0.0278161,0.0435706 0.0200766,0.0122837 0.0395393,0.0177812 0.0629267,0.0177773 L 0.45836053,0.92085 0.39801833,0.8847249 Z m 0.0896877,-0.005792 c -0.0705045,-0.0422336 -0.0765167,-0.043084 -0.0766809,-0.0108376 -1.1722e-4,0.0229958 0.061818,0.0533155 0.10828393,0.0530085 l 0.0383753,-2.5562e-4 -0.0699781,-0.0419179 z m 0.1075105,0.0179395 c -0.001351,-0.0241744 -0.003087,-0.0262093 -0.0413138,-0.0486047 -0.0413817,-0.0242433 -0.0469516,-0.0231676 -0.0491367,0.009489 -0.001135,0.0170572 0.002308,0.0208451 0.0371163,0.0407451 0.0520027,0.0297327 0.0550871,0.0296381 0.0533342,-0.001631 z m 0.0554383,-0.0230653 0.017682,-0.0246658 -0.00779,-0.0232339 c -0.00428,-0.0127787 -0.00889,-0.0223049 -0.010239,-0.0211699 -0.00135,0.001135 -0.012969,0.0163776 -0.025832,0.0338711 -0.0194945,0.0265153 -0.0234287,0.0361251 -0.0236433,0.0577569 L 0.6005691,0.92231627 0.6167684,0.9103946 C 0.6256784,0.9038306 0.640925,0.8873727 0.6506498,0.8738071 Z m -0.4816144,0.00333 c 0.002753,-0.0158717 -0.001288,-0.0196191 -0.0547591,-0.050868 -0.0317516,-0.0185537 -0.0604087,-0.035473 -0.0636822,-0.0375997 -0.004412,-0.002864 -0.00558,0.003971 -0.004516,0.026394 l 0.001433,0.0302595 0.056434,0.0332513 c 0.0580742,0.0342176 0.0589052,0.0341993 0.065085,-0.001438 z m 0.499724,0.005203 c 0.00234,0 0.013299,-0.014696 0.024362,-0.0326586 0.016899,-0.0274352 0.019373,-0.0351006 0.015475,-0.0479307 -0.00421,-0.0138445 -0.00674,-0.0108474 -0.027094,0.0320575 -0.012349,0.0260317 -0.02393,0.0488036 -0.025734,0.0506029 -0.00181,0.001795 -5.772e-4,0.002075 0.00273,6.0139e-4 0.00331,-0.001467 0.00792,-0.002674 0.010259,-0.002674 z M 0.23899298,0.86445234 c 0.003635,-0.0170176 0.001139,-0.0194849 -0.050936,-0.0504977 l -0.0547554,-0.0326063 -0.003856,0.0191878 c -0.00212,0.0105532 -0.003137,0.0202628 -0.002255,0.0215776 0.003015,0.004507 0.0964048,0.0589742 0.1021968,0.0596028 0.003182,3.4665e-4 0.007507,-0.007423 0.009609,-0.0172637 z m 0.0880645,-0.003128 c 0.001568,-0.007182 0.002292,-0.0138533 0.001614,-0.0148176 -0.003115,-0.004412 -0.11472307,-0.0675383 -0.11942179,-0.0675383 -0.00292,0 -0.006035,0.006264 -0.006927,0.0139158 -0.00132,0.0113179 0.008522,0.0201077 0.0527168,0.0470849 0.0616775,0.0376503 0.0680578,0.0395413 0.07202,0.0213557 z m 0.0790579,-0.004827 c 0.002143,-0.00984 0.002586,-0.0202244 9.9031e-4,-0.0230769 -0.004605,-0.008192 -0.11931,-0.0699126 -0.12282288,-0.0660887 -0.001736,0.00189 -0.0042,0.0104763 -0.005479,0.019082 -0.002048,0.0138001 0.004679,0.0198396 0.0570177,0.0511833 0.0326371,0.0195458 0.0609297,0.0358191 0.0628722,0.0361647 0.001944,3.4665e-4 0.005287,-0.007423 0.007429,-0.0172637 z m 0.0926081,-0.0108755 c 0.001629,-0.0114496 0.001953,-0.0226012 7.0881e-4,-0.0247809 -0.001675,-0.002948 -0.13268691,-0.0811908 -0.13657507,-0.0815644 -3.7922e-4,-4.014e-5 -0.002844,0.0108312 -0.00548,0.0241494 -0.003598,0.0181784 -0.003426,0.0251179 6.9162e-4,0.0278351 0.0318772,0.0210549 0.12454471,0.0740985 0.13027362,0.0745692 0.004384,3.6248e-4 0.008624,-0.007896 0.0103771,-0.020208 z m 0.2559571,-0.0300353 c 0.00296,-0.0114406 0.00287,-0.0244781 -2.638e-4,-0.0389978 l -0.00471,-0.0218118 -0.016785,0.0339649 c -0.00923,0.0186806 -0.021829,0.0437923 -0.027993,0.0558042 l -0.011207,0.0218394 0.028255,-0.0168062 c 0.018716,-0.011133 0.029756,-0.0226082 0.032701,-0.0339924 z M 0.5960593,0.831129 c 0,-0.0371193 -0.006569,-0.0416804 -0.0123392,-0.008567 -0.004955,0.028427 -0.003636,0.0359286 0.006322,0.0359286 0.003852,0 0.006021,-0.009861 0.006021,-0.0273619 z M 0.6176517,0.81413767 C 0.6096827,0.78333507 0.600574,0.79012501 0.600574,0.82686703 l 0,0.0319905 0.0110301,-0.0127296 c 0.009576,-0.011051 0.0103724,-0.0152694 0.006052,-0.0319905 z M 0.5785822,0.79387913 C 0.5770152,0.79114213 0.549332,0.77362123 0.5170522,0.75493923 0.484772,0.73625713 0.4561861,0.71957203 0.4535277,0.71786143 c -0.002658,-0.001707 -0.007009,0.009382 -0.00967,0.0246489 l -0.004837,0.0277582 0.0661039,0.0389321 0.0661041,0.0389321 0.005094,-0.0246411 c 0.002802,-0.0135525 0.003821,-0.0268786 0.002254,-0.0296133 z m 0.1286061,-0.0331353 c 0.028221,-0.0643217 0.031553,-0.0754086 0.027439,-0.0913113 -0.00258,-0.009955 -0.00595,-0.0171133 -0.0075,-0.0159064 -0.00155,0.001207 -0.018249,0.0328814 -0.037104,0.0703894 -0.03421,0.0680469 -0.034268,0.0682415 -0.026959,0.0894578 0.00403,0.0116945 0.00838,0.0211093 0.00967,0.0209224 0.00129,-1.8592e-4 0.016795,-0.0332849 0.034462,-0.0735511 z m 0.084623,0.050463 c 0.00607,-0.00407 0.012323,-0.0110321 0.013881,-0.0154739 0.00342,-0.009748 -0.00158,-0.048567 -0.00625,-0.048567 -0.00183,0 -0.012152,0.0184514 -0.022949,0.0410032 -0.018643,0.0389414 -0.019029,0.0407373 -0.00768,0.0357198 0.00658,-0.002907 0.016923,-0.008613 0.023,-0.0126814 z M 0.12276621,0.79179564 c 0.00122,-0.0121431 -0.00424,-0.0184517 -0.0285877,-0.0330466 -0.0538431,-0.0322742 -0.0497749,-0.0317377 -0.0481246,-0.006346 0.00132,0.0203178 0.004879,0.0247131 0.0353286,0.0436399 0.0349059,0.0216969 0.0388206,0.0212948 0.0413837,-0.004246 z M 0.643464,0.796211 C 0.650914,0.7840827 0.664596,0.7591883 0.67387,0.740892 0.689101,0.7108421 0.690223,0.7056574 0.685467,0.6872766 L 0.680207,0.6669285 0.64755,0.7240645 c -0.029755,0.0520579 -0.0322265,0.0588043 -0.027804,0.075901 0.00606,0.0234293 0.00713,0.02326 0.023721,-0.003752 z M 0.19617247,0.789567 c 0.001582,-0.007292 0.001302,-0.0157914 -6.419e-4,-0.0188881 -0.004698,-0.007484 -0.11878984,-0.0736747 -0.12077115,-0.070065 -8.5909e-4,0.001545 -0.002247,0.009781 -0.003101,0.0182969 -0.001352,0.0133854 0.006396,0.0200357 0.0571334,0.0490791 0.0696263,0.0398548 0.0638094,0.0379919 0.0673856,0.0215776 z M 0.7795564,0.67725946 c 0.016538,-0.0300211 0.02256,-0.0466307 0.020919,-0.0576926 -0.00127,-0.008544 -0.00391,-0.0155345 -0.00587,-0.0155345 -0.00492,0 -0.058486,0.10271508 -0.07359,0.14110086 -0.00831,0.0211135 -0.011288,0.0362023 -0.00912,0.0461588 0.00276,0.0126602 0.00619,0.008546 0.02383,-0.0285412 0.011333,-0.0238335 0.031059,-0.0623043 0.043832,-0.0854915 z m -0.50444556,0.0997247 c 0.003643,-0.017078 0.001022,-0.0195574 -0.0577082,-0.0545141 l -0.0615275,-0.0366228 -0.005997,0.019434 c -0.003295,0.0106887 -0.005331,0.0205507 -0.004516,0.0219155 0.002482,0.004155 0.11393598,0.0663405 0.12013869,0.0670325 0.003182,3.5418e-4 0.007507,-0.007405 0.009609,-0.0172452 z M 0.83965,0.63782745 c 1.121e-4,-0.009841 -9.108e-4,-0.0178916 -0.00228,-0.0178916 -0.012734,0 -0.057962,0.0630372 -0.074399,0.10369562 -0.00737,0.018244 -0.008,0.0257246 -0.00387,0.0466032 l 0.00492,0.0248703 0.037707,-0.0696932 c 0.023751,-0.0438973 0.037783,-0.0763151 0.037911,-0.0875845 z m 0.00766,0.14057333 c 0.012832,-0.008449 0.015861,-0.0183308 0.011695,-0.0381683 -0.00339,-0.0161159 -0.00365,-0.0160594 -0.018096,0.003858 -0.00806,0.0111147 -0.016855,0.027428 -0.019535,0.0362503 -0.00517,0.0170215 -0.00256,0.0168269 0.025937,-0.001939 z m -0.49546116,-0.0207644 0.003825,-0.0234955 -0.0571946,-0.0332468 c -0.0314573,-0.0182856 -0.058438,-0.0332468 -0.0599575,-0.0332468 -0.001519,0 -0.004846,0.0105236 -0.007391,0.0233856 l -0.004628,0.0233856 0.059492,0.0351647 c 0.0327207,0.0193409 0.0600627,0.0343514 0.0607599,0.0333575 6.9163e-4,-9.9428e-4 0.002988,-0.0123802 0.005094,-0.0253028 z m 0.24334852,3.1778e-4 c -0.001366,-0.0284241 -0.001984,-0.0292733 -0.0322528,-0.0451184 -0.0263117,-0.0137719 -0.0314639,-0.0144822 -0.0350153,-0.004825 -0.00956,0.025999 -0.002424,0.0415061 0.0274911,0.0597635 0.0404022,0.0246545 0.0414319,0.0244006 0.0397762,-0.00982 z m 0.046263,-0.0407704 c 0.00434,-0.0133191 0.00455,-0.0203862 8.259e-4,-0.0269541 -0.00373,-0.006567 -0.00877,-0.0034 -0.019217,0.0120882 -0.007789,0.011545 -0.0160395,0.0209901 -0.0183312,0.0209901 -0.002292,0 -0.004168,0.0147284 -0.004168,0.0327298 l 0,0.0327298 0.0175069,-0.0267658 c 0.00963,-0.0147206 0.020152,-0.0348889 0.023385,-0.0448172 z m 0.2167897,-0.005996 c 0.00597,-0.003336 0.00869,-0.0121467 0.00869,-0.0281751 0,-0.0295478 -0.010501,-0.0308612 -0.031244,-0.003908 -0.021842,0.0283831 -0.0286,0.0486587 -0.025229,0.0756926 l 0.00289,0.0231464 0.018107,-0.0309508 c 0.00996,-0.017023 0.022016,-0.0331353 0.026793,-0.0358059 z m -0.42063258,0.0267333 c 0.002735,-0.0138297 0.004461,-0.025865 0.003829,-0.0267446 -0.003558,-0.004952 -0.13060513,-0.0765165 -0.13168886,-0.0741771 -7.097e-4,0.001545 -0.003512,0.0143411 -0.006209,0.0284298 l -0.004905,0.0256153 0.0617973,0.0352126 c 0.0339883,0.019367 0.0641381,0.0355718 0.0669991,0.0360112 0.002861,4.3833e-4 0.007441,-0.0105172 0.0101778,-0.0243469 z m 0.46887178,0.00584 c 0.00614,-0.0108128 -0.010612,-0.0284065 -0.027044,-0.0284065 -0.014549,0 -0.017465,0.002406 -0.015248,0.0125784 0.0015,0.006919 0.00274,0.0150712 0.00274,0.0181184 0,0.006243 0.035887,0.004169 0.039553,-0.002293 z M 0.51958741,0.71803591 c 0.002516,-0.0116459 0.002972,-0.0237354 0.001019,-0.0268652 -0.001953,-0.003131 -0.0326372,-0.0218478 -0.0681824,-0.0415964 l -0.0646284,-0.0359049 -0.004222,0.0195534 c -0.002323,0.0107543 -0.004222,0.0220996 -0.004222,0.0252124 0,0.00558 0.11872794,0.0787829 0.1299097,0.0800985 0.003165,3.7314e-4 0.007812,-0.008851 0.0103261,-0.0204978 z m 0.41507399,0.004726 c 0,-0.008616 -0.035373,-0.0512835 -0.048533,-0.0585397 -0.00866,-0.004775 -0.010159,-0.002694 -0.010159,0.0141824 0,0.015359 0.00293,0.0209153 0.013076,0.0248422 0.00719,0.002779 0.01645,0.011624 0.020573,0.0196485 0.00726,0.0141246 0.025043,0.01403 0.025043,-1.3564e-4 z m -0.86724172,-0.026373 c -0.001003,-0.001601 -0.006409,-0.005389 -0.0119968,-0.008412 -0.008209,-0.004444 -0.0101583,-0.002427 -0.0101583,0.0105447 0,0.008824 0.003553,0.0196089 0.007901,0.0239654 0.006132,0.006144 0.008818,0.004437 0.0119968,-0.007633 0.002252,-0.008555 0.003268,-0.0168636 0.002255,-0.0184655 z m 0.0753683,0.006673 c 0.001582,-0.0111372 0.002133,-0.0213844 0.00122,-0.0227718 -0.00339,-0.005114 -0.0876753,-0.0524 -0.0934048,-0.0524 -0.003774,0 -0.005413,0.007723 -0.004502,0.0212475 0.001284,0.0191772 0.005608,0.023765 0.0443184,0.0470863 0.0235895,0.0142113 0.0443749,0.0261203 0.0461896,0.0264631 0.001817,3.4296e-4 0.004599,-0.008488 0.006187,-0.0196251 z m 0.80541976,-0.006934 c 0,-0.0225652 -0.00272,-0.0301488 -0.01604,-0.0446423 -0.017494,-0.0190432 -0.017768,-0.0189896 -0.021539,0.004232 -0.00196,0.0120578 0.002,0.0220418 0.016369,0.0412895 0.010423,0.0139624 0.01946,0.025592 0.02008,0.0258431 6.283e-4,2.5125e-4 0.00112,-0.0117749 0.00112,-0.0267255 z m -0.35251427,-0.0185403 -3.627e-4,-0.0377711 -0.006198,0.0238553 c -0.008223,0.0316308 -0.008159,0.0516869 1.6418e-4,0.0516869 0.005118,0 0.006684,-0.009211 0.006407,-0.0377711 z m 0.0372468,-0.007891 c 0.033625,-0.05649 0.036937,-0.0667548 0.030084,-0.0932457 -0.00293,-0.0112968 -0.00672,-0.0195526 -0.00844,-0.018346 -0.00172,0.001207 -0.014577,0.0207165 -0.028568,0.0433552 -0.0237922,0.0384995 -0.0254371,0.0435132 -0.0254371,0.0775302 0,0.0200032 0.001173,0.0363688 0.002593,0.0363688 0.00142,0 0.0148223,-0.0205478 0.029772,-0.0456622 z m -0.40779395,0.0140138 0.004691,-0.0236973 -0.0638539,-0.0356571 c -0.0351197,-0.0196111 -0.0644372,-0.0346295 -0.0651501,-0.0333738 -7.0971e-4,0.001256 -0.002486,0.0127746 -0.003942,0.0255978 l -0.002649,0.0233146 0.0556482,0.0330732 c 0.0306065,0.0181904 0.0590048,0.0333808 0.0631073,0.0337561 0.004407,4.0208e-4 0.00938,-0.00902 0.0121501,-0.0230145 z m 0.35677409,-0.0153662 c 0.002833,-0.014923 0.004631,-0.0279712 0.003998,-0.0289961 -0.001899,-0.003076 -0.10394288,-0.0591725 -0.1076401,-0.0591725 -0.005449,0 -0.0145372,0.0564304 -0.0102506,0.0636427 0.006138,0.0103275 0.10289275,0.0619474 0.10596674,0.056535 0.001513,-0.002681 0.005087,-0.0170865 0.007921,-0.0320095 z M 0.6862256,0.63609009 c 0.025557,-0.0499343 0.031797,-0.0668794 0.029441,-0.0799557 -0.00165,-0.009126 -0.00471,-0.0155015 -0.0068,-0.0141673 -0.0021,0.001333 -0.017972,0.0310522 -0.035279,0.0660402 -0.025121,0.0507871 -0.030616,0.0664205 -0.027249,0.0775301 0.00232,0.007653 0.00495,0.0139158 0.00584,0.0139158 8.877e-4,0 0.016214,-0.028513 0.034051,-0.063363 z m 0.053611,-0.0223167 c 0.023971,-0.0427503 0.047145,-0.0812173 0.051499,-0.085482 0.00613,-0.006001 0.00712,-0.0127999 0.00442,-0.0300793 l -0.00349,-0.0223253 -0.017966,0.0234414 c -0.00988,0.0128929 -0.03398,0.0521208 -0.053553,0.0871733 -0.030962,0.0554503 -0.035204,0.066413 -0.032646,0.0843657 0.00161,0.011349 0.00411,0.0206338 0.00555,0.0206338 0.00144,0 0.022218,-0.0349778 0.04619,-0.0777279 z m -0.44044269,0.0430134 c 0.003115,-0.0164721 0.002766,-0.0244704 -0.001271,-0.0288608 -0.009543,-0.0103878 -0.11723287,-0.0666318 -0.11959937,-0.0624639 -0.001239,0.00217 -0.003431,0.0144372 -0.004887,0.0272605 l -0.002649,0.0233148 0.0556482,0.0331636 c 0.0306065,0.0182398 0.0585274,0.0325357 0.0620463,0.0317683 0.003517,-7.6886e-4 0.008338,-0.0116494 0.0107089,-0.0241826 z M 0.8189126,0.5674567 c 0.017187,-0.0124803 0.020333,-0.0178815 0.018059,-0.0310154 -0.00152,-0.008747 -0.00347,-0.017315 -0.00435,-0.0190396 -0.00329,-0.006471 -0.042444,0.0247734 -0.057567,0.0459419 -0.027759,0.0388549 -0.040316,0.0704004 -0.037076,0.0931405 0.00287,0.020138 0.00322,0.0198452 0.031512,-0.026777 0.015736,-0.0259259 0.037975,-0.0539385 0.049422,-0.06225 z M 0.37689525,0.627887 c 0.002627,-0.0193647 0.001054,-0.0207831 -0.0607629,-0.0547646 -0.0349018,-0.0191868 -0.064248,-0.0334929 -0.0652143,-0.0317909 -9.7179e-4,0.001703 -0.003033,0.0120714 -0.0046,0.0230433 -0.002766,0.0194084 -0.001152,0.0209415 0.0594531,0.0565739 0.0342627,0.0201436 0.0636755,0.0344183 0.0653622,0.0317214 0.001686,-0.002694 0.004281,-0.0138495 0.00576,-0.0247829 z M 0.9067231,0.6417344 c 0.00192,-0.0175492 -0.015442,-0.0297512 -0.042332,-0.0297512 -0.018163,0 -0.020022,0.001785 -0.020022,0.0192169 0,0.0175259 0.00182,0.0192168 0.020692,0.0192168 0.011381,0 0.021948,0.002208 0.023483,0.004916 0.00512,0.009011 0.016651,3.8401e-4 0.018179,-0.0135962 z m 0.0414844,-0.0132627 c 0,-0.0202534 -0.00307,-0.0258414 -0.023703,-0.0430984 -0.039684,-0.0331979 -0.044018,-0.0338862 -0.044018,-0.006992 0,0.0198119 0.00243,0.024439 0.01693,0.0322333 0.00931,0.005005 0.023025,0.0160451 0.030474,0.0245327 0.018352,0.0209103 0.020317,0.0202649 0.020317,-0.006673 z M 0.09263895,0.60345444 c 0.002599,-0.0185651 0.001121,-0.0213748 -0.0159522,-0.0303865 -0.0103495,-0.005461 -0.0216529,-0.0118468 -0.0251192,-0.0141895 -0.004657,-0.003148 -0.006302,0.00305 -0.006302,0.0237598 0,0.0258438 0.001483,0.0289199 0.0191875,0.0396159 0.0212312,0.0128316 0.0240157,0.0109743 0.0281858,-0.0188 z m 0.36972853,0.0132436 c 0.001501,-0.0105275 0.003915,-0.024596 0.005368,-0.0312634 0.002093,-0.009603 -0.009507,-0.0188477 -0.0557969,-0.0444737 -0.0321408,-0.0177931 -0.0624384,-0.032351 -0.0673276,-0.032351 -0.006316,0 -0.0103726,0.008512 -0.0140147,0.029415 -0.00282,0.0161782 -0.004684,0.0297583 -0.004145,0.0301779 0.0108491,0.008428 0.1204882,0.0671304 0.12577585,0.0673409 0.004145,1.645e-4 0.008615,-0.008145 0.0101384,-0.0188456 z m 0.13285009,-0.0146545 c -0.00122,-0.0224374 -0.003921,-0.0273689 -0.0204261,-0.0374189 -0.0215314,-0.01311 -0.0239165,-0.0112092 -0.025211,0.0200858 -8.1047e-4,0.0196665 0.00125,0.0235556 0.0171341,0.0321628 0.028009,0.015186 0.0300869,0.0141049 0.028503,-0.0148299 z m 0.0275783,-0.0309799 c -0.008734,-0.0287418 -0.0222208,-0.009276 -0.0222208,0.03207 l 0,0.0277286 0.0133503,-0.0225277 c 0.0106627,-0.0179916 0.012448,-0.0254966 0.00887,-0.0372709 z m 0.1965531,0.0494114 c 0.00144,-0.004077 0.013739,-0.0118025 0.027355,-0.017169 0.013614,-0.005366 0.024754,-0.0124732 0.024754,-0.0157933 0,-0.003318 0.00124,-0.0116961 0.00274,-0.018614 0.00393,-0.0180246 -0.014606,-0.0164358 -0.045461,0.003897 -0.025366,0.0167164 -0.027141,0.0201064 -0.022259,0.0425133 0.00306,0.0140539 0.00893,0.016408 0.012872,0.005166 z M 0.16965011,0.5569763 C 0.16365711,0.5398958 0.12630001,0.5309246 0.08963931,0.537761 l -0.0376019,0.007012 0.0541765,0.0325379 0.0541767,0.0325378 0.005757,-0.0232233 c 0.003169,-0.0127731 0.004742,-0.0261148 0.003504,-0.0296492 z m 0.37251315,0.017929 c 0.002516,-0.0116461 0.002972,-0.0235189 0.001019,-0.0263843 -0.0107514,-0.0157616 -0.0734905,-0.0409257 -0.0961054,-0.0385471 -0.0410171,0.004314 -0.0326575,0.0213349 0.0270883,0.055155 0.0285554,0.0161644 0.0545089,0.0297409 0.0576742,0.0301702 0.003165,4.2963e-4 0.007812,-0.008748 0.0103261,-0.0203939 z M 0.9482077,0.5687843 c 0,-0.0206423 -0.00228,-0.0285722 -0.00937,-0.0325332 -0.010681,-0.00597 -0.011088,-0.005528 -0.014849,0.0161039 -0.00205,0.0117715 4.451e-4,0.0193443 0.0096,0.0290922 0.0068,0.007249 0.012872,0.0135056 0.013492,0.0139054 6.283e-4,3.9956e-4 0.00112,-0.011556 0.00112,-0.0265685 z M 0.740531,0.46245597 c 0,-0.0332635 -0.035924,-0.009628 -0.060463,0.0397806 -0.01978,0.0398264 -0.020104,0.0413474 -0.013548,0.0636759 l 0.00672,0.0228749 0.033648,-0.0588806 c 0.018506,-0.0323843 0.033648,-0.0627372 0.033648,-0.0674509 z m -0.49946375,0.0998286 c 0.004231,-0.0278084 0.003923,-0.0286125 -0.0147502,-0.0384657 -0.011533,-0.006086 -0.0282528,-0.007196 -0.0485332,-0.003224 l -0.0309383,0.00606 0.0428899,0.0261359 c 0.0522627,0.0318475 0.0480483,0.0310683 0.0513311,0.009493 z M 0.6611367,0.52317407 c 0.013861,-0.0269777 0.024632,-0.050054 0.023935,-0.0512808 -6.926e-4,-0.001228 -0.00945,0.001427 -0.019442,0.005895 -0.021933,0.009805 -0.044607,0.0542092 -0.040192,0.0787086 0.00157,0.00865 0.00456,0.0157272 0.00667,0.0157272 0.00211,0 0.015172,-0.0220728 0.029033,-0.0490503 z m -0.33925519,0.0271828 c 0.001252,-0.007654 0.003738,-0.0201775 0.005524,-0.0278312 0.002993,-0.0127926 -8.9075e-4,-0.0138652 -0.0480209,-0.013291 l -0.0512734,6.2307e-4 0.0428899,0.0265825 c 0.0515733,0.0319645 0.0480895,0.0310117 0.0508804,0.0139155 z m 0.27417864,-0.0139155 0,-0.0278312 -0.0413848,0 c -0.0227618,0 -0.0398881,0.002684 -0.0380588,0.005964 0.003072,0.005513 0.0684066,0.0476676 0.0760582,0.0490757 0.00186,3.4291e-4 0.003389,-0.0119007 0.003389,-0.0272081 z M 0.800136,0.45855006 c 0.013154,-0.0108861 0.027473,-0.0218551 0.031818,-0.024376 0.00755,-0.004381 0.011553,-0.0369913 0.00452,-0.0367951 -0.00729,2.0475e-4 -0.050327,0.022334 -0.056033,0.0288187 -0.00332,0.003778 -0.00909,0.007235 -0.012818,0.007681 -0.00373,4.4557e-4 -0.011279,0.00134 -0.016788,0.001989 -0.00705,8.2952e-4 -0.00922,0.004816 -0.00734,0.0134482 0.00236,0.0108534 0.00366,0.010706 0.011172,-0.001275 0.00468,-0.007451 0.00952,-0.0117486 0.01077,-0.009549 0.00125,0.002199 -0.00986,0.0225824 -0.024688,0.0452964 -0.024889,0.0381282 -0.026573,0.0427848 -0.021948,0.0606641 l 0.00501,0.0193661 0.026208,-0.0427363 c 0.014407,-0.023506 0.0369635,-0.0516442 0.0501185,-0.0625301 z m 0.1174647,0.0645369 c -0.00276,-0.004873 -0.020375,-0.0105941 -0.039131,-0.0127139 l -0.034101,-0.003855 0,0.0209252 c 0,0.0201082 0.00101,0.0209469 0.02596,0.0214841 0.014278,3.065e-4 0.030023,0.003449 0.034989,0.006981 0.010964,0.007798 0.02065,-0.0180844 0.012284,-0.0328215 z m -0.2893479,-0.0100156 0.00995,-0.0222818 -0.00979,0.004934 c -0.00538,0.002713 -0.0138482,0.006964 -0.0188144,0.009447 -0.006445,0.00322 -0.009029,0.0113168 -0.009029,0.0282822 0,0.0220341 6.4281e-4,0.0229716 0.008864,0.012836 0.004878,-0.006013 0.0133418,-0.0209614 0.0188145,-0.0332164 z m -0.57990327,0.002 c -0.001433,-0.006343 -0.002509,-0.004459 -0.002725,0.004804 -1.9787e-4,0.008383 8.7221e-4,0.0130791 0.002369,0.0104368 0.001501,-0.002641 0.001659,-0.009501 3.6276e-4,-0.015241 z m 0.0194894,0.0112631 c 0,-0.003373 0.010996,-0.005652 0.0244357,-0.005065 0.0134393,5.8685e-4 0.0270132,-0.001739 0.030164,-0.005168 0.003151,-0.003431 -0.0108934,-0.006236 -0.0312077,-0.006236 -0.02891,0 -0.036936,0.002456 -0.036936,0.0113001 0,0.006215 0.003047,0.0113001 0.006772,0.0113001 0.003725,0 0.006772,-0.00276 0.006772,-0.006131 z M 0.9482077,0.50822158 c 0,-0.0208151 -0.00271,-0.0264141 -0.019187,-0.0395845 -0.019533,-0.0156159 -0.039454,-0.0205129 -0.039565,-0.009726 -3.64e-5,0.003278 -0.00128,0.0140151 -0.00279,0.0238554 -0.00225,0.0147987 -8.722e-4,0.0179663 0.00796,0.0183239 0.00875,3.5421e-4 0.020397,0.007139 0.052446,0.0305503 6.283e-4,4.5282e-4 0.00112,-0.0100854 0.00112,-0.0234197 z m -0.53273589,0.00834 c 0,-0.004373 -0.007619,-0.0077 -0.0169304,-0.007392 -0.0135812,4.4919e-4 -0.0151439,0.001908 -0.007901,0.007392 0.0125456,0.009496 0.0248312,0.009496 0.0248312,0 z m -0.25856138,-0.004804 c -0.001501,-0.002641 -0.005393,-0.002923 -0.008653,-6.2671e-4 -0.003603,0.00254 -0.002532,0.004423 0.002725,0.004804 0.00476,3.4667e-4 0.007426,-0.001532 0.005926,-0.004177 z M 0.8466267,0.5001082 c 0.014899,-0.003895 0.028381,-0.007154 0.029962,-0.007242 0.00158,-8.76e-5 0.00377,-0.0108948 0.00486,-0.0240152 0.00199,-0.0238376 0.00197,-0.0238554 -0.020933,-0.0238112 -0.024923,4.746e-5 -0.054937,0.0121221 -0.059013,0.0237399 -0.0014,0.004011 -0.00124,0.0166154 3.957e-4,0.0280112 0.00215,0.0150733 0.00496,0.0193132 0.010297,0.0155591 0.00404,-0.002836 0.019534,-0.008347 0.034432,-0.012242 z M 0.05880955,0.46421257 c 0,-0.0192592 -0.001831,-0.0274215 -0.005644,-0.0251846 -0.0106081,0.006221 -0.009736,0.0536785 9.9032e-4,0.0536785 0.002559,0 0.004656,-0.0128223 0.004656,-0.028494 z m 0.13544137,6.6293e-4 0,-0.0278312 -0.0632059,0 -0.0632061,0 0,0.0278312 0,0.0278312 0.0632061,0 0.0632059,0 0,-0.0278312 z m 0.13092667,0 0,-0.0278312 -0.0632059,0 -0.0632061,0 0,0.0278312 0,0.0278312 0.0632061,0 0.0632059,0 0,-0.0278312 z m 0.13092663,0 0,-0.0278312 -0.063206,0 -0.0632059,0 0,0.0278312 0,0.0278312 0.0632059,0 0.063206,0 0,-0.0278312 z m 0.13092655,0 0,-0.0278312 -0.0632057,0 -0.0632059,0 0,0.0278312 0,0.0278312 0.0632059,0 0.0632057,0 0,-0.0278312 z m 0.0352746,-0.00994 c 7.719e-4,-0.0142137 -5.772e-4,-0.0258435 -0.00302,-0.0258435 -0.0122852,0 -0.0187141,0.011411 -0.0187141,0.033211 0,0.0198819 0.001582,0.0231613 0.0101579,0.0210168 0.007786,-0.001949 0.0104882,-0.008577 0.0115727,-0.0283843 z m 0.055605,-0.003235 c 0.033751,-0.0162916 0.035532,-0.0182844 0.035532,-0.039759 0,-0.0270555 -0.00104,-0.027187 -0.045968,-0.005833 -0.033715,0.0160228 -0.035296,0.0178047 -0.035296,0.039759 0,0.0275181 6.428e-4,0.0275996 0.045733,0.005833 z m 0.270297,-0.002728 c 0,-0.0203021 -0.00616,-0.0265324 -0.011421,-0.0115468 -0.00376,0.0107032 7.096e-4,0.0314265 0.00676,0.0314265 0.00255,0 0.00465,-0.008946 0.00465,-0.0198798 z M 0.9300685,0.43730781 c 0.0043,-0.0141514 0.00249,-0.0167628 -0.019029,-0.0274203 -0.01308,-0.006479 -0.033432,-0.0141598 -0.045227,-0.017069 -0.021296,-0.005253 -0.021444,-0.005132 -0.021407,0.0174808 3.66e-5,0.0221732 7.278e-4,0.022823 0.02596,0.0247813 0.020573,0.001598 0.041159,0.008149 0.05398,0.0171853 5.289e-4,3.7674e-4 0.00311,-0.006355 0.00572,-0.0149574 z m -0.80805367,-0.0360456 0,-0.0278312 -0.0383749,0 -0.0383749,0 0,0.0278312 0,0.0278314 0.0383749,0 0.0383749,0 0,-0.0278314 z m 0.13092667,0 0,-0.0278312 -0.0609486,0 -0.0609485,0 0,0.0278312 0,0.0278314 0.0609485,0 0.0609486,0 0,-0.0278314 z m 0.13092667,0 0,-0.0278312 -0.0609486,0 -0.0609485,0 0,0.0278312 0,0.0278314 0.0609485,0 0.0609486,0 0,-0.0278314 z m 0.13092667,0 0,-0.0278312 -0.0609487,0 -0.0609485,0 0,0.0278312 0,0.0278314 0.0609485,0 0.0609487,0 0,-0.0278314 z m 0.0812647,0 0,-0.0278312 -0.0361175,0 -0.0361175,0 0,0.0278312 0,0.0278314 0.0361175,0 0.0361175,0 0,-0.0278314 z m 0.0623636,-0.0266064 c 0.00164,-0.0290813 -1.65e-5,-0.0297062 -0.033451,-0.0125887 -0.0231346,0.0118453 -0.0243974,0.0138454 -0.0243974,0.0386352 l 0,0.0261431 0.0282167,-0.0135548 c 0.026419,-0.0126911 0.028307,-0.0151527 0.029631,-0.0386352 z m 0.1328979,0.0222282 0.057562,-0.0269372 0,-0.0254765 0,-0.0254765 -0.030474,0.0149817 c -0.016761,0.00824 -0.044696,0.0217276 -0.062077,0.0299732 -0.030389,0.0144155 -0.031659,0.0159964 -0.033063,0.0411433 -0.00106,0.0190092 1.649e-4,0.0251381 0.00452,0.0224408 0.00329,-0.00204 0.031878,-0.0158326 0.063538,-0.0306483 z m 0.1552603,-0.0114946 c -0.00296,-0.0135602 -0.031039,-0.0279637 -0.043412,-0.0222648 -0.016501,0.0076 -0.00959,0.0238692 0.016821,0.0395781 0.026714,0.0158906 0.032942,0.0118356 0.026591,-0.0173136 z M 0.7868066,0.33639239 c 0.00605,-0.006542 0.00391,-0.0524832 -0.00225,-0.0483511 -0.0031,0.002079 -0.031546,0.0155214 -0.063206,0.0298695 l -0.057563,0.0260876 0,0.0260333 0,0.0260333 0.05982,-0.0280069 c 0.032901,-0.0154037 0.061344,-0.0296533 0.063206,-0.031666 z m 0.101487,0.040186 c -0.0015,-0.002641 -0.0054,-0.002923 -0.00865,-6.267e-4 -0.0036,0.00254 -0.00253,0.004423 0.00272,0.004804 0.00475,3.4668e-4 0.00743,-0.001532 0.00593,-0.004177 z M 0.06332416,0.33764614 c 0,-0.0225299 -0.001717,-0.0278314 -0.009029,-0.0278314 -0.006905,0 -0.009029,0.005301 -0.009029,0.02253 0,0.0248965 0.002993,0.0331327 0.0120393,0.0331327 0.003869,0 0.00602,-0.00994 0.00602,-0.0278312 z m 0.13092667,0 0,-0.0278314 -0.0632059,0 -0.0632061,0 0,0.0278314 0,0.0278312 0.0632061,0 0.0632059,0 0,-0.0278312 z m 0.13092667,0 0,-0.0278314 -0.0632059,0 -0.0632061,0 0,0.0278314 0,0.0278312 0.0632061,0 0.0632059,0 0,-0.0278312 z m 0.13092663,0 0,-0.0278314 -0.063206,0 -0.0632059,0 0,0.0278314 0,0.0278312 0.0632059,0 0.063206,0 0,-0.0278312 z m 0.13092648,0 0,-0.0278314 -0.0632057,0 -0.0632059,0 0,0.0278314 0,0.0278312 0.0632059,0 0.0632057,0 0,-0.0278312 z m 0.32167329,0.003387 c 0.039388,-0.0184524 0.039504,-0.0185818 0.039504,-0.044313 l 0,-0.0258066 -0.021445,0.0107861 c -0.011795,0.005932 -0.033127,0.0165745 -0.047405,0.0236489 -0.024424,0.0121018 -0.02596,0.0143158 -0.02596,0.0374236 0,0.0195743 0.0016,0.0237696 0.0079,0.020664 0.00435,-0.002144 0.025677,-0.0122246 0.047404,-0.0224032 z m 0.039504,0.0116663 c 0,-0.008386 -0.00245,-0.011119 -0.00714,-0.007951 -0.00393,0.002655 -0.00951,0.005078 -0.012416,0.005386 -0.0029,3.0647e-4 -0.0012,0.003634 0.00376,0.007392 0.013312,0.0100753 0.015802,0.009315 0.015802,-0.004827 z m -0.325902,-0.0249926 c 0.00127,-0.0230835 1.813e-4,-0.0258435 -0.0101578,-0.0258435 -0.010259,0 -0.0115727,0.00322 -0.0115727,0.0283843 0,0.0248875 0.00125,0.0280713 0.0101579,0.0258435 0.007785,-0.001949 0.0104882,-0.008577 0.0115727,-0.0283843 z m 0.030497,0.0105039 c 0.012246,-0.006249 0.030899,-0.0153338 0.041452,-0.0201861 0.017782,-0.008176 0.019187,-0.0107832 0.019187,-0.0355924 l 0,-0.0267701 -0.02596,0.0116714 c -0.064999,0.0292233 -0.05982,0.0244861 -0.05982,0.0547158 0,0.0151386 6.428e-4,0.0275251 0.00144,0.0275251 7.95e-4,0 0.011458,-0.005113 0.023702,-0.0113638 z M 0.8533984,0.3058399 c 0.023589,-0.0113631 0.046445,-0.0225151 0.050791,-0.0247817 0.00521,-0.002717 0.0079,-0.0121101 0.0079,-0.0275924 0,-0.0203778 -0.00134,-0.0228755 -0.010159,-0.0189538 -0.00559,0.002485 -0.03149,0.014531 -0.057562,0.0267701 -0.047131,0.0221242 -0.047413,0.0224016 -0.04885,0.0480335 -0.00122,0.0217667 -1.649e-4,0.0251113 0.00677,0.0214828 0.00452,-0.002366 0.027517,-0.0135953 0.051107,-0.0249585 z M 0.8443584,0.223798 c 8.2e-6,-0.0213972 -0.00148,-0.0256012 -0.00789,-0.0222583 -0.00435,0.002268 -0.025169,0.0116577 -0.046275,0.020869 -0.077977,0.0340315 -0.072235,0.029349 -0.072235,0.0589121 l 0,0.0265546 0.063193,-0.0288491 0.063193,-0.0288491 1.42e-5,-0.0263792 z m -0.71782554,0.0422828 0,-0.0278312 -0.0406324,0 -0.0406324,0 0,0.0278312 0,0.0278312 0.0406324,0 0.0406324,0 0,-0.0278312 z m 0.13092648,0 0,-0.0278312 -0.0632059,0 -0.0632059,0 0,0.0278312 0,0.0278312 0.0632059,0 0.0632059,0 0,-0.0278312 z m 0.13092667,0 0,-0.0278312 -0.0632059,0 -0.0632059,0 0,0.0278312 0,0.0278312 0.0632059,0 0.0632059,0 0,-0.0278312 z m 0.13092667,0 0,-0.0278312 -0.0632059,0 -0.0632061,0 0,0.0278312 0,0.0278312 0.0632061,0 0.0632059,0 0,-0.0278312 z m 0.0767498,0 0,-0.0278312 -0.0361175,0 -0.0361175,0 0,0.0278312 0,0.0278312 0.0361175,0 0.0361175,0 0,-0.0278312 z m 0.0352985,0.0155958 c 0.022337,-0.0116834 0.023393,-0.013478 0.023393,-0.039759 0,-0.0151378 -0.0012,-0.0275232 -0.00269,-0.0275232 -0.00148,0 -0.01367,0.005621 -0.027088,0.0124919 -0.0233978,0.0119801 -0.0243974,0.013609 -0.0243974,0.039759 0,0.0313715 -2.3086e-4,0.0312563 0.0307831,0.0150313 z M 0.948207,0.23676409 c 0,-0.0206999 -0.00109,-0.022218 -0.012416,-0.0174461 -0.018057,0.007602 -0.019187,0.009638 -0.019187,0.0345604 0,0.0222021 3.133e-4,0.022476 0.015802,0.0141003 0.01323,-0.007152 0.015802,-0.0122308 0.015802,-0.0312142 z m -0.2144489,-0.001174 0.054176,-0.0251718 0.00142,-0.0305209 c 0.00122,-0.0262988 2.967e-4,-0.0299431 -0.00677,-0.0263455 -0.00451,0.002296 -0.033085,0.0155954 -0.063502,0.0295533 l -0.055305,0.0253783 0,0.0268106 c 0,0.0330516 -5.112e-4,0.0330494 0.069978,2.9518e-4 z m 0.1726877,-0.0140667 0.041762,-0.0188125 0,-0.0265013 c 0,-0.0215287 -0.00148,-0.0257181 -0.0079,-0.0223267 -0.00435,0.002296 -0.025677,0.0119225 -0.047405,0.0213917 l -0.039504,0.0172171 0,0.0277058 c 0,0.0188809 0.0018,0.0265006 0.00564,0.0239225 0.0031,-0.002079 0.024436,-0.0122492 0.047405,-0.0225963 z M 0.7653611,0.14710417 0.9233759,0.07239225 0.6660375,0.07212972 0.40869882,0.0718672 0.24616931,0.14656849 0.08363976,0.22126991 0.34549292,0.22154374 0.60734626,0.22181756 0.7653611,0.14710564 Z m 0.071483,0.042981 c 0.078006,-0.0346071 0.07073,-0.0279909 0.07073,-0.0643181 0,-0.0225093 -0.00171,-0.03125119 -0.00564,-0.02873422 -0.0031,0.0019886 -0.028499,0.01398475 -0.056434,0.02665599 l -0.05079,0.0230386 0,0.0298576 c 0,0.0164217 0.00119,0.0298576 0.00263,0.0298576 0.00145,0 0.019226,-0.007361 0.039504,-0.0163572 z m 0.1057195,-0.0471487 c 0.00359,-7.3e-5 0.00564,-0.0120145 0.00564,-0.0328433 0,-0.03006665 -8.259e-4,-0.03234374 -0.010159,-0.02793986 -0.00559,0.0026373 -0.012697,0.004844 -0.015802,0.0049028 -0.00359,7.299e-5 -0.00564,0.01201453 -0.00564,0.03284328 0,0.0300667 8.259e-4,0.0323437 0.010159,0.0279399 0.00559,-0.002637 0.012697,-0.004844 0.015802,-0.004903 z" id="path4587" inkscape:connector-curvature="0" />
</svg>