<?xml version="1.0" encoding="utf-8" standalone="no"?>
<svg xmlns:dc="http://purl.org/dc/elements/1.1/" xmlns:cc="http://creativecommons.org/ns#" xmlns:rdf="http://www.w3.org/1999/02/22-rdf-syntax-ns#" xmlns:svg="http://www.w3.org/2000/svg" xmlns="http://www.w3.org/2000/svg" xmlns:sodipodi="http://sodipodi.sourceforge.net/DTD/sodipodi-0.dtd" xmlns:inkscape="http://www.inkscape.org/namespaces/inkscape" height="1" version="1.1" width="1" id="svg2" inkscape:version="0.91 r13725" sodipodi:docname="disconformity.svg">
  <metadata id="metadata8">
    <rdf:RDF>
      <cc:Work rdf:about="">
        <dc:format>image/svg+xml</dc:format>
        <dc:type rdf:resource="http://purl.org/dc/dcmitype/StillImage" />
        <dc:title></dc:title>
      </cc:Work>
    </rdf:RDF>
  </metadata>
  <defs id="defs6">
    <pattern width="1" height="1" id="disconformity" patternContentUnits="objectBoundingBox">
      <path style="fill:#000000" d="m 0.05744371,0.85403113 c -7.2619e-4,-0.00294 -9.9589e-4,-0.13601874 -6.0615e-4,-0.29573751 l 7.1976e-4,-0.29039787 0.17292826,-0.0692502 0.17292832,-0.0692502 0.26215937,-2.4697e-4 0.26215933,-2.4699e-4 0,0.27944501 0,0.27944499 -0.0421942,0.0214441 C 0.8623311,0.72103002 0.7863378,0.75963486 0.716664,0.79502518 l -0.12667944,0.0643458 -0.26560873,0 c -0.2099378,0 -0.26588585,-0.001119 -0.26693007,-0.00534 z m 0.09833472,-0.020291 0,-0.0170871 -0.045653,0 -0.04565309,0 0,0.0170871 0,0.0170871 0.04565309,0 0.045653,0 0,-0.0170871 z m 0.16047745,0 0,-0.0170871 -0.0774719,0 -0.0774719,0 0,0.0170871 0,0.0170871 0.0774719,0 0.0774719,0 0,-0.0170871 z m 0.1632444,0 0,-0.0170871 -0.0788553,0 -0.0788554,0 0,0.0170871 0,0.0170871 0.0788554,0 0.0788553,0 0,-0.0170871 z m 0.1051404,0 0,-0.0170871 -0.0498033,0 -0.0498034,0 0,0.0170871 0,0.0170871 0.0498034,0 0.0498033,0 0,-0.0170871 z m 0.0590769,-0.0126862 0.0438591,-0.0224868 -0.001694,-0.0130723 c -9.3141e-4,-0.00719 -0.002045,-0.0136156 -0.002475,-0.0142793 -4.3067e-4,-6.637e-4 -0.010066,0.003329 -0.0214144,0.008873 -0.0113479,0.005546 -0.0315274,0.0151938 -0.0448427,0.0214448 l -0.02421,0.0113652 0,0.0172855 c 0,0.0120282 0.001052,0.0166876 0.003459,0.0153212 0.001901,-0.001077 0.0231952,-0.0120834 0.0473177,-0.0244509 z m -0.55434351,-0.0321675 0,-0.0192228 -0.01245062,0 -0.01245063,0 0,0.0192228 0,0.0192228 0.01245063,0 0.01245062,0 0,-0.0192228 z m 0.16324425,0 0,-0.0192228 -0.0788553,0 -0.0788553,0 0,0.0192228 0,0.0192228 0.0788553,0 0.0788553,0 0,-0.0192228 z m 0.16047748,0 0,-0.0192228 -0.0788553,0 -0.0788553,0 0,0.0192228 0,0.0192228 0.0788553,0 0.0788553,0 0,-0.0192228 z m 0.16047761,0 0,-0.0192228 -0.0774719,0 -0.0774719,0 0,0.0192228 0,0.0192228 0.0774719,0 0.0774719,0 0,-0.0192228 z m 0.0110672,0 c 0,-0.0105726 -0.001244,-0.0192228 -0.002766,-0.0192228 -0.001522,0 -0.002766,0.00865 -0.002766,0.0192228 0,0.0105726 0.001244,0.0192228 0.002766,0.0192228 0.001522,0 0.002766,-0.00865 0.002766,-0.0192228 z m 0.0419578,-8.344e-5 0.0267401,-0.0122245 9.5021e-4,-0.0184705 c 5.7423e-4,-0.0111655 -1.5034e-4,-0.0178699 -0.001838,-0.0169525 -0.001535,8.3583e-4 -0.0155475,0.007109 -0.0311398,0.0139442 l -0.0283499,0.0124263 -1.104e-5,0.0186121 c -8.36e-6,0.0130398 0.001025,0.0180547 0.003448,0.0167507 0.001901,-0.00102 0.0154917,-0.007362 0.0301986,-0.0140852 z m 0.13512085,-0.0269741 0.065021,-0.0330381 8.9327e-4,-0.0143162 c 7.1784e-4,-0.0114984 5.009e-5,-0.0138153 -0.003401,-0.0117711 -0.002363,0.001403 -0.0335813,0.0164234 -0.0693745,0.0333866 l -0.0650787,0.0308415 0,0.0141794 c 0,0.008609 0.001359,0.0140966 0.003459,0.0139669 0.001901,-1.1821e-4 0.0327181,-0.0150797 0.0684796,-0.0332506 z m -0.0311273,-0.0220582 0.0477283,-0.0227149 0,-0.0168718 c 0,-0.0116259 -0.001075,-0.016303 -0.003459,-0.0150422 -0.001901,0.001006 -0.0286715,0.013185 -0.0594874,0.0270633 l -0.0560288,0.025233 0,0.0180434 0,0.0180434 0.0117591,-0.005518 c 0.006468,-0.003032 0.0332369,-0.0157391 0.0594874,-0.0282327 z m -0.5748137,0.004257 0,-0.0170871 -0.0456531,0 -0.04565309,0 0,0.0170871 0,0.0170871 0.04565309,0 0.0456531,0 0,-0.0170871 z m 0.16324436,0 0,-0.0170871 -0.0788553,0 -0.0788554,0 0,0.0170871 0,0.0170871 0.0788554,0 0.0788553,0 0,-0.0170871 z m 0.16047748,0 0,-0.0170871 -0.0788553,0 -0.0788554,0 0,0.0170871 0,0.0170871 0.0788554,0 0.0788553,0 0,-0.0170871 z m 0.10514038,0 0,-0.0170871 -0.0498033,0 -0.0498034,0 0,0.0170871 0,0.0170871 0.0498034,0 0.0498033,0 0,-0.0170871 z m 0.0276685,-0.00926 c 0,-0.016932 -0.001503,-0.0184946 -0.0131425,-0.013678 -0.005229,0.00216 -0.006225,0.005511 -0.006225,0.0209009 l 0,0.0183253 0.009684,-0.00459 c 0.008866,-0.004201 0.009684,-0.005971 0.009684,-0.0209588 z m 0.0726218,-0.0168435 0.0601707,-0.0272935 8.33e-6,-0.0163582 c 1.104e-5,-0.0196159 0.006649,-0.0208979 -0.0705465,0.0136298 l -0.0553372,0.0247513 -8.6757e-4,0.0183848 c -6.51e-4,0.0137912 4.071e-5,0.0178592 0.002766,0.0162817 0.002001,-0.001154 0.0307122,-0.0143849 0.0638062,-0.0293959 z m 0.23726586,-0.0490196 c 0,-0.005666 -0.001556,-0.0101628 -0.003458,-0.009983 -0.001902,1.8091e-4 -0.0221346,0.009347 -0.0449614,0.0203731 -0.0414464,0.0200204 -0.041504,0.0200656 -0.0423582,0.0336075 l -8.559e-4,0.0135603 0.0458168,-0.0236244 c 0.0423598,-0.0218422 0.0458167,-0.0244028 0.0458167,-0.0339334 z m -0.83282277,0.008914 0,-0.0405818 -0.01245062,0 -0.01245062,0 0,0.0405818 0,0.0405818 0.01245062,0 0.01245062,0 0,-0.0405818 z m 0.16324421,0.0149515 0,-0.0256304 -0.0109313,0 c -0.0155306,0 -0.0378171,-0.007996 -0.0551258,-0.0197795 -0.0133086,-0.009061 -0.0189014,-0.0101231 -0.053262,-0.0101231 l -0.03839164,0 0,0.0405818 0,0.0405818 0.0788553,0 0.0788552,0 0,-0.0256304 z m 0.1604775,-0.0149515 0,-0.0405818 -0.0410181,0 c -0.036496,0 -0.0432627,0.001176 -0.061376,0.0106901 -0.0111967,0.00588 -0.0282232,0.0128046 -0.0378371,0.0153893 l -0.0174795,0.004696 0,0.0251919 0,0.0251919 0.0788553,0 0.0788553,0 0,-0.0405818 z m 0.16047761,0 0,-0.0405818 -0.0774719,0 -0.0774719,0 0,0.0405818 0,0.0405818 0.0774719,0 0.0774719,0 0,-0.0405818 z m 0.0110672,0 c 0,-0.0242066 -0.001116,-0.0405818 -0.002766,-0.0405818 -0.001649,0 -0.002766,0.0163752 -0.002766,0.0405818 0,0.0242066 0.001116,0.0405818 0.002766,0.0405818 0.001649,0 0.002766,-0.0163752 0.002766,-0.0405818 z m 0.0705547,0.0110564 0.0553372,-0.0249688 8.0074e-4,-0.0368291 c 4.4024e-4,-0.0202562 -1.8136e-4,-0.0368643 -0.001385,-0.0369071 -0.001203,-4.174e-5 -0.0280133,0.0100489 -0.0595843,0.0224267 l -0.0574013,0.0225045 -1.104e-5,0.0395137 c -8.29e-6,0.0288476 9.2245e-4,0.0394754 0.003448,0.0393713 0.001901,-7.997e-5 0.0283601,-0.011378 0.0587956,-0.0251112 z m 0.19091292,-0.003867 0.0608708,-0.0289644 8.74e-4,-0.0161883 c 7.519e-4,-0.0139463 1.7898e-4,-0.015868 -0.004152,-0.0138777 -0.004781,0.002196 -0.10482405,0.0477452 -0.11500602,0.0523579 -0.00355,0.001608 -0.004842,0.00668 -0.004842,0.0189925 0,0.009239 3.1306e-4,0.0167648 6.9213e-4,0.0167223 3.7964e-4,-4.171e-5 0.0280835,-0.0131112 0.0615625,-0.0290416 z m -0.0200598,-0.0315202 0.0491117,-0.0222545 0,-0.0162222 c 0,-0.008922 -3.0936e-4,-0.0161978 -6.9405e-4,-0.0161682 -3.7968e-4,3.025e-5 -0.0280835,0.0122677 -0.0615625,0.0271961 l -0.0608707,0.0271426 -8.4573e-4,0.0175249 -8.4507e-4,0.0175249 0.0132975,-0.006247 c 0.007313,-0.003435 0.0353978,-0.0162591 0.0624091,-0.0284991 z m -0.0463447,-0.0202279 c 0.0273919,-0.0121299 0.0557174,-0.025002 0.0629458,-0.0286046 l 0.0131425,-0.00655 0,-0.0334965 0,-0.0334965 -0.0684796,0.0273418 c -0.0376638,0.015038 -0.0694135,0.0273824 -0.0705549,0.0274322 -0.001139,4.87e-5 -0.002074,0.0172569 -0.002074,0.0382379 l 0,0.0381473 0.007609,-0.003478 c 0.004185,-0.001913 0.0300203,-0.0134031 0.0574122,-0.0255333 z M 0.25085168,0.6436452 c -0.001733,-0.00697 -0.009301,-0.008918 -0.009301,-0.002394 0,0.00221 -0.00467,0.004767 -0.0103758,0.005688 -0.007747,0.001254 -0.006367,0.001855 0.005447,0.002394 0.0130435,5.9323e-4 0.0155428,-4.0793e-4 0.01423,-0.005688 z m 0.0135252,0.003577 c -0.001901,-0.001183 -0.005014,-0.001183 -0.006917,0 -0.001901,0.001183 -3.4455e-4,0.002153 0.003459,0.002153 0.003804,0 0.005361,-9.7041e-4 0.003459,-0.002153 z M 0.92219686,0.635104 c 0,-0.0104428 -0.001253,-0.0149515 -0.004152,-0.0149515 -0.002898,0 -0.004152,0.004512 -0.004152,0.0149515 0,0.0104427 0.001253,0.0149508 0.004152,0.0149508 0.002898,0 0.004152,-0.004512 0.004152,-0.0149508 z m -0.70693105,0.00641 c -9.4125e-4,-0.002352 -0.004438,-0.004137 -0.007772,-0.003974 -0.005845,2.8885e-4 -0.005863,4.3214e-4 -5.2958e-4,0.003974 0.007616,0.00505 0.0103232,0.00505 0.0083,0 z m 0.0691713,0 c 9.4125e-4,-0.002352 -2.3107e-4,-0.004272 -0.002603,-0.004272 -0.002373,0 -0.004313,0.001919 -0.004313,0.004272 0,0.002352 0.001171,0.004272 0.002603,0.004272 0.001433,0 0.003374,-0.001919 0.004313,-0.004272 z M 0.15567968,0.62289708 c -0.002226,-0.003195 -0.0155551,-0.0166473 -0.0296154,-0.0299022 -0.0241599,-0.022777 -0.02655315,-0.0241004 -0.04357795,-0.0241004 l -0.01801397,0 0,0.0299022 0,0.0299022 0.04762946,0 c 0.0402706,0 0.0470034,-8.925e-4 0.0435779,-0.005801 z m 0.0388348,0.00153 c 0,-0.002352 0.005604,-0.004272 0.0124508,-0.004272 0.006849,0 0.0124508,0.001919 0.0124508,0.004272 0,0.002352 0.002492,0.004272 0.005534,0.004272 0.003043,0 0.005534,-0.001919 0.005534,-0.004272 0,-0.002352 0.005603,-0.004272 0.0124508,-0.004272 0.006849,0 0.0124508,0.001919 0.0124508,0.004272 0,0.002352 0.002492,0.004272 0.005534,0.004272 0.003043,0 0.005534,-0.001919 0.005534,-0.004272 0,-0.002352 0.005603,-0.004272 0.0124508,-0.004272 0.006848,0 0.0124508,0.001919 0.0124508,0.004272 0,0.002352 0.002492,0.004272 0.005534,0.004272 0.003043,0 0.005534,-0.001919 0.005534,-0.004272 0,-0.002352 0.006537,-0.004562 0.014526,-0.004909 0.007989,-3.5283e-4 0.011102,-0.001437 0.006917,-0.002423 -0.0130688,-0.003053 -0.008332,-0.009259 0.008301,-0.0108708 0.00875,-8.5e-4 -0.0270461,-0.00187 -0.079547,-0.002273 l -0.0954579,-7.3666e-4 0.0138344,0.0126692 c 0.0140382,0.0128563 0.0235183,0.0163001 0.0235183,0.008543 z m -0.0221348,-0.0128157 c 0,-0.002352 0.006299,-0.004272 0.0139974,-0.004272 0.008627,0 0.0133415,0.001636 0.0122875,0.004272 -9.4126e-4,0.002352 -0.007239,0.004272 -0.0139974,0.004272 -0.006758,0 -0.0122874,-0.001919 -0.0122874,-0.004272 z m 0.0359691,0 c 0,-0.002352 0.006299,-0.004272 0.0139974,-0.004272 0.008627,0 0.0133416,0.001636 0.0122875,0.004272 -9.4036e-4,0.002352 -0.00724,0.004272 -0.0139974,0.004272 -0.006758,0 -0.0122874,-0.001919 -0.0122874,-0.004272 z m 0.035969,0 c 0,-0.002352 0.006299,-0.004272 0.0139977,-0.004272 0.008627,0 0.0133415,0.001636 0.0122875,0.004272 -9.4126e-4,0.002352 -0.00724,0.004272 -0.0139974,0.004272 -0.006758,0 -0.0122878,-0.001919 -0.0122878,-0.004272 z m 0.0359692,0 c 0,-0.002352 0.006299,-0.004272 0.0139977,-0.004272 0.008627,0 0.0133416,0.001636 0.0122875,0.004272 -9.4125e-4,0.002352 -0.00724,0.004272 -0.0139974,0.004272 -0.006758,0 -0.0122874,-0.001919 -0.0122874,-0.004272 z m 0.25455054,-0.0128152 0,-0.0299022 -0.0610834,0 -0.0610834,0 -0.0302229,0.0260035 c -0.0166226,0.014302 -0.0302225,0.027758 -0.0302225,0.0299022 0,0.002273 0.0381041,0.003896 0.0913062,0.003896 l 0.0913061,0 0,-0.0299021 z m 0.0498033,0 0,-0.0299022 -0.0221347,0 -0.0221351,0 0,0.0299022 0,0.0299022 0.0221351,0 0.0221347,0 0,-0.0299022 z m 0.0990361,-0.0377832 c 4.4663e-4,-0.016811 -2.686e-5,-0.0305656 -0.001043,-0.0305656 -0.001021,0 -0.0216198,0.00799 -0.0457744,0.0177553 l -0.0439172,0.0177553 0,0.030954 0,0.0309539 0.0449614,-0.018144 0.0449614,-0.0181439 8.1359e-4,-0.0305656 z m 0.23643603,0.0505973 c 0.001144,0 0.002082,-0.007895 0.002082,-0.017544 0,-0.0126584 -0.001002,-0.0169493 -0.003606,-0.0154085 -0.001979,0.001173 -0.0113202,0.005477 -0.0207517,0.009563 l -0.017147,0.007428 0,0.0162225 0,0.0162223 0.0186676,-0.008243 c 0.0102669,-0.004533 0.0196052,-0.008243 0.0207517,-0.008243 z m -0.7615675,-0.0299022 0,-0.0128153 -0.0186762,8.001e-5 -0.0186762,8e-5 0.0124508,0.0124605 c 0.006849,0.006853 0.0152524,0.0125837 0.0186765,0.0127346 0.005112,2.2493e-4 0.006225,-0.002018 0.006225,-0.0125411 z m 0.10790718,0 0,-0.0128153 -0.0511868,0 -0.0511867,0 0,0.0128153 0,0.0128152 0.0511867,0 0.0511868,0 0,-0.0128152 z m 0.0997887,0.008393 c 0.002945,-0.002432 0.005352,-0.008199 0.005352,-0.0128152 0,-0.008041 -0.00215,-0.008393 -0.0511868,-0.008393 l -0.0511867,0 0,0.0128153 0,0.0128152 0.045835,0 c 0.026304,0 0.0481153,-0.001886 0.0511868,-0.004422 z m 0.52690358,-0.007736 0.0276685,-0.0121369 8.0974e-4,-0.0328328 8.0973e-4,-0.0328329 -0.007726,0.002955 c -0.004248,0.001624 -0.0176875,0.006968 -0.0298612,0.0118744 l -0.0221347,0.00892 -8.0717e-4,0.0331061 c -4.4344e-4,0.0182083 1.7888e-4,0.0331014 0.001385,0.0330955 0.001205,-4.27e-6 0.0146425,-0.005472 0.0298602,-0.0121475 z m -0.0683583,-0.0769098 c 5.7424e-4,-0.021522 -1.6273e-4,-0.0305433 -0.002491,-0.0305433 -0.001819,0 -0.0317695,0.0115338 -0.0665616,0.0256305 -0.0347921,0.0140968 -0.0638647,0.0256305 -0.0646058,0.0256305 -7.4033e-4,0 -0.001346,0.0141675 -0.001346,0.0314831 l 0,0.0314832 0.0670962,-0.0265704 0.0670962,-0.0265703 8.1359e-4,-0.0305433 z m -0.43935916,0.067707 c 0.003356,-0.003349 0.002961,-0.004154 -0.002077,-0.004206 -0.003424,-3.386e-5 -0.006225,0.001856 -0.006225,0.004206 0,0.005352 0.002935,0.005352 0.0083,0 z m -0.3057374,-0.0236061 c -0.01381307,-0.0131352 -0.01521787,-0.0131249 -0.01521787,1.1235e-4 0,0.009911 9.4483e-4,0.0106699 0.0131421,0.0105461 L 0.09075701,0.56008151 0.07968952,0.54955727 Z m 0.39981036,0.001749 c 0,-0.008601 -8.9007e-4,-0.008893 -0.0182998,-0.006016 -0.0100648,0.001664 -0.022827,0.005597 -0.0283601,0.00874 -0.009562,0.005431 -0.008655,0.00573 0.0182997,0.006016 0.0270974,2.8668e-4 0.0283604,-1.0157e-4 0.0283604,-0.00874 z m 0.1051404,-0.0340323 c 0,-0.0236904 -9.3499e-4,-0.0424178 -0.002077,-0.0416164 -0.001139,8.0041e-4 -0.0186008,0.0142561 -0.038799,0.0298992 -0.0201982,0.0156431 -0.0416758,0.0297338 -0.0477282,0.0313125 -0.009273,0.002418 -0.0110043,0.004491 -0.0110043,0.0131742 l 0,0.0103038 0.0498034,0 0.0498033,0 0,-0.0430735 z m 0.0276685,0.0329359 0.0124508,-0.005736 7.9432e-4,-0.0390524 7.9431e-4,-0.0390524 -0.0167049,0 -0.0167049,0 0,0.0448534 c 0,0.0496877 -7.1784e-4,0.0482414 0.0193678,0.0389876 z m -0.50633413,-0.017629 0,-0.0149512 -0.01993732,0 -0.0199374,0 0.01509509,0.0145165 c 0.02024513,0.019469 0.02477918,0.0195486 0.02477918,4.3443e-4 z m 0.10790731,0 0,-0.0149512 -0.0511868,0 -0.0511869,0 0,0.0149512 0,0.0149511 0.0511869,0 0.0511868,0 0,-0.0149511 z m 0.1051404,0 0,-0.0149512 -0.0511868,0 -0.051187,0 0,0.0149512 0,0.0149511 0.051187,0 0.0511868,0 0,-0.0149511 z m 0.10085993,0.009994 c 0.004629,-0.003256 0.007047,-0.008387 0.007047,-0.0149512 l 0,-0.009994 -0.0511867,0 -0.0511868,0 0,0.0149512 0,0.0149511 0.0441395,0 c 0.0276034,0 0.0467796,-0.001856 0.0511867,-0.004958 z m 0.34944546,-0.0554268 0.0117591,-0.004706 0,-0.0205638 c 0,-0.0238475 0.002342,-0.0218796 -0.0381575,-0.0320662 -0.0402574,-0.0101252 -0.0547294,-0.007516 -0.0855816,0.0154384 l -0.025516,0.0189844 -8.141e-5,0.0390822 -8.138e-5,0.0390821 0.062946,-0.0252715 c 0.0346203,-0.0138993 0.0682376,-0.0273894 0.074705,-0.0299778 z M 0.4723948,0.52616131 c 0.0120705,-0.002414 0.0225501,-0.005322 0.0232876,-0.00646 7.3712e-4,-0.001138 -0.0131848,-0.002071 -0.0309388,-0.002071 -0.0306736,0 -0.0322798,4.3441e-4 -0.0322798,0.008737 0,0.007477 0.001298,0.008409 0.008992,0.00646 0.004945,-0.001253 0.0188683,-0.004252 0.0309388,-0.006666 z m 0.40691586,-0.0121043 0.0415027,-0.0161571 8.1616e-4,-0.0307165 c 5.4232e-4,-0.0204542 -2.1619e-4,-0.0307166 -0.002262,-0.0307166 -0.003477,0 -0.05184,0.0185358 -0.0739443,0.0283383 l -0.014526,0.006442 0,0.0295992 c 0,0.0208931 0.001018,0.0295651 0.003459,0.0294835 0.001901,-6.4e-5 0.0221347,-0.007386 0.0449614,-0.0162728 z m -0.72076522,-0.0199216 0,-0.0149512 -0.0470366,0 -0.0470365,0 0,0.0149512 0,0.0149511 0.0470365,0 0.0470366,0 0,-0.0149511 z m 0.10790719,0 0,-0.0149512 -0.0511868,0 -0.0511867,0 0,0.0149512 0,0.0149511 0.0511867,0 0.0511868,0 0,-0.0149511 z m 0.10790731,0 0,-0.0149512 -0.0511868,0 -0.0511867,0 0,0.0149512 0,0.0149511 0.0511867,0 0.0511868,0 0,-0.0149511 z m 0.10790735,0 0,-0.0149512 -0.0511869,0 -0.0511867,0 0,0.0149512 0,0.0149511 0.0511867,0 0.0511869,0 0,-0.0149511 z m 0.0525701,0 0.0179846,-0.0145366 -0.0325105,-2.0731e-4 -0.0325105,-2.0731e-4 0,0.0149511 0,0.0149511 0.014526,-2.0731e-4 c 0.0109798,-1.5688e-4 0.0189164,-0.003756 0.0325105,-0.0147439 z m 0.28498582,-0.0272401 0.029052,-0.012213 -0.0193678,-0.002953 c -0.0106525,-0.001625 -0.0246594,-0.004529 -0.0311272,-0.006454 l -0.0117591,-0.003502 0,0.0187051 c 0,0.0102881 9.3498e-4,0.0186879 0.002074,0.0186672 0.001139,-2.137e-5 0.0151487,-0.005534 0.0311271,-0.0122509 z m -0.71384806,-0.0133416 0,-0.0170869 -0.02075149,0 -0.02075166,0 0,0.0170869 0,0.0170869 0.02075166,0 0.02075149,0 0,-0.0170869 z m 0.10790732,0 0,-0.0170869 -0.0511867,0 -0.0511869,0 0,0.0170869 0,0.0170869 0.0511869,0 0.0511867,0 0,-0.0170869 z m 0.1051404,0 0,-0.0170869 -0.0511868,0 -0.051187,0 0,0.0170869 0,0.0170869 0.051187,0 0.0511868,0 0,-0.0170869 z m 0.10790719,0 0,-0.0170869 -0.0511867,0 -0.0511868,0 0,0.0170869 0,0.0170869 0.0511868,0 0.0511867,0 0,-0.0170869 z m 0.10790734,0 0,-0.0170869 -0.0511868,0 -0.0511868,0 0,0.0170869 0,0.0170869 0.0511868,0 0.0511868,0 0,-0.0170869 z m 0.0404845,0.008196 c 0.005341,-0.005096 0.009319,-0.0123903 0.009319,-0.0170871 0,-0.007396 -0.00216,-0.008196 -0.0221347,-0.008196 l -0.0221351,0 0,0.0170869 0,0.0170869 0.0128161,0 c 0.008154,0 0.0162057,-0.003234 0.0221347,-0.008892 z M 0.637155,0.44241101 c 0.009139,-0.005646 0.0111234,-0.008928 0.0111234,-0.0183985 l 0,-0.0115272 -0.0276685,0.0108864 c -0.0218849,0.00861 -0.0276685,0.0124567 -0.0276685,0.0183985 0,0.006331 0.0026,0.007512 0.0165451,0.007512 0.0091,0 0.0215505,-0.003092 0.0276685,-0.006872 z m 0.27189929,-0.0112491 c 0.009821,-0.003516 0.0131421,-0.006695 0.0131421,-0.0125772 0,-0.007059 -0.00178,-0.006491 -0.0172929,0.005512 -0.0178399,0.0138062 -0.0242226,0.0203475 -0.0145258,0.0148873 0.003046,-0.001713 0.0114475,-0.005234 0.018676,-0.007822 z m -0.0615625,0.001717 c 0,-0.001973 0.009027,-0.006008 0.0200598,-0.008968 0.0202423,-0.00543 0.0354428,-0.013703 0.0301667,-0.0164183 -0.001574,-8.0962e-4 -0.007548,5.2705e-4 -0.0132783,0.002969 -0.007226,0.003081 -0.0109648,0.003075 -0.0122026,-1.709e-5 -0.001209,-0.003019 -0.004819,-0.003111 -0.01119,-2.8447e-4 -0.005173,0.002296 -0.007849,0.004347 -0.005947,0.004559 0.008136,9.0666e-4 0.002492,0.008184 -0.0083,0.0107042 -0.0168545,0.003935 -0.022992,0.0108906 -0.009684,0.0109744 0.005707,3.383e-5 0.0103756,-0.001548 0.0103756,-0.003521 z m -0.0284178,-0.003266 c -9.1886e-4,-0.00142 -0.003306,-0.001572 -0.005303,-3.3739e-4 -0.002208,0.001363 -0.001551,0.002376 0.001671,0.00258 0.002916,1.8538e-4 0.00455,-8.2451e-4 0.003632,-0.002243 z m -0.66052854,-0.0187778 0,-0.0170869 -0.0470366,0 -0.0470365,0 0,0.0170869 0,0.0170869 0.0470365,0 0.0470366,0 0,-0.0170869 z m 0.10790718,0 0,-0.0170869 -0.0511867,0 -0.0511867,0 0,0.0170869 0,0.0170869 0.0511867,0 0.0511867,0 0,-0.0170869 z m 0.10790733,0 0,-0.0170869 -0.0511868,0 -0.0511868,0 0,0.0170869 0,0.0170869 0.0511868,0 0.0511868,0 0,-0.0170869 z m 0.10790734,0 0,-0.0170869 -0.0511869,0 -0.0511868,0 0,0.0170869 0,0.0170869 0.0511868,0 0.0511869,0 0,-0.0170869 z m 0.1023735,0 0,-0.0170869 -0.04842,0 -0.0484198,0 0,0.0170869 0,0.0170869 0.0484198,0 0.04842,0 0,-0.0170869 z m 0.0138344,-0.004776 c 0,-0.0103038 -0.001098,-0.016039 -0.002766,-0.0144468 -0.001522,0.001451 -0.002766,0.0103289 -0.002766,0.0197269 0,0.0103038 0.001098,0.016039 0.002766,0.0144469 0.001522,-0.001451 0.002766,-0.0103289 0.002766,-0.0197269 z m 0.0699733,0.0122516 c 0.0100578,-0.008299 0.0159951,-0.009652 0.0434677,-0.009911 0.0429887,-4.0576e-4 0.0470365,-0.002448 0.0470365,-0.0237391 0,-0.0160866 -2.8202e-4,-0.0165967 -0.007609,-0.013775 -0.0796341,0.0306696 -0.0961683,0.0388185 -0.0970322,0.0478221 -0.001101,0.0114785 -2.2485e-4,0.0114537 0.0141368,-3.9694e-4 z m 0.13989463,0.004922 c 0.007715,-0.004153 0.008713,-0.006552 0.008713,-0.0209528 l 0,-0.016263 -0.0330623,0.0133374 c -0.0181842,0.007336 -0.0326963,0.0139024 -0.0322489,0.0145931 9.8872e-4,0.00153 0.0372675,0.0127801 0.0434552,0.0134768 0.002438,2.7565e-4 0.00835,-0.001612 0.0131425,-0.004191 z m -0.1052522,-0.0564427 c 5.9019e-4,-0.0108446 -2.7206e-4,-0.0157387 -0.002766,-0.0156932 -0.001994,3.383e-5 -0.0241694,0.008384 -0.0492786,0.0185501 l -0.0456531,0.0184841 -8.3287e-4,0.0171041 -8.3286e-4,0.0171041 0.04925,-0.019895 0.04925,-0.0198949 8.5793e-4,-0.0157592 z m 0.16653583,0.0318861 0.0401194,-0.0163385 8.2902e-4,-0.0171303 8.2901e-4,-0.0171304 -0.0437162,0.0176443 -0.0437162,0.0176443 -8.5794e-4,0.0158704 c -5.9018e-4,0.0109296 2.6958e-4,0.0158561 0.002766,0.0158245 0.001994,-2.495e-5 0.0216795,-0.007399 0.043745,-0.0163848 z m -0.0523075,-0.0205698 0.0495407,-0.0199137 0,-0.0168944 c 0,-0.0154598 -5.2958e-4,-0.0166688 -0.006225,-0.0142367 -0.003424,0.001462 -0.0264581,0.0106703 -0.0511867,0.0204632 l -0.0449614,0.0178056 0,0.0163449 c 0,0.00899 7.4033e-4,0.0163448 0.001646,0.0163448 9.0633e-4,0 0.0239394,-0.008961 0.0511868,-0.0199137 z m 0.10203069,0.0158088 c 0.00581,-0.005675 0.002776,-0.008345 -0.006401,-0.005625 -0.005662,0.00168 -0.006824,0.003347 -0.004152,0.005965 0.004672,0.004568 0.005553,0.00454 0.0105503,-3.418e-4 z m -0.8133747,-0.0257973 0,-0.0170869 -0.0207514,0 -0.02075167,0 0,0.0170869 0,0.0170869 0.02075167,0 0.0207514,0 0,-0.0170869 z m 0.10738255,0.001068 -8.5793e-4,-0.0160192 -0.0504951,-0.001165 -0.0504951,-0.001165 0,0.0171832 0,0.0171832 0.0513537,0 0.0513539,0 -8.5793e-4,-0.016019 z m 0.10566517,-0.001068 0,-0.0170869 -0.0511868,0 -0.051187,0 0,0.0170869 0,0.0170869 0.051187,0 0.0511868,0 0,-0.0170869 z m 0.10790719,0 0,-0.0170869 -0.0511867,0 -0.0511868,0 0,0.0170869 0,0.0170869 0.0511868,0 0.0511867,0 0,-0.0170869 z m 0.10790734,0 0,-0.0170869 -0.0511867,0 -0.0511868,0 0,0.0170869 0,0.0170869 0.0511868,0 0.0511867,0 0,-0.0170869 z m 0.0498033,0 0,-0.0170869 -0.0221347,0 -0.0221351,0 0,0.0170869 0,0.0170869 0.0221351,0 0.0221347,0 0,-0.0170869 z m 0.0408111,0.003852 0.0228266,-0.009464 0,-0.0167047 c 0,-0.0138878 -8.168e-4,-0.0163389 -0.004842,-0.0145353 -0.002663,0.001193 -0.0104448,0.004335 -0.0172929,0.006984 -0.0359828,0.0139112 -0.0332022,0.0113719 -0.0332022,0.0303214 0,0.014371 8.0072e-4,0.0168516 0.004841,0.0150365 0.002663,-0.001195 0.015114,-0.006432 0.0276685,-0.0116375 z M 0.81498136,0.3382399 c 0.001139,-1.281e-5 0.002074,-0.007714 0.002074,-0.0171113 0,-0.009398 -6.1571e-4,-0.0170869 -0.001368,-0.0170869 -0.001665,0 -0.0717687,0.0279526 -0.0920117,0.0366879 -0.0143209,0.006179 -0.014526,0.006502 -0.014526,0.0227952 l 0,0.016527 0.0518785,-0.0208937 c 0.0285334,-0.0114916 0.0528123,-0.0209047 0.0539537,-0.020918 z m 0.10721561,0.0208302 c 0,-0.0103038 -0.001099,-0.0160391 -0.002764,-0.0144469 -0.001523,0.001451 -0.002764,0.0103289 -0.002764,0.0197271 0,0.0103038 0.001099,0.016039 0.002764,0.0144469 0.001523,-0.001451 0.002764,-0.0103289 0.002764,-0.0197269 z m -0.20959542,-0.0218178 0.0463387,-0.0182599 5.53e-6,-0.0160192 c 2.8e-6,-0.00881 -9.2872e-4,-0.0160429 -0.002071,-0.0160719 -0.001139,-3.03e-5 -0.0247979,0.008922 -0.0525701,0.0198917 l -0.0504951,0.0199447 0,0.0169164 c 0,0.0154445 5.4234e-4,0.0166962 0.006225,0.0143871 0.003424,-0.001392 0.0270776,-0.0107461 0.0525639,-0.020789 z m 0.19091909,0.006447 0.018676,-0.007136 0,-0.0162611 c 0,-0.008944 -6.6836e-4,-0.0162611 -0.001485,-0.0162611 -8.1616e-4,0 -0.012022,0.004081 -0.0249019,0.009068 l -0.0234182,0.009068 0,0.0170607 c 0,0.015654 5.1363e-4,0.0168355 0.006225,0.0143291 0.003426,-0.001501 0.0146298,-0.005943 0.0249019,-0.009867 z m -0.74497515,-0.0140279 0,-0.0170871 -0.0470366,0 -0.04703649,0 0,0.0170871 0,0.0170869 0.04703649,0 0.0470366,0 0,-0.0170869 z m 0.10790718,0 0,-0.0170871 -0.0511868,0 -0.0511867,0 0,0.0170871 0,0.0170869 0.0511867,0 0.0511868,0 0,-0.0170869 z m 0.10790732,0 0,-0.0170871 -0.0511867,0 -0.0511868,0 0,0.0170871 0,0.0170869 0.0511868,0 0.0511867,0 0,-0.0170869 z m 0.10790735,0 0,-0.0170871 -0.0511869,0 -0.0511868,0 0,0.0170871 0,0.0170869 0.0511868,0 0.0511869,0 0,-0.0170869 z m 0.10237349,0 0,-0.0170871 -0.04842,0 -0.0484198,0 0,0.0170871 0,0.0170869 0.0484198,0 0.04842,0 0,-0.0170869 z m 0.0138344,-0.004272 c 0,-0.009398 -0.001244,-0.0170871 -0.002766,-0.0170871 -0.001522,0 -0.002766,0.007689 -0.002766,0.0170871 0,0.009398 0.001244,0.0170869 0.002766,0.0170869 0.001522,0 0.002766,-0.007689 0.002766,-0.0170869 z m 0.0466778,-0.002446 c 0.0207412,-0.008394 0.0423803,-0.017118 0.0480869,-0.0193876 0.009852,-0.003918 0.0103756,-0.005004 0.0103756,-0.0215056 0,-0.0121074 -0.00105,-0.0167813 -0.003459,-0.0154074 -0.001901,0.001085 -0.0243137,0.0102432 -0.0498033,0.020353 l -0.0463448,0.0183812 0,0.0164139 c 0,0.009027 7.7181e-4,0.0164139 0.001717,0.0164139 9.4394e-4,0 0.0186864,-0.006868 0.0394276,-0.0152613 z m 0.22517936,-0.007951 c 0.020932,-0.008378 0.0386744,-0.0152332 0.0394276,-0.0152332 7.5191e-4,0 0.001368,-0.007818 0.001368,-0.0173749 0,-0.014525 -7.9688e-4,-0.0170196 -0.004839,-0.0152085 -0.002667,0.001191 -0.0225845,0.009292 -0.0442696,0.0180014 l -0.0394277,0.015835 0,0.0167484 c 0,0.0139189 8.1681e-4,0.0163865 0.004842,0.0146068 0.002663,-0.001177 0.0219682,-0.008997 0.0429001,-0.0173747 z m -0.005547,-0.0391349 c 0.003517,-0.001674 0.004842,-0.006815 0.004842,-0.0187812 l 0,-0.0164765 -0.0421945,0.016942 c -0.0232069,0.009319 -0.0468637,0.0188586 -0.0525702,0.0212007 -0.009735,0.003996 -0.0103758,0.005283 -0.0103758,0.0208454 l 0,0.0165868 0.0477284,-0.0190065 c 0.0262504,-0.0104535 0.0499071,-0.0200437 0.0525703,-0.0213109 z m -0.75880949,0.0153583 0,-0.0128152 -0.0207514,0 -0.02075167,0 0,0.0128152 0,0.0128152 0.02075167,0 0.0207514,0 0,-0.0128152 z m 0.10514044,0 0,-0.0128152 -0.0498034,0 -0.0498033,0 0,0.0128152 0,0.0128152 0.0498033,0 0.0498034,0 0,-0.0128152 z m 0.10790731,0 0,-0.0128152 -0.0511868,0 -0.0511869,0 0,0.0128152 0,0.0128152 0.0511869,0 0.0511868,0 0,-0.0128152 z m 0.10790718,0 0,-0.0128152 -0.0511867,0 -0.0511867,0 0,0.0128152 0,0.0128152 0.0511867,0 0.0511867,0 0,-0.0128152 z m 0.10790735,0 0,-0.0128152 -0.0511868,0 -0.0511868,0 0,0.0128152 0,0.0128152 0.0511868,0 0.0511868,0 0,-0.0128152 z m 0.0498033,0 0,-0.0128152 -0.0221347,0 -0.0221347,0 0,0.0128152 0,0.0128152 0.0221347,0 0.0221347,0 0,-0.0128152 z m 0.0380443,-7.7208e-4 0.0255933,-0.009453 0,-0.0145674 c 0,-0.0118451 -8.6435e-4,-0.0140565 -0.004615,-0.0118332 -0.002539,0.001503 -0.014989,0.006751 -0.0276688,0.0116608 -0.0222125,0.008601 -0.0230539,0.009375 -0.0230539,0.0212177 0,0.006759 9.3499e-4,0.0123217 0.002074,0.0123594 0.001139,3.826e-5 0.0135922,-0.004185 0.0276685,-0.009384 z m 0.14180111,-0.0155676 0.051187,-0.0205442 8.5793e-4,-0.015732 c 5.902e-4,-0.0108109 -2.7578e-4,-0.0157217 -0.002766,-0.0156985 -0.001994,1.709e-5 -0.0266597,0.009279 -0.0548125,0.0205777 l -0.0511868,0.0205442 -8.5793e-4,0.015732 c -5.9019e-4,0.0108109 2.758e-4,0.0157217 0.002766,0.0156985 0.001994,-1.712e-5 0.0266597,-0.009278 0.0548123,-0.0205777 z m 0.15771069,0.003169 c 0,-0.0222569 -0.006543,-0.020781 -0.007776,0.001753 -6.555e-4,0.011934 1.7519e-4,0.0156888 0.003458,0.0156888 0.003207,0 0.004318,-0.004486 0.004318,-0.017443 z M 0.74857713,0.23962312 c 0.009033,-0.003708 0.0103755,-0.005895 0.0103755,-0.0169092 0,-0.006958 -9.3498e-4,-0.0126999 -0.002077,-0.0127601 -0.001139,-5.912e-5 -0.0247979,0.00905 -0.0525701,0.0202461 l -0.0504951,0.0203554 0,0.0136054 0,0.0136053 0.0421945,-0.016942 c 0.0232069,-0.009319 0.0468635,-0.0188586 0.0525701,-0.0212007 z m 0.16877802,0.0148232 c 0.003515,-0.001624 0.004839,-0.006719 0.004839,-0.0185547 l 0,-0.0163134 -0.0242098,0.009373 -0.0242098,0.009373 -8.4571e-4,0.0177013 -8.4572e-4,0.0177013 0.0202122,-0.008519 c 0.0111165,-0.004685 0.0223911,-0.009528 0.0250542,-0.0107602 z M 0.74650195,0.20174045 0.90144581,0.13796083 0.6558862,0.13770282 0.41032654,0.13744481 0.25469251,0.19950715 c -0.0855987,0.0341343 -0.1568792,0.0628168 -0.158401,0.063739 -0.0015216,9.2155e-4 0.10929069,0.00181 0.24624996,0.001976 l 0.24901685,2.999e-4 0.15494363,-0.0637795 z m 0.16461684,-0.001288 c 5.53e-6,-0.0100656 -0.001273,-0.0159565 -0.003451,-0.0158509 -0.001902,9.393e-5 -0.0215125,0.007484 -0.0435779,0.0164249 l -0.0401194,0.0162567 -8.3608e-4,0.017244 -8.3608e-4,0.0172437 0.0444018,-0.0176497 0.0444018,-0.0176497 1.106e-5,-0.0160192 z m -0.0491006,-0.006017 c 0.006485,-0.002152 0.007609,-0.004669 0.007609,-0.0170252 0,-0.013679 -4.3067e-4,-0.0143329 -0.007609,-0.0115684 -0.0529978,0.0204093 -0.0958617,0.0400218 -0.0978013,0.0447492 -0.001327,0.003234 -0.002431,0.009978 -0.002453,0.0149865 -4.072e-5,0.008902 9.9857e-4,0.008683 0.0463024,-0.009755 0.0254895,-0.0103738 0.0497688,-0.0199979 0.0539537,-0.0213875 z m 0.0596544,0.001416 c 6.555e-4,-0.0119341 -1.7519e-4,-0.0156888 -0.003458,-0.0156888 -0.003207,0 -0.004318,0.004486 -0.004318,0.017443 0,0.0222569 0.006543,0.020781 0.007776,-0.001753 z m -0.0181515,-0.0181582 c 0.0186161,-0.00709 0.0186759,-0.007161 0.0186759,-0.0220428 0,-0.0134305 -6.253e-4,-0.0146603 -0.006227,-0.0122457 -0.003426,0.001477 -0.0140071,0.005778 -0.0235183,0.009561 -0.017005,0.006762 -0.0172929,0.007122 -0.0172929,0.0215963 0,0.0120234 8.8685e-4,0.0143097 0.004846,0.0124818 0.002661,-0.001231 0.0132463,-0.005439 0.0235183,-0.009351 z" id="path4698" inkscape:connector-curvature="0" />
    </pattern>
  </defs>
  <sodipodi:namedview pagecolor="#ffffff" bordercolor="#666666" borderopacity="1" objecttolerance="10" gridtolerance="10" guidetolerance="10" inkscape:pageopacity="0" inkscape:pageshadow="2" inkscape:window-width="1680" inkscape:window-height="988" id="namedview4" showgrid="false" inkscape:zoom="256" inkscape:cx="0.5" inkscape:cy="0.5" inkscape:window-x="-8" inkscape:window-y="-8" inkscape:window-maximized="1" inkscape:current-layer="svg2" />
  <path style="fill:#000000" d="m 0.05744371,0.85403113 c -7.2619e-4,-0.00294 -9.9589e-4,-0.13601874 -6.0615e-4,-0.29573751 l 7.1976e-4,-0.29039787 0.17292826,-0.0692502 0.17292832,-0.0692502 0.26215937,-2.4697e-4 0.26215933,-2.4699e-4 0,0.27944501 0,0.27944499 -0.0421942,0.0214441 C 0.8623311,0.72103002 0.7863378,0.75963486 0.716664,0.79502518 l -0.12667944,0.0643458 -0.26560873,0 c -0.2099378,0 -0.26588585,-0.001119 -0.26693007,-0.00534 z m 0.09833472,-0.020291 0,-0.0170871 -0.045653,0 -0.04565309,0 0,0.0170871 0,0.0170871 0.04565309,0 0.045653,0 0,-0.0170871 z m 0.16047745,0 0,-0.0170871 -0.0774719,0 -0.0774719,0 0,0.0170871 0,0.0170871 0.0774719,0 0.0774719,0 0,-0.0170871 z m 0.1632444,0 0,-0.0170871 -0.0788553,0 -0.0788554,0 0,0.0170871 0,0.0170871 0.0788554,0 0.0788553,0 0,-0.0170871 z m 0.1051404,0 0,-0.0170871 -0.0498033,0 -0.0498034,0 0,0.0170871 0,0.0170871 0.0498034,0 0.0498033,0 0,-0.0170871 z m 0.0590769,-0.0126862 0.0438591,-0.0224868 -0.001694,-0.0130723 c -9.3141e-4,-0.00719 -0.002045,-0.0136156 -0.002475,-0.0142793 -4.3067e-4,-6.637e-4 -0.010066,0.003329 -0.0214144,0.008873 -0.0113479,0.005546 -0.0315274,0.0151938 -0.0448427,0.0214448 l -0.02421,0.0113652 0,0.0172855 c 0,0.0120282 0.001052,0.0166876 0.003459,0.0153212 0.001901,-0.001077 0.0231952,-0.0120834 0.0473177,-0.0244509 z m -0.55434351,-0.0321675 0,-0.0192228 -0.01245062,0 -0.01245063,0 0,0.0192228 0,0.0192228 0.01245063,0 0.01245062,0 0,-0.0192228 z m 0.16324425,0 0,-0.0192228 -0.0788553,0 -0.0788553,0 0,0.0192228 0,0.0192228 0.0788553,0 0.0788553,0 0,-0.0192228 z m 0.16047748,0 0,-0.0192228 -0.0788553,0 -0.0788553,0 0,0.0192228 0,0.0192228 0.0788553,0 0.0788553,0 0,-0.0192228 z m 0.16047761,0 0,-0.0192228 -0.0774719,0 -0.0774719,0 0,0.0192228 0,0.0192228 0.0774719,0 0.0774719,0 0,-0.0192228 z m 0.0110672,0 c 0,-0.0105726 -0.001244,-0.0192228 -0.002766,-0.0192228 -0.001522,0 -0.002766,0.00865 -0.002766,0.0192228 0,0.0105726 0.001244,0.0192228 0.002766,0.0192228 0.001522,0 0.002766,-0.00865 0.002766,-0.0192228 z m 0.0419578,-8.344e-5 0.0267401,-0.0122245 9.5021e-4,-0.0184705 c 5.7423e-4,-0.0111655 -1.5034e-4,-0.0178699 -0.001838,-0.0169525 -0.001535,8.3583e-4 -0.0155475,0.007109 -0.0311398,0.0139442 l -0.0283499,0.0124263 -1.104e-5,0.0186121 c -8.36e-6,0.0130398 0.001025,0.0180547 0.003448,0.0167507 0.001901,-0.00102 0.0154917,-0.007362 0.0301986,-0.0140852 z m 0.13512085,-0.0269741 0.065021,-0.0330381 8.9327e-4,-0.0143162 c 7.1784e-4,-0.0114984 5.009e-5,-0.0138153 -0.003401,-0.0117711 -0.002363,0.001403 -0.0335813,0.0164234 -0.0693745,0.0333866 l -0.0650787,0.0308415 0,0.0141794 c 0,0.008609 0.001359,0.0140966 0.003459,0.0139669 0.001901,-1.1821e-4 0.0327181,-0.0150797 0.0684796,-0.0332506 z m -0.0311273,-0.0220582 0.0477283,-0.0227149 0,-0.0168718 c 0,-0.0116259 -0.001075,-0.016303 -0.003459,-0.0150422 -0.001901,0.001006 -0.0286715,0.013185 -0.0594874,0.0270633 l -0.0560288,0.025233 0,0.0180434 0,0.0180434 0.0117591,-0.005518 c 0.006468,-0.003032 0.0332369,-0.0157391 0.0594874,-0.0282327 z m -0.5748137,0.004257 0,-0.0170871 -0.0456531,0 -0.04565309,0 0,0.0170871 0,0.0170871 0.04565309,0 0.0456531,0 0,-0.0170871 z m 0.16324436,0 0,-0.0170871 -0.0788553,0 -0.0788554,0 0,0.0170871 0,0.0170871 0.0788554,0 0.0788553,0 0,-0.0170871 z m 0.16047748,0 0,-0.0170871 -0.0788553,0 -0.0788554,0 0,0.0170871 0,0.0170871 0.0788554,0 0.0788553,0 0,-0.0170871 z m 0.10514038,0 0,-0.0170871 -0.0498033,0 -0.0498034,0 0,0.0170871 0,0.0170871 0.0498034,0 0.0498033,0 0,-0.0170871 z m 0.0276685,-0.00926 c 0,-0.016932 -0.001503,-0.0184946 -0.0131425,-0.013678 -0.005229,0.00216 -0.006225,0.005511 -0.006225,0.0209009 l 0,0.0183253 0.009684,-0.00459 c 0.008866,-0.004201 0.009684,-0.005971 0.009684,-0.0209588 z m 0.0726218,-0.0168435 0.0601707,-0.0272935 8.33e-6,-0.0163582 c 1.104e-5,-0.0196159 0.006649,-0.0208979 -0.0705465,0.0136298 l -0.0553372,0.0247513 -8.6757e-4,0.0183848 c -6.51e-4,0.0137912 4.071e-5,0.0178592 0.002766,0.0162817 0.002001,-0.001154 0.0307122,-0.0143849 0.0638062,-0.0293959 z m 0.23726586,-0.0490196 c 0,-0.005666 -0.001556,-0.0101628 -0.003458,-0.009983 -0.001902,1.8091e-4 -0.0221346,0.009347 -0.0449614,0.0203731 -0.0414464,0.0200204 -0.041504,0.0200656 -0.0423582,0.0336075 l -8.559e-4,0.0135603 0.0458168,-0.0236244 c 0.0423598,-0.0218422 0.0458167,-0.0244028 0.0458167,-0.0339334 z m -0.83282277,0.008914 0,-0.0405818 -0.01245062,0 -0.01245062,0 0,0.0405818 0,0.0405818 0.01245062,0 0.01245062,0 0,-0.0405818 z m 0.16324421,0.0149515 0,-0.0256304 -0.0109313,0 c -0.0155306,0 -0.0378171,-0.007996 -0.0551258,-0.0197795 -0.0133086,-0.009061 -0.0189014,-0.0101231 -0.053262,-0.0101231 l -0.03839164,0 0,0.0405818 0,0.0405818 0.0788553,0 0.0788552,0 0,-0.0256304 z m 0.1604775,-0.0149515 0,-0.0405818 -0.0410181,0 c -0.036496,0 -0.0432627,0.001176 -0.061376,0.0106901 -0.0111967,0.00588 -0.0282232,0.0128046 -0.0378371,0.0153893 l -0.0174795,0.004696 0,0.0251919 0,0.0251919 0.0788553,0 0.0788553,0 0,-0.0405818 z m 0.16047761,0 0,-0.0405818 -0.0774719,0 -0.0774719,0 0,0.0405818 0,0.0405818 0.0774719,0 0.0774719,0 0,-0.0405818 z m 0.0110672,0 c 0,-0.0242066 -0.001116,-0.0405818 -0.002766,-0.0405818 -0.001649,0 -0.002766,0.0163752 -0.002766,0.0405818 0,0.0242066 0.001116,0.0405818 0.002766,0.0405818 0.001649,0 0.002766,-0.0163752 0.002766,-0.0405818 z m 0.0705547,0.0110564 0.0553372,-0.0249688 8.0074e-4,-0.0368291 c 4.4024e-4,-0.0202562 -1.8136e-4,-0.0368643 -0.001385,-0.0369071 -0.001203,-4.174e-5 -0.0280133,0.0100489 -0.0595843,0.0224267 l -0.0574013,0.0225045 -1.104e-5,0.0395137 c -8.29e-6,0.0288476 9.2245e-4,0.0394754 0.003448,0.0393713 0.001901,-7.997e-5 0.0283601,-0.011378 0.0587956,-0.0251112 z m 0.19091292,-0.003867 0.0608708,-0.0289644 8.74e-4,-0.0161883 c 7.519e-4,-0.0139463 1.7898e-4,-0.015868 -0.004152,-0.0138777 -0.004781,0.002196 -0.10482405,0.0477452 -0.11500602,0.0523579 -0.00355,0.001608 -0.004842,0.00668 -0.004842,0.0189925 0,0.009239 3.1306e-4,0.0167648 6.9213e-4,0.0167223 3.7964e-4,-4.171e-5 0.0280835,-0.0131112 0.0615625,-0.0290416 z m -0.0200598,-0.0315202 0.0491117,-0.0222545 0,-0.0162222 c 0,-0.008922 -3.0936e-4,-0.0161978 -6.9405e-4,-0.0161682 -3.7968e-4,3.025e-5 -0.0280835,0.0122677 -0.0615625,0.0271961 l -0.0608707,0.0271426 -8.4573e-4,0.0175249 -8.4507e-4,0.0175249 0.0132975,-0.006247 c 0.007313,-0.003435 0.0353978,-0.0162591 0.0624091,-0.0284991 z m -0.0463447,-0.0202279 c 0.0273919,-0.0121299 0.0557174,-0.025002 0.0629458,-0.0286046 l 0.0131425,-0.00655 0,-0.0334965 0,-0.0334965 -0.0684796,0.0273418 c -0.0376638,0.015038 -0.0694135,0.0273824 -0.0705549,0.0274322 -0.001139,4.87e-5 -0.002074,0.0172569 -0.002074,0.0382379 l 0,0.0381473 0.007609,-0.003478 c 0.004185,-0.001913 0.0300203,-0.0134031 0.0574122,-0.0255333 z M 0.25085168,0.6436452 c -0.001733,-0.00697 -0.009301,-0.008918 -0.009301,-0.002394 0,0.00221 -0.00467,0.004767 -0.0103758,0.005688 -0.007747,0.001254 -0.006367,0.001855 0.005447,0.002394 0.0130435,5.9323e-4 0.0155428,-4.0793e-4 0.01423,-0.005688 z m 0.0135252,0.003577 c -0.001901,-0.001183 -0.005014,-0.001183 -0.006917,0 -0.001901,0.001183 -3.4455e-4,0.002153 0.003459,0.002153 0.003804,0 0.005361,-9.7041e-4 0.003459,-0.002153 z M 0.92219686,0.635104 c 0,-0.0104428 -0.001253,-0.0149515 -0.004152,-0.0149515 -0.002898,0 -0.004152,0.004512 -0.004152,0.0149515 0,0.0104427 0.001253,0.0149508 0.004152,0.0149508 0.002898,0 0.004152,-0.004512 0.004152,-0.0149508 z m -0.70693105,0.00641 c -9.4125e-4,-0.002352 -0.004438,-0.004137 -0.007772,-0.003974 -0.005845,2.8885e-4 -0.005863,4.3214e-4 -5.2958e-4,0.003974 0.007616,0.00505 0.0103232,0.00505 0.0083,0 z m 0.0691713,0 c 9.4125e-4,-0.002352 -2.3107e-4,-0.004272 -0.002603,-0.004272 -0.002373,0 -0.004313,0.001919 -0.004313,0.004272 0,0.002352 0.001171,0.004272 0.002603,0.004272 0.001433,0 0.003374,-0.001919 0.004313,-0.004272 z M 0.15567968,0.62289708 c -0.002226,-0.003195 -0.0155551,-0.0166473 -0.0296154,-0.0299022 -0.0241599,-0.022777 -0.02655315,-0.0241004 -0.04357795,-0.0241004 l -0.01801397,0 0,0.0299022 0,0.0299022 0.04762946,0 c 0.0402706,0 0.0470034,-8.925e-4 0.0435779,-0.005801 z m 0.0388348,0.00153 c 0,-0.002352 0.005604,-0.004272 0.0124508,-0.004272 0.006849,0 0.0124508,0.001919 0.0124508,0.004272 0,0.002352 0.002492,0.004272 0.005534,0.004272 0.003043,0 0.005534,-0.001919 0.005534,-0.004272 0,-0.002352 0.005603,-0.004272 0.0124508,-0.004272 0.006849,0 0.0124508,0.001919 0.0124508,0.004272 0,0.002352 0.002492,0.004272 0.005534,0.004272 0.003043,0 0.005534,-0.001919 0.005534,-0.004272 0,-0.002352 0.005603,-0.004272 0.0124508,-0.004272 0.006848,0 0.0124508,0.001919 0.0124508,0.004272 0,0.002352 0.002492,0.004272 0.005534,0.004272 0.003043,0 0.005534,-0.001919 0.005534,-0.004272 0,-0.002352 0.006537,-0.004562 0.014526,-0.004909 0.007989,-3.5283e-4 0.011102,-0.001437 0.006917,-0.002423 -0.0130688,-0.003053 -0.008332,-0.009259 0.008301,-0.0108708 0.00875,-8.5e-4 -0.0270461,-0.00187 -0.079547,-0.002273 l -0.0954579,-7.3666e-4 0.0138344,0.0126692 c 0.0140382,0.0128563 0.0235183,0.0163001 0.0235183,0.008543 z m -0.0221348,-0.0128157 c 0,-0.002352 0.006299,-0.004272 0.0139974,-0.004272 0.008627,0 0.0133415,0.001636 0.0122875,0.004272 -9.4126e-4,0.002352 -0.007239,0.004272 -0.0139974,0.004272 -0.006758,0 -0.0122874,-0.001919 -0.0122874,-0.004272 z m 0.0359691,0 c 0,-0.002352 0.006299,-0.004272 0.0139974,-0.004272 0.008627,0 0.0133416,0.001636 0.0122875,0.004272 -9.4036e-4,0.002352 -0.00724,0.004272 -0.0139974,0.004272 -0.006758,0 -0.0122874,-0.001919 -0.0122874,-0.004272 z m 0.035969,0 c 0,-0.002352 0.006299,-0.004272 0.0139977,-0.004272 0.008627,0 0.0133415,0.001636 0.0122875,0.004272 -9.4126e-4,0.002352 -0.00724,0.004272 -0.0139974,0.004272 -0.006758,0 -0.0122878,-0.001919 -0.0122878,-0.004272 z m 0.0359692,0 c 0,-0.002352 0.006299,-0.004272 0.0139977,-0.004272 0.008627,0 0.0133416,0.001636 0.0122875,0.004272 -9.4125e-4,0.002352 -0.00724,0.004272 -0.0139974,0.004272 -0.006758,0 -0.0122874,-0.001919 -0.0122874,-0.004272 z m 0.25455054,-0.0128152 0,-0.0299022 -0.0610834,0 -0.0610834,0 -0.0302229,0.0260035 c -0.0166226,0.014302 -0.0302225,0.027758 -0.0302225,0.0299022 0,0.002273 0.0381041,0.003896 0.0913062,0.003896 l 0.0913061,0 0,-0.0299021 z m 0.0498033,0 0,-0.0299022 -0.0221347,0 -0.0221351,0 0,0.0299022 0,0.0299022 0.0221351,0 0.0221347,0 0,-0.0299022 z m 0.0990361,-0.0377832 c 4.4663e-4,-0.016811 -2.686e-5,-0.0305656 -0.001043,-0.0305656 -0.001021,0 -0.0216198,0.00799 -0.0457744,0.0177553 l -0.0439172,0.0177553 0,0.030954 0,0.0309539 0.0449614,-0.018144 0.0449614,-0.0181439 8.1359e-4,-0.0305656 z m 0.23643603,0.0505973 c 0.001144,0 0.002082,-0.007895 0.002082,-0.017544 0,-0.0126584 -0.001002,-0.0169493 -0.003606,-0.0154085 -0.001979,0.001173 -0.0113202,0.005477 -0.0207517,0.009563 l -0.017147,0.007428 0,0.0162225 0,0.0162223 0.0186676,-0.008243 c 0.0102669,-0.004533 0.0196052,-0.008243 0.0207517,-0.008243 z m -0.7615675,-0.0299022 0,-0.0128153 -0.0186762,8.001e-5 -0.0186762,8e-5 0.0124508,0.0124605 c 0.006849,0.006853 0.0152524,0.0125837 0.0186765,0.0127346 0.005112,2.2493e-4 0.006225,-0.002018 0.006225,-0.0125411 z m 0.10790718,0 0,-0.0128153 -0.0511868,0 -0.0511867,0 0,0.0128153 0,0.0128152 0.0511867,0 0.0511868,0 0,-0.0128152 z m 0.0997887,0.008393 c 0.002945,-0.002432 0.005352,-0.008199 0.005352,-0.0128152 0,-0.008041 -0.00215,-0.008393 -0.0511868,-0.008393 l -0.0511867,0 0,0.0128153 0,0.0128152 0.045835,0 c 0.026304,0 0.0481153,-0.001886 0.0511868,-0.004422 z m 0.52690358,-0.007736 0.0276685,-0.0121369 8.0974e-4,-0.0328328 8.0973e-4,-0.0328329 -0.007726,0.002955 c -0.004248,0.001624 -0.0176875,0.006968 -0.0298612,0.0118744 l -0.0221347,0.00892 -8.0717e-4,0.0331061 c -4.4344e-4,0.0182083 1.7888e-4,0.0331014 0.001385,0.0330955 0.001205,-4.27e-6 0.0146425,-0.005472 0.0298602,-0.0121475 z m -0.0683583,-0.0769098 c 5.7424e-4,-0.021522 -1.6273e-4,-0.0305433 -0.002491,-0.0305433 -0.001819,0 -0.0317695,0.0115338 -0.0665616,0.0256305 -0.0347921,0.0140968 -0.0638647,0.0256305 -0.0646058,0.0256305 -7.4033e-4,0 -0.001346,0.0141675 -0.001346,0.0314831 l 0,0.0314832 0.0670962,-0.0265704 0.0670962,-0.0265703 8.1359e-4,-0.0305433 z m -0.43935916,0.067707 c 0.003356,-0.003349 0.002961,-0.004154 -0.002077,-0.004206 -0.003424,-3.386e-5 -0.006225,0.001856 -0.006225,0.004206 0,0.005352 0.002935,0.005352 0.0083,0 z m -0.3057374,-0.0236061 c -0.01381307,-0.0131352 -0.01521787,-0.0131249 -0.01521787,1.1235e-4 0,0.009911 9.4483e-4,0.0106699 0.0131421,0.0105461 L 0.09075701,0.56008151 0.07968952,0.54955727 Z m 0.39981036,0.001749 c 0,-0.008601 -8.9007e-4,-0.008893 -0.0182998,-0.006016 -0.0100648,0.001664 -0.022827,0.005597 -0.0283601,0.00874 -0.009562,0.005431 -0.008655,0.00573 0.0182997,0.006016 0.0270974,2.8668e-4 0.0283604,-1.0157e-4 0.0283604,-0.00874 z m 0.1051404,-0.0340323 c 0,-0.0236904 -9.3499e-4,-0.0424178 -0.002077,-0.0416164 -0.001139,8.0041e-4 -0.0186008,0.0142561 -0.038799,0.0298992 -0.0201982,0.0156431 -0.0416758,0.0297338 -0.0477282,0.0313125 -0.009273,0.002418 -0.0110043,0.004491 -0.0110043,0.0131742 l 0,0.0103038 0.0498034,0 0.0498033,0 0,-0.0430735 z m 0.0276685,0.0329359 0.0124508,-0.005736 7.9432e-4,-0.0390524 7.9431e-4,-0.0390524 -0.0167049,0 -0.0167049,0 0,0.0448534 c 0,0.0496877 -7.1784e-4,0.0482414 0.0193678,0.0389876 z m -0.50633413,-0.017629 0,-0.0149512 -0.01993732,0 -0.0199374,0 0.01509509,0.0145165 c 0.02024513,0.019469 0.02477918,0.0195486 0.02477918,4.3443e-4 z m 0.10790731,0 0,-0.0149512 -0.0511868,0 -0.0511869,0 0,0.0149512 0,0.0149511 0.0511869,0 0.0511868,0 0,-0.0149511 z m 0.1051404,0 0,-0.0149512 -0.0511868,0 -0.051187,0 0,0.0149512 0,0.0149511 0.051187,0 0.0511868,0 0,-0.0149511 z m 0.10085993,0.009994 c 0.004629,-0.003256 0.007047,-0.008387 0.007047,-0.0149512 l 0,-0.009994 -0.0511867,0 -0.0511868,0 0,0.0149512 0,0.0149511 0.0441395,0 c 0.0276034,0 0.0467796,-0.001856 0.0511867,-0.004958 z m 0.34944546,-0.0554268 0.0117591,-0.004706 0,-0.0205638 c 0,-0.0238475 0.002342,-0.0218796 -0.0381575,-0.0320662 -0.0402574,-0.0101252 -0.0547294,-0.007516 -0.0855816,0.0154384 l -0.025516,0.0189844 -8.141e-5,0.0390822 -8.138e-5,0.0390821 0.062946,-0.0252715 c 0.0346203,-0.0138993 0.0682376,-0.0273894 0.074705,-0.0299778 z M 0.4723948,0.52616131 c 0.0120705,-0.002414 0.0225501,-0.005322 0.0232876,-0.00646 7.3712e-4,-0.001138 -0.0131848,-0.002071 -0.0309388,-0.002071 -0.0306736,0 -0.0322798,4.3441e-4 -0.0322798,0.008737 0,0.007477 0.001298,0.008409 0.008992,0.00646 0.004945,-0.001253 0.0188683,-0.004252 0.0309388,-0.006666 z m 0.40691586,-0.0121043 0.0415027,-0.0161571 8.1616e-4,-0.0307165 c 5.4232e-4,-0.0204542 -2.1619e-4,-0.0307166 -0.002262,-0.0307166 -0.003477,0 -0.05184,0.0185358 -0.0739443,0.0283383 l -0.014526,0.006442 0,0.0295992 c 0,0.0208931 0.001018,0.0295651 0.003459,0.0294835 0.001901,-6.4e-5 0.0221347,-0.007386 0.0449614,-0.0162728 z m -0.72076522,-0.0199216 0,-0.0149512 -0.0470366,0 -0.0470365,0 0,0.0149512 0,0.0149511 0.0470365,0 0.0470366,0 0,-0.0149511 z m 0.10790719,0 0,-0.0149512 -0.0511868,0 -0.0511867,0 0,0.0149512 0,0.0149511 0.0511867,0 0.0511868,0 0,-0.0149511 z m 0.10790731,0 0,-0.0149512 -0.0511868,0 -0.0511867,0 0,0.0149512 0,0.0149511 0.0511867,0 0.0511868,0 0,-0.0149511 z m 0.10790735,0 0,-0.0149512 -0.0511869,0 -0.0511867,0 0,0.0149512 0,0.0149511 0.0511867,0 0.0511869,0 0,-0.0149511 z m 0.0525701,0 0.0179846,-0.0145366 -0.0325105,-2.0731e-4 -0.0325105,-2.0731e-4 0,0.0149511 0,0.0149511 0.014526,-2.0731e-4 c 0.0109798,-1.5688e-4 0.0189164,-0.003756 0.0325105,-0.0147439 z m 0.28498582,-0.0272401 0.029052,-0.012213 -0.0193678,-0.002953 c -0.0106525,-0.001625 -0.0246594,-0.004529 -0.0311272,-0.006454 l -0.0117591,-0.003502 0,0.0187051 c 0,0.0102881 9.3498e-4,0.0186879 0.002074,0.0186672 0.001139,-2.137e-5 0.0151487,-0.005534 0.0311271,-0.0122509 z m -0.71384806,-0.0133416 0,-0.0170869 -0.02075149,0 -0.02075166,0 0,0.0170869 0,0.0170869 0.02075166,0 0.02075149,0 0,-0.0170869 z m 0.10790732,0 0,-0.0170869 -0.0511867,0 -0.0511869,0 0,0.0170869 0,0.0170869 0.0511869,0 0.0511867,0 0,-0.0170869 z m 0.1051404,0 0,-0.0170869 -0.0511868,0 -0.051187,0 0,0.0170869 0,0.0170869 0.051187,0 0.0511868,0 0,-0.0170869 z m 0.10790719,0 0,-0.0170869 -0.0511867,0 -0.0511868,0 0,0.0170869 0,0.0170869 0.0511868,0 0.0511867,0 0,-0.0170869 z m 0.10790734,0 0,-0.0170869 -0.0511868,0 -0.0511868,0 0,0.0170869 0,0.0170869 0.0511868,0 0.0511868,0 0,-0.0170869 z m 0.0404845,0.008196 c 0.005341,-0.005096 0.009319,-0.0123903 0.009319,-0.0170871 0,-0.007396 -0.00216,-0.008196 -0.0221347,-0.008196 l -0.0221351,0 0,0.0170869 0,0.0170869 0.0128161,0 c 0.008154,0 0.0162057,-0.003234 0.0221347,-0.008892 z M 0.637155,0.44241101 c 0.009139,-0.005646 0.0111234,-0.008928 0.0111234,-0.0183985 l 0,-0.0115272 -0.0276685,0.0108864 c -0.0218849,0.00861 -0.0276685,0.0124567 -0.0276685,0.0183985 0,0.006331 0.0026,0.007512 0.0165451,0.007512 0.0091,0 0.0215505,-0.003092 0.0276685,-0.006872 z m 0.27189929,-0.0112491 c 0.009821,-0.003516 0.0131421,-0.006695 0.0131421,-0.0125772 0,-0.007059 -0.00178,-0.006491 -0.0172929,0.005512 -0.0178399,0.0138062 -0.0242226,0.0203475 -0.0145258,0.0148873 0.003046,-0.001713 0.0114475,-0.005234 0.018676,-0.007822 z m -0.0615625,0.001717 c 0,-0.001973 0.009027,-0.006008 0.0200598,-0.008968 0.0202423,-0.00543 0.0354428,-0.013703 0.0301667,-0.0164183 -0.001574,-8.0962e-4 -0.007548,5.2705e-4 -0.0132783,0.002969 -0.007226,0.003081 -0.0109648,0.003075 -0.0122026,-1.709e-5 -0.001209,-0.003019 -0.004819,-0.003111 -0.01119,-2.8447e-4 -0.005173,0.002296 -0.007849,0.004347 -0.005947,0.004559 0.008136,9.0666e-4 0.002492,0.008184 -0.0083,0.0107042 -0.0168545,0.003935 -0.022992,0.0108906 -0.009684,0.0109744 0.005707,3.383e-5 0.0103756,-0.001548 0.0103756,-0.003521 z m -0.0284178,-0.003266 c -9.1886e-4,-0.00142 -0.003306,-0.001572 -0.005303,-3.3739e-4 -0.002208,0.001363 -0.001551,0.002376 0.001671,0.00258 0.002916,1.8538e-4 0.00455,-8.2451e-4 0.003632,-0.002243 z m -0.66052854,-0.0187778 0,-0.0170869 -0.0470366,0 -0.0470365,0 0,0.0170869 0,0.0170869 0.0470365,0 0.0470366,0 0,-0.0170869 z m 0.10790718,0 0,-0.0170869 -0.0511867,0 -0.0511867,0 0,0.0170869 0,0.0170869 0.0511867,0 0.0511867,0 0,-0.0170869 z m 0.10790733,0 0,-0.0170869 -0.0511868,0 -0.0511868,0 0,0.0170869 0,0.0170869 0.0511868,0 0.0511868,0 0,-0.0170869 z m 0.10790734,0 0,-0.0170869 -0.0511869,0 -0.0511868,0 0,0.0170869 0,0.0170869 0.0511868,0 0.0511869,0 0,-0.0170869 z m 0.1023735,0 0,-0.0170869 -0.04842,0 -0.0484198,0 0,0.0170869 0,0.0170869 0.0484198,0 0.04842,0 0,-0.0170869 z m 0.0138344,-0.004776 c 0,-0.0103038 -0.001098,-0.016039 -0.002766,-0.0144468 -0.001522,0.001451 -0.002766,0.0103289 -0.002766,0.0197269 0,0.0103038 0.001098,0.016039 0.002766,0.0144469 0.001522,-0.001451 0.002766,-0.0103289 0.002766,-0.0197269 z m 0.0699733,0.0122516 c 0.0100578,-0.008299 0.0159951,-0.009652 0.0434677,-0.009911 0.0429887,-4.0576e-4 0.0470365,-0.002448 0.0470365,-0.0237391 0,-0.0160866 -2.8202e-4,-0.0165967 -0.007609,-0.013775 -0.0796341,0.0306696 -0.0961683,0.0388185 -0.0970322,0.0478221 -0.001101,0.0114785 -2.2485e-4,0.0114537 0.0141368,-3.9694e-4 z m 0.13989463,0.004922 c 0.007715,-0.004153 0.008713,-0.006552 0.008713,-0.0209528 l 0,-0.016263 -0.0330623,0.0133374 c -0.0181842,0.007336 -0.0326963,0.0139024 -0.0322489,0.0145931 9.8872e-4,0.00153 0.0372675,0.0127801 0.0434552,0.0134768 0.002438,2.7565e-4 0.00835,-0.001612 0.0131425,-0.004191 z m -0.1052522,-0.0564427 c 5.9019e-4,-0.0108446 -2.7206e-4,-0.0157387 -0.002766,-0.0156932 -0.001994,3.383e-5 -0.0241694,0.008384 -0.0492786,0.0185501 l -0.0456531,0.0184841 -8.3287e-4,0.0171041 -8.3286e-4,0.0171041 0.04925,-0.019895 0.04925,-0.0198949 8.5793e-4,-0.0157592 z m 0.16653583,0.0318861 0.0401194,-0.0163385 8.2902e-4,-0.0171303 8.2901e-4,-0.0171304 -0.0437162,0.0176443 -0.0437162,0.0176443 -8.5794e-4,0.0158704 c -5.9018e-4,0.0109296 2.6958e-4,0.0158561 0.002766,0.0158245 0.001994,-2.495e-5 0.0216795,-0.007399 0.043745,-0.0163848 z m -0.0523075,-0.0205698 0.0495407,-0.0199137 0,-0.0168944 c 0,-0.0154598 -5.2958e-4,-0.0166688 -0.006225,-0.0142367 -0.003424,0.001462 -0.0264581,0.0106703 -0.0511867,0.0204632 l -0.0449614,0.0178056 0,0.0163449 c 0,0.00899 7.4033e-4,0.0163448 0.001646,0.0163448 9.0633e-4,0 0.0239394,-0.008961 0.0511868,-0.0199137 z m 0.10203069,0.0158088 c 0.00581,-0.005675 0.002776,-0.008345 -0.006401,-0.005625 -0.005662,0.00168 -0.006824,0.003347 -0.004152,0.005965 0.004672,0.004568 0.005553,0.00454 0.0105503,-3.418e-4 z m -0.8133747,-0.0257973 0,-0.0170869 -0.0207514,0 -0.02075167,0 0,0.0170869 0,0.0170869 0.02075167,0 0.0207514,0 0,-0.0170869 z m 0.10738255,0.001068 -8.5793e-4,-0.0160192 -0.0504951,-0.001165 -0.0504951,-0.001165 0,0.0171832 0,0.0171832 0.0513537,0 0.0513539,0 -8.5793e-4,-0.016019 z m 0.10566517,-0.001068 0,-0.0170869 -0.0511868,0 -0.051187,0 0,0.0170869 0,0.0170869 0.051187,0 0.0511868,0 0,-0.0170869 z m 0.10790719,0 0,-0.0170869 -0.0511867,0 -0.0511868,0 0,0.0170869 0,0.0170869 0.0511868,0 0.0511867,0 0,-0.0170869 z m 0.10790734,0 0,-0.0170869 -0.0511867,0 -0.0511868,0 0,0.0170869 0,0.0170869 0.0511868,0 0.0511867,0 0,-0.0170869 z m 0.0498033,0 0,-0.0170869 -0.0221347,0 -0.0221351,0 0,0.0170869 0,0.0170869 0.0221351,0 0.0221347,0 0,-0.0170869 z m 0.0408111,0.003852 0.0228266,-0.009464 0,-0.0167047 c 0,-0.0138878 -8.168e-4,-0.0163389 -0.004842,-0.0145353 -0.002663,0.001193 -0.0104448,0.004335 -0.0172929,0.006984 -0.0359828,0.0139112 -0.0332022,0.0113719 -0.0332022,0.0303214 0,0.014371 8.0072e-4,0.0168516 0.004841,0.0150365 0.002663,-0.001195 0.015114,-0.006432 0.0276685,-0.0116375 z M 0.81498136,0.3382399 c 0.001139,-1.281e-5 0.002074,-0.007714 0.002074,-0.0171113 0,-0.009398 -6.1571e-4,-0.0170869 -0.001368,-0.0170869 -0.001665,0 -0.0717687,0.0279526 -0.0920117,0.0366879 -0.0143209,0.006179 -0.014526,0.006502 -0.014526,0.0227952 l 0,0.016527 0.0518785,-0.0208937 c 0.0285334,-0.0114916 0.0528123,-0.0209047 0.0539537,-0.020918 z m 0.10721561,0.0208302 c 0,-0.0103038 -0.001099,-0.0160391 -0.002764,-0.0144469 -0.001523,0.001451 -0.002764,0.0103289 -0.002764,0.0197271 0,0.0103038 0.001099,0.016039 0.002764,0.0144469 0.001523,-0.001451 0.002764,-0.0103289 0.002764,-0.0197269 z m -0.20959542,-0.0218178 0.0463387,-0.0182599 5.53e-6,-0.0160192 c 2.8e-6,-0.00881 -9.2872e-4,-0.0160429 -0.002071,-0.0160719 -0.001139,-3.03e-5 -0.0247979,0.008922 -0.0525701,0.0198917 l -0.0504951,0.0199447 0,0.0169164 c 0,0.0154445 5.4234e-4,0.0166962 0.006225,0.0143871 0.003424,-0.001392 0.0270776,-0.0107461 0.0525639,-0.020789 z m 0.19091909,0.006447 0.018676,-0.007136 0,-0.0162611 c 0,-0.008944 -6.6836e-4,-0.0162611 -0.001485,-0.0162611 -8.1616e-4,0 -0.012022,0.004081 -0.0249019,0.009068 l -0.0234182,0.009068 0,0.0170607 c 0,0.015654 5.1363e-4,0.0168355 0.006225,0.0143291 0.003426,-0.001501 0.0146298,-0.005943 0.0249019,-0.009867 z m -0.74497515,-0.0140279 0,-0.0170871 -0.0470366,0 -0.04703649,0 0,0.0170871 0,0.0170869 0.04703649,0 0.0470366,0 0,-0.0170869 z m 0.10790718,0 0,-0.0170871 -0.0511868,0 -0.0511867,0 0,0.0170871 0,0.0170869 0.0511867,0 0.0511868,0 0,-0.0170869 z m 0.10790732,0 0,-0.0170871 -0.0511867,0 -0.0511868,0 0,0.0170871 0,0.0170869 0.0511868,0 0.0511867,0 0,-0.0170869 z m 0.10790735,0 0,-0.0170871 -0.0511869,0 -0.0511868,0 0,0.0170871 0,0.0170869 0.0511868,0 0.0511869,0 0,-0.0170869 z m 0.10237349,0 0,-0.0170871 -0.04842,0 -0.0484198,0 0,0.0170871 0,0.0170869 0.0484198,0 0.04842,0 0,-0.0170869 z m 0.0138344,-0.004272 c 0,-0.009398 -0.001244,-0.0170871 -0.002766,-0.0170871 -0.001522,0 -0.002766,0.007689 -0.002766,0.0170871 0,0.009398 0.001244,0.0170869 0.002766,0.0170869 0.001522,0 0.002766,-0.007689 0.002766,-0.0170869 z m 0.0466778,-0.002446 c 0.0207412,-0.008394 0.0423803,-0.017118 0.0480869,-0.0193876 0.009852,-0.003918 0.0103756,-0.005004 0.0103756,-0.0215056 0,-0.0121074 -0.00105,-0.0167813 -0.003459,-0.0154074 -0.001901,0.001085 -0.0243137,0.0102432 -0.0498033,0.020353 l -0.0463448,0.0183812 0,0.0164139 c 0,0.009027 7.7181e-4,0.0164139 0.001717,0.0164139 9.4394e-4,0 0.0186864,-0.006868 0.0394276,-0.0152613 z m 0.22517936,-0.007951 c 0.020932,-0.008378 0.0386744,-0.0152332 0.0394276,-0.0152332 7.5191e-4,0 0.001368,-0.007818 0.001368,-0.0173749 0,-0.014525 -7.9688e-4,-0.0170196 -0.004839,-0.0152085 -0.002667,0.001191 -0.0225845,0.009292 -0.0442696,0.0180014 l -0.0394277,0.015835 0,0.0167484 c 0,0.0139189 8.1681e-4,0.0163865 0.004842,0.0146068 0.002663,-0.001177 0.0219682,-0.008997 0.0429001,-0.0173747 z m -0.005547,-0.0391349 c 0.003517,-0.001674 0.004842,-0.006815 0.004842,-0.0187812 l 0,-0.0164765 -0.0421945,0.016942 c -0.0232069,0.009319 -0.0468637,0.0188586 -0.0525702,0.0212007 -0.009735,0.003996 -0.0103758,0.005283 -0.0103758,0.0208454 l 0,0.0165868 0.0477284,-0.0190065 c 0.0262504,-0.0104535 0.0499071,-0.0200437 0.0525703,-0.0213109 z m -0.75880949,0.0153583 0,-0.0128152 -0.0207514,0 -0.02075167,0 0,0.0128152 0,0.0128152 0.02075167,0 0.0207514,0 0,-0.0128152 z m 0.10514044,0 0,-0.0128152 -0.0498034,0 -0.0498033,0 0,0.0128152 0,0.0128152 0.0498033,0 0.0498034,0 0,-0.0128152 z m 0.10790731,0 0,-0.0128152 -0.0511868,0 -0.0511869,0 0,0.0128152 0,0.0128152 0.0511869,0 0.0511868,0 0,-0.0128152 z m 0.10790718,0 0,-0.0128152 -0.0511867,0 -0.0511867,0 0,0.0128152 0,0.0128152 0.0511867,0 0.0511867,0 0,-0.0128152 z m 0.10790735,0 0,-0.0128152 -0.0511868,0 -0.0511868,0 0,0.0128152 0,0.0128152 0.0511868,0 0.0511868,0 0,-0.0128152 z m 0.0498033,0 0,-0.0128152 -0.0221347,0 -0.0221347,0 0,0.0128152 0,0.0128152 0.0221347,0 0.0221347,0 0,-0.0128152 z m 0.0380443,-7.7208e-4 0.0255933,-0.009453 0,-0.0145674 c 0,-0.0118451 -8.6435e-4,-0.0140565 -0.004615,-0.0118332 -0.002539,0.001503 -0.014989,0.006751 -0.0276688,0.0116608 -0.0222125,0.008601 -0.0230539,0.009375 -0.0230539,0.0212177 0,0.006759 9.3499e-4,0.0123217 0.002074,0.0123594 0.001139,3.826e-5 0.0135922,-0.004185 0.0276685,-0.009384 z m 0.14180111,-0.0155676 0.051187,-0.0205442 8.5793e-4,-0.015732 c 5.902e-4,-0.0108109 -2.7578e-4,-0.0157217 -0.002766,-0.0156985 -0.001994,1.709e-5 -0.0266597,0.009279 -0.0548125,0.0205777 l -0.0511868,0.0205442 -8.5793e-4,0.015732 c -5.9019e-4,0.0108109 2.758e-4,0.0157217 0.002766,0.0156985 0.001994,-1.712e-5 0.0266597,-0.009278 0.0548123,-0.0205777 z m 0.15771069,0.003169 c 0,-0.0222569 -0.006543,-0.020781 -0.007776,0.001753 -6.555e-4,0.011934 1.7519e-4,0.0156888 0.003458,0.0156888 0.003207,0 0.004318,-0.004486 0.004318,-0.017443 z M 0.74857713,0.23962312 c 0.009033,-0.003708 0.0103755,-0.005895 0.0103755,-0.0169092 0,-0.006958 -9.3498e-4,-0.0126999 -0.002077,-0.0127601 -0.001139,-5.912e-5 -0.0247979,0.00905 -0.0525701,0.0202461 l -0.0504951,0.0203554 0,0.0136054 0,0.0136053 0.0421945,-0.016942 c 0.0232069,-0.009319 0.0468635,-0.0188586 0.0525701,-0.0212007 z m 0.16877802,0.0148232 c 0.003515,-0.001624 0.004839,-0.006719 0.004839,-0.0185547 l 0,-0.0163134 -0.0242098,0.009373 -0.0242098,0.009373 -8.4571e-4,0.0177013 -8.4572e-4,0.0177013 0.0202122,-0.008519 c 0.0111165,-0.004685 0.0223911,-0.009528 0.0250542,-0.0107602 z M 0.74650195,0.20174045 0.90144581,0.13796083 0.6558862,0.13770282 0.41032654,0.13744481 0.25469251,0.19950715 c -0.0855987,0.0341343 -0.1568792,0.0628168 -0.158401,0.063739 -0.0015216,9.2155e-4 0.10929069,0.00181 0.24624996,0.001976 l 0.24901685,2.999e-4 0.15494363,-0.0637795 z m 0.16461684,-0.001288 c 5.53e-6,-0.0100656 -0.001273,-0.0159565 -0.003451,-0.0158509 -0.001902,9.393e-5 -0.0215125,0.007484 -0.0435779,0.0164249 l -0.0401194,0.0162567 -8.3608e-4,0.017244 -8.3608e-4,0.0172437 0.0444018,-0.0176497 0.0444018,-0.0176497 1.106e-5,-0.0160192 z m -0.0491006,-0.006017 c 0.006485,-0.002152 0.007609,-0.004669 0.007609,-0.0170252 0,-0.013679 -4.3067e-4,-0.0143329 -0.007609,-0.0115684 -0.0529978,0.0204093 -0.0958617,0.0400218 -0.0978013,0.0447492 -0.001327,0.003234 -0.002431,0.009978 -0.002453,0.0149865 -4.072e-5,0.008902 9.9857e-4,0.008683 0.0463024,-0.009755 0.0254895,-0.0103738 0.0497688,-0.0199979 0.0539537,-0.0213875 z m 0.0596544,0.001416 c 6.555e-4,-0.0119341 -1.7519e-4,-0.0156888 -0.003458,-0.0156888 -0.003207,0 -0.004318,0.004486 -0.004318,0.017443 0,0.0222569 0.006543,0.020781 0.007776,-0.001753 z m -0.0181515,-0.0181582 c 0.0186161,-0.00709 0.0186759,-0.007161 0.0186759,-0.0220428 0,-0.0134305 -6.253e-4,-0.0146603 -0.006227,-0.0122457 -0.003426,0.001477 -0.0140071,0.005778 -0.0235183,0.009561 -0.017005,0.006762 -0.0172929,0.007122 -0.0172929,0.0215963 0,0.0120234 8.8685e-4,0.0143097 0.004846,0.0124818 0.002661,-0.001231 0.0132463,-0.005439 0.0235183,-0.009351 z" id="path4698" inkscape:connector-curvature="0" />
</svg>