<?xml version="1.0" encoding="utf-8" standalone="no"?>
<svg xmlns:dc="http://purl.org/dc/elements/1.1/" xmlns:cc="http://creativecommons.org/ns#" xmlns:rdf="http://www.w3.org/1999/02/22-rdf-syntax-ns#" xmlns:svg="http://www.w3.org/2000/svg" xmlns="http://www.w3.org/2000/svg" xmlns:sodipodi="http://sodipodi.sourceforge.net/DTD/sodipodi-0.dtd" xmlns:inkscape="http://www.inkscape.org/namespaces/inkscape" height="1" version="1.1" width="1" id="svg2" inkscape:version="0.91 r13725" sodipodi:docname="Paraconformity.svg">
  <metadata id="metadata8">
    <rdf:RDF>
      <cc:Work rdf:about="">
        <dc:format>image/svg+xml</dc:format>
        <dc:type rdf:resource="http://purl.org/dc/dcmitype/StillImage" />
        <dc:title></dc:title>
      </cc:Work>
    </rdf:RDF>
  </metadata>
  <defs id="defs6">
    <pattern width="1" height="1" id="Paraconformity" patternContentUnits="objectBoundingBox">
      <path style="fill:#000000" d="m 0.0558986,0.59073397 c 0,-0.16911588 4.5654e-4,-0.30748339 0.0010089,-0.30748339 5.5698e-4,0 0.07864499,-0.0318437 0.17353082,-0.0707636 l 0.17251936,-0.0707636 0.26552291,-2.167e-5 0.26552293,-2.168e-5 -3.862e-5,0.28868048 -3.853e-5,0.2886805 -0.17242904,0.0895906 -0.17242903,0.0895905 -0.26658643,0 -0.26658637,0 z m 0.03623922,0.27208965 0,-0.0221213 -0.0153322,0 -0.01533222,0 0,0.0221213 0,0.0221208 0.01533222,0 0.0153322,0 z m 0.1282315,0 0,-0.0221213 -0.0613281,0 -0.0613281,0 0,0.0221213 0,0.0221208 0.0613281,0 0.0613281,0 z m 0.12544394,0 0,-0.0221213 -0.0613282,0 -0.0613281,0 0,0.0221213 0,0.0221208 0.0613281,0 0.0613282,0 z m 0.12544386,0 0,-0.0221213 -0.0599343,0 -0.0599342,0 0,0.0221213 0,0.0221208 0.0599342,0 0.0599343,0 z m 0.11708099,0 0,-0.0221213 -0.0557529,0 -0.0557529,0 0,0.0221213 0,0.0221208 0.0557529,0 0.0557529,0 z m 0.0599343,-0.005789 c 0.0106426,-0.005836 0.0111892,-0.007052 0.0120001,-0.0267072 4.6566e-4,-0.0113262 -1.5952e-4,-0.0205656 -0.001392,-0.0205325 -0.001233,3.569e-5 -0.0160422,0.006623 -0.0329075,0.0146442 l -0.0306641,0.0145836 -8.3438e-4,0.022671 -8.3439e-4,0.022671 0.0217432,-0.010608 c 0.0119589,-0.005835 0.0267617,-0.01336 0.0328893,-0.0167221 z m 0.0731737,-0.0388192 0.0508764,-0.0269126 0,-0.0173295 c 0,-0.009532 -8.7657e-4,-0.0173295 -0.001945,-0.0173295 -0.001903,0 -0.0221637,0.009469 -0.0768039,0.0358993 l -0.0271798,0.0131469 0,0.0197191 c 0,0.0108454 9.4219e-4,0.0197186 0.002091,0.0197186 0.001148,0 0.0249828,-0.0121109 0.052962,-0.0269121 z m -0.57076779,-0.0106928 0,-0.0243336 -0.044602,0 -0.04460251,0 0,0.0243336 0,0.0243336 0.04460251,0 0.044602,0 z m 0.12544385,0 0,-0.0243336 -0.0599342,0 -0.0599343,0 0,0.0243336 0,0.0243336 0.0599343,0 0.0599342,0 z m 0.12823159,0 0,-0.0243336 -0.0613281,0 -0.0613281,0 0,0.0243336 0,0.0243336 0.0613281,0 0.0613281,0 z m 0.12544385,0 0,-0.0243336 -0.0613282,0 -0.0613281,0 0,0.0243336 0,0.0243336 0.0613281,0 0.0613282,0 z m 0.0585406,0 0,-0.0243336 -0.0264828,0 -0.0264828,0 0,0.0243336 0,0.0243336 0.0264828,0 0.0264828,0 z m 0.020411,0.0172811 0.0130408,-0.007053 0,-0.0237058 0,-0.0237058 -0.0132414,0.006378 c -0.007283,0.003508 -0.013555,0.006398 -0.013938,0.006425 -0.001041,7.149e-5 -8.3908e-4,0.0487146 2.0119e-4,0.0487146 4.9219e-4,0 0.006766,-0.003173 0.0139375,-0.007053 z m 0.0643729,-0.0306053 c 0.0228663,-0.010922 0.0419967,-0.0198579 0.0425119,-0.0198579 5.1095e-4,0 9.3751e-4,-0.0105964 9.3751e-4,-0.0235472 l 0,-0.0235472 -0.04458,0.0202285 -0.04458,0.0202285 -1.973e-5,0.0232272 c -9.94e-6,0.0127751 9.1876e-4,0.0232041 0.002067,0.023176 0.001148,-2.676e-5 0.0207996,-0.008987 0.0436631,-0.019908 z m 0.16329515,-0.035549 0.0557743,-0.0289635 0,-0.0152786 c 0,-0.008404 -8.0157e-4,-0.0152786 -0.001781,-0.0152786 -9.7969e-4,0 -0.0138381,0.005819 -0.028573,0.012931 l -0.0553649,0.0267353 -0.0285734,0.0138038 0,0.0175068 c 0,0.009629 6.1407e-4,0.0175068 0.001373,0.0175068 7.547e-4,0 0.0264706,-0.0130339 0.0571448,-0.028963 z m -0.744279,-0.008642 0,-0.0243336 -0.0153322,0 -0.01533222,0 0,0.0243336 0,0.0243336 0.01533222,0 0.0153322,0 z m 0.12823149,0 0,-0.0243336 -0.0613281,0 -0.061328,0 0,0.0243336 0,0.0243336 0.061328,0 0.0613281,0 z m 0.12544395,0 0,-0.0243336 -0.0613282,0 -0.0613282,0 0,0.0243336 0,0.0243336 0.0613282,0 0.0613282,0 z m 0.12544386,0 0,-0.0243336 -0.0599344,0 -0.0599342,0 0,0.0243336 0,0.0243336 0.0599342,0 0.0599344,0 z m 0.11708102,0 0,-0.0243336 -0.0557529,0 -0.0557529,0 0,0.0243336 0,0.0243336 0.0557529,0 0.0557529,0 z m 0.0446123,0.007335 0.026472,-0.0121616 8.297e-4,-0.0250639 8.2969e-4,-0.0250634 -0.0147709,0.006783 c -0.008124,0.003734 -0.0232385,0.0107044 -0.0335877,0.0154973 l -0.0188163,0.008715 0,0.0242301 c 0,0.0278648 -0.004477,0.0270553 0.0390435,0.007063 z M 0.77511016,0.7455972 c 0.0237645,-0.0112286 0.0472853,-0.0224501 0.0522683,-0.0249372 0.008608,-0.004295 0.00906,-0.005606 0.00906,-0.0262991 0,-0.0119776 -3.1481e-4,-0.021721 -6.9844e-4,-0.021651 -3.8419e-4,6.894e-5 -0.0257857,0.0115916 -0.0564498,0.0256047 l -0.0557529,0.0254781 -8.4844e-4,0.0234376 c -7.5939e-4,0.0208283 -2.9129e-4,0.0231782 0.004181,0.0211103 0.002766,-0.001277 0.024476,-0.0115145 0.0482399,-0.0227431 z m -0.004878,-0.0508326 c 0.001148,-3.568e-5 0.002091,-0.011243 0.002091,-0.0249097 0,-0.0215178 -6.5157e-4,-0.0245671 -0.004878,-0.0227459 -0.002686,0.001157 -0.0265156,0.0118416 -0.0529608,0.0237427 l -0.0480824,0.0216395 -5.53e-6,0.0248694 -5.58e-6,0.0248695 0.0508745,-0.023703 c 0.0279809,-0.0130367 0.0518153,-0.0237306 0.0529675,-0.0237625 z m 0.14675795,0.0216758 c 0.0104298,-0.004956 0.0114409,-0.006747 0.0114409,-0.0202247 0,-0.008131 -4.0154e-4,-0.0147841 -8.8595e-4,-0.0147841 -4.8751e-4,0 -0.007387,0.003062 -0.015332,0.006808 -0.0139005,0.006552 -0.0144442,0.007402 -0.0144442,0.0225944 0,0.0116918 0.001008,0.0151719 0.003891,0.0134167 0.002142,-0.001305 0.009039,-0.004819 0.0153306,-0.00781 z m -0.76631138,-0.0239487 0,-0.0243336 -0.044602,0 -0.04460251,0 0,0.0243336 0,0.0243331 0.04460251,0 0.044602,0 z m 0.12544386,0 0,-0.0243336 -0.0599342,0 -0.0599343,0 0,0.0243336 0,0.0243331 0.0599343,0 0.0599342,0 z m 0.12823159,0 0,-0.0243336 -0.0613281,0 -0.0613282,0 0,0.0243336 0,0.0243331 0.0613282,0 0.0613281,0 z m 0.1254439,0 0,-0.0243336 -0.0613282,0 -0.0613282,0 0,0.0243336 0,0.0243331 0.0613282,0 0.0613282,0 z m 0.0585405,0 0,-0.0243336 -0.0264828,0 -0.0264828,0 0,0.0243336 0,0.0243331 0.0264828,0 0.0264828,0 z m 0.0271794,0.0149466 c 0.00546,-0.003188 0.006272,-0.006806 0.006272,-0.0278984 l 0,-0.0242312 -0.0132414,0.006376 c -0.007283,0.003508 -0.013555,0.006398 -0.013938,0.006425 -3.8143e-4,2.676e-5 -6.9844e-4,0.0110359 -6.9844e-4,0.0244652 0,0.0244013 5.53e-6,0.0244156 0.007666,0.0214732 0.004219,-0.00162 0.0104884,-0.004593 0.0139394,-0.00661 z M 0.8589401,0.7060173 C 0.8657291,0.7025033 0.8841422,0.6934597 0.8998573,0.6859182 l 0.028573,-0.0137113 0,-0.0197186 c 0,-0.0128781 -0.001209,-0.019685 -0.003483,-0.0196211 -0.001917,5.369e-5 -0.0216738,0.008639 -0.0439055,0.0190792 L 0.840621,0.6709282 0.83977256,0.6916661 c -9.6564e-4,0.0235775 -2.471e-5,0.0242824 0.0191674,0.0143512 z M 0.71657021,0.63853855 c 0,-0.0129084 -9.422e-4,-0.0235252 -0.002091,-0.0235924 -0.001148,-6.747e-5 -0.0212187,0.008394 -0.0445978,0.0188027 l -0.0425072,0.018925 -5.62e-6,0.0248139 -5.63e-6,0.0248133 0.0446025,-0.0201459 0.044602,-0.0201465 z m 0.12410161,0.0238678 0.050126,-0.0230048 8.4376e-4,-0.0232272 c 5.4375e-4,-0.01494 -2.6766e-4,-0.0232272 -0.002269,-0.0232272 -0.002386,0 -0.06792,0.0288815 -0.10659619,0.0469798 -0.003877,0.001818 -0.004878,0.007251 -0.004878,0.0264022 0,0.0228621 3.2593e-4,0.0239878 0.006324,0.0216004 0.003478,-0.001382 0.0288805,-0.0128709 0.0564496,-0.0255232 z m -0.74853347,-0.0274288 0,-0.0243336 -0.0153319,0 -0.01533222,0 0,0.0243336 0,0.0243336 0.01533222,0 0.0153319,0 z m 0.12823151,0 0,-0.0243336 -0.0613282,0 -0.0613281,0 0,0.0243336 0,0.0243336 0.0613281,0 0.0613282,0 z m 0.12544394,0 0,-0.0243336 -0.0613282,0 -0.0613282,0 0,0.0243336 0,0.0243336 0.0613282,0 0.0613282,0 z m 0.12544385,0 0,-0.0243336 -0.0599343,0 -0.0599342,0 0,0.0243336 0,0.0243336 0.0599342,0 0.0599343,0 z m 0.11708102,0 0,-0.0243336 -0.0557528,0 -0.0557529,0 0,0.0243336 0,0.0243336 0.0557529,0 0.0557528,0 z m 0.0446124,0.007335 0.026472,-0.0121616 8.297e-4,-0.0250639 8.2969e-4,-0.0250634 -0.0147709,0.006783 c -0.008124,0.003734 -0.0232385,0.0107049 -0.0335877,0.0154978 l -0.0188168,0.008715 0,0.0242301 c 0,0.0278648 -0.004477,0.0270553 0.039044,0.007063 z m 0.14773455,-0.009431 c 0.0283639,-0.0127393 0.052584,-0.0246607 0.0538216,-0.0264924 0.001238,-0.001834 0.001861,-0.0132784 0.001392,-0.0254378 l -8.5782e-4,-0.0221078 -0.0557528,0.0252144 -0.0557529,0.0252142 -8.4376e-4,0.0255838 c -6.5157e-4,0.0196002 2.86e-6,0.0250694 0.002789,0.0233858 0.002002,-0.001212 0.0268414,-0.0126209 0.0552044,-0.0253602 z m 0.14774496,-0.0340268 c 0,-0.0129827 -9.4219e-4,-0.0235753 -0.002091,-0.0235378 -0.001148,3.568e-5 -0.007736,0.002737 -0.014635,0.006001 l -0.0125443,0.005932 -8.2501e-4,0.024435 -8.2501e-4,0.0244349 0.0154609,-0.00683 0.015461,-0.00683 z m -0.16656158,-0.015008 0.0104537,-0.004516 0,-0.0246789 c 0,-0.0213556 -6.5626e-4,-0.0243955 -0.004879,-0.0225752 -0.002686,0.001159 -0.0265156,0.0118414 -0.0529609,0.0237433 l -0.0480825,0.0216397 -5.48e-6,0.0248716 -5.58e-6,0.0248716 0.0425114,-0.0194228 c 0.0233815,-0.0106829 0.0472157,-0.0214539 0.0529686,-0.0239332 z m 0.1254439,2.0829e-4 0.0411178,-0.0190065 0,-0.0236564 c 0,-0.0130113 -9.422e-4,-0.0235994 -0.002091,-0.0235295 -0.001148,7.102e-5 -0.0209074,0.008737 -0.0439055,0.0192603 l -0.0418144,0.0191334 -8.4375e-4,0.0255462 c -6.4689e-4,0.0195484 5.57e-6,0.0250429 0.002789,0.0234023 0.002002,-0.001179 0.0221374,-0.0106967 0.0447474,-0.0211499 z m -0.73663441,-0.006593 0,-0.0243334 -0.0446021,0 -0.0446025,0 0,0.0243334 0,0.0243336 0.0446025,0 0.0446021,0 z m 0.12544385,0 0,-0.0243334 -0.0599342,0 -0.0599343,0 0,0.0243334 0,0.0243336 0.0599343,0 0.0599342,0 z m 0.12823159,0 0,-0.0243334 -0.0613282,0 -0.0613281,0 0,0.0243334 0,0.0243336 0.0613281,0 0.0613282,0 z m 0.1254439,0 0,-0.0243334 -0.0613282,0 -0.061328,0 0,0.0243334 0,0.0243336 0.061328,0 0.0613282,0 z m 0.0585405,0 0,-0.0243334 -0.0264828,0 -0.0264828,0 0,0.0243334 0,0.0243336 0.0264828,0 0.0264828,0 z m 0.0271794,0.0149466 c 0.005366,-0.003133 0.006272,-0.00688 0.006272,-0.0258976 0,-0.0243416 -6.0469e-4,-0.0249485 -0.0170997,-0.0171062 -0.0107692,0.005121 -0.0107772,0.005142 -0.0107772,0.0288417 0,0.0236375 2.967e-5,0.023707 0.007666,0.0207732 0.004219,-0.00162 0.0104884,-0.004593 0.0139384,-0.006611 z m 0.10105256,-0.0689009 c 0,-0.0129086 -3.121e-4,-0.0234042 -6.9845e-4,-0.0233229 -3.8143e-4,8.117e-5 -0.0201405,0.008767 -0.0439055,0.0193018 l -0.0432084,0.0191544 -8.2501e-4,0.024373 -8.2501e-4,0.0243727 0.0447309,-0.0202043 0.0447309,-0.0202045 z m 0.1233531,0.0249924 0.0522684,-0.0235845 0,-0.0234996 c 0,-0.0136513 -0.001242,-0.0234999 -0.002963,-0.0234999 -0.002278,0 -0.0687122,0.0293202 -0.10645051,0.0469799 -0.003886,0.00182 -0.004878,0.007271 -0.004878,0.0268341 0,0.021232 6.5625e-4,0.0242673 0.004878,0.0224529 0.002686,-0.001157 0.0283991,-0.0127113 0.0571447,-0.025683 z m -0.7449973,-0.008644 c 0,-0.007865 -0.001858,-0.008848 -0.0167261,-0.008848 -0.01486755,0 -0.01672607,9.8414e-4 -0.01672607,0.008848 0,0.007865 0.0018577,0.008848 0.01672607,0.008848 0.0148676,0 0.0167261,-9.8414e-4 0.0167261,-0.008848 z m 0.12544386,0 c 0,-0.00858 -0.001858,-0.008848 -0.0613282,-0.008848 -0.0594697,0 -0.0613281,2.6856e-4 -0.0613281,0.008848 0,0.00858 0.001858,0.008848 0.0613281,0.008848 0.0594697,0 0.0613282,-2.686e-4 0.0613282,-0.008848 z m 0.12544394,0 c 0,-0.008574 -0.001858,-0.008848 -0.0599343,-0.008848 -0.0580759,0 -0.0599344,2.7406e-4 -0.0599344,0.008848 0,0.008574 0.001858,0.008848 0.0599344,0.008848 0.0580758,0 0.0599343,-2.7406e-4 0.0599343,-0.008848 z m 0.12823149,0 c 0,-0.00858 -0.001858,-0.008848 -0.0613281,-0.008848 -0.0594697,0 -0.061328,2.6856e-4 -0.061328,0.008848 0,0.00858 0.001858,0.008848 0.061328,0.008848 0.0594696,0 0.0613281,-2.686e-4 0.0613281,-0.008848 z m 0.11429337,0 c 0,-0.008553 -0.001856,-0.008848 -0.0557528,-0.008848 -0.0538945,0 -0.0557529,2.9378e-4 -0.0557529,0.008848 0,0.008553 0.001858,0.008848 0.0557529,0.008848 0.0538944,0 0.0557528,-2.9378e-4 0.0557528,-0.008848 z m 0.0408229,-0.009401 c 0.0267734,-0.0116924 0.0316555,-0.0151771 0.0316555,-0.0225944 0,-0.006099 -0.001317,-0.00797 -0.004313,-0.006142 -0.002372,0.001444 -0.0174269,0.008102 -0.0334518,0.0147903 -0.0230815,0.009635 -0.0291364,0.013784 -0.0291364,0.0199664 0,0.004292 8.0626e-4,0.007803 0.001795,0.007803 9.8438e-4,0 0.0160413,-0.006221 0.0334499,-0.0138234 z m 0.15013037,-0.0119071 0.0557529,-0.0254781 8.3438e-4,-0.0228273 8.3438e-4,-0.0228274 -0.0245323,0.0108411 c -0.0134926,0.005962 -0.0392718,0.0171188 -0.0572872,0.0247915 l -0.0327542,0.0139505 0,0.0236402 c 0,0.0130024 3.1205e-4,0.0235836 6.9844e-4,0.0235138 3.8143e-4,-7.097e-5 0.0257857,-0.0115918 0.0564536,-0.0256044 z m 0.13781396,-0.005164 0.0113247,-0.00484 0,-0.0241626 c 0,-0.0132894 -9.422e-4,-0.0241325 -0.002091,-0.0240956 -0.001148,3.57e-5 -0.007736,0.002737 -0.014635,0.006 l -0.0125444,0.005932 -8.4376e-4,0.0255343 c -7.0313e-4,0.0211527 -1.3387e-4,0.0250997 0.003309,0.0230029 0.002288,-0.001392 0.009253,-0.004709 0.0154797,-0.007371 z m -0.841694,-0.0221949 c 0,-0.0206464 -4.6566e-4,-0.0221212 -0.006969,-0.0221212 -0.0065038,0 -0.0069691,0.001475 -0.0069691,0.0221212 0,0.0206464 4.6566e-4,0.0221211 0.0069691,0.0221211 0.006504,0 0.006969,-0.001474 0.006969,-0.0221211 z m 0.12544386,0 0,-0.0221212 -0.0599342,0 -0.0599343,0 0,0.0221212 0,0.0221211 0.0599343,0 0.0599342,0 z m 0.12823159,0 0,-0.0221212 -0.0613282,0 -0.0613282,0 0,0.0221212 0,0.0221211 0.0613282,0 0.0613282,0 z m 0.1254439,0 0,-0.0221212 -0.0613282,0 -0.0613281,0 0,0.0221212 0,0.0221211 0.0613281,0 0.0613282,0 z m 0.12544386,0 0,-0.0221212 -0.0599343,0 -0.0599342,0 0,0.0221212 0,0.0221211 0.0599342,0 0.0599343,0 z m 0.007572,-0.0121666 c -6.375e-4,-0.006692 -0.001158,-0.001217 -0.001158,0.0121666 0,0.0133833 5.2032e-4,0.0188582 0.001158,0.0121666 6.3751e-4,-0.006692 6.3751e-4,-0.0176416 0,-0.0243333 z m 0.13668849,0.009426 c 0.038834,-0.0169092 0.0480868,-0.0224226 0.0480868,-0.0286542 0,-0.007013 -0.002728,-0.006533 -0.0299675,0.005258 -0.0164819,0.007136 -0.0403162,0.0173312 -0.052965,0.0226561 -0.0184136,0.007752 -0.022998,0.0113279 -0.022998,0.01794 0,0.005777 0.001467,0.007579 0.004878,0.005999 0.002686,-0.001244 0.0265175,-0.011682 0.0529655,-0.0231978 z m -0.11517152,0.0161221 c 0.006329,-0.003818 0.007151,-0.006799 0.007151,-0.0259306 l 0,-0.021616 -0.0111503,0.004724 c -0.0110443,0.004679 -0.0111503,0.004926 -0.0111503,0.0259306 0,0.0228506 0.001852,0.0249164 0.0151492,0.0168924 z m 0.0789323,-0.0339482 0.0174227,-0.007056 0,-0.0219347 c 0,-0.0256203 0.004891,-0.0254216 -0.0487838,-0.001981 l -0.0334518,0.0146089 -8.3438e-4,0.0225297 -8.3439e-4,0.0225297 0.0245295,-0.0108215 c 0.0134917,-0.005952 0.0323703,-0.0139963 0.0419522,-0.0178762 z m 0.20102388,-0.002014 c 0.0209041,-0.009481 0.0383235,-0.0172386 0.0387093,-0.0172386 3.8424e-4,0 7.0313e-4,-0.009955 7.0313e-4,-0.0221211 0,-0.0121665 -3.1481e-4,-0.0220946 -6.9844e-4,-0.0220623 -3.8419e-4,3.062e-5 -0.020141,0.008672 -0.0439055,0.0192009 l -0.0432084,0.019142 -8.4845e-4,0.0232049 c -8.0626e-4,0.022046 -5.4844e-4,0.0230529 0.005196,0.0201588 0.003328,-0.001676 0.0231504,-0.0108034 0.0440522,-0.0202848 z m -0.0505885,-0.0303687 c 0.0279275,-0.0122448 0.0514482,-0.0222633 0.0522682,-0.0222633 8.2032e-4,0 0.001491,-0.003621 0.001491,-0.008046 0,-0.007239 -0.005732,-0.005574 -0.0571221,0.0165908 -0.0476095,0.0205337 -0.0571262,0.0259756 -0.0571466,0.0326771 -1.688e-5,0.005617 0.001448,0.007327 0.004853,0.005673 0.002686,-0.001302 0.0277283,-0.0123866 0.0556563,-0.0246316 z m -0.70447925,-0.002354 0,-0.0243332 -0.0362392,0 -0.03623921,0 0,0.0243332 0,0.0243333 0.03623921,0 0.0362392,0 z m 0.1282315,0 0,-0.0243332 -0.0613281,0 -0.0613281,0 0,0.0243332 0,0.0243333 0.0613281,0 0.0613281,0 z m 0.12544395,0 0,-0.0243332 -0.0613281,0 -0.0613282,0 0,0.0243332 0,0.0243333 0.0613282,0 0.0613281,0 z m 0.12544383,0 0,-0.0243332 -0.0599342,0 -0.0599343,0 0,0.0243332 0,0.0243333 0.0599343,0 0.0599342,0 z m 0.0752664,0 0,-0.0243332 -0.0348454,0 -0.0348454,0 0,0.0243332 0,0.0243333 0.0348454,0 0.0348454,0 z m 0.1742276,0.002236 c 0.0229981,-0.009921 0.0484004,-0.0210089 0.0564497,-0.0246393 l 0.014635,-0.006602 0,-0.0224708 c 0,-0.0161566 -9.7501e-4,-0.0218759 -0.003483,-0.0203533 -0.001917,0.001165 -0.0229287,0.0104777 -0.0466931,0.0206957 -0.0237645,0.0102183 -0.0497942,0.0215648 -0.0578435,0.0252151 l -0.014635,0.006637 0,0.0221053 c 0,0.01899 6.8438e-4,0.0217772 0.004878,0.0197776 0.002686,-0.00128 0.0236951,-0.010445 0.0466913,-0.0203651 z m -0.13798829,0.007217 0.0236951,-0.010319 8.2501e-4,-0.0244648 8.2501e-4,-0.0244648 -0.028003,0.0116252 -0.028003,0.0116252 -2.44e-6,0.0232272 c -1.59e-6,0.0156709 0.00113,0.0232048 0.003483,0.0231584 0.001917,-3.569e-5 0.0141475,-0.004712 0.0271803,-0.0103874 z m 0.094985,-0.0412402 0.0583352,-0.025151 0,-0.0213033 c 0,-0.0141295 -0.001172,-0.0212804 -0.003483,-0.0212353 -0.001917,3.956e-5 -0.0292006,0.010674 -0.0606312,0.0236366 l -0.0571467,0.0235684 -8.4376e-4,0.0228177 c -5.4845e-4,0.0147554 2.7052e-4,0.0228178 0.002297,0.0228178 0.001725,0 0.0293895,-0.011318 0.0614723,-0.025151 z m 0.19634805,5.1846e-4 c 0.009243,-0.002751 0.0153977,-0.0120934 0.0117648,-0.0178587 -0.003239,-0.005148 -0.0285397,0.0104235 -0.029495,0.0181553 -6.9375e-4,0.005605 2.7188e-4,0.007168 0.003286,0.005332 0.002348,-0.001429 0.008846,-0.003962 0.0144442,-0.005628 z M 0.07541205,0.37837168 c 0,-0.023006 -3.8144e-4,-0.0243333 -0.006969,-0.0243333 -0.0065887,0 -0.0069691,0.001327 -0.0069691,0.0243333 0,0.0230059 3.8139e-4,0.0243332 0.0069691,0.0243332 0.006589,0 0.006969,-0.001327 0.006969,-0.0243332 z m 0.1282315,0 0,-0.0243333 -0.0613282,0 -0.0613281,0 0,0.0243333 0,0.0243332 0.0613281,0 0.0613282,0 z m 0.12544395,0 0,-0.0243333 -0.0613282,0 -0.0613282,0 0,0.0243333 0,0.0243332 0.0613282,0 0.0613282,0 z m 0.12544389,0 0,-0.0243333 -0.0599343,0 -0.0599342,0 0,0.0243333 0,0.0243332 0.0599342,0 0.0599343,0 z m 0.12823156,0 0,-0.0243333 -0.0613282,0 -0.0613281,0 0,0.0243333 0,0.0243332 0.0613281,0 0.0613282,0 z m 0.004808,-0.0120874 c -6.1407e-4,-0.007952 -0.001139,-0.002513 -0.001153,0.0120874 -1.987e-5,0.0145999 4.922e-4,0.021106 0.00113,0.014458 6.3751e-4,-0.006647 6.5157e-4,-0.0185934 2.344e-5,-0.0265452 z m 0.0258565,0.001981 c 0,-0.0228408 -3.2593e-4,-0.0239668 -0.006272,-0.0214393 -0.00345,0.001467 -0.00784,0.002694 -0.009756,0.002729 -0.002386,3.956e-5 -0.003483,0.008269 -0.003483,0.0261916 l 0,0.0261313 0.009756,-0.004752 c 0.009591,-0.004671 0.009756,-0.005163 0.009755,-0.0288598 z m 0.27179506,0.016743 c 0.0222213,-0.009734 0.0410339,-0.0176969 0.0418054,-0.0176969 7.7345e-4,0 0.001402,-0.009955 0.001402,-0.0221211 0,-0.0121666 -7.172e-4,-0.0221211 -0.001594,-0.0221211 -8.7657e-4,0 -0.0209463,0.008318 -0.0446025,0.0184845 l -0.0430111,0.0184845 0,0.0213336 c 0,0.0117335 0.001261,0.0213336 0.002798,0.0213336 0.001538,0 0.0209777,-0.007964 0.0432019,-0.0176969 z m -0.22272664,-0.0118515 0.0401362,-0.0162759 0,-0.0235422 c 0,-0.0129482 -6.5625e-4,-0.0235422 -0.001458,-0.0235422 -8.0157e-4,0 -0.0196188,0.007215 -0.0418148,0.0160336 l -0.040357,0.0160335 0,0.0237843 c 0,0.0130814 7.5939e-4,0.0237843 0.001678,0.0237843 9.2344e-4,0 0.0197397,-0.007325 0.0418153,-0.0162756 z m 0.18020353,-0.0222982 0.0494692,-0.021153 1.087e-5,-0.0213131 c 1.092e-5,-0.0182046 -6.9844e-4,-0.0209872 -0.004867,-0.0190785 -0.008742,0.004005 -0.1043135,0.0426037 -0.10548656,0.0426037 -6.2345e-4,0 -0.001139,0.0101872 -0.001139,0.0226372 0,0.0212935 3.7449e-4,0.0224833 0.006272,0.0200471 0.00345,-0.001424 0.0285336,-0.012109 0.0557407,-0.0237434 z m -0.0682856,-0.0238114 0.0564497,-0.0230588 0,-0.0239394 c 0,-0.0207339 -6.5157e-4,-0.0236287 -0.004878,-0.0216192 -0.002686,0.001276 -0.0274583,0.0113403 -0.0550559,0.0223648 -0.0275975,0.0110247 -0.053,0.0212967 -0.0564498,0.0228273 -0.005523,0.002451 -0.006272,0.005664 -0.006272,0.026898 0,0.0208802 6.5157e-4,0.0238116 0.004878,0.0218509 0.002686,-0.001245 0.0302806,-0.012641 0.061328,-0.0253235 z m -0.63767319,-0.008403 0,-0.0265453 -0.0376331,0 -0.03763306,0 0,0.0265453 0,0.0265453 0.03763306,0 0.0376331,0 z m 0.1282315,0 0,-0.0265453 -0.061328,0 -0.0613282,0 0,0.0265453 0,0.0265453 0.0613282,0 0.061328,0 z m 0.12544394,0 0,-0.0265453 -0.0613281,0 -0.0613282,0 0,0.0265453 0,0.0265453 0.0613282,0 0.0613281,0 z m 0.12544389,0 0,-0.0265453 -0.0599342,0 -0.0599343,0 0,0.0265453 0,0.0265453 0.0599343,0 0.0599342,0 z m 0.0724788,0 0,-0.0265453 -0.0334518,0 -0.0334518,0 0,0.0265453 0,0.0265453 0.0334518,0 0.0334518,0 z m 0.0613281,-0.0234731 c 0,-0.0224589 -6.2813e-4,-0.0255025 -0.004878,-0.0235667 -0.002686,0.001223 -0.015227,0.006552 -0.0278764,0.0118434 l -0.022998,0.009621 0,0.0256093 0,0.0256093 0.0278764,-0.011663 0.0278764,-0.011663 z m 0.26691668,0.023521 c 0.0117147,-0.004759 0.0118473,-0.005034 0.0118473,-0.0245517 0,-0.0216722 -3.495e-4,-0.0219546 -0.0182791,-0.014789 l -0.012385,0.004949 0,0.021457 c 0,0.0152055 0.001013,0.0209166 0.003483,0.0196023 0.001917,-0.00102 0.008815,-0.00402 0.0153339,-0.006668 z M 0.7221455,0.29216283 0.7737169,0.27167016 0.77455597,0.2437185 c 6.422e-4,-0.0214673 -2.3e-6,-0.0274721 -0.002789,-0.025885 -0.001997,0.001136 -0.0290291,0.0126827 -0.0600765,0.0256578 l -0.0564497,0.0235911 0,0.0258651 0,0.025865 0.007666,-0.003079 c 0.004219,-0.001693 0.0308731,-0.0123002 0.0592384,-0.0235707 z m 0.16656163,-0.0117182 0.0397242,-0.0161978 0,-0.0231021 0,-0.0231021 -0.0459961,0.018119 -0.0459961,0.0181189 0,0.0238493 c 0,0.0225738 3.3704e-4,0.0237066 0.006273,0.021181 0.00345,-0.001468 0.0241479,-0.009958 0.0459952,-0.0188662 z m -0.14350072,-0.0624514 0.15548238,-0.0652573 -0.24640026,-0.00113 -0.24640036,-0.00113 -0.15717802,0.064355 c -0.086448,0.0353952 -0.15843248,0.0651123 -0.15996566,0.0660379 -0.001534,9.2632e-4 0.1101099,0.001839 0.24809586,0.002032 l 0.25088374,3.4969e-4 z M 0.8921918,0.19594191 c 0,-0.0248724 -5.9531e-4,-0.0280452 -0.004878,-0.0260789 -0.002686,0.00123 -0.0277719,0.0117346 -0.0557529,0.0233408 l -0.0508744,0.0211021 0,0.0273781 0,0.027378 0.0557528,-0.0224013 0.0557529,-0.0224012 z m 0.0278764,0.0166075 c 0.006359,-0.002648 0.007042,-0.005297 0.007799,-0.0302516 9.1876e-4,-0.0301926 0.001125,-0.0299293 -0.0177152,-0.0224004 l -0.012385,0.004949 0,0.0283165 0,0.0283164 0.007666,-0.003014 c 0.004219,-0.001658 0.010802,-0.004321 0.0146345,-0.005916 z M 0.939582,0.37615905 c 0,-0.002433 0.001256,-0.004425 0.002789,-0.004425 0.001533,0 0.002789,0.001991 0.002789,0.004425 0,0.002434 -0.001256,0.004425 -0.002789,0.004425 -0.001533,0 -0.002789,-0.001991 -0.002789,-0.004425 z" id="path4618" inkscape:connector-curvature="0" sodipodi:nodetypes="ssscccccccccsccccccccccccccccccccccccccccccccccccccccccccccccscccccccssscssccccccccccccccccccccccccccccccccccccccccccccccccccccsccssccccccccsscccsscccccccccccccccccccccccccccccccccccccccccccccccccccscscscscscccscscscccsccsscsccccccccccccccccccccccccccccccccccccccccccccccccscccscccscscscccccsccccccccsscsccccccccccccccccccccccccccccccccccccccccccccccccccccscscscccccccscccccccccccscscccscccscsccccccccccccccccccccccccccccccccccccccccccccccccccscsccccsccccccccsscsccssssssssssssssssssssssssscsccssccccccscsccccsccccccsssssccccccccccccccccccccccccccccccccccccsscscsccscccsccscccssccccccsscccccccsssccccccccccccccccccccccccccccccccccccccccccccccccsccsccccscsccccccsccscscsccsscccccssssscccccccccccccccccccccccccccccccccccccccccccsccccsssscsscccssccsscccccssccscscscscscccccccccccccccccccccccccccccccccccccccccccccccccccccccsscsccscccsccccsscccccscsccccscsccscscccccssccccccssssss" />
    </pattern>
  </defs>
  <sodipodi:namedview pagecolor="#ffffff" bordercolor="#666666" borderopacity="1" objecttolerance="10" gridtolerance="10" guidetolerance="10" inkscape:pageopacity="0" inkscape:pageshadow="2" inkscape:window-width="1680" inkscape:window-height="988" id="namedview4" showgrid="false" inkscape:zoom="256" inkscape:cx="0.5" inkscape:cy="0.5" inkscape:window-x="-8" inkscape:window-y="-8" inkscape:window-maximized="1" inkscape:current-layer="svg2" />
  <path style="fill:#000000" d="m 0.0558986,0.59073397 c 0,-0.16911588 4.5654e-4,-0.30748339 0.0010089,-0.30748339 5.5698e-4,0 0.07864499,-0.0318437 0.17353082,-0.0707636 l 0.17251936,-0.0707636 0.26552291,-2.167e-5 0.26552293,-2.168e-5 -3.862e-5,0.28868048 -3.853e-5,0.2886805 -0.17242904,0.0895906 -0.17242903,0.0895905 -0.26658643,0 -0.26658637,0 z m 0.03623922,0.27208965 0,-0.0221213 -0.0153322,0 -0.01533222,0 0,0.0221213 0,0.0221208 0.01533222,0 0.0153322,0 z m 0.1282315,0 0,-0.0221213 -0.0613281,0 -0.0613281,0 0,0.0221213 0,0.0221208 0.0613281,0 0.0613281,0 z m 0.12544394,0 0,-0.0221213 -0.0613282,0 -0.0613281,0 0,0.0221213 0,0.0221208 0.0613281,0 0.0613282,0 z m 0.12544386,0 0,-0.0221213 -0.0599343,0 -0.0599342,0 0,0.0221213 0,0.0221208 0.0599342,0 0.0599343,0 z m 0.11708099,0 0,-0.0221213 -0.0557529,0 -0.0557529,0 0,0.0221213 0,0.0221208 0.0557529,0 0.0557529,0 z m 0.0599343,-0.005789 c 0.0106426,-0.005836 0.0111892,-0.007052 0.0120001,-0.0267072 4.6566e-4,-0.0113262 -1.5952e-4,-0.0205656 -0.001392,-0.0205325 -0.001233,3.569e-5 -0.0160422,0.006623 -0.0329075,0.0146442 l -0.0306641,0.0145836 -8.3438e-4,0.022671 -8.3439e-4,0.022671 0.0217432,-0.010608 c 0.0119589,-0.005835 0.0267617,-0.01336 0.0328893,-0.0167221 z m 0.0731737,-0.0388192 0.0508764,-0.0269126 0,-0.0173295 c 0,-0.009532 -8.7657e-4,-0.0173295 -0.001945,-0.0173295 -0.001903,0 -0.0221637,0.009469 -0.0768039,0.0358993 l -0.0271798,0.0131469 0,0.0197191 c 0,0.0108454 9.4219e-4,0.0197186 0.002091,0.0197186 0.001148,0 0.0249828,-0.0121109 0.052962,-0.0269121 z m -0.57076779,-0.0106928 0,-0.0243336 -0.044602,0 -0.04460251,0 0,0.0243336 0,0.0243336 0.04460251,0 0.044602,0 z m 0.12544385,0 0,-0.0243336 -0.0599342,0 -0.0599343,0 0,0.0243336 0,0.0243336 0.0599343,0 0.0599342,0 z m 0.12823159,0 0,-0.0243336 -0.0613281,0 -0.0613281,0 0,0.0243336 0,0.0243336 0.0613281,0 0.0613281,0 z m 0.12544385,0 0,-0.0243336 -0.0613282,0 -0.0613281,0 0,0.0243336 0,0.0243336 0.0613281,0 0.0613282,0 z m 0.0585406,0 0,-0.0243336 -0.0264828,0 -0.0264828,0 0,0.0243336 0,0.0243336 0.0264828,0 0.0264828,0 z m 0.020411,0.0172811 0.0130408,-0.007053 0,-0.0237058 0,-0.0237058 -0.0132414,0.006378 c -0.007283,0.003508 -0.013555,0.006398 -0.013938,0.006425 -0.001041,7.149e-5 -8.3908e-4,0.0487146 2.0119e-4,0.0487146 4.9219e-4,0 0.006766,-0.003173 0.0139375,-0.007053 z m 0.0643729,-0.0306053 c 0.0228663,-0.010922 0.0419967,-0.0198579 0.0425119,-0.0198579 5.1095e-4,0 9.3751e-4,-0.0105964 9.3751e-4,-0.0235472 l 0,-0.0235472 -0.04458,0.0202285 -0.04458,0.0202285 -1.973e-5,0.0232272 c -9.94e-6,0.0127751 9.1876e-4,0.0232041 0.002067,0.023176 0.001148,-2.676e-5 0.0207996,-0.008987 0.0436631,-0.019908 z m 0.16329515,-0.035549 0.0557743,-0.0289635 0,-0.0152786 c 0,-0.008404 -8.0157e-4,-0.0152786 -0.001781,-0.0152786 -9.7969e-4,0 -0.0138381,0.005819 -0.028573,0.012931 l -0.0553649,0.0267353 -0.0285734,0.0138038 0,0.0175068 c 0,0.009629 6.1407e-4,0.0175068 0.001373,0.0175068 7.547e-4,0 0.0264706,-0.0130339 0.0571448,-0.028963 z m -0.744279,-0.008642 0,-0.0243336 -0.0153322,0 -0.01533222,0 0,0.0243336 0,0.0243336 0.01533222,0 0.0153322,0 z m 0.12823149,0 0,-0.0243336 -0.0613281,0 -0.061328,0 0,0.0243336 0,0.0243336 0.061328,0 0.0613281,0 z m 0.12544395,0 0,-0.0243336 -0.0613282,0 -0.0613282,0 0,0.0243336 0,0.0243336 0.0613282,0 0.0613282,0 z m 0.12544386,0 0,-0.0243336 -0.0599344,0 -0.0599342,0 0,0.0243336 0,0.0243336 0.0599342,0 0.0599344,0 z m 0.11708102,0 0,-0.0243336 -0.0557529,0 -0.0557529,0 0,0.0243336 0,0.0243336 0.0557529,0 0.0557529,0 z m 0.0446123,0.007335 0.026472,-0.0121616 8.297e-4,-0.0250639 8.2969e-4,-0.0250634 -0.0147709,0.006783 c -0.008124,0.003734 -0.0232385,0.0107044 -0.0335877,0.0154973 l -0.0188163,0.008715 0,0.0242301 c 0,0.0278648 -0.004477,0.0270553 0.0390435,0.007063 z M 0.77511016,0.7455972 c 0.0237645,-0.0112286 0.0472853,-0.0224501 0.0522683,-0.0249372 0.008608,-0.004295 0.00906,-0.005606 0.00906,-0.0262991 0,-0.0119776 -3.1481e-4,-0.021721 -6.9844e-4,-0.021651 -3.8419e-4,6.894e-5 -0.0257857,0.0115916 -0.0564498,0.0256047 l -0.0557529,0.0254781 -8.4844e-4,0.0234376 c -7.5939e-4,0.0208283 -2.9129e-4,0.0231782 0.004181,0.0211103 0.002766,-0.001277 0.024476,-0.0115145 0.0482399,-0.0227431 z m -0.004878,-0.0508326 c 0.001148,-3.568e-5 0.002091,-0.011243 0.002091,-0.0249097 0,-0.0215178 -6.5157e-4,-0.0245671 -0.004878,-0.0227459 -0.002686,0.001157 -0.0265156,0.0118416 -0.0529608,0.0237427 l -0.0480824,0.0216395 -5.53e-6,0.0248694 -5.58e-6,0.0248695 0.0508745,-0.023703 c 0.0279809,-0.0130367 0.0518153,-0.0237306 0.0529675,-0.0237625 z m 0.14675795,0.0216758 c 0.0104298,-0.004956 0.0114409,-0.006747 0.0114409,-0.0202247 0,-0.008131 -4.0154e-4,-0.0147841 -8.8595e-4,-0.0147841 -4.8751e-4,0 -0.007387,0.003062 -0.015332,0.006808 -0.0139005,0.006552 -0.0144442,0.007402 -0.0144442,0.0225944 0,0.0116918 0.001008,0.0151719 0.003891,0.0134167 0.002142,-0.001305 0.009039,-0.004819 0.0153306,-0.00781 z m -0.76631138,-0.0239487 0,-0.0243336 -0.044602,0 -0.04460251,0 0,0.0243336 0,0.0243331 0.04460251,0 0.044602,0 z m 0.12544386,0 0,-0.0243336 -0.0599342,0 -0.0599343,0 0,0.0243336 0,0.0243331 0.0599343,0 0.0599342,0 z m 0.12823159,0 0,-0.0243336 -0.0613281,0 -0.0613282,0 0,0.0243336 0,0.0243331 0.0613282,0 0.0613281,0 z m 0.1254439,0 0,-0.0243336 -0.0613282,0 -0.0613282,0 0,0.0243336 0,0.0243331 0.0613282,0 0.0613282,0 z m 0.0585405,0 0,-0.0243336 -0.0264828,0 -0.0264828,0 0,0.0243336 0,0.0243331 0.0264828,0 0.0264828,0 z m 0.0271794,0.0149466 c 0.00546,-0.003188 0.006272,-0.006806 0.006272,-0.0278984 l 0,-0.0242312 -0.0132414,0.006376 c -0.007283,0.003508 -0.013555,0.006398 -0.013938,0.006425 -3.8143e-4,2.676e-5 -6.9844e-4,0.0110359 -6.9844e-4,0.0244652 0,0.0244013 5.53e-6,0.0244156 0.007666,0.0214732 0.004219,-0.00162 0.0104884,-0.004593 0.0139394,-0.00661 z M 0.8589401,0.7060173 C 0.8657291,0.7025033 0.8841422,0.6934597 0.8998573,0.6859182 l 0.028573,-0.0137113 0,-0.0197186 c 0,-0.0128781 -0.001209,-0.019685 -0.003483,-0.0196211 -0.001917,5.369e-5 -0.0216738,0.008639 -0.0439055,0.0190792 L 0.840621,0.6709282 0.83977256,0.6916661 c -9.6564e-4,0.0235775 -2.471e-5,0.0242824 0.0191674,0.0143512 z M 0.71657021,0.63853855 c 0,-0.0129084 -9.422e-4,-0.0235252 -0.002091,-0.0235924 -0.001148,-6.747e-5 -0.0212187,0.008394 -0.0445978,0.0188027 l -0.0425072,0.018925 -5.62e-6,0.0248139 -5.63e-6,0.0248133 0.0446025,-0.0201459 0.044602,-0.0201465 z m 0.12410161,0.0238678 0.050126,-0.0230048 8.4376e-4,-0.0232272 c 5.4375e-4,-0.01494 -2.6766e-4,-0.0232272 -0.002269,-0.0232272 -0.002386,0 -0.06792,0.0288815 -0.10659619,0.0469798 -0.003877,0.001818 -0.004878,0.007251 -0.004878,0.0264022 0,0.0228621 3.2593e-4,0.0239878 0.006324,0.0216004 0.003478,-0.001382 0.0288805,-0.0128709 0.0564496,-0.0255232 z m -0.74853347,-0.0274288 0,-0.0243336 -0.0153319,0 -0.01533222,0 0,0.0243336 0,0.0243336 0.01533222,0 0.0153319,0 z m 0.12823151,0 0,-0.0243336 -0.0613282,0 -0.0613281,0 0,0.0243336 0,0.0243336 0.0613281,0 0.0613282,0 z m 0.12544394,0 0,-0.0243336 -0.0613282,0 -0.0613282,0 0,0.0243336 0,0.0243336 0.0613282,0 0.0613282,0 z m 0.12544385,0 0,-0.0243336 -0.0599343,0 -0.0599342,0 0,0.0243336 0,0.0243336 0.0599342,0 0.0599343,0 z m 0.11708102,0 0,-0.0243336 -0.0557528,0 -0.0557529,0 0,0.0243336 0,0.0243336 0.0557529,0 0.0557528,0 z m 0.0446124,0.007335 0.026472,-0.0121616 8.297e-4,-0.0250639 8.2969e-4,-0.0250634 -0.0147709,0.006783 c -0.008124,0.003734 -0.0232385,0.0107049 -0.0335877,0.0154978 l -0.0188168,0.008715 0,0.0242301 c 0,0.0278648 -0.004477,0.0270553 0.039044,0.007063 z m 0.14773455,-0.009431 c 0.0283639,-0.0127393 0.052584,-0.0246607 0.0538216,-0.0264924 0.001238,-0.001834 0.001861,-0.0132784 0.001392,-0.0254378 l -8.5782e-4,-0.0221078 -0.0557528,0.0252144 -0.0557529,0.0252142 -8.4376e-4,0.0255838 c -6.5157e-4,0.0196002 2.86e-6,0.0250694 0.002789,0.0233858 0.002002,-0.001212 0.0268414,-0.0126209 0.0552044,-0.0253602 z m 0.14774496,-0.0340268 c 0,-0.0129827 -9.4219e-4,-0.0235753 -0.002091,-0.0235378 -0.001148,3.568e-5 -0.007736,0.002737 -0.014635,0.006001 l -0.0125443,0.005932 -8.2501e-4,0.024435 -8.2501e-4,0.0244349 0.0154609,-0.00683 0.015461,-0.00683 z m -0.16656158,-0.015008 0.0104537,-0.004516 0,-0.0246789 c 0,-0.0213556 -6.5626e-4,-0.0243955 -0.004879,-0.0225752 -0.002686,0.001159 -0.0265156,0.0118414 -0.0529609,0.0237433 l -0.0480825,0.0216397 -5.48e-6,0.0248716 -5.58e-6,0.0248716 0.0425114,-0.0194228 c 0.0233815,-0.0106829 0.0472157,-0.0214539 0.0529686,-0.0239332 z m 0.1254439,2.0829e-4 0.0411178,-0.0190065 0,-0.0236564 c 0,-0.0130113 -9.422e-4,-0.0235994 -0.002091,-0.0235295 -0.001148,7.102e-5 -0.0209074,0.008737 -0.0439055,0.0192603 l -0.0418144,0.0191334 -8.4375e-4,0.0255462 c -6.4689e-4,0.0195484 5.57e-6,0.0250429 0.002789,0.0234023 0.002002,-0.001179 0.0221374,-0.0106967 0.0447474,-0.0211499 z m -0.73663441,-0.006593 0,-0.0243334 -0.0446021,0 -0.0446025,0 0,0.0243334 0,0.0243336 0.0446025,0 0.0446021,0 z m 0.12544385,0 0,-0.0243334 -0.0599342,0 -0.0599343,0 0,0.0243334 0,0.0243336 0.0599343,0 0.0599342,0 z m 0.12823159,0 0,-0.0243334 -0.0613282,0 -0.0613281,0 0,0.0243334 0,0.0243336 0.0613281,0 0.0613282,0 z m 0.1254439,0 0,-0.0243334 -0.0613282,0 -0.061328,0 0,0.0243334 0,0.0243336 0.061328,0 0.0613282,0 z m 0.0585405,0 0,-0.0243334 -0.0264828,0 -0.0264828,0 0,0.0243334 0,0.0243336 0.0264828,0 0.0264828,0 z m 0.0271794,0.0149466 c 0.005366,-0.003133 0.006272,-0.00688 0.006272,-0.0258976 0,-0.0243416 -6.0469e-4,-0.0249485 -0.0170997,-0.0171062 -0.0107692,0.005121 -0.0107772,0.005142 -0.0107772,0.0288417 0,0.0236375 2.967e-5,0.023707 0.007666,0.0207732 0.004219,-0.00162 0.0104884,-0.004593 0.0139384,-0.006611 z m 0.10105256,-0.0689009 c 0,-0.0129086 -3.121e-4,-0.0234042 -6.9845e-4,-0.0233229 -3.8143e-4,8.117e-5 -0.0201405,0.008767 -0.0439055,0.0193018 l -0.0432084,0.0191544 -8.2501e-4,0.024373 -8.2501e-4,0.0243727 0.0447309,-0.0202043 0.0447309,-0.0202045 z m 0.1233531,0.0249924 0.0522684,-0.0235845 0,-0.0234996 c 0,-0.0136513 -0.001242,-0.0234999 -0.002963,-0.0234999 -0.002278,0 -0.0687122,0.0293202 -0.10645051,0.0469799 -0.003886,0.00182 -0.004878,0.007271 -0.004878,0.0268341 0,0.021232 6.5625e-4,0.0242673 0.004878,0.0224529 0.002686,-0.001157 0.0283991,-0.0127113 0.0571447,-0.025683 z m -0.7449973,-0.008644 c 0,-0.007865 -0.001858,-0.008848 -0.0167261,-0.008848 -0.01486755,0 -0.01672607,9.8414e-4 -0.01672607,0.008848 0,0.007865 0.0018577,0.008848 0.01672607,0.008848 0.0148676,0 0.0167261,-9.8414e-4 0.0167261,-0.008848 z m 0.12544386,0 c 0,-0.00858 -0.001858,-0.008848 -0.0613282,-0.008848 -0.0594697,0 -0.0613281,2.6856e-4 -0.0613281,0.008848 0,0.00858 0.001858,0.008848 0.0613281,0.008848 0.0594697,0 0.0613282,-2.686e-4 0.0613282,-0.008848 z m 0.12544394,0 c 0,-0.008574 -0.001858,-0.008848 -0.0599343,-0.008848 -0.0580759,0 -0.0599344,2.7406e-4 -0.0599344,0.008848 0,0.008574 0.001858,0.008848 0.0599344,0.008848 0.0580758,0 0.0599343,-2.7406e-4 0.0599343,-0.008848 z m 0.12823149,0 c 0,-0.00858 -0.001858,-0.008848 -0.0613281,-0.008848 -0.0594697,0 -0.061328,2.6856e-4 -0.061328,0.008848 0,0.00858 0.001858,0.008848 0.061328,0.008848 0.0594696,0 0.0613281,-2.686e-4 0.0613281,-0.008848 z m 0.11429337,0 c 0,-0.008553 -0.001856,-0.008848 -0.0557528,-0.008848 -0.0538945,0 -0.0557529,2.9378e-4 -0.0557529,0.008848 0,0.008553 0.001858,0.008848 0.0557529,0.008848 0.0538944,0 0.0557528,-2.9378e-4 0.0557528,-0.008848 z m 0.0408229,-0.009401 c 0.0267734,-0.0116924 0.0316555,-0.0151771 0.0316555,-0.0225944 0,-0.006099 -0.001317,-0.00797 -0.004313,-0.006142 -0.002372,0.001444 -0.0174269,0.008102 -0.0334518,0.0147903 -0.0230815,0.009635 -0.0291364,0.013784 -0.0291364,0.0199664 0,0.004292 8.0626e-4,0.007803 0.001795,0.007803 9.8438e-4,0 0.0160413,-0.006221 0.0334499,-0.0138234 z m 0.15013037,-0.0119071 0.0557529,-0.0254781 8.3438e-4,-0.0228273 8.3438e-4,-0.0228274 -0.0245323,0.0108411 c -0.0134926,0.005962 -0.0392718,0.0171188 -0.0572872,0.0247915 l -0.0327542,0.0139505 0,0.0236402 c 0,0.0130024 3.1205e-4,0.0235836 6.9844e-4,0.0235138 3.8143e-4,-7.097e-5 0.0257857,-0.0115918 0.0564536,-0.0256044 z m 0.13781396,-0.005164 0.0113247,-0.00484 0,-0.0241626 c 0,-0.0132894 -9.422e-4,-0.0241325 -0.002091,-0.0240956 -0.001148,3.57e-5 -0.007736,0.002737 -0.014635,0.006 l -0.0125444,0.005932 -8.4376e-4,0.0255343 c -7.0313e-4,0.0211527 -1.3387e-4,0.0250997 0.003309,0.0230029 0.002288,-0.001392 0.009253,-0.004709 0.0154797,-0.007371 z m -0.841694,-0.0221949 c 0,-0.0206464 -4.6566e-4,-0.0221212 -0.006969,-0.0221212 -0.0065038,0 -0.0069691,0.001475 -0.0069691,0.0221212 0,0.0206464 4.6566e-4,0.0221211 0.0069691,0.0221211 0.006504,0 0.006969,-0.001474 0.006969,-0.0221211 z m 0.12544386,0 0,-0.0221212 -0.0599342,0 -0.0599343,0 0,0.0221212 0,0.0221211 0.0599343,0 0.0599342,0 z m 0.12823159,0 0,-0.0221212 -0.0613282,0 -0.0613282,0 0,0.0221212 0,0.0221211 0.0613282,0 0.0613282,0 z m 0.1254439,0 0,-0.0221212 -0.0613282,0 -0.0613281,0 0,0.0221212 0,0.0221211 0.0613281,0 0.0613282,0 z m 0.12544386,0 0,-0.0221212 -0.0599343,0 -0.0599342,0 0,0.0221212 0,0.0221211 0.0599342,0 0.0599343,0 z m 0.007572,-0.0121666 c -6.375e-4,-0.006692 -0.001158,-0.001217 -0.001158,0.0121666 0,0.0133833 5.2032e-4,0.0188582 0.001158,0.0121666 6.3751e-4,-0.006692 6.3751e-4,-0.0176416 0,-0.0243333 z m 0.13668849,0.009426 c 0.038834,-0.0169092 0.0480868,-0.0224226 0.0480868,-0.0286542 0,-0.007013 -0.002728,-0.006533 -0.0299675,0.005258 -0.0164819,0.007136 -0.0403162,0.0173312 -0.052965,0.0226561 -0.0184136,0.007752 -0.022998,0.0113279 -0.022998,0.01794 0,0.005777 0.001467,0.007579 0.004878,0.005999 0.002686,-0.001244 0.0265175,-0.011682 0.0529655,-0.0231978 z m -0.11517152,0.0161221 c 0.006329,-0.003818 0.007151,-0.006799 0.007151,-0.0259306 l 0,-0.021616 -0.0111503,0.004724 c -0.0110443,0.004679 -0.0111503,0.004926 -0.0111503,0.0259306 0,0.0228506 0.001852,0.0249164 0.0151492,0.0168924 z m 0.0789323,-0.0339482 0.0174227,-0.007056 0,-0.0219347 c 0,-0.0256203 0.004891,-0.0254216 -0.0487838,-0.001981 l -0.0334518,0.0146089 -8.3438e-4,0.0225297 -8.3439e-4,0.0225297 0.0245295,-0.0108215 c 0.0134917,-0.005952 0.0323703,-0.0139963 0.0419522,-0.0178762 z m 0.20102388,-0.002014 c 0.0209041,-0.009481 0.0383235,-0.0172386 0.0387093,-0.0172386 3.8424e-4,0 7.0313e-4,-0.009955 7.0313e-4,-0.0221211 0,-0.0121665 -3.1481e-4,-0.0220946 -6.9844e-4,-0.0220623 -3.8419e-4,3.062e-5 -0.020141,0.008672 -0.0439055,0.0192009 l -0.0432084,0.019142 -8.4845e-4,0.0232049 c -8.0626e-4,0.022046 -5.4844e-4,0.0230529 0.005196,0.0201588 0.003328,-0.001676 0.0231504,-0.0108034 0.0440522,-0.0202848 z m -0.0505885,-0.0303687 c 0.0279275,-0.0122448 0.0514482,-0.0222633 0.0522682,-0.0222633 8.2032e-4,0 0.001491,-0.003621 0.001491,-0.008046 0,-0.007239 -0.005732,-0.005574 -0.0571221,0.0165908 -0.0476095,0.0205337 -0.0571262,0.0259756 -0.0571466,0.0326771 -1.688e-5,0.005617 0.001448,0.007327 0.004853,0.005673 0.002686,-0.001302 0.0277283,-0.0123866 0.0556563,-0.0246316 z m -0.70447925,-0.002354 0,-0.0243332 -0.0362392,0 -0.03623921,0 0,0.0243332 0,0.0243333 0.03623921,0 0.0362392,0 z m 0.1282315,0 0,-0.0243332 -0.0613281,0 -0.0613281,0 0,0.0243332 0,0.0243333 0.0613281,0 0.0613281,0 z m 0.12544395,0 0,-0.0243332 -0.0613281,0 -0.0613282,0 0,0.0243332 0,0.0243333 0.0613282,0 0.0613281,0 z m 0.12544383,0 0,-0.0243332 -0.0599342,0 -0.0599343,0 0,0.0243332 0,0.0243333 0.0599343,0 0.0599342,0 z m 0.0752664,0 0,-0.0243332 -0.0348454,0 -0.0348454,0 0,0.0243332 0,0.0243333 0.0348454,0 0.0348454,0 z m 0.1742276,0.002236 c 0.0229981,-0.009921 0.0484004,-0.0210089 0.0564497,-0.0246393 l 0.014635,-0.006602 0,-0.0224708 c 0,-0.0161566 -9.7501e-4,-0.0218759 -0.003483,-0.0203533 -0.001917,0.001165 -0.0229287,0.0104777 -0.0466931,0.0206957 -0.0237645,0.0102183 -0.0497942,0.0215648 -0.0578435,0.0252151 l -0.014635,0.006637 0,0.0221053 c 0,0.01899 6.8438e-4,0.0217772 0.004878,0.0197776 0.002686,-0.00128 0.0236951,-0.010445 0.0466913,-0.0203651 z m -0.13798829,0.007217 0.0236951,-0.010319 8.2501e-4,-0.0244648 8.2501e-4,-0.0244648 -0.028003,0.0116252 -0.028003,0.0116252 -2.44e-6,0.0232272 c -1.59e-6,0.0156709 0.00113,0.0232048 0.003483,0.0231584 0.001917,-3.569e-5 0.0141475,-0.004712 0.0271803,-0.0103874 z m 0.094985,-0.0412402 0.0583352,-0.025151 0,-0.0213033 c 0,-0.0141295 -0.001172,-0.0212804 -0.003483,-0.0212353 -0.001917,3.956e-5 -0.0292006,0.010674 -0.0606312,0.0236366 l -0.0571467,0.0235684 -8.4376e-4,0.0228177 c -5.4845e-4,0.0147554 2.7052e-4,0.0228178 0.002297,0.0228178 0.001725,0 0.0293895,-0.011318 0.0614723,-0.025151 z m 0.19634805,5.1846e-4 c 0.009243,-0.002751 0.0153977,-0.0120934 0.0117648,-0.0178587 -0.003239,-0.005148 -0.0285397,0.0104235 -0.029495,0.0181553 -6.9375e-4,0.005605 2.7188e-4,0.007168 0.003286,0.005332 0.002348,-0.001429 0.008846,-0.003962 0.0144442,-0.005628 z M 0.07541205,0.37837168 c 0,-0.023006 -3.8144e-4,-0.0243333 -0.006969,-0.0243333 -0.0065887,0 -0.0069691,0.001327 -0.0069691,0.0243333 0,0.0230059 3.8139e-4,0.0243332 0.0069691,0.0243332 0.006589,0 0.006969,-0.001327 0.006969,-0.0243332 z m 0.1282315,0 0,-0.0243333 -0.0613282,0 -0.0613281,0 0,0.0243333 0,0.0243332 0.0613281,0 0.0613282,0 z m 0.12544395,0 0,-0.0243333 -0.0613282,0 -0.0613282,0 0,0.0243333 0,0.0243332 0.0613282,0 0.0613282,0 z m 0.12544389,0 0,-0.0243333 -0.0599343,0 -0.0599342,0 0,0.0243333 0,0.0243332 0.0599342,0 0.0599343,0 z m 0.12823156,0 0,-0.0243333 -0.0613282,0 -0.0613281,0 0,0.0243333 0,0.0243332 0.0613281,0 0.0613282,0 z m 0.004808,-0.0120874 c -6.1407e-4,-0.007952 -0.001139,-0.002513 -0.001153,0.0120874 -1.987e-5,0.0145999 4.922e-4,0.021106 0.00113,0.014458 6.3751e-4,-0.006647 6.5157e-4,-0.0185934 2.344e-5,-0.0265452 z m 0.0258565,0.001981 c 0,-0.0228408 -3.2593e-4,-0.0239668 -0.006272,-0.0214393 -0.00345,0.001467 -0.00784,0.002694 -0.009756,0.002729 -0.002386,3.956e-5 -0.003483,0.008269 -0.003483,0.0261916 l 0,0.0261313 0.009756,-0.004752 c 0.009591,-0.004671 0.009756,-0.005163 0.009755,-0.0288598 z m 0.27179506,0.016743 c 0.0222213,-0.009734 0.0410339,-0.0176969 0.0418054,-0.0176969 7.7345e-4,0 0.001402,-0.009955 0.001402,-0.0221211 0,-0.0121666 -7.172e-4,-0.0221211 -0.001594,-0.0221211 -8.7657e-4,0 -0.0209463,0.008318 -0.0446025,0.0184845 l -0.0430111,0.0184845 0,0.0213336 c 0,0.0117335 0.001261,0.0213336 0.002798,0.0213336 0.001538,0 0.0209777,-0.007964 0.0432019,-0.0176969 z m -0.22272664,-0.0118515 0.0401362,-0.0162759 0,-0.0235422 c 0,-0.0129482 -6.5625e-4,-0.0235422 -0.001458,-0.0235422 -8.0157e-4,0 -0.0196188,0.007215 -0.0418148,0.0160336 l -0.040357,0.0160335 0,0.0237843 c 0,0.0130814 7.5939e-4,0.0237843 0.001678,0.0237843 9.2344e-4,0 0.0197397,-0.007325 0.0418153,-0.0162756 z m 0.18020353,-0.0222982 0.0494692,-0.021153 1.087e-5,-0.0213131 c 1.092e-5,-0.0182046 -6.9844e-4,-0.0209872 -0.004867,-0.0190785 -0.008742,0.004005 -0.1043135,0.0426037 -0.10548656,0.0426037 -6.2345e-4,0 -0.001139,0.0101872 -0.001139,0.0226372 0,0.0212935 3.7449e-4,0.0224833 0.006272,0.0200471 0.00345,-0.001424 0.0285336,-0.012109 0.0557407,-0.0237434 z m -0.0682856,-0.0238114 0.0564497,-0.0230588 0,-0.0239394 c 0,-0.0207339 -6.5157e-4,-0.0236287 -0.004878,-0.0216192 -0.002686,0.001276 -0.0274583,0.0113403 -0.0550559,0.0223648 -0.0275975,0.0110247 -0.053,0.0212967 -0.0564498,0.0228273 -0.005523,0.002451 -0.006272,0.005664 -0.006272,0.026898 0,0.0208802 6.5157e-4,0.0238116 0.004878,0.0218509 0.002686,-0.001245 0.0302806,-0.012641 0.061328,-0.0253235 z m -0.63767319,-0.008403 0,-0.0265453 -0.0376331,0 -0.03763306,0 0,0.0265453 0,0.0265453 0.03763306,0 0.0376331,0 z m 0.1282315,0 0,-0.0265453 -0.061328,0 -0.0613282,0 0,0.0265453 0,0.0265453 0.0613282,0 0.061328,0 z m 0.12544394,0 0,-0.0265453 -0.0613281,0 -0.0613282,0 0,0.0265453 0,0.0265453 0.0613282,0 0.0613281,0 z m 0.12544389,0 0,-0.0265453 -0.0599342,0 -0.0599343,0 0,0.0265453 0,0.0265453 0.0599343,0 0.0599342,0 z m 0.0724788,0 0,-0.0265453 -0.0334518,0 -0.0334518,0 0,0.0265453 0,0.0265453 0.0334518,0 0.0334518,0 z m 0.0613281,-0.0234731 c 0,-0.0224589 -6.2813e-4,-0.0255025 -0.004878,-0.0235667 -0.002686,0.001223 -0.015227,0.006552 -0.0278764,0.0118434 l -0.022998,0.009621 0,0.0256093 0,0.0256093 0.0278764,-0.011663 0.0278764,-0.011663 z m 0.26691668,0.023521 c 0.0117147,-0.004759 0.0118473,-0.005034 0.0118473,-0.0245517 0,-0.0216722 -3.495e-4,-0.0219546 -0.0182791,-0.014789 l -0.012385,0.004949 0,0.021457 c 0,0.0152055 0.001013,0.0209166 0.003483,0.0196023 0.001917,-0.00102 0.008815,-0.00402 0.0153339,-0.006668 z M 0.7221455,0.29216283 0.7737169,0.27167016 0.77455597,0.2437185 c 6.422e-4,-0.0214673 -2.3e-6,-0.0274721 -0.002789,-0.025885 -0.001997,0.001136 -0.0290291,0.0126827 -0.0600765,0.0256578 l -0.0564497,0.0235911 0,0.0258651 0,0.025865 0.007666,-0.003079 c 0.004219,-0.001693 0.0308731,-0.0123002 0.0592384,-0.0235707 z m 0.16656163,-0.0117182 0.0397242,-0.0161978 0,-0.0231021 0,-0.0231021 -0.0459961,0.018119 -0.0459961,0.0181189 0,0.0238493 c 0,0.0225738 3.3704e-4,0.0237066 0.006273,0.021181 0.00345,-0.001468 0.0241479,-0.009958 0.0459952,-0.0188662 z m -0.14350072,-0.0624514 0.15548238,-0.0652573 -0.24640026,-0.00113 -0.24640036,-0.00113 -0.15717802,0.064355 c -0.086448,0.0353952 -0.15843248,0.0651123 -0.15996566,0.0660379 -0.001534,9.2632e-4 0.1101099,0.001839 0.24809586,0.002032 l 0.25088374,3.4969e-4 z M 0.8921918,0.19594191 c 0,-0.0248724 -5.9531e-4,-0.0280452 -0.004878,-0.0260789 -0.002686,0.00123 -0.0277719,0.0117346 -0.0557529,0.0233408 l -0.0508744,0.0211021 0,0.0273781 0,0.027378 0.0557528,-0.0224013 0.0557529,-0.0224012 z m 0.0278764,0.0166075 c 0.006359,-0.002648 0.007042,-0.005297 0.007799,-0.0302516 9.1876e-4,-0.0301926 0.001125,-0.0299293 -0.0177152,-0.0224004 l -0.012385,0.004949 0,0.0283165 0,0.0283164 0.007666,-0.003014 c 0.004219,-0.001658 0.010802,-0.004321 0.0146345,-0.005916 z M 0.939582,0.37615905 c 0,-0.002433 0.001256,-0.004425 0.002789,-0.004425 0.001533,0 0.002789,0.001991 0.002789,0.004425 0,0.002434 -0.001256,0.004425 -0.002789,0.004425 -0.001533,0 -0.002789,-0.001991 -0.002789,-0.004425 z" id="path4618" inkscape:connector-curvature="0" sodipodi:nodetypes="ssscccccccccsccccccccccccccccccccccccccccccccccccccccccccccccscccccccssscssccccccccccccccccccccccccccccccccccccccccccccccccccccsccssccccccccsscccsscccccccccccccccccccccccccccccccccccccccccccccccccccscscscscscccscscscccsccsscsccccccccccccccccccccccccccccccccccccccccccccccccscccscccscscscccccsccccccccsscsccccccccccccccccccccccccccccccccccccccccccccccccccccscscscccccccscccccccccccscscccscccscsccccccccccccccccccccccccccccccccccccccccccccccccccscsccccsccccccccsscsccssssssssssssssssssssssssscsccssccccccscsccccsccccccsssssccccccccccccccccccccccccccccccccccccsscscsccscccsccscccssccccccsscccccccsssccccccccccccccccccccccccccccccccccccccccccccccccsccsccccscsccccccsccscscsccsscccccssssscccccccccccccccccccccccccccccccccccccccccccsccccsssscsscccssccsscccccssccscscscscscccccccccccccccccccccccccccccccccccccccccccccccccccccccsscsccscccsccccsscccccscsccccscsccscscccccssccccccssssss" />
</svg>