<?xml version="1.0" encoding="utf-8" standalone="no"?>
<svg xmlns:dc="http://purl.org/dc/elements/1.1/" xmlns:cc="http://creativecommons.org/ns#" xmlns:rdf="http://www.w3.org/1999/02/22-rdf-syntax-ns#" xmlns:svg="http://www.w3.org/2000/svg" xmlns="http://www.w3.org/2000/svg" xmlns:sodipodi="http://sodipodi.sourceforge.net/DTD/sodipodi-0.dtd" xmlns:inkscape="http://www.inkscape.org/namespaces/inkscape" height="1" version="1.1" width="1" id="svg2" inkscape:version="0.91 r13725" sodipodi:docname="ch_MinorChannel.svg">
  <metadata id="metadata8">
    <rdf:RDF>
      <cc:Work rdf:about="">
        <dc:format>image/svg+xml</dc:format>
        <dc:type rdf:resource="http://purl.org/dc/dcmitype/StillImage" />
        <dc:title></dc:title>
      </cc:Work>
    </rdf:RDF>
  </metadata>
  <defs id="defs6">
    <pattern width="1" height="1" id="ch_MinorChannel" patternContentUnits="objectBoundingBox">
      <path style="fill:#000000" d="M 0.53391643,0.74309121 C 0.46327997,0.73383442 0.36547347,0.68905451 0.31791575,0.64419721 0.23690919,0.56779038 0.0642081,0.46302766 0.04272087,0.47726026 c -0.01675754,0.0111004 -0.02987821,0.014177 -0.02987821,0.007008 0,-0.0103231 0.05421607,-0.0357509 0.11802102,-0.0553555 0.0282061,-0.008667 0.12456686,-0.0206036 0.22713465,-0.0281376 0.14321364,-0.0105196 0.18731434,-0.0169727 0.22490788,-0.0329084 0.0503068,-0.0213252 0.10779893,-0.0392924 0.22045429,-0.0688965 0.0521732,-0.0137101 0.0811329,-0.0265628 0.10812849,-0.0479899 0.0360086,-0.0285801 0.0561395,-0.0375777 0.0475259,-0.0212406 -0.002323,0.004412 -0.0168533,0.016028 -0.0322809,0.0258114 -0.0299035,0.018962 -0.027753,0.0148289 -0.0809044,0.15551557 C 0.76970039,0.61257308 0.71731201,0.69698951 0.64971098,0.7270841 0.60295888,0.747897 0.58720048,0.7500757 0.53391678,0.743093 Z m 0.12226046,-0.0354714 c 0.0253757,-0.0136673 0.0634006,-0.0500467 0.0532415,-0.0509373 -0.002677,-2.4019e-4 -0.0165199,0.008265 -0.0307591,0.0188865 -0.0142391,0.0106207 -0.0280808,0.0189728 -0.0307591,0.0185577 -0.002677,-4.2043e-4 0.01792,-0.0174554 0.0457739,-0.0378664 0.0278542,-0.0204117 0.0529057,-0.0424381 0.0556703,-0.0489486 0.003847,-0.009061 0.003269,-0.0105011 -0.002466,-0.006142 -0.004121,0.003135 -0.0201541,0.008681 -0.0356289,0.012332 -0.0154747,0.003649 -0.0481771,0.0229274 -0.072672,0.0428401 -0.0256092,0.0208179 -0.0606244,0.0408475 -0.082392,0.0471297 -0.0208208,0.006008 -0.0428661,0.0124601 -0.0489898,0.0143375 -0.006123,0.001875 0.003897,0.003854 0.022268,0.004394 0.0183714,5.4055e-4 0.0494353,-0.005303 0.0690312,-0.0129798 0.0468434,-0.0183511 0.0519367,-0.0163319 0.0133609,0.005297 l -0.0311754,0.0174794 0.0244949,-0.005048 c 0.0134721,-0.002779 0.0364234,-0.0114749 0.0510025,-0.0193263 z m -0.0888583,-0.0168366 c 0.041984,-0.0161774 0.0944576,-0.057007 0.0792815,-0.061689 -0.005385,-0.001658 -0.0137708,0.001595 -0.0186349,0.007243 -0.004865,0.005646 -0.0144872,0.009819 -0.0213845,0.009275 -0.0122124,-9.6002e-4 -0.0121558,-0.001189 0.002161,-0.008536 0.0396946,-0.020383 0.009183,-0.0234016 -0.0525561,-0.005201 -0.013028,0.003839 -0.0137591,0.003204 -0.004454,-0.00386 0.0140287,-0.0106562 -0.0216662,-0.0111702 -0.071258,-0.001024 -0.0359117,0.007348 -0.0256631,0.0119304 0.0311754,0.013945 0.0159216,5.7055e-4 0.0409732,0.00239 0.0556702,0.004056 l 0.0267219,0.003032 -0.033402,0.0180173 c -0.0183713,0.009909 -0.0474311,0.0202845 -0.0645775,0.0230558 l -0.0311754,0.005034 0.0365289,-0.0120372 c 0.0200908,-0.006619 0.0379611,-0.0151431 0.0397115,-0.018938 0.001749,-0.003796 -0.0377353,-0.006833 -0.0877457,-0.006753 -0.0570021,9.657e-5 -0.0885151,0.003458 -0.0844607,0.009019 0.008232,0.0112898 0.0466965,0.0234488 0.0670173,0.0211836 0.008574,-9.6003e-4 0.0185938,0.00262 0.022268,0.00795 0.009727,0.0141044 0.0679426,0.0120913 0.10911373,-0.00377 z M 0.42480271,0.63694301 c -0.0205071,-0.011314 -0.10382744,-0.011314 -0.0957529,0 0.003677,0.005149 0.0297278,0.008913 0.0578971,0.008366 0.0330977,-6.4849e-4 0.0464901,-0.003604 0.0378558,-0.008366 z M 0.3674425,0.60650065 C 0.3628385,0.60070199 0.3482872,0.59540304 0.3351054,0.59472537 0.3196763,0.59393063 0.3118091,0.58970261 0.3130207,0.58285183 0.3155767,0.56839871 0.2813679,0.55244452 0.2597054,0.55798851 c -0.0140989,0.00361 -0.0157697,0.005951 -0.008594,0.0120685 0.0049,0.004177 0.0164227,0.007897 0.0256083,0.008269 0.0104709,4.2046e-4 0.0162858,0.004984 0.0155876,0.0122109 -0.001459,0.015124 0.0187002,0.0246047 0.0545569,0.0256562 0.0229373,6.7394e-4 0.0272106,-0.001335 0.0205783,-0.009693 z m 0.10149661,0.001743 c -0.0127739,-0.0112001 -0.10289104,-0.0239645 -0.0985061,-0.0139521 0.00483,0.0110264 0.0391234,0.0206182 0.0766378,0.0214346 0.0210859,4.6545e-4 0.028163,-0.001964 0.0218683,-0.007483 z m 0.22868618,-0.004865 c 0.021412,-0.001844 0.0427926,-0.006667 0.0475125,-0.0107232 0.008473,-0.007282 0.008473,-0.007468 0,-0.0146649 -0.00679,-0.005766 -0.00566,-0.00743 0.005399,-0.007968 0.00769,-3.7537e-4 0.0187123,-0.009162 0.0244949,-0.0195319 l 0.0105145,-0.0188533 -0.0178145,0.004152 -0.0178145,0.004152 0.0200415,-0.010248 c 0.0185072,-0.009464 0.0395836,-0.0376044 0.0281634,-0.0376044 -0.002707,0 -0.0242042,0.0108641 -0.047773,0.0241411 -0.0235689,0.0132772 -0.047337,0.023705 -0.0528176,0.0231709 -0.005667,-5.5555e-4 -0.002282,-0.004698 0.00785,-0.009615 0.009798,-0.004756 0.0228249,-0.0116002 0.0289485,-0.0152116 0.0105622,-0.006231 0.010333,-0.006911 -0.004454,-0.0132559 -0.0119684,-0.005137 -0.007315,-0.00725 0.0200415,-0.009102 0.0550598,-0.003731 0.0564024,-0.005188 0.0931524,-0.10139447 0.0182333,-0.0477298 0.0325232,-0.088142 0.031756,-0.0898053 -0.001953,-0.00424 -0.12157191,0.0252787 -0.16721786,0.0412639 -0.0208208,0.007291 -0.0508827,0.0160668 -0.0668043,0.0195006 -0.0159216,0.003434 -0.035963,0.0103616 -0.0445361,0.0153955 -0.0315935,0.0185495 -0.1144556,0.0376673 -0.16450082,0.0379522 -0.0299587,1.6518e-4 -0.0487055,0.003662 -0.0448194,0.008349 0.009023,0.0108827 0.11440101,0.0570642 0.15587674,0.0683138 l 0.033402,0.009061 -0.0347629,-0.004304 C 0.52234375,0.49418446 0.47023635,0.47572511 0.4256691,0.45553331 l -0.0810313,-0.0367117 -0.0757116,0.007091 c -0.0883679,0.008276 -0.16617512,0.0225206 -0.17015529,0.0311506 -0.001538,0.003331 0.0176998,0.006059 0.0427477,0.006059 0.0330713,0 0.0446784,-0.003027 0.0423897,-0.0110563 -0.002233,-0.007834 6.0707e-4,-0.00917 0.009758,-0.004584 0.007101,0.003561 0.0289424,0.0106862 0.0485383,0.0158354 0.0195962,0.005149 0.0686971,0.0198871 0.10911373,0.0327521 0.0931678,0.0296565 0.15879677,0.0444288 0.19707276,0.044359 0.0165339,-2.893e-5 0.0300619,0.003783 0.0300619,0.008476 0,0.0121782 -0.0197424,0.0218422 -0.021526,0.0105367 -0.002161,-0.0137101 -0.0169653,-0.0110592 -0.0497321,0.008909 l -0.0289485,0.0176409 0.0200415,0.006777 c 0.0226831,0.007669 0.15184829,0.0216496 0.15702845,0.0169955 0.001859,-0.001673 0.0208973,-0.004539 0.0423094,-0.006382 z m -0.005606,-0.0146527 c 0.008508,-0.007994 0.0413476,-0.0134766 0.0374849,-0.006256 -0.001022,0.001908 -0.0118764,0.005975 -0.0241239,0.009047 -0.0143262,0.003592 -0.0190911,0.002594 -0.0133609,-0.00279 z m -0.17489855,-0.0055 c 0.001376,-0.002988 0.0242577,-0.006923 0.0508455,-0.008747 0.0265876,-0.001825 0.0543539,-0.006717 0.0617024,-0.0108727 l 0.0133609,-0.007553 -0.011134,-0.00688 c -0.006985,-0.004316 0.001313,-0.007 0.022268,-0.007203 l 0.033402,-3.3035e-4 -0.0242562,0.0141372 c -0.0446499,0.0260224 -0.0348442,0.0306171 0.0198028,0.009281 0.0195962,-0.007653 0.0426434,-0.0163415 0.0512167,-0.0193105 0.0154031,-0.005335 0.0154296,-0.005283 0.002229,0.004223 -0.0328703,0.0236739 -0.0930081,0.0386211 -0.15550566,0.0386502 -0.0365383,1.934e-5 -0.0653064,-0.002416 -0.0639292,-0.005398 z m 0.0736307,-0.0303697 c 0.00554,-0.002308 0.0135562,-0.002225 0.0178145,1.9526e-4 0.004258,0.002416 -2.7214e-4,0.004304 -0.010073,0.004203 -0.009798,-1.0719e-4 -0.0132818,-0.002086 -0.007742,-0.004394 z m 0.0222164,-0.0486224 c 0.0177587,-0.00183 0.0468187,-0.00183 0.0645775,0 0.0177587,0.00183 0.003228,0.003331 -0.0322889,0.003331 -0.0355177,0 -0.0500475,-0.001501 -0.0322889,-0.003331 z m -0.0879589,-0.0605549 c 0.006123,-0.003568 0.0214264,-0.009422 0.034006,-0.0130182 0.0177265,-0.005067 0.0234187,-0.003446 0.025303,0.007197 0.001987,0.0112187 -0.004243,0.0136033 -0.034006,0.0130182 -0.0210769,-4.2038e-4 -0.0317433,-0.003446 -0.025303,-0.007197 z m 0.13583552,-0.0104242 c -0.0183631,-0.004724 -0.0195346,-0.006034 -0.00668,-0.007473 0.008574,-9.6003e-4 0.0235534,-0.005753 0.0332896,-0.0106449 0.0127603,-0.006414 0.0186467,-0.005678 0.0210862,0.002644 0.008103,0.0276391 0.004353,0.0288568 -0.0476957,0.0154742 z m 0.10020639,-0.0466566 c -0.009046,-0.00569 -0.006347,-0.008352 0.0143968,-0.014197 0.0253531,-0.007143 0.0345932,-0.003395 0.0345932,0.0140376 0,0.0104456 -0.0324687,0.0105495 -0.0489898,1.6518e-4 z M 0.453411,0.56050954 c 0.0324299,-0.0142522 0.0350525,-0.0232899 0.004792,-0.0165182 -0.0134721,0.003013 -0.040528,0.008023 -0.0601239,0.0111275 -0.0484245,0.007673 -0.0687574,0.0156206 -0.0589856,0.0230521 0.009812,0.007461 0.0828088,-0.003815 0.11431618,-0.0176619 z m 0.0381954,0.006619 c 0.0122474,-0.005697 0.0196417,-0.0123262 0.0164317,-0.0147279 -0.003209,-0.002404 -0.0146192,4.2042e-4 -0.0253535,0.006288 -0.0107342,0.005861 -0.024524,0.0106562 -0.0306433,0.0106562 -0.006119,0 -0.0125359,0.004947 -0.0142595,0.0109922 -0.003246,0.0113852 0.005658,0.009201 0.0538245,-0.013209 z M 0.3936267,0.54568842 0.4470702,0.53312868 0.4025339,0.53124656 c -0.0294593,-0.001247 -0.0415208,-0.004693 -0.0356289,-0.0101841 0.0142651,-0.0132916 -0.0123463,-0.0112414 -0.0479309,0.003695 -0.038739,0.0162569 -0.0444127,0.0286793 -0.009966,0.0218205 0.0182323,-0.00363 0.0224768,-0.002753 0.0133609,0.002753 l -0.0133609,0.008075 0.0155876,4.2044e-4 c 0.008574,2.4019e-4 0.0396372,-0.005227 0.0690311,-0.0121369 z m -0.05233,-0.0117098 c 0.003062,-0.002677 0.008072,-0.002677 0.011134,0 0.003062,0.002677 5.5429e-4,0.00487 -0.005566,0.00487 -0.006123,0 -0.008629,-0.002194 -0.005566,-0.00487 z m -0.0968662,0.00718 C 0.2362705,0.53103942 0.190987,0.51709952 0.190987,0.52470712 c 0,0.008644 0.0274341,0.0235257 0.0445361,0.0241591 0.0108022,4.0537e-4 0.0135367,-0.001964 0.008908,-0.007706 z m 0.0734846,-0.0282362 0.0178145,-0.009234 -0.0200415,-7.375e-4 c -0.0110228,-4.0544e-4 -0.0288233,0.003656 -0.039557,0.00902 -0.0107336,0.005366 -0.0205207,0.007576 -0.0217491,0.004914 -0.001229,-0.002663 0.006095,-0.007731 0.0162742,-0.0112599 0.0101791,-0.003528 0.0197643,-0.0108257 0.0213,-0.0162136 0.00178,-0.006238 -0.001489,-0.007466 -0.009009,-0.003375 -0.006491,0.003528 -0.0203178,0.007993 -0.0307263,0.009912 -0.0104083,0.001919 -0.0149168,0.00147 -0.0100178,-0.001005 0.0049,-0.002473 0.0108113,-0.008471 0.0131381,-0.0133313 0.005615,-0.0117298 -0.009018,-0.0113894 -0.0361799,8.3924e-4 -0.0640681,0.0288441 -0.0639564,0.0287424 -0.0270084,0.0246206 0.0204795,-0.002282 0.0335324,-2.252e-4 0.032026,0.005067 -0.0014,0.004907 0.004089,0.008986 0.0121943,0.009068 0.008106,7.732e-5 0.0173963,0.003801 0.0206465,0.008271 0.005683,0.007811 0.0229244,0.003122 0.0608949,-0.0165583 z M 0.21236264,0.47793258 c 0.00497,-0.0107759 -0.002926,-0.0117311 -0.0570046,-0.006895 -0.0371081,0.003319 -0.0519579,0.00756 -0.0445362,0.0127234 0.0116166,0.008083 0.097396,0.003159 0.10154087,-0.005829 z" id="path4676" inkscape:connector-curvature="0" sodipodi:nodetypes="ssssssssssssssscsssscssscssscssscsssssscscsscsccscsssscsscssscscsssssssscscccssscsssssssssssscsscssssssscssscscsscsscsscsscsssscccccsccssssssscsscssssssssssssscssssccsssssccccsssssscsscssssssscssssccsssss" />
    </pattern>
  </defs>
  <sodipodi:namedview pagecolor="#ffffff" bordercolor="#666666" borderopacity="1" objecttolerance="10" gridtolerance="10" guidetolerance="10" inkscape:pageopacity="0" inkscape:pageshadow="2" inkscape:window-width="1600" inkscape:window-height="838" id="namedview4" showgrid="false" inkscape:zoom="256" inkscape:cx="0.86272881" inkscape:cy="0.31343745" inkscape:window-x="-8" inkscape:window-y="-8" inkscape:window-maximized="1" inkscape:current-layer="svg2" />
  <path style="fill:#000000" d="M 0.53391643,0.74309121 C 0.46327997,0.73383442 0.36547347,0.68905451 0.31791575,0.64419721 0.23690919,0.56779038 0.0642081,0.46302766 0.04272087,0.47726026 c -0.01675754,0.0111004 -0.02987821,0.014177 -0.02987821,0.007008 0,-0.0103231 0.05421607,-0.0357509 0.11802102,-0.0553555 0.0282061,-0.008667 0.12456686,-0.0206036 0.22713465,-0.0281376 0.14321364,-0.0105196 0.18731434,-0.0169727 0.22490788,-0.0329084 0.0503068,-0.0213252 0.10779893,-0.0392924 0.22045429,-0.0688965 0.0521732,-0.0137101 0.0811329,-0.0265628 0.10812849,-0.0479899 0.0360086,-0.0285801 0.0561395,-0.0375777 0.0475259,-0.0212406 -0.002323,0.004412 -0.0168533,0.016028 -0.0322809,0.0258114 -0.0299035,0.018962 -0.027753,0.0148289 -0.0809044,0.15551557 C 0.76970039,0.61257308 0.71731201,0.69698951 0.64971098,0.7270841 0.60295888,0.747897 0.58720048,0.7500757 0.53391678,0.743093 Z m 0.12226046,-0.0354714 c 0.0253757,-0.0136673 0.0634006,-0.0500467 0.0532415,-0.0509373 -0.002677,-2.4019e-4 -0.0165199,0.008265 -0.0307591,0.0188865 -0.0142391,0.0106207 -0.0280808,0.0189728 -0.0307591,0.0185577 -0.002677,-4.2043e-4 0.01792,-0.0174554 0.0457739,-0.0378664 0.0278542,-0.0204117 0.0529057,-0.0424381 0.0556703,-0.0489486 0.003847,-0.009061 0.003269,-0.0105011 -0.002466,-0.006142 -0.004121,0.003135 -0.0201541,0.008681 -0.0356289,0.012332 -0.0154747,0.003649 -0.0481771,0.0229274 -0.072672,0.0428401 -0.0256092,0.0208179 -0.0606244,0.0408475 -0.082392,0.0471297 -0.0208208,0.006008 -0.0428661,0.0124601 -0.0489898,0.0143375 -0.006123,0.001875 0.003897,0.003854 0.022268,0.004394 0.0183714,5.4055e-4 0.0494353,-0.005303 0.0690312,-0.0129798 0.0468434,-0.0183511 0.0519367,-0.0163319 0.0133609,0.005297 l -0.0311754,0.0174794 0.0244949,-0.005048 c 0.0134721,-0.002779 0.0364234,-0.0114749 0.0510025,-0.0193263 z m -0.0888583,-0.0168366 c 0.041984,-0.0161774 0.0944576,-0.057007 0.0792815,-0.061689 -0.005385,-0.001658 -0.0137708,0.001595 -0.0186349,0.007243 -0.004865,0.005646 -0.0144872,0.009819 -0.0213845,0.009275 -0.0122124,-9.6002e-4 -0.0121558,-0.001189 0.002161,-0.008536 0.0396946,-0.020383 0.009183,-0.0234016 -0.0525561,-0.005201 -0.013028,0.003839 -0.0137591,0.003204 -0.004454,-0.00386 0.0140287,-0.0106562 -0.0216662,-0.0111702 -0.071258,-0.001024 -0.0359117,0.007348 -0.0256631,0.0119304 0.0311754,0.013945 0.0159216,5.7055e-4 0.0409732,0.00239 0.0556702,0.004056 l 0.0267219,0.003032 -0.033402,0.0180173 c -0.0183713,0.009909 -0.0474311,0.0202845 -0.0645775,0.0230558 l -0.0311754,0.005034 0.0365289,-0.0120372 c 0.0200908,-0.006619 0.0379611,-0.0151431 0.0397115,-0.018938 0.001749,-0.003796 -0.0377353,-0.006833 -0.0877457,-0.006753 -0.0570021,9.657e-5 -0.0885151,0.003458 -0.0844607,0.009019 0.008232,0.0112898 0.0466965,0.0234488 0.0670173,0.0211836 0.008574,-9.6003e-4 0.0185938,0.00262 0.022268,0.00795 0.009727,0.0141044 0.0679426,0.0120913 0.10911373,-0.00377 z M 0.42480271,0.63694301 c -0.0205071,-0.011314 -0.10382744,-0.011314 -0.0957529,0 0.003677,0.005149 0.0297278,0.008913 0.0578971,0.008366 0.0330977,-6.4849e-4 0.0464901,-0.003604 0.0378558,-0.008366 z M 0.3674425,0.60650065 C 0.3628385,0.60070199 0.3482872,0.59540304 0.3351054,0.59472537 0.3196763,0.59393063 0.3118091,0.58970261 0.3130207,0.58285183 0.3155767,0.56839871 0.2813679,0.55244452 0.2597054,0.55798851 c -0.0140989,0.00361 -0.0157697,0.005951 -0.008594,0.0120685 0.0049,0.004177 0.0164227,0.007897 0.0256083,0.008269 0.0104709,4.2046e-4 0.0162858,0.004984 0.0155876,0.0122109 -0.001459,0.015124 0.0187002,0.0246047 0.0545569,0.0256562 0.0229373,6.7394e-4 0.0272106,-0.001335 0.0205783,-0.009693 z m 0.10149661,0.001743 c -0.0127739,-0.0112001 -0.10289104,-0.0239645 -0.0985061,-0.0139521 0.00483,0.0110264 0.0391234,0.0206182 0.0766378,0.0214346 0.0210859,4.6545e-4 0.028163,-0.001964 0.0218683,-0.007483 z m 0.22868618,-0.004865 c 0.021412,-0.001844 0.0427926,-0.006667 0.0475125,-0.0107232 0.008473,-0.007282 0.008473,-0.007468 0,-0.0146649 -0.00679,-0.005766 -0.00566,-0.00743 0.005399,-0.007968 0.00769,-3.7537e-4 0.0187123,-0.009162 0.0244949,-0.0195319 l 0.0105145,-0.0188533 -0.0178145,0.004152 -0.0178145,0.004152 0.0200415,-0.010248 c 0.0185072,-0.009464 0.0395836,-0.0376044 0.0281634,-0.0376044 -0.002707,0 -0.0242042,0.0108641 -0.047773,0.0241411 -0.0235689,0.0132772 -0.047337,0.023705 -0.0528176,0.0231709 -0.005667,-5.5555e-4 -0.002282,-0.004698 0.00785,-0.009615 0.009798,-0.004756 0.0228249,-0.0116002 0.0289485,-0.0152116 0.0105622,-0.006231 0.010333,-0.006911 -0.004454,-0.0132559 -0.0119684,-0.005137 -0.007315,-0.00725 0.0200415,-0.009102 0.0550598,-0.003731 0.0564024,-0.005188 0.0931524,-0.10139447 0.0182333,-0.0477298 0.0325232,-0.088142 0.031756,-0.0898053 -0.001953,-0.00424 -0.12157191,0.0252787 -0.16721786,0.0412639 -0.0208208,0.007291 -0.0508827,0.0160668 -0.0668043,0.0195006 -0.0159216,0.003434 -0.035963,0.0103616 -0.0445361,0.0153955 -0.0315935,0.0185495 -0.1144556,0.0376673 -0.16450082,0.0379522 -0.0299587,1.6518e-4 -0.0487055,0.003662 -0.0448194,0.008349 0.009023,0.0108827 0.11440101,0.0570642 0.15587674,0.0683138 l 0.033402,0.009061 -0.0347629,-0.004304 C 0.52234375,0.49418446 0.47023635,0.47572511 0.4256691,0.45553331 l -0.0810313,-0.0367117 -0.0757116,0.007091 c -0.0883679,0.008276 -0.16617512,0.0225206 -0.17015529,0.0311506 -0.001538,0.003331 0.0176998,0.006059 0.0427477,0.006059 0.0330713,0 0.0446784,-0.003027 0.0423897,-0.0110563 -0.002233,-0.007834 6.0707e-4,-0.00917 0.009758,-0.004584 0.007101,0.003561 0.0289424,0.0106862 0.0485383,0.0158354 0.0195962,0.005149 0.0686971,0.0198871 0.10911373,0.0327521 0.0931678,0.0296565 0.15879677,0.0444288 0.19707276,0.044359 0.0165339,-2.893e-5 0.0300619,0.003783 0.0300619,0.008476 0,0.0121782 -0.0197424,0.0218422 -0.021526,0.0105367 -0.002161,-0.0137101 -0.0169653,-0.0110592 -0.0497321,0.008909 l -0.0289485,0.0176409 0.0200415,0.006777 c 0.0226831,0.007669 0.15184829,0.0216496 0.15702845,0.0169955 0.001859,-0.001673 0.0208973,-0.004539 0.0423094,-0.006382 z m -0.005606,-0.0146527 c 0.008508,-0.007994 0.0413476,-0.0134766 0.0374849,-0.006256 -0.001022,0.001908 -0.0118764,0.005975 -0.0241239,0.009047 -0.0143262,0.003592 -0.0190911,0.002594 -0.0133609,-0.00279 z m -0.17489855,-0.0055 c 0.001376,-0.002988 0.0242577,-0.006923 0.0508455,-0.008747 0.0265876,-0.001825 0.0543539,-0.006717 0.0617024,-0.0108727 l 0.0133609,-0.007553 -0.011134,-0.00688 c -0.006985,-0.004316 0.001313,-0.007 0.022268,-0.007203 l 0.033402,-3.3035e-4 -0.0242562,0.0141372 c -0.0446499,0.0260224 -0.0348442,0.0306171 0.0198028,0.009281 0.0195962,-0.007653 0.0426434,-0.0163415 0.0512167,-0.0193105 0.0154031,-0.005335 0.0154296,-0.005283 0.002229,0.004223 -0.0328703,0.0236739 -0.0930081,0.0386211 -0.15550566,0.0386502 -0.0365383,1.934e-5 -0.0653064,-0.002416 -0.0639292,-0.005398 z m 0.0736307,-0.0303697 c 0.00554,-0.002308 0.0135562,-0.002225 0.0178145,1.9526e-4 0.004258,0.002416 -2.7214e-4,0.004304 -0.010073,0.004203 -0.009798,-1.0719e-4 -0.0132818,-0.002086 -0.007742,-0.004394 z m 0.0222164,-0.0486224 c 0.0177587,-0.00183 0.0468187,-0.00183 0.0645775,0 0.0177587,0.00183 0.003228,0.003331 -0.0322889,0.003331 -0.0355177,0 -0.0500475,-0.001501 -0.0322889,-0.003331 z m -0.0879589,-0.0605549 c 0.006123,-0.003568 0.0214264,-0.009422 0.034006,-0.0130182 0.0177265,-0.005067 0.0234187,-0.003446 0.025303,0.007197 0.001987,0.0112187 -0.004243,0.0136033 -0.034006,0.0130182 -0.0210769,-4.2038e-4 -0.0317433,-0.003446 -0.025303,-0.007197 z m 0.13583552,-0.0104242 c -0.0183631,-0.004724 -0.0195346,-0.006034 -0.00668,-0.007473 0.008574,-9.6003e-4 0.0235534,-0.005753 0.0332896,-0.0106449 0.0127603,-0.006414 0.0186467,-0.005678 0.0210862,0.002644 0.008103,0.0276391 0.004353,0.0288568 -0.0476957,0.0154742 z m 0.10020639,-0.0466566 c -0.009046,-0.00569 -0.006347,-0.008352 0.0143968,-0.014197 0.0253531,-0.007143 0.0345932,-0.003395 0.0345932,0.0140376 0,0.0104456 -0.0324687,0.0105495 -0.0489898,1.6518e-4 z M 0.453411,0.56050954 c 0.0324299,-0.0142522 0.0350525,-0.0232899 0.004792,-0.0165182 -0.0134721,0.003013 -0.040528,0.008023 -0.0601239,0.0111275 -0.0484245,0.007673 -0.0687574,0.0156206 -0.0589856,0.0230521 0.009812,0.007461 0.0828088,-0.003815 0.11431618,-0.0176619 z m 0.0381954,0.006619 c 0.0122474,-0.005697 0.0196417,-0.0123262 0.0164317,-0.0147279 -0.003209,-0.002404 -0.0146192,4.2042e-4 -0.0253535,0.006288 -0.0107342,0.005861 -0.024524,0.0106562 -0.0306433,0.0106562 -0.006119,0 -0.0125359,0.004947 -0.0142595,0.0109922 -0.003246,0.0113852 0.005658,0.009201 0.0538245,-0.013209 z M 0.3936267,0.54568842 0.4470702,0.53312868 0.4025339,0.53124656 c -0.0294593,-0.001247 -0.0415208,-0.004693 -0.0356289,-0.0101841 0.0142651,-0.0132916 -0.0123463,-0.0112414 -0.0479309,0.003695 -0.038739,0.0162569 -0.0444127,0.0286793 -0.009966,0.0218205 0.0182323,-0.00363 0.0224768,-0.002753 0.0133609,0.002753 l -0.0133609,0.008075 0.0155876,4.2044e-4 c 0.008574,2.4019e-4 0.0396372,-0.005227 0.0690311,-0.0121369 z m -0.05233,-0.0117098 c 0.003062,-0.002677 0.008072,-0.002677 0.011134,0 0.003062,0.002677 5.5429e-4,0.00487 -0.005566,0.00487 -0.006123,0 -0.008629,-0.002194 -0.005566,-0.00487 z m -0.0968662,0.00718 C 0.2362705,0.53103942 0.190987,0.51709952 0.190987,0.52470712 c 0,0.008644 0.0274341,0.0235257 0.0445361,0.0241591 0.0108022,4.0537e-4 0.0135367,-0.001964 0.008908,-0.007706 z m 0.0734846,-0.0282362 0.0178145,-0.009234 -0.0200415,-7.375e-4 c -0.0110228,-4.0544e-4 -0.0288233,0.003656 -0.039557,0.00902 -0.0107336,0.005366 -0.0205207,0.007576 -0.0217491,0.004914 -0.001229,-0.002663 0.006095,-0.007731 0.0162742,-0.0112599 0.0101791,-0.003528 0.0197643,-0.0108257 0.0213,-0.0162136 0.00178,-0.006238 -0.001489,-0.007466 -0.009009,-0.003375 -0.006491,0.003528 -0.0203178,0.007993 -0.0307263,0.009912 -0.0104083,0.001919 -0.0149168,0.00147 -0.0100178,-0.001005 0.0049,-0.002473 0.0108113,-0.008471 0.0131381,-0.0133313 0.005615,-0.0117298 -0.009018,-0.0113894 -0.0361799,8.3924e-4 -0.0640681,0.0288441 -0.0639564,0.0287424 -0.0270084,0.0246206 0.0204795,-0.002282 0.0335324,-2.252e-4 0.032026,0.005067 -0.0014,0.004907 0.004089,0.008986 0.0121943,0.009068 0.008106,7.732e-5 0.0173963,0.003801 0.0206465,0.008271 0.005683,0.007811 0.0229244,0.003122 0.0608949,-0.0165583 z M 0.21236264,0.47793258 c 0.00497,-0.0107759 -0.002926,-0.0117311 -0.0570046,-0.006895 -0.0371081,0.003319 -0.0519579,0.00756 -0.0445362,0.0127234 0.0116166,0.008083 0.097396,0.003159 0.10154087,-0.005829 z" id="path4676" inkscape:connector-curvature="0" sodipodi:nodetypes="ssssssssssssssscsssscssscssscssscsssssscscsscsccscsssscsscssscscsssssssscscccssscsssssssssssscsscssssssscssscscsscsscsscsscsssscccccsccssssssscsscssssssssssssscssssccsssssccccsssssscsscssssssscssssccsssss" />
</svg>