<?xml version="1.0" encoding="utf-8" standalone="no"?>
<svg xmlns:dc="http://purl.org/dc/elements/1.1/" xmlns:cc="http://creativecommons.org/ns#" xmlns:rdf="http://www.w3.org/1999/02/22-rdf-syntax-ns#" xmlns:svg="http://www.w3.org/2000/svg" xmlns="http://www.w3.org/2000/svg" xmlns:sodipodi="http://sodipodi.sourceforge.net/DTD/sodipodi-0.dtd" xmlns:inkscape="http://www.inkscape.org/namespaces/inkscape" height="1" version="1.1" width="1" id="svg2" inkscape:version="0.91 r13725" sodipodi:docname="FF_Floodplainfines.svg">
  <metadata id="metadata8">
    <rdf:RDF>
      <cc:Work rdf:about="">
        <dc:format>image/svg+xml</dc:format>
        <dc:type rdf:resource="http://purl.org/dc/dcmitype/StillImage" />
        <dc:title></dc:title>
      </cc:Work>
    </rdf:RDF>
  </metadata>
  <defs id="defs6">
    <pattern width="1" height="1" id="FF_Floodplainfines" patternContentUnits="objectBoundingBox">
      <path style="fill:#000000" d="m 0.0145234,0.66889011 0,-0.0327156 0.49018764,0 0.49018765,0 0,0.0327156 0,0.0327148 -0.49018765,0 -0.49018764,0 0,-0.0327148 z M 0.15786102,0.6249333 c 0,-9.0976e-4 0.0420695,-0.0578592 0.0439247,-0.0594546 0.001377,-0.001185 0.006092,0.00168 0.0258706,0.0157189 0.0133022,0.009442 0.0243683,0.017529 0.0245913,0.0179702 2.2397e-4,4.3858e-4 -0.0201619,0.006322 -0.0453002,0.0130674 -0.025138,0.006746 -0.0464664,0.0124907 -0.0473962,0.0127666 -9.3052e-4,2.6992e-4 -0.001689,2.4745e-4 -0.001689,-7.214e-5 z m 0.12981523,-0.001092 c 0,-9.0977e-4 0.0420695,-0.0578591 0.0439247,-0.0594544 0.001377,-0.001185 0.006092,0.00168 0.0258704,0.0157189 0.0133022,0.009442 0.0243683,0.0175289 0.0245913,0.0179702 2.2395e-4,4.3858e-4 -0.0201619,0.006322 -0.0453002,0.0130675 -0.025138,0.006746 -0.0464664,0.0124907 -0.0473962,0.0127666 -9.3053e-4,2.6993e-4 -0.001689,2.4745e-4 -0.001689,-7.214e-5 z m 0.60039542,0 c 0,-9.0977e-4 0.0420695,-0.0578591 0.0439247,-0.0594544 0.001377,-0.001185 0.006092,0.00168 0.0258705,0.0157189 0.0133022,0.009442 0.0243683,0.0175289 0.0245913,0.0179702 2.2394e-4,4.3858e-4 -0.0201619,0.006322 -0.0453002,0.0130675 -0.025138,0.006746 -0.0464666,0.0124907 -0.0473962,0.0127666 -9.3051e-4,2.6993e-4 -0.001689,2.4745e-4 -0.001689,-7.214e-5 z M 0.40937801,0.6216603 c 0,-9.1126e-4 0.0420695,-0.0578591 0.0439247,-0.0594546 0.001377,-0.001186 0.006092,0.00168 0.0258704,0.0157189 0.0133022,0.009442 0.0243683,0.017529 0.0245914,0.0179703 2.2393e-4,4.3857e-4 -0.0201619,0.006322 -0.0453001,0.0130674 -0.025138,0.006746 -0.0464664,0.0124908 -0.0473962,0.0127664 -9.3051e-4,2.6997e-4 -0.001689,2.4747e-4 -0.001689,-7.211e-5 z M 0.02292816,0.6184533 C 0.02400106,0.6171033 0.03418614,0.6033522 0.0455583,0.5878944 0.06383662,0.5630474 0.06648958,0.5599498 0.06843816,0.5611769 c 0.0019927,0.001254 0.04292075,0.029865 0.04729883,0.0330634 0.001462,0.001069 -0.00747,0.00383 -0.04530043,0.0139995 -0.02591794,0.006967 -0.04764998,0.0126673 -0.0482932,0.0126673 -6.4506e-4,0 -2.929e-4,-0.001102 7.8552e-4,-0.002453 z m 0.73397598,-6.277e-5 c 0,-9.1126e-4 0.0420696,-0.0578593 0.0439247,-0.0594546 0.001377,-0.001186 0.006092,0.00168 0.0258706,0.0157189 0.0133022,0.009442 0.0243683,0.0175289 0.0245913,0.0179701 2.2399e-4,4.3858e-4 -0.0201615,0.006322 -0.0453002,0.0130675 -0.025138,0.006746 -0.0464664,0.0124907 -0.047396,0.0127664 -9.3052e-4,2.8121e-4 -0.001689,2.4746e-4 -0.001689,-7.211e-5 z m -0.22447217,-0.002181 c 0,-9.1126e-4 0.0420695,-0.0578592 0.0439247,-0.0594544 0.001377,-0.001186 0.006092,0.00168 0.0258704,0.0157188 0.0133022,0.009442 0.0243683,0.017529 0.0245913,0.0179702 2.2395e-4,4.3857e-4 -0.0201619,0.006322 -0.0453002,0.0130676 -0.0251381,0.006746 -0.0464664,0.0124905 -0.047396,0.0127664 -9.3052e-4,2.8121e-4 -0.001689,2.4747e-4 -0.001689,-7.21e-5 z m 0.1162929,-0.001091 c 0,-9.1126e-4 0.0420695,-0.0578591 0.0439247,-0.0594544 0.001377,-0.001185 0.006092,0.00168 0.0258704,0.0157189 0.0133022,0.009442 0.0243683,0.0175289 0.0245913,0.0179702 2.2393e-4,4.3858e-4 -0.0201619,0.006322 -0.0453001,0.0130676 -0.025138,0.006746 -0.0464666,0.0124907 -0.0473962,0.0127664 -9.3051e-4,2.8122e-4 -0.001689,2.4747e-4 -0.001689,-7.21e-5 z m -0.63420142,-0.12343596 0,-0.0583422 0.49018765,0 0.49018764,0 0,0.0583422 0,0.0583421 -0.49018764,0 -0.49018765,0 0,-0.0583421 z m 0,-0.12758946 0,-0.0583422 0.49018765,0 0.49018764,0 0,0.0583422 0,0.0583421 -0.49018764,0 -0.49018765,0 0,-0.0583421 z" id="path5973" inkscape:connector-curvature="0" />
    </pattern>
  </defs>
  <sodipodi:namedview pagecolor="#ffffff" bordercolor="#666666" borderopacity="1" objecttolerance="10" gridtolerance="10" guidetolerance="10" inkscape:pageopacity="0" inkscape:pageshadow="2" inkscape:window-width="1600" inkscape:window-height="838" id="namedview4" showgrid="false" inkscape:zoom="128" inkscape:cx="0.38904305" inkscape:cy="0.1258968" inkscape:window-x="-8" inkscape:window-y="-8" inkscape:window-maximized="1" inkscape:current-layer="svg2" />
  <path style="fill:#000000" d="m 0.0145234,0.66889011 0,-0.0327156 0.49018764,0 0.49018765,0 0,0.0327156 0,0.0327148 -0.49018765,0 -0.49018764,0 0,-0.0327148 z M 0.15786102,0.6249333 c 0,-9.0976e-4 0.0420695,-0.0578592 0.0439247,-0.0594546 0.001377,-0.001185 0.006092,0.00168 0.0258706,0.0157189 0.0133022,0.009442 0.0243683,0.017529 0.0245913,0.0179702 2.2397e-4,4.3858e-4 -0.0201619,0.006322 -0.0453002,0.0130674 -0.025138,0.006746 -0.0464664,0.0124907 -0.0473962,0.0127666 -9.3052e-4,2.6992e-4 -0.001689,2.4745e-4 -0.001689,-7.214e-5 z m 0.12981523,-0.001092 c 0,-9.0977e-4 0.0420695,-0.0578591 0.0439247,-0.0594544 0.001377,-0.001185 0.006092,0.00168 0.0258704,0.0157189 0.0133022,0.009442 0.0243683,0.0175289 0.0245913,0.0179702 2.2395e-4,4.3858e-4 -0.0201619,0.006322 -0.0453002,0.0130675 -0.025138,0.006746 -0.0464664,0.0124907 -0.0473962,0.0127666 -9.3053e-4,2.6993e-4 -0.001689,2.4745e-4 -0.001689,-7.214e-5 z m 0.60039542,0 c 0,-9.0977e-4 0.0420695,-0.0578591 0.0439247,-0.0594544 0.001377,-0.001185 0.006092,0.00168 0.0258705,0.0157189 0.0133022,0.009442 0.0243683,0.0175289 0.0245913,0.0179702 2.2394e-4,4.3858e-4 -0.0201619,0.006322 -0.0453002,0.0130675 -0.025138,0.006746 -0.0464666,0.0124907 -0.0473962,0.0127666 -9.3051e-4,2.6993e-4 -0.001689,2.4745e-4 -0.001689,-7.214e-5 z M 0.40937801,0.6216603 c 0,-9.1126e-4 0.0420695,-0.0578591 0.0439247,-0.0594546 0.001377,-0.001186 0.006092,0.00168 0.0258704,0.0157189 0.0133022,0.009442 0.0243683,0.017529 0.0245914,0.0179703 2.2393e-4,4.3857e-4 -0.0201619,0.006322 -0.0453001,0.0130674 -0.025138,0.006746 -0.0464664,0.0124908 -0.0473962,0.0127664 -9.3051e-4,2.6997e-4 -0.001689,2.4747e-4 -0.001689,-7.211e-5 z M 0.02292816,0.6184533 C 0.02400106,0.6171033 0.03418614,0.6033522 0.0455583,0.5878944 0.06383662,0.5630474 0.06648958,0.5599498 0.06843816,0.5611769 c 0.0019927,0.001254 0.04292075,0.029865 0.04729883,0.0330634 0.001462,0.001069 -0.00747,0.00383 -0.04530043,0.0139995 -0.02591794,0.006967 -0.04764998,0.0126673 -0.0482932,0.0126673 -6.4506e-4,0 -2.929e-4,-0.001102 7.8552e-4,-0.002453 z m 0.73397598,-6.277e-5 c 0,-9.1126e-4 0.0420696,-0.0578593 0.0439247,-0.0594546 0.001377,-0.001186 0.006092,0.00168 0.0258706,0.0157189 0.0133022,0.009442 0.0243683,0.0175289 0.0245913,0.0179701 2.2399e-4,4.3858e-4 -0.0201615,0.006322 -0.0453002,0.0130675 -0.025138,0.006746 -0.0464664,0.0124907 -0.047396,0.0127664 -9.3052e-4,2.8121e-4 -0.001689,2.4746e-4 -0.001689,-7.211e-5 z m -0.22447217,-0.002181 c 0,-9.1126e-4 0.0420695,-0.0578592 0.0439247,-0.0594544 0.001377,-0.001186 0.006092,0.00168 0.0258704,0.0157188 0.0133022,0.009442 0.0243683,0.017529 0.0245913,0.0179702 2.2395e-4,4.3857e-4 -0.0201619,0.006322 -0.0453002,0.0130676 -0.0251381,0.006746 -0.0464664,0.0124905 -0.047396,0.0127664 -9.3052e-4,2.8121e-4 -0.001689,2.4747e-4 -0.001689,-7.21e-5 z m 0.1162929,-0.001091 c 0,-9.1126e-4 0.0420695,-0.0578591 0.0439247,-0.0594544 0.001377,-0.001185 0.006092,0.00168 0.0258704,0.0157189 0.0133022,0.009442 0.0243683,0.0175289 0.0245913,0.0179702 2.2393e-4,4.3858e-4 -0.0201619,0.006322 -0.0453001,0.0130676 -0.025138,0.006746 -0.0464666,0.0124907 -0.0473962,0.0127664 -9.3051e-4,2.8122e-4 -0.001689,2.4747e-4 -0.001689,-7.21e-5 z m -0.63420142,-0.12343596 0,-0.0583422 0.49018765,0 0.49018764,0 0,0.0583422 0,0.0583421 -0.49018764,0 -0.49018765,0 0,-0.0583421 z m 0,-0.12758946 0,-0.0583422 0.49018765,0 0.49018764,0 0,0.0583422 0,0.0583421 -0.49018764,0 -0.49018765,0 0,-0.0583421 z" id="path5973" inkscape:connector-curvature="0" />
</svg>