<?xml version="1.0" encoding="utf-8" standalone="no"?>
<svg xmlns:dc="http://purl.org/dc/elements/1.1/" xmlns:cc="http://creativecommons.org/ns#" xmlns:rdf="http://www.w3.org/1999/02/22-rdf-syntax-ns#" xmlns:svg="http://www.w3.org/2000/svg" xmlns="http://www.w3.org/2000/svg" xmlns:sodipodi="http://sodipodi.sourceforge.net/DTD/sodipodi-0.dtd" xmlns:inkscape="http://www.inkscape.org/namespaces/inkscape" height="1" version="1.1" width="1" id="svg2" inkscape:version="0.91 r13725" sodipodi:docname="Ho_HollowElement.svg">
  <metadata id="metadata8">
    <rdf:RDF>
      <cc:Work rdf:about="">
        <dc:format>image/svg+xml</dc:format>
        <dc:type rdf:resource="http://purl.org/dc/dcmitype/StillImage" />
        <dc:title></dc:title>
      </cc:Work>
    </rdf:RDF>
  </metadata>
  <defs id="defs6">
    <pattern width="1" height="1" id="Ho_HollowElement" patternContentUnits="objectBoundingBox">
      <path style="fill:#000000" d="M 0.45479962,0.63047727 C 0.3347788,0.600532 0.20173794,0.51377411 0.08804131,0.39130802 0.06478665,0.36626002 0.05998027,0.36363815 0.03731223,0.36363815 c -0.01381516,0 -0.02504015,-0.002875 -0.02504015,-0.006415 0,-0.004239 0.16693726,-0.006415 0.4921768,-0.006415 0.32523952,0 0.4921767,0.002177 0.4921767,0.006415 0,0.003528 -0.0105054,0.006415 -0.0233459,0.006415 -0.0229058,0 -0.0238613,7.6445e-4 -0.0507289,0.0406038 -0.0509465,0.0755438 -0.12336247,0.14579858 -0.18928329,0.18363442 -0.0130594,0.007495 -0.0431734,0.0209366 -0.0669188,0.0298685 -0.0537481,0.0202171 -0.15671251,0.0264142 -0.21154956,0.012732 z m 0.19643886,-0.0186001 0.0237452,-0.008831 -0.0151109,-0.00383 C 0.651562,0.59711017 0.62727692,0.59215417 0.60590625,0.58820277 0.49177278,0.5670989 0.38290447,0.49870829 0.29619791,0.39364484 0.27209522,0.36443956 0.2706542,0.36364214 0.24223109,0.36378101 l -0.0292027,1.4399e-4 0.0107943,0.0127554 c 0.0184071,0.0217547 0.10543768,0.10040275 0.13879709,0.1254294 0.0174558,0.0130954 0.0550516,0.0377135 0.0835457,0.054707 0.0284945,0.0169935 0.049466,0.0310012 0.0466036,0.0311282 C 0.48158977,0.58844352 0.38348142,0.5279132 0.34254929,0.495267 0.31880407,0.4763282 0.27711078,0.4389645 0.2498981,0.4122363 l -0.0494779,-0.0485967 -0.0368687,2.5815e-4 -0.0368687,2.5817e-4 0.015111,0.0194087 c 0.055567,0.0713719 0.25917692,0.22259083 0.31859129,0.23661397 0.0340604,0.008039 0.16186411,0.002477 0.190855,-0.008305 z M 0.30369266,0.53445202 C 0.22904307,0.47984374 0.13871365,0.39866863 0.12472352,0.37362043 c -0.006315,-0.0113074 -0.04580282,-0.0145972 -0.0411577,-0.003428 0.0048486,0.0116561 0.08743875,0.0892621 0.13281776,0.12480152 0.0543458,0.0425618 0.14420649,0.096442 0.16502148,0.0989461 0.002375,2.8796e-4 -0.0325964,-0.0264837 -0.0777122,-0.0594873 z M 0.73110935,0.57569542 0.7483789,0.56355272 0.720316,0.56300689 C 0.61857901,0.56102989 0.49924894,0.50044379 0.41042175,0.40566645 l -0.0399589,-0.0426357 -0.0269091,0.001907 -0.0269091,0.001907 0.0329204,0.0416997 c 0.0555837,0.0704067 0.13372767,0.13154681 0.20073253,0.1570544 0.0658138,0.0250541 0.15264344,0.0299023 0.18081174,0.0100961 z m 0.0597042,-0.0404469 0.0263742,-0.0208498 -0.0482411,-0.004172 C 0.66580323,0.50130672 0.59145611,0.46453642 0.52298296,0.38857712 l -0.0224808,-0.0249387 -0.0563104,0 c -0.0309708,0 -0.0562538,0.002165 -0.0561848,0.004811 2.3196e-4,0.007986 0.047688,0.0566767 0.0820379,0.0841298 0.0827203,0.0661115 0.16995315,0.10021695 0.26261911,0.10267567 0.0281547,7.4679e-4 0.0347812,-0.001534 0.0581501,-0.0200067 z m -0.36125204,-0.032454 c -0.0492948,-0.0472721 -0.0737967,-0.073615 -0.0963512,-0.10359226 -0.0184247,-0.0244874 -0.0303787,-0.0355641 -0.0383808,-0.0355641 -0.009806,0 -0.0107878,0.001492 -0.006284,0.009559 0.0113122,0.0202538 0.0655853,0.0753704 0.10424027,0.10586064 0.0383144,0.0302213 0.0542893,0.0405327 0.0367756,0.0237375 z m 0.38442831,-0.002135 c 0.015272,-0.002727 0.0268925,-0.009531 0.0363868,-0.0213097 l 0.0139494,-0.0173044 -0.0396028,-7.9924e-4 C 0.75425982,0.45982275 0.70077659,0.43981132 0.63828649,0.3914892 l -0.0366972,-0.0283774 -0.045332,0.001867 -0.045332,0.001867 0.0332848,0.032974 c 0.0560324,0.0555087 0.11583616,0.086589 0.18874521,0.0980914 0.0445882,0.007033 0.0550356,0.007389 0.0810347,0.002748 z m 0.0733823,-0.0630414 0.0121136,-0.0158357 -0.0302214,-3.1277e-4 c -0.0399329,-4.1371e-4 -0.0834989,-0.0146467 -0.11775421,-0.0384662 -0.0261598,-0.0181906 -0.0310064,-0.0193631 -0.0800329,-0.0193631 -0.0324464,0 -0.0506355,0.00227 -0.0480853,0.006003 0.008217,0.0120256 0.0566733,0.0443711 0.0868205,0.0579529 0.0432025,0.0194635 0.0658054,0.0242368 0.11887568,0.0251042 0.0433066,7.0826e-4 0.0469221,-2.2837e-4 0.0582842,-0.0150811 z m 0.0337003,-0.0483177 0.0168633,-0.0256613 -0.0990957,5.3469e-4 -0.0990956,5.3469e-4 0.0226082,0.0158892 c 0.0299231,0.0210298 0.0692974,0.0332284 0.10927373,0.0338543 0.0324949,5.0963e-4 0.032629,4.3854e-4 0.0494462,-0.0251513 z" id="path5583" inkscape:connector-curvature="0" sodipodi:nodetypes="sssssssssssccsssscsssssscccssccsssscsccsscccssccscsscscssssssssssscsscccsssccssssssccccccsscc" />
    </pattern>
  </defs>
  <sodipodi:namedview pagecolor="#ffffff" bordercolor="#666666" borderopacity="1" objecttolerance="10" gridtolerance="10" guidetolerance="10" inkscape:pageopacity="0" inkscape:pageshadow="2" inkscape:window-width="1600" inkscape:window-height="838" id="namedview4" showgrid="false" inkscape:zoom="256" inkscape:cx="0.63671875" inkscape:cy="0.46484375" inkscape:window-x="-8" inkscape:window-y="-8" inkscape:window-maximized="1" inkscape:current-layer="svg2" />
  <path style="fill:#000000" d="M 0.45479962,0.63047727 C 0.3347788,0.600532 0.20173794,0.51377411 0.08804131,0.39130802 0.06478665,0.36626002 0.05998027,0.36363815 0.03731223,0.36363815 c -0.01381516,0 -0.02504015,-0.002875 -0.02504015,-0.006415 0,-0.004239 0.16693726,-0.006415 0.4921768,-0.006415 0.32523952,0 0.4921767,0.002177 0.4921767,0.006415 0,0.003528 -0.0105054,0.006415 -0.0233459,0.006415 -0.0229058,0 -0.0238613,7.6445e-4 -0.0507289,0.0406038 -0.0509465,0.0755438 -0.12336247,0.14579858 -0.18928329,0.18363442 -0.0130594,0.007495 -0.0431734,0.0209366 -0.0669188,0.0298685 -0.0537481,0.0202171 -0.15671251,0.0264142 -0.21154956,0.012732 z m 0.19643886,-0.0186001 0.0237452,-0.008831 -0.0151109,-0.00383 C 0.651562,0.59711017 0.62727692,0.59215417 0.60590625,0.58820277 0.49177278,0.5670989 0.38290447,0.49870829 0.29619791,0.39364484 0.27209522,0.36443956 0.2706542,0.36364214 0.24223109,0.36378101 l -0.0292027,1.4399e-4 0.0107943,0.0127554 c 0.0184071,0.0217547 0.10543768,0.10040275 0.13879709,0.1254294 0.0174558,0.0130954 0.0550516,0.0377135 0.0835457,0.054707 0.0284945,0.0169935 0.049466,0.0310012 0.0466036,0.0311282 C 0.48158977,0.58844352 0.38348142,0.5279132 0.34254929,0.495267 0.31880407,0.4763282 0.27711078,0.4389645 0.2498981,0.4122363 l -0.0494779,-0.0485967 -0.0368687,2.5815e-4 -0.0368687,2.5817e-4 0.015111,0.0194087 c 0.055567,0.0713719 0.25917692,0.22259083 0.31859129,0.23661397 0.0340604,0.008039 0.16186411,0.002477 0.190855,-0.008305 z M 0.30369266,0.53445202 C 0.22904307,0.47984374 0.13871365,0.39866863 0.12472352,0.37362043 c -0.006315,-0.0113074 -0.04580282,-0.0145972 -0.0411577,-0.003428 0.0048486,0.0116561 0.08743875,0.0892621 0.13281776,0.12480152 0.0543458,0.0425618 0.14420649,0.096442 0.16502148,0.0989461 0.002375,2.8796e-4 -0.0325964,-0.0264837 -0.0777122,-0.0594873 z M 0.73110935,0.57569542 0.7483789,0.56355272 0.720316,0.56300689 C 0.61857901,0.56102989 0.49924894,0.50044379 0.41042175,0.40566645 l -0.0399589,-0.0426357 -0.0269091,0.001907 -0.0269091,0.001907 0.0329204,0.0416997 c 0.0555837,0.0704067 0.13372767,0.13154681 0.20073253,0.1570544 0.0658138,0.0250541 0.15264344,0.0299023 0.18081174,0.0100961 z m 0.0597042,-0.0404469 0.0263742,-0.0208498 -0.0482411,-0.004172 C 0.66580323,0.50130672 0.59145611,0.46453642 0.52298296,0.38857712 l -0.0224808,-0.0249387 -0.0563104,0 c -0.0309708,0 -0.0562538,0.002165 -0.0561848,0.004811 2.3196e-4,0.007986 0.047688,0.0566767 0.0820379,0.0841298 0.0827203,0.0661115 0.16995315,0.10021695 0.26261911,0.10267567 0.0281547,7.4679e-4 0.0347812,-0.001534 0.0581501,-0.0200067 z m -0.36125204,-0.032454 c -0.0492948,-0.0472721 -0.0737967,-0.073615 -0.0963512,-0.10359226 -0.0184247,-0.0244874 -0.0303787,-0.0355641 -0.0383808,-0.0355641 -0.009806,0 -0.0107878,0.001492 -0.006284,0.009559 0.0113122,0.0202538 0.0655853,0.0753704 0.10424027,0.10586064 0.0383144,0.0302213 0.0542893,0.0405327 0.0367756,0.0237375 z m 0.38442831,-0.002135 c 0.015272,-0.002727 0.0268925,-0.009531 0.0363868,-0.0213097 l 0.0139494,-0.0173044 -0.0396028,-7.9924e-4 C 0.75425982,0.45982275 0.70077659,0.43981132 0.63828649,0.3914892 l -0.0366972,-0.0283774 -0.045332,0.001867 -0.045332,0.001867 0.0332848,0.032974 c 0.0560324,0.0555087 0.11583616,0.086589 0.18874521,0.0980914 0.0445882,0.007033 0.0550356,0.007389 0.0810347,0.002748 z m 0.0733823,-0.0630414 0.0121136,-0.0158357 -0.0302214,-3.1277e-4 c -0.0399329,-4.1371e-4 -0.0834989,-0.0146467 -0.11775421,-0.0384662 -0.0261598,-0.0181906 -0.0310064,-0.0193631 -0.0800329,-0.0193631 -0.0324464,0 -0.0506355,0.00227 -0.0480853,0.006003 0.008217,0.0120256 0.0566733,0.0443711 0.0868205,0.0579529 0.0432025,0.0194635 0.0658054,0.0242368 0.11887568,0.0251042 0.0433066,7.0826e-4 0.0469221,-2.2837e-4 0.0582842,-0.0150811 z m 0.0337003,-0.0483177 0.0168633,-0.0256613 -0.0990957,5.3469e-4 -0.0990956,5.3469e-4 0.0226082,0.0158892 c 0.0299231,0.0210298 0.0692974,0.0332284 0.10927373,0.0338543 0.0324949,5.0963e-4 0.032629,4.3854e-4 0.0494462,-0.0251513 z" id="path5583" inkscape:connector-curvature="0" sodipodi:nodetypes="sssssssssssccsssscsssssscccssccsssscsccsscccssccscsscscssssssssssscsscccsssccssssssccccccsscc" />
</svg>